<svg xmlns="http://www.w3.org/2000/svg" viewBox="4.0 36.0 1075.0 278.0" width="1075" height="278">
  <!-- left: 2x7 checkerboard, light squares only (no outline) -->
  <g><rect x="12" y="49" width="25.2" height="25.2" fill="#e0e0e0"></rect><rect x="12" y="99.4" width="25.2" height="25.2" fill="#e0e0e0"></rect><rect x="12" y="149.8" width="25.2" height="25.2" fill="#e0e0e0"></rect><rect x="12" y="200.2" width="25.2" height="25.2" fill="#e0e0e0"></rect><rect x="12" y="250.6" width="25.2" height="25.2" fill="#e0e0e0"></rect><rect x="37.2" y="74.2" width="25.2" height="25.2" fill="#e0e0e0"></rect><rect x="37.2" y="124.6" width="25.2" height="25.2" fill="#e0e0e0"></rect><rect x="37.2" y="175" width="25.2" height="25.2" fill="#e0e0e0"></rect><rect x="37.2" y="225.4" width="25.2" height="25.2" fill="#e0e0e0"></rect><rect x="37.2" y="275.8" width="25.2" height="25.2" fill="#e0e0e0"></rect></g>

  <!-- F : top 45% band -->
  <g fill="#e0e0e0">
    <rect x="137" y="49" width="5.4" height="113.4"></rect>  <!-- stem -->
    <rect x="137" y="49" width="29" height="5.4"></rect>    <!-- top tick -->
    <rect x="137" y="103" width="15" height="5.4"></rect>    <!-- middle (centred) -->
  </g>
  <!-- 1 : symmetric bars (each side = F top tick), shifted left -->
  <g fill="#e0e0e0"><rect x="223.3" y="187.6" width="5.4" height="113.4" fill="#e0e0e0"></rect><rect x="200.1" y="187.6" width="28.6" height="5.4" fill="#e0e0e0"></rect><rect x="200.1" y="295.6" width="51.8" height="5.4" fill="#e0e0e0"></rect></g>

  <!-- roundel + rails as ONE stroked path (no seam); d set by JS -->
  <path fill="none" stroke="#e0e0e0" stroke-width="22" stroke-linejoin="round" d="M 573 115 L 538.1 114.9 L 537.0 113.2 L 535.9 111.5 L 534.8 109.9 L 533.6 108.2 L 532.4 106.6 L 531.2 105.0 L 530.0 103.4 L 528.7 101.9 L 527.4 100.3 L 526.1 98.8 L 524.8 97.3 L 523.4 95.8 L 522.0 94.4 L 520.6 93.0 L 519.2 91.6 L 517.7 90.2 L 516.2 88.9 L 514.7 87.6 L 513.1 86.3 L 511.6 85.0 L 510.0 83.8 L 508.4 82.6 L 506.8 81.4 L 505.1 80.2 L 503.5 79.1 L 501.8 78.0 L 500.1 76.9 L 498.4 75.9 L 496.6 74.9 L 494.9 73.9 L 493.1 73.0 L 491.3 72.1 L 489.5 71.2 L 487.7 70.4 L 485.9 69.5 L 484.0 68.8 L 482.1 68.0 L 480.3 67.3 L 478.4 66.6 L 476.5 65.9 L 474.6 65.3 L 472.7 64.7 L 470.7 64.2 L 468.8 63.7 L 466.8 63.2 L 464.9 62.7 L 462.9 62.3 L 461.0 61.9 L 459.0 61.6 L 457.0 61.3 L 455.0 61.0 L 453.0 60.7 L 451.0 60.5 L 449.0 60.4 L 447.0 60.2 L 445.0 60.1 L 443.0 60.0 L 441.0 60.0 L 439.0 60.0 L 437.0 60.0 L 435.0 60.1 L 433.0 60.2 L 431.0 60.4 L 429.0 60.5 L 427.0 60.7 L 425.0 61.0 L 423.0 61.3 L 421.0 61.6 L 419.0 61.9 L 417.1 62.3 L 415.1 62.7 L 413.2 63.2 L 411.2 63.7 L 409.3 64.2 L 407.3 64.7 L 405.4 65.3 L 403.5 65.9 L 401.6 66.6 L 399.7 67.3 L 397.9 68.0 L 396.0 68.8 L 394.1 69.5 L 392.3 70.4 L 390.5 71.2 L 388.7 72.1 L 386.9 73.0 L 385.1 73.9 L 383.4 74.9 L 381.6 75.9 L 379.9 76.9 L 378.2 78.0 L 376.5 79.1 L 374.9 80.2 L 373.2 81.4 L 371.6 82.6 L 370.0 83.8 L 368.4 85.0 L 366.9 86.3 L 365.3 87.6 L 363.8 88.9 L 362.3 90.2 L 360.8 91.6 L 359.4 93.0 L 358.0 94.4 L 356.6 95.8 L 355.2 97.3 L 353.9 98.8 L 352.6 100.3 L 351.3 101.9 L 350.0 103.4 L 348.8 105.0 L 347.6 106.6 L 346.4 108.2 L 345.2 109.9 L 344.1 111.5 L 343.0 113.2 L 341.9 114.9 L 340.9 116.6 L 339.9 118.4 L 338.9 120.1 L 338.0 121.9 L 337.1 123.7 L 336.2 125.5 L 335.4 127.3 L 334.5 129.1 L 333.8 131.0 L 333.0 132.9 L 332.3 134.7 L 331.6 136.6 L 330.9 138.5 L 330.3 140.4 L 329.7 142.3 L 329.2 144.3 L 328.7 146.2 L 328.2 148.2 L 327.7 150.1 L 327.3 152.1 L 326.9 154.0 L 326.6 156.0 L 326.3 158.0 L 326.0 160.0 L 325.7 162.0 L 325.5 164.0 L 325.4 166.0 L 325.2 168.0 L 325.1 170.0 L 325.0 172.0 L 325.0 174.0 L 325.0 176.0 L 325.0 178.0 L 325.1 180.0 L 325.2 182.0 L 325.4 184.0 L 325.5 186.0 L 325.7 188.0 L 326.0 190.0 L 326.3 192.0 L 326.6 194.0 L 326.9 196.0 L 327.3 197.9 L 327.7 199.9 L 328.2 201.8 L 328.7 203.8 L 329.2 205.7 L 329.7 207.7 L 330.3 209.6 L 330.9 211.5 L 331.6 213.4 L 332.3 215.3 L 333.0 217.1 L 333.8 219.0 L 334.5 220.9 L 335.4 222.7 L 336.2 224.5 L 337.1 226.3 L 338.0 228.1 L 338.9 229.9 L 339.9 231.6 L 340.9 233.4 L 341.9 235.1 L 343.0 236.8 L 344.1 238.5 L 345.2 240.1 L 346.4 241.8 L 347.6 243.4 L 348.8 245.0 L 350.0 246.6 L 351.3 248.1 L 352.6 249.7 L 353.9 251.2 L 355.2 252.7 L 356.6 254.2 L 358.0 255.6 L 359.4 257.0 L 360.8 258.4 L 362.3 259.8 L 363.8 261.1 L 365.3 262.4 L 366.9 263.7 L 368.4 265.0 L 370.0 266.2 L 371.6 267.4 L 373.2 268.6 L 374.9 269.8 L 376.5 270.9 L 378.2 272.0 L 379.9 273.1 L 381.6 274.1 L 383.4 275.1 L 385.1 276.1 L 386.9 277.0 L 388.7 277.9 L 390.5 278.8 L 392.3 279.6 L 394.1 280.5 L 396.0 281.2 L 397.9 282.0 L 399.7 282.7 L 401.6 283.4 L 403.5 284.1 L 405.4 284.7 L 407.3 285.3 L 409.3 285.8 L 411.2 286.3 L 413.2 286.8 L 415.1 287.3 L 417.1 287.7 L 419.0 288.1 L 421.0 288.4 L 423.0 288.7 L 425.0 289.0 L 427.0 289.3 L 429.0 289.5 L 431.0 289.6 L 433.0 289.8 L 435.0 289.9 L 437.0 290.0 L 439.0 290.0 L 441.0 290.0 L 443.0 290.0 L 445.0 289.9 L 447.0 289.8 L 449.0 289.6 L 451.0 289.5 L 453.0 289.3 L 455.0 289.0 L 457.0 288.7 L 459.0 288.4 L 461.0 288.1 L 462.9 287.7 L 464.9 287.3 L 466.8 286.8 L 468.8 286.3 L 470.7 285.8 L 472.7 285.3 L 474.6 284.7 L 476.5 284.1 L 478.4 283.4 L 480.3 282.7 L 482.1 282.0 L 484.0 281.2 L 485.9 280.5 L 487.7 279.6 L 489.5 278.8 L 491.3 277.9 L 493.1 277.0 L 494.9 276.1 L 496.6 275.1 L 498.4 274.1 L 500.1 273.1 L 501.8 272.0 L 503.5 270.9 L 505.1 269.8 L 506.8 268.6 L 508.4 267.4 L 510.0 266.2 L 511.6 265.0 L 513.1 263.7 L 514.7 262.4 L 516.2 261.1 L 517.7 259.8 L 519.2 258.4 L 520.6 257.0 L 522.0 255.6 L 523.4 254.2 L 524.8 252.7 L 526.1 251.2 L 527.4 249.7 L 528.7 248.1 L 530.0 246.6 L 531.2 245.0 L 532.4 243.4 L 533.6 241.8 L 534.8 240.1 L 535.9 238.5 L 537.0 236.8 L 538.1 235.1 L 675 235"></path>

  <!-- U centred in roundel + NLEASHED (shorter, tracked) -->
  
  

  <g><rect x="573" y="104" width="22" height="22" fill="#e0e0e0" opacity="1.00"></rect><rect x="617" y="104" width="22" height="22" fill="#e0e0e0" opacity="0.90"></rect><rect x="661" y="104" width="22" height="22" fill="#e0e0e0" opacity="0.80"></rect><rect x="705" y="104" width="22" height="22" fill="#e0e0e0" opacity="0.70"></rect><rect x="749" y="104" width="22" height="22" fill="#e0e0e0" opacity="0.60"></rect><rect x="793" y="104" width="22" height="22" fill="#e0e0e0" opacity="0.50"></rect><rect x="837" y="104" width="22" height="22" fill="#e0e0e0" opacity="0.40"></rect><rect x="881" y="104" width="22" height="22" fill="#e0e0e0" opacity="0.30"></rect><rect x="925" y="104" width="22" height="22" fill="#e0e0e0" opacity="0.20"></rect><rect x="969" y="104" width="22" height="22" fill="#e0e0e0" opacity="0.10"></rect><rect x="697" y="224" width="22" height="22" fill="#e0e0e0" opacity="1.00"></rect><rect x="741" y="224" width="22" height="22" fill="#e0e0e0" opacity="0.90"></rect><rect x="785" y="224" width="22" height="22" fill="#e0e0e0" opacity="0.80"></rect><rect x="829" y="224" width="22" height="22" fill="#e0e0e0" opacity="0.70"></rect><rect x="873" y="224" width="22" height="22" fill="#e0e0e0" opacity="0.60"></rect><rect x="917" y="224" width="22" height="22" fill="#e0e0e0" opacity="0.50"></rect><rect x="961" y="224" width="22" height="22" fill="#e0e0e0" opacity="0.40"></rect><rect x="1005" y="224" width="22" height="22" fill="#e0e0e0" opacity="0.30"></rect><rect x="1049" y="224" width="22" height="22" fill="#e0e0e0" opacity="0.20"></rect></g>
<g fill="#e0e0e0"><path d="M419.182 200.026Q419.182 220.494 439.994 220.494Q460.806 220.494 460.806 200.026V122.11H484.542V199.51Q484.542 221.01 473.448 231.072Q462.354 241.134 439.994 241.134Q417.634 241.134 406.54 231.072Q395.446 221.01 395.446 199.51V122.11H419.182Z"/><path d="M501.548 209.995V140.635H525.314L542.042 197.755H543.062V140.635H557.138V209.995H533.984L516.644 152.875H515.624V209.995Z"/><path d="M613.693875 209.995H574.219875V140.635H588.295875V197.55100000000002H613.693875Z"/><path d="M624.376125 209.995V140.635H669.256125V152.875H638.452125V169.09300000000002H663.136125V181.12900000000002H638.452125V197.755H669.256125V209.995Z"/><path d="M677.062125 209.995 692.668125 140.635H719.392125L734.998125 209.995H720.922125L718.168125 197.449H693.892125L691.138125 209.995ZM703.582125 152.263 696.544125 185.209H715.516125L708.478125 152.263Z"/><path d="M766.881625 151.651Q755.763625 151.651 755.763625 158.995Q755.763625 162.25900000000001 758.517625 163.993Q761.271625 165.727 771.420625 168.99099999999999Q781.569625 172.255 785.649625 176.386Q789.7296249999999 180.517 789.7296249999999 189.085Q789.7296249999999 199.999 783.099625 205.60899999999998Q776.469625 211.219 765.759625 211.219Q757.803625 211.219 746.277625 208.77100000000002L742.605625 208.05700000000002L744.033625 197.143Q757.701625 198.979 764.943625 198.979Q775.755625 198.979 775.755625 190.00300000000001Q775.755625 186.739 773.256625 184.90300000000002Q770.757625 183.067 763.311625 180.925Q751.4796249999999 177.559 746.6346249999999 172.918Q741.789625 168.27700000000002 741.789625 160.01500000000001Q741.789625 149.61100000000002 748.113625 144.51100000000002Q754.437625 139.411 765.453625 139.411Q773.001625 139.411 784.629625 141.45100000000002L788.301625 142.16500000000002L787.179625 153.28300000000002Q772.797625 151.651 766.881625 151.651Z"/><path d="M842.945625 209.995V181.231H817.139625V209.995H803.063625V140.635H817.139625V168.991H842.945625V140.635H857.021625V209.995Z"/><path d="M874.1105 209.995V140.635H918.9905V152.875H888.1865V169.09300000000002H912.8705V181.12900000000002H888.1865V197.755H918.9905V209.995Z"/><path d="M955.9685 209.995H932.6105V140.635H955.9685Q964.9445 140.635 970.7584999999999 142.522Q976.5725 144.409 979.7855 148.744Q982.9985 153.079 984.2225000000001 158.94400000000002Q985.4465 164.809 985.4465 174.19299999999998Q985.4465 183.577 984.3245 189.748Q983.2025 195.919 980.0915 200.764Q976.9805 205.609 971.0645 207.80200000000002Q965.1485 209.995 955.9685 209.995ZM970.7585 182.455Q970.9625 179.191 970.9625 173.428Q970.9625 167.66500000000002 970.5545 164.197Q970.1465 160.729 968.6165 157.873Q967.0865 155.017 964.0775 153.946Q961.0685 152.875 955.9685 152.875H946.6865V197.755H955.9685Q963.6185 197.755 967.0865 193.87900000000002Q970.0445 190.717 970.7585 182.455Z"/></g></svg>