<?xml version="1.0" encoding="utf-8"?>
<?xml-stylesheet type="text/css" href="../../css/tracks.css"?>
<svg xmlns="http://www.w3.org/2000/svg" viewBox="-480.0 311.8 960.0 623.6">
  <title>Austin</title>

  <g id="track-root" transform="translate(0, 623.63) scale(1, -1) scale(0.044114) translate(-6513.50, -1181.00)" data-scale="0.044114" data-rotation="0.0">

    <g id="track-outline">
      <path d="M -1396.0 -340.0 L -1360.0 -370.0 L -1290.0 -424.0 L -1252.0 -454.0 L -1169.0 -517.0 L -1140.0 -540.0 L -1064.0 -597.0 L -1025.0 -628.0 L -937.0 -694.0 L -908.0 -717.0 L -808.0 -792.0 L -789.0 -808.0 L -676.0 -894.0 L -668.0 -901.0 L -545.0 -995.0 L -542.0 -997.0 L -419.0 -1091.0 L -404.0 -1101.0 L -292.0 -1188.0 L -265.0 -1208.0 L -163.0 -1287.0 L -124.0 -1316.0 L -33.0 -1387.0 L 17.0 -1425.0 L 98.0 -1488.0 L 161.0 -1536.0 L 231.0 -1590.0 L 307.0 -1648.0 L 366.0 -1693.0 L 455.0 -1761.0 L 502.0 -1797.0 L 604.0 -1875.0 L 639.0 -1902.0 L 754.0 -1991.0 L 777.0 -2008.0 L 907.0 -2106.0 L 917.0 -2114.0 L 1005.9 -2183.1" class="track-outline" data-sector="1"/>
      <path d="M 1005.9 -2183.1 L 1056.0 -2222.0 L 1059.0 -2224.0 L 1197.0 -2329.0 L 1213.0 -2341.0 L 1339.0 -2437.0 L 1367.0 -2458.0 L 1481.0 -2546.0 L 1530.0 -2584.0 L 1656.0 -2680.0 L 1714.0 -2724.0 L 1800.0 -2790.0 L 1868.0 -2842.0 L 1944.0 -2901.0 L 2026.0 -2963.0 L 2089.0 -3011.0 L 2184.0 -3084.0 L 2233.0 -3123.0 L 2339.0 -3208.0 L 2375.0 -3237.0 L 2489.0 -3324.0 L 2501.0 -3333.0 L 2653.0 -3449.0 L 2655.0 -3450.0 L 2799.0 -3560.0 L 2801.9 -3562.2" class="track-outline" data-sector="2"/>
      <path d="M 2801.9 -3562.2 L 2813.0 -3571.0 L 2928.0 -3668.0 L 2950.0 -3687.0 L 3036.0 -3761.0 L 3047.0 -3770.0 L 3137.0 -3844.0 L 3155.0 -3859.0 L 3225.0 -3916.0 L 3248.0 -3935.0 L 3303.0 -3977.0 L 3330.0 -3996.0 L 3373.0 -4022.0 L 3406.0 -4037.0 L 3443.0 -4050.0 L 3484.0 -4060.0 L 3515.0 -4066.0 L 3559.0 -4072.0 L 3582.0 -4074.0 L 3627.0 -4071.0 L 3642.0 -4069.0 L 3688.0 -4053.0 L 3697.0 -4049.0 L 3743.0 -4014.0 L 3747.0 -4009.0 L 3779.0 -3969.0 L 3784.0 -3959.0 L 3802.0 -3919.0 L 3806.0 -3903.0 L 3812.0 -3865.0 L 3813.0 -3843.0 L 3813.0 -3809.0 L 3811.0 -3781.0 L 3808.0 -3752.0 L 3804.0 -3718.0 L 3802.0 -3693.0 L 3796.0 -3653.0 L 3793.0 -3633.0 L 3785.0 -3586.0 L 3783.0 -3570.0 L 3770.0 -3503.0 L 3769.0 -3501.0 L 3755.0 -3436.0 L 3752.0 -3427.0 L 3732.0 -3361.0 L 3726.0 -3345.0 L 3700.0 -3281.0 L 3681.0 -3240.0 L 3660.0 -3195.0 L 3635.0 -3143.0 L 3617.0 -3103.0 L 3607.5 -3083.2" class="track-outline" data-sector="3"/>
      <path d="M 3607.5 -3083.2 L 3586.0 -3038.0 L 3571.0 -3005.0 L 3537.0 -2933.0 L 3530.0 -2916.0 L 3484.0 -2811.0 L 3481.0 -2802.0 L 3439.0 -2688.0 L 3438.0 -2686.0 L 3406.0 -2591.0 L 3402.0 -2579.0 L 3370.0 -2463.0 L 3369.0 -2460.0 L 3339.0 -2332.0 L 3336.0 -2317.0 L 3326.0 -2197.0 L 3325.0 -2169.0 L 3334.0 -2055.0 L 3339.0 -2011.0 L 3359.0 -1909.0 L 3370.0 -1853.0 L 3392.0 -1766.0 L 3413.0 -1699.0 L 3442.0 -1628.0 L 3478.0 -1550.0 L 3510.0 -1493.0 L 3561.0 -1406.0 L 3590.0 -1364.0 L 3658.0 -1273.0 L 3683.0 -1245.0 L 3775.0 -1153.0 L 3794.0 -1137.0 L 3908.0 -1044.0 L 3917.0 -1038.0 L 4046.0 -949.0 L 4048.0 -947.0 L 4180.0 -865.0 L 4196.0 -855.0 L 4329.0 -785.0 L 4358.0 -769.0 L 4472.0 -711.0 L 4513.0 -689.0 L 4614.0 -636.0 L 4669.0 -606.0 L 4757.0 -559.0 L 4822.0 -518.0 L 4865.2 -489.4" class="track-outline" data-sector="4"/>
      <path d="M 4865.2 -489.4 L 4893.0 -471.0 L 4968.0 -414.0 L 5026.0 -371.0 L 5113.0 -305.0 L 5158.0 -271.0 L 5277.0 -174.0 L 5286.0 -167.0 L 5397.0 -53.0 L 5399.0 -50.0 L 5485.0 84.0 L 5494.0 100.0 L 5570.0 238.0 L 5587.0 268.0 L 5654.0 383.0 L 5678.0 426.0 L 5730.0 516.0 L 5771.0 582.0 L 5823.0 654.0 L 5880.0 724.0 L 5929.0 775.0 L 6004.0 841.0 L 6049.0 873.0 L 6155.0 931.0 L 6193.0 949.0 L 6318.0 1005.0 L 6342.0 1017.0 L 6459.0 1093.0 L 6468.0 1100.0 L 6566.0 1211.0 L 6583.0 1237.0 L 6647.0 1346.0 L 6666.0 1385.0 L 6705.0 1482.0 L 6720.0 1538.0 L 6742.0 1631.0 L 6759.0 1701.0 L 6778.0 1777.0 L 6796.0 1859.0 L 6813.0 1922.0 L 6846.0 2013.0 L 6866.0 2060.0 L 6914.0 2158.0 L 6932.0 2189.0 L 6967.4 2240.0" class="track-outline" data-sector="5"/>
      <path d="M 6967.4 2240.0 L 6998.0 2284.0 L 7012.0 2301.0 L 7102.0 2394.0 L 7109.0 2401.0 L 7213.0 2488.0 L 7215.0 2489.0 L 7321.0 2564.0 L 7333.0 2571.0 L 7433.0 2629.0 L 7456.0 2641.0 L 7549.0 2684.0 L 7584.0 2698.0 L 7670.0 2728.0 L 7717.0 2739.0 L 7794.0 2752.0 L 7855.0 2755.0 L 7924.0 2755.0 L 7998.0 2748.0 L 8055.0 2740.0 L 8139.0 2719.0 L 8183.0 2706.0 L 8183.8 2705.7" class="track-outline" data-sector="6"/>
      <path d="M 8183.8 2705.7 L 8282.0 2669.0 L 8316.0 2656.0 L 8431.0 2605.0 L 8452.0 2596.0 L 8566.0 2535.0 L 8575.0 2531.0 L 8695.0 2464.0 L 8697.0 2462.0 L 8811.0 2410.0 L 8837.0 2400.0 L 8943.0 2368.0 L 8980.0 2358.0 L 9073.0 2339.0 L 9120.0 2332.0 L 9196.0 2329.0 L 9250.0 2334.0 L 9311.0 2350.0 L 9376.0 2378.0 L 9427.0 2406.0 L 9501.0 2451.0 L 9539.0 2476.0 L 9617.0 2529.0 L 9643.0 2549.0 L 9721.0 2618.0 L 9736.0 2633.0 L 9816.0 2724.0 L 9822.0 2731.0 L 9901.0 2835.0 L 9902.0 2837.0 L 9982.0 2932.0 L 9999.0 2951.0 L 10034.0 2989.0 L 10059.0 3017.0 L 10105.0 3067.0 L 10137.0 3102.0 L 10173.0 3136.0 L 10212.0 3167.0 L 10245.0 3188.0 L 10296.0 3216.0 L 10324.0 3229.0 L 10371.6 3246.2" class="track-outline" data-sector="7"/>
      <path d="M 10371.6 3246.2 L 10382.0 3250.0 L 10403.0 3256.0 L 10472.0 3267.0 L 10486.0 3268.0 L 10567.0 3267.0 L 10576.0 3266.0 L 10646.0 3256.0 L 10661.0 3252.0 L 10722.0 3234.0 L 10743.0 3225.0 L 10795.0 3202.0 L 10822.0 3186.0 L 10865.0 3159.0 L 10898.0 3134.0 L 10934.0 3107.0 L 10972.0 3076.0 L 11001.0 3051.0 L 11042.0 3007.0 L 11064.0 2983.0 L 11116.0 2928.0 L 11135.0 2912.0 L 11204.0 2867.0 L 11219.0 2861.0 L 11310.0 2828.0 L 11317.0 2827.0 L 11411.0 2813.0 L 11441.0 2811.0 L 11518.0 2814.0 L 11559.0 2816.0 L 11628.0 2823.0 L 11678.0 2828.0 L 11740.0 2836.0 L 11815.0 2845.0 L 11873.0 2855.0 L 11950.0 2871.0 L 11974.4 2877.1" class="track-outline" data-sector="8"/>
      <path d="M 11974.4 2877.1 L 11990.0 2881.0 L 12078.0 2903.0 L 12109.0 2912.0 L 12212.0 2938.0 L 12233.0 2944.0 L 12352.0 2974.0 L 12361.0 2977.0 L 12492.0 3011.0 L 12495.0 3011.0 L 12625.0 3049.0 L 12640.0 3053.0 L 12757.0 3094.0 L 12784.0 3104.0 L 12890.0 3151.0 L 12929.0 3168.0 L 13024.0 3213.0 L 13076.0 3237.0 L 13159.0 3278.0 L 13220.0 3311.0 L 13286.0 3353.0 L 13374.0 3426.0 L 13403.0 3453.0 L 13500.0 3546.0 L 13518.0 3565.0 L 13618.0 3672.0 L 13626.0 3681.0 L 13730.0 3802.0 L 13732.0 3804.0 L 13831.0 3928.0 L 13842.0 3942.0 L 13933.0 4056.0 L 13953.0 4082.0 L 14036.0 4184.0 L 14066.0 4222.0 L 14140.0 4314.0 L 14200.0 4389.0 L 14245.0 4445.0 L 14311.0 4525.0 L 14346.0 4567.0 L 14426.0 4664.0 L 14454.0 4698.0 L 14545.0 4808.0 L 14563.0 4830.0 L 14662.0 4953.0 L 14670.0 4963.0 L 14776.0 5099.0 L 14778.0 5102.0 L 14864.0 5208.6" class="track-outline" data-sector="9"/>
      <path d="M 14864.0 5208.6 L 14874.0 5221.0 L 14896.0 5247.0 L 14987.0 5354.0 L 15019.0 5392.0 L 15097.0 5486.0 L 15135.0 5531.0 L 15196.0 5603.0 L 15240.0 5653.0 L 15288.0 5707.0 L 15333.0 5759.0 L 15366.0 5797.0 L 15410.0 5850.0 L 15431.0 5877.0 L 15468.0 5930.0 L 15480.0 5948.0 L 15512.0 6007.0 L 15518.0 6018.0 L 15546.0 6076.0 L 15548.0 6081.0 L 15569.0 6140.0 L 15569.0 6141.0 L 15581.0 6196.0 L 15581.0 6202.0 L 15580.0 6251.0 L 15578.0 6261.0 L 15566.0 6302.0 L 15559.0 6315.0 L 15540.0 6344.0 L 15526.0 6358.0 L 15503.0 6378.0 L 15482.0 6391.0 L 15460.0 6403.0 L 15434.0 6413.0 L 15415.0 6420.0 L 15385.0 6427.0 L 15370.0 6431.0 L 15326.0 6435.0 L 15323.0 6436.0 L 15274.0 6436.0 L 15272.0 6435.0 L 15222.0 6433.0 L 15215.0 6432.0 L 15167.0 6427.0 L 15145.0 6424.0 L 15110.0 6419.0 L 15081.0 6414.0 L 15049.0 6408.0 L 15013.0 6399.0 L 14986.0 6393.0 L 14941.0 6381.0 L 14917.0 6374.0 L 14862.0 6356.0 L 14843.0 6350.0 L 14775.0 6326.0 L 14762.0 6322.0 L 14680.0 6292.0 L 14675.0 6290.0 L 14602.0 6263.0 L 14592.0 6259.0 L 14503.0 6227.0 L 14482.0 6219.0 L 14399.0 6189.0 L 14368.0 6177.0 L 14290.0 6149.0 L 14247.0 6133.0 L 14198.7 6115.6" class="track-outline" data-sector="10"/>
      <path d="M 14198.7 6115.6 L 14175.0 6107.0 L 14140.0 6094.0 L 14057.0 6065.0 L 14010.0 6048.0 L 13935.0 6021.0 L 13875.0 6000.0 L 13809.0 5977.0 L 13736.0 5951.0 L 13680.0 5932.0 L 13592.0 5901.0 L 13546.0 5886.0 L 13444.0 5851.0 L 13410.0 5840.0 L 13293.0 5800.0 L 13271.0 5793.0 L 13138.0 5749.0 L 13129.0 5746.0 L 12985.0 5700.0 L 12981.0 5698.0 L 12837.0 5657.0 L 12820.0 5652.0 L 12687.0 5614.0 L 12656.0 5605.0 L 12535.0 5571.0 L 12489.0 5558.0 L 12381.0 5528.0 L 12321.0 5511.0 L 12225.0 5485.0 L 12149.0 5464.0 L 12130.2 5459.0" class="track-outline" data-sector="11"/>
      <path d="M 12130.2 5459.0 L 12067.0 5442.0 L 11978.0 5418.0 L 11911.0 5400.0 L 11804.0 5371.0 L 11749.0 5357.0 L 11625.0 5325.0 L 11584.0 5315.0 L 11444.0 5279.0 L 11418.0 5273.0 L 11261.0 5233.0 L 11250.0 5231.0 L 11080.0 5189.0 L 11076.0 5188.0 L 10909.0 5148.0 L 10889.0 5143.0 L 10736.0 5107.0 L 10700.0 5098.0 L 10562.0 5067.0 L 10510.0 5055.0 L 10386.0 5027.0 L 10317.0 5011.0 L 10224.0 4991.0 L 10123.0 4968.0 L 10046.0 4952.0 L 9928.0 4927.0 L 9866.0 4914.0 L 9730.0 4885.0 L 9684.0 4876.0 L 9535.0 4845.0 L 9506.0 4840.0 L 9464.2 4831.6" class="track-outline" data-sector="12"/>
      <path d="M 9464.2 4831.6 L 9337.0 4806.0 L 9324.0 4804.0 L 9139.0 4768.0 L 9135.0 4767.0 L 8953.0 4733.0 L 8931.0 4729.0 L 8767.0 4699.0 L 8728.0 4692.0 L 8579.0 4665.0 L 8523.0 4655.0 L 8391.0 4633.0 L 8318.0 4620.0 L 8202.0 4601.0 L 8111.0 4585.0 L 8012.0 4569.0 L 7904.0 4551.0 L 7822.0 4538.0 L 7696.0 4517.0 L 7631.0 4508.0 L 7487.0 4489.0 L 7439.0 4484.0 L 7276.0 4464.0 L 7246.0 4461.0 L 7066.0 4440.0 L 7053.0 4439.0 L 6859.0 4418.0 L 6854.0 4417.0 L 6664.0 4398.0 L 6641.0 4395.0 L 6469.0 4378.0 L 6429.0 4374.0 L 6274.0 4359.0 L 6216.0 4353.0 L 6079.0 4341.0 L 6003.0 4333.0 L 5883.0 4322.0 L 5784.0 4311.0 L 5677.0 4301.0 L 5564.0 4290.0 L 5481.0 4282.0 L 5351.0 4268.0 L 5285.0 4262.0 L 5239.9 4257.4" class="track-outline" data-sector="13"/>
      <path d="M 5239.9 4257.4 L 5139.0 4247.0 L 5093.0 4243.0 L 4949.0 4227.0 L 4924.0 4225.0 L 4778.0 4212.0 L 4769.0 4212.0 L 4649.0 4201.0 L 4635.0 4199.0 L 4534.0 4190.0 L 4512.0 4187.0 L 4434.0 4179.0 L 4406.0 4176.0 L 4343.0 4169.0 L 4312.0 4164.0 L 4268.0 4154.0 L 4248.0 4148.0 L 4203.0 4131.0 L 4179.0 4119.0 L 4143.0 4098.0 L 4115.0 4080.0 L 4088.0 4061.0 L 4062.0 4039.0 L 4046.0 4023.0 L 4024.0 3995.0 L 4016.0 3980.0 L 4000.0 3942.0 L 3997.0 3930.0 L 3987.0 3885.0 L 3987.0 3877.0 L 3986.0 3829.0 L 3987.0 3826.0 L 3996.0 3776.0 L 3996.0 3774.0 L 4011.0 3726.0 L 4013.0 3720.0 L 4031.0 3676.0 L 4035.0 3665.0 L 4058.0 3623.0 L 4066.0 3606.0 L 4090.0 3568.0 L 4104.0 3545.0 L 4129.0 3510.0 L 4150.0 3481.0 L 4175.0 3450.0 L 4204.0 3416.0 L 4228.0 3391.0 L 4267.0 3351.0 L 4289.0 3330.0 L 4337.0 3281.0 L 4354.0 3265.0 L 4413.0 3209.0 L 4426.0 3198.0 L 4511.0 3117.0 L 4517.0 3112.0 L 4597.0 3036.0 L 4598.0 3034.0 L 4679.0 2955.0 L 4687.0 2946.0 L 4711.4 2921.6" class="track-outline" data-sector="14"/>
      <path d="M 4711.4 2921.6 L 4746.0 2887.0 L 4761.0 2870.0 L 4825.0 2796.0 L 4847.0 2767.0 L 4897.0 2699.0 L 4921.0 2663.0 L 4950.0 2616.0 L 4974.0 2568.0 L 4989.0 2533.0 L 5006.0 2478.0 L 5013.0 2450.0 L 5023.0 2389.0 L 5026.0 2370.0 L 5029.0 2322.0 L 5029.0 2298.0 L 5024.0 2247.0 L 5022.0 2231.0 L 5007.0 2178.0 L 5004.0 2169.0 L 4979.0 2114.0 L 4977.0 2111.0 L 4942.0 2059.0 L 4941.0 2057.0 L 4903.0 2014.0 L 4898.0 2009.0 L 4859.0 1978.0 L 4849.0 1972.0 L 4809.0 1954.0 L 4781.0 1946.0 L 4751.0 1941.0 L 4717.0 1936.0 L 4690.0 1935.0 L 4645.0 1933.0 L 4626.0 1933.0 L 4599.0 1932.0 L 4589.0 1933.0 L 4533.0 1935.0 L 4522.0 1937.0 L 4460.0 1949.0 L 4456.0 1951.0 L 4385.0 1978.0 L 4383.0 1978.0 L 4315.0 2012.0 L 4307.0 2016.0 L 4250.0 2057.0 L 4236.0 2068.0 L 4184.0 2117.0 L 4164.0 2135.0 L 4119.0 2183.0 L 4094.0 2210.0 L 4056.0 2257.0 L 4029.0 2297.0 L 4002.0 2345.0 L 3972.0 2400.0 L 3949.0 2443.0 L 3912.0 2509.0 L 3894.0 2544.0 L 3853.0 2623.0 L 3840.0 2650.0 L 3807.1 2708.6" class="track-outline" data-sector="15"/>
      <path d="M 3807.1 2708.6 L 3790.0 2739.0 L 3780.0 2756.0 L 3708.0 2848.0 L 3703.0 2855.0 L 3626.0 2938.0 L 3617.0 2947.0 L 3546.0 3014.0 L 3530.0 3027.0 L 3467.0 3078.0 L 3444.0 3093.0 L 3390.0 3125.0 L 3361.0 3139.0 L 3314.0 3159.0 L 3291.0 3166.0 L 3236.0 3180.0 L 3208.0 3184.0 L 3166.0 3187.0 L 3134.0 3185.0 L 3100.0 3182.0 L 3063.0 3174.0 L 3037.0 3168.0 L 3000.0 3154.0 L 2983.0 3147.0 L 2938.0 3121.0 L 2935.0 3119.0 L 2894.0 3084.0 L 2893.0 3083.0 L 2862.0 3045.0 L 2858.0 3040.0 L 2840.0 3001.0 L 2837.0 2991.0 L 2831.0 2955.0 L 2830.0 2941.0 L 2833.0 2907.0 L 2835.0 2887.0 L 2840.0 2858.0 L 2845.0 2835.0 L 2853.0 2811.0 L 2863.0 2782.0 L 2873.0 2761.0 L 2887.0 2728.0 L 2896.0 2712.0 L 2918.0 2674.0 L 2927.0 2662.0 L 2956.0 2617.0 L 2963.0 2609.0 L 3000.0 2555.0 L 3003.0 2552.0 L 3047.0 2492.0 L 3048.0 2490.0 L 3096.0 2428.0 L 3111.0 2408.0 L 3149.0 2360.0 L 3170.0 2332.0 L 3206.0 2286.0 L 3235.0 2249.0 L 3269.0 2208.0 L 3307.0 2161.0 L 3337.0 2126.0 L 3383.0 2069.0 L 3407.0 2039.0 L 3458.0 1968.0 L 3469.0 1953.0 L 3528.0 1857.0 L 3533.0 1850.0 L 3593.0 1740.0 L 3593.0 1737.0 L 3640.0 1626.0 L 3644.0 1612.0 L 3654.7 1574.8" class="track-outline" data-sector="16"/>
      <path d="M 3654.7 1574.8 L 3677.0 1497.0 L 3677.0 1494.0 L 3708.0 1365.0 L 3710.0 1350.0 L 3725.0 1230.0 L 3726.0 1201.0 L 3730.0 1088.0 L 3728.0 1046.0 L 3721.0 949.0 L 3712.0 894.0 L 3693.0 808.0 L 3672.0 741.0 L 3646.0 669.0 L 3612.0 590.0 L 3585.0 533.0 L 3538.0 451.0 L 3510.0 410.0 L 3436.0 320.0 L 3410.0 293.0 L 3373.8 260.4" class="track-outline" data-sector="17"/>
      <path d="M 3373.8 260.4 L 3318.0 210.0 L 3299.0 196.0 L 3176.0 125.0 L 3169.0 121.0 L 3065.0 70.0 L 3062.0 68.0 L 2926.0 9.0 L 2882.0 -6.0 L 2779.0 -39.0 L 2722.0 -53.0 L 2630.0 -71.0 L 2555.0 -77.0 L 2472.0 -79.0 L 2381.0 -74.0 L 2312.0 -68.0 L 2206.0 -53.0 L 2152.0 -44.0 L 2035.0 -20.0 L 1997.0 -10.0 L 1869.0 33.0 L 1846.0 43.0 L 1707.0 105.0 L 1698.0 111.0 L 1559.0 191.0 L 1555.0 192.0 L 1424.0 283.0 L 1409.0 294.0 L 1307.0 393.0 L 1264.0 441.0 L 1199.0 523.0 L 1149.0 585.0 L 1107.0 643.0 L 1048.0 733.0 L 1021.0 781.0 L 970.0 879.0 L 952.0 914.0 L 881.0 1034.0 L 867.0 1058.0 L 803.0 1166.0 L 782.0 1203.0 L 708.0 1321.0 L 693.0 1344.0 L 601.0 1461.0 L 595.0 1470.0 L 499.0 1582.0 L 496.0 1584.0 L 434.8 1646.5" class="track-outline" data-sector="18"/>
      <path d="M 434.8 1646.5 L 405.0 1677.0 L 393.0 1686.0 L 303.0 1757.0 L 281.0 1771.0 L 197.0 1824.0 L 164.0 1840.0 L 87.0 1874.0 L 43.0 1888.0 L -26.0 1904.0 L -82.0 1910.0 L -146.0 1912.0 L -215.0 1908.0 L -268.0 1903.0 L -345.0 1892.0 L -385.0 1884.0 L -469.0 1859.0 L -498.0 1849.0 L -592.0 1807.0 L -611.0 1799.0 L -719.0 1746.0 L -728.0 1743.0 L -846.0 1687.0 L -848.0 1685.0 L -967.0 1630.0 L -980.0 1623.0 L -1091.0 1572.0 L -1116.0 1559.0 L -1218.0 1513.0 L -1256.0 1495.0 L -1349.0 1455.0 L -1401.0 1433.0 L -1485.0 1399.0 L -1576.0 1362.0 L -1624.0 1343.0 L -1729.0 1300.0 L -1764.0 1286.0 L -1879.0 1238.0 L -1901.0 1230.0 L -1966.7 1202.3" class="track-outline" data-sector="19"/>
      <path d="M -1966.7 1202.3 L -2022.0 1179.0 L -2033.0 1173.0 L -2116.0 1137.0 L -2134.0 1128.0 L -2200.0 1098.0 L -2232.0 1081.0 L -2282.0 1054.0 L -2327.0 1024.0 L -2350.0 1009.0 L -2394.0 972.0 L -2409.0 960.0 L -2443.0 925.0 L -2460.0 908.0 L -2491.0 867.0 L -2501.0 854.0 L -2527.0 806.0 L -2532.0 797.0 L -2549.0 740.0 L -2550.0 736.0 L -2554.0 674.0 L -2553.0 672.0 L -2544.0 614.0 L -2538.0 596.0 L -2524.0 557.0 L -2514.0 536.0 L -2497.0 504.0 L -2481.0 479.0 L -2463.0 453.0 L -2441.0 424.0 L -2425.0 403.0 L -2398.0 370.0 L -2384.0 355.0 L -2344.0 313.0 L -2341.0 310.0 L -2288.0 262.0 L -2286.0 260.0 L -2228.0 215.0 L -2220.0 209.0 L -2164.0 167.0 L -2150.0 157.0 L -2095.0 118.0 L -2073.0 103.0 L -2019.0 67.0 L -1988.0 47.0 L -1938.0 16.0 L -1896.0 -9.0 L -1850.0 -38.0 L -1797.0 -70.0 L -1756.0 -97.0 L -1691.0 -138.0 L -1657.0 -160.0 L -1580.0 -209.0 L -1555.0 -226.0 L -1473.0 -283.0 L -1458.0 -294.0 L -1394.0 -341.0 L -1396.0 -340.0" class="track-outline" data-sector="20"/>
    </g>

    <g id="track-sectors">
      <path d="M -1396.0 -340.0 L -1360.0 -370.0 L -1290.0 -424.0 L -1252.0 -454.0 L -1169.0 -517.0 L -1140.0 -540.0 L -1064.0 -597.0 L -1025.0 -628.0 L -937.0 -694.0 L -908.0 -717.0 L -808.0 -792.0 L -789.0 -808.0 L -676.0 -894.0 L -668.0 -901.0 L -545.0 -995.0 L -542.0 -997.0 L -419.0 -1091.0 L -404.0 -1101.0 L -292.0 -1188.0 L -265.0 -1208.0 L -163.0 -1287.0 L -124.0 -1316.0 L -33.0 -1387.0 L 17.0 -1425.0 L 98.0 -1488.0 L 161.0 -1536.0 L 231.0 -1590.0 L 307.0 -1648.0 L 366.0 -1693.0 L 455.0 -1761.0 L 502.0 -1797.0 L 604.0 -1875.0 L 639.0 -1902.0 L 754.0 -1991.0 L 777.0 -2008.0 L 907.0 -2106.0 L 917.0 -2114.0 L 1005.9 -2183.1" class="track" data-sector="1"/>
      <path d="M 1005.9 -2183.1 L 1056.0 -2222.0 L 1059.0 -2224.0 L 1197.0 -2329.0 L 1213.0 -2341.0 L 1339.0 -2437.0 L 1367.0 -2458.0 L 1481.0 -2546.0 L 1530.0 -2584.0 L 1656.0 -2680.0 L 1714.0 -2724.0 L 1800.0 -2790.0 L 1868.0 -2842.0 L 1944.0 -2901.0 L 2026.0 -2963.0 L 2089.0 -3011.0 L 2184.0 -3084.0 L 2233.0 -3123.0 L 2339.0 -3208.0 L 2375.0 -3237.0 L 2489.0 -3324.0 L 2501.0 -3333.0 L 2653.0 -3449.0 L 2655.0 -3450.0 L 2799.0 -3560.0 L 2801.9 -3562.2" class="track" data-sector="2"/>
      <path d="M 2801.9 -3562.2 L 2813.0 -3571.0 L 2928.0 -3668.0 L 2950.0 -3687.0 L 3036.0 -3761.0 L 3047.0 -3770.0 L 3137.0 -3844.0 L 3155.0 -3859.0 L 3225.0 -3916.0 L 3248.0 -3935.0 L 3303.0 -3977.0 L 3330.0 -3996.0 L 3373.0 -4022.0 L 3406.0 -4037.0 L 3443.0 -4050.0 L 3484.0 -4060.0 L 3515.0 -4066.0 L 3559.0 -4072.0 L 3582.0 -4074.0 L 3627.0 -4071.0 L 3642.0 -4069.0 L 3688.0 -4053.0 L 3697.0 -4049.0 L 3743.0 -4014.0 L 3747.0 -4009.0 L 3779.0 -3969.0 L 3784.0 -3959.0 L 3802.0 -3919.0 L 3806.0 -3903.0 L 3812.0 -3865.0 L 3813.0 -3843.0 L 3813.0 -3809.0 L 3811.0 -3781.0 L 3808.0 -3752.0 L 3804.0 -3718.0 L 3802.0 -3693.0 L 3796.0 -3653.0 L 3793.0 -3633.0 L 3785.0 -3586.0 L 3783.0 -3570.0 L 3770.0 -3503.0 L 3769.0 -3501.0 L 3755.0 -3436.0 L 3752.0 -3427.0 L 3732.0 -3361.0 L 3726.0 -3345.0 L 3700.0 -3281.0 L 3681.0 -3240.0 L 3660.0 -3195.0 L 3635.0 -3143.0 L 3617.0 -3103.0 L 3607.5 -3083.2" class="track" data-sector="3"/>
      <path d="M 3607.5 -3083.2 L 3586.0 -3038.0 L 3571.0 -3005.0 L 3537.0 -2933.0 L 3530.0 -2916.0 L 3484.0 -2811.0 L 3481.0 -2802.0 L 3439.0 -2688.0 L 3438.0 -2686.0 L 3406.0 -2591.0 L 3402.0 -2579.0 L 3370.0 -2463.0 L 3369.0 -2460.0 L 3339.0 -2332.0 L 3336.0 -2317.0 L 3326.0 -2197.0 L 3325.0 -2169.0 L 3334.0 -2055.0 L 3339.0 -2011.0 L 3359.0 -1909.0 L 3370.0 -1853.0 L 3392.0 -1766.0 L 3413.0 -1699.0 L 3442.0 -1628.0 L 3478.0 -1550.0 L 3510.0 -1493.0 L 3561.0 -1406.0 L 3590.0 -1364.0 L 3658.0 -1273.0 L 3683.0 -1245.0 L 3775.0 -1153.0 L 3794.0 -1137.0 L 3908.0 -1044.0 L 3917.0 -1038.0 L 4046.0 -949.0 L 4048.0 -947.0 L 4180.0 -865.0 L 4196.0 -855.0 L 4329.0 -785.0 L 4358.0 -769.0 L 4472.0 -711.0 L 4513.0 -689.0 L 4614.0 -636.0 L 4669.0 -606.0 L 4757.0 -559.0 L 4822.0 -518.0 L 4865.2 -489.4" class="track" data-sector="4"/>
      <path d="M 4865.2 -489.4 L 4893.0 -471.0 L 4968.0 -414.0 L 5026.0 -371.0 L 5113.0 -305.0 L 5158.0 -271.0 L 5277.0 -174.0 L 5286.0 -167.0 L 5397.0 -53.0 L 5399.0 -50.0 L 5485.0 84.0 L 5494.0 100.0 L 5570.0 238.0 L 5587.0 268.0 L 5654.0 383.0 L 5678.0 426.0 L 5730.0 516.0 L 5771.0 582.0 L 5823.0 654.0 L 5880.0 724.0 L 5929.0 775.0 L 6004.0 841.0 L 6049.0 873.0 L 6155.0 931.0 L 6193.0 949.0 L 6318.0 1005.0 L 6342.0 1017.0 L 6459.0 1093.0 L 6468.0 1100.0 L 6566.0 1211.0 L 6583.0 1237.0 L 6647.0 1346.0 L 6666.0 1385.0 L 6705.0 1482.0 L 6720.0 1538.0 L 6742.0 1631.0 L 6759.0 1701.0 L 6778.0 1777.0 L 6796.0 1859.0 L 6813.0 1922.0 L 6846.0 2013.0 L 6866.0 2060.0 L 6914.0 2158.0 L 6932.0 2189.0 L 6967.4 2240.0" class="track" data-sector="5"/>
      <path d="M 6967.4 2240.0 L 6998.0 2284.0 L 7012.0 2301.0 L 7102.0 2394.0 L 7109.0 2401.0 L 7213.0 2488.0 L 7215.0 2489.0 L 7321.0 2564.0 L 7333.0 2571.0 L 7433.0 2629.0 L 7456.0 2641.0 L 7549.0 2684.0 L 7584.0 2698.0 L 7670.0 2728.0 L 7717.0 2739.0 L 7794.0 2752.0 L 7855.0 2755.0 L 7924.0 2755.0 L 7998.0 2748.0 L 8055.0 2740.0 L 8139.0 2719.0 L 8183.0 2706.0 L 8183.8 2705.7" class="track" data-sector="6"/>
      <path d="M 8183.8 2705.7 L 8282.0 2669.0 L 8316.0 2656.0 L 8431.0 2605.0 L 8452.0 2596.0 L 8566.0 2535.0 L 8575.0 2531.0 L 8695.0 2464.0 L 8697.0 2462.0 L 8811.0 2410.0 L 8837.0 2400.0 L 8943.0 2368.0 L 8980.0 2358.0 L 9073.0 2339.0 L 9120.0 2332.0 L 9196.0 2329.0 L 9250.0 2334.0 L 9311.0 2350.0 L 9376.0 2378.0 L 9427.0 2406.0 L 9501.0 2451.0 L 9539.0 2476.0 L 9617.0 2529.0 L 9643.0 2549.0 L 9721.0 2618.0 L 9736.0 2633.0 L 9816.0 2724.0 L 9822.0 2731.0 L 9901.0 2835.0 L 9902.0 2837.0 L 9982.0 2932.0 L 9999.0 2951.0 L 10034.0 2989.0 L 10059.0 3017.0 L 10105.0 3067.0 L 10137.0 3102.0 L 10173.0 3136.0 L 10212.0 3167.0 L 10245.0 3188.0 L 10296.0 3216.0 L 10324.0 3229.0 L 10371.6 3246.2" class="track" data-sector="7"/>
      <path d="M 10371.6 3246.2 L 10382.0 3250.0 L 10403.0 3256.0 L 10472.0 3267.0 L 10486.0 3268.0 L 10567.0 3267.0 L 10576.0 3266.0 L 10646.0 3256.0 L 10661.0 3252.0 L 10722.0 3234.0 L 10743.0 3225.0 L 10795.0 3202.0 L 10822.0 3186.0 L 10865.0 3159.0 L 10898.0 3134.0 L 10934.0 3107.0 L 10972.0 3076.0 L 11001.0 3051.0 L 11042.0 3007.0 L 11064.0 2983.0 L 11116.0 2928.0 L 11135.0 2912.0 L 11204.0 2867.0 L 11219.0 2861.0 L 11310.0 2828.0 L 11317.0 2827.0 L 11411.0 2813.0 L 11441.0 2811.0 L 11518.0 2814.0 L 11559.0 2816.0 L 11628.0 2823.0 L 11678.0 2828.0 L 11740.0 2836.0 L 11815.0 2845.0 L 11873.0 2855.0 L 11950.0 2871.0 L 11974.4 2877.1" class="track" data-sector="8"/>
      <path d="M 11974.4 2877.1 L 11990.0 2881.0 L 12078.0 2903.0 L 12109.0 2912.0 L 12212.0 2938.0 L 12233.0 2944.0 L 12352.0 2974.0 L 12361.0 2977.0 L 12492.0 3011.0 L 12495.0 3011.0 L 12625.0 3049.0 L 12640.0 3053.0 L 12757.0 3094.0 L 12784.0 3104.0 L 12890.0 3151.0 L 12929.0 3168.0 L 13024.0 3213.0 L 13076.0 3237.0 L 13159.0 3278.0 L 13220.0 3311.0 L 13286.0 3353.0 L 13374.0 3426.0 L 13403.0 3453.0 L 13500.0 3546.0 L 13518.0 3565.0 L 13618.0 3672.0 L 13626.0 3681.0 L 13730.0 3802.0 L 13732.0 3804.0 L 13831.0 3928.0 L 13842.0 3942.0 L 13933.0 4056.0 L 13953.0 4082.0 L 14036.0 4184.0 L 14066.0 4222.0 L 14140.0 4314.0 L 14200.0 4389.0 L 14245.0 4445.0 L 14311.0 4525.0 L 14346.0 4567.0 L 14426.0 4664.0 L 14454.0 4698.0 L 14545.0 4808.0 L 14563.0 4830.0 L 14662.0 4953.0 L 14670.0 4963.0 L 14776.0 5099.0 L 14778.0 5102.0 L 14864.0 5208.6" class="track" data-sector="9"/>
      <path d="M 14864.0 5208.6 L 14874.0 5221.0 L 14896.0 5247.0 L 14987.0 5354.0 L 15019.0 5392.0 L 15097.0 5486.0 L 15135.0 5531.0 L 15196.0 5603.0 L 15240.0 5653.0 L 15288.0 5707.0 L 15333.0 5759.0 L 15366.0 5797.0 L 15410.0 5850.0 L 15431.0 5877.0 L 15468.0 5930.0 L 15480.0 5948.0 L 15512.0 6007.0 L 15518.0 6018.0 L 15546.0 6076.0 L 15548.0 6081.0 L 15569.0 6140.0 L 15569.0 6141.0 L 15581.0 6196.0 L 15581.0 6202.0 L 15580.0 6251.0 L 15578.0 6261.0 L 15566.0 6302.0 L 15559.0 6315.0 L 15540.0 6344.0 L 15526.0 6358.0 L 15503.0 6378.0 L 15482.0 6391.0 L 15460.0 6403.0 L 15434.0 6413.0 L 15415.0 6420.0 L 15385.0 6427.0 L 15370.0 6431.0 L 15326.0 6435.0 L 15323.0 6436.0 L 15274.0 6436.0 L 15272.0 6435.0 L 15222.0 6433.0 L 15215.0 6432.0 L 15167.0 6427.0 L 15145.0 6424.0 L 15110.0 6419.0 L 15081.0 6414.0 L 15049.0 6408.0 L 15013.0 6399.0 L 14986.0 6393.0 L 14941.0 6381.0 L 14917.0 6374.0 L 14862.0 6356.0 L 14843.0 6350.0 L 14775.0 6326.0 L 14762.0 6322.0 L 14680.0 6292.0 L 14675.0 6290.0 L 14602.0 6263.0 L 14592.0 6259.0 L 14503.0 6227.0 L 14482.0 6219.0 L 14399.0 6189.0 L 14368.0 6177.0 L 14290.0 6149.0 L 14247.0 6133.0 L 14198.7 6115.6" class="track" data-sector="10"/>
      <path d="M 14198.7 6115.6 L 14175.0 6107.0 L 14140.0 6094.0 L 14057.0 6065.0 L 14010.0 6048.0 L 13935.0 6021.0 L 13875.0 6000.0 L 13809.0 5977.0 L 13736.0 5951.0 L 13680.0 5932.0 L 13592.0 5901.0 L 13546.0 5886.0 L 13444.0 5851.0 L 13410.0 5840.0 L 13293.0 5800.0 L 13271.0 5793.0 L 13138.0 5749.0 L 13129.0 5746.0 L 12985.0 5700.0 L 12981.0 5698.0 L 12837.0 5657.0 L 12820.0 5652.0 L 12687.0 5614.0 L 12656.0 5605.0 L 12535.0 5571.0 L 12489.0 5558.0 L 12381.0 5528.0 L 12321.0 5511.0 L 12225.0 5485.0 L 12149.0 5464.0 L 12130.2 5459.0" class="track" data-sector="11"/>
      <path d="M 12130.2 5459.0 L 12067.0 5442.0 L 11978.0 5418.0 L 11911.0 5400.0 L 11804.0 5371.0 L 11749.0 5357.0 L 11625.0 5325.0 L 11584.0 5315.0 L 11444.0 5279.0 L 11418.0 5273.0 L 11261.0 5233.0 L 11250.0 5231.0 L 11080.0 5189.0 L 11076.0 5188.0 L 10909.0 5148.0 L 10889.0 5143.0 L 10736.0 5107.0 L 10700.0 5098.0 L 10562.0 5067.0 L 10510.0 5055.0 L 10386.0 5027.0 L 10317.0 5011.0 L 10224.0 4991.0 L 10123.0 4968.0 L 10046.0 4952.0 L 9928.0 4927.0 L 9866.0 4914.0 L 9730.0 4885.0 L 9684.0 4876.0 L 9535.0 4845.0 L 9506.0 4840.0 L 9464.2 4831.6" class="track" data-sector="12"/>
      <path d="M 9464.2 4831.6 L 9337.0 4806.0 L 9324.0 4804.0 L 9139.0 4768.0 L 9135.0 4767.0 L 8953.0 4733.0 L 8931.0 4729.0 L 8767.0 4699.0 L 8728.0 4692.0 L 8579.0 4665.0 L 8523.0 4655.0 L 8391.0 4633.0 L 8318.0 4620.0 L 8202.0 4601.0 L 8111.0 4585.0 L 8012.0 4569.0 L 7904.0 4551.0 L 7822.0 4538.0 L 7696.0 4517.0 L 7631.0 4508.0 L 7487.0 4489.0 L 7439.0 4484.0 L 7276.0 4464.0 L 7246.0 4461.0 L 7066.0 4440.0 L 7053.0 4439.0 L 6859.0 4418.0 L 6854.0 4417.0 L 6664.0 4398.0 L 6641.0 4395.0 L 6469.0 4378.0 L 6429.0 4374.0 L 6274.0 4359.0 L 6216.0 4353.0 L 6079.0 4341.0 L 6003.0 4333.0 L 5883.0 4322.0 L 5784.0 4311.0 L 5677.0 4301.0 L 5564.0 4290.0 L 5481.0 4282.0 L 5351.0 4268.0 L 5285.0 4262.0 L 5239.9 4257.4" class="track" data-sector="13"/>
      <path d="M 5239.9 4257.4 L 5139.0 4247.0 L 5093.0 4243.0 L 4949.0 4227.0 L 4924.0 4225.0 L 4778.0 4212.0 L 4769.0 4212.0 L 4649.0 4201.0 L 4635.0 4199.0 L 4534.0 4190.0 L 4512.0 4187.0 L 4434.0 4179.0 L 4406.0 4176.0 L 4343.0 4169.0 L 4312.0 4164.0 L 4268.0 4154.0 L 4248.0 4148.0 L 4203.0 4131.0 L 4179.0 4119.0 L 4143.0 4098.0 L 4115.0 4080.0 L 4088.0 4061.0 L 4062.0 4039.0 L 4046.0 4023.0 L 4024.0 3995.0 L 4016.0 3980.0 L 4000.0 3942.0 L 3997.0 3930.0 L 3987.0 3885.0 L 3987.0 3877.0 L 3986.0 3829.0 L 3987.0 3826.0 L 3996.0 3776.0 L 3996.0 3774.0 L 4011.0 3726.0 L 4013.0 3720.0 L 4031.0 3676.0 L 4035.0 3665.0 L 4058.0 3623.0 L 4066.0 3606.0 L 4090.0 3568.0 L 4104.0 3545.0 L 4129.0 3510.0 L 4150.0 3481.0 L 4175.0 3450.0 L 4204.0 3416.0 L 4228.0 3391.0 L 4267.0 3351.0 L 4289.0 3330.0 L 4337.0 3281.0 L 4354.0 3265.0 L 4413.0 3209.0 L 4426.0 3198.0 L 4511.0 3117.0 L 4517.0 3112.0 L 4597.0 3036.0 L 4598.0 3034.0 L 4679.0 2955.0 L 4687.0 2946.0 L 4711.4 2921.6" class="track" data-sector="14"/>
      <path d="M 4711.4 2921.6 L 4746.0 2887.0 L 4761.0 2870.0 L 4825.0 2796.0 L 4847.0 2767.0 L 4897.0 2699.0 L 4921.0 2663.0 L 4950.0 2616.0 L 4974.0 2568.0 L 4989.0 2533.0 L 5006.0 2478.0 L 5013.0 2450.0 L 5023.0 2389.0 L 5026.0 2370.0 L 5029.0 2322.0 L 5029.0 2298.0 L 5024.0 2247.0 L 5022.0 2231.0 L 5007.0 2178.0 L 5004.0 2169.0 L 4979.0 2114.0 L 4977.0 2111.0 L 4942.0 2059.0 L 4941.0 2057.0 L 4903.0 2014.0 L 4898.0 2009.0 L 4859.0 1978.0 L 4849.0 1972.0 L 4809.0 1954.0 L 4781.0 1946.0 L 4751.0 1941.0 L 4717.0 1936.0 L 4690.0 1935.0 L 4645.0 1933.0 L 4626.0 1933.0 L 4599.0 1932.0 L 4589.0 1933.0 L 4533.0 1935.0 L 4522.0 1937.0 L 4460.0 1949.0 L 4456.0 1951.0 L 4385.0 1978.0 L 4383.0 1978.0 L 4315.0 2012.0 L 4307.0 2016.0 L 4250.0 2057.0 L 4236.0 2068.0 L 4184.0 2117.0 L 4164.0 2135.0 L 4119.0 2183.0 L 4094.0 2210.0 L 4056.0 2257.0 L 4029.0 2297.0 L 4002.0 2345.0 L 3972.0 2400.0 L 3949.0 2443.0 L 3912.0 2509.0 L 3894.0 2544.0 L 3853.0 2623.0 L 3840.0 2650.0 L 3807.1 2708.6" class="track" data-sector="15"/>
      <path d="M 3807.1 2708.6 L 3790.0 2739.0 L 3780.0 2756.0 L 3708.0 2848.0 L 3703.0 2855.0 L 3626.0 2938.0 L 3617.0 2947.0 L 3546.0 3014.0 L 3530.0 3027.0 L 3467.0 3078.0 L 3444.0 3093.0 L 3390.0 3125.0 L 3361.0 3139.0 L 3314.0 3159.0 L 3291.0 3166.0 L 3236.0 3180.0 L 3208.0 3184.0 L 3166.0 3187.0 L 3134.0 3185.0 L 3100.0 3182.0 L 3063.0 3174.0 L 3037.0 3168.0 L 3000.0 3154.0 L 2983.0 3147.0 L 2938.0 3121.0 L 2935.0 3119.0 L 2894.0 3084.0 L 2893.0 3083.0 L 2862.0 3045.0 L 2858.0 3040.0 L 2840.0 3001.0 L 2837.0 2991.0 L 2831.0 2955.0 L 2830.0 2941.0 L 2833.0 2907.0 L 2835.0 2887.0 L 2840.0 2858.0 L 2845.0 2835.0 L 2853.0 2811.0 L 2863.0 2782.0 L 2873.0 2761.0 L 2887.0 2728.0 L 2896.0 2712.0 L 2918.0 2674.0 L 2927.0 2662.0 L 2956.0 2617.0 L 2963.0 2609.0 L 3000.0 2555.0 L 3003.0 2552.0 L 3047.0 2492.0 L 3048.0 2490.0 L 3096.0 2428.0 L 3111.0 2408.0 L 3149.0 2360.0 L 3170.0 2332.0 L 3206.0 2286.0 L 3235.0 2249.0 L 3269.0 2208.0 L 3307.0 2161.0 L 3337.0 2126.0 L 3383.0 2069.0 L 3407.0 2039.0 L 3458.0 1968.0 L 3469.0 1953.0 L 3528.0 1857.0 L 3533.0 1850.0 L 3593.0 1740.0 L 3593.0 1737.0 L 3640.0 1626.0 L 3644.0 1612.0 L 3654.7 1574.8" class="track" data-sector="16"/>
      <path d="M 3654.7 1574.8 L 3677.0 1497.0 L 3677.0 1494.0 L 3708.0 1365.0 L 3710.0 1350.0 L 3725.0 1230.0 L 3726.0 1201.0 L 3730.0 1088.0 L 3728.0 1046.0 L 3721.0 949.0 L 3712.0 894.0 L 3693.0 808.0 L 3672.0 741.0 L 3646.0 669.0 L 3612.0 590.0 L 3585.0 533.0 L 3538.0 451.0 L 3510.0 410.0 L 3436.0 320.0 L 3410.0 293.0 L 3373.8 260.4" class="track" data-sector="17"/>
      <path d="M 3373.8 260.4 L 3318.0 210.0 L 3299.0 196.0 L 3176.0 125.0 L 3169.0 121.0 L 3065.0 70.0 L 3062.0 68.0 L 2926.0 9.0 L 2882.0 -6.0 L 2779.0 -39.0 L 2722.0 -53.0 L 2630.0 -71.0 L 2555.0 -77.0 L 2472.0 -79.0 L 2381.0 -74.0 L 2312.0 -68.0 L 2206.0 -53.0 L 2152.0 -44.0 L 2035.0 -20.0 L 1997.0 -10.0 L 1869.0 33.0 L 1846.0 43.0 L 1707.0 105.0 L 1698.0 111.0 L 1559.0 191.0 L 1555.0 192.0 L 1424.0 283.0 L 1409.0 294.0 L 1307.0 393.0 L 1264.0 441.0 L 1199.0 523.0 L 1149.0 585.0 L 1107.0 643.0 L 1048.0 733.0 L 1021.0 781.0 L 970.0 879.0 L 952.0 914.0 L 881.0 1034.0 L 867.0 1058.0 L 803.0 1166.0 L 782.0 1203.0 L 708.0 1321.0 L 693.0 1344.0 L 601.0 1461.0 L 595.0 1470.0 L 499.0 1582.0 L 496.0 1584.0 L 434.8 1646.5" class="track" data-sector="18"/>
      <path d="M 434.8 1646.5 L 405.0 1677.0 L 393.0 1686.0 L 303.0 1757.0 L 281.0 1771.0 L 197.0 1824.0 L 164.0 1840.0 L 87.0 1874.0 L 43.0 1888.0 L -26.0 1904.0 L -82.0 1910.0 L -146.0 1912.0 L -215.0 1908.0 L -268.0 1903.0 L -345.0 1892.0 L -385.0 1884.0 L -469.0 1859.0 L -498.0 1849.0 L -592.0 1807.0 L -611.0 1799.0 L -719.0 1746.0 L -728.0 1743.0 L -846.0 1687.0 L -848.0 1685.0 L -967.0 1630.0 L -980.0 1623.0 L -1091.0 1572.0 L -1116.0 1559.0 L -1218.0 1513.0 L -1256.0 1495.0 L -1349.0 1455.0 L -1401.0 1433.0 L -1485.0 1399.0 L -1576.0 1362.0 L -1624.0 1343.0 L -1729.0 1300.0 L -1764.0 1286.0 L -1879.0 1238.0 L -1901.0 1230.0 L -1966.7 1202.3" class="track" data-sector="19"/>
      <path d="M -1966.7 1202.3 L -2022.0 1179.0 L -2033.0 1173.0 L -2116.0 1137.0 L -2134.0 1128.0 L -2200.0 1098.0 L -2232.0 1081.0 L -2282.0 1054.0 L -2327.0 1024.0 L -2350.0 1009.0 L -2394.0 972.0 L -2409.0 960.0 L -2443.0 925.0 L -2460.0 908.0 L -2491.0 867.0 L -2501.0 854.0 L -2527.0 806.0 L -2532.0 797.0 L -2549.0 740.0 L -2550.0 736.0 L -2554.0 674.0 L -2553.0 672.0 L -2544.0 614.0 L -2538.0 596.0 L -2524.0 557.0 L -2514.0 536.0 L -2497.0 504.0 L -2481.0 479.0 L -2463.0 453.0 L -2441.0 424.0 L -2425.0 403.0 L -2398.0 370.0 L -2384.0 355.0 L -2344.0 313.0 L -2341.0 310.0 L -2288.0 262.0 L -2286.0 260.0 L -2228.0 215.0 L -2220.0 209.0 L -2164.0 167.0 L -2150.0 157.0 L -2095.0 118.0 L -2073.0 103.0 L -2019.0 67.0 L -1988.0 47.0 L -1938.0 16.0 L -1896.0 -9.0 L -1850.0 -38.0 L -1797.0 -70.0 L -1756.0 -97.0 L -1691.0 -138.0 L -1657.0 -160.0 L -1580.0 -209.0 L -1555.0 -226.0 L -1473.0 -283.0 L -1458.0 -294.0 L -1394.0 -341.0 L -1396.0 -340.0" class="track" data-sector="20"/>
    </g>

    <g id="marshal-lights">
      <g class="marshal-light-marker" data-light="1">
        <rect x="-1452.7" y="-396.7" width="113.3" height="113.3" class="marshal-light-bg"/>
        <text x="-1396.0" y="-340.0" class="marshal-light-label">1</text>
      </g>
      <g class="marshal-light-marker" data-light="2">
        <rect x="1094.1" y="-2350.5" width="113.3" height="113.3" class="marshal-light-bg"/>
        <text x="1150.8" y="-2293.8" class="marshal-light-label">2</text>
      </g>
      <g class="marshal-light-marker" data-light="3">
        <rect x="2698.0" y="-3582.8" width="113.3" height="113.3" class="marshal-light-bg"/>
        <text x="2754.7" y="-3526.2" class="marshal-light-label">3</text>
      </g>
      <g class="marshal-light-marker" data-light="4">
        <rect x="3652.1" y="-3359.3" width="113.3" height="113.3" class="marshal-light-bg"/>
        <text x="3708.8" y="-3302.6" class="marshal-light-label">4</text>
      </g>
      <g class="marshal-light-marker" data-light="5">
        <rect x="4776.7" y="-567.1" width="113.3" height="113.3" class="marshal-light-bg"/>
        <text x="4833.4" y="-510.5" class="marshal-light-label">5</text>
      </g>
      <g class="marshal-light-marker" data-light="6">
        <rect x="6945.0" y="2231.8" width="113.3" height="113.3" class="marshal-light-bg"/>
        <text x="7001.7" y="2288.4" class="marshal-light-label">6</text>
      </g>
      <g class="marshal-light-marker" data-light="7">
        <rect x="8202.6" y="2620.8" width="113.3" height="113.3" class="marshal-light-bg"/>
        <text x="8259.2" y="2677.5" class="marshal-light-label">7</text>
      </g>
      <g class="marshal-light-marker" data-light="8">
        <rect x="10217.9" y="3147.5" width="113.3" height="113.3" class="marshal-light-bg"/>
        <text x="10274.5" y="3204.2" class="marshal-light-label">8</text>
      </g>
      <g class="marshal-light-marker" data-light="9">
        <rect x="12094.2" y="2865.9" width="113.3" height="113.3" class="marshal-light-bg"/>
        <text x="12150.9" y="2922.6" class="marshal-light-label">9</text>
      </g>
      <g class="marshal-light-marker" data-light="10">
        <rect x="14897.6" y="5258.9" width="113.3" height="113.3" class="marshal-light-bg"/>
        <text x="14954.3" y="5315.6" class="marshal-light-label">10</text>
      </g>
      <g class="marshal-light-marker" data-light="11">
        <rect x="13990.3" y="6004.7" width="113.3" height="113.3" class="marshal-light-bg"/>
        <text x="14046.9" y="6061.4" class="marshal-light-label">11</text>
      </g>
      <g class="marshal-light-marker" data-light="12">
        <rect x="12073.5" y="5402.3" width="113.3" height="113.3" class="marshal-light-bg"/>
        <text x="12130.2" y="5459.0" class="marshal-light-label">12</text>
      </g>
      <g class="marshal-light-marker" data-light="13">
        <rect x="9436.6" y="4780.8" width="113.3" height="113.3" class="marshal-light-bg"/>
        <text x="9493.3" y="4837.4" class="marshal-light-label">13</text>
      </g>
      <g class="marshal-light-marker" data-light="14">
        <rect x="5052.4" y="4187.7" width="113.3" height="113.3" class="marshal-light-bg"/>
        <text x="5109.1" y="4244.4" class="marshal-light-label">14</text>
      </g>
      <g class="marshal-light-marker" data-light="15">
        <rect x="4648.8" y="2870.9" width="113.3" height="113.3" class="marshal-light-bg"/>
        <text x="4705.4" y="2927.6" class="marshal-light-label">15</text>
      </g>
      <g class="marshal-light-marker" data-light="16">
        <rect x="3792.8" y="2573.7" width="113.3" height="113.3" class="marshal-light-bg"/>
        <text x="3849.5" y="2630.4" class="marshal-light-label">16</text>
      </g>
      <g class="marshal-light-marker" data-light="17">
        <rect x="3599.2" y="1514.0" width="113.3" height="113.3" class="marshal-light-bg"/>
        <text x="3655.8" y="1570.7" class="marshal-light-label">17</text>
      </g>
      <g class="marshal-light-marker" data-light="18">
        <rect x="3342.3" y="226.4" width="113.3" height="113.3" class="marshal-light-bg"/>
        <text x="3399.0" y="283.1" class="marshal-light-label">18</text>
      </g>
      <g class="marshal-light-marker" data-light="19">
        <rect x="512.8" y="1443.2" width="113.3" height="113.3" class="marshal-light-bg"/>
        <text x="569.4" y="1499.8" class="marshal-light-label">19</text>
      </g>
      <g class="marshal-light-marker" data-light="20">
        <rect x="-2120.4" y="1103.0" width="113.3" height="113.3" class="marshal-light-bg"/>
        <text x="-2063.7" y="1159.7" class="marshal-light-label">20</text>
      </g>
    </g>

    <g id="marshal-sectors">
      <g class="marshal-sector-marker" data-sector="1" data-length="0.0">
        <polygon points="-1396.0,-476.0 -1513.8,-272.0 -1278.2,-272.0" class="marshal-sector-bg"/>
        <text x="-1396.0" y="-340.0" class="marshal-sector-label">1</text>
      </g>
      <g class="marshal-sector-marker" data-sector="2" data-length="3027.8">
        <polygon points="1005.9,-2319.1 888.1,-2115.1 1123.7,-2115.1" class="marshal-sector-bg"/>
        <text x="1005.9" y="-2183.1" class="marshal-sector-label">2</text>
      </g>
      <g class="marshal-sector-marker" data-sector="3" data-length="5292.3">
        <polygon points="2801.9,-3698.3 2684.1,-3494.2 2919.6,-3494.2" class="marshal-sector-bg"/>
        <text x="2801.9" y="-3562.2" class="marshal-sector-label">3</text>
      </g>
      <g class="marshal-sector-marker" data-sector="4" data-length="7404.1">
        <polygon points="3607.5,-3219.2 3489.8,-3015.2 3725.3,-3015.2" class="marshal-sector-bg"/>
        <text x="3607.5" y="-3083.2" class="marshal-sector-label">4</text>
      </g>
      <g class="marshal-sector-marker" data-sector="5" data-length="10788.2">
        <polygon points="4865.2,-625.4 4747.4,-421.4 4983.0,-421.4" class="marshal-sector-bg"/>
        <text x="4865.2" y="-489.4" class="marshal-sector-label">5</text>
      </g>
      <g class="marshal-sector-marker" data-sector="6" data-length="14358.8">
        <polygon points="6967.4,2104.0 6849.6,2308.0 7085.2,2308.0" class="marshal-sector-bg"/>
        <text x="6967.4" y="2240.0" class="marshal-sector-label">6</text>
      </g>
      <g class="marshal-sector-marker" data-sector="7" data-length="15749.7">
        <polygon points="8183.8,2569.7 8066.0,2773.7 8301.6,2773.7" class="marshal-sector-bg"/>
        <text x="8183.8" y="2705.7" class="marshal-sector-label">7</text>
      </g>
      <g class="marshal-sector-marker" data-sector="8" data-length="18366.2">
        <polygon points="10371.6,3110.2 10253.8,3314.3 10489.4,3314.3" class="marshal-sector-bg"/>
        <text x="10371.6" y="3246.2" class="marshal-sector-label">8</text>
      </g>
      <g class="marshal-sector-marker" data-sector="9" data-length="20117.5">
        <polygon points="11974.4,2741.1 11856.6,2945.1 12092.2,2945.1" class="marshal-sector-bg"/>
        <text x="11974.4" y="2877.1" class="marshal-sector-label">9</text>
      </g>
      <g class="marshal-sector-marker" data-sector="10" data-length="23959.5">
        <polygon points="14864.0,5072.6 14746.2,5276.6 14981.8,5276.6" class="marshal-sector-bg"/>
        <text x="14864.0" y="5208.6" class="marshal-sector-label">10</text>
      </g>
      <g class="marshal-sector-marker" data-sector="11" data-length="26766.8">
        <polygon points="14198.7,5979.5 14080.9,6183.6 14316.5,6183.6" class="marshal-sector-bg"/>
        <text x="14198.7" y="6115.6" class="marshal-sector-label">11</text>
      </g>
      <g class="marshal-sector-marker" data-sector="12" data-length="28938.0">
        <polygon points="12130.2,5322.9 12012.4,5527.0 12248.0,5527.0" class="marshal-sector-bg"/>
        <text x="12130.2" y="5459.0" class="marshal-sector-label">12</text>
      </g>
      <g class="marshal-sector-marker" data-sector="13" data-length="31677.5">
        <polygon points="9464.2,4695.6 9346.4,4899.6 9582.0,4899.6" class="marshal-sector-bg"/>
        <text x="9464.2" y="4831.6" class="marshal-sector-label">13</text>
      </g>
      <g class="marshal-sector-marker" data-sector="14" data-length="35943.6">
        <polygon points="5239.9,4121.4 5122.2,4325.4 5357.7,4325.4" class="marshal-sector-bg"/>
        <text x="5239.9" y="4257.4" class="marshal-sector-label">14</text>
      </g>
      <g class="marshal-sector-marker" data-sector="15" data-length="38572.7">
        <polygon points="4711.4,2785.6 4593.6,2989.6 4829.2,2989.6" class="marshal-sector-bg"/>
        <text x="4711.4" y="2921.6" class="marshal-sector-label">15</text>
      </g>
      <g class="marshal-sector-marker" data-sector="16" data-length="41108.6">
        <polygon points="3807.1,2572.6 3689.3,2776.6 3924.8,2776.6" class="marshal-sector-bg"/>
        <text x="3807.1" y="2708.6" class="marshal-sector-label">16</text>
      </g>
      <g class="marshal-sector-marker" data-sector="17" data-length="44013.5">
        <polygon points="3654.7,1438.8 3536.9,1642.8 3772.5,1642.8" class="marshal-sector-bg"/>
        <text x="3654.7" y="1574.8" class="marshal-sector-label">17</text>
      </g>
      <g class="marshal-sector-marker" data-sector="18" data-length="45434.1">
        <polygon points="3373.8,124.3 3256.0,328.4 3491.6,328.4" class="marshal-sector-bg"/>
        <text x="3373.8" y="260.4" class="marshal-sector-label">18</text>
      </g>
      <g class="marshal-sector-marker" data-sector="19" data-length="49237.9">
        <polygon points="434.8,1510.5 317.0,1714.5 552.6,1714.5" class="marshal-sector-bg"/>
        <text x="434.8" y="1646.5" class="marshal-sector-label">19</text>
      </g>
      <g class="marshal-sector-marker" data-sector="20" data-length="51858.6">
        <polygon points="-1966.7,1066.3 -2084.5,1270.3 -1848.9,1270.3" class="marshal-sector-bg"/>
        <text x="-1966.7" y="1202.3" class="marshal-sector-label">20</text>
      </g>
    </g>

    <g id="corners">
      <g class="corner-marker" data-corner="1" data-length="6420.3">
        <circle cx="3743.5" cy="-4013.4" r="181.3" class="corner-bg"/>
        <text x="3743.5" y="-4013.4" class="corner-label">1</text>
      </g>
      <g class="corner-marker" data-corner="2" data-length="8850.2">
        <circle cx="3414.0" cy="-1696.5" r="181.3" class="corner-bg"/>
        <text x="3414.0" y="-1696.5" class="corner-label">2</text>
      </g>
      <g class="corner-marker" data-corner="3" data-length="11475.1">
        <circle cx="5395.3" cy="-54.7" r="181.3" class="corner-bg"/>
        <text x="5395.3" y="-54.7" class="corner-label">3</text>
      </g>
      <g class="corner-marker" data-corner="4" data-length="12340.2">
        <circle cx="5846.2" cy="682.4" r="181.3" class="corner-bg"/>
        <text x="5846.2" y="682.4" class="corner-label">4</text>
      </g>
      <g class="corner-marker" data-corner="5" data-length="13328.3">
        <circle cx="6609.3" cy="1281.7" r="181.3" class="corner-bg"/>
        <text x="6609.3" y="1281.7" class="corner-label">5</text>
      </g>
      <g class="corner-marker" data-corner="6" data-length="14647.1">
        <circle cx="7165.3" cy="2448.1" r="181.3" class="corner-bg"/>
        <text x="7165.3" y="2448.1" class="corner-label">6</text>
      </g>
      <g class="corner-marker" data-corner="7" data-length="16932.8">
        <circle cx="9287.6" cy="2343.9" r="181.3" class="corner-bg"/>
        <text x="9287.6" y="2343.9" class="corner-label">7</text>
      </g>
      <g class="corner-marker" data-corner="8" data-length="18472.2">
        <circle cx="10475.3" cy="3267.2" r="181.3" class="corner-bg"/>
        <text x="10475.3" y="3267.2" class="corner-label">8</text>
      </g>
      <g class="corner-marker" data-corner="9" data-length="19400.9">
        <circle cx="11266.6" cy="2843.7" r="181.3" class="corner-bg"/>
        <text x="11266.6" y="2843.7" class="corner-label">9</text>
      </g>
      <g class="corner-marker" data-corner="10" data-length="21495.7">
        <circle cx="13265.5" cy="3340.0" r="181.3" class="corner-bg"/>
        <text x="13265.5" y="3340.0" class="corner-label">10</text>
      </g>
      <g class="corner-marker" data-corner="11" data-length="25316.5">
        <circle cx="15557.8" cy="6316.8" r="181.3" class="corner-bg"/>
        <text x="15557.8" y="6316.8" class="corner-label">11</text>
      </g>
      <g class="corner-marker" data-corner="12" data-length="37215.7">
        <circle cx="4025.1" cy="3996.4" r="181.3" class="corner-bg"/>
        <text x="4025.1" y="3996.4" class="corner-label">12</text>
      </g>
      <g class="corner-marker" data-corner="13" data-length="39552.3">
        <circle cx="4941.6" cy="2058.2" r="181.3" class="corner-bg"/>
        <text x="4941.6" y="2058.2" class="corner-label">13</text>
      </g>
      <g class="corner-marker" data-corner="14" data-length="40277.4">
        <circle cx="4279.2" cy="2036.0" r="181.3" class="corner-bg"/>
        <text x="4279.2" y="2036.0" class="corner-label">14</text>
      </g>
      <g class="corner-marker" data-corner="15" data-length="42296.0">
        <circle cx="2857.0" cy="3037.8" r="181.3" class="corner-bg"/>
        <text x="2857.0" y="3037.8" class="corner-label">15</text>
      </g>
      <g class="corner-marker" data-corner="16" data-length="44166.1">
        <circle cx="3693.1" cy="1427.2" r="181.3" class="corner-bg"/>
        <text x="3693.1" y="1427.2" class="corner-label">16</text>
      </g>
      <g class="corner-marker" data-corner="17" data-length="45506.1">
        <circle cx="3320.3" cy="212.1" r="181.3" class="corner-bg"/>
        <text x="3320.3" y="212.1" class="corner-label">17</text>
      </g>
      <g class="corner-marker" data-corner="18" data-length="46888.6">
        <circle cx="2005.0" cy="-12.1" r="181.3" class="corner-bg"/>
        <text x="2005.0" y="-12.1" class="corner-label">18</text>
      </g>
      <g class="corner-marker" data-corner="19" data-length="49700.1">
        <circle cx="45.3" cy="1887.3" r="181.3" class="corner-bg"/>
        <text x="45.3" y="1887.3" class="corner-label">19</text>
      </g>
      <g class="corner-marker" data-corner="20" data-length="52753.4">
        <circle cx="-2544.7" cy="618.3" r="181.3" class="corner-bg"/>
        <text x="-2544.7" y="618.3" class="corner-label">20</text>
      </g>
    </g>

    <g id="start-finish" data-track-x="-1396.0" data-track-y="-340.0" data-lap-distance="54280.0">
      <polygon points="-1727.9,344.0 -1188.8,-70.4 -940.1,253.1 -1479.3,667.6" class="checker-border"/>
      <polygon points="-1727.9,344.0 -1620.1,261.2 -1537.2,369.0 -1645.0,451.9" class="checker-black"/>
      <polygon points="-1645.0,451.9 -1537.2,369.0 -1454.3,476.8 -1562.2,559.7" class="checker-white"/>
      <polygon points="-1562.2,559.7 -1454.3,476.8 -1371.4,584.7 -1479.3,667.6" class="checker-black"/>
      <polygon points="-1620.1,261.2 -1512.3,178.3 -1429.4,286.1 -1537.2,369.0" class="checker-white"/>
      <polygon points="-1537.2,369.0 -1429.4,286.1 -1346.5,393.9 -1454.3,476.8" class="checker-black"/>
      <polygon points="-1454.3,476.8 -1346.5,393.9 -1263.6,501.8 -1371.4,584.7" class="checker-white"/>
      <polygon points="-1512.3,178.3 -1404.4,95.4 -1321.5,203.2 -1429.4,286.1" class="checker-black"/>
      <polygon points="-1429.4,286.1 -1321.5,203.2 -1238.7,311.0 -1346.5,393.9" class="checker-white"/>
      <polygon points="-1346.5,393.9 -1238.7,311.0 -1155.8,418.9 -1263.6,501.8" class="checker-black"/>
      <polygon points="-1404.4,95.4 -1296.6,12.5 -1213.7,120.3 -1321.5,203.2" class="checker-white"/>
      <polygon points="-1321.5,203.2 -1213.7,120.3 -1130.8,228.1 -1238.7,311.0" class="checker-black"/>
      <polygon points="-1238.7,311.0 -1130.8,228.1 -1047.9,336.0 -1155.8,418.9" class="checker-white"/>
      <polygon points="-1296.6,12.5 -1188.8,-70.4 -1105.9,37.4 -1213.7,120.3" class="checker-black"/>
      <polygon points="-1213.7,120.3 -1105.9,37.4 -1023.0,145.3 -1130.8,228.1" class="checker-white"/>
      <polygon points="-1130.8,228.1 -1023.0,145.3 -940.1,253.1 -1047.9,336.0" class="checker-black"/>
      <polyline points="-387.1,-143.4 -345.5,-461.3 -663.4,-502.9" class="chevron"/>
      <polyline points="-243.3,-253.9 -201.8,-571.8 -519.6,-613.4" class="chevron"/>
      <polyline points="-99.5,-364.5 -58.0,-682.3 -375.9,-723.9" class="chevron"/>
    </g>

    <g id="car-markers"></g>

  </g>
</svg>
