<?xml version="1.0" encoding="utf-8"?>
<?xml-stylesheet type="text/css" href="../../css/tracks.css"?>
<svg xmlns="http://www.w3.org/2000/svg" viewBox="-480.5 346.4 960.0 689.4">
  <title>Baku</title>

  <g id="track-root" transform="translate(0, 689.38) scale(1, -1) scale(0.037910) translate(6592.00, 3725.00) rotate(357, -6592.00, -3725.00)" data-scale="0.037910" data-rotation="357.0">

    <g id="track-outline">
      <path d="M 2743.8 112.3 L 2870.0 168.0 L 2883.0 173.0 L 2998.0 221.0 L 2999.0 221.0 L 3105.0 262.0 L 3135.0 272.0 L 3145.0 275.0 L 3224.0 302.0 L 3242.0 309.0 L 3344.0 346.0 L 3359.0 352.0 L 3438.0 388.0 L 3445.0 391.0 L 3496.0 419.0 L 3525.0 439.0 L 3552.0 460.0 L 3583.0 486.0 L 3593.0 495.0 L 3619.0 518.0 L 3663.0 579.0 L 3688.0 629.0 L 3705.0 667.0 L 3716.0 695.0 L 3722.0 723.0 L 3723.0 747.0 L 3724.0 798.0 L 3724.0 804.0 L 3718.0 857.0 L 3704.0 918.0 L 3701.0 930.0 L 3677.0 1003.0 L 3671.0 1016.0 L 3667.0 1028.0 L 3631.0 1112.0 L 3615.0 1146.0 L 3583.0 1218.0 L 3555.0 1279.0 L 3542.0 1310.0 L 3440.0 1551.0 L 3431.0 1570.0 L 3393.0 1665.0 L 3384.0 1685.0 L 3349.0 1765.0 L 3333.0 1803.0 L 3299.0 1878.0 L 3279.0 1924.0 L 3251.0 1984.0 L 3203.0 2091.0 L 3177.0 2147.0 L 3125.0 2265.0 L 3124.0 2265.0 L 3070.0 2389.0 L 3033.0 2469.0 L 3019.0 2503.0 L 2973.0 2609.0 L 2972.0 2610.0 L 2920.0 2727.0 L 2879.5 2819.9" class="track-outline" data-sector="2"/>
      <path d="M 2879.5 2819.9 L 2879.0 2821.0 L 2868.0 2844.0 L 2829.0 2930.0 L 2821.0 2950.0 L 2786.0 3030.0 L 2775.0 3053.0 L 2718.0 3183.0 L 2695.0 3233.0 L 2641.0 3357.0 L 2634.0 3371.0 L 2608.0 3428.0 L 2583.0 3485.0 L 2569.0 3515.0 L 2553.0 3546.0 L 2545.0 3559.0 L 2519.0 3598.0 L 2507.0 3616.0 L 2497.0 3628.0 L 2470.0 3652.0 L 2429.0 3676.0 L 2371.0 3689.0 L 2370.0 3689.0 L 2305.0 3687.0 L 2282.0 3684.0 L 2254.0 3678.0 L 2209.0 3666.0 L 2152.0 3649.0 L 2147.0 3648.0 L 2105.0 3634.0 L 2059.0 3617.0 L 2032.0 3607.0 L 2013.0 3599.0 L 1952.0 3576.0 L 1947.0 3574.0 L 1896.0 3554.0 L 1879.0 3547.0 L 1824.0 3525.0 L 1765.0 3502.0 L 1708.0 3481.0 L 1625.0 3450.0 L 1546.0 3420.0 L 1514.0 3409.0 L 1447.0 3385.0 L 1419.0 3375.0 L 1279.0 3323.0 L 1238.0 3308.0 L 1195.0 3292.0 L 1134.0 3269.0 L 1066.0 3244.0 L 1036.0 3233.0 L 914.0 3187.0 L 753.0 3127.0 L 751.0 3126.0 L 619.0 3076.0 L 526.0 3042.0 L 488.0 3028.0 L 476.0 3024.0 L 238.0 2933.0 L 226.0 2929.0 L 155.6 2902.1" class="track-outline" data-sector="3"/>
      <path d="M 155.6 2902.1 L 116.0 2887.0 L 59.0 2866.0 L -99.0 2807.0 L -100.0 2806.0 L -251.0 2750.0 L -287.0 2737.0 L -508.0 2653.0 L -602.0 2618.0 L -642.0 2602.0 L -732.0 2565.0 L -755.0 2557.0 L -925.0 2488.0 L -952.0 2476.0 L -1123.0 2403.0 L -1352.0 2302.0 L -1368.0 2296.0 L -1500.0 2239.0 L -1568.0 2209.0 L -1753.0 2129.0 L -1817.0 2102.0 L -1919.0 2057.0 L -2161.0 1953.0 L -2181.0 1945.0 L -2260.0 1911.0 L -2302.0 1893.0 L -2424.0 1840.0 L -2549.0 1786.0 L -2685.0 1728.0 L -2701.0 1720.0 L -2840.0 1661.0 L -2979.0 1601.0 L -2980.0 1600.0 L -3120.0 1540.0 L -3179.0 1514.0 L -3351.0 1439.0 L -3402.0 1417.0 L -3470.0 1387.0 L -3638.0 1312.0 L -3640.0 1311.0 L -3924.0 1184.0 L -4079.0 1114.0 L -4117.5 1097.5" class="track-outline" data-sector="4"/>
      <path d="M -4117.5 1097.5 L -4163.0 1078.0 L -4307.0 1014.0 L -4348.0 995.0 L -4534.0 913.0 L -4644.0 863.0 L -4671.0 852.0 L -4754.0 815.0 L -4814.0 789.0 L -4870.0 763.0 L -4931.0 736.0 L -4992.0 709.0 L -5030.0 693.0 L -5147.0 640.0 L -5178.0 625.0 L -5228.0 603.0 L -5235.0 599.0 L -5303.0 567.0 L -5316.0 562.0 L -5380.0 531.0 L -5392.0 524.0 L -5528.0 425.0 L -5535.0 417.0 L -5566.0 374.0 L -5576.0 343.0 L -5586.0 293.0 L -5584.0 250.0 L -5576.0 219.0 L -5572.0 208.0 L -5553.0 152.0 L -5551.0 147.0 L -5533.0 107.0 L -5526.0 91.0 L -5511.0 61.0 L -5497.0 32.0 L -5463.0 -34.0 L -5456.0 -46.0 L -5446.0 -66.0 L -5397.0 -169.0 L -5383.0 -203.0 L -5366.0 -243.0 L -5347.0 -302.0 L -5336.0 -334.0 L -5312.0 -407.0 L -5293.0 -465.0 L -5274.0 -530.0 L -5265.0 -557.0 L -5244.0 -617.0 L -5218.9 -680.1" class="track-outline" data-sector="5"/>
      <path d="M -5218.9 -680.1 L -5207.0 -710.0 L -5185.0 -767.0 L -5153.0 -841.0 L -5116.0 -921.0 L -5112.0 -931.0 L -5066.0 -1028.0 L -5043.0 -1078.0 L -5025.0 -1115.0 L -5002.0 -1162.0 L -4991.0 -1189.0 L -4968.0 -1239.0 L -4956.0 -1268.0 L -4938.0 -1310.0 L -4920.0 -1355.0 L -4901.0 -1405.0 L -4898.0 -1411.0 L -4884.0 -1452.0 L -4878.0 -1469.0 L -4869.0 -1503.0 L -4863.0 -1525.0 L -4854.0 -1567.0 L -4853.0 -1577.0 L -4849.0 -1617.0 L -4848.0 -1627.0 L -4849.0 -1665.0 L -4850.0 -1670.0 L -4861.0 -1719.0 L -4863.0 -1724.0 L -4902.0 -1791.0 L -4902.0 -1791.0 L -4944.0 -1831.0 L -4944.0 -1831.0 L -5034.0 -1887.0 L -5039.0 -1890.0 L -5089.0 -1913.0 L -5093.0 -1915.0 L -5145.0 -1937.0 L -5158.0 -1943.0 L -5197.0 -1958.0 L -5216.0 -1966.0 L -5278.0 -1989.0 L -5328.0 -2007.0 L -5417.0 -2039.0 L -5417.0 -2039.0 L -5479.0 -2063.0 L -5513.0 -2076.0 L -5546.0 -2090.0 L -5627.0 -2125.0 L -5670.0 -2144.0 L -5839.0 -2219.0 L -5849.0 -2224.0 L -5900.0 -2246.0 L -5928.0 -2258.0 L -6082.0 -2321.0 L -6083.0 -2321.0 L -6200.0 -2371.0 L -6211.0 -2376.0 L -6296.0 -2415.0 L -6297.0 -2415.0 L -6449.0 -2492.0 L -6541.0 -2543.0 L -6569.0 -2560.0 L -6643.0 -2604.0 L -6644.8 -2605.1" class="track-outline" data-sector="6"/>
      <path d="M -6644.8 -2605.1 L -6745.0 -2665.0 L -6790.0 -2692.0 L -6847.0 -2726.0 L -6924.0 -2773.0 L -6957.0 -2792.0 L -7039.0 -2841.0 L -7148.0 -2902.0 L -7195.0 -2927.0 L -7239.0 -2951.0 L -7281.0 -2973.0 L -7348.0 -3011.0 L -7407.0 -3046.0 L -7474.0 -3088.0 L -7514.0 -3115.0 L -7583.0 -3172.0 L -7588.0 -3176.0 L -7636.0 -3222.0 L -7659.0 -3248.0 L -7697.0 -3300.0 L -7708.0 -3320.0 L -7741.0 -3411.0 L -7749.0 -3437.0 L -7746.0 -3461.0 L -7742.0 -3480.0 L -7720.0 -3578.0 L -7705.0 -3611.0 L -7699.0 -3624.0 L -7673.0 -3675.0 L -7658.0 -3705.0 L -7643.0 -3738.0 L -7622.0 -3789.0 L -7618.0 -3801.0 L -7608.0 -3855.0 L -7608.0 -3861.0 L -7608.0 -3867.1" class="track-outline" data-sector="7"/>
      <path d="M -7608.0 -3867.1 L -7608.0 -3904.0 L -7619.0 -3930.0 L -7622.0 -3937.0 L -7637.0 -3965.0 L -7641.0 -3971.0 L -7693.0 -4028.0 L -7704.0 -4039.0 L -7716.0 -4048.0 L -7726.0 -4055.0 L -7740.0 -4065.0 L -7790.0 -4102.0 L -7811.0 -4116.0 L -7847.0 -4139.0 L -7863.0 -4149.0 L -7896.0 -4169.0 L -7907.0 -4175.0 L -7948.0 -4201.0 L -7955.0 -4205.0 L -8078.0 -4285.0 L -8092.0 -4295.0 L -8126.0 -4318.0 L -8194.0 -4370.0 L -8205.0 -4379.0 L -8324.0 -4474.0 L -8375.0 -4515.0 L -8409.0 -4542.0 L -8455.0 -4578.0 L -8516.0 -4625.0 L -8540.0 -4643.0 L -8602.0 -4690.0 L -8699.0 -4762.0 L -8774.0 -4818.0 L -8816.0 -4850.0 L -8857.0 -4881.0 L -8896.0 -4911.0 L -8982.0 -4976.0 L -9093.0 -5060.0 L -9151.0 -5105.0 L -9178.0 -5125.0 L -9244.0 -5175.0 L -9253.0 -5182.0 L -9491.0 -5363.0 L -9504.0 -5373.0 L -9636.0 -5474.0 L -9706.0 -5528.0 L -9721.4 -5539.8" class="track-outline" data-sector="8"/>
      <path d="M -9721.4 -5539.8 L -9753.0 -5564.0 L -9870.0 -5652.0 L -9902.0 -5676.0 L -9983.0 -5737.0 L -10057.0 -5792.0 L -10066.0 -5798.0 L -10083.0 -5811.0 L -10196.0 -5897.0 L -10244.0 -5935.0 L -10301.0 -5980.0 L -10335.0 -6008.0 L -10340.0 -6012.0 L -10416.0 -6075.0 L -10435.0 -6090.0 L -10498.0 -6137.0 L -10522.0 -6154.0 L -10595.0 -6200.0 L -10602.0 -6204.0 L -10623.0 -6214.0 L -10643.0 -6222.0 L -10652.0 -6225.0 L -10681.0 -6234.0 L -10686.0 -6234.0 L -10740.0 -6237.0 L -10755.0 -6235.0 L -10802.0 -6210.0 L -10816.0 -6198.0 L -10834.0 -6178.0 L -10862.0 -6141.0 L -10864.0 -6138.0 L -10882.0 -6105.0 L -10900.0 -6067.0 L -10907.0 -6053.0 L -10919.0 -6024.0 L -10931.0 -5994.0 L -10938.0 -5977.0 L -10953.0 -5935.0 L -10960.0 -5913.0 L -10975.0 -5871.0 L -10983.0 -5843.0 L -11008.0 -5767.0 L -11016.0 -5738.0 L -11036.0 -5671.0 L -11044.0 -5640.0 L -11062.0 -5583.0 L -11073.0 -5542.0 L -11084.0 -5507.0 L -11105.0 -5433.0 L -11137.0 -5330.0 L -11144.0 -5306.0 L -11176.0 -5199.0 L -11193.0 -5147.0 L -11218.0 -5065.0 L -11224.0 -5047.0 L -11240.4 -4989.0" class="track-outline" data-sector="9"/>
      <path d="M -11240.4 -4989.0 L -11241.0 -4987.0 L -11247.0 -4970.0 L -11279.0 -4864.0 L -11279.0 -4863.0 L -11296.0 -4804.0 L -11312.0 -4750.0 L -11320.0 -4721.0 L -11327.0 -4701.0 L -11340.0 -4653.0 L -11345.0 -4640.0 L -11370.0 -4554.0 L -11377.0 -4534.0 L -11386.0 -4501.0 L -11397.0 -4470.0 L -11407.0 -4445.0 L -11442.0 -4372.0 L -11450.0 -4359.0 L -11494.0 -4335.0 L -11506.0 -4331.0 L -11590.0 -4293.0 L -11611.0 -4284.0 L -11643.0 -4269.0 L -11675.0 -4258.0 L -11685.0 -4254.0 L -11780.0 -4222.0 L -11780.0 -4221.0 L -11846.0 -4206.0 L -11854.0 -4204.0 L -11913.0 -4195.0 L -11977.0 -4188.0 L -12005.0 -4185.0 L -12041.0 -4183.0 L -12053.9 -4182.0" class="track-outline" data-sector="10"/>
      <path d="M -12053.9 -4182.0 L -12133.0 -4176.0 L -12139.0 -4175.0 L -12187.0 -4170.0 L -12198.0 -4168.0 L -12237.0 -4163.0 L -12264.0 -4157.0 L -12295.0 -4150.0 L -12305.0 -4146.0 L -12350.0 -4131.0 L -12407.0 -4103.0 L -12412.0 -4100.0 L -12465.0 -4057.0 L -12491.0 -4031.0 L -12501.0 -4010.0 L -12506.0 -3998.0 L -12522.0 -3943.0 L -12529.0 -3911.0 L -12533.0 -3856.0 L -12533.0 -3798.0 L -12538.0 -3735.0 L -12538.0 -3734.0 L -12567.0 -3656.0 L -12572.0 -3646.0 L -12607.0 -3620.0 L -12621.0 -3613.0 L -12677.0 -3595.0 L -12683.0 -3594.0 L -12738.0 -3587.0 L -12750.0 -3586.0 L -12801.0 -3585.0 L -12834.0 -3586.0 L -12870.0 -3588.0 L -12920.0 -3593.0 L -12927.0 -3593.0 L -12991.0 -3601.0 L -13004.0 -3603.0 L -13031.3 -3607.4" class="track-outline" data-sector="11"/>
      <path d="M -13031.3 -3607.4 L -13090.0 -3617.0 L -13141.0 -3629.0 L -13181.0 -3639.0 L -13237.0 -3656.0 L -13342.0 -3695.0 L -13523.0 -3770.0 L -13574.0 -3792.0 L -13641.0 -3825.0 L -13649.0 -3829.0 L -13716.0 -3858.0 L -13755.0 -3875.0 L -13813.0 -3900.0 L -13833.0 -3908.0 L -13904.0 -3937.0 L -13936.0 -3950.0 L -14020.0 -3985.0 L -14049.0 -3998.0 L -14116.0 -4028.0 L -14164.0 -4051.0 L -14324.0 -4131.0 L -14325.0 -4131.0 L -14400.0 -4170.0 L -14466.0 -4205.0 L -14466.0 -4205.0 L -14553.0 -4250.0 L -14637.0 -4293.0 L -14672.0 -4310.0 L -14718.0 -4332.0 L -14790.0 -4368.0 L -14813.0 -4379.0 L -14932.0 -4438.0 L -14997.0 -4472.0 L -15144.0 -4551.0 L -15198.0 -4580.0 L -15267.0 -4618.0 L -15289.5 -4631.2" class="track-outline" data-sector="12"/>
      <path d="M -15289.5 -4631.2 L -15296.0 -4635.0 L -15337.0 -4659.0 L -15441.0 -4720.0 L -15466.0 -4735.0 L -15578.0 -4800.0 L -15616.0 -4822.0 L -15678.0 -4858.0 L -15793.0 -4921.0 L -15894.0 -4976.0 L -15945.0 -5003.0 L -16031.0 -5052.0 L -16068.0 -5075.0 L -16095.0 -5095.0 L -16282.0 -5303.0 L -16308.0 -5338.0 L -16344.0 -5398.0 L -16370.0 -5464.0 L -16370.0 -5465.0 L -16413.0 -5577.0 L -16431.0 -5625.0 L -16520.0 -5905.0 L -16532.0 -5945.0 L -16608.0 -6204.0 L -16612.0 -6220.0 L -16657.0 -6365.0 L -16666.4 -6392.4" class="track-outline" data-sector="13"/>
      <path d="M -16666.4 -6392.4 L -16686.0 -6450.0 L -16694.0 -6474.0 L -16744.0 -6624.0 L -16749.0 -6640.0 L -16810.0 -6839.0 L -16810.0 -6840.0 L -16843.0 -6964.0 L -16866.0 -7075.0 L -16874.0 -7116.0 L -16908.0 -7620.0 L -16906.0 -7662.0 L -16896.0 -7850.0 L -16886.0 -7989.0 L -16870.0 -8215.0 L -16868.0 -8240.0 L -16856.0 -8373.0 L -16856.0 -8384.0 L -16844.0 -8526.0 L -16843.0 -8527.0 L -16840.1 -8568.3" class="track-outline" data-sector="14"/>
      <path d="M -16840.1 -8568.3 L -16835.0 -8642.0 L -16832.0 -8686.0 L -16831.0 -8748.0 L -16833.0 -8856.0 L -16835.0 -8898.0 L -16838.0 -8938.0 L -16845.0 -9017.0 L -16846.0 -9034.0 L -16853.0 -9105.0 L -16857.0 -9156.0 L -16861.0 -9190.0 L -16865.0 -9248.0 L -16866.0 -9255.0 L -16870.0 -9372.0 L -16871.0 -9378.0 L -16871.0 -9432.0 L -16871.0 -9436.0 L -16867.0 -9470.0 L -16866.0 -9485.0 L -16857.0 -9526.0 L -16847.0 -9555.0 L -16840.0 -9566.0 L -16824.0 -9591.0 L -16801.0 -9613.0 L -16799.0 -9616.0 L -16778.0 -9632.0 L -16748.0 -9649.0 L -16730.0 -9657.0 L -16679.0 -9682.0 L -16640.0 -9700.0 L -16622.0 -9710.0 L -16604.0 -9719.0 L -16558.0 -9743.0 L -16551.0 -9746.0 L -16499.0 -9772.0 L -16495.0 -9775.0 L -16473.8 -9786.4" class="track-outline" data-sector="15"/>
      <path d="M -16473.8 -9786.4 L -16441.0 -9804.0 L -16404.0 -9823.0 L -16369.0 -9842.0 L -16214.0 -9922.0 L -16196.0 -9930.0 L -16150.0 -9954.0 L -16091.0 -9984.0 L -15976.0 -10041.0 L -15975.0 -10041.0 L -15883.0 -10087.0 L -15882.0 -10087.0 L -15795.0 -10130.0 L -15716.0 -10170.0 L -15704.0 -10175.0 L -15585.0 -10238.0 L -15584.0 -10238.0 L -15485.0 -10291.0 L -15440.0 -10317.0 L -15325.0 -10381.0 L -15289.0 -10403.0 L -15221.0 -10443.0 L -15162.0 -10478.0 L -15102.0 -10514.0 L -15052.0 -10542.0 L -14919.0 -10618.0 L -14863.0 -10648.0 L -14812.0 -10674.0 L -14811.0 -10674.0 L -14656.0 -10754.0 L -14599.0 -10783.0 L -14555.0 -10808.0 L -14477.0 -10851.0 L -14343.0 -10930.0 L -14333.0 -10935.0 L -14271.0 -10971.0 L -14242.0 -10988.0 L -14172.0 -11025.0 L -14171.0 -11025.0 L -14047.0 -11082.0 L -14039.0 -11085.0 L -13982.0 -11105.0 L -13957.0 -11112.0 L -13870.0 -11129.0 L -13832.0 -11136.0 L -13772.0 -11139.0 L -13727.0 -11131.0" class="track-outline" data-sector="16"/>
      <path d="M -13727.0 -11131.0 L -13715.0 -11128.0 L -13659.0 -11108.0 L -13658.0 -11107.0 L -13613.0 -11080.0 L -13579.0 -11050.0 L -13571.0 -11042.0 L -13544.0 -11011.0 L -13525.0 -10987.0 L -13499.0 -10952.0 L -13476.0 -10913.0 L -13416.0 -10800.0 L -13415.0 -10799.0 L -13388.0 -10746.0 L -13382.0 -10734.0 L -13345.0 -10660.0 L -13335.0 -10641.0 L -13299.0 -10568.0 L -13283.0 -10535.0 L -13259.0 -10488.0 L -13216.0 -10401.0 L -13198.0 -10365.0 L -13179.2 -10324.9" class="track-outline" data-sector="17"/>
      <path d="M -13179.2 -10324.9 L -13159.0 -10282.0 L -13153.0 -10271.0 L -13122.0 -10205.0 L -13094.0 -10147.0 L -13087.0 -10134.0 L -12990.0 -9940.0 L -12981.0 -9921.0 L -12951.0 -9862.0 L -12933.0 -9831.0 L -12879.0 -9739.0 L -12839.0 -9674.0 L -12815.0 -9635.0 L -12727.0 -9499.0 L -12674.0 -9426.0 L -12627.0 -9364.0 L -12555.0 -9273.0 L -12531.0 -9244.0 L -12372.0 -9078.0 L -12361.0 -9068.0 L -12265.0 -8979.0 L -12191.0 -8913.0 L -12167.0 -8892.0 L -12127.0 -8857.0 L -12048.0 -8790.0 L -12046.0 -8788.0 L -11951.0 -8706.0 L -11871.0 -8636.0 L -11788.0 -8561.0 L -11682.0 -8460.0 L -11652.0 -8429.0 L -11501.0 -8265.0 L -11479.0 -8241.0 L -11393.0 -8151.0 L -11353.0 -8114.0 L -11255.0 -8025.0 L -11119.0 -7897.0 L -11030.0 -7797.0 L -10992.8 -7736.4" class="track-outline" data-sector="18"/>
      <path d="M -10992.8 -7736.4 L -10984.0 -7722.0 L -10911.0 -7583.0 L -10906.0 -7571.0 L -10869.0 -7484.0 L -10847.0 -7423.0 L -10777.0 -7187.0 L -10768.0 -7155.0 L -10747.0 -7076.0 L -10736.0 -7016.0 L -10724.0 -6961.0 L -10697.0 -6831.0 L -10696.0 -6829.0 L -10669.0 -6708.0 L -10668.0 -6706.0 L -10626.0 -6557.0 L -10622.0 -6545.0 L -10561.0 -6406.0 L -10504.0 -6313.0 L -10425.0 -6214.0 L -10416.0 -6204.0 L -10382.0 -6169.0 L -10288.0 -6082.0 L -10184.0 -5999.0 L -10152.0 -5975.0 L -9983.0 -5854.0 L -9904.0 -5798.0 L -9824.0 -5739.0 L -9799.0 -5721.0 L -9568.0 -5543.0 L -9566.0 -5541.0 L -9457.0 -5457.0 L -9351.0 -5375.0 L -9322.0 -5353.0 L -9234.0 -5286.0 L -9085.0 -5173.0 L -9063.0 -5156.0 L -9037.5 -5136.5" class="track-outline" data-sector="19"/>
      <path d="M -9037.5 -5136.5 L -8874.0 -5011.0 L -8779.0 -4939.0 L -8674.0 -4860.0 L -8647.0 -4840.0 L -8553.0 -4768.0 L -8433.0 -4677.0 L -8405.0 -4656.0 L -8190.0 -4488.0 L -8179.0 -4479.0 L -8044.0 -4379.0 L -7980.0 -4335.0 L -7861.0 -4259.0 L -7796.0 -4221.0 L -7608.0 -4126.0 L -7605.0 -4124.0 L -7338.0 -4011.0 L -7252.0 -3976.0 L -7066.0 -3904.0 L -7064.0 -3903.0 L -6981.0 -3870.0 L -6882.0 -3830.0 L -6794.0 -3795.0 L -6726.0 -3767.0 L -6571.0 -3705.0 L -6438.0 -3651.0 L -6379.0 -3627.0 L -6175.0 -3544.0 L -6075.0 -3503.0 L -6011.0 -3477.0 L -5782.0 -3381.0 L -5711.0 -3352.0 L -5683.0 -3340.0 L -5628.0 -3318.0 L -5513.0 -3270.0 L -5257.0 -3163.0 L -5210.0 -3144.0 L -5162.0 -3124.0 L -5113.0 -3104.0 L -5021.0 -3066.0 L -4935.0 -3030.0 L -4817.0 -2980.0 L -4691.0 -2927.0 L -4677.0 -2921.0 L -4529.0 -2858.0 L -4483.0 -2839.0 L -4400.0 -2803.0 L -4354.0 -2784.0 L -4270.0 -2748.0 L -4257.1 -2742.7" class="track-outline" data-sector="20"/>
      <path d="M -4257.1 -2742.7 L -4159.0 -2702.0 L -4013.0 -2640.0 L -3963.0 -2619.0 L -3784.0 -2543.0 L -3767.0 -2536.0 L -3616.0 -2472.0 L -3369.0 -2368.0 L -3354.0 -2362.0 L -3234.0 -2311.0 L -3119.0 -2262.0 L -3055.0 -2235.0 L -2965.0 -2197.0 L -2843.0 -2145.0 L -2771.0 -2115.0 L -2654.0 -2065.0 L -2652.0 -2064.0 L -2503.0 -2001.0 L -2484.0 -1993.0 L -2349.0 -1935.0 L -2284.0 -1908.0 L -2115.0 -1838.0 L -2113.0 -1837.0 L -1979.0 -1782.0 L -1833.0 -1724.0 L -1636.0 -1650.0 L -1617.0 -1642.0 L -1388.0 -1559.0 L -1324.0 -1535.0 L -1218.0 -1495.0 L -1151.0 -1470.0 L -1082.0 -1444.0 L -957.0 -1397.0 L -789.0 -1334.0 L -707.0 -1303.0 L -547.0 -1243.0 L -348.0 -1170.0 L -235.0 -1128.0 L -166.0 -1102.0 L -147.0 -1094.0 L 5.0 -1036.0 L 68.0 -1010.0 L 343.0 -895.0 L 380.0 -880.0 L 528.0 -815.0 L 641.0 -768.0 L 856.2 -678.2" class="track-outline" data-sector="21"/>
      <path d="M 856.2 -678.2 L 943.0 -642.0 L 963.0 -634.0 L 1178.0 -543.0 L 1030.0 -607.0 L 1136.0 -562.0 L 1138.0 -561.0 L 1316.0 -487.0 L 1406.0 -450.0 L 1498.0 -411.0 L 1846.0 -265.0 L 1858.0 -259.0 L 1934.0 -227.0 L 1965.0 -215.0 L 2145.0 -139.0 L 2253.0 -95.0 L 2289.0 -79.0 L 2405.0 -32.0 L 2519.0 15.0 L 2565.0 34.0 L 2698.0 92.0 L 2725.0 104.0 L 2743.8 112.3" class="track-outline" data-sector="1"/>
    </g>

    <g id="track-sectors">
      <path d="M 2743.8 112.3 L 2870.0 168.0 L 2883.0 173.0 L 2998.0 221.0 L 2999.0 221.0 L 3105.0 262.0 L 3135.0 272.0 L 3145.0 275.0 L 3224.0 302.0 L 3242.0 309.0 L 3344.0 346.0 L 3359.0 352.0 L 3438.0 388.0 L 3445.0 391.0 L 3496.0 419.0 L 3525.0 439.0 L 3552.0 460.0 L 3583.0 486.0 L 3593.0 495.0 L 3619.0 518.0 L 3663.0 579.0 L 3688.0 629.0 L 3705.0 667.0 L 3716.0 695.0 L 3722.0 723.0 L 3723.0 747.0 L 3724.0 798.0 L 3724.0 804.0 L 3718.0 857.0 L 3704.0 918.0 L 3701.0 930.0 L 3677.0 1003.0 L 3671.0 1016.0 L 3667.0 1028.0 L 3631.0 1112.0 L 3615.0 1146.0 L 3583.0 1218.0 L 3555.0 1279.0 L 3542.0 1310.0 L 3440.0 1551.0 L 3431.0 1570.0 L 3393.0 1665.0 L 3384.0 1685.0 L 3349.0 1765.0 L 3333.0 1803.0 L 3299.0 1878.0 L 3279.0 1924.0 L 3251.0 1984.0 L 3203.0 2091.0 L 3177.0 2147.0 L 3125.0 2265.0 L 3124.0 2265.0 L 3070.0 2389.0 L 3033.0 2469.0 L 3019.0 2503.0 L 2973.0 2609.0 L 2972.0 2610.0 L 2920.0 2727.0 L 2879.5 2819.9" class="track" data-sector="2"/>
      <path d="M 2879.5 2819.9 L 2879.0 2821.0 L 2868.0 2844.0 L 2829.0 2930.0 L 2821.0 2950.0 L 2786.0 3030.0 L 2775.0 3053.0 L 2718.0 3183.0 L 2695.0 3233.0 L 2641.0 3357.0 L 2634.0 3371.0 L 2608.0 3428.0 L 2583.0 3485.0 L 2569.0 3515.0 L 2553.0 3546.0 L 2545.0 3559.0 L 2519.0 3598.0 L 2507.0 3616.0 L 2497.0 3628.0 L 2470.0 3652.0 L 2429.0 3676.0 L 2371.0 3689.0 L 2370.0 3689.0 L 2305.0 3687.0 L 2282.0 3684.0 L 2254.0 3678.0 L 2209.0 3666.0 L 2152.0 3649.0 L 2147.0 3648.0 L 2105.0 3634.0 L 2059.0 3617.0 L 2032.0 3607.0 L 2013.0 3599.0 L 1952.0 3576.0 L 1947.0 3574.0 L 1896.0 3554.0 L 1879.0 3547.0 L 1824.0 3525.0 L 1765.0 3502.0 L 1708.0 3481.0 L 1625.0 3450.0 L 1546.0 3420.0 L 1514.0 3409.0 L 1447.0 3385.0 L 1419.0 3375.0 L 1279.0 3323.0 L 1238.0 3308.0 L 1195.0 3292.0 L 1134.0 3269.0 L 1066.0 3244.0 L 1036.0 3233.0 L 914.0 3187.0 L 753.0 3127.0 L 751.0 3126.0 L 619.0 3076.0 L 526.0 3042.0 L 488.0 3028.0 L 476.0 3024.0 L 238.0 2933.0 L 226.0 2929.0 L 155.6 2902.1" class="track" data-sector="3"/>
      <path d="M 155.6 2902.1 L 116.0 2887.0 L 59.0 2866.0 L -99.0 2807.0 L -100.0 2806.0 L -251.0 2750.0 L -287.0 2737.0 L -508.0 2653.0 L -602.0 2618.0 L -642.0 2602.0 L -732.0 2565.0 L -755.0 2557.0 L -925.0 2488.0 L -952.0 2476.0 L -1123.0 2403.0 L -1352.0 2302.0 L -1368.0 2296.0 L -1500.0 2239.0 L -1568.0 2209.0 L -1753.0 2129.0 L -1817.0 2102.0 L -1919.0 2057.0 L -2161.0 1953.0 L -2181.0 1945.0 L -2260.0 1911.0 L -2302.0 1893.0 L -2424.0 1840.0 L -2549.0 1786.0 L -2685.0 1728.0 L -2701.0 1720.0 L -2840.0 1661.0 L -2979.0 1601.0 L -2980.0 1600.0 L -3120.0 1540.0 L -3179.0 1514.0 L -3351.0 1439.0 L -3402.0 1417.0 L -3470.0 1387.0 L -3638.0 1312.0 L -3640.0 1311.0 L -3924.0 1184.0 L -4079.0 1114.0 L -4117.5 1097.5" class="track" data-sector="4"/>
      <path d="M -4117.5 1097.5 L -4163.0 1078.0 L -4307.0 1014.0 L -4348.0 995.0 L -4534.0 913.0 L -4644.0 863.0 L -4671.0 852.0 L -4754.0 815.0 L -4814.0 789.0 L -4870.0 763.0 L -4931.0 736.0 L -4992.0 709.0 L -5030.0 693.0 L -5147.0 640.0 L -5178.0 625.0 L -5228.0 603.0 L -5235.0 599.0 L -5303.0 567.0 L -5316.0 562.0 L -5380.0 531.0 L -5392.0 524.0 L -5528.0 425.0 L -5535.0 417.0 L -5566.0 374.0 L -5576.0 343.0 L -5586.0 293.0 L -5584.0 250.0 L -5576.0 219.0 L -5572.0 208.0 L -5553.0 152.0 L -5551.0 147.0 L -5533.0 107.0 L -5526.0 91.0 L -5511.0 61.0 L -5497.0 32.0 L -5463.0 -34.0 L -5456.0 -46.0 L -5446.0 -66.0 L -5397.0 -169.0 L -5383.0 -203.0 L -5366.0 -243.0 L -5347.0 -302.0 L -5336.0 -334.0 L -5312.0 -407.0 L -5293.0 -465.0 L -5274.0 -530.0 L -5265.0 -557.0 L -5244.0 -617.0 L -5218.9 -680.1" class="track" data-sector="5"/>
      <path d="M -5218.9 -680.1 L -5207.0 -710.0 L -5185.0 -767.0 L -5153.0 -841.0 L -5116.0 -921.0 L -5112.0 -931.0 L -5066.0 -1028.0 L -5043.0 -1078.0 L -5025.0 -1115.0 L -5002.0 -1162.0 L -4991.0 -1189.0 L -4968.0 -1239.0 L -4956.0 -1268.0 L -4938.0 -1310.0 L -4920.0 -1355.0 L -4901.0 -1405.0 L -4898.0 -1411.0 L -4884.0 -1452.0 L -4878.0 -1469.0 L -4869.0 -1503.0 L -4863.0 -1525.0 L -4854.0 -1567.0 L -4853.0 -1577.0 L -4849.0 -1617.0 L -4848.0 -1627.0 L -4849.0 -1665.0 L -4850.0 -1670.0 L -4861.0 -1719.0 L -4863.0 -1724.0 L -4902.0 -1791.0 L -4902.0 -1791.0 L -4944.0 -1831.0 L -4944.0 -1831.0 L -5034.0 -1887.0 L -5039.0 -1890.0 L -5089.0 -1913.0 L -5093.0 -1915.0 L -5145.0 -1937.0 L -5158.0 -1943.0 L -5197.0 -1958.0 L -5216.0 -1966.0 L -5278.0 -1989.0 L -5328.0 -2007.0 L -5417.0 -2039.0 L -5417.0 -2039.0 L -5479.0 -2063.0 L -5513.0 -2076.0 L -5546.0 -2090.0 L -5627.0 -2125.0 L -5670.0 -2144.0 L -5839.0 -2219.0 L -5849.0 -2224.0 L -5900.0 -2246.0 L -5928.0 -2258.0 L -6082.0 -2321.0 L -6083.0 -2321.0 L -6200.0 -2371.0 L -6211.0 -2376.0 L -6296.0 -2415.0 L -6297.0 -2415.0 L -6449.0 -2492.0 L -6541.0 -2543.0 L -6569.0 -2560.0 L -6643.0 -2604.0 L -6644.8 -2605.1" class="track" data-sector="6"/>
      <path d="M -6644.8 -2605.1 L -6745.0 -2665.0 L -6790.0 -2692.0 L -6847.0 -2726.0 L -6924.0 -2773.0 L -6957.0 -2792.0 L -7039.0 -2841.0 L -7148.0 -2902.0 L -7195.0 -2927.0 L -7239.0 -2951.0 L -7281.0 -2973.0 L -7348.0 -3011.0 L -7407.0 -3046.0 L -7474.0 -3088.0 L -7514.0 -3115.0 L -7583.0 -3172.0 L -7588.0 -3176.0 L -7636.0 -3222.0 L -7659.0 -3248.0 L -7697.0 -3300.0 L -7708.0 -3320.0 L -7741.0 -3411.0 L -7749.0 -3437.0 L -7746.0 -3461.0 L -7742.0 -3480.0 L -7720.0 -3578.0 L -7705.0 -3611.0 L -7699.0 -3624.0 L -7673.0 -3675.0 L -7658.0 -3705.0 L -7643.0 -3738.0 L -7622.0 -3789.0 L -7618.0 -3801.0 L -7608.0 -3855.0 L -7608.0 -3861.0 L -7608.0 -3867.1" class="track" data-sector="7"/>
      <path d="M -7608.0 -3867.1 L -7608.0 -3904.0 L -7619.0 -3930.0 L -7622.0 -3937.0 L -7637.0 -3965.0 L -7641.0 -3971.0 L -7693.0 -4028.0 L -7704.0 -4039.0 L -7716.0 -4048.0 L -7726.0 -4055.0 L -7740.0 -4065.0 L -7790.0 -4102.0 L -7811.0 -4116.0 L -7847.0 -4139.0 L -7863.0 -4149.0 L -7896.0 -4169.0 L -7907.0 -4175.0 L -7948.0 -4201.0 L -7955.0 -4205.0 L -8078.0 -4285.0 L -8092.0 -4295.0 L -8126.0 -4318.0 L -8194.0 -4370.0 L -8205.0 -4379.0 L -8324.0 -4474.0 L -8375.0 -4515.0 L -8409.0 -4542.0 L -8455.0 -4578.0 L -8516.0 -4625.0 L -8540.0 -4643.0 L -8602.0 -4690.0 L -8699.0 -4762.0 L -8774.0 -4818.0 L -8816.0 -4850.0 L -8857.0 -4881.0 L -8896.0 -4911.0 L -8982.0 -4976.0 L -9093.0 -5060.0 L -9151.0 -5105.0 L -9178.0 -5125.0 L -9244.0 -5175.0 L -9253.0 -5182.0 L -9491.0 -5363.0 L -9504.0 -5373.0 L -9636.0 -5474.0 L -9706.0 -5528.0 L -9721.4 -5539.8" class="track" data-sector="8"/>
      <path d="M -9721.4 -5539.8 L -9753.0 -5564.0 L -9870.0 -5652.0 L -9902.0 -5676.0 L -9983.0 -5737.0 L -10057.0 -5792.0 L -10066.0 -5798.0 L -10083.0 -5811.0 L -10196.0 -5897.0 L -10244.0 -5935.0 L -10301.0 -5980.0 L -10335.0 -6008.0 L -10340.0 -6012.0 L -10416.0 -6075.0 L -10435.0 -6090.0 L -10498.0 -6137.0 L -10522.0 -6154.0 L -10595.0 -6200.0 L -10602.0 -6204.0 L -10623.0 -6214.0 L -10643.0 -6222.0 L -10652.0 -6225.0 L -10681.0 -6234.0 L -10686.0 -6234.0 L -10740.0 -6237.0 L -10755.0 -6235.0 L -10802.0 -6210.0 L -10816.0 -6198.0 L -10834.0 -6178.0 L -10862.0 -6141.0 L -10864.0 -6138.0 L -10882.0 -6105.0 L -10900.0 -6067.0 L -10907.0 -6053.0 L -10919.0 -6024.0 L -10931.0 -5994.0 L -10938.0 -5977.0 L -10953.0 -5935.0 L -10960.0 -5913.0 L -10975.0 -5871.0 L -10983.0 -5843.0 L -11008.0 -5767.0 L -11016.0 -5738.0 L -11036.0 -5671.0 L -11044.0 -5640.0 L -11062.0 -5583.0 L -11073.0 -5542.0 L -11084.0 -5507.0 L -11105.0 -5433.0 L -11137.0 -5330.0 L -11144.0 -5306.0 L -11176.0 -5199.0 L -11193.0 -5147.0 L -11218.0 -5065.0 L -11224.0 -5047.0 L -11240.4 -4989.0" class="track" data-sector="9"/>
      <path d="M -11240.4 -4989.0 L -11241.0 -4987.0 L -11247.0 -4970.0 L -11279.0 -4864.0 L -11279.0 -4863.0 L -11296.0 -4804.0 L -11312.0 -4750.0 L -11320.0 -4721.0 L -11327.0 -4701.0 L -11340.0 -4653.0 L -11345.0 -4640.0 L -11370.0 -4554.0 L -11377.0 -4534.0 L -11386.0 -4501.0 L -11397.0 -4470.0 L -11407.0 -4445.0 L -11442.0 -4372.0 L -11450.0 -4359.0 L -11494.0 -4335.0 L -11506.0 -4331.0 L -11590.0 -4293.0 L -11611.0 -4284.0 L -11643.0 -4269.0 L -11675.0 -4258.0 L -11685.0 -4254.0 L -11780.0 -4222.0 L -11780.0 -4221.0 L -11846.0 -4206.0 L -11854.0 -4204.0 L -11913.0 -4195.0 L -11977.0 -4188.0 L -12005.0 -4185.0 L -12041.0 -4183.0 L -12053.9 -4182.0" class="track" data-sector="10"/>
      <path d="M -12053.9 -4182.0 L -12133.0 -4176.0 L -12139.0 -4175.0 L -12187.0 -4170.0 L -12198.0 -4168.0 L -12237.0 -4163.0 L -12264.0 -4157.0 L -12295.0 -4150.0 L -12305.0 -4146.0 L -12350.0 -4131.0 L -12407.0 -4103.0 L -12412.0 -4100.0 L -12465.0 -4057.0 L -12491.0 -4031.0 L -12501.0 -4010.0 L -12506.0 -3998.0 L -12522.0 -3943.0 L -12529.0 -3911.0 L -12533.0 -3856.0 L -12533.0 -3798.0 L -12538.0 -3735.0 L -12538.0 -3734.0 L -12567.0 -3656.0 L -12572.0 -3646.0 L -12607.0 -3620.0 L -12621.0 -3613.0 L -12677.0 -3595.0 L -12683.0 -3594.0 L -12738.0 -3587.0 L -12750.0 -3586.0 L -12801.0 -3585.0 L -12834.0 -3586.0 L -12870.0 -3588.0 L -12920.0 -3593.0 L -12927.0 -3593.0 L -12991.0 -3601.0 L -13004.0 -3603.0 L -13031.3 -3607.4" class="track" data-sector="11"/>
      <path d="M -13031.3 -3607.4 L -13090.0 -3617.0 L -13141.0 -3629.0 L -13181.0 -3639.0 L -13237.0 -3656.0 L -13342.0 -3695.0 L -13523.0 -3770.0 L -13574.0 -3792.0 L -13641.0 -3825.0 L -13649.0 -3829.0 L -13716.0 -3858.0 L -13755.0 -3875.0 L -13813.0 -3900.0 L -13833.0 -3908.0 L -13904.0 -3937.0 L -13936.0 -3950.0 L -14020.0 -3985.0 L -14049.0 -3998.0 L -14116.0 -4028.0 L -14164.0 -4051.0 L -14324.0 -4131.0 L -14325.0 -4131.0 L -14400.0 -4170.0 L -14466.0 -4205.0 L -14466.0 -4205.0 L -14553.0 -4250.0 L -14637.0 -4293.0 L -14672.0 -4310.0 L -14718.0 -4332.0 L -14790.0 -4368.0 L -14813.0 -4379.0 L -14932.0 -4438.0 L -14997.0 -4472.0 L -15144.0 -4551.0 L -15198.0 -4580.0 L -15267.0 -4618.0 L -15289.5 -4631.2" class="track" data-sector="12"/>
      <path d="M -15289.5 -4631.2 L -15296.0 -4635.0 L -15337.0 -4659.0 L -15441.0 -4720.0 L -15466.0 -4735.0 L -15578.0 -4800.0 L -15616.0 -4822.0 L -15678.0 -4858.0 L -15793.0 -4921.0 L -15894.0 -4976.0 L -15945.0 -5003.0 L -16031.0 -5052.0 L -16068.0 -5075.0 L -16095.0 -5095.0 L -16282.0 -5303.0 L -16308.0 -5338.0 L -16344.0 -5398.0 L -16370.0 -5464.0 L -16370.0 -5465.0 L -16413.0 -5577.0 L -16431.0 -5625.0 L -16520.0 -5905.0 L -16532.0 -5945.0 L -16608.0 -6204.0 L -16612.0 -6220.0 L -16657.0 -6365.0 L -16666.4 -6392.4" class="track" data-sector="13"/>
      <path d="M -16666.4 -6392.4 L -16686.0 -6450.0 L -16694.0 -6474.0 L -16744.0 -6624.0 L -16749.0 -6640.0 L -16810.0 -6839.0 L -16810.0 -6840.0 L -16843.0 -6964.0 L -16866.0 -7075.0 L -16874.0 -7116.0 L -16908.0 -7620.0 L -16906.0 -7662.0 L -16896.0 -7850.0 L -16886.0 -7989.0 L -16870.0 -8215.0 L -16868.0 -8240.0 L -16856.0 -8373.0 L -16856.0 -8384.0 L -16844.0 -8526.0 L -16843.0 -8527.0 L -16840.1 -8568.3" class="track" data-sector="14"/>
      <path d="M -16840.1 -8568.3 L -16835.0 -8642.0 L -16832.0 -8686.0 L -16831.0 -8748.0 L -16833.0 -8856.0 L -16835.0 -8898.0 L -16838.0 -8938.0 L -16845.0 -9017.0 L -16846.0 -9034.0 L -16853.0 -9105.0 L -16857.0 -9156.0 L -16861.0 -9190.0 L -16865.0 -9248.0 L -16866.0 -9255.0 L -16870.0 -9372.0 L -16871.0 -9378.0 L -16871.0 -9432.0 L -16871.0 -9436.0 L -16867.0 -9470.0 L -16866.0 -9485.0 L -16857.0 -9526.0 L -16847.0 -9555.0 L -16840.0 -9566.0 L -16824.0 -9591.0 L -16801.0 -9613.0 L -16799.0 -9616.0 L -16778.0 -9632.0 L -16748.0 -9649.0 L -16730.0 -9657.0 L -16679.0 -9682.0 L -16640.0 -9700.0 L -16622.0 -9710.0 L -16604.0 -9719.0 L -16558.0 -9743.0 L -16551.0 -9746.0 L -16499.0 -9772.0 L -16495.0 -9775.0 L -16473.8 -9786.4" class="track" data-sector="15"/>
      <path d="M -16473.8 -9786.4 L -16441.0 -9804.0 L -16404.0 -9823.0 L -16369.0 -9842.0 L -16214.0 -9922.0 L -16196.0 -9930.0 L -16150.0 -9954.0 L -16091.0 -9984.0 L -15976.0 -10041.0 L -15975.0 -10041.0 L -15883.0 -10087.0 L -15882.0 -10087.0 L -15795.0 -10130.0 L -15716.0 -10170.0 L -15704.0 -10175.0 L -15585.0 -10238.0 L -15584.0 -10238.0 L -15485.0 -10291.0 L -15440.0 -10317.0 L -15325.0 -10381.0 L -15289.0 -10403.0 L -15221.0 -10443.0 L -15162.0 -10478.0 L -15102.0 -10514.0 L -15052.0 -10542.0 L -14919.0 -10618.0 L -14863.0 -10648.0 L -14812.0 -10674.0 L -14811.0 -10674.0 L -14656.0 -10754.0 L -14599.0 -10783.0 L -14555.0 -10808.0 L -14477.0 -10851.0 L -14343.0 -10930.0 L -14333.0 -10935.0 L -14271.0 -10971.0 L -14242.0 -10988.0 L -14172.0 -11025.0 L -14171.0 -11025.0 L -14047.0 -11082.0 L -14039.0 -11085.0 L -13982.0 -11105.0 L -13957.0 -11112.0 L -13870.0 -11129.0 L -13832.0 -11136.0 L -13772.0 -11139.0 L -13727.0 -11131.0" class="track" data-sector="16"/>
      <path d="M -13727.0 -11131.0 L -13715.0 -11128.0 L -13659.0 -11108.0 L -13658.0 -11107.0 L -13613.0 -11080.0 L -13579.0 -11050.0 L -13571.0 -11042.0 L -13544.0 -11011.0 L -13525.0 -10987.0 L -13499.0 -10952.0 L -13476.0 -10913.0 L -13416.0 -10800.0 L -13415.0 -10799.0 L -13388.0 -10746.0 L -13382.0 -10734.0 L -13345.0 -10660.0 L -13335.0 -10641.0 L -13299.0 -10568.0 L -13283.0 -10535.0 L -13259.0 -10488.0 L -13216.0 -10401.0 L -13198.0 -10365.0 L -13179.2 -10324.9" class="track" data-sector="17"/>
      <path d="M -13179.2 -10324.9 L -13159.0 -10282.0 L -13153.0 -10271.0 L -13122.0 -10205.0 L -13094.0 -10147.0 L -13087.0 -10134.0 L -12990.0 -9940.0 L -12981.0 -9921.0 L -12951.0 -9862.0 L -12933.0 -9831.0 L -12879.0 -9739.0 L -12839.0 -9674.0 L -12815.0 -9635.0 L -12727.0 -9499.0 L -12674.0 -9426.0 L -12627.0 -9364.0 L -12555.0 -9273.0 L -12531.0 -9244.0 L -12372.0 -9078.0 L -12361.0 -9068.0 L -12265.0 -8979.0 L -12191.0 -8913.0 L -12167.0 -8892.0 L -12127.0 -8857.0 L -12048.0 -8790.0 L -12046.0 -8788.0 L -11951.0 -8706.0 L -11871.0 -8636.0 L -11788.0 -8561.0 L -11682.0 -8460.0 L -11652.0 -8429.0 L -11501.0 -8265.0 L -11479.0 -8241.0 L -11393.0 -8151.0 L -11353.0 -8114.0 L -11255.0 -8025.0 L -11119.0 -7897.0 L -11030.0 -7797.0 L -10992.8 -7736.4" class="track" data-sector="18"/>
      <path d="M -10992.8 -7736.4 L -10984.0 -7722.0 L -10911.0 -7583.0 L -10906.0 -7571.0 L -10869.0 -7484.0 L -10847.0 -7423.0 L -10777.0 -7187.0 L -10768.0 -7155.0 L -10747.0 -7076.0 L -10736.0 -7016.0 L -10724.0 -6961.0 L -10697.0 -6831.0 L -10696.0 -6829.0 L -10669.0 -6708.0 L -10668.0 -6706.0 L -10626.0 -6557.0 L -10622.0 -6545.0 L -10561.0 -6406.0 L -10504.0 -6313.0 L -10425.0 -6214.0 L -10416.0 -6204.0 L -10382.0 -6169.0 L -10288.0 -6082.0 L -10184.0 -5999.0 L -10152.0 -5975.0 L -9983.0 -5854.0 L -9904.0 -5798.0 L -9824.0 -5739.0 L -9799.0 -5721.0 L -9568.0 -5543.0 L -9566.0 -5541.0 L -9457.0 -5457.0 L -9351.0 -5375.0 L -9322.0 -5353.0 L -9234.0 -5286.0 L -9085.0 -5173.0 L -9063.0 -5156.0 L -9037.5 -5136.5" class="track" data-sector="19"/>
      <path d="M -9037.5 -5136.5 L -8874.0 -5011.0 L -8779.0 -4939.0 L -8674.0 -4860.0 L -8647.0 -4840.0 L -8553.0 -4768.0 L -8433.0 -4677.0 L -8405.0 -4656.0 L -8190.0 -4488.0 L -8179.0 -4479.0 L -8044.0 -4379.0 L -7980.0 -4335.0 L -7861.0 -4259.0 L -7796.0 -4221.0 L -7608.0 -4126.0 L -7605.0 -4124.0 L -7338.0 -4011.0 L -7252.0 -3976.0 L -7066.0 -3904.0 L -7064.0 -3903.0 L -6981.0 -3870.0 L -6882.0 -3830.0 L -6794.0 -3795.0 L -6726.0 -3767.0 L -6571.0 -3705.0 L -6438.0 -3651.0 L -6379.0 -3627.0 L -6175.0 -3544.0 L -6075.0 -3503.0 L -6011.0 -3477.0 L -5782.0 -3381.0 L -5711.0 -3352.0 L -5683.0 -3340.0 L -5628.0 -3318.0 L -5513.0 -3270.0 L -5257.0 -3163.0 L -5210.0 -3144.0 L -5162.0 -3124.0 L -5113.0 -3104.0 L -5021.0 -3066.0 L -4935.0 -3030.0 L -4817.0 -2980.0 L -4691.0 -2927.0 L -4677.0 -2921.0 L -4529.0 -2858.0 L -4483.0 -2839.0 L -4400.0 -2803.0 L -4354.0 -2784.0 L -4270.0 -2748.0 L -4257.1 -2742.7" class="track" data-sector="20"/>
      <path d="M -4257.1 -2742.7 L -4159.0 -2702.0 L -4013.0 -2640.0 L -3963.0 -2619.0 L -3784.0 -2543.0 L -3767.0 -2536.0 L -3616.0 -2472.0 L -3369.0 -2368.0 L -3354.0 -2362.0 L -3234.0 -2311.0 L -3119.0 -2262.0 L -3055.0 -2235.0 L -2965.0 -2197.0 L -2843.0 -2145.0 L -2771.0 -2115.0 L -2654.0 -2065.0 L -2652.0 -2064.0 L -2503.0 -2001.0 L -2484.0 -1993.0 L -2349.0 -1935.0 L -2284.0 -1908.0 L -2115.0 -1838.0 L -2113.0 -1837.0 L -1979.0 -1782.0 L -1833.0 -1724.0 L -1636.0 -1650.0 L -1617.0 -1642.0 L -1388.0 -1559.0 L -1324.0 -1535.0 L -1218.0 -1495.0 L -1151.0 -1470.0 L -1082.0 -1444.0 L -957.0 -1397.0 L -789.0 -1334.0 L -707.0 -1303.0 L -547.0 -1243.0 L -348.0 -1170.0 L -235.0 -1128.0 L -166.0 -1102.0 L -147.0 -1094.0 L 5.0 -1036.0 L 68.0 -1010.0 L 343.0 -895.0 L 380.0 -880.0 L 528.0 -815.0 L 641.0 -768.0 L 856.2 -678.2" class="track" data-sector="21"/>
      <path d="M 856.2 -678.2 L 943.0 -642.0 L 963.0 -634.0 L 1178.0 -543.0 L 1030.0 -607.0 L 1136.0 -562.0 L 1138.0 -561.0 L 1316.0 -487.0 L 1406.0 -450.0 L 1498.0 -411.0 L 1846.0 -265.0 L 1858.0 -259.0 L 1934.0 -227.0 L 1965.0 -215.0 L 2145.0 -139.0 L 2253.0 -95.0 L 2289.0 -79.0 L 2405.0 -32.0 L 2519.0 15.0 L 2565.0 34.0 L 2698.0 92.0 L 2725.0 104.0 L 2743.8 112.3" class="track" data-sector="1"/>
    </g>

    <g id="marshal-lights">
      <g class="marshal-light-marker" data-light="1">
        <rect x="964.1" y="-672.9" width="131.9" height="131.9" class="marshal-light-bg"/>
        <text x="1030.0" y="-607.0" class="marshal-light-label">1</text>
      </g>
      <g class="marshal-light-marker" data-light="2">
        <rect x="2665.0" y="40.7" width="131.9" height="131.9" class="marshal-light-bg"/>
        <text x="2731.0" y="106.6" class="marshal-light-label">2</text>
      </g>
      <g class="marshal-light-marker" data-light="3">
        <rect x="2784.1" y="2817.7" width="131.9" height="131.9" class="marshal-light-bg"/>
        <text x="2850.0" y="2883.6" class="marshal-light-label">3</text>
      </g>
      <g class="marshal-light-marker" data-light="4">
        <rect x="15.1" y="2808.2" width="131.9" height="131.9" class="marshal-light-bg"/>
        <text x="81.0" y="2874.1" class="marshal-light-label">4</text>
      </g>
      <g class="marshal-light-marker" data-light="5">
        <rect x="-4239.4" y="1007.4" width="131.9" height="131.9" class="marshal-light-bg"/>
        <text x="-4173.4" y="1073.4" class="marshal-light-label">5</text>
      </g>
      <g class="marshal-light-marker" data-light="6">
        <rect x="-5205.5" y="-936.1" width="131.9" height="131.9" class="marshal-light-bg"/>
        <text x="-5139.5" y="-870.1" class="marshal-light-label">6</text>
      </g>
      <g class="marshal-light-marker" data-light="7">
        <rect x="-6650.4" y="-2635.1" width="131.9" height="131.9" class="marshal-light-bg"/>
        <text x="-6584.4" y="-2569.2" class="marshal-light-label">7</text>
      </g>
      <g class="marshal-light-marker" data-light="8">
        <rect x="-7741.7" y="-3735.5" width="131.9" height="131.9" class="marshal-light-bg"/>
        <text x="-7675.8" y="-3669.5" class="marshal-light-label">8</text>
      </g>
      <g class="marshal-light-marker" data-light="9">
        <rect x="-9709.5" y="-5545.8" width="131.9" height="131.9" class="marshal-light-bg"/>
        <text x="-9643.5" y="-5479.8" class="marshal-light-label">9</text>
      </g>
      <g class="marshal-light-marker" data-light="10">
        <rect x="-11270.2" y="-5176.0" width="131.9" height="131.9" class="marshal-light-bg"/>
        <text x="-11204.3" y="-5110.1" class="marshal-light-label">10</text>
      </g>
      <g class="marshal-light-marker" data-light="11">
        <rect x="-11816.7" y="-4297.8" width="131.9" height="131.9" class="marshal-light-bg"/>
        <text x="-11750.8" y="-4231.8" class="marshal-light-label">11</text>
      </g>
      <g class="marshal-light-marker" data-light="12">
        <rect x="-13248.3" y="-3705.3" width="131.9" height="131.9" class="marshal-light-bg"/>
        <text x="-13182.3" y="-3639.4" class="marshal-light-label">12</text>
      </g>
      <g class="marshal-light-marker" data-light="13">
        <rect x="-15403.9" y="-4725.5" width="131.9" height="131.9" class="marshal-light-bg"/>
        <text x="-15337.9" y="-4659.6" class="marshal-light-label">13</text>
      </g>
      <g class="marshal-light-marker" data-light="14">
        <rect x="-16699.6" y="-6355.8" width="131.9" height="131.9" class="marshal-light-bg"/>
        <text x="-16633.7" y="-6289.8" class="marshal-light-label">14</text>
      </g>
      <g class="marshal-light-marker" data-light="15">
        <rect x="-16921.7" y="-8452.6" width="131.9" height="131.9" class="marshal-light-bg"/>
        <text x="-16855.8" y="-8386.7" class="marshal-light-label">15</text>
      </g>
      <g class="marshal-light-marker" data-light="16">
        <rect x="-16627.1" y="-9807.3" width="131.9" height="131.9" class="marshal-light-bg"/>
        <text x="-16561.2" y="-9741.4" class="marshal-light-label">16</text>
      </g>
      <g class="marshal-light-marker" data-light="17">
        <rect x="-13678.5" y="-11145.6" width="131.9" height="131.9" class="marshal-light-bg"/>
        <text x="-13612.6" y="-11079.6" class="marshal-light-label">17</text>
      </g>
      <g class="marshal-light-marker" data-light="18">
        <rect x="-13192.7" y="-10281.0" width="131.9" height="131.9" class="marshal-light-bg"/>
        <text x="-13126.7" y="-10215.1" class="marshal-light-label">18</text>
      </g>
      <g class="marshal-light-marker" data-light="19">
        <rect x="-11095.5" y="-7862.2" width="131.9" height="131.9" class="marshal-light-bg"/>
        <text x="-11029.5" y="-7796.2" class="marshal-light-label">19</text>
      </g>
      <g class="marshal-light-marker" data-light="20">
        <rect x="-8861.7" y="-5017.6" width="131.9" height="131.9" class="marshal-light-bg"/>
        <text x="-8795.7" y="-4951.7" class="marshal-light-label">20</text>
      </g>
      <g class="marshal-light-marker" data-light="21">
        <rect x="-4331.7" y="-2812.2" width="131.9" height="131.9" class="marshal-light-bg"/>
        <text x="-4265.8" y="-2746.2" class="marshal-light-label">21</text>
      </g>
    </g>

    <g id="marshal-sectors">
      <g class="marshal-sector-marker" data-sector="1" data-length="59419.6">
        <polygon points="856.2,-836.5 719.1,-599.1 993.2,-599.1" class="marshal-sector-bg"/>
        <text x="856.2" y="-678.2" class="marshal-sector-label">1</text>
      </g>
      <g class="marshal-sector-marker" data-sector="2" data-length="1858.8">
        <polygon points="2743.8,-46.0 2606.8,191.4 2880.9,191.4" class="marshal-sector-bg"/>
        <text x="2743.8" y="112.3" class="marshal-sector-label">2</text>
      </g>
      <g class="marshal-sector-marker" data-sector="3" data-length="5332.8">
        <polygon points="2879.5,2661.6 2742.4,2899.0 3016.6,2899.0" class="marshal-sector-bg"/>
        <text x="2879.5" y="2819.9" class="marshal-sector-label">3</text>
      </g>
      <g class="marshal-sector-marker" data-sector="4" data-length="8727.3">
        <polygon points="155.6,2743.8 18.5,2981.2 292.6,2981.2" class="marshal-sector-bg"/>
        <text x="155.6" y="2902.1" class="marshal-sector-label">4</text>
      </g>
      <g class="marshal-sector-marker" data-sector="5" data-length="13367.2">
        <polygon points="-4117.5,939.2 -4254.6,1176.6 -3980.5,1176.6" class="marshal-sector-bg"/>
        <text x="-4117.5" y="1097.5" class="marshal-sector-label">5</text>
      </g>
      <g class="marshal-sector-marker" data-sector="6" data-length="16124.9">
        <polygon points="-5218.9,-838.4 -5356.0,-601.0 -5081.8,-601.0" class="marshal-sector-bg"/>
        <text x="-5218.9" y="-680.1" class="marshal-sector-label">6</text>
      </g>
      <g class="marshal-sector-marker" data-sector="7" data-length="19252.5">
        <polygon points="-6644.8,-2763.3 -6781.8,-2525.9 -6507.7,-2525.9" class="marshal-sector-bg"/>
        <text x="-6644.8" y="-2605.1" class="marshal-sector-label">7</text>
      </g>
      <g class="marshal-sector-marker" data-sector="8" data-length="21125.3">
        <polygon points="-7608.0,-4025.3 -7745.1,-3787.9 -7470.9,-3787.9" class="marshal-sector-bg"/>
        <text x="-7608.0" y="-3867.1" class="marshal-sector-label">8</text>
      </g>
      <g class="marshal-sector-marker" data-sector="9" data-length="23845.6">
        <polygon points="-9721.4,-5698.1 -9858.5,-5460.7 -9584.4,-5460.7" class="marshal-sector-bg"/>
        <text x="-9721.4" y="-5539.8" class="marshal-sector-label">9</text>
      </g>
      <g class="marshal-sector-marker" data-sector="10" data-length="26467.5">
        <polygon points="-11240.4,-5147.2 -11377.5,-4909.8 -11103.4,-4909.8" class="marshal-sector-bg"/>
        <text x="-11240.4" y="-4989.0" class="marshal-sector-label">10</text>
      </g>
      <g class="marshal-sector-marker" data-sector="11" data-length="27769.1">
        <polygon points="-12053.9,-4340.3 -12191.0,-4102.9 -11916.9,-4102.9" class="marshal-sector-bg"/>
        <text x="-12053.9" y="-4182.0" class="marshal-sector-label">11</text>
      </g>
      <g class="marshal-sector-marker" data-sector="12" data-length="29117.5">
        <polygon points="-13031.3,-3765.7 -13168.3,-3528.3 -12894.2,-3528.3" class="marshal-sector-bg"/>
        <text x="-13031.3" y="-3607.4" class="marshal-sector-label">12</text>
      </g>
      <g class="marshal-sector-marker" data-sector="13" data-length="31603.7">
        <polygon points="-15289.5,-4789.4 -15426.5,-4552.0 -15152.4,-4552.0" class="marshal-sector-bg"/>
        <text x="-15289.5" y="-4631.2" class="marshal-sector-label">13</text>
      </g>
      <g class="marshal-sector-marker" data-sector="14" data-length="33972.8">
        <polygon points="-16666.4,-6550.7 -16803.4,-6313.3 -16529.3,-6313.3" class="marshal-sector-bg"/>
        <text x="-16666.4" y="-6392.4" class="marshal-sector-label">14</text>
      </g>
      <g class="marshal-sector-marker" data-sector="15" data-length="36182.7">
        <polygon points="-16840.1,-8726.6 -16977.2,-8489.1 -16703.1,-8489.1" class="marshal-sector-bg"/>
        <text x="-16840.1" y="-8568.3" class="marshal-sector-label">15</text>
      </g>
      <g class="marshal-sector-marker" data-sector="16" data-length="37620.1">
        <polygon points="-16473.8,-9944.6 -16610.9,-9707.2 -16336.8,-9707.2" class="marshal-sector-bg"/>
        <text x="-16473.8" y="-9786.4" class="marshal-sector-label">16</text>
      </g>
      <g class="marshal-sector-marker" data-sector="17" data-length="40700.9">
        <polygon points="-13727.1,-11289.3 -13864.2,-11051.9 -13590.0,-11051.9" class="marshal-sector-bg"/>
        <text x="-13727.1" y="-11131.0" class="marshal-sector-label">17</text>
      </g>
      <g class="marshal-sector-marker" data-sector="18" data-length="41702.8">
        <polygon points="-13179.2,-10483.2 -13316.2,-10245.8 -13042.1,-10245.8" class="marshal-sector-bg"/>
        <text x="-13179.2" y="-10324.9" class="marshal-sector-label">18</text>
      </g>
      <g class="marshal-sector-marker" data-sector="19" data-length="45125.4">
        <polygon points="-10992.8,-7894.6 -11129.9,-7657.2 -10855.8,-7657.2" class="marshal-sector-bg"/>
        <text x="-10992.8" y="-7736.4" class="marshal-sector-label">19</text>
      </g>
      <g class="marshal-sector-marker" data-sector="20" data-length="48524.6">
        <polygon points="-9037.5,-5294.7 -9174.6,-5057.3 -8900.5,-5057.3" class="marshal-sector-bg"/>
        <text x="-9037.5" y="-5136.5" class="marshal-sector-label">20</text>
      </g>
      <g class="marshal-sector-marker" data-sector="21" data-length="53904.2">
        <polygon points="-4257.1,-2900.9 -4394.2,-2663.5 -4120.0,-2663.5" class="marshal-sector-bg"/>
        <text x="-4257.1" y="-2742.7" class="marshal-sector-label">21</text>
      </g>
    </g>

    <g id="corners">
      <g class="corner-marker" data-corner="1" data-length="2963.7">
        <circle cx="3689.0" cy="631.3" r="211.0" class="corner-bg"/>
        <text x="3689.0" y="631.3" class="corner-label">1</text>
      </g>
      <g class="corner-marker" data-corner="2" data-length="6358.2">
        <circle cx="2384.1" cy="3686.1" r="211.0" class="corner-bg"/>
        <text x="2384.1" y="3686.1" class="corner-label">2</text>
      </g>
      <g class="corner-marker" data-corner="3" data-length="14996.5">
        <circle cx="-5565.8" cy="374.2" r="211.0" class="corner-bg"/>
        <text x="-5565.8" y="374.2" class="corner-label">3</text>
      </g>
      <g class="corner-marker" data-corner="4" data-length="17243.9">
        <circle cx="-4862.7" cy="-1723.2" r="211.0" class="corner-bg"/>
        <text x="-4862.7" y="-1723.2" class="corner-label">4</text>
      </g>
      <g class="corner-marker" data-corner="5" data-length="20605.6">
        <circle cx="-7728.7" cy="-3377.1" r="211.0" class="corner-bg"/>
        <text x="-7728.7" y="-3377.1" class="corner-label">5</text>
      </g>
      <g class="corner-marker" data-corner="6" data-length="21186.2">
        <circle cx="-7617.3" cy="-3926.0" r="211.0" class="corner-bg"/>
        <text x="-7617.3" y="-3926.0" class="corner-label">6</text>
      </g>
      <g class="corner-marker" data-corner="7" data-length="25062.9">
        <circle cx="-10710.1" cy="-6235.3" r="211.0" class="corner-bg"/>
        <text x="-10710.1" y="-6235.3" class="corner-label">7</text>
      </g>
      <g class="corner-marker" data-corner="8" data-length="27043.4">
        <circle cx="-11409.9" cy="-4439.0" r="211.0" class="corner-bg"/>
        <text x="-11409.9" y="-4439.0" class="corner-label">8</text>
      </g>
      <g class="corner-marker" data-corner="9" data-length="27305.6">
        <circle cx="-11606.3" cy="-4286.0" r="211.0" class="corner-bg"/>
        <text x="-11606.3" y="-4286.0" class="corner-label">9</text>
      </g>
      <g class="corner-marker" data-corner="10" data-length="27600.6">
        <circle cx="-11886.3" cy="-4199.1" r="211.0" class="corner-bg"/>
        <text x="-11886.3" y="-4199.1" class="corner-label">10</text>
      </g>
      <g class="corner-marker" data-corner="11" data-length="28073.5">
        <circle cx="-12352.3" cy="-4129.9" r="211.0" class="corner-bg"/>
        <text x="-12352.3" y="-4129.9" class="corner-label">11</text>
      </g>
      <g class="corner-marker" data-corner="12" data-length="28644.7">
        <circle cx="-12573.1" cy="-3645.2" r="211.0" class="corner-bg"/>
        <text x="-12573.1" y="-3645.2" class="corner-label">12</text>
      </g>
      <g class="corner-marker" data-corner="13" data-length="32671.2">
        <circle cx="-16187.0" cy="-5197.3" r="211.0" class="corner-bg"/>
        <text x="-16187.0" y="-5197.3" class="corner-label">13</text>
      </g>
      <g class="corner-marker" data-corner="14" data-length="34946.7">
        <circle cx="-16888.8" cy="-7335.8" r="211.0" class="corner-bg"/>
        <text x="-16888.8" y="-7335.8" class="corner-label">14</text>
      </g>
      <g class="corner-marker" data-corner="15" data-length="37175.3">
        <circle cx="-16846.4" cy="-9555.9" r="211.0" class="corner-bg"/>
        <text x="-16846.4" y="-9555.9" class="corner-label">15</text>
      </g>
      <g class="corner-marker" data-corner="16" data-length="40771.1">
        <circle cx="-13660.6" cy="-11108.6" r="211.0" class="corner-bg"/>
        <text x="-13660.6" y="-11108.6" class="corner-label">16</text>
      </g>
      <g class="corner-marker" data-corner="17" data-length="42667.3">
        <circle cx="-12714.3" cy="-9481.4" r="211.0" class="corner-bg"/>
        <text x="-12714.3" y="-9481.4" class="corner-label">17</text>
      </g>
      <g class="corner-marker" data-corner="18" data-length="45055.2">
        <circle cx="-11029.5" cy="-7796.2" r="211.0" class="corner-bg"/>
        <text x="-11029.5" y="-7796.2" class="corner-label">18</text>
      </g>
      <g class="corner-marker" data-corner="19" data-length="46600.2">
        <circle cx="-10524.6" cy="-6346.6" r="211.0" class="corner-bg"/>
        <text x="-10524.6" y="-6346.6" class="corner-label">19</text>
      </g>
      <g class="corner-marker" data-corner="20" data-length="49732.5">
        <circle cx="-8077.3" cy="-4403.7" r="211.0" class="corner-bg"/>
        <text x="-8077.3" y="-4403.7" class="corner-label">20</text>
      </g>
    </g>

    <g id="start-finish" data-track-x="1030.0" data-track-y="-607.0" data-lap-distance="59930.0">
      <polygon points="147.2,-548.4 876.9,-242.2 693.1,195.6 -36.6,-110.6" class="checker-border"/>
      <polygon points="147.2,-548.4 293.1,-487.2 231.9,-341.2 85.9,-402.5" class="checker-black"/>
      <polygon points="85.9,-402.5 231.9,-341.2 170.6,-195.3 24.7,-256.6" class="checker-white"/>
      <polygon points="24.7,-256.6 170.6,-195.3 109.4,-49.4 -36.6,-110.6" class="checker-black"/>
      <polygon points="293.1,-487.2 439.1,-425.9 377.8,-280.0 231.9,-341.2" class="checker-white"/>
      <polygon points="231.9,-341.2 377.8,-280.0 316.5,-134.0 170.6,-195.3" class="checker-black"/>
      <polygon points="170.6,-195.3 316.5,-134.0 255.3,11.9 109.4,-49.4" class="checker-white"/>
      <polygon points="439.1,-425.9 585.0,-364.7 523.7,-218.7 377.8,-280.0" class="checker-black"/>
      <polygon points="377.8,-280.0 523.7,-218.7 462.5,-72.8 316.5,-134.0" class="checker-white"/>
      <polygon points="316.5,-134.0 462.5,-72.8 401.2,73.1 255.3,11.9" class="checker-black"/>
      <polygon points="585.0,-364.7 730.9,-303.4 669.7,-157.5 523.7,-218.7" class="checker-white"/>
      <polygon points="523.7,-218.7 669.7,-157.5 608.4,-11.5 462.5,-72.8" class="checker-black"/>
      <polygon points="462.5,-72.8 608.4,-11.5 547.2,134.4 401.2,73.1" class="checker-white"/>
      <polygon points="730.9,-303.4 876.9,-242.2 815.6,-96.2 669.7,-157.5" class="checker-black"/>
      <polygon points="669.7,-157.5 815.6,-96.2 754.4,49.7 608.4,-11.5" class="checker-white"/>
      <polygon points="608.4,-11.5 754.4,49.7 693.1,195.6 547.2,134.4" class="checker-black"/>
      <polyline points="1412.6,526.2 1757.9,385.1 1616.8,39.8" class="chevron"/>
      <polyline points="1607.2,607.9 1952.5,466.8 1811.3,121.5" class="chevron"/>
      <polyline points="1801.7,689.6 2147.1,548.4 2005.9,203.1" class="chevron"/>
    </g>

    <g id="car-markers"></g>

  </g>
</svg>
