<?xml version="1.0" encoding="utf-8"?>
<?xml-stylesheet type="text/css" href="../../css/tracks.css"?>
<svg xmlns="http://www.w3.org/2000/svg" viewBox="-495.9 202.7 960.0 400.6">
  <title>Catalunya</title>

  <g id="track-root" transform="translate(0, 400.56) scale(1, -1) scale(0.059010) translate(1929.50, 1658.50) rotate(303, -1929.50, -1658.50)" data-scale="0.059010" data-rotation="303.0">

    <g id="track-outline">
      <path d="M -1974.1 -5433.4 L -1982.0 -5447.0 L -2103.0 -5660.0 L -2150.0 -5745.0 L -2239.0 -5906.0 L -2291.0 -6000.0 L -2361.0 -6124.0 L -2443.0 -6265.0 L -2486.0 -6334.0 L -2577.0 -6473.0 L -2619.0 -6533.0 L -2666.0 -6595.0 L -2737.0 -6682.0 L -2788.0 -6739.0 L -2849.0 -6800.0 L -2890.0 -6837.0 L -2928.0 -6868.0 L -2983.0 -6906.0 L -3103.0 -6967.0 L -3152.0 -6982.0 L -3186.0 -6988.0 L -3334.0 -6987.0 L -3411.0 -6970.0 L -3460.0 -6953.0 L -3492.0 -6941.0 L -3556.0 -6913.0 L -3642.0 -6874.0 L -3697.0 -6848.0 L -3776.0 -6815.0 L -3827.0 -6797.0 L -3873.0 -6784.0 L -3944.0 -6772.0 L -3992.0 -6769.0 L -4081.0 -6777.0 L -4194.0 -6807.0 L -4305.0 -6852.0 L -4377.0 -6889.0 L -4457.0 -6937.0 L -4527.0 -6982.0 L -4603.0 -7036.0 L -4609.3 -7040.5" class="track-outline" data-sector="2"/>
      <path d="M -4609.3 -7040.5 L -4663.0 -7079.0 L -4776.0 -7157.0 L -4910.0 -7242.0 L -4995.0 -7290.0 L -5087.0 -7337.0 L -5194.0 -7382.0 L -5352.0 -7428.0 L -5445.0 -7444.0 L -5523.0 -7452.0 L -5587.0 -7453.0 L -5722.0 -7446.0 L -5806.0 -7433.0 L -5843.7 -7424.1" class="track-outline" data-sector="3"/>
      <path d="M -5843.7 -7424.1 L -5912.0 -7408.0 L -5971.0 -7390.0 L -6048.0 -7361.0 L -6185.0 -7295.0 L -6222.0 -7274.0 L -6322.0 -7206.0 L -6422.0 -7121.0 L -6463.0 -7079.0 L -6502.0 -7034.0 L -6552.0 -6969.0 L -6622.0 -6852.0 L -6651.0 -6789.0 L -6693.0 -6671.0 L -6710.0 -6601.0 L -6726.0 -6514.0 L -6740.0 -6366.0 L -6741.0 -6275.0 L -6739.0 -6198.0 L -6727.0 -6060.0 L -6711.0 -5945.0 L -6686.0 -5811.0 L -6653.0 -5667.0 L -6632.0 -5585.0 L -6584.0 -5429.0 L -6530.0 -5281.0 L -6488.0 -5181.0 L -6420.0 -5034.0 L -6353.0 -4906.0 L -6308.0 -4824.0 L -6293.0 -4797.0 L -6170.0 -4586.0 L -6109.0 -4483.0 L -6053.0 -4390.0 L -6013.0 -4323.0 L -5934.0 -4189.0 L -5924.4 -4172.9" class="track-outline" data-sector="4"/>
      <path d="M -5924.4 -4172.9 L -5841.0 -4033.0 L -5776.0 -3924.0 L -5631.0 -3692.0 L -5552.0 -3572.0 L -5503.0 -3501.0 L -5483.0 -3472.0 L -5421.0 -3381.0 L -5348.0 -3277.0 L -5292.0 -3201.0 L -5252.0 -3151.0 L -5161.0 -3050.0 L -5083.0 -2980.0 L -5022.0 -2936.0 L -4943.0 -2893.0 L -4885.0 -2869.0 L -4814.0 -2850.0 L -4764.0 -2843.0 L -4697.0 -2840.0 L -4643.0 -2844.0 L -4595.0 -2852.0 L -4513.0 -2876.0 L -4435.0 -2911.0 L -4380.0 -2943.0 L -4346.0 -2968.0 L -4315.0 -2995.0 L -4276.0 -3034.0 L -4244.7 -3071.6" class="track-outline" data-sector="5"/>
      <path d="M -4244.7 -3071.6 L -4212.0 -3111.0 L -4164.0 -3181.0 L -4138.0 -3226.0 L -4117.0 -3268.0 L -4075.0 -3375.0 L -4056.0 -3440.0 L -4042.0 -3508.0 L -4034.0 -3560.0 L -4028.0 -3660.0 L -4029.0 -3722.0 L -4037.0 -3805.0 L -4065.0 -3941.0 L -4095.0 -4034.0 L -4144.0 -4149.0 L -4185.0 -4226.0 L -4276.0 -4365.0 L -4344.0 -4463.0 L -4400.0 -4541.0 L -4453.0 -4613.0 L -4550.0 -4746.0 L -4570.6 -4774.3" class="track-outline" data-sector="6"/>
      <path d="M -4570.6 -4774.3 L -4656.0 -4892.0 L -4742.0 -5009.0 L -4793.0 -5078.0 L -4840.0 -5144.0 L -4900.0 -5227.0 L -4946.0 -5292.0 L -4980.0 -5341.0 L -5038.0 -5428.0 L -5083.0 -5501.0 L -5125.0 -5576.0 L -5164.0 -5658.0 L -5201.0 -5761.0 L -5212.0 -5799.0 L -5223.0 -5868.0 L -5226.0 -5906.0 L -5224.0 -5952.0 L -5211.0 -6017.0 L -5194.0 -6062.0 L -5170.0 -6105.0 L -5146.0 -6137.0 L -5088.0 -6188.0 L -5045.0 -6213.0 L -5009.0 -6228.0 L -4911.0 -6249.0 L -4868.0 -6251.0 L -4780.0 -6243.0 L -4672.0 -6217.0 L -4599.0 -6190.0 L -4557.0 -6172.0 L -4493.0 -6142.0 L -4398.0 -6093.0 L -4328.0 -6055.0 L -4009.0 -5886.0 L -3908.0 -5837.0 L -3794.0 -5787.0 L -3684.0 -5740.0 L -3587.0 -5700.0 L -3520.0 -5671.0 L -3445.0 -5638.0 L -3361.0 -5598.0 L -3193.0 -5504.0 L -3085.0 -5434.0 L -2980.0 -5356.0 L -2864.0 -5257.0 L -2695.0 -5084.0 L -2633.0 -5010.0 L -2564.3 -4922.5" class="track-outline" data-sector="7"/>
      <path d="M -2564.3 -4922.5 L -2560.0 -4917.0 L -2422.0 -4723.0 L -2391.0 -4679.0 L -2303.0 -4551.0 L -2254.0 -4479.0 L -2159.0 -4330.0 L -2130.0 -4274.0 L -2092.0 -4185.0 L -2073.0 -4118.0 L -2065.0 -4061.0 L -2064.0 -4021.0 L -2072.0 -3942.0 L -2086.0 -3886.0 L -2127.0 -3796.0 L -2162.0 -3746.0 L -2233.0 -3675.0 L -2278.0 -3638.0 L -2316.0 -3610.0 L -2379.0 -3566.0 L -2404.0 -3549.0 L -2503.0 -3473.0 L -2583.0 -3398.0 L -2607.0 -3370.3" class="track-outline" data-sector="8"/>
      <path d="M -2607.0 -3370.3 L -2647.0 -3324.0 L -2725.0 -3211.0 L -2761.0 -3136.0 L -2787.0 -3071.0 L -2856.0 -2881.0 L -2902.0 -2756.0 L -2929.0 -2684.0 L -2969.0 -2579.0 L -3000.0 -2497.0 L -3031.0 -2421.0 L -3080.0 -2311.0 L -3147.0 -2178.0 L -3156.0 -2161.0 L -3235.0 -2007.0 L -3281.0 -1918.0 L -3325.0 -1832.0 L -3374.0 -1736.0 L -3387.9 -1708.2" class="track-outline" data-sector="9"/>
      <path d="M -3387.9 -1708.2 L -3401.0 -1682.0 L -3454.0 -1559.0 L -3491.0 -1425.0 L -3494.0 -1403.0 L -3502.0 -1305.0 L -3502.0 -1253.0 L -3497.0 -1170.0 L -3484.0 -1059.0 L -3479.0 -1030.0 L -3459.0 -931.0 L -3434.0 -842.0 L -3416.0 -789.0 L -3388.0 -717.0 L -3342.0 -624.0 L -3298.0 -551.0 L -3216.0 -446.0 L -3164.0 -395.0 L -3082.0 -329.0 L -2970.0 -261.0 L -2864.0 -207.0 L -2732.0 -146.0 L -2657.0 -111.0 L -2600.4 -84.9" class="track-outline" data-sector="10"/>
      <path d="M -2600.4 -84.9 L -2501.0 -39.0 L -2290.0 58.0 L -2197.0 101.0 L -2043.0 173.0 L -1929.0 226.0 L -1821.0 276.0 L -1749.0 309.0 L -1667.0 348.0 L -1536.0 409.0 L -1432.0 457.0 L -1268.0 534.0 L -1161.0 586.0 L -1070.0 632.0 L -992.0 674.0 L -824.0 766.0 L -674.0 848.0 L -572.0 903.0 L -479.0 953.0 L -260.0 1071.0 L -143.0 1134.0 L -47.0 1186.0 L 112.0 1272.0 L 246.0 1344.0 L 377.3 1411.4" class="track-outline" data-sector="11"/>
      <path d="M 377.3 1411.4 L 392.0 1419.0 L 477.0 1460.0 L 598.0 1514.0 L 710.0 1561.0 L 781.0 1590.0 L 857.0 1621.0 L 950.0 1658.0 L 1049.0 1699.0 L 1099.0 1721.0 L 1212.0 1777.0 L 1268.0 1811.0 L 1348.0 1874.0 L 1387.0 1916.0 L 1426.0 1977.0 L 1451.0 2044.0 L 1458.0 2079.0 L 1460.0 2156.0 L 1449.0 2227.0 L 1428.0 2294.0 L 1398.0 2358.0 L 1370.0 2403.0 L 1347.0 2435.0 L 1321.0 2466.0 L 1275.0 2512.0 L 1246.0 2536.0 L 1219.0 2555.0 L 1126.0 2604.0 L 1014.0 2638.0 L 970.0 2646.0 L 897.0 2655.0 L 784.0 2658.0 L 680.0 2649.0 L 668.0 2647.0 L 562.0 2625.0 L 491.0 2604.0 L 440.0 2584.0 L 376.0 2556.0 L 306.0 2520.0 L 198.0 2454.0 L 95.0 2383.0 L 10.0 2323.0 L -5.5 2312.8" class="track-outline" data-sector="12"/>
      <path d="M -5.5 2312.8 L -57.0 2279.0 L -131.0 2238.0 L -194.0 2208.0 L -269.0 2178.0 L -368.0 2148.0 L -478.0 2128.0 L -535.0 2124.0 L -612.0 2124.0 L -668.0 2130.0 L -740.0 2146.0 L -840.0 2191.0 L -907.0 2244.0 L -952.0 2294.0 L -979.0 2334.0 L -997.0 2368.0 L -1017.0 2413.0 L -1032.0 2459.0 L -1039.4 2495.5" class="track-outline" data-sector="13"/>
      <path d="M -1039.4 2495.5 L -1043.0 2513.0 L -1050.0 2614.0 L -1039.0 2723.0 L -1014.0 2818.0 L -1007.0 2839.0 L -963.0 2939.0 L -897.0 3046.0 L -775.0 3189.0 L -718.0 3242.0 L -652.0 3298.0 L -614.0 3329.0 L -542.0 3386.0 L -490.0 3426.0 L -394.0 3501.0 L -254.0 3619.0 L -134.0 3722.0 L -60.0 3784.0 L -12.5 3823.3" class="track-outline" data-sector="14"/>
      <path d="M -12.5 3823.3 L -2.0 3832.0 L 90.0 3905.0 L 163.0 3957.0 L 211.0 3990.0 L 287.0 4034.0 L 346.0 4062.0 L 442.0 4098.0 L 550.0 4125.0 L 632.0 4135.0 L 653.0 4136.0 L 742.0 4136.0 L 808.0 4131.0 L 947.0 4108.0 L 1005.0 4094.0 L 1062.0 4076.0 L 1221.0 4014.0 L 1323.0 3965.0 L 1388.0 3930.0 L 1418.0 3914.0 L 1499.0 3867.0 L 1596.0 3808.0 L 1656.0 3770.0 L 1724.0 3726.0 L 1800.0 3677.0 L 1918.0 3602.0 L 2005.0 3547.0 L 2091.0 3492.0 L 2136.2 3462.7" class="track-outline" data-sector="15"/>
      <path d="M 2136.2 3462.7 L 2193.0 3426.0 L 2314.0 3345.0 L 2355.0 3315.0 L 2483.0 3216.0 L 2592.0 3113.0 L 2633.0 3069.0 L 2723.0 2956.0 L 2754.0 2906.0 L 2807.0 2796.0 L 2839.0 2703.0 L 2869.0 2566.0 L 2882.0 2451.0 L 2882.0 2371.0 L 2869.0 2251.0 L 2855.0 2176.0 L 2835.0 2101.0 L 2806.0 2019.0 L 2765.0 1927.0 L 2745.0 1886.0 L 2706.0 1814.0 L 2638.0 1697.0 L 2602.0 1638.0 L 2550.0 1557.0 L 2486.0 1459.0 L 2426.0 1367.0 L 2375.0 1289.0 L 2302.0 1177.0 L 2218.0 1047.0 L 2207.0 1031.0 L 2082.0 838.0 L 2010.0 727.0 L 1959.0 649.0 L 1890.0 543.0 L 1802.0 408.0 L 1736.0 308.0 L 1620.0 128.0 L 1511.9 -39.7" class="track-outline" data-sector="16"/>
      <path d="M 1511.9 -39.7 L 1502.0 -55.0 L 1447.0 -141.0 L 1384.0 -240.0 L 1327.0 -328.0 L 1245.0 -458.0 L 1194.0 -538.0 L 1110.0 -670.0 L 1058.0 -752.0 L 946.0 -927.0 L 880.0 -1032.0 L 799.0 -1159.0 L 725.0 -1276.0 L 643.0 -1405.0 L 526.0 -1589.0 L 429.0 -1742.0 L 345.0 -1874.0 L 275.0 -1984.0 L 212.0 -2084.0 L 155.0 -2174.0 L 91.0 -2275.0 L -8.0 -2432.0 L -67.0 -2522.0 L -197.0 -2722.0 L -280.0 -2847.0 L -439.0 -3087.0 L -546.0 -3248.0 L -600.0 -3329.0 L -677.0 -3444.0 L -771.0 -3584.0 L -841.0 -3689.0 L -920.0 -3807.0 L -1015.0 -3949.0 L -1087.0 -4055.0 L -1199.0 -4222.0 L -1312.0 -4390.0 L -1393.0 -4511.0 L -1458.0 -4607.0 L -1550.0 -4744.0 L -1602.0 -4823.0 L -1783.0 -5108.0 L -1829.0 -5184.0 L -1919.0 -5338.0 L -1974.1 -5433.4" class="track-outline" data-sector="1"/>
    </g>

    <g id="track-sectors">
      <path d="M -1974.1 -5433.4 L -1982.0 -5447.0 L -2103.0 -5660.0 L -2150.0 -5745.0 L -2239.0 -5906.0 L -2291.0 -6000.0 L -2361.0 -6124.0 L -2443.0 -6265.0 L -2486.0 -6334.0 L -2577.0 -6473.0 L -2619.0 -6533.0 L -2666.0 -6595.0 L -2737.0 -6682.0 L -2788.0 -6739.0 L -2849.0 -6800.0 L -2890.0 -6837.0 L -2928.0 -6868.0 L -2983.0 -6906.0 L -3103.0 -6967.0 L -3152.0 -6982.0 L -3186.0 -6988.0 L -3334.0 -6987.0 L -3411.0 -6970.0 L -3460.0 -6953.0 L -3492.0 -6941.0 L -3556.0 -6913.0 L -3642.0 -6874.0 L -3697.0 -6848.0 L -3776.0 -6815.0 L -3827.0 -6797.0 L -3873.0 -6784.0 L -3944.0 -6772.0 L -3992.0 -6769.0 L -4081.0 -6777.0 L -4194.0 -6807.0 L -4305.0 -6852.0 L -4377.0 -6889.0 L -4457.0 -6937.0 L -4527.0 -6982.0 L -4603.0 -7036.0 L -4609.3 -7040.5" class="track" data-sector="2"/>
      <path d="M -4609.3 -7040.5 L -4663.0 -7079.0 L -4776.0 -7157.0 L -4910.0 -7242.0 L -4995.0 -7290.0 L -5087.0 -7337.0 L -5194.0 -7382.0 L -5352.0 -7428.0 L -5445.0 -7444.0 L -5523.0 -7452.0 L -5587.0 -7453.0 L -5722.0 -7446.0 L -5806.0 -7433.0 L -5843.7 -7424.1" class="track" data-sector="3"/>
      <path d="M -5843.7 -7424.1 L -5912.0 -7408.0 L -5971.0 -7390.0 L -6048.0 -7361.0 L -6185.0 -7295.0 L -6222.0 -7274.0 L -6322.0 -7206.0 L -6422.0 -7121.0 L -6463.0 -7079.0 L -6502.0 -7034.0 L -6552.0 -6969.0 L -6622.0 -6852.0 L -6651.0 -6789.0 L -6693.0 -6671.0 L -6710.0 -6601.0 L -6726.0 -6514.0 L -6740.0 -6366.0 L -6741.0 -6275.0 L -6739.0 -6198.0 L -6727.0 -6060.0 L -6711.0 -5945.0 L -6686.0 -5811.0 L -6653.0 -5667.0 L -6632.0 -5585.0 L -6584.0 -5429.0 L -6530.0 -5281.0 L -6488.0 -5181.0 L -6420.0 -5034.0 L -6353.0 -4906.0 L -6308.0 -4824.0 L -6293.0 -4797.0 L -6170.0 -4586.0 L -6109.0 -4483.0 L -6053.0 -4390.0 L -6013.0 -4323.0 L -5934.0 -4189.0 L -5924.4 -4172.9" class="track" data-sector="4"/>
      <path d="M -5924.4 -4172.9 L -5841.0 -4033.0 L -5776.0 -3924.0 L -5631.0 -3692.0 L -5552.0 -3572.0 L -5503.0 -3501.0 L -5483.0 -3472.0 L -5421.0 -3381.0 L -5348.0 -3277.0 L -5292.0 -3201.0 L -5252.0 -3151.0 L -5161.0 -3050.0 L -5083.0 -2980.0 L -5022.0 -2936.0 L -4943.0 -2893.0 L -4885.0 -2869.0 L -4814.0 -2850.0 L -4764.0 -2843.0 L -4697.0 -2840.0 L -4643.0 -2844.0 L -4595.0 -2852.0 L -4513.0 -2876.0 L -4435.0 -2911.0 L -4380.0 -2943.0 L -4346.0 -2968.0 L -4315.0 -2995.0 L -4276.0 -3034.0 L -4244.7 -3071.6" class="track" data-sector="5"/>
      <path d="M -4244.7 -3071.6 L -4212.0 -3111.0 L -4164.0 -3181.0 L -4138.0 -3226.0 L -4117.0 -3268.0 L -4075.0 -3375.0 L -4056.0 -3440.0 L -4042.0 -3508.0 L -4034.0 -3560.0 L -4028.0 -3660.0 L -4029.0 -3722.0 L -4037.0 -3805.0 L -4065.0 -3941.0 L -4095.0 -4034.0 L -4144.0 -4149.0 L -4185.0 -4226.0 L -4276.0 -4365.0 L -4344.0 -4463.0 L -4400.0 -4541.0 L -4453.0 -4613.0 L -4550.0 -4746.0 L -4570.6 -4774.3" class="track" data-sector="6"/>
      <path d="M -4570.6 -4774.3 L -4656.0 -4892.0 L -4742.0 -5009.0 L -4793.0 -5078.0 L -4840.0 -5144.0 L -4900.0 -5227.0 L -4946.0 -5292.0 L -4980.0 -5341.0 L -5038.0 -5428.0 L -5083.0 -5501.0 L -5125.0 -5576.0 L -5164.0 -5658.0 L -5201.0 -5761.0 L -5212.0 -5799.0 L -5223.0 -5868.0 L -5226.0 -5906.0 L -5224.0 -5952.0 L -5211.0 -6017.0 L -5194.0 -6062.0 L -5170.0 -6105.0 L -5146.0 -6137.0 L -5088.0 -6188.0 L -5045.0 -6213.0 L -5009.0 -6228.0 L -4911.0 -6249.0 L -4868.0 -6251.0 L -4780.0 -6243.0 L -4672.0 -6217.0 L -4599.0 -6190.0 L -4557.0 -6172.0 L -4493.0 -6142.0 L -4398.0 -6093.0 L -4328.0 -6055.0 L -4009.0 -5886.0 L -3908.0 -5837.0 L -3794.0 -5787.0 L -3684.0 -5740.0 L -3587.0 -5700.0 L -3520.0 -5671.0 L -3445.0 -5638.0 L -3361.0 -5598.0 L -3193.0 -5504.0 L -3085.0 -5434.0 L -2980.0 -5356.0 L -2864.0 -5257.0 L -2695.0 -5084.0 L -2633.0 -5010.0 L -2564.3 -4922.5" class="track" data-sector="7"/>
      <path d="M -2564.3 -4922.5 L -2560.0 -4917.0 L -2422.0 -4723.0 L -2391.0 -4679.0 L -2303.0 -4551.0 L -2254.0 -4479.0 L -2159.0 -4330.0 L -2130.0 -4274.0 L -2092.0 -4185.0 L -2073.0 -4118.0 L -2065.0 -4061.0 L -2064.0 -4021.0 L -2072.0 -3942.0 L -2086.0 -3886.0 L -2127.0 -3796.0 L -2162.0 -3746.0 L -2233.0 -3675.0 L -2278.0 -3638.0 L -2316.0 -3610.0 L -2379.0 -3566.0 L -2404.0 -3549.0 L -2503.0 -3473.0 L -2583.0 -3398.0 L -2607.0 -3370.3" class="track" data-sector="8"/>
      <path d="M -2607.0 -3370.3 L -2647.0 -3324.0 L -2725.0 -3211.0 L -2761.0 -3136.0 L -2787.0 -3071.0 L -2856.0 -2881.0 L -2902.0 -2756.0 L -2929.0 -2684.0 L -2969.0 -2579.0 L -3000.0 -2497.0 L -3031.0 -2421.0 L -3080.0 -2311.0 L -3147.0 -2178.0 L -3156.0 -2161.0 L -3235.0 -2007.0 L -3281.0 -1918.0 L -3325.0 -1832.0 L -3374.0 -1736.0 L -3387.9 -1708.2" class="track" data-sector="9"/>
      <path d="M -3387.9 -1708.2 L -3401.0 -1682.0 L -3454.0 -1559.0 L -3491.0 -1425.0 L -3494.0 -1403.0 L -3502.0 -1305.0 L -3502.0 -1253.0 L -3497.0 -1170.0 L -3484.0 -1059.0 L -3479.0 -1030.0 L -3459.0 -931.0 L -3434.0 -842.0 L -3416.0 -789.0 L -3388.0 -717.0 L -3342.0 -624.0 L -3298.0 -551.0 L -3216.0 -446.0 L -3164.0 -395.0 L -3082.0 -329.0 L -2970.0 -261.0 L -2864.0 -207.0 L -2732.0 -146.0 L -2657.0 -111.0 L -2600.4 -84.9" class="track" data-sector="10"/>
      <path d="M -2600.4 -84.9 L -2501.0 -39.0 L -2290.0 58.0 L -2197.0 101.0 L -2043.0 173.0 L -1929.0 226.0 L -1821.0 276.0 L -1749.0 309.0 L -1667.0 348.0 L -1536.0 409.0 L -1432.0 457.0 L -1268.0 534.0 L -1161.0 586.0 L -1070.0 632.0 L -992.0 674.0 L -824.0 766.0 L -674.0 848.0 L -572.0 903.0 L -479.0 953.0 L -260.0 1071.0 L -143.0 1134.0 L -47.0 1186.0 L 112.0 1272.0 L 246.0 1344.0 L 377.3 1411.4" class="track" data-sector="11"/>
      <path d="M 377.3 1411.4 L 392.0 1419.0 L 477.0 1460.0 L 598.0 1514.0 L 710.0 1561.0 L 781.0 1590.0 L 857.0 1621.0 L 950.0 1658.0 L 1049.0 1699.0 L 1099.0 1721.0 L 1212.0 1777.0 L 1268.0 1811.0 L 1348.0 1874.0 L 1387.0 1916.0 L 1426.0 1977.0 L 1451.0 2044.0 L 1458.0 2079.0 L 1460.0 2156.0 L 1449.0 2227.0 L 1428.0 2294.0 L 1398.0 2358.0 L 1370.0 2403.0 L 1347.0 2435.0 L 1321.0 2466.0 L 1275.0 2512.0 L 1246.0 2536.0 L 1219.0 2555.0 L 1126.0 2604.0 L 1014.0 2638.0 L 970.0 2646.0 L 897.0 2655.0 L 784.0 2658.0 L 680.0 2649.0 L 668.0 2647.0 L 562.0 2625.0 L 491.0 2604.0 L 440.0 2584.0 L 376.0 2556.0 L 306.0 2520.0 L 198.0 2454.0 L 95.0 2383.0 L 10.0 2323.0 L -5.5 2312.8" class="track" data-sector="12"/>
      <path d="M -5.5 2312.8 L -57.0 2279.0 L -131.0 2238.0 L -194.0 2208.0 L -269.0 2178.0 L -368.0 2148.0 L -478.0 2128.0 L -535.0 2124.0 L -612.0 2124.0 L -668.0 2130.0 L -740.0 2146.0 L -840.0 2191.0 L -907.0 2244.0 L -952.0 2294.0 L -979.0 2334.0 L -997.0 2368.0 L -1017.0 2413.0 L -1032.0 2459.0 L -1039.4 2495.5" class="track" data-sector="13"/>
      <path d="M -1039.4 2495.5 L -1043.0 2513.0 L -1050.0 2614.0 L -1039.0 2723.0 L -1014.0 2818.0 L -1007.0 2839.0 L -963.0 2939.0 L -897.0 3046.0 L -775.0 3189.0 L -718.0 3242.0 L -652.0 3298.0 L -614.0 3329.0 L -542.0 3386.0 L -490.0 3426.0 L -394.0 3501.0 L -254.0 3619.0 L -134.0 3722.0 L -60.0 3784.0 L -12.5 3823.3" class="track" data-sector="14"/>
      <path d="M -12.5 3823.3 L -2.0 3832.0 L 90.0 3905.0 L 163.0 3957.0 L 211.0 3990.0 L 287.0 4034.0 L 346.0 4062.0 L 442.0 4098.0 L 550.0 4125.0 L 632.0 4135.0 L 653.0 4136.0 L 742.0 4136.0 L 808.0 4131.0 L 947.0 4108.0 L 1005.0 4094.0 L 1062.0 4076.0 L 1221.0 4014.0 L 1323.0 3965.0 L 1388.0 3930.0 L 1418.0 3914.0 L 1499.0 3867.0 L 1596.0 3808.0 L 1656.0 3770.0 L 1724.0 3726.0 L 1800.0 3677.0 L 1918.0 3602.0 L 2005.0 3547.0 L 2091.0 3492.0 L 2136.2 3462.7" class="track" data-sector="15"/>
      <path d="M 2136.2 3462.7 L 2193.0 3426.0 L 2314.0 3345.0 L 2355.0 3315.0 L 2483.0 3216.0 L 2592.0 3113.0 L 2633.0 3069.0 L 2723.0 2956.0 L 2754.0 2906.0 L 2807.0 2796.0 L 2839.0 2703.0 L 2869.0 2566.0 L 2882.0 2451.0 L 2882.0 2371.0 L 2869.0 2251.0 L 2855.0 2176.0 L 2835.0 2101.0 L 2806.0 2019.0 L 2765.0 1927.0 L 2745.0 1886.0 L 2706.0 1814.0 L 2638.0 1697.0 L 2602.0 1638.0 L 2550.0 1557.0 L 2486.0 1459.0 L 2426.0 1367.0 L 2375.0 1289.0 L 2302.0 1177.0 L 2218.0 1047.0 L 2207.0 1031.0 L 2082.0 838.0 L 2010.0 727.0 L 1959.0 649.0 L 1890.0 543.0 L 1802.0 408.0 L 1736.0 308.0 L 1620.0 128.0 L 1511.9 -39.7" class="track" data-sector="16"/>
      <path d="M 1511.9 -39.7 L 1502.0 -55.0 L 1447.0 -141.0 L 1384.0 -240.0 L 1327.0 -328.0 L 1245.0 -458.0 L 1194.0 -538.0 L 1110.0 -670.0 L 1058.0 -752.0 L 946.0 -927.0 L 880.0 -1032.0 L 799.0 -1159.0 L 725.0 -1276.0 L 643.0 -1405.0 L 526.0 -1589.0 L 429.0 -1742.0 L 345.0 -1874.0 L 275.0 -1984.0 L 212.0 -2084.0 L 155.0 -2174.0 L 91.0 -2275.0 L -8.0 -2432.0 L -67.0 -2522.0 L -197.0 -2722.0 L -280.0 -2847.0 L -439.0 -3087.0 L -546.0 -3248.0 L -600.0 -3329.0 L -677.0 -3444.0 L -771.0 -3584.0 L -841.0 -3689.0 L -920.0 -3807.0 L -1015.0 -3949.0 L -1087.0 -4055.0 L -1199.0 -4222.0 L -1312.0 -4390.0 L -1393.0 -4511.0 L -1458.0 -4607.0 L -1550.0 -4744.0 L -1602.0 -4823.0 L -1783.0 -5108.0 L -1829.0 -5184.0 L -1919.0 -5338.0 L -1974.1 -5433.4" class="track" data-sector="1"/>
    </g>

    <g id="marshal-lights">
      <g class="marshal-light-marker" data-light="1">
        <rect x="1627.5" y="163.0" width="84.7" height="84.7" class="marshal-light-bg"/>
        <text x="1669.9" y="205.4" class="marshal-light-label">1</text>
      </g>
      <g class="marshal-light-marker" data-light="2">
        <rect x="-1949.7" y="-5360.5" width="84.7" height="84.7" class="marshal-light-bg"/>
        <text x="-1907.4" y="-5318.1" class="marshal-light-label">2</text>
      </g>
      <g class="marshal-light-marker" data-light="3">
        <rect x="-4560.5" y="-7018.6" width="84.7" height="84.7" class="marshal-light-bg"/>
        <text x="-4518.1" y="-6976.3" class="marshal-light-label">3</text>
      </g>
      <g class="marshal-light-marker" data-light="4">
        <rect x="-5819.1" y="-7479.9" width="84.7" height="84.7" class="marshal-light-bg"/>
        <text x="-5776.7" y="-7437.5" class="marshal-light-label">4</text>
      </g>
      <g class="marshal-light-marker" data-light="5">
        <rect x="-5896.7" y="-4097.7" width="84.7" height="84.7" class="marshal-light-bg"/>
        <text x="-5854.3" y="-4055.4" class="marshal-light-label">5</text>
      </g>
      <g class="marshal-light-marker" data-light="6">
        <rect x="-4319.4" y="-3075.3" width="84.7" height="84.7" class="marshal-light-bg"/>
        <text x="-4277.0" y="-3033.0" class="marshal-light-label">6</text>
      </g>
      <g class="marshal-light-marker" data-light="7">
        <rect x="-4638.3" y="-4851.7" width="84.7" height="84.7" class="marshal-light-bg"/>
        <text x="-4595.9" y="-4809.3" class="marshal-light-label">7</text>
      </g>
      <g class="marshal-light-marker" data-light="8">
        <rect x="-2504.1" y="-4821.3" width="84.7" height="84.7" class="marshal-light-bg"/>
        <text x="-2461.8" y="-4778.9" class="marshal-light-label">8</text>
      </g>
      <g class="marshal-light-marker" data-light="9">
        <rect x="-2784.3" y="-3218.1" width="84.7" height="84.7" class="marshal-light-bg"/>
        <text x="-2741.9" y="-3175.7" class="marshal-light-label">9</text>
      </g>
      <g class="marshal-light-marker" data-light="10">
        <rect x="-3463.1" y="-1678.5" width="84.7" height="84.7" class="marshal-light-bg"/>
        <text x="-3420.8" y="-1636.1" class="marshal-light-label">10</text>
      </g>
      <g class="marshal-light-marker" data-light="11">
        <rect x="-2675.4" y="-142.3" width="84.7" height="84.7" class="marshal-light-bg"/>
        <text x="-2633.1" y="-100.0" class="marshal-light-label">11</text>
      </g>
      <g class="marshal-light-marker" data-light="12">
        <rect x="102.1" y="1247.1" width="84.7" height="84.7" class="marshal-light-bg"/>
        <text x="144.5" y="1289.4" class="marshal-light-label">12</text>
      </g>
      <g class="marshal-light-marker" data-light="13">
        <rect x="-213.7" y="2176.4" width="84.7" height="84.7" class="marshal-light-bg"/>
        <text x="-171.3" y="2218.8" class="marshal-light-label">13</text>
      </g>
      <g class="marshal-light-marker" data-light="14">
        <rect x="-1065.8" y="2390.4" width="84.7" height="84.7" class="marshal-light-bg"/>
        <text x="-1023.4" y="2432.8" class="marshal-light-label">14</text>
      </g>
      <g class="marshal-light-marker" data-light="15">
        <rect x="-113.0" y="3732.7" width="84.7" height="84.7" class="marshal-light-bg"/>
        <text x="-70.7" y="3775.1" class="marshal-light-label">15</text>
      </g>
      <g class="marshal-light-marker" data-light="16">
        <rect x="2220.1" y="3337.1" width="84.7" height="84.7" class="marshal-light-bg"/>
        <text x="2262.5" y="3379.5" class="marshal-light-label">16</text>
      </g>
    </g>

    <g id="marshal-sectors">
      <g class="marshal-sector-marker" data-sector="1" data-length="45846.3">
        <polygon points="1511.9,-141.4 1423.8,11.1 1599.9,11.1" class="marshal-sector-bg"/>
        <text x="1511.9" y="-39.7" class="marshal-sector-label">1</text>
      </g>
      <g class="marshal-sector-marker" data-sector="2" data-length="6185.3">
        <polygon points="-1974.1,-5535.1 -2062.2,-5382.6 -1886.1,-5382.6" class="marshal-sector-bg"/>
        <text x="-1974.1" y="-5433.4" class="marshal-sector-label">2</text>
      </g>
      <g class="marshal-sector-marker" data-sector="3" data-length="9735.2">
        <polygon points="-4609.3,-7142.2 -4697.4,-6989.7 -4521.3,-6989.7" class="marshal-sector-bg"/>
        <text x="-4609.3" y="-7040.5" class="marshal-sector-label">3</text>
      </g>
      <g class="marshal-sector-marker" data-sector="4" data-length="11074.5">
        <polygon points="-5843.7,-7525.8 -5931.8,-7373.3 -5755.7,-7373.3" class="marshal-sector-bg"/>
        <text x="-5843.7" y="-7424.1" class="marshal-sector-label">4</text>
      </g>
      <g class="marshal-sector-marker" data-sector="5" data-length="14952.1">
        <polygon points="-5924.4,-4274.5 -6012.4,-4122.0 -5836.3,-4122.0" class="marshal-sector-bg"/>
        <text x="-5924.4" y="-4172.9" class="marshal-sector-label">5</text>
      </g>
      <g class="marshal-sector-marker" data-sector="6" data-length="17360.7">
        <polygon points="-4244.7,-3173.3 -4332.8,-3020.8 -4156.7,-3020.8" class="marshal-sector-bg"/>
        <text x="-4244.7" y="-3071.6" class="marshal-sector-label">6</text>
      </g>
      <g class="marshal-sector-marker" data-sector="7" data-length="19265.2">
        <polygon points="-4570.6,-4876.0 -4658.6,-4723.5 -4482.5,-4723.5" class="marshal-sector-bg"/>
        <text x="-4570.6" y="-4774.3" class="marshal-sector-label">7</text>
      </g>
      <g class="marshal-sector-marker" data-sector="8" data-length="23852.0">
        <polygon points="-2564.3,-5024.1 -2652.3,-4871.6 -2476.2,-4871.6" class="marshal-sector-bg"/>
        <text x="-2564.3" y="-4922.5" class="marshal-sector-label">8</text>
      </g>
      <g class="marshal-sector-marker" data-sector="9" data-length="25778.2">
        <polygon points="-2607.0,-3471.9 -2695.0,-3319.4 -2518.9,-3319.4" class="marshal-sector-bg"/>
        <text x="-2607.0" y="-3370.3" class="marshal-sector-label">9</text>
      </g>
      <g class="marshal-sector-marker" data-sector="10" data-length="27621.5">
        <polygon points="-3387.9,-1809.8 -3476.0,-1657.3 -3299.9,-1657.3" class="marshal-sector-bg"/>
        <text x="-3387.9" y="-1708.2" class="marshal-sector-label">10</text>
      </g>
      <g class="marshal-sector-marker" data-sector="11" data-length="29688.1">
        <polygon points="-2600.4,-186.5 -2688.4,-34.0 -2512.3,-34.0" class="marshal-sector-bg"/>
        <text x="-2600.4" y="-84.9" class="marshal-sector-label">11</text>
      </g>
      <g class="marshal-sector-marker" data-sector="12" data-length="33022.0">
        <polygon points="377.3,1309.8 289.2,1462.3 465.3,1462.3" class="marshal-sector-bg"/>
        <text x="377.3" y="1411.4" class="marshal-sector-label">12</text>
      </g>
      <g class="marshal-sector-marker" data-sector="13" data-length="36226.3">
        <polygon points="-5.5,2211.1 -93.6,2363.6 82.5,2363.6" class="marshal-sector-bg"/>
        <text x="-5.5" y="2312.8" class="marshal-sector-label">13</text>
      </g>
      <g class="marshal-sector-marker" data-sector="14" data-length="37486.4">
        <polygon points="-1039.4,2393.8 -1127.5,2546.3 -951.4,2546.3" class="marshal-sector-bg"/>
        <text x="-1039.4" y="2495.5" class="marshal-sector-label">14</text>
      </g>
      <g class="marshal-sector-marker" data-sector="15" data-length="39250.5">
        <polygon points="-12.5,3721.7 -100.5,3874.2 75.6,3874.2" class="marshal-sector-bg"/>
        <text x="-12.5" y="3823.3" class="marshal-sector-label">15</text>
      </g>
      <g class="marshal-sector-marker" data-sector="16" data-length="41655.5">
        <polygon points="2136.2,3361.1 2048.2,3513.6 2224.3,3513.6" class="marshal-sector-bg"/>
        <text x="2136.2" y="3462.7" class="marshal-sector-label">16</text>
      </g>
    </g>

    <g id="corners">
      <g class="corner-marker" data-corner="1" data-length="8118.7">
        <circle cx="-3102.5" cy="-6966.7" r="135.6" class="corner-bg"/>
        <text x="-3102.5" y="-6966.7" class="corner-label">1</text>
      </g>
      <g class="corner-marker" data-corner="2" data-length="8932.4">
        <circle cx="-3874.8" cy="-6783.7" r="135.6" class="corner-bg"/>
        <text x="-3874.8" y="-6783.7" class="corner-label">2</text>
      </g>
      <g class="corner-marker" data-corner="3" data-length="11452.6">
        <circle cx="-6195.3" cy="-7289.1" r="135.6" class="corner-bg"/>
        <text x="-6195.3" y="-7289.1" class="corner-label">3</text>
      </g>
      <g class="corner-marker" data-corner="4" data-length="17119.4">
        <circle cx="-4426.5" cy="-2915.9" r="135.6" class="corner-bg"/>
        <text x="-4426.5" y="-2915.9" class="corner-label">4</text>
      </g>
      <g class="corner-marker" data-corner="5" data-length="21486.6">
        <circle cx="-4542.3" cy="-6165.1" r="135.6" class="corner-bg"/>
        <text x="-4542.3" y="-6165.1" class="corner-label">5</text>
      </g>
      <g class="corner-marker" data-corner="6" data-length="23330.0">
        <circle cx="-2919.0" cy="-5304.0" r="135.6" class="corner-bg"/>
        <text x="-2919.0" y="-5304.0" class="corner-label">6</text>
      </g>
      <g class="corner-marker" data-corner="7" data-length="25032.9">
        <circle cx="-2085.7" cy="-3887.2" r="135.6" class="corner-bg"/>
        <text x="-2085.7" y="-3887.2" class="corner-label">7</text>
      </g>
      <g class="corner-marker" data-corner="8" data-length="25943.8">
        <circle cx="-2706.3" cy="-3238.0" r="135.6" class="corner-bg"/>
        <text x="-2706.3" y="-3238.0" class="corner-label">8</text>
      </g>
      <g class="corner-marker" data-corner="9" data-length="28615.2">
        <circle cx="-3399.6" cy="-746.9" r="135.6" class="corner-bg"/>
        <text x="-3399.6" y="-746.9" class="corner-label">9</text>
      </g>
      <g class="corner-marker" data-corner="10" data-length="34555.7">
        <circle cx="1428.4" cy="2292.8" r="135.6" class="corner-bg"/>
        <text x="1428.4" y="2292.8" class="corner-label">10</text>
      </g>
      <g class="corner-marker" data-corner="11" data-length="36046.2">
        <circle cx="142.2" cy="2415.6" r="135.6" class="corner-bg"/>
        <text x="142.2" y="2415.6" class="corner-label">11</text>
      </g>
      <g class="corner-marker" data-corner="12" data-length="37115.5">
        <circle cx="-842.7" cy="2193.1" r="135.6" class="corner-bg"/>
        <text x="-842.7" y="2193.1" class="corner-label">12</text>
      </g>
      <g class="corner-marker" data-corner="13" data-length="39884.2">
        <circle cx="538.1" cy="4122.0" r="135.6" class="corner-bg"/>
        <text x="538.1" y="4122.0" class="corner-label">13</text>
      </g>
      <g class="corner-marker" data-corner="14" data-length="42962.4">
        <circle cx="2881.0" cy="2459.7" r="135.6" class="corner-bg"/>
        <text x="2881.0" y="2459.7" class="corner-label">14</text>
      </g>
    </g>

    <g id="start-finish" data-track-x="1384.0" data-track-y="-240.0" data-lap-distance="46083.9">
      <polygon points="1871.3,52.5 1598.5,-376.4 1855.9,-540.1 2128.7,-111.2" class="checker-border"/>
      <polygon points="1871.3,52.5 1816.8,-33.3 1902.6,-87.8 1957.1,-2.0" class="checker-black"/>
      <polygon points="1957.1,-2.0 1902.6,-87.8 1988.3,-142.4 2042.9,-56.6" class="checker-white"/>
      <polygon points="2042.9,-56.6 1988.3,-142.4 2074.1,-197.0 2128.7,-111.2" class="checker-black"/>
      <polygon points="1816.8,-33.3 1762.2,-119.0 1848.0,-173.6 1902.6,-87.8" class="checker-white"/>
      <polygon points="1902.6,-87.8 1848.0,-173.6 1933.8,-228.2 1988.3,-142.4" class="checker-black"/>
      <polygon points="1988.3,-142.4 1933.8,-228.2 2019.6,-282.7 2074.1,-197.0" class="checker-white"/>
      <polygon points="1762.2,-119.0 1707.6,-204.8 1793.4,-259.4 1848.0,-173.6" class="checker-black"/>
      <polygon points="1848.0,-173.6 1793.4,-259.4 1879.2,-314.0 1933.8,-228.2" class="checker-white"/>
      <polygon points="1933.8,-228.2 1879.2,-314.0 1965.0,-368.5 2019.6,-282.7" class="checker-black"/>
      <polygon points="1707.6,-204.8 1653.1,-290.6 1738.8,-345.2 1793.4,-259.4" class="checker-white"/>
      <polygon points="1793.4,-259.4 1738.8,-345.2 1824.6,-399.8 1879.2,-314.0" class="checker-black"/>
      <polygon points="1879.2,-314.0 1824.6,-399.8 1910.4,-454.3 1965.0,-368.5" class="checker-white"/>
      <polygon points="1653.1,-290.6 1598.5,-376.4 1684.3,-431.0 1738.8,-345.2" class="checker-black"/>
      <polygon points="1738.8,-345.2 1684.3,-431.0 1770.1,-485.6 1824.6,-399.8" class="checker-white"/>
      <polygon points="1824.6,-399.8 1770.1,-485.6 1855.9,-540.1 1910.4,-454.3" class="checker-black"/>
      <polyline points="1597.3,-978.2 1363.4,-1030.2 1311.3,-796.3" class="chevron"/>
      <polyline points="1524.6,-1092.6 1290.6,-1144.6 1238.6,-910.7" class="chevron"/>
      <polyline points="1451.8,-1207.0 1217.9,-1259.0 1165.8,-1025.1" class="chevron"/>
    </g>

    <g id="car-markers"></g>

  </g>
</svg>
