<?xml version="1.0" encoding="utf-8"?>
<?xml-stylesheet type="text/css" href="../../css/tracks.css"?>
<svg xmlns="http://www.w3.org/2000/svg" viewBox="-385.4 419.5 911.5 960.0">
  <title>Hungaroring</title>

  <g id="track-root" transform="translate(0, 960.00) scale(1, -1) scale(0.082349) translate(767.50, -4536.50) rotate(40, -767.50, 4536.50)" data-scale="0.082349" data-rotation="40.0">

    <g id="track-outline">
      <path d="M -1470.9 -123.3 L -1476.0 -119.0 L -1526.0 -79.0 L -1612.0 -8.0 L -1652.0 23.0 L -1751.0 104.0 L -1780.0 128.0 L -1891.0 219.0 L -1909.0 234.0 L -2034.0 336.0 L -2040.0 341.0 L -2172.0 450.0 L -2178.0 455.0 L -2305.0 560.0 L -2323.0 575.0 L -2440.0 670.0 L -2471.0 695.0 L -2576.0 782.0 L -2620.0 818.0 L -2713.0 895.0 L -2769.0 941.0 L -2850.0 1007.0 L -2919.0 1064.0 L -2988.0 1121.0 L -3045.0 1168.0 L -3078.5 1195.7" class="track-outline" data-sector="1"/>
      <path d="M -3078.5 1195.7 L -3126.0 1235.0 L -3197.0 1293.0 L -3267.0 1350.0 L -3351.0 1419.0 L -3408.0 1466.0 L -3505.0 1546.0 L -3550.0 1583.0 L -3667.0 1679.0 L -3700.0 1706.0 L -3825.0 1809.0 L -3844.0 1824.0 L -3983.0 1937.0 L -3989.0 1942.0 L -4136.0 2058.0 L -4144.0 2064.0 L -4285.0 2174.0 L -4306.0 2190.0 L -4433.0 2291.0 L -4468.0 2318.0 L -4582.0 2409.0 L -4631.0 2447.0 L -4732.0 2526.0 L -4794.0 2574.0 L -4882.0 2643.0 L -4958.0 2702.0 L -5020.0 2750.0 L -5124.0 2830.0 L -5172.0 2867.0 L -5294.0 2962.0 L -5328.0 2989.0 L -5341.7 2999.9" class="track-outline" data-sector="2"/>
      <path d="M -5341.7 2999.9 L -5459.0 3093.0 L -5477.0 3108.0 L -5595.0 3205.0 L -5600.0 3209.0 L -5704.0 3298.0 L -5709.0 3302.0 L -5794.0 3380.0 L -5805.0 3391.0 L -5868.0 3454.0 L -5883.0 3470.0 L -5929.0 3522.0 L -5946.0 3543.0 L -5979.0 3587.0 L -5996.0 3613.0 L -6018.0 3650.0 L -6034.0 3680.0 L -6048.0 3710.0 L -6061.0 3745.0 L -6069.0 3770.0 L -6078.0 3810.0 L -6081.0 3828.0 L -6085.0 3870.0 L -6085.0 3883.0 L -6079.0 3930.0 L -6078.0 3937.0 L -6061.0 3984.0 L -6061.0 3986.0 L -6034.0 4029.0 L -6032.0 4031.0 L -5999.0 4066.0 L -5993.0 4070.0 L -5958.0 4097.0 L -5947.0 4103.0 L -5910.0 4121.0 L -5892.0 4127.0 L -5856.0 4139.0 L -5831.0 4145.0 L -5797.0 4152.0 L -5765.0 4156.0 L -5734.0 4160.0 L -5694.0 4162.0 L -5667.0 4163.0 L -5617.0 4163.0 L -5595.0 4163.0 L -5536.0 4159.0 L -5519.0 4158.0 L -5446.0 4152.0 L -5436.0 4151.0 L -5350.0 4139.0 L -5347.0 4139.0 L -5252.0 4124.0 L -5246.0 4123.0 L -5162.0 4106.0 L -5138.0 4100.0 L -5057.0 4082.0 L -5020.0 4073.0 L -4984.2 4063.6" class="track-outline" data-sector="3"/>
      <path d="M -4984.2 4063.6 L -4948.0 4054.0 L -4908.0 4042.0 L -4854.0 4026.0 L -4774.0 3999.0 L -4737.0 3986.0 L -4644.0 3950.0 L -4618.0 3940.0 L -4512.0 3894.0 L -4497.0 3887.0 L -4379.0 3829.0 L -4375.0 3827.0 L -4253.0 3758.0 L -4246.0 3754.0 L -4133.0 3681.0 L -4116.0 3669.0 L -4012.0 3598.0 L -3984.0 3577.0 L -3892.0 3509.0 L -3853.0 3479.0 L -3774.0 3415.0 L -3724.0 3374.0 L -3655.0 3317.0 L -3594.0 3266.0 L -3535.0 3216.0 L -3463.0 3153.0 L -3414.0 3111.0 L -3330.0 3038.0 L -3292.0 3005.0 L -3218.0 2940.0 L -3169.0 2897.0 L -3083.0 2822.0 L -3045.0 2789.0 L -2946.0 2703.0 L -2919.0 2679.0 L -2807.0 2583.0 L -2791.0 2570.0 L -2673.0 2473.0 L -2669.0 2470.0 L -2554.0 2383.0 L -2547.0 2378.0 L -2447.0 2312.0 L -2432.0 2302.0 L -2377.0 2271.9" class="track-outline" data-sector="4"/>
      <path d="M -2377.0 2271.9 L -2348.0 2256.0 L -2325.0 2244.0 L -2253.0 2213.0 L -2222.0 2201.0 L -2161.0 2183.0 L -2123.0 2174.0 L -2073.0 2168.0 L -2034.0 2165.0 L -1998.0 2167.0 L -1948.0 2173.0 L -1916.0 2181.0 L -1864.0 2198.0 L -1849.0 2205.0 L -1791.0 2237.0 L -1784.0 2243.0 L -1730.0 2288.0 L -1729.0 2290.0 L -1683.0 2345.0 L -1680.0 2348.0 L -1648.0 2406.0 L -1643.0 2415.0 L -1622.0 2470.0 L -1617.0 2485.0 L -1605.0 2539.0 L -1601.0 2562.0 L -1597.0 2613.0 L -1596.0 2644.0 L -1600.0 2690.0 L -1605.0 2731.0 L -1613.0 2772.0 L -1624.0 2820.0 L -1634.0 2853.0 L -1654.0 2910.0 L -1665.0 2937.0 L -1694.0 3002.0 L -1704.0 3021.0 L -1713.2 3039.0" class="track-outline" data-sector="5"/>
      <path d="M -1713.2 3039.0 L -1742.0 3095.0 L -1749.0 3107.0 L -1796.0 3192.0 L -1799.0 3196.0 L -1854.0 3289.0 L -1856.0 3293.0 L -1907.0 3383.0 L -1910.0 3387.0 L -1963.0 3494.0 L -1965.0 3499.0 L -2009.0 3608.0 L -2015.0 3626.0 L -2046.0 3729.0 L -2049.0 3742.0 L -2054.0 3769.0 L -2060.0 3802.0 L -2077.0 3899.0 L -2082.0 3955.0 L -2085.0 4030.0 L -2082.0 4096.0 L -2076.0 4162.0 L -2063.0 4242.0 L -2051.0 4295.0 L -2021.0 4385.0 L -2006.0 4425.0 L -1959.0 4525.0 L -1945.0 4554.0 L -1884.0 4665.0 L -1876.0 4682.0 L -1808.0 4805.0 L -1806.0 4810.0 L -1730.0 4936.0 L -1725.0 4942.0 L -1659.0 5052.0 L -1640.0 5081.0 L -1581.0 5182.0 L -1556.0 5226.0 L -1507.0 5317.0 L -1477.0 5371.0 L -1432.0 5454.0 L -1384.0 5541.0 L -1338.0 5626.0 L -1290.0 5711.0 L -1261.0 5766.0 L -1208.1 5860.0" class="track-outline" data-sector="6"/>
      <path d="M -1208.1 5860.0 L -1207.0 5862.0 L -1183.0 5907.0 L -1122.0 6019.0 L -1105.0 6051.0 L -1035.0 6176.0 L -1025.0 6195.0 L -949.0 6334.0 L -946.0 6340.0 L -865.0 6486.0 L -860.0 6493.0 L -783.0 6633.0 L -771.0 6653.0 L -702.0 6780.0 L -682.0 6814.0 L -618.0 6928.0 L -590.0 6976.0 L -532.0 7074.0 L -496.0 7128.0 L -444.0 7204.0 L -395.0 7273.0 L -346.0 7343.0 L -304.0 7400.0 L -245.0 7479.0 L -192.0 7547.0 L -163.7 7583.7" class="track-outline" data-sector="7"/>
      <path d="M -163.7 7583.7 L -142.0 7612.0 L -67.0 7710.0 L -48.0 7737.0 L 20.0 7839.0 L 30.0 7855.0 L 90.0 7971.0 L 93.0 7976.0 L 141.0 8099.0 L 143.0 8105.0 L 174.0 8224.0 L 177.0 8242.0 L 188.0 8356.0 L 189.0 8386.0 L 187.0 8482.0 L 182.0 8524.0 L 167.0 8616.0 L 152.0 8673.0 L 133.0 8745.0 L 121.0 8786.0 L 108.0 8827.0 L 80.0 8901.0 L 59.0 8957.0 L 24.0 9047.0 L 13.0 9077.0 L -31.0 9193.0 L -38.0 9211.0 L -86.0 9341.0 L -88.0 9347.0 L -133.0 9488.0 L -135.0 9495.0 L -169.0 9623.0 L -173.0 9641.0 L -191.0 9747.0 L -194.0 9774.0 L -195.2 9789.5" class="track-outline" data-sector="8"/>
      <path d="M -195.2 9789.5 L -201.0 9861.0 L -201.0 9896.0 L -199.0 9966.0 L -194.0 10007.0 L -185.0 10064.0 L -173.0 10110.0 L -160.0 10153.0 L -140.0 10202.0 L -126.0 10234.0 L -97.0 10284.0 L -83.0 10307.0 L -43.0 10358.0 L -31.0 10372.0 L 18.0 10421.0 L 27.0 10428.0 L 90.0 10473.0 L 93.0 10475.0 L 166.0 10512.0 L 169.0 10513.0 L 244.0 10536.0 L 248.0 10537.0 L 336.0 10554.0 L 341.0 10554.0 L 441.0 10566.0 L 456.0 10564.0 L 543.0 10546.0 L 566.0 10540.0 L 644.0 10520.0 L 677.0 10509.0 L 745.0 10483.0 L 786.0 10464.0 L 844.0 10437.0 L 894.0 10408.0 L 943.0 10379.0 L 1002.0 10339.0 L 1042.0 10312.0 L 1109.0 10260.0 L 1139.0 10236.0 L 1214.0 10172.0 L 1235.0 10154.0 L 1318.0 10077.0 L 1330.0 10066.0 L 1418.0 9976.0 L 1422.0 9973.0 L 1516.0 9875.0 L 1521.0 9869.0 L 1600.0 9784.0 L 1621.0 9760.0 L 1694.0 9681.0 L 1725.0 9646.0 L 1789.0 9576.0 L 1805.9 9556.5" class="track-outline" data-sector="9"/>
      <path d="M 1805.9 9556.5 L 1828.0 9531.0 L 1885.0 9469.0 L 1934.0 9413.0 L 1982.0 9361.0 L 2036.0 9300.0 L 2071.0 9263.0 L 2126.0 9201.0 L 2149.0 9175.0 L 2202.0 9114.0 L 2216.0 9098.0 L 2272.0 9027.0 L 2274.0 9023.0 L 2319.0 8960.0 L 2324.0 8950.0 L 2355.0 8895.0 L 2362.0 8879.0 L 2382.0 8828.0 L 2388.0 8806.0 L 2397.0 8760.0 L 2400.0 8732.0 L 2402.0 8694.0 L 2398.0 8661.0 L 2392.0 8630.0 L 2381.0 8593.0 L 2372.0 8569.0 L 2347.0 8516.0 L 2343.0 8509.0 L 2318.0 8460.0 L 2311.0 8447.0 L 2283.0 8391.0 L 2280.0 8383.0 L 2258.0 8316.0 L 2258.0 8314.0 L 2247.0 8239.0 L 2246.0 8234.0 L 2243.0 8159.0 L 2243.0 8131.0 L 2248.0 8075.0 L 2251.0 8039.0 L 2258.0 7990.0 L 2267.0 7943.0 L 2279.0 7896.0 L 2295.0 7837.0 L 2307.0 7798.0 L 2328.0 7728.0 L 2338.0 7696.0 L 2362.0 7612.0 L 2369.0 7589.0 L 2397.0 7492.0 L 2401.0 7478.0 L 2427.0 7367.0 L 2429.0 7363.0 L 2451.5 7271.4" class="track-outline" data-sector="10"/>
      <path d="M 2451.5 7271.4 L 2456.0 7253.0 L 2465.0 7213.0 L 2488.0 7133.0 L 2503.0 7085.0 L 2527.0 7024.0 L 2551.0 6973.0 L 2577.0 6927.0 L 2612.0 6874.0 L 2637.0 6842.0 L 2681.0 6789.0 L 2703.0 6767.0 L 2759.0 6716.0 L 2776.0 6704.0 L 2845.0 6662.0 L 2856.0 6657.0 L 2941.0 6624.0 L 2945.0 6623.0 L 3039.0 6601.0 L 3044.0 6600.0 L 3141.0 6589.0 L 3155.0 6587.0 L 3246.0 6581.0 L 3290.0 6577.0 L 3354.0 6573.0 L 3409.0 6566.0 L 3464.0 6559.0 L 3526.0 6546.0 L 3567.0 6536.0 L 3600.1 6523.6" class="track-outline" data-sector="11"/>
      <path d="M 3600.1 6523.6 L 3631.0 6512.0 L 3659.0 6499.0 L 3723.0 6461.0 L 3741.0 6450.0 L 3805.0 6400.0 L 3814.0 6393.0 L 3875.0 6332.0 L 3878.0 6330.0 L 3933.0 6263.0 L 3935.0 6259.0 L 3978.0 6188.0 L 3983.0 6176.0 L 4012.0 6105.0 L 4023.0 6067.0 L 4035.0 6014.0 L 4041.0 5965.0 L 4045.0 5917.0 L 4045.0 5857.0 L 4044.0 5816.0 L 4036.0 5742.0 L 4032.0 5709.0 L 4016.0 5623.0 L 4011.0 5599.0 L 3986.0 5500.0 L 3983.0 5486.0 L 3951.0 5374.0 L 3950.0 5370.0 L 3916.0 5251.0 L 3914.0 5244.0 L 3886.0 5139.0 L 3878.0 5109.0 L 3856.0 5012.0 L 3848.0 4969.0 L 3836.0 4880.0 L 3829.0 4823.0 L 3823.0 4744.0 L 3823.0 4672.0 L 3827.0 4603.0 L 3827.8 4578.7" class="track-outline" data-sector="12"/>
      <path d="M 3827.8 4578.7 L 3830.0 4516.0 L 3835.0 4460.0 L 3847.0 4363.0 L 3856.0 4320.0 L 3883.0 4206.0 L 3893.0 4175.0 L 3934.0 4053.0 L 3941.0 4036.0 L 4000.0 3906.0 L 4003.0 3902.0 L 4084.0 3773.0 L 4088.0 3766.0 L 4177.0 3649.0 L 4190.0 3631.0 L 4273.0 3525.0 L 4294.0 3495.0 L 4361.0 3396.0 L 4386.0 3353.0 L 4434.0 3264.0 L 4458.0 3209.0 L 4475.2 3166.3" class="track-outline" data-sector="13"/>
      <path d="M 4475.2 3166.3 L 4489.0 3132.0 L 4511.0 3066.0 L 4528.0 3002.0 L 4537.0 2947.0 L 4545.0 2873.0 L 4549.0 2807.0 L 4550.0 2744.0 L 4539.0 2643.0 L 4535.0 2616.0 L 4509.0 2508.0 L 4504.0 2493.0 L 4453.0 2374.0 L 4451.0 2370.0 L 4381.0 2253.0 L 4376.0 2246.0 L 4297.0 2144.0 L 4283.0 2128.0 L 4204.0 2040.0 L 4181.0 2016.0 L 4105.0 1939.0 L 4071.0 1904.0 L 4005.0 1838.0 L 3973.0 1806.0 L 3930.0 1763.0 L 3879.0 1712.0 L 3827.0 1658.0 L 3764.0 1593.0 L 3723.0 1551.0 L 3651.0 1477.0 L 3628.0 1453.0 L 3534.0 1358.0 L 3521.0 1344.0 L 3417.0 1237.0 L 3414.0 1233.0 L 3305.0 1120.0 L 3288.0 1102.3" class="track-outline" data-sector="14"/>
      <path d="M 3288.0 1102.3 L 3279.0 1093.0 L 3195.0 1007.0 L 3158.0 969.0 L 3084.0 891.0 L 3037.0 842.0 L 2973.0 774.0 L 2916.0 714.0 L 2862.0 656.0 L 2775.0 562.0 L 2751.0 536.0 L 2653.0 429.0 L 2639.0 414.0 L 2533.0 294.0 L 2530.0 290.0 L 2429.0 174.0 L 2424.0 168.0 L 2341.0 68.0 L 2329.0 54.0 L 2265.0 -22.0 L 2248.0 -40.0 L 2196.0 -99.0 L 2174.0 -120.0 L 2129.0 -162.0 L 2101.0 -184.0 L 2063.0 -214.0 L 2041.0 -228.0 L 1997.0 -255.0 L 1969.0 -268.0 L 1931.0 -284.0 L 1896.0 -293.0 L 1863.0 -300.0 L 1822.0 -302.0 L 1796.0 -301.0 L 1749.0 -292.0 L 1730.0 -287.0 L 1681.0 -269.0 L 1669.0 -263.0 L 1619.0 -233.0 L 1612.0 -229.0 L 1558.0 -188.0 L 1557.0 -187.0 L 1503.0 -138.0 L 1500.0 -135.0 L 1450.0 -83.0 L 1442.0 -74.0 L 1396.0 -21.0 L 1382.0 -5.0 L 1340.0 46.0 L 1321.0 69.0 L 1281.0 119.0 L 1255.0 150.0 L 1224.0 190.0 L 1184.0 238.0 L 1157.0 272.0 L 1107.0 330.0 L 1085.0 357.0 L 1025.0 424.0 L 1009.0 444.0 L 939.0 523.0 L 929.0 535.0 L 849.0 623.0 L 846.0 627.0 L 758.0 721.0 L 753.0 726.0 L 666.0 814.0 L 652.0 827.0 L 636.9 841.2" class="track-outline" data-sector="15"/>
      <path d="M 636.9 841.2 L 574.0 900.0 L 552.0 918.0 L 485.0 972.0 L 456.0 991.0 L 397.0 1026.0 L 360.0 1044.0 L 309.0 1065.0 L 264.0 1078.0 L 222.0 1088.0 L 171.0 1094.0 L 139.0 1096.0 L 87.0 1092.0 L 65.0 1089.0 L 10.0 1076.0 L -5.0 1072.0 L -59.0 1049.0 L -67.0 1046.0 L -119.0 1012.0 L -121.0 1011.0 L -166.0 969.0 L -168.0 966.0 L -202.0 921.0 L -206.0 913.0 L -230.0 870.0 L -235.0 857.0 L -250.0 815.0 L -254.0 796.0 L -261.0 756.0 L -263.0 730.0 L -263.0 694.0 L -259.0 661.0 L -254.0 630.0 L -243.0 591.0 L -234.0 566.0 L -207.0 510.0 L -203.0 503.0 L -163.0 443.0 L -162.0 441.0 L -111.0 380.0 L -107.0 376.0 L -69.2 338.8" class="track-outline" data-sector="16"/>
      <path d="M -69.2 338.8 L -52.0 322.0 L -42.0 313.0 L 7.0 270.0 L 29.0 251.0 L 79.0 213.0 L 110.0 189.0 L 155.0 157.0 L 195.0 126.0 L 237.0 97.0 L 289.0 60.0 L 325.0 35.0 L 387.0 -9.0 L 416.0 -30.0 L 490.0 -83.0 L 511.0 -99.0 L 608.0 -172.0 L 613.0 -176.0 L 705.0 -251.0 L 718.0 -262.0 L 797.0 -335.0 L 817.0 -356.0 L 843.0 -385.1" class="track-outline" data-sector="17"/>
      <path d="M 843.0 -385.1 L 876.0 -422.0 L 893.0 -444.0 L 924.0 -488.0 L 946.0 -522.0 L 977.0 -578.0 L 998.0 -625.0 L 1015.0 -673.0 L 1029.0 -729.0 L 1037.0 -768.0 L 1043.0 -832.0 L 1045.0 -861.0 L 1042.0 -931.0 L 1040.0 -951.0 L 1030.0 -1011.0 L 1025.0 -1038.0 L 1005.0 -1101.0 L 999.0 -1119.0 L 966.0 -1184.0 L 961.0 -1194.0 L 916.0 -1257.0 L 915.0 -1260.0 L 861.0 -1319.0 L 857.0 -1321.0 L 800.0 -1369.0 L 790.0 -1375.0 L 731.0 -1411.0 L 713.0 -1419.0 L 656.0 -1444.0 L 630.0 -1453.0 L 575.0 -1469.0 L 539.0 -1477.0 L 489.0 -1486.0 L 446.0 -1490.0 L 406.0 -1493.0 L 354.0 -1492.0 L 319.0 -1489.0 L 252.0 -1478.0 L 222.0 -1472.0 L 144.0 -1447.0 L 132.0 -1443.0 L 37.0 -1399.0 L 34.0 -1398.0 L -7.8 -1373.0" class="track-outline" data-sector="18"/>
      <path d="M -7.8 -1373.0 L -63.0 -1340.0 L -68.0 -1336.0 L -159.0 -1271.0 L -172.0 -1260.0 L -255.0 -1195.0 L -277.0 -1176.0 L -351.0 -1115.0 L -382.0 -1087.0 L -449.0 -1029.0 L -490.0 -992.0 L -549.0 -941.0 L -600.0 -894.0 L -651.0 -848.0 L -713.0 -790.0 L -755.0 -752.0 L -827.0 -685.0 L -860.0 -655.0 L -946.0 -577.0 L -970.0 -556.0 L -1064.0 -471.0 L -1078.0 -459.0 L -1182.0 -367.0 L -1187.0 -363.0 L -1311.0 -256.0 L -1317.0 -250.0 L -1388.0 -189.0 L -1390.0 -190.0 L -1402.0 -181.0 L -1470.9 -123.3" class="track-outline" data-sector="19"/>
    </g>

    <g id="track-sectors">
      <path d="M -1470.9 -123.3 L -1476.0 -119.0 L -1526.0 -79.0 L -1612.0 -8.0 L -1652.0 23.0 L -1751.0 104.0 L -1780.0 128.0 L -1891.0 219.0 L -1909.0 234.0 L -2034.0 336.0 L -2040.0 341.0 L -2172.0 450.0 L -2178.0 455.0 L -2305.0 560.0 L -2323.0 575.0 L -2440.0 670.0 L -2471.0 695.0 L -2576.0 782.0 L -2620.0 818.0 L -2713.0 895.0 L -2769.0 941.0 L -2850.0 1007.0 L -2919.0 1064.0 L -2988.0 1121.0 L -3045.0 1168.0 L -3078.5 1195.7" class="track" data-sector="1"/>
      <path d="M -3078.5 1195.7 L -3126.0 1235.0 L -3197.0 1293.0 L -3267.0 1350.0 L -3351.0 1419.0 L -3408.0 1466.0 L -3505.0 1546.0 L -3550.0 1583.0 L -3667.0 1679.0 L -3700.0 1706.0 L -3825.0 1809.0 L -3844.0 1824.0 L -3983.0 1937.0 L -3989.0 1942.0 L -4136.0 2058.0 L -4144.0 2064.0 L -4285.0 2174.0 L -4306.0 2190.0 L -4433.0 2291.0 L -4468.0 2318.0 L -4582.0 2409.0 L -4631.0 2447.0 L -4732.0 2526.0 L -4794.0 2574.0 L -4882.0 2643.0 L -4958.0 2702.0 L -5020.0 2750.0 L -5124.0 2830.0 L -5172.0 2867.0 L -5294.0 2962.0 L -5328.0 2989.0 L -5341.7 2999.9" class="track" data-sector="2"/>
      <path d="M -5341.7 2999.9 L -5459.0 3093.0 L -5477.0 3108.0 L -5595.0 3205.0 L -5600.0 3209.0 L -5704.0 3298.0 L -5709.0 3302.0 L -5794.0 3380.0 L -5805.0 3391.0 L -5868.0 3454.0 L -5883.0 3470.0 L -5929.0 3522.0 L -5946.0 3543.0 L -5979.0 3587.0 L -5996.0 3613.0 L -6018.0 3650.0 L -6034.0 3680.0 L -6048.0 3710.0 L -6061.0 3745.0 L -6069.0 3770.0 L -6078.0 3810.0 L -6081.0 3828.0 L -6085.0 3870.0 L -6085.0 3883.0 L -6079.0 3930.0 L -6078.0 3937.0 L -6061.0 3984.0 L -6061.0 3986.0 L -6034.0 4029.0 L -6032.0 4031.0 L -5999.0 4066.0 L -5993.0 4070.0 L -5958.0 4097.0 L -5947.0 4103.0 L -5910.0 4121.0 L -5892.0 4127.0 L -5856.0 4139.0 L -5831.0 4145.0 L -5797.0 4152.0 L -5765.0 4156.0 L -5734.0 4160.0 L -5694.0 4162.0 L -5667.0 4163.0 L -5617.0 4163.0 L -5595.0 4163.0 L -5536.0 4159.0 L -5519.0 4158.0 L -5446.0 4152.0 L -5436.0 4151.0 L -5350.0 4139.0 L -5347.0 4139.0 L -5252.0 4124.0 L -5246.0 4123.0 L -5162.0 4106.0 L -5138.0 4100.0 L -5057.0 4082.0 L -5020.0 4073.0 L -4984.2 4063.6" class="track" data-sector="3"/>
      <path d="M -4984.2 4063.6 L -4948.0 4054.0 L -4908.0 4042.0 L -4854.0 4026.0 L -4774.0 3999.0 L -4737.0 3986.0 L -4644.0 3950.0 L -4618.0 3940.0 L -4512.0 3894.0 L -4497.0 3887.0 L -4379.0 3829.0 L -4375.0 3827.0 L -4253.0 3758.0 L -4246.0 3754.0 L -4133.0 3681.0 L -4116.0 3669.0 L -4012.0 3598.0 L -3984.0 3577.0 L -3892.0 3509.0 L -3853.0 3479.0 L -3774.0 3415.0 L -3724.0 3374.0 L -3655.0 3317.0 L -3594.0 3266.0 L -3535.0 3216.0 L -3463.0 3153.0 L -3414.0 3111.0 L -3330.0 3038.0 L -3292.0 3005.0 L -3218.0 2940.0 L -3169.0 2897.0 L -3083.0 2822.0 L -3045.0 2789.0 L -2946.0 2703.0 L -2919.0 2679.0 L -2807.0 2583.0 L -2791.0 2570.0 L -2673.0 2473.0 L -2669.0 2470.0 L -2554.0 2383.0 L -2547.0 2378.0 L -2447.0 2312.0 L -2432.0 2302.0 L -2377.0 2271.9" class="track" data-sector="4"/>
      <path d="M -2377.0 2271.9 L -2348.0 2256.0 L -2325.0 2244.0 L -2253.0 2213.0 L -2222.0 2201.0 L -2161.0 2183.0 L -2123.0 2174.0 L -2073.0 2168.0 L -2034.0 2165.0 L -1998.0 2167.0 L -1948.0 2173.0 L -1916.0 2181.0 L -1864.0 2198.0 L -1849.0 2205.0 L -1791.0 2237.0 L -1784.0 2243.0 L -1730.0 2288.0 L -1729.0 2290.0 L -1683.0 2345.0 L -1680.0 2348.0 L -1648.0 2406.0 L -1643.0 2415.0 L -1622.0 2470.0 L -1617.0 2485.0 L -1605.0 2539.0 L -1601.0 2562.0 L -1597.0 2613.0 L -1596.0 2644.0 L -1600.0 2690.0 L -1605.0 2731.0 L -1613.0 2772.0 L -1624.0 2820.0 L -1634.0 2853.0 L -1654.0 2910.0 L -1665.0 2937.0 L -1694.0 3002.0 L -1704.0 3021.0 L -1713.2 3039.0" class="track" data-sector="5"/>
      <path d="M -1713.2 3039.0 L -1742.0 3095.0 L -1749.0 3107.0 L -1796.0 3192.0 L -1799.0 3196.0 L -1854.0 3289.0 L -1856.0 3293.0 L -1907.0 3383.0 L -1910.0 3387.0 L -1963.0 3494.0 L -1965.0 3499.0 L -2009.0 3608.0 L -2015.0 3626.0 L -2046.0 3729.0 L -2049.0 3742.0 L -2054.0 3769.0 L -2060.0 3802.0 L -2077.0 3899.0 L -2082.0 3955.0 L -2085.0 4030.0 L -2082.0 4096.0 L -2076.0 4162.0 L -2063.0 4242.0 L -2051.0 4295.0 L -2021.0 4385.0 L -2006.0 4425.0 L -1959.0 4525.0 L -1945.0 4554.0 L -1884.0 4665.0 L -1876.0 4682.0 L -1808.0 4805.0 L -1806.0 4810.0 L -1730.0 4936.0 L -1725.0 4942.0 L -1659.0 5052.0 L -1640.0 5081.0 L -1581.0 5182.0 L -1556.0 5226.0 L -1507.0 5317.0 L -1477.0 5371.0 L -1432.0 5454.0 L -1384.0 5541.0 L -1338.0 5626.0 L -1290.0 5711.0 L -1261.0 5766.0 L -1208.1 5860.0" class="track" data-sector="6"/>
      <path d="M -1208.1 5860.0 L -1207.0 5862.0 L -1183.0 5907.0 L -1122.0 6019.0 L -1105.0 6051.0 L -1035.0 6176.0 L -1025.0 6195.0 L -949.0 6334.0 L -946.0 6340.0 L -865.0 6486.0 L -860.0 6493.0 L -783.0 6633.0 L -771.0 6653.0 L -702.0 6780.0 L -682.0 6814.0 L -618.0 6928.0 L -590.0 6976.0 L -532.0 7074.0 L -496.0 7128.0 L -444.0 7204.0 L -395.0 7273.0 L -346.0 7343.0 L -304.0 7400.0 L -245.0 7479.0 L -192.0 7547.0 L -163.7 7583.7" class="track" data-sector="7"/>
      <path d="M -163.7 7583.7 L -142.0 7612.0 L -67.0 7710.0 L -48.0 7737.0 L 20.0 7839.0 L 30.0 7855.0 L 90.0 7971.0 L 93.0 7976.0 L 141.0 8099.0 L 143.0 8105.0 L 174.0 8224.0 L 177.0 8242.0 L 188.0 8356.0 L 189.0 8386.0 L 187.0 8482.0 L 182.0 8524.0 L 167.0 8616.0 L 152.0 8673.0 L 133.0 8745.0 L 121.0 8786.0 L 108.0 8827.0 L 80.0 8901.0 L 59.0 8957.0 L 24.0 9047.0 L 13.0 9077.0 L -31.0 9193.0 L -38.0 9211.0 L -86.0 9341.0 L -88.0 9347.0 L -133.0 9488.0 L -135.0 9495.0 L -169.0 9623.0 L -173.0 9641.0 L -191.0 9747.0 L -194.0 9774.0 L -195.2 9789.5" class="track" data-sector="8"/>
      <path d="M -195.2 9789.5 L -201.0 9861.0 L -201.0 9896.0 L -199.0 9966.0 L -194.0 10007.0 L -185.0 10064.0 L -173.0 10110.0 L -160.0 10153.0 L -140.0 10202.0 L -126.0 10234.0 L -97.0 10284.0 L -83.0 10307.0 L -43.0 10358.0 L -31.0 10372.0 L 18.0 10421.0 L 27.0 10428.0 L 90.0 10473.0 L 93.0 10475.0 L 166.0 10512.0 L 169.0 10513.0 L 244.0 10536.0 L 248.0 10537.0 L 336.0 10554.0 L 341.0 10554.0 L 441.0 10566.0 L 456.0 10564.0 L 543.0 10546.0 L 566.0 10540.0 L 644.0 10520.0 L 677.0 10509.0 L 745.0 10483.0 L 786.0 10464.0 L 844.0 10437.0 L 894.0 10408.0 L 943.0 10379.0 L 1002.0 10339.0 L 1042.0 10312.0 L 1109.0 10260.0 L 1139.0 10236.0 L 1214.0 10172.0 L 1235.0 10154.0 L 1318.0 10077.0 L 1330.0 10066.0 L 1418.0 9976.0 L 1422.0 9973.0 L 1516.0 9875.0 L 1521.0 9869.0 L 1600.0 9784.0 L 1621.0 9760.0 L 1694.0 9681.0 L 1725.0 9646.0 L 1789.0 9576.0 L 1805.9 9556.5" class="track" data-sector="9"/>
      <path d="M 1805.9 9556.5 L 1828.0 9531.0 L 1885.0 9469.0 L 1934.0 9413.0 L 1982.0 9361.0 L 2036.0 9300.0 L 2071.0 9263.0 L 2126.0 9201.0 L 2149.0 9175.0 L 2202.0 9114.0 L 2216.0 9098.0 L 2272.0 9027.0 L 2274.0 9023.0 L 2319.0 8960.0 L 2324.0 8950.0 L 2355.0 8895.0 L 2362.0 8879.0 L 2382.0 8828.0 L 2388.0 8806.0 L 2397.0 8760.0 L 2400.0 8732.0 L 2402.0 8694.0 L 2398.0 8661.0 L 2392.0 8630.0 L 2381.0 8593.0 L 2372.0 8569.0 L 2347.0 8516.0 L 2343.0 8509.0 L 2318.0 8460.0 L 2311.0 8447.0 L 2283.0 8391.0 L 2280.0 8383.0 L 2258.0 8316.0 L 2258.0 8314.0 L 2247.0 8239.0 L 2246.0 8234.0 L 2243.0 8159.0 L 2243.0 8131.0 L 2248.0 8075.0 L 2251.0 8039.0 L 2258.0 7990.0 L 2267.0 7943.0 L 2279.0 7896.0 L 2295.0 7837.0 L 2307.0 7798.0 L 2328.0 7728.0 L 2338.0 7696.0 L 2362.0 7612.0 L 2369.0 7589.0 L 2397.0 7492.0 L 2401.0 7478.0 L 2427.0 7367.0 L 2429.0 7363.0 L 2451.5 7271.4" class="track" data-sector="10"/>
      <path d="M 2451.5 7271.4 L 2456.0 7253.0 L 2465.0 7213.0 L 2488.0 7133.0 L 2503.0 7085.0 L 2527.0 7024.0 L 2551.0 6973.0 L 2577.0 6927.0 L 2612.0 6874.0 L 2637.0 6842.0 L 2681.0 6789.0 L 2703.0 6767.0 L 2759.0 6716.0 L 2776.0 6704.0 L 2845.0 6662.0 L 2856.0 6657.0 L 2941.0 6624.0 L 2945.0 6623.0 L 3039.0 6601.0 L 3044.0 6600.0 L 3141.0 6589.0 L 3155.0 6587.0 L 3246.0 6581.0 L 3290.0 6577.0 L 3354.0 6573.0 L 3409.0 6566.0 L 3464.0 6559.0 L 3526.0 6546.0 L 3567.0 6536.0 L 3600.1 6523.6" class="track" data-sector="11"/>
      <path d="M 3600.1 6523.6 L 3631.0 6512.0 L 3659.0 6499.0 L 3723.0 6461.0 L 3741.0 6450.0 L 3805.0 6400.0 L 3814.0 6393.0 L 3875.0 6332.0 L 3878.0 6330.0 L 3933.0 6263.0 L 3935.0 6259.0 L 3978.0 6188.0 L 3983.0 6176.0 L 4012.0 6105.0 L 4023.0 6067.0 L 4035.0 6014.0 L 4041.0 5965.0 L 4045.0 5917.0 L 4045.0 5857.0 L 4044.0 5816.0 L 4036.0 5742.0 L 4032.0 5709.0 L 4016.0 5623.0 L 4011.0 5599.0 L 3986.0 5500.0 L 3983.0 5486.0 L 3951.0 5374.0 L 3950.0 5370.0 L 3916.0 5251.0 L 3914.0 5244.0 L 3886.0 5139.0 L 3878.0 5109.0 L 3856.0 5012.0 L 3848.0 4969.0 L 3836.0 4880.0 L 3829.0 4823.0 L 3823.0 4744.0 L 3823.0 4672.0 L 3827.0 4603.0 L 3827.8 4578.7" class="track" data-sector="12"/>
      <path d="M 3827.8 4578.7 L 3830.0 4516.0 L 3835.0 4460.0 L 3847.0 4363.0 L 3856.0 4320.0 L 3883.0 4206.0 L 3893.0 4175.0 L 3934.0 4053.0 L 3941.0 4036.0 L 4000.0 3906.0 L 4003.0 3902.0 L 4084.0 3773.0 L 4088.0 3766.0 L 4177.0 3649.0 L 4190.0 3631.0 L 4273.0 3525.0 L 4294.0 3495.0 L 4361.0 3396.0 L 4386.0 3353.0 L 4434.0 3264.0 L 4458.0 3209.0 L 4475.2 3166.3" class="track" data-sector="13"/>
      <path d="M 4475.2 3166.3 L 4489.0 3132.0 L 4511.0 3066.0 L 4528.0 3002.0 L 4537.0 2947.0 L 4545.0 2873.0 L 4549.0 2807.0 L 4550.0 2744.0 L 4539.0 2643.0 L 4535.0 2616.0 L 4509.0 2508.0 L 4504.0 2493.0 L 4453.0 2374.0 L 4451.0 2370.0 L 4381.0 2253.0 L 4376.0 2246.0 L 4297.0 2144.0 L 4283.0 2128.0 L 4204.0 2040.0 L 4181.0 2016.0 L 4105.0 1939.0 L 4071.0 1904.0 L 4005.0 1838.0 L 3973.0 1806.0 L 3930.0 1763.0 L 3879.0 1712.0 L 3827.0 1658.0 L 3764.0 1593.0 L 3723.0 1551.0 L 3651.0 1477.0 L 3628.0 1453.0 L 3534.0 1358.0 L 3521.0 1344.0 L 3417.0 1237.0 L 3414.0 1233.0 L 3305.0 1120.0 L 3288.0 1102.3" class="track" data-sector="14"/>
      <path d="M 3288.0 1102.3 L 3279.0 1093.0 L 3195.0 1007.0 L 3158.0 969.0 L 3084.0 891.0 L 3037.0 842.0 L 2973.0 774.0 L 2916.0 714.0 L 2862.0 656.0 L 2775.0 562.0 L 2751.0 536.0 L 2653.0 429.0 L 2639.0 414.0 L 2533.0 294.0 L 2530.0 290.0 L 2429.0 174.0 L 2424.0 168.0 L 2341.0 68.0 L 2329.0 54.0 L 2265.0 -22.0 L 2248.0 -40.0 L 2196.0 -99.0 L 2174.0 -120.0 L 2129.0 -162.0 L 2101.0 -184.0 L 2063.0 -214.0 L 2041.0 -228.0 L 1997.0 -255.0 L 1969.0 -268.0 L 1931.0 -284.0 L 1896.0 -293.0 L 1863.0 -300.0 L 1822.0 -302.0 L 1796.0 -301.0 L 1749.0 -292.0 L 1730.0 -287.0 L 1681.0 -269.0 L 1669.0 -263.0 L 1619.0 -233.0 L 1612.0 -229.0 L 1558.0 -188.0 L 1557.0 -187.0 L 1503.0 -138.0 L 1500.0 -135.0 L 1450.0 -83.0 L 1442.0 -74.0 L 1396.0 -21.0 L 1382.0 -5.0 L 1340.0 46.0 L 1321.0 69.0 L 1281.0 119.0 L 1255.0 150.0 L 1224.0 190.0 L 1184.0 238.0 L 1157.0 272.0 L 1107.0 330.0 L 1085.0 357.0 L 1025.0 424.0 L 1009.0 444.0 L 939.0 523.0 L 929.0 535.0 L 849.0 623.0 L 846.0 627.0 L 758.0 721.0 L 753.0 726.0 L 666.0 814.0 L 652.0 827.0 L 636.9 841.2" class="track" data-sector="15"/>
      <path d="M 636.9 841.2 L 574.0 900.0 L 552.0 918.0 L 485.0 972.0 L 456.0 991.0 L 397.0 1026.0 L 360.0 1044.0 L 309.0 1065.0 L 264.0 1078.0 L 222.0 1088.0 L 171.0 1094.0 L 139.0 1096.0 L 87.0 1092.0 L 65.0 1089.0 L 10.0 1076.0 L -5.0 1072.0 L -59.0 1049.0 L -67.0 1046.0 L -119.0 1012.0 L -121.0 1011.0 L -166.0 969.0 L -168.0 966.0 L -202.0 921.0 L -206.0 913.0 L -230.0 870.0 L -235.0 857.0 L -250.0 815.0 L -254.0 796.0 L -261.0 756.0 L -263.0 730.0 L -263.0 694.0 L -259.0 661.0 L -254.0 630.0 L -243.0 591.0 L -234.0 566.0 L -207.0 510.0 L -203.0 503.0 L -163.0 443.0 L -162.0 441.0 L -111.0 380.0 L -107.0 376.0 L -69.2 338.8" class="track" data-sector="16"/>
      <path d="M -69.2 338.8 L -52.0 322.0 L -42.0 313.0 L 7.0 270.0 L 29.0 251.0 L 79.0 213.0 L 110.0 189.0 L 155.0 157.0 L 195.0 126.0 L 237.0 97.0 L 289.0 60.0 L 325.0 35.0 L 387.0 -9.0 L 416.0 -30.0 L 490.0 -83.0 L 511.0 -99.0 L 608.0 -172.0 L 613.0 -176.0 L 705.0 -251.0 L 718.0 -262.0 L 797.0 -335.0 L 817.0 -356.0 L 843.0 -385.1" class="track" data-sector="17"/>
      <path d="M 843.0 -385.1 L 876.0 -422.0 L 893.0 -444.0 L 924.0 -488.0 L 946.0 -522.0 L 977.0 -578.0 L 998.0 -625.0 L 1015.0 -673.0 L 1029.0 -729.0 L 1037.0 -768.0 L 1043.0 -832.0 L 1045.0 -861.0 L 1042.0 -931.0 L 1040.0 -951.0 L 1030.0 -1011.0 L 1025.0 -1038.0 L 1005.0 -1101.0 L 999.0 -1119.0 L 966.0 -1184.0 L 961.0 -1194.0 L 916.0 -1257.0 L 915.0 -1260.0 L 861.0 -1319.0 L 857.0 -1321.0 L 800.0 -1369.0 L 790.0 -1375.0 L 731.0 -1411.0 L 713.0 -1419.0 L 656.0 -1444.0 L 630.0 -1453.0 L 575.0 -1469.0 L 539.0 -1477.0 L 489.0 -1486.0 L 446.0 -1490.0 L 406.0 -1493.0 L 354.0 -1492.0 L 319.0 -1489.0 L 252.0 -1478.0 L 222.0 -1472.0 L 144.0 -1447.0 L 132.0 -1443.0 L 37.0 -1399.0 L 34.0 -1398.0 L -7.8 -1373.0" class="track" data-sector="18"/>
      <path d="M -7.8 -1373.0 L -63.0 -1340.0 L -68.0 -1336.0 L -159.0 -1271.0 L -172.0 -1260.0 L -255.0 -1195.0 L -277.0 -1176.0 L -351.0 -1115.0 L -382.0 -1087.0 L -449.0 -1029.0 L -490.0 -992.0 L -549.0 -941.0 L -600.0 -894.0 L -651.0 -848.0 L -713.0 -790.0 L -755.0 -752.0 L -827.0 -685.0 L -860.0 -655.0 L -946.0 -577.0 L -970.0 -556.0 L -1064.0 -471.0 L -1078.0 -459.0 L -1182.0 -367.0 L -1187.0 -363.0 L -1311.0 -256.0 L -1317.0 -250.0 L -1388.0 -189.0 L -1390.0 -190.0 L -1402.0 -181.0 L -1470.9 -123.3" class="track" data-sector="19"/>
    </g>

    <g id="marshal-lights">
      <g class="marshal-light-marker" data-light="1">
        <rect x="-1674.7" y="-13.3" width="60.7" height="60.7" class="marshal-light-bg"/>
        <text x="-1644.3" y="17.1" class="marshal-light-label">1</text>
      </g>
      <g class="marshal-light-marker" data-light="2">
        <rect x="-3174.1" y="1219.2" width="60.7" height="60.7" class="marshal-light-bg"/>
        <text x="-3143.8" y="1249.5" class="marshal-light-label">2</text>
      </g>
      <g class="marshal-light-marker" data-light="3">
        <rect x="-5393.3" y="2986.4" width="60.7" height="60.7" class="marshal-light-bg"/>
        <text x="-5362.9" y="3016.7" class="marshal-light-label">3</text>
      </g>
      <g class="marshal-light-marker" data-light="4">
        <rect x="-4972.2" y="4021.8" width="60.7" height="60.7" class="marshal-light-bg"/>
        <text x="-4941.8" y="4052.1" class="marshal-light-label">4</text>
      </g>
      <g class="marshal-light-marker" data-light="5">
        <rect x="-2579.2" y="2349.0" width="60.7" height="60.7" class="marshal-light-bg"/>
        <text x="-2548.9" y="2379.3" class="marshal-light-label">5</text>
      </g>
      <g class="marshal-light-marker" data-light="6">
        <rect x="-1728.0" y="2978.6" width="60.7" height="60.7" class="marshal-light-bg"/>
        <text x="-1697.6" y="3008.9" class="marshal-light-label">6</text>
      </g>
      <g class="marshal-light-marker" data-light="7">
        <rect x="-1261.7" y="5788.4" width="60.7" height="60.7" class="marshal-light-bg"/>
        <text x="-1231.3" y="5818.8" class="marshal-light-label">7</text>
      </g>
      <g class="marshal-light-marker" data-light="8">
        <rect x="-165.3" y="7590.9" width="60.7" height="60.7" class="marshal-light-bg"/>
        <text x="-134.9" y="7621.3" class="marshal-light-label">8</text>
      </g>
      <g class="marshal-light-marker" data-light="9">
        <rect x="-222.0" y="9722.1" width="60.7" height="60.7" class="marshal-light-bg"/>
        <text x="-191.6" y="9752.5" class="marshal-light-label">9</text>
      </g>
      <g class="marshal-light-marker" data-light="10">
        <rect x="1786.6" y="9513.4" width="60.7" height="60.7" class="marshal-light-bg"/>
        <text x="1817.0" y="9543.7" class="marshal-light-label">10</text>
      </g>
      <g class="marshal-light-marker" data-light="11">
        <rect x="2418.7" y="7250.8" width="60.7" height="60.7" class="marshal-light-bg"/>
        <text x="2449.1" y="7281.2" class="marshal-light-label">11</text>
      </g>
      <g class="marshal-light-marker" data-light="12">
        <rect x="3395.6" y="6533.5" width="60.7" height="60.7" class="marshal-light-bg"/>
        <text x="3425.9" y="6563.8" class="marshal-light-label">12</text>
      </g>
      <g class="marshal-light-marker" data-light="13">
        <rect x="3798.9" y="4507.8" width="60.7" height="60.7" class="marshal-light-bg"/>
        <text x="3829.2" y="4538.2" class="marshal-light-label">13</text>
      </g>
      <g class="marshal-light-marker" data-light="14">
        <rect x="4437.3" y="3154.8" width="60.7" height="60.7" class="marshal-light-bg"/>
        <text x="4467.6" y="3185.1" class="marshal-light-label">14</text>
      </g>
      <g class="marshal-light-marker" data-light="15">
        <rect x="3267.0" y="1081.7" width="60.7" height="60.7" class="marshal-light-bg"/>
        <text x="3297.3" y="1112.0" class="marshal-light-label">15</text>
      </g>
      <g class="marshal-light-marker" data-light="16">
        <rect x="581.8" y="833.9" width="60.7" height="60.7" class="marshal-light-bg"/>
        <text x="612.2" y="864.3" class="marshal-light-label">16</text>
      </g>
      <g class="marshal-light-marker" data-light="17">
        <rect x="-85.0" y="294.3" width="60.7" height="60.7" class="marshal-light-bg"/>
        <text x="-54.7" y="324.6" class="marshal-light-label">17</text>
      </g>
      <g class="marshal-light-marker" data-light="18">
        <rect x="801.4" y="-402.8" width="60.7" height="60.7" class="marshal-light-bg"/>
        <text x="831.7" y="-372.5" class="marshal-light-label">18</text>
      </g>
      <g class="marshal-light-marker" data-light="19">
        <rect x="36.3" y="-1443.1" width="60.7" height="60.7" class="marshal-light-bg"/>
        <text x="66.6" y="-1412.7" class="marshal-light-label">19</text>
      </g>
    </g>

    <g id="marshal-sectors">
      <g class="marshal-sector-marker" data-sector="1" data-length="104.8">
        <polygon points="-1470.9,-196.2 -1534.0,-86.9 -1407.8,-86.9" class="marshal-sector-bg"/>
        <text x="-1470.9" y="-123.3" class="marshal-sector-label">1</text>
      </g>
      <g class="marshal-sector-marker" data-sector="2" data-length="2184.4">
        <polygon points="-3078.5,1122.9 -3141.6,1232.2 -3015.4,1232.2" class="marshal-sector-bg"/>
        <text x="-3078.5" y="1195.7" class="marshal-sector-label">2</text>
      </g>
      <g class="marshal-sector-marker" data-sector="3" data-length="5079.0">
        <polygon points="-5341.7,2927.0 -5404.8,3036.3 -5278.6,3036.3" class="marshal-sector-bg"/>
        <text x="-5341.7" y="2999.9" class="marshal-sector-label">3</text>
      </g>
      <g class="marshal-sector-marker" data-sector="4" data-length="7520.4">
        <polygon points="-4984.2,3990.7 -5047.3,4100.0 -4921.1,4100.0" class="marshal-sector-bg"/>
        <text x="-4984.2" y="4063.6" class="marshal-sector-label">4</text>
      </g>
      <g class="marshal-sector-marker" data-sector="5" data-length="10712.5">
        <polygon points="-2377.0,2199.0 -2440.1,2308.3 -2313.9,2308.3" class="marshal-sector-bg"/>
        <text x="-2377.0" y="2271.9" class="marshal-sector-label">5</text>
      </g>
      <g class="marshal-sector-marker" data-sector="6" data-length="12217.2">
        <polygon points="-1713.2,2966.1 -1776.3,3075.4 -1650.1,3075.4" class="marshal-sector-bg"/>
        <text x="-1713.2" y="3039.0" class="marshal-sector-label">6</text>
      </g>
      <g class="marshal-sector-marker" data-sector="7" data-length="15338.3">
        <polygon points="-1208.1,5787.2 -1271.2,5896.5 -1145.0,5896.5" class="marshal-sector-bg"/>
        <text x="-1208.1" y="5860.0" class="marshal-sector-label">7</text>
      </g>
      <g class="marshal-sector-marker" data-sector="8" data-length="17357.0">
        <polygon points="-163.7,7510.9 -226.8,7620.2 -100.6,7620.2" class="marshal-sector-bg"/>
        <text x="-163.7" y="7583.7" class="marshal-sector-label">8</text>
      </g>
      <g class="marshal-sector-marker" data-sector="9" data-length="19713.9">
        <polygon points="-195.2,9716.6 -258.3,9825.9 -132.1,9825.9" class="marshal-sector-bg"/>
        <text x="-195.2" y="9789.5" class="marshal-sector-label">9</text>
      </g>
      <g class="marshal-sector-marker" data-sector="10" data-length="22598.3">
        <polygon points="1805.9,9483.6 1742.8,9592.9 1869.0,9592.9" class="marshal-sector-bg"/>
        <text x="1805.9" y="9556.5" class="marshal-sector-label">10</text>
      </g>
      <g class="marshal-sector-marker" data-sector="11" data-length="25147.9">
        <polygon points="2451.5,7198.5 2388.4,7307.8 2514.6,7307.8" class="marshal-sector-bg"/>
        <text x="2451.5" y="7271.4" class="marshal-sector-label">11</text>
      </g>
      <g class="marshal-sector-marker" data-sector="12" data-length="26669.6">
        <polygon points="3600.1,6450.7 3537.0,6560.0 3663.1,6560.0" class="marshal-sector-bg"/>
        <text x="3600.1" y="6523.6" class="marshal-sector-label">12</text>
      </g>
      <g class="marshal-sector-marker" data-sector="13" data-length="28830.3">
        <polygon points="3827.8,4505.9 3764.7,4615.2 3890.9,4615.2" class="marshal-sector-bg"/>
        <text x="3827.8" y="4578.7" class="marshal-sector-label">13</text>
      </g>
      <g class="marshal-sector-marker" data-sector="14" data-length="30412.9">
        <polygon points="4475.2,3093.4 4412.1,3202.7 4538.3,3202.7" class="marshal-sector-bg"/>
        <text x="4475.2" y="3166.3" class="marshal-sector-label">14</text>
      </g>
      <g class="marshal-sector-marker" data-sector="15" data-length="32959.1">
        <polygon points="3288.0,1029.4 3224.9,1138.7 3351.0,1138.7" class="marshal-sector-bg"/>
        <text x="3288.0" y="1102.3" class="marshal-sector-label">15</text>
      </g>
      <g class="marshal-sector-marker" data-sector="16" data-length="36695.6">
        <polygon points="636.9,768.3 573.8,877.6 700.0,877.6" class="marshal-sector-bg"/>
        <text x="636.9" y="841.2" class="marshal-sector-label">16</text>
      </g>
      <g class="marshal-sector-marker" data-sector="17" data-length="38322.1">
        <polygon points="-69.2,266.0 -132.3,375.3 -6.1,375.3" class="marshal-sector-bg"/>
        <text x="-69.2" y="338.8" class="marshal-sector-label">17</text>
      </g>
      <g class="marshal-sector-marker" data-sector="18" data-length="39488.7">
        <polygon points="843.0,-457.9 779.9,-348.6 906.1,-348.6" class="marshal-sector-bg"/>
        <text x="843.0" y="-385.1" class="marshal-sector-label">18</text>
      </g>
      <g class="marshal-sector-marker" data-sector="19" data-length="41460.1">
        <polygon points="-7.8,-1445.9 -70.9,-1336.6 55.3,-1336.6" class="marshal-sector-bg"/>
        <text x="-7.8" y="-1373.0" class="marshal-sector-label">19</text>
      </g>
    </g>

    <g id="corners">
      <g class="corner-marker" data-corner="1" data-length="6424.8">
        <circle cx="-6033.7" cy="4029.3" r="97.1" class="corner-bg"/>
        <text x="-6033.7" y="4029.3" class="corner-label">1</text>
      </g>
      <g class="corner-marker" data-corner="1A" data-length="8274.4">
        <circle cx="-4288.6" cy="3778.2" r="97.1" class="corner-bg"/>
        <text x="-4288.6" y="3778.2" class="corner-label">1A</text>
      </g>
      <g class="corner-marker" data-corner="2" data-length="11398.9">
        <circle cx="-1739.8" cy="2279.9" r="97.1" class="corner-bg"/>
        <text x="-1739.8" y="2279.9" class="corner-label">2</text>
      </g>
      <g class="corner-marker" data-corner="3" data-length="13204.6">
        <circle cx="-2081.1" cy="3944.5" r="97.1" class="corner-bg"/>
        <text x="-2081.1" y="3944.5" class="corner-label">3</text>
      </g>
      <g class="corner-marker" data-corner="4" data-length="17948.8">
        <circle cx="137.3" cy="8089.5" r="97.1" class="corner-bg"/>
        <text x="137.3" y="8089.5" class="corner-label">4</text>
      </g>
      <g class="corner-marker" data-corner="5" data-length="20353.0">
        <circle cx="-20.4" cy="10382.6" r="97.1" class="corner-bg"/>
        <text x="-20.4" y="10382.6" class="corner-label">5</text>
      </g>
      <g class="corner-marker" data-corner="6" data-length="23690.5">
        <circle cx="2399.3" cy="8671.9" r="97.1" class="corner-bg"/>
        <text x="2399.3" y="8671.9" class="corner-label">6</text>
      </g>
      <g class="corner-marker" data-corner="7" data-length="24120.0">
        <circle cx="2251.8" cy="8271.9" r="97.1" class="corner-bg"/>
        <text x="2251.8" y="8271.9" class="corner-label">7</text>
      </g>
      <g class="corner-marker" data-corner="8" data-length="25780.3">
        <circle cx="2747.4" cy="6726.6" r="97.1" class="corner-bg"/>
        <text x="2747.4" y="6726.6" class="corner-label">8</text>
      </g>
      <g class="corner-marker" data-corner="9" data-length="27170.0">
        <circle cx="3969.9" cy="6201.4" r="97.1" class="corner-bg"/>
        <text x="3969.9" y="6201.4" class="corner-label">9</text>
      </g>
      <g class="corner-marker" data-corner="10" data-length="29107.6">
        <circle cx="3859.8" cy="4303.8" r="97.1" class="corner-bg"/>
        <text x="3859.8" y="4303.8" class="corner-label">10</text>
      </g>
      <g class="corner-marker" data-corner="11" data-length="31085.8">
        <circle cx="4508.7" cy="2507.2" r="97.1" class="corner-bg"/>
        <text x="4508.7" y="2507.2" class="corner-label">11</text>
      </g>
      <g class="corner-marker" data-corner="12" data-length="35018.4">
        <circle cx="1823.3" cy="-301.9" r="97.1" class="corner-bg"/>
        <text x="1823.3" y="-301.9" class="corner-label">12</text>
      </g>
      <g class="corner-marker" data-corner="12A" data-length="36289.8">
        <circle cx="917.2" cy="548.0" r="97.1" class="corner-bg"/>
        <text x="917.2" y="548.0" class="corner-label">12A</text>
      </g>
      <g class="corner-marker" data-corner="13" data-length="37669.5">
        <circle cx="-202.3" cy="920.4" r="97.1" class="corner-bg"/>
        <text x="-202.3" y="920.4" class="corner-label">13</text>
      </g>
      <g class="corner-marker" data-corner="14" data-length="40567.4">
        <circle cx="828.6" cy="-1344.9" r="97.1" class="corner-bg"/>
        <text x="828.6" y="-1344.9" class="corner-label">14</text>
      </g>
    </g>

    <g id="start-finish" data-track-x="-1390.0" data-track-y="-190.0" data-lap-distance="43282.7">
      <polygon points="-1223.1,-561.5 -1505.2,-331.1 -1643.5,-500.3 -1361.4,-730.8" class="checker-border"/>
      <polygon points="-1223.1,-561.5 -1279.5,-515.4 -1325.6,-571.9 -1269.2,-618.0" class="checker-black"/>
      <polygon points="-1269.2,-618.0 -1325.6,-571.9 -1371.7,-628.3 -1315.3,-674.4" class="checker-white"/>
      <polygon points="-1315.3,-674.4 -1371.7,-628.3 -1417.8,-684.7 -1361.4,-730.8" class="checker-black"/>
      <polygon points="-1279.5,-515.4 -1336.0,-469.4 -1382.1,-525.8 -1325.6,-571.9" class="checker-white"/>
      <polygon points="-1325.6,-571.9 -1382.1,-525.8 -1428.2,-582.2 -1371.7,-628.3" class="checker-black"/>
      <polygon points="-1371.7,-628.3 -1428.2,-582.2 -1474.3,-638.6 -1417.8,-684.7" class="checker-white"/>
      <polygon points="-1336.0,-469.4 -1392.4,-423.3 -1438.5,-479.7 -1382.1,-525.8" class="checker-black"/>
      <polygon points="-1382.1,-525.8 -1438.5,-479.7 -1484.6,-536.1 -1428.2,-582.2" class="checker-white"/>
      <polygon points="-1428.2,-582.2 -1484.6,-536.1 -1530.7,-592.5 -1474.3,-638.6" class="checker-black"/>
      <polygon points="-1392.4,-423.3 -1448.8,-377.2 -1494.9,-433.6 -1438.5,-479.7" class="checker-white"/>
      <polygon points="-1438.5,-479.7 -1494.9,-433.6 -1541.0,-490.0 -1484.6,-536.1" class="checker-black"/>
      <polygon points="-1484.6,-536.1 -1541.0,-490.0 -1587.1,-546.4 -1530.7,-592.5" class="checker-white"/>
      <polygon points="-1448.8,-377.2 -1505.2,-331.1 -1551.3,-387.5 -1494.9,-433.6" class="checker-black"/>
      <polygon points="-1494.9,-433.6 -1551.3,-387.5 -1597.4,-443.9 -1541.0,-490.0" class="checker-white"/>
      <polygon points="-1541.0,-490.0 -1597.4,-443.9 -1643.5,-500.3 -1587.1,-546.4" class="checker-black"/>
      <polyline points="-1933.3,-279.3 -1950.6,-108.4 -1779.7,-91.2" class="chevron"/>
      <polyline points="-2008.6,-217.8 -2025.8,-46.9 -1854.9,-29.7" class="chevron"/>
      <polyline points="-2083.8,-156.3 -2101.0,14.5 -1930.1,31.7" class="chevron"/>
    </g>

    <g id="car-markers"></g>

  </g>
</svg>
