<?xml version="1.0" encoding="utf-8"?>
<?xml-stylesheet type="text/css" href="../../css/tracks.css"?>
<svg xmlns="http://www.w3.org/2000/svg" viewBox="-480.0 303.0 960.0 605.9">
  <title>Imola</title>

  <g id="track-root" transform="translate(0, 605.90) scale(1, -1) scale(0.044285) translate(5844.50, 5368.50)" data-scale="0.044285" data-rotation="0.0">

    <g id="track-outline">
      <path d="M -1476.6 -1602.5 L -1513.0 -1605.0 L -1690.0 -1616.0 L -1707.0 -1617.0 L -1805.0 -1622.0 L -1893.0 -1627.0 L -1936.0 -1629.0 L -1995.0 -1632.0 L -2112.0 -1639.0 L -2230.0 -1645.0 L -2258.0 -1647.0 L -2354.0 -1652.0 L -2484.0 -1660.0 L -2553.0 -1664.0 L -2684.0 -1668.0 L -2791.0 -1672.0 L -2997.0 -1678.0 L -3015.0 -1679.0 L -3124.0 -1683.0 L -3166.0 -1685.0 L -3391.0 -1693.0 L -3393.0 -1693.0 L -3542.0 -1695.0 L -3574.0 -1694.0 L -3678.0 -1692.0 L -3810.2 -1682.4" class="track-outline" data-sector="1"/>
      <path d="M -3810.2 -1682.4 L -3816.0 -1682.0 L -3905.0 -1673.0 L -4026.0 -1656.0 L -4089.0 -1645.0 L -4238.0 -1616.0 L -4314.0 -1600.0 L -4377.0 -1585.0 L -4585.0 -1537.0 L -4681.0 -1513.0 L -4780.0 -1489.0 L -4835.0 -1475.0 L -4961.0 -1445.0 L -5112.0 -1407.0 L -5175.0 -1391.0 L -5248.0 -1375.0 L -5350.0 -1351.0 L -5460.0 -1327.0 L -5685.0 -1283.0 L -5735.0 -1276.0 L -5781.0 -1270.0 L -5813.0 -1266.0 L -5983.0 -1248.0 L -6002.0 -1246.0 L -6221.0 -1234.0 L -6250.0 -1233.0 L -6379.0 -1230.0 L -6381.6 -1230.0" class="track-outline" data-sector="2"/>
      <path d="M -6381.6 -1230.0 L -6440.0 -1230.0 L -6773.0 -1230.0 L -6786.0 -1231.0 L -6886.0 -1232.0 L -6896.0 -1233.0 L -7069.0 -1238.0 L -7189.0 -1243.0 L -7242.0 -1247.0 L -7541.0 -1271.0 L -7601.0 -1276.0 L -7703.0 -1286.0 L -7714.0 -1288.0 L -7855.0 -1304.0 L -7857.0 -1304.0 L -8030.0 -1326.0 L -8066.0 -1330.0 L -8226.0 -1351.0 L -8255.0 -1355.0 L -8378.0 -1371.0 L -8490.0 -1387.0 L -8686.0 -1414.0 L -8688.0 -1414.0 L -8790.1 -1428.2" class="track-outline" data-sector="3"/>
      <path d="M -8790.1 -1428.2 L -8861.0 -1438.0 L -8909.0 -1446.0 L -8974.0 -1456.0 L -9011.0 -1461.0 L -9132.0 -1482.0 L -9146.0 -1485.0 L -9284.0 -1516.0 L -9335.0 -1528.0 L -9449.0 -1557.0 L -9480.0 -1568.0 L -9527.0 -1584.0 L -9575.0 -1599.0 L -9593.0 -1605.0 L -9666.0 -1628.0 L -9666.0 -1628.0 L -9735.0 -1649.0 L -9743.0 -1652.0 L -9864.0 -1690.0 L -9880.0 -1695.0 L -9940.0 -1714.0 L -9970.0 -1723.0 L -9998.0 -1732.0 L -10038.0 -1744.0 L -10074.0 -1755.0 L -10158.0 -1783.0 L -10196.0 -1798.0 L -10229.0 -1812.0 L -10264.0 -1838.0 L -10269.0 -1841.0 L -10273.0 -1845.0 L -10333.0 -1913.0 L -10336.0 -1917.0 L -10370.0 -1984.0 L -10385.0 -2031.0 L -10400.0 -2078.0 L -10419.0 -2141.0 L -10434.0 -2190.0 L -10434.0 -2190.0 L -10445.0 -2224.0 L -10452.0 -2243.0 L -10487.0 -2314.0 L -10494.0 -2325.0 L -10508.0 -2347.0 L -10547.0 -2397.0 L -10595.0 -2449.0 L -10632.0 -2483.0 L -10661.0 -2505.0 L -10675.0 -2515.0 L -10732.0 -2555.0 L -10765.0 -2576.0 L -10834.0 -2619.0 L -10864.0 -2637.0 L -10962.0 -2694.0 L -10962.0 -2694.0 L -10999.0 -2715.0 L -11048.0 -2743.0 L -11059.0 -2750.0 L -11092.0 -2770.0 L -11249.0 -2862.0 L -11250.0 -2862.0 L -11341.0 -2918.0 L -11362.0 -2932.0 L -11427.0 -2975.0 L -11442.0 -2986.0 L -11509.0 -3039.0 L -11557.0 -3081.0 L -11564.0 -3089.0 L -11600.6 -3133.2" class="track-outline" data-sector="4"/>
      <path d="M -11600.6 -3133.2 L -11655.0 -3199.0 L -11671.0 -3219.0 L -11717.0 -3281.0 L -11750.0 -3359.0 L -11777.0 -3420.0 L -11815.0 -3507.0 L -11834.0 -3554.0 L -11844.0 -3582.0 L -11867.0 -3644.0 L -11891.0 -3706.0 L -11906.0 -3747.0 L -11943.0 -3846.0 L -11951.0 -3868.0 L -11982.0 -3949.0 L -12020.0 -4052.0 L -12025.0 -4064.0 L -12067.0 -4177.0 L -12078.0 -4205.0 L -12128.0 -4339.0 L -12158.0 -4419.0 L -12180.0 -4478.0 L -12184.0 -4489.0 L -12242.0 -4642.0 L -12242.0 -4643.0 L -12283.0 -4750.0 L -12297.0 -4788.0 L -12343.0 -4909.0 L -12347.0 -4920.0 L -12379.0 -5006.0 L -12398.0 -5057.0 L -12430.0 -5143.0 L -12444.0 -5182.0 L -12473.0 -5257.0 L -12512.0 -5361.0 L -12521.0 -5385.0 L -12561.0 -5492.0 L -12589.0 -5566.0 L -12616.0 -5639.0 L -12633.0 -5684.0 L -12692.0 -5842.0 L -12728.0 -5935.0 L -12755.0 -6006.0 L -12764.0 -6028.0 L -12764.7 -6029.8" class="track-outline" data-sector="5"/>
      <path d="M -12764.7 -6029.8 L -12787.0 -6089.0 L -12821.0 -6176.0 L -12855.0 -6260.0 L -12875.0 -6309.0 L -12965.0 -6522.0 L -12974.0 -6543.0 L -13033.0 -6682.0 L -13078.0 -6792.0 L -13098.0 -6847.0 L -13109.0 -6878.0 L -13122.0 -6917.0 L -13160.0 -7122.0 L -13161.0 -7133.0 L -13156.0 -7291.0 L -13155.0 -7292.0 L -13141.0 -7391.0 L -13138.0 -7405.0 L -13113.0 -7530.0 L -13104.0 -7570.0 L -13093.0 -7613.0 L -13083.0 -7652.0 L -13078.0 -7676.0 L -13058.0 -7761.0 L -13049.0 -7803.0 L -13044.0 -7824.0 L -13036.0 -7865.0 L -13025.0 -7968.0 L -13024.0 -8025.0 L -13030.0 -8056.0 L -13038.0 -8083.0 L -13044.0 -8103.0 L -13059.0 -8138.0 L -13064.3 -8147.0" class="track-outline" data-sector="6"/>
      <path d="M -13064.3 -8147.0 L -13076.0 -8167.0 L -13111.0 -8216.0 L -13115.0 -8222.0 L -13155.0 -8265.0 L -13166.0 -8274.0 L -13207.0 -8310.0 L -13226.0 -8327.0 L -13240.0 -8340.0 L -13266.0 -8364.0 L -13324.0 -8415.0 L -13334.0 -8424.0 L -13387.0 -8469.0 L -13428.0 -8503.0 L -13477.0 -8545.0 L -13477.0 -8545.0 L -13505.0 -8569.0 L -13564.0 -8619.0 L -13637.0 -8681.0 L -13638.0 -8682.0 L -13695.0 -8730.0 L -13750.0 -8777.0 L -13767.0 -8791.0 L -13843.0 -8855.0 L -13875.0 -8881.0 L -13943.0 -8939.0 L -13951.0 -8946.0 L -14119.0 -9103.0 L -14127.0 -9110.0 L -14189.0 -9173.0 L -14235.0 -9218.0 L -14261.0 -9244.0 L -14311.4 -9294.0" class="track-outline" data-sector="7"/>
      <path d="M -14311.4 -9294.0 L -14389.0 -9371.0 L -14434.0 -9416.0 L -14475.0 -9457.0 L -14563.0 -9545.0 L -14563.0 -9545.0 L -14612.0 -9594.0 L -14625.0 -9608.0 L -14652.0 -9636.0 L -14682.0 -9669.0 L -14748.0 -9749.0 L -14798.0 -9814.0 L -14811.0 -9834.0 L -14815.0 -9842.0 L -14827.0 -9865.0 L -14850.0 -9915.0 L -14853.0 -9921.0 L -14867.0 -9966.0 L -14868.0 -9972.0 L -14876.0 -10022.0 L -14877.0 -10050.0 L -14872.0 -10104.0 L -14872.0 -10109.0 L -14862.0 -10152.0 L -14861.0 -10152.0 L -14842.0 -10203.0 L -14801.0 -10264.0 L -14798.0 -10269.0 L -14751.0 -10314.0 L -14729.0 -10330.0 L -14715.0 -10341.0 L -14699.0 -10350.0 L -14680.0 -10360.0 L -14613.0 -10385.0 L -14601.0 -10389.0 L -14568.0 -10395.0 L -14543.0 -10399.0 L -14502.0 -10403.0 L -14501.0 -10403.0 L -14449.0 -10403.0 L -14443.0 -10402.0 L -14390.0 -10399.0 L -14373.0 -10397.0 L -14343.0 -10394.0 L -14267.0 -10381.0 L -14254.0 -10378.0 L -14210.0 -10369.0 L -14189.0 -10364.0 L -14029.0 -10325.0 L -14020.0 -10323.0 L -13968.0 -10310.0 L -13910.0 -10294.0 L -13896.0 -10291.0 L -13830.0 -10274.0 L -13794.0 -10264.0 L -13726.0 -10247.0 L -13706.0 -10242.0 L -13625.0 -10222.0 L -13574.0 -10209.0 L -13528.0 -10199.0 L -13480.0 -10188.0 L -13367.0 -10166.0 L -13321.0 -10157.0 L -13217.0 -10140.0 L -13156.0 -10130.0 L -13092.0 -10122.0 L -13037.0 -10116.0 L -12969.0 -10108.0 L -12886.0 -10099.0 L -12802.0 -10089.0 L -12669.0 -10075.0 L -12622.0 -10070.0 L -12607.0 -10069.0 L -12443.0 -10050.0 L -12419.0 -10048.0 L -12304.0 -10035.0 L -12288.0 -10033.0 L -12081.0 -10011.0 L -12071.0 -10010.0 L -11927.0 -9993.0 L -11799.0 -9978.0 L -11755.0 -9973.0 L -11620.0 -9957.0 L -11550.0 -9949.0 L -11484.0 -9942.0 L -11426.9 -9936.4" class="track-outline" data-sector="8"/>
      <path d="M -11426.9 -9936.4 L -11412.0 -9935.0 L -11347.0 -9930.0 L -11260.0 -9924.0 L -11124.0 -9920.0 L -11051.0 -9919.0 L -10869.0 -9919.0 L -10778.0 -9920.0 L -10726.0 -9924.0 L -10712.0 -9924.0 L -10597.0 -9932.0 L -10505.0 -9939.0 L -10323.0 -9958.0 L -10253.0 -9966.0 L -10178.0 -9975.0 L -10025.0 -9992.0 L -9947.0 -10000.0 L -9850.0 -10013.0 L -9791.0 -10020.0 L -9742.0 -10025.0 L -9687.0 -10031.0 L -9593.0 -10042.0 L -9567.0 -10045.0 L -9425.0 -10059.0 L -9348.0 -10066.0 L -9338.2 -10066.4" class="track-outline" data-sector="9"/>
      <path d="M -9338.2 -10066.4 L -9254.0 -10070.0 L -9238.0 -10070.0 L -9210.0 -10070.0 L -9123.0 -10069.0 L -9075.0 -10062.0 L -9035.0 -10053.0 L -8961.0 -10036.0 L -8895.0 -10015.0 L -8850.0 -9988.0 L -8823.0 -9973.0 L -8784.0 -9947.0 L -8768.0 -9935.0 L -8708.0 -9882.0 L -8677.0 -9848.0 L -8645.0 -9809.0 L -8607.0 -9753.0 L -8606.0 -9752.0 L -8568.0 -9686.0 L -8553.0 -9658.0 L -8521.0 -9597.0 L -8516.0 -9588.0 L -8473.0 -9503.0 L -8462.0 -9482.0 L -8439.0 -9436.0 L -8400.0 -9351.0 L -8379.0 -9302.0 L -8350.0 -9233.0 L -8335.0 -9197.0 L -8311.0 -9121.0 L -8309.0 -9113.0 L -8285.0 -9018.0 L -8268.0 -8944.0 L -8252.0 -8848.0 L -8249.0 -8816.0 L -8240.0 -8705.0 L -8238.0 -8680.0 L -8237.0 -8565.0 L -8238.0 -8536.8" class="track-outline" data-sector="10"/>
      <path d="M -8238.0 -8536.8 L -8239.0 -8509.0 L -8242.0 -8447.0 L -8245.0 -8414.0 L -8255.0 -8312.0 L -8263.0 -8240.0 L -8278.0 -8134.0 L -8284.0 -8094.0 L -8295.0 -8034.0 L -8317.0 -7919.0 L -8322.0 -7896.0 L -8352.0 -7755.0 L -8355.0 -7740.0 L -8379.0 -7639.0 L -8393.0 -7575.0 L -8433.0 -7403.0 L -8449.0 -7328.0 L -8463.0 -7271.0 L -8486.0 -7168.0 L -8503.0 -7095.0 L -8522.0 -7013.0 L -8549.0 -6892.0 L -8575.0 -6781.0 L -8586.0 -6729.0 L -8593.1 -6696.7" class="track-outline" data-sector="11"/>
      <path d="M -8593.1 -6696.7 L -8602.0 -6656.0 L -8602.0 -6654.0 L -8623.0 -6554.0 L -8627.0 -6536.0 L -8642.0 -6450.0 L -8649.0 -6381.0 L -8652.0 -6355.0 L -8653.0 -6294.0 L -8651.0 -6265.0 L -8616.0 -6086.0 L -8608.0 -6058.0 L -8539.0 -5897.0 L -8522.0 -5864.0 L -8511.0 -5844.0 L -8484.0 -5792.0 L -8476.0 -5778.0 L -8438.0 -5711.0 L -8409.0 -5660.0 L -8391.0 -5630.0 L -8363.0 -5586.0 L -8341.0 -5553.0 L -8324.0 -5529.0 L -8306.0 -5504.0 L -8277.0 -5468.0 L -8258.0 -5447.0 L -8219.0 -5410.0 L -8216.0 -5407.0 L -8163.0 -5369.0 L -8157.0 -5366.0 L -8140.0 -5357.0 L -8100.0 -5342.0 L -8099.0 -5341.0 L -8026.0 -5329.0 L -8003.0 -5328.0 L -7959.0 -5330.0 L -7946.0 -5333.0 L -7869.0 -5348.0 L -7850.0 -5351.0 L -7798.0 -5364.0 L -7754.0 -5377.0 L -7752.0 -5378.0 L -7733.0 -5383.0 L -7699.0 -5392.0 L -7682.0 -5395.0 L -7603.0 -5412.0 L -7595.0 -5413.0 L -7541.0 -5423.0 L -7520.0 -5426.0 L -7464.0 -5431.0 L -7384.0 -5438.0 L -7333.0 -5441.0 L -7283.0 -5442.0 L -7264.0 -5442.0 L -7187.0 -5443.0 L -7123.0 -5443.0 L -7087.0 -5443.0 L -7025.0 -5443.0 L -7014.0 -5443.0 L -6869.0 -5441.0 L -6858.0 -5440.0 L -6786.0 -5440.0 L -6773.5 -5440.0" class="track-outline" data-sector="12"/>
      <path d="M -6773.5 -5440.0 L -6761.0 -5440.0 L -6686.0 -5439.0 L -6654.0 -5438.0 L -6568.0 -5439.0 L -6458.0 -5438.0 L -6455.0 -5437.0 L -6300.0 -5436.0 L -6287.0 -5436.0 L -6167.0 -5435.0 L -6120.0 -5435.0 L -6065.0 -5434.0 L -5995.0 -5434.0 L -5922.0 -5433.0 L -5878.0 -5433.0 L -5828.0 -5432.0 L -5783.0 -5432.0 L -5686.0 -5431.0 L -5659.0 -5430.0 L -5550.0 -5430.0 L -5411.0 -5428.0 L -5381.0 -5427.0 L -5287.0 -5425.0 L -5271.0 -5424.0 L -5131.0 -5419.0 L -5036.0 -5411.0 L -4985.0 -5407.0 L -4865.0 -5396.0 L -4822.0 -5392.0 L -4744.0 -5385.0 L -4621.0 -5374.0 L -4577.0 -5370.0 L -4469.0 -5360.0 L -4459.0 -5360.0 L -4309.0 -5348.0 L -4269.8 -5344.8" class="track-outline" data-sector="13"/>
      <path d="M -4269.8 -5344.8 L -4223.0 -5341.0 L -4085.0 -5329.0 L -4063.0 -5328.0 L -3957.0 -5319.0 L -3955.0 -5318.0 L -3790.0 -5305.0 L -3762.0 -5302.0 L -3662.0 -5295.0 L -3647.0 -5293.0 L -3599.0 -5290.0 L -3464.0 -5280.0 L -3433.0 -5278.0 L -3405.0 -5276.0 L -3381.0 -5275.0 L -3375.0 -5274.0 L -3325.0 -5273.0 L -3311.0 -5272.0 L -3273.0 -5274.0 L -3236.0 -5277.0 L -3212.0 -5283.0 L -3159.0 -5309.0 L -3151.0 -5314.0 L -3094.0 -5364.0 L -3066.0 -5391.0 L -3053.0 -5405.0 L -3052.0 -5408.0 L -3030.0 -5432.0 L -3016.0 -5446.0 L -2991.0 -5470.0 L -2989.0 -5473.0 L -2964.0 -5494.0 L -2955.0 -5502.0 L -2923.0 -5523.0 L -2922.0 -5523.0 L -2889.0 -5540.0 L -2860.0 -5549.0 L -2814.0 -5561.0 L -2792.0 -5563.0 L -2734.0 -5555.0 L -2722.0 -5552.0 L -2705.0 -5548.0 L -2683.0 -5544.0 L -2669.0 -5540.0 L -2630.0 -5529.0 L -2603.0 -5520.0 L -2566.0 -5508.0 L -2542.0 -5500.0 L -2526.0 -5494.0 L -2507.0 -5486.0 L -2472.0 -5472.0 L -2447.0 -5461.0 L -2425.0 -5452.0 L -2342.0 -5413.0 L -2341.0 -5412.0 L -2307.0 -5396.0 L -2267.0 -5376.0 L -2218.0 -5351.0 L -2201.0 -5342.0 L -2167.0 -5324.0 L -2045.0 -5260.0 L -2040.0 -5257.0 L -1999.0 -5235.0 L -1962.0 -5216.0 L -1926.0 -5197.0 L -1920.0 -5194.0 L -1853.0 -5159.0 L -1840.0 -5152.0 L -1739.0 -5100.0 L -1730.0 -5095.0 L -1656.0 -5058.0 L -1548.0 -5006.0 L -1484.0 -4976.0 L -1464.0 -4966.0 L -1447.0 -4959.0 L -1444.8 -4958.0" class="track-outline" data-sector="14"/>
      <path d="M -1444.8 -4958.0 L -1355.0 -4917.0 L -1254.0 -4871.0 L -1223.0 -4856.0 L -1129.0 -4811.0 L -1114.0 -4803.0 L -1053.0 -4771.0 L -983.0 -4732.0 L -953.0 -4714.0 L -890.0 -4676.0 L -831.0 -4639.0 L -809.0 -4624.0 L -678.0 -4537.0 L -645.0 -4514.0 L -544.0 -4442.0 L -501.0 -4410.0 L -462.0 -4381.0 L -377.0 -4317.0 L -337.0 -4287.0 L -254.0 -4222.0 L -231.0 -4204.0 L -151.0 -4138.0 L -68.0 -4067.0 L -29.0 -4032.0 L 72.0 -3937.0 L 102.0 -3906.0 L 258.0 -3748.0 L 259.0 -3746.0 L 372.0 -3624.0 L 393.0 -3601.0 L 402.7 -3590.2" class="track-outline" data-sector="15"/>
      <path d="M 402.7 -3590.2 L 499.0 -3482.0 L 508.0 -3473.0 L 547.0 -3430.0 L 616.0 -3352.0 L 702.0 -3257.0 L 712.0 -3244.0 L 810.0 -3137.0 L 820.0 -3127.0 L 904.0 -3033.0 L 948.0 -2985.0 L 989.0 -2938.0 L 1108.0 -2808.0 L 1109.0 -2806.0 L 1230.0 -2674.0 L 1313.0 -2583.0 L 1344.0 -2552.0 L 1421.0 -2474.0 L 1474.0 -2425.0 L 1506.0 -2395.0 L 1602.0 -2319.0 L 1676.0 -2265.0 L 1691.0 -2256.0 L 1801.0 -2189.0 L 1874.0 -2151.0 L 1935.0 -2123.0 L 2098.0 -2055.0 L 2123.0 -2044.0 L 2200.0 -2014.0 L 2256.0 -1991.0 L 2338.0 -1959.0 L 2399.0 -1934.0 L 2426.0 -1923.0 L 2506.5 -1890.0" class="track-outline" data-sector="16"/>
      <path d="M 2506.5 -1890.0 L 2509.0 -1889.0 L 2563.0 -1866.0 L 2611.0 -1848.0 L 2655.0 -1829.0 L 2722.0 -1802.0 L 2747.0 -1791.0 L 2845.0 -1751.0 L 2873.0 -1739.0 L 2891.0 -1731.0 L 2905.0 -1725.0 L 2967.0 -1695.0 L 2967.0 -1694.0 L 3010.0 -1670.0 L 3042.0 -1649.0 L 3065.0 -1630.0 L 3082.0 -1616.0 L 3129.0 -1561.0 L 3132.0 -1555.0 L 3154.0 -1519.0 L 3163.0 -1500.0 L 3172.0 -1475.0 L 3182.0 -1424.0 L 3188.0 -1379.0 L 3188.0 -1373.0 L 3187.0 -1320.0 L 3185.0 -1301.0 L 3182.0 -1277.0 L 3173.0 -1230.0 L 3168.0 -1208.0 L 3159.0 -1175.0 L 3143.0 -1122.0 L 3130.0 -1080.0 L 3122.0 -1056.0 L 3108.0 -1012.0 L 3102.0 -995.0 L 3097.0 -982.0 L 3077.0 -926.0 L 3067.0 -901.0 L 3058.0 -877.0 L 3042.0 -842.0 L 3005.0 -762.0 L 2974.0 -706.0 L 2967.0 -695.0 L 2949.0 -668.0 L 2903.0 -600.0 L 2871.5 -561.1" class="track-outline" data-sector="17"/>
      <path d="M 2871.5 -561.1 L 2865.0 -553.0 L 2855.0 -542.0 L 2820.0 -506.0 L 2773.0 -466.0 L 2762.0 -457.0 L 2734.0 -438.0 L 2678.0 -404.0 L 2662.0 -395.0 L 2625.0 -379.0 L 2617.0 -376.0 L 2538.0 -350.0 L 2504.0 -342.0 L 2485.0 -338.0 L 2425.0 -334.0 L 2422.0 -335.0 L 2376.0 -338.0 L 2339.0 -346.0 L 2338.0 -346.0 L 2294.0 -359.0 L 2270.0 -367.0 L 2238.0 -382.0 L 2225.0 -387.0 L 2198.0 -401.0 L 2118.0 -440.0 L 2087.0 -457.0 L 1995.0 -505.0 L 1985.0 -510.0 L 1881.0 -561.0 L 1879.0 -561.0 L 1851.0 -575.0 L 1818.0 -589.0 L 1727.0 -626.0 L 1725.0 -626.0 L 1652.0 -657.0 L 1620.0 -670.0 L 1512.0 -716.0 L 1492.0 -724.0 L 1374.0 -774.0 L 1363.4 -778.5" class="track-outline" data-sector="18"/>
      <path d="M 1363.4 -778.5 L 1334.0 -791.0 L 1228.0 -835.0 L 1206.0 -845.0 L 1128.0 -877.0 L 1049.0 -910.0 L 1042.0 -914.0 L 926.0 -962.0 L 861.0 -989.0 L 837.0 -998.0 L 719.0 -1049.0 L 706.0 -1054.0 L 616.0 -1091.0 L 607.0 -1096.0 L 470.0 -1153.0 L 456.0 -1158.0 L 377.0 -1192.0 L 263.0 -1239.0 L 176.0 -1277.0 L 80.0 -1317.0 L 19.0 -1343.0 L 5.0 -1348.0 L -91.0 -1387.0 L -93.0 -1387.0 L -318.0 -1469.0 L -319.0 -1469.0 L -423.0 -1500.0 L -507.0 -1521.0 L -557.0 -1533.0 L -625.0 -1548.0 L -706.0 -1560.0 L -843.0 -1573.0 L -917.0 -1580.0 L -1069.0 -1590.0 L -1148.0 -1589.0 L -1174.0 -1590.0 L -1349.0 -1595.0 L -1351.0 -1595.0 L -1464.0 -1603.0 L -1466.0 -1603.0 L -1469.0 -1602.0 L -1476.6 -1602.5" class="track-outline" data-sector="19"/>
    </g>

    <g id="track-sectors">
      <path d="M -1476.6 -1602.5 L -1513.0 -1605.0 L -1690.0 -1616.0 L -1707.0 -1617.0 L -1805.0 -1622.0 L -1893.0 -1627.0 L -1936.0 -1629.0 L -1995.0 -1632.0 L -2112.0 -1639.0 L -2230.0 -1645.0 L -2258.0 -1647.0 L -2354.0 -1652.0 L -2484.0 -1660.0 L -2553.0 -1664.0 L -2684.0 -1668.0 L -2791.0 -1672.0 L -2997.0 -1678.0 L -3015.0 -1679.0 L -3124.0 -1683.0 L -3166.0 -1685.0 L -3391.0 -1693.0 L -3393.0 -1693.0 L -3542.0 -1695.0 L -3574.0 -1694.0 L -3678.0 -1692.0 L -3810.2 -1682.4" class="track" data-sector="1"/>
      <path d="M -3810.2 -1682.4 L -3816.0 -1682.0 L -3905.0 -1673.0 L -4026.0 -1656.0 L -4089.0 -1645.0 L -4238.0 -1616.0 L -4314.0 -1600.0 L -4377.0 -1585.0 L -4585.0 -1537.0 L -4681.0 -1513.0 L -4780.0 -1489.0 L -4835.0 -1475.0 L -4961.0 -1445.0 L -5112.0 -1407.0 L -5175.0 -1391.0 L -5248.0 -1375.0 L -5350.0 -1351.0 L -5460.0 -1327.0 L -5685.0 -1283.0 L -5735.0 -1276.0 L -5781.0 -1270.0 L -5813.0 -1266.0 L -5983.0 -1248.0 L -6002.0 -1246.0 L -6221.0 -1234.0 L -6250.0 -1233.0 L -6379.0 -1230.0 L -6381.6 -1230.0" class="track" data-sector="2"/>
      <path d="M -6381.6 -1230.0 L -6440.0 -1230.0 L -6773.0 -1230.0 L -6786.0 -1231.0 L -6886.0 -1232.0 L -6896.0 -1233.0 L -7069.0 -1238.0 L -7189.0 -1243.0 L -7242.0 -1247.0 L -7541.0 -1271.0 L -7601.0 -1276.0 L -7703.0 -1286.0 L -7714.0 -1288.0 L -7855.0 -1304.0 L -7857.0 -1304.0 L -8030.0 -1326.0 L -8066.0 -1330.0 L -8226.0 -1351.0 L -8255.0 -1355.0 L -8378.0 -1371.0 L -8490.0 -1387.0 L -8686.0 -1414.0 L -8688.0 -1414.0 L -8790.1 -1428.2" class="track" data-sector="3"/>
      <path d="M -8790.1 -1428.2 L -8861.0 -1438.0 L -8909.0 -1446.0 L -8974.0 -1456.0 L -9011.0 -1461.0 L -9132.0 -1482.0 L -9146.0 -1485.0 L -9284.0 -1516.0 L -9335.0 -1528.0 L -9449.0 -1557.0 L -9480.0 -1568.0 L -9527.0 -1584.0 L -9575.0 -1599.0 L -9593.0 -1605.0 L -9666.0 -1628.0 L -9666.0 -1628.0 L -9735.0 -1649.0 L -9743.0 -1652.0 L -9864.0 -1690.0 L -9880.0 -1695.0 L -9940.0 -1714.0 L -9970.0 -1723.0 L -9998.0 -1732.0 L -10038.0 -1744.0 L -10074.0 -1755.0 L -10158.0 -1783.0 L -10196.0 -1798.0 L -10229.0 -1812.0 L -10264.0 -1838.0 L -10269.0 -1841.0 L -10273.0 -1845.0 L -10333.0 -1913.0 L -10336.0 -1917.0 L -10370.0 -1984.0 L -10385.0 -2031.0 L -10400.0 -2078.0 L -10419.0 -2141.0 L -10434.0 -2190.0 L -10434.0 -2190.0 L -10445.0 -2224.0 L -10452.0 -2243.0 L -10487.0 -2314.0 L -10494.0 -2325.0 L -10508.0 -2347.0 L -10547.0 -2397.0 L -10595.0 -2449.0 L -10632.0 -2483.0 L -10661.0 -2505.0 L -10675.0 -2515.0 L -10732.0 -2555.0 L -10765.0 -2576.0 L -10834.0 -2619.0 L -10864.0 -2637.0 L -10962.0 -2694.0 L -10962.0 -2694.0 L -10999.0 -2715.0 L -11048.0 -2743.0 L -11059.0 -2750.0 L -11092.0 -2770.0 L -11249.0 -2862.0 L -11250.0 -2862.0 L -11341.0 -2918.0 L -11362.0 -2932.0 L -11427.0 -2975.0 L -11442.0 -2986.0 L -11509.0 -3039.0 L -11557.0 -3081.0 L -11564.0 -3089.0 L -11600.6 -3133.2" class="track" data-sector="4"/>
      <path d="M -11600.6 -3133.2 L -11655.0 -3199.0 L -11671.0 -3219.0 L -11717.0 -3281.0 L -11750.0 -3359.0 L -11777.0 -3420.0 L -11815.0 -3507.0 L -11834.0 -3554.0 L -11844.0 -3582.0 L -11867.0 -3644.0 L -11891.0 -3706.0 L -11906.0 -3747.0 L -11943.0 -3846.0 L -11951.0 -3868.0 L -11982.0 -3949.0 L -12020.0 -4052.0 L -12025.0 -4064.0 L -12067.0 -4177.0 L -12078.0 -4205.0 L -12128.0 -4339.0 L -12158.0 -4419.0 L -12180.0 -4478.0 L -12184.0 -4489.0 L -12242.0 -4642.0 L -12242.0 -4643.0 L -12283.0 -4750.0 L -12297.0 -4788.0 L -12343.0 -4909.0 L -12347.0 -4920.0 L -12379.0 -5006.0 L -12398.0 -5057.0 L -12430.0 -5143.0 L -12444.0 -5182.0 L -12473.0 -5257.0 L -12512.0 -5361.0 L -12521.0 -5385.0 L -12561.0 -5492.0 L -12589.0 -5566.0 L -12616.0 -5639.0 L -12633.0 -5684.0 L -12692.0 -5842.0 L -12728.0 -5935.0 L -12755.0 -6006.0 L -12764.0 -6028.0 L -12764.7 -6029.8" class="track" data-sector="5"/>
      <path d="M -12764.7 -6029.8 L -12787.0 -6089.0 L -12821.0 -6176.0 L -12855.0 -6260.0 L -12875.0 -6309.0 L -12965.0 -6522.0 L -12974.0 -6543.0 L -13033.0 -6682.0 L -13078.0 -6792.0 L -13098.0 -6847.0 L -13109.0 -6878.0 L -13122.0 -6917.0 L -13160.0 -7122.0 L -13161.0 -7133.0 L -13156.0 -7291.0 L -13155.0 -7292.0 L -13141.0 -7391.0 L -13138.0 -7405.0 L -13113.0 -7530.0 L -13104.0 -7570.0 L -13093.0 -7613.0 L -13083.0 -7652.0 L -13078.0 -7676.0 L -13058.0 -7761.0 L -13049.0 -7803.0 L -13044.0 -7824.0 L -13036.0 -7865.0 L -13025.0 -7968.0 L -13024.0 -8025.0 L -13030.0 -8056.0 L -13038.0 -8083.0 L -13044.0 -8103.0 L -13059.0 -8138.0 L -13064.3 -8147.0" class="track" data-sector="6"/>
      <path d="M -13064.3 -8147.0 L -13076.0 -8167.0 L -13111.0 -8216.0 L -13115.0 -8222.0 L -13155.0 -8265.0 L -13166.0 -8274.0 L -13207.0 -8310.0 L -13226.0 -8327.0 L -13240.0 -8340.0 L -13266.0 -8364.0 L -13324.0 -8415.0 L -13334.0 -8424.0 L -13387.0 -8469.0 L -13428.0 -8503.0 L -13477.0 -8545.0 L -13477.0 -8545.0 L -13505.0 -8569.0 L -13564.0 -8619.0 L -13637.0 -8681.0 L -13638.0 -8682.0 L -13695.0 -8730.0 L -13750.0 -8777.0 L -13767.0 -8791.0 L -13843.0 -8855.0 L -13875.0 -8881.0 L -13943.0 -8939.0 L -13951.0 -8946.0 L -14119.0 -9103.0 L -14127.0 -9110.0 L -14189.0 -9173.0 L -14235.0 -9218.0 L -14261.0 -9244.0 L -14311.4 -9294.0" class="track" data-sector="7"/>
      <path d="M -14311.4 -9294.0 L -14389.0 -9371.0 L -14434.0 -9416.0 L -14475.0 -9457.0 L -14563.0 -9545.0 L -14563.0 -9545.0 L -14612.0 -9594.0 L -14625.0 -9608.0 L -14652.0 -9636.0 L -14682.0 -9669.0 L -14748.0 -9749.0 L -14798.0 -9814.0 L -14811.0 -9834.0 L -14815.0 -9842.0 L -14827.0 -9865.0 L -14850.0 -9915.0 L -14853.0 -9921.0 L -14867.0 -9966.0 L -14868.0 -9972.0 L -14876.0 -10022.0 L -14877.0 -10050.0 L -14872.0 -10104.0 L -14872.0 -10109.0 L -14862.0 -10152.0 L -14861.0 -10152.0 L -14842.0 -10203.0 L -14801.0 -10264.0 L -14798.0 -10269.0 L -14751.0 -10314.0 L -14729.0 -10330.0 L -14715.0 -10341.0 L -14699.0 -10350.0 L -14680.0 -10360.0 L -14613.0 -10385.0 L -14601.0 -10389.0 L -14568.0 -10395.0 L -14543.0 -10399.0 L -14502.0 -10403.0 L -14501.0 -10403.0 L -14449.0 -10403.0 L -14443.0 -10402.0 L -14390.0 -10399.0 L -14373.0 -10397.0 L -14343.0 -10394.0 L -14267.0 -10381.0 L -14254.0 -10378.0 L -14210.0 -10369.0 L -14189.0 -10364.0 L -14029.0 -10325.0 L -14020.0 -10323.0 L -13968.0 -10310.0 L -13910.0 -10294.0 L -13896.0 -10291.0 L -13830.0 -10274.0 L -13794.0 -10264.0 L -13726.0 -10247.0 L -13706.0 -10242.0 L -13625.0 -10222.0 L -13574.0 -10209.0 L -13528.0 -10199.0 L -13480.0 -10188.0 L -13367.0 -10166.0 L -13321.0 -10157.0 L -13217.0 -10140.0 L -13156.0 -10130.0 L -13092.0 -10122.0 L -13037.0 -10116.0 L -12969.0 -10108.0 L -12886.0 -10099.0 L -12802.0 -10089.0 L -12669.0 -10075.0 L -12622.0 -10070.0 L -12607.0 -10069.0 L -12443.0 -10050.0 L -12419.0 -10048.0 L -12304.0 -10035.0 L -12288.0 -10033.0 L -12081.0 -10011.0 L -12071.0 -10010.0 L -11927.0 -9993.0 L -11799.0 -9978.0 L -11755.0 -9973.0 L -11620.0 -9957.0 L -11550.0 -9949.0 L -11484.0 -9942.0 L -11426.9 -9936.4" class="track" data-sector="8"/>
      <path d="M -11426.9 -9936.4 L -11412.0 -9935.0 L -11347.0 -9930.0 L -11260.0 -9924.0 L -11124.0 -9920.0 L -11051.0 -9919.0 L -10869.0 -9919.0 L -10778.0 -9920.0 L -10726.0 -9924.0 L -10712.0 -9924.0 L -10597.0 -9932.0 L -10505.0 -9939.0 L -10323.0 -9958.0 L -10253.0 -9966.0 L -10178.0 -9975.0 L -10025.0 -9992.0 L -9947.0 -10000.0 L -9850.0 -10013.0 L -9791.0 -10020.0 L -9742.0 -10025.0 L -9687.0 -10031.0 L -9593.0 -10042.0 L -9567.0 -10045.0 L -9425.0 -10059.0 L -9348.0 -10066.0 L -9338.2 -10066.4" class="track" data-sector="9"/>
      <path d="M -9338.2 -10066.4 L -9254.0 -10070.0 L -9238.0 -10070.0 L -9210.0 -10070.0 L -9123.0 -10069.0 L -9075.0 -10062.0 L -9035.0 -10053.0 L -8961.0 -10036.0 L -8895.0 -10015.0 L -8850.0 -9988.0 L -8823.0 -9973.0 L -8784.0 -9947.0 L -8768.0 -9935.0 L -8708.0 -9882.0 L -8677.0 -9848.0 L -8645.0 -9809.0 L -8607.0 -9753.0 L -8606.0 -9752.0 L -8568.0 -9686.0 L -8553.0 -9658.0 L -8521.0 -9597.0 L -8516.0 -9588.0 L -8473.0 -9503.0 L -8462.0 -9482.0 L -8439.0 -9436.0 L -8400.0 -9351.0 L -8379.0 -9302.0 L -8350.0 -9233.0 L -8335.0 -9197.0 L -8311.0 -9121.0 L -8309.0 -9113.0 L -8285.0 -9018.0 L -8268.0 -8944.0 L -8252.0 -8848.0 L -8249.0 -8816.0 L -8240.0 -8705.0 L -8238.0 -8680.0 L -8237.0 -8565.0 L -8238.0 -8536.8" class="track" data-sector="10"/>
      <path d="M -8238.0 -8536.8 L -8239.0 -8509.0 L -8242.0 -8447.0 L -8245.0 -8414.0 L -8255.0 -8312.0 L -8263.0 -8240.0 L -8278.0 -8134.0 L -8284.0 -8094.0 L -8295.0 -8034.0 L -8317.0 -7919.0 L -8322.0 -7896.0 L -8352.0 -7755.0 L -8355.0 -7740.0 L -8379.0 -7639.0 L -8393.0 -7575.0 L -8433.0 -7403.0 L -8449.0 -7328.0 L -8463.0 -7271.0 L -8486.0 -7168.0 L -8503.0 -7095.0 L -8522.0 -7013.0 L -8549.0 -6892.0 L -8575.0 -6781.0 L -8586.0 -6729.0 L -8593.1 -6696.7" class="track" data-sector="11"/>
      <path d="M -8593.1 -6696.7 L -8602.0 -6656.0 L -8602.0 -6654.0 L -8623.0 -6554.0 L -8627.0 -6536.0 L -8642.0 -6450.0 L -8649.0 -6381.0 L -8652.0 -6355.0 L -8653.0 -6294.0 L -8651.0 -6265.0 L -8616.0 -6086.0 L -8608.0 -6058.0 L -8539.0 -5897.0 L -8522.0 -5864.0 L -8511.0 -5844.0 L -8484.0 -5792.0 L -8476.0 -5778.0 L -8438.0 -5711.0 L -8409.0 -5660.0 L -8391.0 -5630.0 L -8363.0 -5586.0 L -8341.0 -5553.0 L -8324.0 -5529.0 L -8306.0 -5504.0 L -8277.0 -5468.0 L -8258.0 -5447.0 L -8219.0 -5410.0 L -8216.0 -5407.0 L -8163.0 -5369.0 L -8157.0 -5366.0 L -8140.0 -5357.0 L -8100.0 -5342.0 L -8099.0 -5341.0 L -8026.0 -5329.0 L -8003.0 -5328.0 L -7959.0 -5330.0 L -7946.0 -5333.0 L -7869.0 -5348.0 L -7850.0 -5351.0 L -7798.0 -5364.0 L -7754.0 -5377.0 L -7752.0 -5378.0 L -7733.0 -5383.0 L -7699.0 -5392.0 L -7682.0 -5395.0 L -7603.0 -5412.0 L -7595.0 -5413.0 L -7541.0 -5423.0 L -7520.0 -5426.0 L -7464.0 -5431.0 L -7384.0 -5438.0 L -7333.0 -5441.0 L -7283.0 -5442.0 L -7264.0 -5442.0 L -7187.0 -5443.0 L -7123.0 -5443.0 L -7087.0 -5443.0 L -7025.0 -5443.0 L -7014.0 -5443.0 L -6869.0 -5441.0 L -6858.0 -5440.0 L -6786.0 -5440.0 L -6773.5 -5440.0" class="track" data-sector="12"/>
      <path d="M -6773.5 -5440.0 L -6761.0 -5440.0 L -6686.0 -5439.0 L -6654.0 -5438.0 L -6568.0 -5439.0 L -6458.0 -5438.0 L -6455.0 -5437.0 L -6300.0 -5436.0 L -6287.0 -5436.0 L -6167.0 -5435.0 L -6120.0 -5435.0 L -6065.0 -5434.0 L -5995.0 -5434.0 L -5922.0 -5433.0 L -5878.0 -5433.0 L -5828.0 -5432.0 L -5783.0 -5432.0 L -5686.0 -5431.0 L -5659.0 -5430.0 L -5550.0 -5430.0 L -5411.0 -5428.0 L -5381.0 -5427.0 L -5287.0 -5425.0 L -5271.0 -5424.0 L -5131.0 -5419.0 L -5036.0 -5411.0 L -4985.0 -5407.0 L -4865.0 -5396.0 L -4822.0 -5392.0 L -4744.0 -5385.0 L -4621.0 -5374.0 L -4577.0 -5370.0 L -4469.0 -5360.0 L -4459.0 -5360.0 L -4309.0 -5348.0 L -4269.8 -5344.8" class="track" data-sector="13"/>
      <path d="M -4269.8 -5344.8 L -4223.0 -5341.0 L -4085.0 -5329.0 L -4063.0 -5328.0 L -3957.0 -5319.0 L -3955.0 -5318.0 L -3790.0 -5305.0 L -3762.0 -5302.0 L -3662.0 -5295.0 L -3647.0 -5293.0 L -3599.0 -5290.0 L -3464.0 -5280.0 L -3433.0 -5278.0 L -3405.0 -5276.0 L -3381.0 -5275.0 L -3375.0 -5274.0 L -3325.0 -5273.0 L -3311.0 -5272.0 L -3273.0 -5274.0 L -3236.0 -5277.0 L -3212.0 -5283.0 L -3159.0 -5309.0 L -3151.0 -5314.0 L -3094.0 -5364.0 L -3066.0 -5391.0 L -3053.0 -5405.0 L -3052.0 -5408.0 L -3030.0 -5432.0 L -3016.0 -5446.0 L -2991.0 -5470.0 L -2989.0 -5473.0 L -2964.0 -5494.0 L -2955.0 -5502.0 L -2923.0 -5523.0 L -2922.0 -5523.0 L -2889.0 -5540.0 L -2860.0 -5549.0 L -2814.0 -5561.0 L -2792.0 -5563.0 L -2734.0 -5555.0 L -2722.0 -5552.0 L -2705.0 -5548.0 L -2683.0 -5544.0 L -2669.0 -5540.0 L -2630.0 -5529.0 L -2603.0 -5520.0 L -2566.0 -5508.0 L -2542.0 -5500.0 L -2526.0 -5494.0 L -2507.0 -5486.0 L -2472.0 -5472.0 L -2447.0 -5461.0 L -2425.0 -5452.0 L -2342.0 -5413.0 L -2341.0 -5412.0 L -2307.0 -5396.0 L -2267.0 -5376.0 L -2218.0 -5351.0 L -2201.0 -5342.0 L -2167.0 -5324.0 L -2045.0 -5260.0 L -2040.0 -5257.0 L -1999.0 -5235.0 L -1962.0 -5216.0 L -1926.0 -5197.0 L -1920.0 -5194.0 L -1853.0 -5159.0 L -1840.0 -5152.0 L -1739.0 -5100.0 L -1730.0 -5095.0 L -1656.0 -5058.0 L -1548.0 -5006.0 L -1484.0 -4976.0 L -1464.0 -4966.0 L -1447.0 -4959.0 L -1444.8 -4958.0" class="track" data-sector="14"/>
      <path d="M -1444.8 -4958.0 L -1355.0 -4917.0 L -1254.0 -4871.0 L -1223.0 -4856.0 L -1129.0 -4811.0 L -1114.0 -4803.0 L -1053.0 -4771.0 L -983.0 -4732.0 L -953.0 -4714.0 L -890.0 -4676.0 L -831.0 -4639.0 L -809.0 -4624.0 L -678.0 -4537.0 L -645.0 -4514.0 L -544.0 -4442.0 L -501.0 -4410.0 L -462.0 -4381.0 L -377.0 -4317.0 L -337.0 -4287.0 L -254.0 -4222.0 L -231.0 -4204.0 L -151.0 -4138.0 L -68.0 -4067.0 L -29.0 -4032.0 L 72.0 -3937.0 L 102.0 -3906.0 L 258.0 -3748.0 L 259.0 -3746.0 L 372.0 -3624.0 L 393.0 -3601.0 L 402.7 -3590.2" class="track" data-sector="15"/>
      <path d="M 402.7 -3590.2 L 499.0 -3482.0 L 508.0 -3473.0 L 547.0 -3430.0 L 616.0 -3352.0 L 702.0 -3257.0 L 712.0 -3244.0 L 810.0 -3137.0 L 820.0 -3127.0 L 904.0 -3033.0 L 948.0 -2985.0 L 989.0 -2938.0 L 1108.0 -2808.0 L 1109.0 -2806.0 L 1230.0 -2674.0 L 1313.0 -2583.0 L 1344.0 -2552.0 L 1421.0 -2474.0 L 1474.0 -2425.0 L 1506.0 -2395.0 L 1602.0 -2319.0 L 1676.0 -2265.0 L 1691.0 -2256.0 L 1801.0 -2189.0 L 1874.0 -2151.0 L 1935.0 -2123.0 L 2098.0 -2055.0 L 2123.0 -2044.0 L 2200.0 -2014.0 L 2256.0 -1991.0 L 2338.0 -1959.0 L 2399.0 -1934.0 L 2426.0 -1923.0 L 2506.5 -1890.0" class="track" data-sector="16"/>
      <path d="M 2506.5 -1890.0 L 2509.0 -1889.0 L 2563.0 -1866.0 L 2611.0 -1848.0 L 2655.0 -1829.0 L 2722.0 -1802.0 L 2747.0 -1791.0 L 2845.0 -1751.0 L 2873.0 -1739.0 L 2891.0 -1731.0 L 2905.0 -1725.0 L 2967.0 -1695.0 L 2967.0 -1694.0 L 3010.0 -1670.0 L 3042.0 -1649.0 L 3065.0 -1630.0 L 3082.0 -1616.0 L 3129.0 -1561.0 L 3132.0 -1555.0 L 3154.0 -1519.0 L 3163.0 -1500.0 L 3172.0 -1475.0 L 3182.0 -1424.0 L 3188.0 -1379.0 L 3188.0 -1373.0 L 3187.0 -1320.0 L 3185.0 -1301.0 L 3182.0 -1277.0 L 3173.0 -1230.0 L 3168.0 -1208.0 L 3159.0 -1175.0 L 3143.0 -1122.0 L 3130.0 -1080.0 L 3122.0 -1056.0 L 3108.0 -1012.0 L 3102.0 -995.0 L 3097.0 -982.0 L 3077.0 -926.0 L 3067.0 -901.0 L 3058.0 -877.0 L 3042.0 -842.0 L 3005.0 -762.0 L 2974.0 -706.0 L 2967.0 -695.0 L 2949.0 -668.0 L 2903.0 -600.0 L 2871.5 -561.1" class="track" data-sector="17"/>
      <path d="M 2871.5 -561.1 L 2865.0 -553.0 L 2855.0 -542.0 L 2820.0 -506.0 L 2773.0 -466.0 L 2762.0 -457.0 L 2734.0 -438.0 L 2678.0 -404.0 L 2662.0 -395.0 L 2625.0 -379.0 L 2617.0 -376.0 L 2538.0 -350.0 L 2504.0 -342.0 L 2485.0 -338.0 L 2425.0 -334.0 L 2422.0 -335.0 L 2376.0 -338.0 L 2339.0 -346.0 L 2338.0 -346.0 L 2294.0 -359.0 L 2270.0 -367.0 L 2238.0 -382.0 L 2225.0 -387.0 L 2198.0 -401.0 L 2118.0 -440.0 L 2087.0 -457.0 L 1995.0 -505.0 L 1985.0 -510.0 L 1881.0 -561.0 L 1879.0 -561.0 L 1851.0 -575.0 L 1818.0 -589.0 L 1727.0 -626.0 L 1725.0 -626.0 L 1652.0 -657.0 L 1620.0 -670.0 L 1512.0 -716.0 L 1492.0 -724.0 L 1374.0 -774.0 L 1363.4 -778.5" class="track" data-sector="18"/>
      <path d="M 1363.4 -778.5 L 1334.0 -791.0 L 1228.0 -835.0 L 1206.0 -845.0 L 1128.0 -877.0 L 1049.0 -910.0 L 1042.0 -914.0 L 926.0 -962.0 L 861.0 -989.0 L 837.0 -998.0 L 719.0 -1049.0 L 706.0 -1054.0 L 616.0 -1091.0 L 607.0 -1096.0 L 470.0 -1153.0 L 456.0 -1158.0 L 377.0 -1192.0 L 263.0 -1239.0 L 176.0 -1277.0 L 80.0 -1317.0 L 19.0 -1343.0 L 5.0 -1348.0 L -91.0 -1387.0 L -93.0 -1387.0 L -318.0 -1469.0 L -319.0 -1469.0 L -423.0 -1500.0 L -507.0 -1521.0 L -557.0 -1533.0 L -625.0 -1548.0 L -706.0 -1560.0 L -843.0 -1573.0 L -917.0 -1580.0 L -1069.0 -1590.0 L -1148.0 -1589.0 L -1174.0 -1590.0 L -1349.0 -1595.0 L -1351.0 -1595.0 L -1464.0 -1603.0 L -1466.0 -1603.0 L -1469.0 -1602.0 L -1476.6 -1602.5" class="track" data-sector="19"/>
    </g>

    <g id="marshal-lights">
      <g class="marshal-light-marker" data-light="1">
        <rect x="-1536.8" y="-1659.2" width="112.9" height="112.9" class="marshal-light-bg"/>
        <text x="-1480.4" y="-1602.8" class="marshal-light-label">1</text>
      </g>
      <g class="marshal-light-marker" data-light="2">
        <rect x="-3684.7" y="-1749.4" width="112.9" height="112.9" class="marshal-light-bg"/>
        <text x="-3628.2" y="-1693.0" class="marshal-light-label">2</text>
      </g>
      <g class="marshal-light-marker" data-light="3">
        <rect x="-6559.7" y="-1286.5" width="112.9" height="112.9" class="marshal-light-bg"/>
        <text x="-6503.2" y="-1230.0" class="marshal-light-label">3</text>
      </g>
      <g class="marshal-light-marker" data-light="4">
        <rect x="-8959.3" y="-1501.4" width="112.9" height="112.9" class="marshal-light-bg"/>
        <text x="-8902.8" y="-1445.0" class="marshal-light-label">4</text>
      </g>
      <g class="marshal-light-marker" data-light="5">
        <rect x="-11715.1" y="-3260.0" width="112.9" height="112.9" class="marshal-light-bg"/>
        <text x="-11658.6" y="-3203.6" class="marshal-light-label">5</text>
      </g>
      <g class="marshal-light-marker" data-light="6">
        <rect x="-12878.5" y="-6235.2" width="112.9" height="112.9" class="marshal-light-bg"/>
        <text x="-12822.1" y="-6178.7" class="marshal-light-label">6</text>
      </g>
      <g class="marshal-light-marker" data-light="7">
        <rect x="-13115.1" y="-8193.6" width="112.9" height="112.9" class="marshal-light-bg"/>
        <text x="-13058.6" y="-8137.1" class="marshal-light-label">7</text>
      </g>
      <g class="marshal-light-marker" data-light="8">
        <rect x="-14400.2" y="-9382.6" width="112.9" height="112.9" class="marshal-light-bg"/>
        <text x="-14343.8" y="-9326.1" class="marshal-light-label">8</text>
      </g>
      <g class="marshal-light-marker" data-light="9">
        <rect x="-11532.5" y="-9997.7" width="112.9" height="112.9" class="marshal-light-bg"/>
        <text x="-11476.1" y="-9941.2" class="marshal-light-label">9</text>
      </g>
      <g class="marshal-light-marker" data-light="10">
        <rect x="-9265.5" y="-10126.4" width="112.9" height="112.9" class="marshal-light-bg"/>
        <text x="-9209.1" y="-10070.0" class="marshal-light-label">10</text>
      </g>
      <g class="marshal-light-marker" data-light="11">
        <rect x="-8293.5" y="-8627.4" width="112.9" height="112.9" class="marshal-light-bg"/>
        <text x="-8237.1" y="-8570.9" class="marshal-light-label">11</text>
      </g>
      <g class="marshal-light-marker" data-light="12">
        <rect x="-8643.0" y="-6782.8" width="112.9" height="112.9" class="marshal-light-bg"/>
        <text x="-8586.6" y="-6726.4" class="marshal-light-label">12</text>
      </g>
      <g class="marshal-light-marker" data-light="13">
        <rect x="-6514.6" y="-5494.5" width="112.9" height="112.9" class="marshal-light-bg"/>
        <text x="-6458.2" y="-5438.0" class="marshal-light-label">13</text>
      </g>
      <g class="marshal-light-marker" data-light="14">
        <rect x="-4345.2" y="-5402.8" width="112.9" height="112.9" class="marshal-light-bg"/>
        <text x="-4288.8" y="-5346.4" class="marshal-light-label">14</text>
      </g>
      <g class="marshal-light-marker" data-light="15">
        <rect x="-1446.0" y="-4989.2" width="112.9" height="112.9" class="marshal-light-bg"/>
        <text x="-1389.5" y="-4932.8" class="marshal-light-label">15</text>
      </g>
      <g class="marshal-light-marker" data-light="16">
        <rect x="437.2" y="-3544.5" width="112.9" height="112.9" class="marshal-light-bg"/>
        <text x="493.6" y="-3488.0" class="marshal-light-label">16</text>
      </g>
      <g class="marshal-light-marker" data-light="17">
        <rect x="2552.2" y="-1905.3" width="112.9" height="112.9" class="marshal-light-bg"/>
        <text x="2608.6" y="-1848.9" class="marshal-light-label">17</text>
      </g>
      <g class="marshal-light-marker" data-light="18">
        <rect x="2918.0" y="-763.2" width="112.9" height="112.9" class="marshal-light-bg"/>
        <text x="2974.4" y="-706.8" class="marshal-light-label">18</text>
      </g>
      <g class="marshal-light-marker" data-light="19">
        <rect x="1446.9" y="-775.9" width="112.9" height="112.9" class="marshal-light-bg"/>
        <text x="1503.4" y="-719.4" class="marshal-light-label">19</text>
      </g>
    </g>

    <g id="marshal-sectors">
      <g class="marshal-sector-marker" data-sector="1" data-length="7.6">
        <polygon points="-1476.6,-1738.0 -1593.9,-1534.8 -1359.2,-1534.8" class="marshal-sector-bg"/>
        <text x="-1476.6" y="-1602.5" class="marshal-sector-label">1</text>
      </g>
      <g class="marshal-sector-marker" data-sector="2" data-length="2343.9">
        <polygon points="-3810.2,-1817.9 -3927.6,-1614.7 -3692.9,-1614.7" class="marshal-sector-bg"/>
        <text x="-3810.2" y="-1682.4" class="marshal-sector-label">2</text>
      </g>
      <g class="marshal-sector-marker" data-sector="3" data-length="4961.4">
        <polygon points="-6381.6,-1365.5 -6499.0,-1162.3 -6264.3,-1162.3" class="marshal-sector-bg"/>
        <text x="-6381.6" y="-1230.0" class="marshal-sector-label">3</text>
      </g>
      <g class="marshal-sector-marker" data-sector="4" data-length="7381.3">
        <polygon points="-8790.1,-1563.7 -8907.5,-1360.4 -8672.8,-1360.4" class="marshal-sector-bg"/>
        <text x="-8790.1" y="-1428.2" class="marshal-sector-label">4</text>
      </g>
      <g class="marshal-sector-marker" data-sector="5" data-length="10845.9">
        <polygon points="-11600.6,-3268.7 -11717.9,-3065.5 -11483.3,-3065.5" class="marshal-sector-bg"/>
        <text x="-11600.6" y="-3133.2" class="marshal-sector-label">5</text>
      </g>
      <g class="marshal-sector-marker" data-sector="6" data-length="13976.2">
        <polygon points="-12764.7,-6165.3 -12882.0,-5962.1 -12647.4,-5962.1" class="marshal-sector-bg"/>
        <text x="-12764.7" y="-6029.8" class="marshal-sector-label">6</text>
      </g>
      <g class="marshal-sector-marker" data-sector="7" data-length="16187.2">
        <polygon points="-13064.3,-8282.5 -13181.6,-8079.3 -12946.9,-8079.3" class="marshal-sector-bg"/>
        <text x="-13064.3" y="-8147.0" class="marshal-sector-label">7</text>
      </g>
      <g class="marshal-sector-marker" data-sector="8" data-length="17885.3">
        <polygon points="-14311.4,-9429.5 -14428.8,-9226.3 -14194.1,-9226.3" class="marshal-sector-bg"/>
        <text x="-14311.4" y="-9294.0" class="marshal-sector-label">8</text>
      </g>
      <g class="marshal-sector-marker" data-sector="9" data-length="22539.0">
        <polygon points="-11426.9,-10071.9 -11544.2,-9868.7 -11309.6,-9868.7" class="marshal-sector-bg"/>
        <text x="-11426.9" y="-9936.4" class="marshal-sector-label">9</text>
      </g>
      <g class="marshal-sector-marker" data-sector="10" data-length="24636.0">
        <polygon points="-9338.2,-10201.9 -9455.5,-9998.7 -9220.8,-9998.7" class="marshal-sector-bg"/>
        <text x="-9338.2" y="-10066.4" class="marshal-sector-label">10</text>
      </g>
      <g class="marshal-sector-marker" data-sector="11" data-length="26771.0">
        <polygon points="-8238.0,-8672.2 -8355.3,-8469.0 -8120.7,-8469.0" class="marshal-sector-bg"/>
        <text x="-8238.0" y="-8536.8" class="marshal-sector-label">11</text>
      </g>
      <g class="marshal-sector-marker" data-sector="12" data-length="28647.6">
        <polygon points="-8593.1,-6832.2 -8710.4,-6628.9 -8475.7,-6628.9" class="marshal-sector-bg"/>
        <text x="-8593.1" y="-6696.7" class="marshal-sector-label">12</text>
      </g>
      <g class="marshal-sector-marker" data-sector="13" data-length="31534.8">
        <polygon points="-6773.5,-5575.5 -6890.8,-5372.3 -6656.1,-5372.3" class="marshal-sector-bg"/>
        <text x="-6773.5" y="-5440.0" class="marshal-sector-label">13</text>
      </g>
      <g class="marshal-sector-marker" data-sector="14" data-length="34042.1">
        <polygon points="-4269.8,-5480.3 -4387.2,-5277.1 -4152.5,-5277.1" class="marshal-sector-bg"/>
        <text x="-4269.8" y="-5344.8" class="marshal-sector-label">14</text>
      </g>
      <g class="marshal-sector-marker" data-sector="15" data-length="37104.0">
        <polygon points="-1444.8,-5093.5 -1562.2,-4890.3 -1327.5,-4890.3" class="marshal-sector-bg"/>
        <text x="-1444.8" y="-4958.0" class="marshal-sector-label">15</text>
      </g>
      <g class="marshal-sector-marker" data-sector="16" data-length="39421.3">
        <polygon points="402.7,-3725.6 285.3,-3522.4 520.0,-3522.4" class="marshal-sector-bg"/>
        <text x="402.7" y="-3590.2" class="marshal-sector-label">16</text>
      </g>
      <g class="marshal-sector-marker" data-sector="17" data-length="42175.6">
        <polygon points="2506.5,-2025.5 2389.1,-1822.3 2623.8,-1822.3" class="marshal-sector-bg"/>
        <text x="2506.5" y="-1890.0" class="marshal-sector-label">17</text>
      </g>
      <g class="marshal-sector-marker" data-sector="18" data-length="43972.4">
        <polygon points="2871.5,-696.5 2754.2,-493.3 2988.8,-493.3" class="marshal-sector-bg"/>
        <text x="2871.5" y="-561.1" class="marshal-sector-label">18</text>
      </g>
      <g class="marshal-sector-marker" data-sector="19" data-length="45644.0">
        <polygon points="1363.4,-914.0 1246.1,-710.8 1480.7,-710.8" class="marshal-sector-bg"/>
        <text x="1363.4" y="-778.5" class="marshal-sector-label">19</text>
      </g>
    </g>

    <g id="corners">
      <g class="corner-marker" data-corner="1" data-length="2537.7">
        <circle cx="-4002.5" cy="-1659.3" r="180.7" class="corner-bg"/>
        <text x="-4002.5" y="-1659.3" class="corner-label">1</text>
      </g>
      <g class="corner-marker" data-corner="2" data-length="8836.3">
        <circle cx="-10194.2" cy="-1797.3" r="180.7" class="corner-bg"/>
        <text x="-10194.2" y="-1797.3" class="corner-label">2</text>
      </g>
      <g class="corner-marker" data-corner="3" data-length="9451.7">
        <circle cx="-10487.4" cy="-2314.7" r="180.7" class="corner-bg"/>
        <text x="-10487.4" y="-2314.7" class="corner-label">3</text>
      </g>
      <g class="corner-marker" data-corner="4" data-length="10864.9">
        <circle cx="-11612.7" cy="-3147.9" r="180.7" class="corner-bg"/>
        <text x="-11612.7" y="-3147.9" class="corner-label">4</text>
      </g>
      <g class="corner-marker" data-corner="5" data-length="15172.9">
        <circle cx="-13160.4" cy="-7153.5" r="180.7" class="corner-bg"/>
        <text x="-13160.4" y="-7153.5" class="corner-label">5</text>
      </g>
      <g class="corner-marker" data-corner="6" data-length="16137.8">
        <circle cx="-13043.8" cy="-8102.2" r="180.7" class="corner-bg"/>
        <text x="-13043.8" y="-8102.2" class="corner-label">6</text>
      </g>
      <g class="corner-marker" data-corner="7" data-length="18911.0">
        <circle cx="-14871.7" cy="-10110.1" r="180.7" class="corner-bg"/>
        <text x="-14871.7" y="-10110.1" class="corner-label">7</text>
      </g>
      <g class="corner-marker" data-corner="8" data-length="22892.3">
        <circle cx="-11074.1" cy="-9919.3" r="180.7" class="corner-bg"/>
        <text x="-11074.1" y="-9919.3" class="corner-label">8</text>
      </g>
      <g class="corner-marker" data-corner="9" data-length="25361.6">
        <circle cx="-8677.4" cy="-9848.5" r="180.7" class="corner-bg"/>
        <text x="-8677.4" y="-9848.5" class="corner-label">9</text>
      </g>
      <g class="corner-marker" data-corner="10" data-length="26710.2">
        <circle cx="-8237.3" cy="-8597.5" r="180.7" class="corner-bg"/>
        <text x="-8237.3" y="-8597.5" class="corner-label">10</text>
      </g>
      <g class="corner-marker" data-corner="11" data-length="29209.9">
        <circle cx="-8627.0" cy="-6142.3" r="180.7" class="corner-bg"/>
        <text x="-8627.0" y="-6142.3" class="corner-label">11</text>
      </g>
      <g class="corner-marker" data-corner="12" data-length="30152.0">
        <circle cx="-8140.5" cy="-5357.3" r="180.7" class="corner-bg"/>
        <text x="-8140.5" y="-5357.3" class="corner-label">12</text>
      </g>
      <g class="corner-marker" data-corner="13" data-length="30980.2">
        <circle cx="-7328.0" cy="-5441.1" r="180.7" class="corner-bg"/>
        <text x="-7328.0" y="-5441.1" class="corner-label">13</text>
      </g>
      <g class="corner-marker" data-corner="14" data-length="35113.4">
        <circle cx="-3203.5" cy="-5287.2" r="180.7" class="corner-bg"/>
        <text x="-3203.5" y="-5287.2" class="corner-label">14</text>
      </g>
      <g class="corner-marker" data-corner="15" data-length="35599.6">
        <circle cx="-2813.4" cy="-5561.1" r="180.7" class="corner-bg"/>
        <text x="-2813.4" y="-5561.1" class="corner-label">15</text>
      </g>
      <g class="corner-marker" data-corner="16" data-length="41104.3">
        <circle cx="1549.6" cy="-2360.5" r="180.7" class="corner-bg"/>
        <text x="1549.6" y="-2360.5" class="corner-label">16</text>
      </g>
      <g class="corner-marker" data-corner="17" data-length="43049.3">
        <circle cx="3183.6" cy="-1411.8" r="180.7" class="corner-bg"/>
        <text x="3183.6" y="-1411.8" class="corner-label">17</text>
      </g>
      <g class="corner-marker" data-corner="18" data-length="44451.1">
        <circle cx="2461.8" cy="-336.5" r="180.7" class="corner-bg"/>
        <text x="2461.8" y="-336.5" class="corner-label">18</text>
      </g>
      <g class="corner-marker" data-corner="19" data-length="47543.4">
        <circle cx="-395.8" cy="-1491.9" r="180.7" class="corner-bg"/>
        <text x="-395.8" y="-1491.9" class="corner-label">19</text>
      </g>
    </g>

    <g id="start-finish" data-track-x="-1469.0" data-track-y="-1602.0" data-lap-distance="48626.1">
      <polygon points="-773.5,-1902.0 -1449.9,-1940.2 -1427.0,-2346.0 -750.6,-2307.8" class="checker-border"/>
      <polygon points="-773.5,-1902.0 -908.8,-1909.6 -901.2,-2044.9 -765.9,-2037.2" class="checker-black"/>
      <polygon points="-765.9,-2037.2 -901.2,-2044.9 -893.5,-2180.1 -758.2,-2172.5" class="checker-white"/>
      <polygon points="-758.2,-2172.5 -893.5,-2180.1 -885.9,-2315.4 -750.6,-2307.8" class="checker-black"/>
      <polygon points="-908.8,-1909.6 -1044.1,-1917.2 -1036.4,-2052.5 -901.2,-2044.9" class="checker-white"/>
      <polygon points="-901.2,-2044.9 -1036.4,-2052.5 -1028.8,-2187.8 -893.5,-2180.1" class="checker-black"/>
      <polygon points="-893.5,-2180.1 -1028.8,-2187.8 -1021.1,-2323.1 -885.9,-2315.4" class="checker-white"/>
      <polygon points="-1044.1,-1917.2 -1179.3,-1924.9 -1171.7,-2060.2 -1036.4,-2052.5" class="checker-black"/>
      <polygon points="-1036.4,-2052.5 -1171.7,-2060.2 -1164.1,-2195.4 -1028.8,-2187.8" class="checker-white"/>
      <polygon points="-1028.8,-2187.8 -1164.1,-2195.4 -1156.4,-2330.7 -1021.1,-2323.1" class="checker-black"/>
      <polygon points="-1179.3,-1924.9 -1314.6,-1932.5 -1307.0,-2067.8 -1171.7,-2060.2" class="checker-white"/>
      <polygon points="-1171.7,-2060.2 -1307.0,-2067.8 -1299.3,-2203.1 -1164.1,-2195.4" class="checker-black"/>
      <polygon points="-1164.1,-2195.4 -1299.3,-2203.1 -1291.7,-2338.4 -1156.4,-2330.7" class="checker-white"/>
      <polygon points="-1314.6,-1932.5 -1449.9,-1940.2 -1442.2,-2075.5 -1307.0,-2067.8" class="checker-black"/>
      <polygon points="-1307.0,-2067.8 -1442.2,-2075.5 -1434.6,-2210.7 -1299.3,-2203.1" class="checker-white"/>
      <polygon points="-1299.3,-2203.1 -1434.6,-2210.7 -1427.0,-2346.0 -1291.7,-2338.4" class="checker-black"/>
      <polyline points="-2102.0,-2406.8 -2340.2,-2194.0 -2127.5,-1955.9" class="chevron"/>
      <polyline points="-2282.4,-2416.9 -2520.6,-2204.2 -2307.9,-1966.0" class="chevron"/>
      <polyline points="-2462.8,-2427.1 -2701.0,-2214.4 -2488.2,-1976.2" class="chevron"/>
    </g>

    <g id="car-markers"></g>

  </g>
</svg>
