<?xml version="1.0" encoding="utf-8"?>
<?xml-stylesheet type="text/css" href="../../css/tracks.css"?>
<svg xmlns="http://www.w3.org/2000/svg" viewBox="-484.4 236.4 960.0 504.8">
  <title>Jeddah</title>

  <g id="track-root" transform="translate(0, 504.78) scale(1, -1) scale(0.031117) translate(2886.00, -8077.00) rotate(104, -2886.00, 8077.00)" data-scale="0.031117" data-rotation="104.0">

    <g id="track-outline">
      <path d="M -1291.0 216.0 L -1317.0 289.0 L -1343.0 362.0 L -1437.0 615.0 L -1472.0 711.0 L -1494.0 771.0 L -1520.0 843.0 L -1616.0 1102.0 L -1618.0 1107.0 L -1668.0 1244.0 L -1720.0 1387.0 L -1742.0 1449.0 L -1790.0 1578.0 L -1796.0 1595.0 L -1861.0 1771.0 L -1919.0 1929.0 L -1967.0 2060.0 L -1990.0 2124.0 L -2014.0 2190.0 L -2051.0 2288.0 L -2103.0 2432.0 L -2105.0 2438.0 L -2204.0 2736.0 L -2222.0 2791.0 L -2255.0 2908.0 L -2281.0 3011.0 L -2282.0 3016.0 L -2308.0 3112.0 L -2351.0 3272.0 L -2389.0 3413.0 L -2429.0 3562.0 L -2451.0 3640.0 L -2460.0 3673.0 L -2500.0 3819.0 L -2507.0 3842.0 L -2529.0 3925.0 L -2545.0 3982.0 L -2565.0 4052.0 L -2578.9 4103.8" class="track-outline" data-sector="1"/>
      <path d="M -2578.9 4103.8 L -2587.0 4134.0 L -2598.0 4173.0 L -2621.0 4255.0 L -2630.0 4283.0 L -2675.0 4417.0 L -2679.0 4428.0 L -2722.0 4531.0 L -2726.0 4540.0 L -2749.0 4586.0 L -2756.0 4598.0 L -2772.0 4623.0 L -2810.0 4676.0 L -2817.0 4685.0 L -2843.0 4711.0 L -2855.0 4722.0 L -2895.0 4751.0 L -2907.0 4757.0 L -2966.0 4776.0 L -2998.0 4785.0 L -3021.0 4789.0 L -3051.0 4783.0 L -3056.0 4781.0 L -3102.0 4772.0 L -3107.0 4772.0 L -3167.0 4760.0 L -3179.0 4757.0 L -3227.0 4750.0 L -3254.0 4747.0 L -3315.0 4749.0 L -3353.0 4756.0 L -3371.0 4761.0 L -3413.0 4781.0 L -3422.0 4789.0 L -3469.0 4841.0 L -3473.0 4846.0 L -3496.0 4880.0 L -3499.0 4902.0 L -3501.0 4909.0 L -3513.0 4962.0 L -3513.0 4968.0 L -3515.0 5003.0 L -3515.0 5042.0 L -3512.0 5087.0 L -3507.0 5150.0 L -3507.0 5161.0 L -3496.0 5254.0 L -3495.0 5264.0 L -3489.0 5304.0 L -3485.0 5324.0 L -3470.0 5411.0 L -3466.0 5439.0 L -3443.0 5548.0 L -3434.0 5590.0 L -3427.0 5619.0 L -3415.0 5677.0 L -3407.0 5713.0 L -3388.0 5795.0 L -3375.0 5864.0 L -3372.2 5878.7" class="track-outline" data-sector="2"/>
      <path d="M -3372.2 5878.7 L -3369.0 5896.0 L -3352.0 6008.0 L -3350.0 6025.0 L -3336.0 6155.0 L -3336.0 6163.0 L -3331.0 6243.0 L -3331.0 6285.0 L -3333.0 6375.0 L -3337.0 6463.0 L -3342.0 6513.0 L -3352.0 6619.0 L -3364.0 6717.0 L -3376.0 6824.0 L -3387.0 6906.0 L -3393.0 6950.0 L -3404.0 7033.0 L -3425.0 7192.0 L -3425.0 7195.0 L -3446.0 7359.0 L -3453.0 7412.0 L -3458.0 7454.0 L -3467.0 7518.0 L -3486.0 7665.0 L -3488.0 7680.0 L -3512.0 7863.0 L -3517.0 7899.0 L -3531.0 8010.0 L -3538.0 8065.0 L -3564.0 8268.0 L -3577.0 8361.0 L -3587.0 8441.0 L -3594.0 8503.0 L -3595.0 8511.0 L -3608.0 8625.0 L -3610.0 8653.0 L -3617.0 8718.0 L -3619.0 8747.0 L -3629.0 8912.0 L -3632.0 8933.0 L -3639.0 8976.8" class="track-outline" data-sector="3"/>
      <path d="M -3639.0 8976.8 L -3649.0 9040.0 L -3666.0 9099.0 L -3677.0 9127.0 L -3693.0 9158.0 L -3726.0 9192.0 L -3738.0 9202.0 L -3804.0 9247.0 L -3835.0 9262.0 L -3863.0 9275.0 L -3957.0 9313.0 L -3963.0 9316.0 L -4047.0 9353.0 L -4070.0 9365.0 L -4107.0 9384.0 L -4162.0 9418.0 L -4196.0 9445.0 L -4305.0 9542.0 L -4341.0 9579.0 L -4368.0 9619.0 L -4375.0 9630.0 L -4432.0 9720.0 L -4436.0 9727.0 L -4490.0 9832.0 L -4508.0 9874.0 L -4527.0 9923.0 L -4538.0 9957.0 L -4556.0 10017.0 L -4567.0 10061.0 L -4586.0 10160.0 L -4588.0 10178.0 L -4601.0 10354.0 L -4601.0 10357.0 L -4602.2 10385.5" class="track-outline" data-sector="4"/>
      <path d="M -4602.2 10385.5 L -4604.0 10428.0 L -4596.0 10519.0 L -4590.0 10554.0 L -4547.0 10779.0 L -4532.0 10834.0 L -4511.0 10876.0 L -4508.0 10883.0 L -4442.0 11012.0 L -4418.0 11052.0 L -4355.0 11160.0 L -4341.0 11186.0 L -4299.0 11276.0 L -4288.0 11303.0 L -4262.0 11385.0 L -4242.0 11488.0 L -4239.0 11508.0 L -4233.0 11663.0 L -4234.0 11759.0 L -4239.0 11843.0 L -4252.0 11907.0 L -4287.0 12061.0 L -4306.0 12137.0 L -4351.0 12309.0 L -4361.0 12338.0 L -4423.0 12491.0 L -4487.0 12603.0 L -4534.0 12662.0 L -4622.0 12717.0 L -4721.0 12764.0 L -4746.0 12777.0 L -4836.0 12837.0 L -4843.0 12843.0 L -4905.0 12913.0 L -4918.0 12932.0 L -4931.1 12956.7" class="track-outline" data-sector="5"/>
      <path d="M -4931.1 12956.7 L -4968.0 13026.0 L -4994.0 13100.0 L -5014.0 13193.0 L -5036.0 13368.0 L -5040.0 13440.0 L -5042.0 13509.0 L -5043.0 13635.0 L -5042.0 13638.0 L -5040.0 13750.0 L -5035.0 13844.0 L -5027.0 13944.0 L -5005.0 14084.0 L -5001.0 14100.0 L -4982.0 14181.0 L -4969.0 14219.0 L -4922.0 14333.0 L -4919.0 14341.0 L -4850.0 14454.0 L -4847.0 14456.0 L -4788.0 14529.0 L -4754.0 14563.0 L -4676.0 14629.0 L -4640.0 14656.0 L -4524.0 14730.0 L -4413.0 14792.0 L -4281.0 14866.0 L -4197.0 14916.0 L -4123.0 14985.0 L -4060.0 15062.0 L -4050.0 15075.0 L -3998.0 15172.0 L -3991.0 15187.0 L -3951.0 15304.0 L -3929.0 15398.0 L -3920.0 15444.0 L -3918.0 15453.0 L -3900.0 15540.0 L -3862.5 15757.1" class="track-outline" data-sector="6"/>
      <path d="M -3862.5 15757.1 L -3856.0 15795.0 L -3839.0 15871.0 L -3830.0 15910.0 L -3791.0 16060.0 L -3783.0 16090.0 L -3721.0 16301.0 L -3718.0 16312.0 L -3670.0 16471.0 L -3665.0 16485.0 L -3637.0 16591.0 L -3622.0 16650.0 L -3605.0 16728.0 L -3582.0 16854.0 L -3570.0 16928.0 L -3562.0 16996.0 L -3556.0 17043.0 L -3536.0 17213.0 L -3528.0 17275.0 L -3521.0 17344.0 L -3506.0 17483.0 L -3499.0 17564.0 L -3496.0 17595.0 L -3489.0 17683.0 L -3471.0 17937.0 L -3468.0 17976.0 L -3466.0 18042.0 L -3465.0 18073.0 L -3459.0 18240.0 L -3459.0 18393.0 L -3462.0 18558.0 L -3463.0 18570.0 L -3467.0 18707.0 L -3470.0 18787.0 L -3472.0 18864.0 L -3478.0 18989.0 L -3479.0 19022.0 L -3486.0 19177.0 L -3490.0 19271.0 L -3494.0 19334.0 L -3503.0 19536.0 L -3511.0 19696.0 L -3520.0 19888.0 L -3527.0 20009.0 L -3528.0 20028.0 L -3533.0 20136.0 L -3538.0 20217.0 L -3544.0 20329.0 L -3552.0 20438.0 L -3563.3 20555.8" class="track-outline" data-sector="7"/>
      <path d="M -3563.3 20555.8 L -3567.0 20594.0 L -3569.0 20614.0 L -3575.0 20657.0 L -3598.0 20815.0 L -3621.0 20954.0 L -3639.0 21071.0 L -3651.0 21122.0 L -3663.0 21166.0 L -3698.0 21297.0 L -3701.0 21307.0 L -3720.0 21379.0 L -3736.0 21412.0 L -3757.0 21447.0 L -3829.0 21565.0 L -3837.0 21577.0 L -3864.0 21612.0 L -3887.0 21632.0 L -3893.0 21637.0 L -3951.0 21687.0 L -3979.0 21706.0 L -4097.0 21766.0 L -4111.0 21772.0 L -4157.0 21787.0 L -4196.0 21792.0 L -4211.0 21793.0 L -4288.0 21794.0 L -4319.0 21791.0 L -4382.0 21774.0 L -4384.0 21773.0 L -4442.0 21748.0 L -4480.0 21723.0 L -4570.0 21657.0 L -4623.0 21603.0 L -4644.0 21574.0 L -4673.0 21530.0 L -4691.0 21500.0 L -4729.0 21416.0 L -4758.0 21339.0 L -4782.0 21242.0 L -4791.0 21186.0 L -4792.0 21173.0 L -4800.0 21115.0 L -4806.0 20964.0 L -4807.0 20957.0 L -4804.0 20834.0 L -4804.0 20825.0 L -4791.0 20679.0 L -4790.0 20674.0 L -4787.8 20659.9" class="track-outline" data-sector="8"/>
      <path d="M -4787.8 20659.9 L -4775.0 20576.0 L -4754.0 20499.0 L -4695.0 20305.0 L -4677.0 20252.0 L -4643.0 20176.0 L -4608.0 20120.0 L -4538.0 20009.0 L -4506.0 19960.0 L -4450.0 19871.0 L -4439.0 19853.0 L -4365.0 19727.0 L -4356.0 19712.0 L -4315.0 19632.0 L -4305.0 19610.0 L -4234.0 19444.0 L -4198.0 19345.0 L -4182.0 19270.0 L -4154.0 19132.0 L -4135.0 19018.0 L -4116.0 18857.0 L -4107.0 18728.0 L -4105.0 18711.0 L -4101.0 18629.0 L -4100.0 18567.0 L -4100.0 18418.0 L -4104.0 18332.0 L -4111.0 18238.0 L -4119.0 18169.0 L -4130.0 18090.0 L -4137.0 18050.0 L -4164.0 17916.0 L -4184.9 17831.5" class="track-outline" data-sector="9"/>
      <path d="M -4184.9 17831.5 L -4187.0 17823.0 L -4190.0 17813.0 L -4261.0 17592.0 L -4299.0 17494.0 L -4343.0 17388.0 L -4400.0 17267.0 L -4411.0 17242.0 L -4494.0 17063.0 L -4525.0 16996.0 L -4556.0 16925.0 L -4583.0 16853.0 L -4593.0 16824.0 L -4627.0 16728.0 L -4641.0 16682.0 L -4663.0 16608.0 L -4693.0 16477.0 L -4695.0 16469.0 L -4720.0 16332.0 L -4727.0 16292.0 L -4747.0 16160.0 L -4749.0 16152.0 L -4770.0 16041.0 L -4778.0 16006.0 L -4792.0 15949.0 L -4817.0 15890.0 L -4841.0 15854.0 L -4846.0 15845.0 L -4920.0 15751.0 L -4944.0 15729.0 L -5018.0 15678.0 L -5030.0 15672.0 L -5074.0 15651.0 L -5115.0 15641.0 L -5271.0 15618.0 L -5290.0 15615.0 L -5415.0 15580.0 L -5434.0 15567.0 L -5688.0 15233.0 L -5689.0 15229.0 L -5729.0 15107.0 L -5740.0 15058.0 L -5763.0 14928.0 L -5771.0 14878.0 L -5776.0 14827.0 L -5777.0 14820.0 L -5779.5 14790.1" class="track-outline" data-sector="10"/>
      <path d="M -5779.5 14790.1 L -5787.0 14700.0 L -5789.0 14659.0 L -5793.0 14552.0 L -5793.0 14510.0 L -5795.0 14438.0 L -5795.0 14333.0 L -5795.0 14297.0 L -5790.0 14100.0 L -5787.0 14035.0 L -5776.0 13901.0 L -5769.0 13833.0 L -5765.0 13803.0 L -5744.0 13655.0 L -5712.0 13498.0 L -5708.0 13476.0 L -5674.0 13338.0 L -5648.0 13254.0 L -5600.0 13103.0 L -5572.0 13025.0 L -5554.0 12980.0 L -5543.0 12954.0 L -5499.0 12843.0 L -5465.0 12762.0 L -5381.0 12568.0 L -5378.0 12561.0 L -5278.0 12322.0 L -5253.0 12258.0 L -5235.0 12213.0 L -5180.0 12055.0 L -5169.0 12022.0 L -5132.9 11900.8" class="track-outline" data-sector="11"/>
      <path d="M -5132.9 11900.8 L -5130.0 11891.0 L -5117.0 11845.0 L -5098.0 11770.0 L -5048.0 11543.0 L -5032.0 11467.0 L -5021.0 11390.0 L -5015.0 11341.0 L -5005.0 11262.0 L -5000.0 11215.0 L -4979.0 10926.0 L -4976.0 10846.0 L -4972.0 10733.0 L -4972.0 10701.0 L -4969.0 10618.0 L -4966.0 10539.0 L -4959.0 10419.0 L -4956.0 10377.0 L -4933.0 10150.0 L -4926.0 10095.0 L -4913.0 10004.0 L -4877.0 9792.0 L -4865.0 9738.0 L -4835.0 9607.0 L -4824.0 9564.0 L -4803.3 9494.1" class="track-outline" data-sector="12"/>
      <path d="M -4803.3 9494.1 L -4789.0 9446.0 L -4775.0 9403.0 L -4723.0 9260.0 L -4721.0 9255.0 L -4663.0 9118.0 L -4639.0 9066.0 L -4573.0 8934.0 L -4461.0 8739.0 L -4457.0 8733.0 L -4325.0 8516.0 L -4281.0 8442.0 L -4225.0 8334.0 L -4186.0 8255.0 L -4127.0 8129.0 L -4084.0 8028.0 L -4080.0 8016.0 L -3970.0 7681.0 L -3958.0 7641.0 L -3942.0 7581.0 L -3931.0 7527.0 L -3916.0 7458.0 L -3895.0 7353.0 L -3860.0 7142.0 L -3854.0 7100.0 L -3831.0 6912.0 L -3828.0 6888.0 L -3817.0 6770.0 L -3814.0 6744.0 L -3806.0 6612.0 L -3799.0 6486.0 L -3798.0 6327.0 L -3801.0 6095.0 L -3803.0 6060.0 L -3813.0 5893.0 L -3817.0 5857.0 L -3834.8 5682.3" class="track-outline" data-sector="13"/>
      <path d="M -3834.8 5682.3 L -3837.0 5661.0 L -3843.0 5610.0 L -3864.0 5473.0 L -3873.0 5406.0 L -3899.0 5232.0 L -3901.0 5219.0 L -3917.0 5054.0 L -3919.0 4980.0 L -3918.0 4947.0 L -3915.0 4882.0 L -3913.0 4867.0 L -3890.0 4755.0 L -3889.0 4749.0 L -3859.0 4662.0 L -3829.0 4608.0 L -3749.0 4495.0 L -3701.0 4433.0 L -3653.0 4379.0 L -3618.0 4348.0 L -3615.0 4346.0 L -3522.0 4258.0 L -3491.0 4230.0 L -3422.0 4167.0 L -3384.0 4130.0 L -3308.0 4041.0 L -3254.0 3959.0 L -3239.0 3933.0 L -3218.0 3892.0 L -3177.8 3787.3" class="track-outline" data-sector="14"/>
      <path d="M -3177.8 3787.3 L -3167.0 3759.0 L -3152.0 3706.0 L -3106.0 3485.0 L -3102.0 3463.0 L -3088.0 3384.0 L -3083.0 3291.0 L -3076.0 3088.0 L -3075.0 3068.0 L -3081.0 2964.0 L -3086.0 2924.0 L -3108.0 2781.0 L -3113.0 2758.0 L -3135.0 2669.0 L -3146.0 2633.0 L -3178.0 2537.0 L -3212.0 2448.0 L -3289.0 2278.0 L -3337.0 2180.0 L -3345.0 2163.0 L -3365.9 2121.6" class="track-outline" data-sector="15"/>
      <path d="M -3365.9 2121.6 L -3396.0 2062.0 L -3450.0 1955.0 L -3463.0 1931.0 L -3585.0 1691.0 L -3587.0 1686.0 L -3680.0 1496.0 L -3685.0 1488.0 L -3732.0 1388.0 L -3744.0 1364.0 L -3819.0 1195.0 L -3833.0 1161.0 L -3855.0 1109.0 L -3901.0 985.0 L -3919.0 934.0 L -3947.0 848.0 L -3961.0 799.0 L -4019.0 551.0 L -4023.0 536.0 L -4057.0 349.0 L -4065.0 235.0 L -4067.0 216.0 L -4075.0 75.0 L -4078.0 -12.0 L -4076.0 -160.0 L -4075.0 -181.0 L -4058.0 -445.4" class="track-outline" data-sector="16"/>
      <path d="M -4058.0 -445.4 L -4058.0 -446.0 L -4057.0 -450.0 L -4051.0 -512.0 L -4028.0 -678.0 L -3999.0 -827.0 L -3963.0 -1009.0 L -3937.0 -1124.0 L -3917.0 -1208.0 L -3907.0 -1244.0 L -3838.0 -1525.0 L -3817.0 -1607.0 L -3782.0 -1743.0 L -3748.0 -1877.0 L -3719.0 -1981.0 L -3670.0 -2151.0 L -3668.0 -2162.0 L -3643.0 -2246.0 L -3610.0 -2343.0 L -3527.0 -2578.0 L -3524.0 -2584.0 L -3490.0 -2671.0 L -3458.0 -2740.0 L -3442.0 -2772.0 L -3378.0 -2898.0 L -3325.0 -2993.0 L -3252.0 -3115.0 L -3234.0 -3145.0 L -3101.0 -3339.0 L -3082.0 -3366.0 L -3009.0 -3461.0 L -2960.0 -3523.0 L -2889.0 -3607.0 L -2871.9 -3627.1" class="track-outline" data-sector="17"/>
      <path d="M -2871.9 -3627.1 L -2832.0 -3674.0 L -2710.0 -3807.0 L -2617.0 -3900.0 L -2503.0 -4010.0 L -2484.0 -4027.0 L -2392.0 -4112.0 L -2316.0 -4182.0 L -2169.0 -4322.0 L -2151.0 -4338.0 L -2115.0 -4373.0 L -1975.0 -4498.0 L -1802.0 -4650.0 L -1754.0 -4690.0 L -1671.0 -4757.0 L -1587.0 -4821.0 L -1511.0 -4877.0 L -1456.0 -4920.0 L -1344.0 -5004.0 L -1293.0 -5041.0 L -1202.0 -5110.0 L -1029.0 -5239.0 L -1027.2 -5240.3" class="track-outline" data-sector="18"/>
      <path d="M -1027.2 -5240.3 L -1006.0 -5255.0 L -915.0 -5323.0 L -886.0 -5346.0 L -774.0 -5429.0 L -759.0 -5441.0 L -689.0 -5492.0 L -684.0 -5497.0 L -616.0 -5548.0 L -613.0 -5549.0 L -579.0 -5576.0 L -553.0 -5591.0 L -462.0 -5629.0 L -442.0 -5636.0 L -395.0 -5640.0 L -382.0 -5639.0 L -330.0 -5638.0 L -313.0 -5637.0 L -249.0 -5622.0 L -225.0 -5613.0 L -166.0 -5583.0 L -157.0 -5577.0 L -128.0 -5556.0 L -105.0 -5536.0 L -61.0 -5487.0 L -56.0 -5480.0 L -26.0 -5432.0 L -25.0 -5430.0 L 9.0 -5343.0 L 17.0 -5309.0 L 20.0 -5285.0 L 22.0 -5239.0 L 23.0 -5166.0 L 22.0 -5156.0 L 12.0 -5069.0 L -2.0 -5003.0 L -4.0 -4990.0 L -33.0 -4865.0 L -37.0 -4851.0 L -50.0 -4791.0 L -62.0 -4738.0 L -69.0 -4702.0 L -75.5 -4672.6" class="track-outline" data-sector="19"/>
      <path d="M -75.5 -4672.6 L -92.0 -4598.0 L -98.0 -4567.0 L -114.0 -4500.0 L -143.0 -4359.0 L -150.0 -4325.0 L -169.0 -4228.0 L -178.0 -4178.0 L -196.0 -4083.0 L -203.0 -4051.0 L -226.0 -3943.0 L -230.0 -3925.0 L -249.0 -3832.0 L -256.0 -3796.0 L -288.0 -3651.0 L -294.0 -3628.0 L -315.0 -3532.0 L -319.0 -3518.0 L -341.0 -3417.0 L -355.0 -3355.0 L -387.0 -3211.0 L -392.0 -3190.0 L -424.0 -3047.0 L -434.0 -3003.0 L -448.0 -2942.0 L -481.0 -2789.0 L -484.0 -2781.0 L -507.0 -2679.0 L -532.0 -2576.0 L -538.0 -2545.0 L -540.3 -2535.0" class="track-outline" data-sector="20"/>
      <path d="M -540.3 -2535.0 L -557.0 -2464.0 L -593.0 -2296.0 L -600.0 -2267.0 L -616.0 -2191.0 L -637.0 -2095.0 L -653.0 -2015.0 L -681.0 -1890.0 L -730.0 -1663.0 L -756.0 -1551.0 L -759.0 -1534.0 L -787.0 -1417.0 L -787.0 -1413.0 L -816.0 -1296.0 L -831.0 -1232.0 L -868.0 -1100.0 L -951.0 -814.0 L -961.0 -781.0 L -1005.0 -634.0 L -1049.0 -500.0 L -1067.0 -446.0 L -1085.0 -389.0 L -1127.0 -262.0 L -1128.0 -257.0 L -1173.0 -123.0 L -1232.0 47.0 L -1250.0 101.0 L -1302.0 246.0 L -1291.0 216.0" class="track-outline" data-sector="21"/>
    </g>

    <g id="track-sectors">
      <path d="M -1291.0 216.0 L -1317.0 289.0 L -1343.0 362.0 L -1437.0 615.0 L -1472.0 711.0 L -1494.0 771.0 L -1520.0 843.0 L -1616.0 1102.0 L -1618.0 1107.0 L -1668.0 1244.0 L -1720.0 1387.0 L -1742.0 1449.0 L -1790.0 1578.0 L -1796.0 1595.0 L -1861.0 1771.0 L -1919.0 1929.0 L -1967.0 2060.0 L -1990.0 2124.0 L -2014.0 2190.0 L -2051.0 2288.0 L -2103.0 2432.0 L -2105.0 2438.0 L -2204.0 2736.0 L -2222.0 2791.0 L -2255.0 2908.0 L -2281.0 3011.0 L -2282.0 3016.0 L -2308.0 3112.0 L -2351.0 3272.0 L -2389.0 3413.0 L -2429.0 3562.0 L -2451.0 3640.0 L -2460.0 3673.0 L -2500.0 3819.0 L -2507.0 3842.0 L -2529.0 3925.0 L -2545.0 3982.0 L -2565.0 4052.0 L -2578.9 4103.8" class="track" data-sector="1"/>
      <path d="M -2578.9 4103.8 L -2587.0 4134.0 L -2598.0 4173.0 L -2621.0 4255.0 L -2630.0 4283.0 L -2675.0 4417.0 L -2679.0 4428.0 L -2722.0 4531.0 L -2726.0 4540.0 L -2749.0 4586.0 L -2756.0 4598.0 L -2772.0 4623.0 L -2810.0 4676.0 L -2817.0 4685.0 L -2843.0 4711.0 L -2855.0 4722.0 L -2895.0 4751.0 L -2907.0 4757.0 L -2966.0 4776.0 L -2998.0 4785.0 L -3021.0 4789.0 L -3051.0 4783.0 L -3056.0 4781.0 L -3102.0 4772.0 L -3107.0 4772.0 L -3167.0 4760.0 L -3179.0 4757.0 L -3227.0 4750.0 L -3254.0 4747.0 L -3315.0 4749.0 L -3353.0 4756.0 L -3371.0 4761.0 L -3413.0 4781.0 L -3422.0 4789.0 L -3469.0 4841.0 L -3473.0 4846.0 L -3496.0 4880.0 L -3499.0 4902.0 L -3501.0 4909.0 L -3513.0 4962.0 L -3513.0 4968.0 L -3515.0 5003.0 L -3515.0 5042.0 L -3512.0 5087.0 L -3507.0 5150.0 L -3507.0 5161.0 L -3496.0 5254.0 L -3495.0 5264.0 L -3489.0 5304.0 L -3485.0 5324.0 L -3470.0 5411.0 L -3466.0 5439.0 L -3443.0 5548.0 L -3434.0 5590.0 L -3427.0 5619.0 L -3415.0 5677.0 L -3407.0 5713.0 L -3388.0 5795.0 L -3375.0 5864.0 L -3372.2 5878.7" class="track" data-sector="2"/>
      <path d="M -3372.2 5878.7 L -3369.0 5896.0 L -3352.0 6008.0 L -3350.0 6025.0 L -3336.0 6155.0 L -3336.0 6163.0 L -3331.0 6243.0 L -3331.0 6285.0 L -3333.0 6375.0 L -3337.0 6463.0 L -3342.0 6513.0 L -3352.0 6619.0 L -3364.0 6717.0 L -3376.0 6824.0 L -3387.0 6906.0 L -3393.0 6950.0 L -3404.0 7033.0 L -3425.0 7192.0 L -3425.0 7195.0 L -3446.0 7359.0 L -3453.0 7412.0 L -3458.0 7454.0 L -3467.0 7518.0 L -3486.0 7665.0 L -3488.0 7680.0 L -3512.0 7863.0 L -3517.0 7899.0 L -3531.0 8010.0 L -3538.0 8065.0 L -3564.0 8268.0 L -3577.0 8361.0 L -3587.0 8441.0 L -3594.0 8503.0 L -3595.0 8511.0 L -3608.0 8625.0 L -3610.0 8653.0 L -3617.0 8718.0 L -3619.0 8747.0 L -3629.0 8912.0 L -3632.0 8933.0 L -3639.0 8976.8" class="track" data-sector="3"/>
      <path d="M -3639.0 8976.8 L -3649.0 9040.0 L -3666.0 9099.0 L -3677.0 9127.0 L -3693.0 9158.0 L -3726.0 9192.0 L -3738.0 9202.0 L -3804.0 9247.0 L -3835.0 9262.0 L -3863.0 9275.0 L -3957.0 9313.0 L -3963.0 9316.0 L -4047.0 9353.0 L -4070.0 9365.0 L -4107.0 9384.0 L -4162.0 9418.0 L -4196.0 9445.0 L -4305.0 9542.0 L -4341.0 9579.0 L -4368.0 9619.0 L -4375.0 9630.0 L -4432.0 9720.0 L -4436.0 9727.0 L -4490.0 9832.0 L -4508.0 9874.0 L -4527.0 9923.0 L -4538.0 9957.0 L -4556.0 10017.0 L -4567.0 10061.0 L -4586.0 10160.0 L -4588.0 10178.0 L -4601.0 10354.0 L -4601.0 10357.0 L -4602.2 10385.5" class="track" data-sector="4"/>
      <path d="M -4602.2 10385.5 L -4604.0 10428.0 L -4596.0 10519.0 L -4590.0 10554.0 L -4547.0 10779.0 L -4532.0 10834.0 L -4511.0 10876.0 L -4508.0 10883.0 L -4442.0 11012.0 L -4418.0 11052.0 L -4355.0 11160.0 L -4341.0 11186.0 L -4299.0 11276.0 L -4288.0 11303.0 L -4262.0 11385.0 L -4242.0 11488.0 L -4239.0 11508.0 L -4233.0 11663.0 L -4234.0 11759.0 L -4239.0 11843.0 L -4252.0 11907.0 L -4287.0 12061.0 L -4306.0 12137.0 L -4351.0 12309.0 L -4361.0 12338.0 L -4423.0 12491.0 L -4487.0 12603.0 L -4534.0 12662.0 L -4622.0 12717.0 L -4721.0 12764.0 L -4746.0 12777.0 L -4836.0 12837.0 L -4843.0 12843.0 L -4905.0 12913.0 L -4918.0 12932.0 L -4931.1 12956.7" class="track" data-sector="5"/>
      <path d="M -4931.1 12956.7 L -4968.0 13026.0 L -4994.0 13100.0 L -5014.0 13193.0 L -5036.0 13368.0 L -5040.0 13440.0 L -5042.0 13509.0 L -5043.0 13635.0 L -5042.0 13638.0 L -5040.0 13750.0 L -5035.0 13844.0 L -5027.0 13944.0 L -5005.0 14084.0 L -5001.0 14100.0 L -4982.0 14181.0 L -4969.0 14219.0 L -4922.0 14333.0 L -4919.0 14341.0 L -4850.0 14454.0 L -4847.0 14456.0 L -4788.0 14529.0 L -4754.0 14563.0 L -4676.0 14629.0 L -4640.0 14656.0 L -4524.0 14730.0 L -4413.0 14792.0 L -4281.0 14866.0 L -4197.0 14916.0 L -4123.0 14985.0 L -4060.0 15062.0 L -4050.0 15075.0 L -3998.0 15172.0 L -3991.0 15187.0 L -3951.0 15304.0 L -3929.0 15398.0 L -3920.0 15444.0 L -3918.0 15453.0 L -3900.0 15540.0 L -3862.5 15757.1" class="track" data-sector="6"/>
      <path d="M -3862.5 15757.1 L -3856.0 15795.0 L -3839.0 15871.0 L -3830.0 15910.0 L -3791.0 16060.0 L -3783.0 16090.0 L -3721.0 16301.0 L -3718.0 16312.0 L -3670.0 16471.0 L -3665.0 16485.0 L -3637.0 16591.0 L -3622.0 16650.0 L -3605.0 16728.0 L -3582.0 16854.0 L -3570.0 16928.0 L -3562.0 16996.0 L -3556.0 17043.0 L -3536.0 17213.0 L -3528.0 17275.0 L -3521.0 17344.0 L -3506.0 17483.0 L -3499.0 17564.0 L -3496.0 17595.0 L -3489.0 17683.0 L -3471.0 17937.0 L -3468.0 17976.0 L -3466.0 18042.0 L -3465.0 18073.0 L -3459.0 18240.0 L -3459.0 18393.0 L -3462.0 18558.0 L -3463.0 18570.0 L -3467.0 18707.0 L -3470.0 18787.0 L -3472.0 18864.0 L -3478.0 18989.0 L -3479.0 19022.0 L -3486.0 19177.0 L -3490.0 19271.0 L -3494.0 19334.0 L -3503.0 19536.0 L -3511.0 19696.0 L -3520.0 19888.0 L -3527.0 20009.0 L -3528.0 20028.0 L -3533.0 20136.0 L -3538.0 20217.0 L -3544.0 20329.0 L -3552.0 20438.0 L -3563.3 20555.8" class="track" data-sector="7"/>
      <path d="M -3563.3 20555.8 L -3567.0 20594.0 L -3569.0 20614.0 L -3575.0 20657.0 L -3598.0 20815.0 L -3621.0 20954.0 L -3639.0 21071.0 L -3651.0 21122.0 L -3663.0 21166.0 L -3698.0 21297.0 L -3701.0 21307.0 L -3720.0 21379.0 L -3736.0 21412.0 L -3757.0 21447.0 L -3829.0 21565.0 L -3837.0 21577.0 L -3864.0 21612.0 L -3887.0 21632.0 L -3893.0 21637.0 L -3951.0 21687.0 L -3979.0 21706.0 L -4097.0 21766.0 L -4111.0 21772.0 L -4157.0 21787.0 L -4196.0 21792.0 L -4211.0 21793.0 L -4288.0 21794.0 L -4319.0 21791.0 L -4382.0 21774.0 L -4384.0 21773.0 L -4442.0 21748.0 L -4480.0 21723.0 L -4570.0 21657.0 L -4623.0 21603.0 L -4644.0 21574.0 L -4673.0 21530.0 L -4691.0 21500.0 L -4729.0 21416.0 L -4758.0 21339.0 L -4782.0 21242.0 L -4791.0 21186.0 L -4792.0 21173.0 L -4800.0 21115.0 L -4806.0 20964.0 L -4807.0 20957.0 L -4804.0 20834.0 L -4804.0 20825.0 L -4791.0 20679.0 L -4790.0 20674.0 L -4787.8 20659.9" class="track" data-sector="8"/>
      <path d="M -4787.8 20659.9 L -4775.0 20576.0 L -4754.0 20499.0 L -4695.0 20305.0 L -4677.0 20252.0 L -4643.0 20176.0 L -4608.0 20120.0 L -4538.0 20009.0 L -4506.0 19960.0 L -4450.0 19871.0 L -4439.0 19853.0 L -4365.0 19727.0 L -4356.0 19712.0 L -4315.0 19632.0 L -4305.0 19610.0 L -4234.0 19444.0 L -4198.0 19345.0 L -4182.0 19270.0 L -4154.0 19132.0 L -4135.0 19018.0 L -4116.0 18857.0 L -4107.0 18728.0 L -4105.0 18711.0 L -4101.0 18629.0 L -4100.0 18567.0 L -4100.0 18418.0 L -4104.0 18332.0 L -4111.0 18238.0 L -4119.0 18169.0 L -4130.0 18090.0 L -4137.0 18050.0 L -4164.0 17916.0 L -4184.9 17831.5" class="track" data-sector="9"/>
      <path d="M -4184.9 17831.5 L -4187.0 17823.0 L -4190.0 17813.0 L -4261.0 17592.0 L -4299.0 17494.0 L -4343.0 17388.0 L -4400.0 17267.0 L -4411.0 17242.0 L -4494.0 17063.0 L -4525.0 16996.0 L -4556.0 16925.0 L -4583.0 16853.0 L -4593.0 16824.0 L -4627.0 16728.0 L -4641.0 16682.0 L -4663.0 16608.0 L -4693.0 16477.0 L -4695.0 16469.0 L -4720.0 16332.0 L -4727.0 16292.0 L -4747.0 16160.0 L -4749.0 16152.0 L -4770.0 16041.0 L -4778.0 16006.0 L -4792.0 15949.0 L -4817.0 15890.0 L -4841.0 15854.0 L -4846.0 15845.0 L -4920.0 15751.0 L -4944.0 15729.0 L -5018.0 15678.0 L -5030.0 15672.0 L -5074.0 15651.0 L -5115.0 15641.0 L -5271.0 15618.0 L -5290.0 15615.0 L -5415.0 15580.0 L -5434.0 15567.0 L -5688.0 15233.0 L -5689.0 15229.0 L -5729.0 15107.0 L -5740.0 15058.0 L -5763.0 14928.0 L -5771.0 14878.0 L -5776.0 14827.0 L -5777.0 14820.0 L -5779.5 14790.1" class="track" data-sector="10"/>
      <path d="M -5779.5 14790.1 L -5787.0 14700.0 L -5789.0 14659.0 L -5793.0 14552.0 L -5793.0 14510.0 L -5795.0 14438.0 L -5795.0 14333.0 L -5795.0 14297.0 L -5790.0 14100.0 L -5787.0 14035.0 L -5776.0 13901.0 L -5769.0 13833.0 L -5765.0 13803.0 L -5744.0 13655.0 L -5712.0 13498.0 L -5708.0 13476.0 L -5674.0 13338.0 L -5648.0 13254.0 L -5600.0 13103.0 L -5572.0 13025.0 L -5554.0 12980.0 L -5543.0 12954.0 L -5499.0 12843.0 L -5465.0 12762.0 L -5381.0 12568.0 L -5378.0 12561.0 L -5278.0 12322.0 L -5253.0 12258.0 L -5235.0 12213.0 L -5180.0 12055.0 L -5169.0 12022.0 L -5132.9 11900.8" class="track" data-sector="11"/>
      <path d="M -5132.9 11900.8 L -5130.0 11891.0 L -5117.0 11845.0 L -5098.0 11770.0 L -5048.0 11543.0 L -5032.0 11467.0 L -5021.0 11390.0 L -5015.0 11341.0 L -5005.0 11262.0 L -5000.0 11215.0 L -4979.0 10926.0 L -4976.0 10846.0 L -4972.0 10733.0 L -4972.0 10701.0 L -4969.0 10618.0 L -4966.0 10539.0 L -4959.0 10419.0 L -4956.0 10377.0 L -4933.0 10150.0 L -4926.0 10095.0 L -4913.0 10004.0 L -4877.0 9792.0 L -4865.0 9738.0 L -4835.0 9607.0 L -4824.0 9564.0 L -4803.3 9494.1" class="track" data-sector="12"/>
      <path d="M -4803.3 9494.1 L -4789.0 9446.0 L -4775.0 9403.0 L -4723.0 9260.0 L -4721.0 9255.0 L -4663.0 9118.0 L -4639.0 9066.0 L -4573.0 8934.0 L -4461.0 8739.0 L -4457.0 8733.0 L -4325.0 8516.0 L -4281.0 8442.0 L -4225.0 8334.0 L -4186.0 8255.0 L -4127.0 8129.0 L -4084.0 8028.0 L -4080.0 8016.0 L -3970.0 7681.0 L -3958.0 7641.0 L -3942.0 7581.0 L -3931.0 7527.0 L -3916.0 7458.0 L -3895.0 7353.0 L -3860.0 7142.0 L -3854.0 7100.0 L -3831.0 6912.0 L -3828.0 6888.0 L -3817.0 6770.0 L -3814.0 6744.0 L -3806.0 6612.0 L -3799.0 6486.0 L -3798.0 6327.0 L -3801.0 6095.0 L -3803.0 6060.0 L -3813.0 5893.0 L -3817.0 5857.0 L -3834.8 5682.3" class="track" data-sector="13"/>
      <path d="M -3834.8 5682.3 L -3837.0 5661.0 L -3843.0 5610.0 L -3864.0 5473.0 L -3873.0 5406.0 L -3899.0 5232.0 L -3901.0 5219.0 L -3917.0 5054.0 L -3919.0 4980.0 L -3918.0 4947.0 L -3915.0 4882.0 L -3913.0 4867.0 L -3890.0 4755.0 L -3889.0 4749.0 L -3859.0 4662.0 L -3829.0 4608.0 L -3749.0 4495.0 L -3701.0 4433.0 L -3653.0 4379.0 L -3618.0 4348.0 L -3615.0 4346.0 L -3522.0 4258.0 L -3491.0 4230.0 L -3422.0 4167.0 L -3384.0 4130.0 L -3308.0 4041.0 L -3254.0 3959.0 L -3239.0 3933.0 L -3218.0 3892.0 L -3177.8 3787.3" class="track" data-sector="14"/>
      <path d="M -3177.8 3787.3 L -3167.0 3759.0 L -3152.0 3706.0 L -3106.0 3485.0 L -3102.0 3463.0 L -3088.0 3384.0 L -3083.0 3291.0 L -3076.0 3088.0 L -3075.0 3068.0 L -3081.0 2964.0 L -3086.0 2924.0 L -3108.0 2781.0 L -3113.0 2758.0 L -3135.0 2669.0 L -3146.0 2633.0 L -3178.0 2537.0 L -3212.0 2448.0 L -3289.0 2278.0 L -3337.0 2180.0 L -3345.0 2163.0 L -3365.9 2121.6" class="track" data-sector="15"/>
      <path d="M -3365.9 2121.6 L -3396.0 2062.0 L -3450.0 1955.0 L -3463.0 1931.0 L -3585.0 1691.0 L -3587.0 1686.0 L -3680.0 1496.0 L -3685.0 1488.0 L -3732.0 1388.0 L -3744.0 1364.0 L -3819.0 1195.0 L -3833.0 1161.0 L -3855.0 1109.0 L -3901.0 985.0 L -3919.0 934.0 L -3947.0 848.0 L -3961.0 799.0 L -4019.0 551.0 L -4023.0 536.0 L -4057.0 349.0 L -4065.0 235.0 L -4067.0 216.0 L -4075.0 75.0 L -4078.0 -12.0 L -4076.0 -160.0 L -4075.0 -181.0 L -4058.0 -445.4" class="track" data-sector="16"/>
      <path d="M -4058.0 -445.4 L -4058.0 -446.0 L -4057.0 -450.0 L -4051.0 -512.0 L -4028.0 -678.0 L -3999.0 -827.0 L -3963.0 -1009.0 L -3937.0 -1124.0 L -3917.0 -1208.0 L -3907.0 -1244.0 L -3838.0 -1525.0 L -3817.0 -1607.0 L -3782.0 -1743.0 L -3748.0 -1877.0 L -3719.0 -1981.0 L -3670.0 -2151.0 L -3668.0 -2162.0 L -3643.0 -2246.0 L -3610.0 -2343.0 L -3527.0 -2578.0 L -3524.0 -2584.0 L -3490.0 -2671.0 L -3458.0 -2740.0 L -3442.0 -2772.0 L -3378.0 -2898.0 L -3325.0 -2993.0 L -3252.0 -3115.0 L -3234.0 -3145.0 L -3101.0 -3339.0 L -3082.0 -3366.0 L -3009.0 -3461.0 L -2960.0 -3523.0 L -2889.0 -3607.0 L -2871.9 -3627.1" class="track" data-sector="17"/>
      <path d="M -2871.9 -3627.1 L -2832.0 -3674.0 L -2710.0 -3807.0 L -2617.0 -3900.0 L -2503.0 -4010.0 L -2484.0 -4027.0 L -2392.0 -4112.0 L -2316.0 -4182.0 L -2169.0 -4322.0 L -2151.0 -4338.0 L -2115.0 -4373.0 L -1975.0 -4498.0 L -1802.0 -4650.0 L -1754.0 -4690.0 L -1671.0 -4757.0 L -1587.0 -4821.0 L -1511.0 -4877.0 L -1456.0 -4920.0 L -1344.0 -5004.0 L -1293.0 -5041.0 L -1202.0 -5110.0 L -1029.0 -5239.0 L -1027.2 -5240.3" class="track" data-sector="18"/>
      <path d="M -1027.2 -5240.3 L -1006.0 -5255.0 L -915.0 -5323.0 L -886.0 -5346.0 L -774.0 -5429.0 L -759.0 -5441.0 L -689.0 -5492.0 L -684.0 -5497.0 L -616.0 -5548.0 L -613.0 -5549.0 L -579.0 -5576.0 L -553.0 -5591.0 L -462.0 -5629.0 L -442.0 -5636.0 L -395.0 -5640.0 L -382.0 -5639.0 L -330.0 -5638.0 L -313.0 -5637.0 L -249.0 -5622.0 L -225.0 -5613.0 L -166.0 -5583.0 L -157.0 -5577.0 L -128.0 -5556.0 L -105.0 -5536.0 L -61.0 -5487.0 L -56.0 -5480.0 L -26.0 -5432.0 L -25.0 -5430.0 L 9.0 -5343.0 L 17.0 -5309.0 L 20.0 -5285.0 L 22.0 -5239.0 L 23.0 -5166.0 L 22.0 -5156.0 L 12.0 -5069.0 L -2.0 -5003.0 L -4.0 -4990.0 L -33.0 -4865.0 L -37.0 -4851.0 L -50.0 -4791.0 L -62.0 -4738.0 L -69.0 -4702.0 L -75.5 -4672.6" class="track" data-sector="19"/>
      <path d="M -75.5 -4672.6 L -92.0 -4598.0 L -98.0 -4567.0 L -114.0 -4500.0 L -143.0 -4359.0 L -150.0 -4325.0 L -169.0 -4228.0 L -178.0 -4178.0 L -196.0 -4083.0 L -203.0 -4051.0 L -226.0 -3943.0 L -230.0 -3925.0 L -249.0 -3832.0 L -256.0 -3796.0 L -288.0 -3651.0 L -294.0 -3628.0 L -315.0 -3532.0 L -319.0 -3518.0 L -341.0 -3417.0 L -355.0 -3355.0 L -387.0 -3211.0 L -392.0 -3190.0 L -424.0 -3047.0 L -434.0 -3003.0 L -448.0 -2942.0 L -481.0 -2789.0 L -484.0 -2781.0 L -507.0 -2679.0 L -532.0 -2576.0 L -538.0 -2545.0 L -540.3 -2535.0" class="track" data-sector="20"/>
      <path d="M -540.3 -2535.0 L -557.0 -2464.0 L -593.0 -2296.0 L -600.0 -2267.0 L -616.0 -2191.0 L -637.0 -2095.0 L -653.0 -2015.0 L -681.0 -1890.0 L -730.0 -1663.0 L -756.0 -1551.0 L -759.0 -1534.0 L -787.0 -1417.0 L -787.0 -1413.0 L -816.0 -1296.0 L -831.0 -1232.0 L -868.0 -1100.0 L -951.0 -814.0 L -961.0 -781.0 L -1005.0 -634.0 L -1049.0 -500.0 L -1067.0 -446.0 L -1085.0 -389.0 L -1127.0 -262.0 L -1128.0 -257.0 L -1173.0 -123.0 L -1232.0 47.0 L -1250.0 101.0 L -1302.0 246.0 L -1291.0 216.0" class="track" data-sector="21"/>
    </g>

    <g id="marshal-lights">
      <g class="marshal-light-marker" data-light="1">
        <rect x="-1371.3" y="135.7" width="160.7" height="160.7" class="marshal-light-bg"/>
        <text x="-1291.0" y="216.0" class="marshal-light-label">1</text>
      </g>
      <g class="marshal-light-marker" data-light="2">
        <rect x="-2618.2" y="3876.2" width="160.7" height="160.7" class="marshal-light-bg"/>
        <text x="-2537.8" y="3956.5" class="marshal-light-label">2</text>
      </g>
      <g class="marshal-light-marker" data-light="3">
        <rect x="-3481.5" y="5658.0" width="160.7" height="160.7" class="marshal-light-bg"/>
        <text x="-3401.1" y="5738.4" class="marshal-light-label">3</text>
      </g>
      <g class="marshal-light-marker" data-light="4">
        <rect x="-3704.9" y="8758.8" width="160.7" height="160.7" class="marshal-light-bg"/>
        <text x="-3624.6" y="8839.2" class="marshal-light-label">4</text>
      </g>
      <g class="marshal-light-marker" data-light="5">
        <rect x="-4678.0" y="10228.9" width="160.7" height="160.7" class="marshal-light-bg"/>
        <text x="-4597.7" y="10309.2" class="marshal-light-label">5</text>
      </g>
      <g class="marshal-light-marker" data-light="6">
        <rect x="-4865.4" y="12722.7" width="160.7" height="160.7" class="marshal-light-bg"/>
        <text x="-4785.0" y="12803.0" class="marshal-light-label">6</text>
      </g>
      <g class="marshal-light-marker" data-light="7">
        <rect x="-3955.1" y="15606.1" width="160.7" height="160.7" class="marshal-light-bg"/>
        <text x="-3874.7" y="15686.5" class="marshal-light-label">7</text>
      </g>
      <g class="marshal-light-marker" data-light="8">
        <rect x="-3636.8" y="20404.1" width="160.7" height="160.7" class="marshal-light-bg"/>
        <text x="-3556.5" y="20484.5" class="marshal-light-label">8</text>
      </g>
      <g class="marshal-light-marker" data-light="9">
        <rect x="-4834.9" y="20420.9" width="160.7" height="160.7" class="marshal-light-bg"/>
        <text x="-4754.6" y="20501.2" class="marshal-light-label">9</text>
      </g>
      <g class="marshal-light-marker" data-light="10">
        <rect x="-4322.9" y="17569.0" width="160.7" height="160.7" class="marshal-light-bg"/>
        <text x="-4242.6" y="17649.4" class="marshal-light-label">10</text>
      </g>
      <g class="marshal-light-marker" data-light="11">
        <rect x="-5869.8" y="14566.9" width="160.7" height="160.7" class="marshal-light-bg"/>
        <text x="-5789.4" y="14647.2" class="marshal-light-label">11</text>
      </g>
      <g class="marshal-light-marker" data-light="12">
        <rect x="-5181.1" y="11700.5" width="160.7" height="160.7" class="marshal-light-bg"/>
        <text x="-5100.7" y="11780.8" class="marshal-light-label">12</text>
      </g>
      <g class="marshal-light-marker" data-light="13">
        <rect x="-4861.2" y="9340.7" width="160.7" height="160.7" class="marshal-light-bg"/>
        <text x="-4780.9" y="9421.1" class="marshal-light-label">13</text>
      </g>
      <g class="marshal-light-marker" data-light="14">
        <rect x="-3937.7" y="5436.3" width="160.7" height="160.7" class="marshal-light-bg"/>
        <text x="-3857.3" y="5516.6" class="marshal-light-label">14</text>
      </g>
      <g class="marshal-light-marker" data-light="15">
        <rect x="-3221.5" y="3573.6" width="160.7" height="160.7" class="marshal-light-bg"/>
        <text x="-3141.2" y="3653.9" class="marshal-light-label">15</text>
      </g>
      <g class="marshal-light-marker" data-light="16">
        <rect x="-3513.0" y="1909.1" width="160.7" height="160.7" class="marshal-light-bg"/>
        <text x="-3432.6" y="1989.4" class="marshal-light-label">16</text>
      </g>
      <g class="marshal-light-marker" data-light="17">
        <rect x="-4128.7" y="-611.1" width="160.7" height="160.7" class="marshal-light-bg"/>
        <text x="-4048.4" y="-530.8" class="marshal-light-label">17</text>
      </g>
      <g class="marshal-light-marker" data-light="18">
        <rect x="-2905.5" y="-3761.8" width="160.7" height="160.7" class="marshal-light-bg"/>
        <text x="-2825.1" y="-3681.5" class="marshal-light-label">18</text>
      </g>
      <g class="marshal-light-marker" data-light="19">
        <rect x="-1107.5" y="-5320.6" width="160.7" height="160.7" class="marshal-light-bg"/>
        <text x="-1027.2" y="-5240.3" class="marshal-light-label">19</text>
      </g>
      <g class="marshal-light-marker" data-light="20">
        <rect x="-113.7" y="-4944.2" width="160.7" height="160.7" class="marshal-light-bg"/>
        <text x="-33.3" y="-4863.9" class="marshal-light-label">20</text>
      </g>
      <g class="marshal-light-marker" data-light="21">
        <rect x="-561.0" y="-2871.1" width="160.7" height="160.7" class="marshal-light-bg"/>
        <text x="-480.6" y="-2790.7" class="marshal-light-label">21</text>
      </g>
    </g>

    <g id="marshal-sectors">
      <g class="marshal-sector-marker" data-sector="1" data-length="0.0">
        <polygon points="-1291.0,23.2 -1458.0,312.4 -1124.0,312.4" class="marshal-sector-bg"/>
        <text x="-1291.0" y="216.0" class="marshal-sector-label">1</text>
      </g>
      <g class="marshal-sector-marker" data-sector="2" data-length="4098.8">
        <polygon points="-2578.9,3910.9 -2745.9,4200.2 -2411.9,4200.2" class="marshal-sector-bg"/>
        <text x="-2578.9" y="4103.8" class="marshal-sector-label">2</text>
      </g>
      <g class="marshal-sector-marker" data-sector="3" data-length="6511.3">
        <polygon points="-3372.2,5685.9 -3539.2,5975.1 -3205.3,5975.1" class="marshal-sector-bg"/>
        <text x="-3372.2" y="5878.7" class="marshal-sector-label">3</text>
      </g>
      <g class="marshal-sector-marker" data-sector="4" data-length="9630.7">
        <polygon points="-3639.0,8784.0 -3805.9,9073.2 -3472.0,9073.2" class="marshal-sector-bg"/>
        <text x="-3639.0" y="8976.8" class="marshal-sector-label">4</text>
      </g>
      <g class="marshal-sector-marker" data-sector="5" data-length="11465.2">
        <polygon points="-4602.2,10192.7 -4769.2,10481.9 -4435.2,10481.9" class="marshal-sector-bg"/>
        <text x="-4602.2" y="10385.5" class="marshal-sector-label">5</text>
      </g>
      <g class="marshal-sector-marker" data-sector="6" data-length="14379.2">
        <polygon points="-4931.1,12763.9 -5098.1,13053.1 -4764.2,13053.1" class="marshal-sector-bg"/>
        <text x="-4931.1" y="12956.7" class="marshal-sector-label">6</text>
      </g>
      <g class="marshal-sector-marker" data-sector="7" data-length="17665.9">
        <polygon points="-3862.5,15564.3 -4029.5,15853.5 -3695.6,15853.5" class="marshal-sector-bg"/>
        <text x="-3862.5" y="15757.1" class="marshal-sector-label">7</text>
      </g>
      <g class="marshal-sector-marker" data-sector="8" data-length="22510.0">
        <polygon points="-3563.3,20363.0 -3730.3,20652.2 -3396.3,20652.2" class="marshal-sector-bg"/>
        <text x="-3563.3" y="20555.8" class="marshal-sector-label">8</text>
      </g>
      <g class="marshal-sector-marker" data-sector="9" data-length="25476.6">
        <polygon points="-4787.8,20467.1 -4954.8,20756.3 -4620.9,20756.3" class="marshal-sector-bg"/>
        <text x="-4787.8" y="20659.9" class="marshal-sector-label">9</text>
      </g>
      <g class="marshal-sector-marker" data-sector="10" data-length="28457.5">
        <polygon points="-4184.9,17638.7 -4351.9,17927.9 -4017.9,17927.9" class="marshal-sector-bg"/>
        <text x="-4184.9" y="17831.5" class="marshal-sector-label">10</text>
      </g>
      <g class="marshal-sector-marker" data-sector="11" data-length="32112.1">
        <polygon points="-5779.5,14597.3 -5946.5,14886.6 -5612.5,14886.6" class="marshal-sector-bg"/>
        <text x="-5779.5" y="14790.1" class="marshal-sector-label">11</text>
      </g>
      <g class="marshal-sector-marker" data-sector="12" data-length="35112.1">
        <polygon points="-5132.9,11707.9 -5299.9,11997.2 -4965.9,11997.2" class="marshal-sector-bg"/>
        <text x="-5132.9" y="11900.8" class="marshal-sector-label">12</text>
      </g>
      <g class="marshal-sector-marker" data-sector="13" data-length="37548.5">
        <polygon points="-4803.3,9301.3 -4970.3,9590.5 -4636.3,9590.5" class="marshal-sector-bg"/>
        <text x="-4803.3" y="9494.1" class="marshal-sector-label">13</text>
      </g>
      <g class="marshal-sector-marker" data-sector="14" data-length="41566.0">
        <polygon points="-3834.8,5489.5 -4001.8,5778.7 -3667.8,5778.7" class="marshal-sector-bg"/>
        <text x="-3834.8" y="5682.3" class="marshal-sector-label">14</text>
      </g>
      <g class="marshal-sector-marker" data-sector="15" data-length="43720.5">
        <polygon points="-3177.8,3594.4 -3344.8,3883.7 -3010.9,3883.7" class="marshal-sector-bg"/>
        <text x="-3177.8" y="3787.3" class="marshal-sector-label">15</text>
      </g>
      <g class="marshal-sector-marker" data-sector="16" data-length="45449.9">
        <polygon points="-3365.9,1928.8 -3532.9,2218.0 -3198.9,2218.0" class="marshal-sector-bg"/>
        <text x="-3365.9" y="2121.6" class="marshal-sector-label">16</text>
      </g>
      <g class="marshal-sector-marker" data-sector="17" data-length="48158.5">
        <polygon points="-4058.0,-638.2 -4225.0,-349.0 -3891.1,-349.0" class="marshal-sector-bg"/>
        <text x="-4058.0" y="-445.4" class="marshal-sector-label">17</text>
      </g>
      <g class="marshal-sector-marker" data-sector="18" data-length="51602.9">
        <polygon points="-2871.9,-3820.0 -3038.8,-3530.7 -2704.9,-3530.7" class="marshal-sector-bg"/>
        <text x="-2871.9" y="-3627.1" class="marshal-sector-label">18</text>
      </g>
      <g class="marshal-sector-marker" data-sector="19" data-length="54058.3">
        <polygon points="-1027.2,-5433.1 -1194.2,-5143.8 -860.2,-5143.8" class="marshal-sector-bg"/>
        <text x="-1027.2" y="-5240.3" class="marshal-sector-label">19</text>
      </g>
      <g class="marshal-sector-marker" data-sector="20" data-length="56040.8">
        <polygon points="-75.5,-4865.4 -242.5,-4576.2 91.5,-4576.2" class="marshal-sector-bg"/>
        <text x="-75.5" y="-4672.6" class="marshal-sector-label">20</text>
      </g>
      <g class="marshal-sector-marker" data-sector="21" data-length="58228.8">
        <polygon points="-540.3,-2727.8 -707.3,-2438.6 -373.4,-2438.6" class="marshal-sector-bg"/>
        <text x="-540.3" y="-2535.0" class="marshal-sector-label">21</text>
      </g>
    </g>

    <g id="corners">
      <g class="corner-marker" data-corner="1" data-length="4848.8">
        <circle cx="-2908.5" cy="4757.5" r="257.1" class="corner-bg"/>
        <text x="-2908.5" y="4757.5" class="corner-label">1</text>
      </g>
      <g class="corner-marker" data-corner="2" data-length="5441.2">
        <circle cx="-3463.2" cy="4834.6" r="257.1" class="corner-bg"/>
        <text x="-3463.2" y="4834.6" class="corner-label">2</text>
      </g>
      <g class="corner-marker" data-corner="3" data-length="6840.9">
        <circle cx="-3333.3" cy="6205.8" r="257.1" class="corner-bg"/>
        <text x="-3333.3" y="6205.8" class="corner-label">3</text>
      </g>
      <g class="corner-marker" data-corner="4" data-length="9869.6">
        <circle cx="-3726.9" cy="9192.7" r="257.1" class="corner-bg"/>
        <text x="-3726.9" y="9192.7" class="corner-label">4</text>
      </g>
      <g class="corner-marker" data-corner="5" data-length="10930.1">
        <circle cx="-4503.3" cy="9863.1" r="257.1" class="corner-bg"/>
        <text x="-4503.3" y="9863.1" class="corner-label">5</text>
      </g>
      <g class="corner-marker" data-corner="6" data-length="12458.8">
        <circle cx="-4285.3" cy="11311.6" r="257.1" class="corner-bg"/>
        <text x="-4285.3" y="11311.6" class="corner-label">6</text>
      </g>
      <g class="corner-marker" data-corner="7" data-length="13624.5">
        <circle cx="-4405.4" cy="12447.5" r="257.1" class="corner-bg"/>
        <text x="-4405.4" y="12447.5" class="corner-label">7</text>
      </g>
      <g class="corner-marker" data-corner="8" data-length="14369.7">
        <circle cx="-4926.7" cy="12948.3" r="257.1" class="corner-bg"/>
        <text x="-4926.7" y="12948.3" class="corner-label">8</text>
      </g>
      <g class="corner-marker" data-corner="9" data-length="15927.0">
        <circle cx="-4851.7" cy="14451.2" r="257.1" class="corner-bg"/>
        <text x="-4851.7" y="14451.2" class="corner-label">9</text>
      </g>
      <g class="corner-marker" data-corner="10" data-length="16954.1">
        <circle cx="-4049.9" cy="15075.2" r="257.1" class="corner-bg"/>
        <text x="-4049.9" y="15075.2" class="corner-label">10</text>
      </g>
      <g class="corner-marker" data-corner="11" data-length="17966.9">
        <circle cx="-3793.6" cy="16049.9" r="257.1" class="corner-bg"/>
        <text x="-3793.6" y="16049.9" class="corner-label">11</text>
      </g>
      <g class="corner-marker" data-corner="12" data-length="18850.7">
        <circle cx="-3573.7" cy="16905.0" r="257.1" class="corner-bg"/>
        <text x="-3573.7" y="16905.0" class="corner-label">12</text>
      </g>
      <g class="corner-marker" data-corner="13" data-length="24129.4">
        <circle cx="-4317.6" cy="21791.1" r="257.1" class="corner-bg"/>
        <text x="-4317.6" y="21791.1" class="corner-label">13</text>
      </g>
      <g class="corner-marker" data-corner="14" data-length="27315.8">
        <circle cx="-4128.7" cy="18964.6" r="257.1" class="corner-bg"/>
        <text x="-4128.7" y="18964.6" class="corner-label">14</text>
      </g>
      <g class="corner-marker" data-corner="15" data-length="29360.4">
        <circle cx="-4524.8" cy="16996.5" r="257.1" class="corner-bg"/>
        <text x="-4524.8" y="16996.5" class="corner-label">15</text>
      </g>
      <g class="corner-marker" data-corner="16" data-length="30650.2">
        <circle cx="-4900.2" cy="15776.1" r="257.1" class="corner-bg"/>
        <text x="-4900.2" y="15776.1" class="corner-label">16</text>
      </g>
      <g class="corner-marker" data-corner="17" data-length="31658.2">
        <circle cx="-5687.9" cy="15233.1" r="257.1" class="corner-bg"/>
        <text x="-5687.9" y="15233.1" class="corner-label">17</text>
      </g>
      <g class="corner-marker" data-corner="18" data-length="33893.9">
        <circle cx="-5575.5" cy="13034.8" r="257.1" class="corner-bg"/>
        <text x="-5575.5" y="13034.8" class="corner-label">18</text>
      </g>
      <g class="corner-marker" data-corner="19" data-length="35871.7">
        <circle cx="-4995.6" cy="11155.1" r="257.1" class="corner-bg"/>
        <text x="-4995.6" y="11155.1" class="corner-label">19</text>
      </g>
      <g class="corner-marker" data-corner="20" data-length="37949.7">
        <circle cx="-4663.2" cy="9118.4" r="257.1" class="corner-bg"/>
        <text x="-4663.2" y="9118.4" class="corner-label">20</text>
      </g>
      <g class="corner-marker" data-corner="21" data-length="39956.1">
        <circle cx="-3883.8" cy="7285.6" r="257.1" class="corner-bg"/>
        <text x="-3883.8" y="7285.6" class="corner-label">21</text>
      </g>
      <g class="corner-marker" data-corner="22" data-length="42387.7">
        <circle cx="-3912.9" cy="4866.4" r="257.1" class="corner-bg"/>
        <text x="-3912.9" y="4866.4" class="corner-label">22</text>
      </g>
      <g class="corner-marker" data-corner="23" data-length="43281.0">
        <circle cx="-3409.8" cy="4155.1" r="257.1" class="corner-bg"/>
        <text x="-3409.8" y="4155.1" class="corner-label">23</text>
      </g>
      <g class="corner-marker" data-corner="24" data-length="44714.2">
        <circle cx="-3104.1" cy="2806.2" r="257.1" class="corner-bg"/>
        <text x="-3104.1" y="2806.2" class="corner-label">24</text>
      </g>
      <g class="corner-marker" data-corner="25" data-length="47618.7">
        <circle cx="-4073.9" cy="93.8" r="257.1" class="corner-bg"/>
        <text x="-4073.9" y="93.8" class="corner-label">25</text>
      </g>
      <g class="corner-marker" data-corner="26" data-length="51239.8">
        <circle cx="-3098.0" cy="-3343.3" r="257.1" class="corner-bg"/>
        <text x="-3098.0" y="-3343.3" class="corner-label">26</text>
      </g>
      <g class="corner-marker" data-corner="27" data-length="55104.5">
        <circle cx="-126.0" cy="-5554.3" r="257.1" class="corner-bg"/>
        <text x="-126.0" y="-5554.3" class="corner-label">27</text>
      </g>
    </g>

    <g id="start-finish" data-track-x="-1291.0" data-track-y="216.0" data-lap-distance="61147.6">
      <polygon points="-1412.0,-855.1 -1743.6,50.2 -2286.8,-148.8 -1955.2,-1054.1" class="checker-border"/>
      <polygon points="-1412.0,-855.1 -1478.3,-674.0 -1659.4,-740.4 -1593.0,-921.4" class="checker-black"/>
      <polygon points="-1593.0,-921.4 -1659.4,-740.4 -1840.4,-806.7 -1774.1,-987.8" class="checker-white"/>
      <polygon points="-1774.1,-987.8 -1840.4,-806.7 -2021.5,-873.0 -1955.2,-1054.1" class="checker-black"/>
      <polygon points="-1478.3,-674.0 -1544.6,-493.0 -1725.7,-559.3 -1659.4,-740.4" class="checker-white"/>
      <polygon points="-1659.4,-740.4 -1725.7,-559.3 -1906.8,-625.7 -1840.4,-806.7" class="checker-black"/>
      <polygon points="-1840.4,-806.7 -1906.8,-625.7 -2087.8,-692.0 -2021.5,-873.0" class="checker-white"/>
      <polygon points="-1544.6,-493.0 -1611.0,-311.9 -1792.0,-378.3 -1725.7,-559.3" class="checker-black"/>
      <polygon points="-1725.7,-559.3 -1792.0,-378.3 -1973.1,-444.6 -1906.8,-625.7" class="checker-white"/>
      <polygon points="-1906.8,-625.7 -1973.1,-444.6 -2154.1,-510.9 -2087.8,-692.0" class="checker-black"/>
      <polygon points="-1611.0,-311.9 -1677.3,-130.9 -1858.4,-197.2 -1792.0,-378.3" class="checker-white"/>
      <polygon points="-1792.0,-378.3 -1858.4,-197.2 -2039.4,-263.5 -1973.1,-444.6" class="checker-black"/>
      <polygon points="-1973.1,-444.6 -2039.4,-263.5 -2220.5,-329.9 -2154.1,-510.9" class="checker-white"/>
      <polygon points="-1677.3,-130.9 -1743.6,50.2 -1924.7,-16.2 -1858.4,-197.2" class="checker-black"/>
      <polygon points="-1858.4,-197.2 -1924.7,-16.2 -2105.7,-82.5 -2039.4,-263.5" class="checker-white"/>
      <polygon points="-2039.4,-263.5 -2105.7,-82.5 -2286.8,-148.8 -2220.5,-329.9" class="checker-black"/>
      <polyline points="-2648.6,745.4 -2457.4,1157.7 -2045.1,966.5" class="chevron"/>
      <polyline points="-2737.1,986.8 -2545.9,1399.1 -2133.6,1207.9" class="chevron"/>
      <polyline points="-2825.5,1228.2 -2634.3,1640.5 -2222.0,1449.3" class="chevron"/>
    </g>

    <g id="car-markers"></g>

  </g>
</svg>
