<?xml version="1.0" encoding="utf-8"?>
<?xml-stylesheet type="text/css" href="../../css/tracks.css"?>
<svg xmlns="http://www.w3.org/2000/svg" viewBox="-480.0 318.2 960.0 636.4">
  <title>Las Vegas</title>

  <g id="track-root" transform="translate(0, 636.43) scale(1, -1) scale(0.041036) translate(1929.00, -8025.50) rotate(90, -1929.00, 8025.50)" data-scale="0.041036" data-rotation="90.0">

    <g id="track-outline">
      <path d="M 2105.0 -575.0 L 2155.0 -516.0 L 2273.0 -380.0 L 2298.0 -352.0 L 2394.0 -245.0 L 2504.0 -121.0 L 2587.0 -28.0 L 2709.0 107.0 L 2768.0 173.0 L 2890.0 310.0 L 3007.0 439.0 L 3100.0 544.0 L 3151.0 601.0 L 3242.0 703.0 L 3281.0 746.0 L 3323.0 793.0 L 3399.0 876.0 L 3468.0 953.0 L 3504.0 992.0 L 3559.0 1053.0 L 3594.0 1091.0 L 3631.3 1135.0" class="track-outline" data-sector="1"/>
      <path d="M 3631.3 1135.0 L 3661.0 1170.0 L 3708.0 1234.0 L 3717.0 1249.0 L 3750.0 1310.0 L 3771.0 1369.0 L 3782.0 1410.0 L 3787.0 1444.0 L 3789.0 1534.0 L 3778.0 1600.0 L 3767.0 1637.0 L 3764.0 1646.0 L 3735.0 1710.0 L 3711.0 1750.0 L 3670.0 1803.0 L 3623.0 1850.0 L 3572.0 1890.0 L 3517.0 1922.0 L 3455.0 1949.0 L 3417.0 1961.0 L 3372.0 1973.0 L 3314.0 1984.0 L 3266.0 1990.0 L 3222.0 1992.0 L 3172.0 1992.0 L 3131.0 1990.0 L 3023.0 1972.0 L 2967.0 1957.0 L 2920.0 1941.0 L 2867.0 1918.0 L 2786.0 1877.0 L 2664.0 1802.0 L 2624.0 1775.0 L 2566.0 1732.0 L 2491.0 1671.0 L 2464.0 1647.0 L 2389.0 1575.0 L 2376.8 1562.8" class="track-outline" data-sector="2"/>
      <path d="M 2376.8 1562.8 L 2343.0 1529.0 L 2298.0 1484.0 L 2254.0 1441.0 L 2228.0 1417.0 L 2133.0 1330.0 L 2098.0 1301.0 L 2011.0 1247.0 L 1964.0 1223.0 L 1908.0 1201.0 L 1860.0 1187.0 L 1729.0 1165.0 L 1664.0 1162.0 L 1619.0 1165.0 L 1563.0 1171.0 L 1475.0 1188.0 L 1422.0 1201.0 L 1402.0 1207.0 L 1283.0 1249.0 L 1201.0 1288.0 L 1153.0 1314.0 L 1107.0 1340.0 L 1035.0 1388.0 L 997.0 1416.0 L 946.0 1460.0 L 863.0 1542.0 L 841.0 1569.0 L 808.0 1610.0 L 761.0 1676.0 L 734.0 1719.0 L 660.0 1865.0 L 627.0 1960.0 L 609.0 2027.0 L 589.0 2127.0 L 576.0 2211.0 L 560.0 2340.0 L 550.0 2438.0 L 541.0 2531.0 L 535.0 2599.0 L 526.0 2722.0" class="track-outline" data-sector="3"/>
      <path d="M 526.0 2722.0 L 517.0 2857.0 L 511.0 2946.0 L 505.0 3047.0 L 496.0 3184.0 L 490.0 3277.0 L 482.0 3426.0 L 475.0 3576.0 L 471.0 3657.0 L 465.0 3817.0 L 456.0 4043.0 L 450.0 4177.0 L 448.0 4239.0 L 443.0 4354.0 L 439.0 4450.0 L 435.0 4552.0 L 431.0 4655.0 L 426.0 4776.0 L 419.0 4960.0 L 414.0 5114.0 L 409.0 5252.0 L 403.0 5403.0 L 400.0 5491.0 L 397.0 5586.0 L 390.0 5784.0 L 384.0 5966.0 L 381.0 6054.0 L 375.0 6216.0 L 369.0 6378.0 L 363.3 6543.7" class="track-outline" data-sector="4"/>
      <path d="M 363.3 6543.7 L 360.0 6638.0 L 353.0 6850.0 L 346.0 7051.0 L 338.0 7260.0 L 327.0 7579.0 L 325.0 7645.0 L 319.0 7820.0 L 314.0 7955.0 L 308.0 8132.0 L 299.0 8391.0 L 295.0 8500.0 L 289.0 8666.0 L 283.0 8827.0 L 278.9 8954.5" class="track-outline" data-sector="5"/>
      <path d="M 278.9 8954.5 L 277.0 9012.0 L 272.0 9165.0 L 268.0 9276.0 L 265.0 9352.0 L 260.0 9493.0 L 259.0 9528.0 L 257.0 9597.0 L 253.0 9712.0 L 249.0 9818.0 L 246.0 9891.0 L 245.0 9924.0 L 242.0 10000.0 L 242.0 10070.0 L 249.0 10174.0 L 257.0 10231.0 L 271.0 10301.0 L 295.0 10389.0 L 307.0 10424.0 L 328.0 10475.0 L 349.0 10517.0 L 370.0 10554.0 L 387.0 10578.0 L 410.0 10605.0 L 450.0 10642.0 L 482.0 10663.0 L 526.0 10682.0 L 554.0 10690.0 L 642.0 10704.0 L 709.0 10707.0 L 758.0 10708.0 L 791.0 10708.0 L 844.0 10708.0 L 915.0 10709.0 L 979.0 10709.0 L 1043.0 10709.0 L 1093.0 10709.0 L 1206.0 10710.0 L 1298.0 10711.0 L 1346.0 10711.0 L 1444.0 10712.0 L 1525.0 10713.0 L 1677.0 10714.0 L 1796.0 10715.0 L 1920.0 10715.0 L 2059.0 10716.0 L 2134.0 10717.0 L 2154.0 10718.0 L 2227.7 10723.0" class="track-outline" data-sector="6"/>
      <path d="M 2227.7 10723.0 L 2257.0 10725.0 L 2344.0 10737.0 L 2470.0 10765.0 L 2610.0 10807.0 L 2764.0 10868.0 L 2830.0 10899.0 L 2904.0 10939.0 L 3003.0 10998.0 L 3087.0 11051.0 L 3173.0 11110.0 L 3255.0 11175.0 L 3333.0 11246.0 L 3397.0 11312.0 L 3416.8 11332.8" class="track-outline" data-sector="7"/>
      <path d="M 3416.8 11332.8 L 3418.0 11334.0 L 3546.0 11495.0 L 3572.0 11529.0 L 3641.0 11633.0 L 3664.0 11673.0 L 3732.0 11801.0 L 3761.0 11866.0 L 3787.0 11932.0 L 3811.0 12000.0 L 3839.0 12096.0 L 3863.0 12205.0 L 3873.0 12281.0 L 3876.0 12336.0 L 3875.0 12383.0 L 3874.8 12384.9" class="track-outline" data-sector="8"/>
      <path d="M 3874.8 12384.9 L 3868.0 12443.0 L 3859.0 12490.0 L 3844.0 12541.0 L 3836.0 12563.0 L 3834.0 12565.0 L 3816.0 12605.0 L 3792.0 12648.0 L 3740.0 12708.0 L 3722.0 12723.0 L 3667.0 12754.0 L 3638.0 12766.0 L 3603.0 12777.0 L 3578.0 12785.0 L 3527.0 12802.0 L 3474.0 12825.0 L 3442.0 12843.0 L 3404.0 12874.0 L 3377.0 12901.0 L 3358.0 12925.0 L 3330.0 12972.0 L 3318.0 13001.0 L 3309.0 13030.0 L 3303.0 13061.0 L 3300.0 13149.0 L 3309.0 13199.0 L 3318.0 13234.0 L 3333.0 13275.0 L 3369.0 13352.0 L 3410.0 13428.0 L 3461.0 13517.0 L 3484.0 13556.0 L 3513.0 13609.0 L 3570.0 13729.0 L 3583.9 13767.3" class="track-outline" data-sector="9"/>
      <path d="M 3583.9 13767.3 L 3586.0 13773.0 L 3595.0 13805.0 L 3607.0 13862.0 L 3612.0 13905.0 L 3614.0 13948.0 L 3612.0 13983.0 L 3610.0 14003.0 L 3604.0 14046.0 L 3585.0 14111.0 L 3559.0 14165.0 L 3533.0 14202.0 L 3507.0 14227.0 L 3461.0 14258.0 L 3446.0 14264.0 L 3393.0 14281.0 L 3335.0 14288.0 L 3274.0 14291.0 L 3249.0 14291.0 L 3180.0 14289.0 L 3121.0 14288.0 L 3084.0 14286.0 L 3021.0 14285.0 L 3011.0 14285.0 L 2900.0 14283.0 L 2855.0 14283.0 L 2760.0 14280.0 L 2662.0 14278.0 L 2568.0 14277.0 L 2462.0 14274.0 L 2380.0 14272.0 L 2302.0 14270.0 L 2181.0 14268.0 L 2103.0 14266.0 L 2024.0 14264.0 L 1963.0 14263.0 L 1866.0 14261.0 L 1795.0 14260.0 L 1629.0 14257.0 L 1554.0 14257.0 L 1464.0 14257.0 L 1372.0 14257.0 L 1228.0 14258.0 L 1183.0 14258.0 L 1052.0 14259.0 L 975.6 14259.8" class="track-outline" data-sector="10"/>
      <path d="M 975.6 14259.8 L 952.0 14260.0 L 851.0 14259.0 L 766.0 14260.0 L 584.0 14260.0 L 522.0 14260.0 L 309.0 14266.0 L 134.0 14279.0 L -19.0 14302.0 L -119.0 14319.0 L -182.0 14330.0 L -345.0 14365.0 L -474.0 14402.0 L -558.0 14431.0 L -665.0 14471.0 L -846.0 14549.0 L -923.0 14588.0 L -1004.0 14633.0 L -1052.5 14664.1" class="track-outline" data-sector="11"/>
      <path d="M -1052.5 14664.1 L -1071.0 14676.0 L -1140.0 14724.0 L -1195.0 14767.0 L -1278.0 14836.0 L -1344.0 14900.0 L -1415.0 14974.0 L -1465.0 15032.0 L -1522.0 15103.0 L -1565.0 15162.0 L -1609.0 15225.0 L -1674.0 15326.0 L -1727.0 15421.0 L -1766.0 15494.0 L -1794.0 15551.0 L -1842.0 15652.0 L -1879.0 15733.0 L -1920.0 15823.0 L -1973.0 15937.0 L -2011.0 16020.0 L -2076.0 16163.0 L -2114.0 16243.0 L -2141.8 16302.6" class="track-outline" data-sector="12"/>
      <path d="M -2141.8 16302.6 L -2156.0 16333.0 L -2201.0 16423.0 L -2268.0 16547.0 L -2344.0 16671.0 L -2387.0 16733.0 L -2467.0 16837.0 L -2545.0 16926.0 L -2574.0 16958.0 L -2647.0 17031.0 L -2720.0 17099.0 L -2777.0 17148.0 L -2807.0 17174.0 L -2882.0 17233.0 L -2973.0 17298.0 L -3027.0 17334.0 L -3109.0 17383.0 L -3226.0 17446.0 L -3339.0 17498.0 L -3433.0 17536.0 L -3626.0 17599.0 L -3779.0 17640.0 L -3868.0 17660.0 L -3911.0 17669.0 L -4020.4 17691.2" class="track-outline" data-sector="13"/>
      <path d="M -4020.4 17691.2 L -4044.0 17696.0 L -4122.0 17711.0 L -4141.0 17715.0 L -4190.0 17724.0 L -4292.0 17743.0 L -4336.0 17752.0 L -4388.0 17761.0 L -4454.0 17770.0 L -4538.0 17773.0 L -4561.0 17771.0 L -4598.0 17763.0 L -4633.0 17749.0 L -4677.0 17721.0 L -4723.0 17680.0 L -4740.0 17661.0 L -4757.0 17639.0 L -4781.0 17602.0 L -4800.0 17563.0 L -4818.0 17514.0 L -4831.0 17469.0 L -4843.0 17414.0 L -4854.0 17363.0 L -4861.0 17332.0 L -4879.0 17270.0 L -4900.0 17211.0 L -4924.0 17151.0 L -4962.0 17065.0 L -4989.0 17007.0 L -5014.0 16955.0 L -5046.0 16888.0 L -5077.0 16824.0 L -5110.0 16754.0 L -5167.0 16631.0 L -5242.0 16470.0 L -5265.0 16423.0 L -5325.0 16303.0 L -5370.0 16218.0 L -5382.0 16196.0 L -5421.0 16123.0 L -5496.0 15989.0 L -5540.0 15913.0 L -5591.0 15823.0 L -5630.0 15756.0 L -5695.0 15642.0 L -5813.0 15432.0 L -5861.0 15345.0 L -5925.0 15225.0 L -5935.3 15205.5" class="track-outline" data-sector="14"/>
      <path d="M -5935.3 15205.5 L -5973.0 15134.0 L -6017.0 15051.0 L -6068.0 14953.0 L -6146.0 14807.0 L -6234.0 14645.0 L -6286.0 14548.0 L -6363.0 14405.0 L -6376.0 14380.0 L -6423.0 14290.0 L -6476.0 14182.0 L -6548.0 14031.0 L -6602.0 13913.0 L -6687.0 13718.0 L -6752.0 13562.0 L -6790.0 13467.0 L -6830.0 13364.0 L -6864.0 13272.0 L -6936.0 13061.0 L -6994.0 12868.0 L -7075.0 12587.0 L -7091.0 12531.0 L -7146.0 12339.0 L -7189.0 12189.0 L -7232.0 12038.0 L -7268.0 11904.0 L -7319.0 11705.0 L -7351.0 11571.7" class="track-outline" data-sector="15"/>
      <path d="M -7351.0 11571.7 L -7366.0 11509.0 L -7400.0 11358.0 L -7434.0 11199.0 L -7471.0 11015.0 L -7500.0 10852.0 L -7526.0 10703.0 L -7554.0 10524.0 L -7573.0 10393.0 L -7588.0 10282.0 L -7612.0 10086.0 L -7616.0 10050.0 L -7636.0 9853.0 L -7657.0 9618.0 L -7673.0 9389.0 L -7685.0 9151.0 L -7694.0 8818.0 L -7695.0 8716.0 L -7696.0 8373.0 L -7696.0 8209.0 L -7695.0 7939.0 L -7695.0 7909.0 L -7693.0 7746.0 L -7691.0 7441.0 L -7689.0 7261.0 L -7689.0 7148.0 L -7687.0 6900.0 L -7686.0 6764.0 L -7685.0 6639.4" class="track-outline" data-sector="16"/>
      <path d="M -7685.0 6639.4 L -7684.0 6522.0 L -7682.0 6325.0 L -7681.0 6211.0 L -7680.0 6036.0 L -7680.0 5852.0 L -7680.0 5691.0 L -7681.0 5491.0 L -7682.0 5353.0 L -7684.0 5005.0 L -7685.0 4936.0 L -7687.0 4521.0 L -7689.0 4279.0 L -7690.0 4052.0 L -7692.0 3753.0 L -7693.0 3604.0 L -7695.0 3217.0 L -7696.0 3082.0 L -7698.0 2748.0 L -7699.0 2509.0 L -7703.0 2198.0 L -7706.0 1879.0 L -7708.0 1727.0 L -7710.0 1608.0 L -7711.0 1469.0 L -7714.0 1193.0 L -7716.0 1049.0 L -7718.0 905.0 L -7721.0 673.0 L -7722.0 592.0 L -7723.0 461.0 L -7724.0 372.0 L -7726.0 246.0 L -7728.0 72.0 L -7729.0 -54.0 L -7730.0 -144.0 L -7731.0 -218.0 L -7731.2 -232.1" class="track-outline" data-sector="17"/>
      <path d="M -7731.2 -232.1 L -7732.0 -294.0 L -7733.0 -357.0 L -7734.0 -444.0 L -7734.0 -496.0 L -7734.0 -577.0 L -7729.0 -701.0 L -7721.0 -784.0 L -7713.0 -835.0 L -7694.0 -913.0 L -7686.0 -940.0 L -7670.0 -978.0 L -7652.0 -1019.0 L -7626.0 -1066.0 L -7592.0 -1117.0 L -7575.0 -1138.0 L -7532.0 -1182.0 L -7499.0 -1207.0 L -7469.0 -1225.0 L -7443.0 -1237.0 L -7396.0 -1253.0 L -7367.0 -1260.0 L -7320.0 -1267.0 L -7266.0 -1275.0 L -7256.0 -1276.0 L -7145.0 -1306.0 L -7117.0 -1319.0 L -7067.0 -1348.0 L -7030.0 -1373.0 L -6931.0 -1450.0 L -6896.0 -1478.0 L -6850.0 -1515.0 L -6798.0 -1555.0 L -6742.0 -1593.0 L -6704.0 -1617.0 L -6661.0 -1639.0 L -6613.0 -1659.0 L -6499.0 -1690.0 L -6354.0 -1705.0 L -6150.0 -1711.9" class="track-outline" data-sector="18"/>
      <path d="M -6150.0 -1711.9 L -6089.0 -1714.0 L -6009.0 -1717.0 L -5927.0 -1720.0 L -5853.0 -1722.0 L -5742.0 -1719.0 L -5673.0 -1717.0 L -5599.0 -1715.0 L -5461.0 -1712.0 L -5366.0 -1709.0 L -5243.0 -1706.0 L -5201.0 -1705.0 L -5095.0 -1702.0 L -4963.0 -1699.0 L -4846.0 -1696.0 L -4697.0 -1692.0 L -4607.0 -1690.0 L -4500.0 -1687.0 L -4397.0 -1684.0 L -4277.0 -1681.0 L -4099.0 -1676.0 L -3943.0 -1672.0 L -3735.0 -1665.0 L -3572.0 -1660.0 L -3456.0 -1656.0 L -3345.0 -1653.0 L -3249.0 -1651.0 L -3046.8 -1647.3" class="track-outline" data-sector="19"/>
      <path d="M -3046.8 -1647.3 L -2975.0 -1646.0 L -2887.0 -1644.0 L -2681.0 -1645.0 L -2549.0 -1646.0 L -2446.0 -1647.0 L -2343.0 -1647.0 L -2098.0 -1653.0 L -1911.0 -1655.0 L -1842.0 -1655.0 L -1620.0 -1655.0 L -1493.0 -1655.0 L -1363.0 -1654.0 L -1237.0 -1653.0 L -1115.0 -1652.0 L -1013.0 -1651.0 L -825.0 -1648.0 L -688.0 -1645.0 L -610.0 -1643.0 L -508.0 -1642.0 L -358.0 -1639.0 L -230.0 -1634.0 L -96.8 -1628.0" class="track-outline" data-sector="20"/>
      <path d="M -96.8 -1628.0 L -74.0 -1627.0 L 45.0 -1622.0 L 150.0 -1617.0 L 194.0 -1615.0 L 389.0 -1603.0 L 432.0 -1600.0 L 523.0 -1590.0 L 715.0 -1559.0 L 910.0 -1507.0 L 1004.0 -1474.0 L 1075.0 -1445.0 L 1198.0 -1385.0 L 1334.0 -1306.0 L 1414.0 -1255.0 L 1471.0 -1217.0 L 1578.0 -1138.0 L 1653.0 -1074.0 L 1725.0 -1003.0 L 1744.0 -984.0 L 1857.0 -864.0 L 1924.0 -788.0 L 2105.0 -575.0" class="track-outline" data-sector="21"/>
    </g>

    <g id="track-sectors">
      <path d="M 2105.0 -575.0 L 2155.0 -516.0 L 2273.0 -380.0 L 2298.0 -352.0 L 2394.0 -245.0 L 2504.0 -121.0 L 2587.0 -28.0 L 2709.0 107.0 L 2768.0 173.0 L 2890.0 310.0 L 3007.0 439.0 L 3100.0 544.0 L 3151.0 601.0 L 3242.0 703.0 L 3281.0 746.0 L 3323.0 793.0 L 3399.0 876.0 L 3468.0 953.0 L 3504.0 992.0 L 3559.0 1053.0 L 3594.0 1091.0 L 3631.3 1135.0" class="track" data-sector="1"/>
      <path d="M 3631.3 1135.0 L 3661.0 1170.0 L 3708.0 1234.0 L 3717.0 1249.0 L 3750.0 1310.0 L 3771.0 1369.0 L 3782.0 1410.0 L 3787.0 1444.0 L 3789.0 1534.0 L 3778.0 1600.0 L 3767.0 1637.0 L 3764.0 1646.0 L 3735.0 1710.0 L 3711.0 1750.0 L 3670.0 1803.0 L 3623.0 1850.0 L 3572.0 1890.0 L 3517.0 1922.0 L 3455.0 1949.0 L 3417.0 1961.0 L 3372.0 1973.0 L 3314.0 1984.0 L 3266.0 1990.0 L 3222.0 1992.0 L 3172.0 1992.0 L 3131.0 1990.0 L 3023.0 1972.0 L 2967.0 1957.0 L 2920.0 1941.0 L 2867.0 1918.0 L 2786.0 1877.0 L 2664.0 1802.0 L 2624.0 1775.0 L 2566.0 1732.0 L 2491.0 1671.0 L 2464.0 1647.0 L 2389.0 1575.0 L 2376.8 1562.8" class="track" data-sector="2"/>
      <path d="M 2376.8 1562.8 L 2343.0 1529.0 L 2298.0 1484.0 L 2254.0 1441.0 L 2228.0 1417.0 L 2133.0 1330.0 L 2098.0 1301.0 L 2011.0 1247.0 L 1964.0 1223.0 L 1908.0 1201.0 L 1860.0 1187.0 L 1729.0 1165.0 L 1664.0 1162.0 L 1619.0 1165.0 L 1563.0 1171.0 L 1475.0 1188.0 L 1422.0 1201.0 L 1402.0 1207.0 L 1283.0 1249.0 L 1201.0 1288.0 L 1153.0 1314.0 L 1107.0 1340.0 L 1035.0 1388.0 L 997.0 1416.0 L 946.0 1460.0 L 863.0 1542.0 L 841.0 1569.0 L 808.0 1610.0 L 761.0 1676.0 L 734.0 1719.0 L 660.0 1865.0 L 627.0 1960.0 L 609.0 2027.0 L 589.0 2127.0 L 576.0 2211.0 L 560.0 2340.0 L 550.0 2438.0 L 541.0 2531.0 L 535.0 2599.0 L 526.0 2722.0" class="track" data-sector="3"/>
      <path d="M 526.0 2722.0 L 517.0 2857.0 L 511.0 2946.0 L 505.0 3047.0 L 496.0 3184.0 L 490.0 3277.0 L 482.0 3426.0 L 475.0 3576.0 L 471.0 3657.0 L 465.0 3817.0 L 456.0 4043.0 L 450.0 4177.0 L 448.0 4239.0 L 443.0 4354.0 L 439.0 4450.0 L 435.0 4552.0 L 431.0 4655.0 L 426.0 4776.0 L 419.0 4960.0 L 414.0 5114.0 L 409.0 5252.0 L 403.0 5403.0 L 400.0 5491.0 L 397.0 5586.0 L 390.0 5784.0 L 384.0 5966.0 L 381.0 6054.0 L 375.0 6216.0 L 369.0 6378.0 L 363.3 6543.7" class="track" data-sector="4"/>
      <path d="M 363.3 6543.7 L 360.0 6638.0 L 353.0 6850.0 L 346.0 7051.0 L 338.0 7260.0 L 327.0 7579.0 L 325.0 7645.0 L 319.0 7820.0 L 314.0 7955.0 L 308.0 8132.0 L 299.0 8391.0 L 295.0 8500.0 L 289.0 8666.0 L 283.0 8827.0 L 278.9 8954.5" class="track" data-sector="5"/>
      <path d="M 278.9 8954.5 L 277.0 9012.0 L 272.0 9165.0 L 268.0 9276.0 L 265.0 9352.0 L 260.0 9493.0 L 259.0 9528.0 L 257.0 9597.0 L 253.0 9712.0 L 249.0 9818.0 L 246.0 9891.0 L 245.0 9924.0 L 242.0 10000.0 L 242.0 10070.0 L 249.0 10174.0 L 257.0 10231.0 L 271.0 10301.0 L 295.0 10389.0 L 307.0 10424.0 L 328.0 10475.0 L 349.0 10517.0 L 370.0 10554.0 L 387.0 10578.0 L 410.0 10605.0 L 450.0 10642.0 L 482.0 10663.0 L 526.0 10682.0 L 554.0 10690.0 L 642.0 10704.0 L 709.0 10707.0 L 758.0 10708.0 L 791.0 10708.0 L 844.0 10708.0 L 915.0 10709.0 L 979.0 10709.0 L 1043.0 10709.0 L 1093.0 10709.0 L 1206.0 10710.0 L 1298.0 10711.0 L 1346.0 10711.0 L 1444.0 10712.0 L 1525.0 10713.0 L 1677.0 10714.0 L 1796.0 10715.0 L 1920.0 10715.0 L 2059.0 10716.0 L 2134.0 10717.0 L 2154.0 10718.0 L 2227.7 10723.0" class="track" data-sector="6"/>
      <path d="M 2227.7 10723.0 L 2257.0 10725.0 L 2344.0 10737.0 L 2470.0 10765.0 L 2610.0 10807.0 L 2764.0 10868.0 L 2830.0 10899.0 L 2904.0 10939.0 L 3003.0 10998.0 L 3087.0 11051.0 L 3173.0 11110.0 L 3255.0 11175.0 L 3333.0 11246.0 L 3397.0 11312.0 L 3416.8 11332.8" class="track" data-sector="7"/>
      <path d="M 3416.8 11332.8 L 3418.0 11334.0 L 3546.0 11495.0 L 3572.0 11529.0 L 3641.0 11633.0 L 3664.0 11673.0 L 3732.0 11801.0 L 3761.0 11866.0 L 3787.0 11932.0 L 3811.0 12000.0 L 3839.0 12096.0 L 3863.0 12205.0 L 3873.0 12281.0 L 3876.0 12336.0 L 3875.0 12383.0 L 3874.8 12384.9" class="track" data-sector="8"/>
      <path d="M 3874.8 12384.9 L 3868.0 12443.0 L 3859.0 12490.0 L 3844.0 12541.0 L 3836.0 12563.0 L 3834.0 12565.0 L 3816.0 12605.0 L 3792.0 12648.0 L 3740.0 12708.0 L 3722.0 12723.0 L 3667.0 12754.0 L 3638.0 12766.0 L 3603.0 12777.0 L 3578.0 12785.0 L 3527.0 12802.0 L 3474.0 12825.0 L 3442.0 12843.0 L 3404.0 12874.0 L 3377.0 12901.0 L 3358.0 12925.0 L 3330.0 12972.0 L 3318.0 13001.0 L 3309.0 13030.0 L 3303.0 13061.0 L 3300.0 13149.0 L 3309.0 13199.0 L 3318.0 13234.0 L 3333.0 13275.0 L 3369.0 13352.0 L 3410.0 13428.0 L 3461.0 13517.0 L 3484.0 13556.0 L 3513.0 13609.0 L 3570.0 13729.0 L 3583.9 13767.3" class="track" data-sector="9"/>
      <path d="M 3583.9 13767.3 L 3586.0 13773.0 L 3595.0 13805.0 L 3607.0 13862.0 L 3612.0 13905.0 L 3614.0 13948.0 L 3612.0 13983.0 L 3610.0 14003.0 L 3604.0 14046.0 L 3585.0 14111.0 L 3559.0 14165.0 L 3533.0 14202.0 L 3507.0 14227.0 L 3461.0 14258.0 L 3446.0 14264.0 L 3393.0 14281.0 L 3335.0 14288.0 L 3274.0 14291.0 L 3249.0 14291.0 L 3180.0 14289.0 L 3121.0 14288.0 L 3084.0 14286.0 L 3021.0 14285.0 L 3011.0 14285.0 L 2900.0 14283.0 L 2855.0 14283.0 L 2760.0 14280.0 L 2662.0 14278.0 L 2568.0 14277.0 L 2462.0 14274.0 L 2380.0 14272.0 L 2302.0 14270.0 L 2181.0 14268.0 L 2103.0 14266.0 L 2024.0 14264.0 L 1963.0 14263.0 L 1866.0 14261.0 L 1795.0 14260.0 L 1629.0 14257.0 L 1554.0 14257.0 L 1464.0 14257.0 L 1372.0 14257.0 L 1228.0 14258.0 L 1183.0 14258.0 L 1052.0 14259.0 L 975.6 14259.8" class="track" data-sector="10"/>
      <path d="M 975.6 14259.8 L 952.0 14260.0 L 851.0 14259.0 L 766.0 14260.0 L 584.0 14260.0 L 522.0 14260.0 L 309.0 14266.0 L 134.0 14279.0 L -19.0 14302.0 L -119.0 14319.0 L -182.0 14330.0 L -345.0 14365.0 L -474.0 14402.0 L -558.0 14431.0 L -665.0 14471.0 L -846.0 14549.0 L -923.0 14588.0 L -1004.0 14633.0 L -1052.5 14664.1" class="track" data-sector="11"/>
      <path d="M -1052.5 14664.1 L -1071.0 14676.0 L -1140.0 14724.0 L -1195.0 14767.0 L -1278.0 14836.0 L -1344.0 14900.0 L -1415.0 14974.0 L -1465.0 15032.0 L -1522.0 15103.0 L -1565.0 15162.0 L -1609.0 15225.0 L -1674.0 15326.0 L -1727.0 15421.0 L -1766.0 15494.0 L -1794.0 15551.0 L -1842.0 15652.0 L -1879.0 15733.0 L -1920.0 15823.0 L -1973.0 15937.0 L -2011.0 16020.0 L -2076.0 16163.0 L -2114.0 16243.0 L -2141.8 16302.6" class="track" data-sector="12"/>
      <path d="M -2141.8 16302.6 L -2156.0 16333.0 L -2201.0 16423.0 L -2268.0 16547.0 L -2344.0 16671.0 L -2387.0 16733.0 L -2467.0 16837.0 L -2545.0 16926.0 L -2574.0 16958.0 L -2647.0 17031.0 L -2720.0 17099.0 L -2777.0 17148.0 L -2807.0 17174.0 L -2882.0 17233.0 L -2973.0 17298.0 L -3027.0 17334.0 L -3109.0 17383.0 L -3226.0 17446.0 L -3339.0 17498.0 L -3433.0 17536.0 L -3626.0 17599.0 L -3779.0 17640.0 L -3868.0 17660.0 L -3911.0 17669.0 L -4020.4 17691.2" class="track" data-sector="13"/>
      <path d="M -4020.4 17691.2 L -4044.0 17696.0 L -4122.0 17711.0 L -4141.0 17715.0 L -4190.0 17724.0 L -4292.0 17743.0 L -4336.0 17752.0 L -4388.0 17761.0 L -4454.0 17770.0 L -4538.0 17773.0 L -4561.0 17771.0 L -4598.0 17763.0 L -4633.0 17749.0 L -4677.0 17721.0 L -4723.0 17680.0 L -4740.0 17661.0 L -4757.0 17639.0 L -4781.0 17602.0 L -4800.0 17563.0 L -4818.0 17514.0 L -4831.0 17469.0 L -4843.0 17414.0 L -4854.0 17363.0 L -4861.0 17332.0 L -4879.0 17270.0 L -4900.0 17211.0 L -4924.0 17151.0 L -4962.0 17065.0 L -4989.0 17007.0 L -5014.0 16955.0 L -5046.0 16888.0 L -5077.0 16824.0 L -5110.0 16754.0 L -5167.0 16631.0 L -5242.0 16470.0 L -5265.0 16423.0 L -5325.0 16303.0 L -5370.0 16218.0 L -5382.0 16196.0 L -5421.0 16123.0 L -5496.0 15989.0 L -5540.0 15913.0 L -5591.0 15823.0 L -5630.0 15756.0 L -5695.0 15642.0 L -5813.0 15432.0 L -5861.0 15345.0 L -5925.0 15225.0 L -5935.3 15205.5" class="track" data-sector="14"/>
      <path d="M -5935.3 15205.5 L -5973.0 15134.0 L -6017.0 15051.0 L -6068.0 14953.0 L -6146.0 14807.0 L -6234.0 14645.0 L -6286.0 14548.0 L -6363.0 14405.0 L -6376.0 14380.0 L -6423.0 14290.0 L -6476.0 14182.0 L -6548.0 14031.0 L -6602.0 13913.0 L -6687.0 13718.0 L -6752.0 13562.0 L -6790.0 13467.0 L -6830.0 13364.0 L -6864.0 13272.0 L -6936.0 13061.0 L -6994.0 12868.0 L -7075.0 12587.0 L -7091.0 12531.0 L -7146.0 12339.0 L -7189.0 12189.0 L -7232.0 12038.0 L -7268.0 11904.0 L -7319.0 11705.0 L -7351.0 11571.7" class="track" data-sector="15"/>
      <path d="M -7351.0 11571.7 L -7366.0 11509.0 L -7400.0 11358.0 L -7434.0 11199.0 L -7471.0 11015.0 L -7500.0 10852.0 L -7526.0 10703.0 L -7554.0 10524.0 L -7573.0 10393.0 L -7588.0 10282.0 L -7612.0 10086.0 L -7616.0 10050.0 L -7636.0 9853.0 L -7657.0 9618.0 L -7673.0 9389.0 L -7685.0 9151.0 L -7694.0 8818.0 L -7695.0 8716.0 L -7696.0 8373.0 L -7696.0 8209.0 L -7695.0 7939.0 L -7695.0 7909.0 L -7693.0 7746.0 L -7691.0 7441.0 L -7689.0 7261.0 L -7689.0 7148.0 L -7687.0 6900.0 L -7686.0 6764.0 L -7685.0 6639.4" class="track" data-sector="16"/>
      <path d="M -7685.0 6639.4 L -7684.0 6522.0 L -7682.0 6325.0 L -7681.0 6211.0 L -7680.0 6036.0 L -7680.0 5852.0 L -7680.0 5691.0 L -7681.0 5491.0 L -7682.0 5353.0 L -7684.0 5005.0 L -7685.0 4936.0 L -7687.0 4521.0 L -7689.0 4279.0 L -7690.0 4052.0 L -7692.0 3753.0 L -7693.0 3604.0 L -7695.0 3217.0 L -7696.0 3082.0 L -7698.0 2748.0 L -7699.0 2509.0 L -7703.0 2198.0 L -7706.0 1879.0 L -7708.0 1727.0 L -7710.0 1608.0 L -7711.0 1469.0 L -7714.0 1193.0 L -7716.0 1049.0 L -7718.0 905.0 L -7721.0 673.0 L -7722.0 592.0 L -7723.0 461.0 L -7724.0 372.0 L -7726.0 246.0 L -7728.0 72.0 L -7729.0 -54.0 L -7730.0 -144.0 L -7731.0 -218.0 L -7731.2 -232.1" class="track" data-sector="17"/>
      <path d="M -7731.2 -232.1 L -7732.0 -294.0 L -7733.0 -357.0 L -7734.0 -444.0 L -7734.0 -496.0 L -7734.0 -577.0 L -7729.0 -701.0 L -7721.0 -784.0 L -7713.0 -835.0 L -7694.0 -913.0 L -7686.0 -940.0 L -7670.0 -978.0 L -7652.0 -1019.0 L -7626.0 -1066.0 L -7592.0 -1117.0 L -7575.0 -1138.0 L -7532.0 -1182.0 L -7499.0 -1207.0 L -7469.0 -1225.0 L -7443.0 -1237.0 L -7396.0 -1253.0 L -7367.0 -1260.0 L -7320.0 -1267.0 L -7266.0 -1275.0 L -7256.0 -1276.0 L -7145.0 -1306.0 L -7117.0 -1319.0 L -7067.0 -1348.0 L -7030.0 -1373.0 L -6931.0 -1450.0 L -6896.0 -1478.0 L -6850.0 -1515.0 L -6798.0 -1555.0 L -6742.0 -1593.0 L -6704.0 -1617.0 L -6661.0 -1639.0 L -6613.0 -1659.0 L -6499.0 -1690.0 L -6354.0 -1705.0 L -6150.0 -1711.9" class="track" data-sector="18"/>
      <path d="M -6150.0 -1711.9 L -6089.0 -1714.0 L -6009.0 -1717.0 L -5927.0 -1720.0 L -5853.0 -1722.0 L -5742.0 -1719.0 L -5673.0 -1717.0 L -5599.0 -1715.0 L -5461.0 -1712.0 L -5366.0 -1709.0 L -5243.0 -1706.0 L -5201.0 -1705.0 L -5095.0 -1702.0 L -4963.0 -1699.0 L -4846.0 -1696.0 L -4697.0 -1692.0 L -4607.0 -1690.0 L -4500.0 -1687.0 L -4397.0 -1684.0 L -4277.0 -1681.0 L -4099.0 -1676.0 L -3943.0 -1672.0 L -3735.0 -1665.0 L -3572.0 -1660.0 L -3456.0 -1656.0 L -3345.0 -1653.0 L -3249.0 -1651.0 L -3046.8 -1647.3" class="track" data-sector="19"/>
      <path d="M -3046.8 -1647.3 L -2975.0 -1646.0 L -2887.0 -1644.0 L -2681.0 -1645.0 L -2549.0 -1646.0 L -2446.0 -1647.0 L -2343.0 -1647.0 L -2098.0 -1653.0 L -1911.0 -1655.0 L -1842.0 -1655.0 L -1620.0 -1655.0 L -1493.0 -1655.0 L -1363.0 -1654.0 L -1237.0 -1653.0 L -1115.0 -1652.0 L -1013.0 -1651.0 L -825.0 -1648.0 L -688.0 -1645.0 L -610.0 -1643.0 L -508.0 -1642.0 L -358.0 -1639.0 L -230.0 -1634.0 L -96.8 -1628.0" class="track" data-sector="20"/>
      <path d="M -96.8 -1628.0 L -74.0 -1627.0 L 45.0 -1622.0 L 150.0 -1617.0 L 194.0 -1615.0 L 389.0 -1603.0 L 432.0 -1600.0 L 523.0 -1590.0 L 715.0 -1559.0 L 910.0 -1507.0 L 1004.0 -1474.0 L 1075.0 -1445.0 L 1198.0 -1385.0 L 1334.0 -1306.0 L 1414.0 -1255.0 L 1471.0 -1217.0 L 1578.0 -1138.0 L 1653.0 -1074.0 L 1725.0 -1003.0 L 1744.0 -984.0 L 1857.0 -864.0 L 1924.0 -788.0 L 2105.0 -575.0" class="track" data-sector="21"/>
    </g>

    <g id="marshal-lights">
      <g class="marshal-light-marker" data-light="1">
        <rect x="2109.5" y="-559.1" width="121.8" height="121.8" class="marshal-light-bg"/>
        <text x="2170.5" y="-498.2" class="marshal-light-label">1</text>
      </g>
      <g class="marshal-light-marker" data-light="2">
        <rect x="3576.6" y="1081.4" width="121.8" height="121.8" class="marshal-light-bg"/>
        <text x="3637.5" y="1142.3" class="marshal-light-label">2</text>
      </g>
      <g class="marshal-light-marker" data-light="3">
        <rect x="2227.5" y="1413.7" width="121.8" height="121.8" class="marshal-light-bg"/>
        <text x="2288.4" y="1474.6" class="marshal-light-label">3</text>
      </g>
      <g class="marshal-light-marker" data-light="4">
        <rect x="464.4" y="2670.9" width="121.8" height="121.8" class="marshal-light-bg"/>
        <text x="525.3" y="2731.8" class="marshal-light-label">4</text>
      </g>
      <g class="marshal-light-marker" data-light="5">
        <rect x="302.0" y="6492.4" width="121.8" height="121.8" class="marshal-light-bg"/>
        <text x="362.9" y="6553.3" class="marshal-light-label">5</text>
      </g>
      <g class="marshal-light-marker" data-light="6">
        <rect x="217.5" y="8908.0" width="121.8" height="121.8" class="marshal-light-bg"/>
        <text x="278.4" y="8968.9" class="marshal-light-label">6</text>
      </g>
      <g class="marshal-light-marker" data-light="7">
        <rect x="2099.7" y="10657.5" width="121.8" height="121.8" class="marshal-light-bg"/>
        <text x="2160.6" y="10718.4" class="marshal-light-label">7</text>
      </g>
      <g class="marshal-light-marker" data-light="8">
        <rect x="3359.0" y="11275.5" width="121.8" height="121.8" class="marshal-light-bg"/>
        <text x="3419.9" y="11336.4" class="marshal-light-label">8</text>
      </g>
      <g class="marshal-light-marker" data-light="9">
        <rect x="3812.2" y="12223.1" width="121.8" height="121.8" class="marshal-light-bg"/>
        <text x="3873.2" y="12284.1" class="marshal-light-label">9</text>
      </g>
      <g class="marshal-light-marker" data-light="10">
        <rect x="3483.3" y="13613.7" width="121.8" height="121.8" class="marshal-light-bg"/>
        <text x="3544.2" y="13674.7" class="marshal-light-label">10</text>
      </g>
      <g class="marshal-light-marker" data-light="11">
        <rect x="881.0" y="14199.0" width="121.8" height="121.8" class="marshal-light-bg"/>
        <text x="941.9" y="14259.9" class="marshal-light-label">11</text>
      </g>
      <g class="marshal-light-marker" data-light="12">
        <rect x="-1068.9" y="14574.7" width="121.8" height="121.8" class="marshal-light-bg"/>
        <text x="-1008.0" y="14635.6" class="marshal-light-label">12</text>
      </g>
      <g class="marshal-light-marker" data-light="13">
        <rect x="-2210.8" y="16259.1" width="121.8" height="121.8" class="marshal-light-bg"/>
        <text x="-2149.9" y="16320.0" class="marshal-light-label">13</text>
      </g>
      <g class="marshal-light-marker" data-light="14">
        <rect x="-4024.8" y="17618.8" width="121.8" height="121.8" class="marshal-light-bg"/>
        <text x="-3963.9" y="17679.7" class="marshal-light-label">14</text>
      </g>
      <g class="marshal-light-marker" data-light="15">
        <rect x="-6072.6" y="15000.1" width="121.8" height="121.8" class="marshal-light-bg"/>
        <text x="-6011.7" y="15061.0" class="marshal-light-label">15</text>
      </g>
      <g class="marshal-light-marker" data-light="16">
        <rect x="-7443.4" y="11375.1" width="121.8" height="121.8" class="marshal-light-bg"/>
        <text x="-7382.4" y="11436.0" class="marshal-light-label">16</text>
      </g>
      <g class="marshal-light-marker" data-light="17">
        <rect x="-7746.0" y="6588.1" width="121.8" height="121.8" class="marshal-light-bg"/>
        <text x="-7685.0" y="6649.0" class="marshal-light-label">17</text>
      </g>
      <g class="marshal-light-marker" data-light="18">
        <rect x="-7790.5" y="-163.3" width="121.8" height="121.8" class="marshal-light-bg"/>
        <text x="-7729.5" y="-102.4" class="marshal-light-label">18</text>
      </g>
      <g class="marshal-light-marker" data-light="19">
        <rect x="-6071.6" y="-1777.9" width="121.8" height="121.8" class="marshal-light-bg"/>
        <text x="-6010.7" y="-1716.9" class="marshal-light-label">19</text>
      </g>
      <g class="marshal-light-marker" data-light="20">
        <rect x="-3103.0" y="-1708.1" width="121.8" height="121.8" class="marshal-light-bg"/>
        <text x="-3042.0" y="-1647.2" class="marshal-light-label">20</text>
      </g>
      <g class="marshal-light-marker" data-light="21">
        <rect x="-191.3" y="-1690.5" width="121.8" height="121.8" class="marshal-light-bg"/>
        <text x="-130.4" y="-1629.5" class="marshal-light-label">21</text>
      </g>
    </g>

    <g id="marshal-sectors">
      <g class="marshal-sector-marker" data-sector="1" data-length="0.0">
        <polygon points="2105.0,-721.2 1978.4,-501.9 2231.6,-501.9" class="marshal-sector-bg"/>
        <text x="2105.0" y="-575.0" class="marshal-sector-label">1</text>
      </g>
      <g class="marshal-sector-marker" data-sector="2" data-length="2292.2">
        <polygon points="3631.3,988.8 3504.7,1208.1 3757.9,1208.1" class="marshal-sector-bg"/>
        <text x="3631.3" y="1135.0" class="marshal-sector-label">2</text>
      </g>
      <g class="marshal-sector-marker" data-sector="3" data-length="4507.5">
        <polygon points="2376.8,1416.6 2250.2,1635.9 2503.5,1635.9" class="marshal-sector-bg"/>
        <text x="2376.8" y="1562.8" class="marshal-sector-label">3</text>
      </g>
      <g class="marshal-sector-marker" data-sector="4" data-length="7515.7">
        <polygon points="526.0,2576.0 399.4,2795.3 652.6,2795.3" class="marshal-sector-bg"/>
        <text x="526.0" y="2722.2" class="marshal-sector-label">4</text>
      </g>
      <g class="marshal-sector-marker" data-sector="5" data-length="11340.8">
        <polygon points="363.3,6397.5 236.6,6616.8 489.9,6616.8" class="marshal-sector-bg"/>
        <text x="363.3" y="6543.7" class="marshal-sector-label">5</text>
      </g>
      <g class="marshal-sector-marker" data-sector="6" data-length="13753.2">
        <polygon points="278.9,8808.3 152.2,9027.6 405.5,9027.6" class="marshal-sector-bg"/>
        <text x="278.9" y="8954.5" class="marshal-sector-label">6</text>
      </g>
      <g class="marshal-sector-marker" data-sector="7" data-length="17285.2">
        <polygon points="2227.7,10576.8 2101.1,10796.1 2354.3,10796.1" class="marshal-sector-bg"/>
        <text x="2227.7" y="10723.0" class="marshal-sector-label">7</text>
      </g>
      <g class="marshal-sector-marker" data-sector="8" data-length="18649.9">
        <polygon points="3416.8,11186.6 3290.2,11405.9 3543.5,11405.9" class="marshal-sector-bg"/>
        <text x="3416.8" y="11332.8" class="marshal-sector-label">8</text>
      </g>
      <g class="marshal-sector-marker" data-sector="9" data-length="19822.4">
        <polygon points="3874.8,12238.7 3748.2,12458.0 4001.4,12458.0" class="marshal-sector-bg"/>
        <text x="3874.8" y="12384.9" class="marshal-sector-label">9</text>
      </g>
      <g class="marshal-sector-marker" data-sector="10" data-length="21547.6">
        <polygon points="3583.9,13621.1 3457.3,13840.4 3710.5,13840.4" class="marshal-sector-bg"/>
        <text x="3583.9" y="13767.3" class="marshal-sector-label">10</text>
      </g>
      <g class="marshal-sector-marker" data-sector="11" data-length="24584.6">
        <polygon points="975.6,14113.6 849.0,14332.9 1102.2,14332.9" class="marshal-sector-bg"/>
        <text x="975.6" y="14259.8" class="marshal-sector-label">11</text>
      </g>
      <g class="marshal-sector-marker" data-sector="12" data-length="26684.6">
        <polygon points="-1052.5,14517.9 -1179.1,14737.2 -925.9,14737.2" class="marshal-sector-bg"/>
        <text x="-1052.5" y="14664.1" class="marshal-sector-label">12</text>
      </g>
      <g class="marshal-sector-marker" data-sector="13" data-length="28683.7">
        <polygon points="-2141.8,16156.4 -2268.4,16375.7 -2015.2,16375.7" class="marshal-sector-bg"/>
        <text x="-2141.8" y="16302.6" class="marshal-sector-label">13</text>
      </g>
      <g class="marshal-sector-marker" data-sector="14" data-length="31124.8">
        <polygon points="-4020.4,17545.0 -4147.0,17764.3 -3893.8,17764.3" class="marshal-sector-bg"/>
        <text x="-4020.4" y="17691.2" class="marshal-sector-label">14</text>
      </g>
      <g class="marshal-sector-marker" data-sector="15" data-length="34628.0">
        <polygon points="-5935.3,15059.3 -6061.9,15278.6 -5808.7,15278.6" class="marshal-sector-bg"/>
        <text x="-5935.3" y="15205.5" class="marshal-sector-label">15</text>
      </g>
      <g class="marshal-sector-marker" data-sector="16" data-length="38544.5">
        <polygon points="-7351.0,11425.5 -7477.6,11644.8 -7224.3,11644.8" class="marshal-sector-bg"/>
        <text x="-7351.0" y="11571.7" class="marshal-sector-label">16</text>
      </g>
      <g class="marshal-sector-marker" data-sector="17" data-length="43503.7">
        <polygon points="-7685.0,6493.2 -7811.6,6712.5 -7558.4,6712.5" class="marshal-sector-bg"/>
        <text x="-7685.0" y="6639.4" class="marshal-sector-label">17</text>
      </g>
      <g class="marshal-sector-marker" data-sector="18" data-length="50375.5">
        <polygon points="-7731.2,-378.3 -7857.8,-159.0 -7604.6,-159.0" class="marshal-sector-bg"/>
        <text x="-7731.2" y="-232.1" class="marshal-sector-label">18</text>
      </g>
      <g class="marshal-sector-marker" data-sector="19" data-length="52898.3">
        <polygon points="-6150.0,-1858.1 -6276.6,-1638.8 -6023.3,-1638.8" class="marshal-sector-bg"/>
        <text x="-6150.0" y="-1711.9" class="marshal-sector-label">19</text>
      </g>
      <g class="marshal-sector-marker" data-sector="20" data-length="56002.6">
        <polygon points="-3046.8,-1793.5 -3173.5,-1574.2 -2920.2,-1574.2" class="marshal-sector-bg"/>
        <text x="-3046.8" y="-1647.3" class="marshal-sector-label">20</text>
      </g>
      <g class="marshal-sector-marker" data-sector="21" data-length="58953.2">
        <polygon points="-96.8,-1774.2 -223.4,-1554.9 29.8,-1554.9" class="marshal-sector-bg"/>
        <text x="-96.8" y="-1628.0" class="marshal-sector-label">21</text>
      </g>
    </g>

    <g id="corners">
      <g class="corner-marker" data-corner="1" data-length="2777.5">
        <circle cx="3781.8" cy="1577.1" r="195.0" class="corner-bg"/>
        <text x="3781.8" y="1577.1" class="corner-label">1</text>
      </g>
      <g class="corner-marker" data-corner="2" data-length="3733.8">
        <circle cx="3022.9" cy="1972.0" r="195.0" class="corner-bg"/>
        <text x="3022.9" y="1972.0" class="corner-label">2</text>
      </g>
      <g class="corner-marker" data-corner="3" data-length="5612.8">
        <circle cx="1408.9" cy="1204.9" r="195.0" class="corner-bg"/>
        <text x="1408.9" y="1204.9" class="corner-label">3</text>
      </g>
      <g class="corner-marker" data-corner="4" data-length="6828.5">
        <circle cx="606.3" cy="2040.3" r="195.0" class="corner-bg"/>
        <text x="606.3" y="2040.3" class="corner-label">4</text>
      </g>
      <g class="corner-marker" data-corner="5" data-length="15382.2">
        <circle cx="374.0" cy="10559.6" r="195.0" class="corner-bg"/>
        <text x="374.0" y="10559.6" class="corner-label">5</text>
      </g>
      <g class="corner-marker" data-corner="6" data-length="18010.8">
        <circle cx="2913.0" cy="10944.4" r="195.0" class="corner-bg"/>
        <text x="2913.0" y="10944.4" class="corner-label">6</text>
      </g>
      <g class="corner-marker" data-corner="7" data-length="20202.1">
        <circle cx="3723.6" cy="12721.7" r="195.0" class="corner-bg"/>
        <text x="3723.6" y="12721.7" class="corner-label">7</text>
      </g>
      <g class="corner-marker" data-corner="8" data-length="20730.7">
        <circle cx="3313.0" cy="13017.1" r="195.0" class="corner-bg"/>
        <text x="3313.0" y="13017.1" class="corner-label">8</text>
      </g>
      <g class="corner-marker" data-corner="9" data-length="21999.3">
        <circle cx="3535.1" cy="14199.0" r="195.0" class="corner-bg"/>
        <text x="3535.1" y="14199.0" class="corner-label">9</text>
      </g>
      <g class="corner-marker" data-corner="10" data-length="26881.6">
        <circle cx="-1211.3" cy="14780.5" r="195.0" class="corner-bg"/>
        <text x="-1211.3" y="14780.5" class="corner-label">10</text>
      </g>
      <g class="corner-marker" data-corner="11" data-length="29519.8">
        <circle cx="-2607.5" cy="16991.5" r="195.0" class="corner-bg"/>
        <text x="-2607.5" y="16991.5" class="corner-label">11</text>
      </g>
      <g class="corner-marker" data-corner="12" data-length="31816.8">
        <circle cx="-4689.2" cy="17710.1" r="195.0" class="corner-bg"/>
        <text x="-4689.2" y="17710.1" class="corner-label">12</text>
      </g>
      <g class="corner-marker" data-corner="13" data-length="39428.7">
        <circle cx="-7525.6" cy="10705.1" r="195.0" class="corner-bg"/>
        <text x="-7525.6" y="10705.1" class="corner-label">13</text>
      </g>
      <g class="corner-marker" data-corner="14" data-length="51187.6">
        <circle cx="-7645.4" cy="-1030.9" r="195.0" class="corner-bg"/>
        <text x="-7645.4" y="-1030.9" class="corner-label">14</text>
      </g>
      <g class="corner-marker" data-corner="15" data-length="51788.3">
        <circle cx="-7145.8" cy="-1305.8" r="195.0" class="corner-bg"/>
        <text x="-7145.8" y="-1305.8" class="corner-label">15</text>
      </g>
      <g class="corner-marker" data-corner="16" data-length="52379.3">
        <circle cx="-6660.0" cy="-1639.4" r="195.0" class="corner-bg"/>
        <text x="-6660.0" y="-1639.4" class="corner-label">16</text>
      </g>
      <g class="corner-marker" data-corner="17" data-length="59895.0">
        <circle cx="837.0" cy="-1526.5" r="195.0" class="corner-bg"/>
        <text x="837.0" y="-1526.5" class="corner-label">17</text>
      </g>
    </g>

    <g id="start-finish" data-track-x="2105.0" data-track-y="-575.0" data-lap-distance="61509.6">
      <polygon points="1346.0,-878.3 1831.9,-332.1 1504.2,-40.5 1018.3,-586.7" class="checker-border"/>
      <polygon points="1346.0,-878.3 1443.2,-769.0 1333.9,-671.9 1236.8,-781.1" class="checker-black"/>
      <polygon points="1236.8,-781.1 1333.9,-671.9 1224.7,-574.7 1127.5,-683.9" class="checker-white"/>
      <polygon points="1127.5,-683.9 1224.7,-574.7 1115.4,-477.5 1018.3,-586.7" class="checker-black"/>
      <polygon points="1443.2,-769.0 1540.4,-659.8 1431.1,-562.6 1333.9,-671.9" class="checker-white"/>
      <polygon points="1333.9,-671.9 1431.1,-562.6 1321.9,-465.4 1224.7,-574.7" class="checker-black"/>
      <polygon points="1224.7,-574.7 1321.9,-465.4 1212.6,-368.3 1115.4,-477.5" class="checker-white"/>
      <polygon points="1540.4,-659.8 1637.5,-550.5 1528.3,-453.4 1431.1,-562.6" class="checker-black"/>
      <polygon points="1431.1,-562.6 1528.3,-453.4 1419.0,-356.2 1321.9,-465.4" class="checker-white"/>
      <polygon points="1321.9,-465.4 1419.0,-356.2 1309.8,-259.0 1212.6,-368.3" class="checker-black"/>
      <polygon points="1637.5,-550.5 1734.7,-441.3 1625.5,-344.1 1528.3,-453.4" class="checker-white"/>
      <polygon points="1528.3,-453.4 1625.5,-344.1 1516.2,-246.9 1419.0,-356.2" class="checker-black"/>
      <polygon points="1419.0,-356.2 1516.2,-246.9 1407.0,-149.8 1309.8,-259.0" class="checker-white"/>
      <polygon points="1734.7,-441.3 1831.9,-332.1 1722.6,-234.9 1625.5,-344.1" class="checker-black"/>
      <polygon points="1625.5,-344.1 1722.6,-234.9 1613.4,-137.7 1516.2,-246.9" class="checker-white"/>
      <polygon points="1516.2,-246.9 1613.4,-137.7 1504.2,-40.5 1407.0,-149.8" class="checker-black"/>
      <polyline points="1971.8,521.9 2315.9,542.0 2336.0,198.0" class="chevron"/>
      <polyline points="2101.4,667.6 2445.4,687.7 2465.6,343.6" class="chevron"/>
      <polyline points="2231.0,813.2 2575.0,833.3 2595.1,489.3" class="chevron"/>
    </g>

    <g id="car-markers"></g>

  </g>
</svg>
