<?xml version="1.0" encoding="utf-8"?>
<?xml-stylesheet type="text/css" href="../../css/tracks.css"?>
<svg xmlns="http://www.w3.org/2000/svg" viewBox="-490.3 351.8 960.0 738.4">
  <title>Losail</title>

  <g id="track-root" transform="translate(0, 738.40) scale(1, -1) scale(0.062156) translate(-1788.00, -2719.00) rotate(61, 1788.00, 2719.00)" data-scale="0.062156" data-rotation="61.0">

    <g id="track-outline">
      <path d="M -1539.6 -193.2 L -1604.0 -77.0 L -1655.0 14.0 L -1740.0 169.0 L -1820.0 314.0 L -1861.0 387.0 L -1913.0 482.0 L -2000.0 640.0 L -2059.0 746.0 L -2113.0 844.0 L -2196.0 995.0 L -2238.0 1071.0 L -2292.0 1168.0 L -2402.0 1361.0 L -2451.0 1448.0 L -2507.0 1545.0 L -2587.0 1686.0 L -2642.0 1784.0 L -2717.0 1916.0 L -2767.0 2003.0 L -2867.0 2180.0 L -2930.0 2290.0 L -2993.6 2402.3" class="track-outline" data-sector="1"/>
      <path d="M -2993.6 2402.3 L -3037.0 2479.0 L -3056.0 2513.0 L -3196.0 2759.0 L -3320.0 2978.0 L -3372.0 3069.0 L -3449.0 3204.0 L -3561.0 3401.0 L -3652.0 3562.0 L -3794.0 3801.0 L -3841.0 3879.0 L -3934.0 4036.0 L -4023.0 4187.0 L -4136.0 4386.0 L -4189.0 4490.0 L -4223.0 4557.0 L -4266.0 4648.0 L -4331.0 4787.0 L -4373.0 4883.0 L -4399.0 4949.0 L -4434.0 5057.0 L -4457.0 5154.0 L -4467.0 5228.0 L -4471.0 5320.0 L -4465.0 5392.0 L -4456.0 5448.0 L -4437.0 5520.0 L -4418.0 5567.0 L -4400.0 5599.0 L -4372.0 5644.0 L -4337.0 5689.0 L -4305.0 5724.0 L -4291.7 5737.0" class="track-outline" data-sector="2"/>
      <path d="M -4291.7 5737.0 L -4260.0 5768.0 L -4227.0 5794.0 L -4174.0 5830.0 L -4132.0 5853.0 L -4083.0 5876.0 L -4000.0 5903.0 L -3930.0 5916.0 L -3811.0 5920.0 L -3766.0 5917.0 L -3681.0 5902.0 L -3624.0 5886.0 L -3554.0 5860.0 L -3468.0 5820.0 L -3392.0 5779.0 L -3316.0 5733.0 L -3246.0 5688.0 L -3198.0 5657.0 L -3134.0 5614.0 L -3047.0 5556.0 L -2997.0 5523.0 L -2926.0 5476.0 L -2821.0 5407.0 L -2761.0 5367.0 L -2678.0 5314.0 L -2594.0 5259.0 L -2530.0 5218.0 L -2495.0 5195.0 L -2412.0 5141.0 L -2330.0 5090.0 L -2285.0 5062.0 L -2241.0 5036.0 L -2133.0 4978.0 L -2065.0 4949.0 L -2023.0 4935.0 L -1961.0 4919.0 L -1879.0 4909.0 L -1795.0 4911.0 L -1704.0 4927.0 L -1627.0 4952.0 L -1581.0 4973.0 L -1514.0 5012.0 L -1494.6 5025.8" class="track-outline" data-sector="3"/>
      <path d="M -1494.6 5025.8 L -1479.0 5037.0 L -1433.0 5075.0 L -1379.0 5130.0 L -1323.0 5206.0 L -1288.0 5270.0 L -1259.0 5345.0 L -1235.0 5443.0 L -1227.0 5505.0 L -1222.0 5575.0 L -1221.0 5620.0 L -1222.0 5819.0 L -1224.0 5895.0 L -1225.0 5944.0 L -1227.0 6042.0 L -1229.0 6116.0 L -1232.0 6223.0 L -1237.0 6396.0 L -1239.0 6484.0 L -1241.0 6597.0 L -1241.0 6680.0 L -1236.0 6840.0 L -1223.0 6942.0 L -1209.0 7018.0 L -1186.0 7103.0 L -1144.0 7222.0 L -1085.0 7346.0 L -997.0 7488.0 L -937.9 7568.9" class="track-outline" data-sector="4"/>
      <path d="M -937.9 7568.9 L -924.0 7588.0 L -816.0 7723.0 L -755.0 7798.0 L -670.0 7896.0 L -630.0 7940.0 L -502.0 8079.0 L -447.0 8139.0 L -373.0 8221.0 L -290.0 8313.0 L -277.0 8328.0 L -214.0 8397.0 L -52.0 8575.0 L 61.0 8701.0 L 83.0 8725.0 L 155.0 8805.0 L 272.0 8935.0 L 390.0 9065.0 L 518.0 9205.0 L 601.0 9297.0 L 687.0 9393.0 L 808.0 9525.0 L 821.0 9539.0 L 945.0 9676.0 L 955.0 9687.0 L 1021.0 9758.0 L 1125.0 9866.0 L 1231.0 9955.0 L 1280.0 9984.0 L 1367.0 10021.0 L 1446.0 10041.0 L 1520.6 10049.8" class="track-outline" data-sector="5"/>
      <path d="M 1520.6 10049.8 L 1539.0 10052.0 L 1645.0 10050.0 L 1751.0 10035.0 L 1836.0 10012.0 L 1894.0 9990.0 L 1950.0 9964.0 L 1998.0 9937.0 L 2112.0 9860.0 L 2177.0 9808.0 L 2237.0 9757.0 L 2298.0 9703.0 L 2363.0 9642.0 L 2419.0 9586.0 L 2521.0 9475.0 L 2586.0 9393.0 L 2623.0 9335.0 L 2668.0 9250.0 L 2713.0 9130.0 L 2726.0 9078.0 L 2740.0 9002.0 L 2749.0 8912.0 L 2747.0 8817.0 L 2746.6 8815.1" class="track-outline" data-sector="6"/>
      <path d="M 2746.6 8815.1 L 2727.0 8713.0 L 2710.0 8666.0 L 2685.0 8615.0 L 2627.0 8528.0 L 2553.0 8443.0 L 2522.0 8411.0 L 2444.0 8334.0 L 2384.0 8275.0 L 2322.0 8216.0 L 2293.0 8187.0 L 2253.0 8149.0 L 2181.0 8080.0 L 2139.0 8039.0 L 2065.0 7967.0 L 2021.0 7925.0 L 1905.0 7811.0 L 1848.0 7752.0 L 1792.0 7693.0 L 1726.0 7619.0 L 1668.0 7554.0 L 1611.0 7491.0 L 1549.0 7421.0 L 1489.0 7355.0 L 1451.0 7311.0 L 1414.0 7266.0 L 1344.0 7174.0 L 1311.0 7126.0 L 1257.0 7042.0 L 1239.0 7010.0 L 1213.0 6960.0 L 1195.0 6922.0 L 1171.0 6855.0 L 1164.0 6820.0 L 1159.0 6757.0 L 1165.0 6703.0 L 1180.0 6655.0 L 1209.0 6606.0 L 1242.0 6574.0 L 1248.6 6569.3" class="track-outline" data-sector="7"/>
      <path d="M 1248.6 6569.3 L 1280.0 6547.0 L 1307.0 6534.0 L 1361.0 6513.0 L 1414.0 6502.0 L 1442.0 6500.0 L 1510.0 6503.0 L 1546.0 6506.0 L 1634.0 6523.0 L 1672.0 6534.0 L 1729.0 6552.0 L 1813.0 6583.0 L 1865.0 6603.0 L 1918.0 6623.0 L 1939.0 6631.0 L 1983.0 6648.0 L 2126.0 6704.0 L 2230.0 6745.0 L 2287.0 6767.0 L 2466.0 6842.0 L 2527.0 6868.0 L 2616.0 6907.0 L 2694.0 6941.0 L 2779.0 6982.0 L 2851.0 7016.0 L 2888.0 7033.0 L 3038.0 7104.0 L 3208.0 7183.0 L 3280.0 7215.0 L 3394.0 7265.0 L 3484.0 7304.0 L 3610.0 7359.0 L 3693.0 7395.0 L 3854.0 7462.0 L 3937.0 7495.0 L 4019.0 7525.0 L 4089.0 7548.0 L 4183.0 7573.0 L 4267.0 7586.0 L 4325.0 7589.0 L 4426.0 7582.0 L 4491.0 7570.0 L 4596.0 7535.0 L 4661.0 7503.0 L 4709.0 7473.0 L 4757.0 7438.0 L 4819.0 7381.0 L 4867.0 7326.0 L 4900.0 7279.0 L 4913.5 7254.1" class="track-outline" data-sector="8"/>
      <path d="M 4913.5 7254.1 L 4951.0 7185.0 L 4982.0 7093.0 L 4998.0 6989.0 L 4999.0 6930.0 L 4984.0 6816.0 L 4948.0 6715.0 L 4916.0 6653.0 L 4892.0 6612.0 L 4829.0 6532.0 L 4745.0 6453.0 L 4681.0 6396.0 L 4612.0 6332.0 L 4492.0 6207.0 L 4413.0 6116.0 L 4323.0 5999.0 L 4287.0 5950.0 L 4219.0 5847.0 L 4169.0 5767.0 L 4108.0 5662.0 L 4068.0 5590.0 L 4038.0 5531.0 L 3995.0 5440.0 L 3953.0 5345.0 L 3924.0 5268.9" class="track-outline" data-sector="9"/>
      <path d="M 3924.0 5268.9 L 3900.0 5206.0 L 3863.0 5095.0 L 3828.0 4974.0 L 3810.0 4905.0 L 3791.0 4831.0 L 3746.0 4707.0 L 3716.0 4639.0 L 3622.0 4488.0 L 3600.0 4459.0 L 3515.0 4370.0 L 3428.0 4306.0 L 3349.0 4264.0 L 3196.0 4205.0 L 3126.0 4183.0 L 3043.0 4159.0 L 2939.0 4130.0 L 2842.9 4107.6" class="track-outline" data-sector="10"/>
      <path d="M 2842.9 4107.6 L 2832.0 4105.0 L 2701.0 4078.0 L 2558.0 4052.0 L 2418.0 4028.0 L 2379.0 4021.0 L 2283.0 4003.0 L 2160.0 3979.0 L 2055.0 3956.0 L 2005.0 3944.0 L 1899.0 3904.0 L 1821.0 3857.0 L 1750.0 3791.0 L 1714.0 3745.0 L 1683.0 3696.0 L 1655.0 3640.0 L 1649.0 3627.0 L 1621.0 3542.0 L 1612.0 3496.0 L 1606.0 3454.0 L 1603.0 3403.0 L 1607.0 3365.0 L 1615.0 3319.0 L 1630.0 3270.0 L 1646.0 3229.0 L 1675.0 3176.0 L 1719.0 3110.0 L 1769.0 3044.0 L 1769.6 3043.3" class="track-outline" data-sector="11"/>
      <path d="M 1769.6 3043.3 L 1852.0 2947.0 L 1892.0 2902.0 L 1935.0 2857.0 L 1999.0 2794.0 L 2064.0 2736.0 L 2156.0 2662.0 L 2254.0 2590.0 L 2395.0 2494.0 L 2527.0 2413.0 L 2610.0 2367.0 L 2660.0 2340.0 L 2733.0 2304.0 L 2800.0 2272.0 L 2917.0 2221.0 L 2996.0 2189.0 L 3094.0 2153.0 L 3170.0 2128.0 L 3255.0 2101.0 L 3324.0 2082.0 L 3457.0 2049.0 L 3583.0 2023.0 L 3684.0 2006.0 L 3775.0 1995.0 L 3877.0 1986.0 L 3993.0 1981.0 L 4071.0 1979.0 L 4200.0 1978.0 L 4235.3 1978.8" class="track-outline" data-sector="12"/>
      <path d="M 4235.3 1978.8 L 4380.0 1982.0 L 4492.0 1988.0 L 4625.0 1998.0 L 4791.0 2014.0 L 4958.0 2032.0 L 5085.0 2047.0 L 5245.0 2065.0 L 5309.0 2073.0 L 5461.0 2091.0 L 5635.0 2111.0 L 5654.0 2114.0 L 5754.0 2125.0 L 5853.0 2137.0 L 5947.0 2150.0 L 6041.0 2164.0 L 6151.0 2181.0 L 6228.0 2194.0 L 6328.0 2208.0 L 6502.0 2223.0 L 6622.0 2222.0 L 6688.0 2218.0 L 6776.0 2206.0 L 6840.0 2193.0 L 6941.0 2164.0 L 7087.0 2102.0 L 7148.0 2068.0 L 7207.0 2031.0 L 7281.0 1977.0 L 7344.0 1924.7" class="track-outline" data-sector="13"/>
      <path d="M 7344.0 1924.7 L 7346.0 1923.0 L 7408.0 1864.0 L 7492.0 1771.0 L 7551.0 1696.0 L 7634.0 1575.0 L 7677.0 1505.0 L 7719.0 1434.0 L 7744.0 1389.0 L 7789.0 1307.0 L 7850.0 1185.0 L 7890.0 1104.0 L 7920.0 1039.0 L 7929.0 1018.0 L 8000.0 832.0 L 8015.0 781.0 L 8034.0 692.0 L 8047.0 525.0 L 8041.0 434.0 L 8027.0 354.0 L 8022.0 332.0 L 7999.0 254.0 L 7957.0 148.0 L 7924.0 79.0 L 7881.0 -3.0 L 7855.0 -50.0 L 7790.0 -159.0 L 7737.7 -238.2" class="track-outline" data-sector="14"/>
      <path d="M 7737.7 -238.2 L 7683.0 -321.0 L 7635.0 -389.0 L 7549.0 -514.0 L 7490.0 -599.0 L 7431.0 -683.0 L 7384.0 -751.0 L 7343.0 -810.0 L 7291.0 -885.0 L 7256.0 -931.0 L 7261.0 -923.0 L 7226.0 -968.0 L 7153.0 -1042.0 L 7071.0 -1104.0 L 6975.0 -1153.0 L 6936.0 -1168.0 L 6853.0 -1195.0 L 6782.0 -1211.0 L 6687.0 -1216.0 L 6617.0 -1214.0 L 6525.0 -1207.0 L 6461.0 -1200.0 L 6395.0 -1192.0 L 6300.0 -1178.0 L 6211.0 -1162.0 L 6083.0 -1134.0 L 5928.0 -1099.0 L 5777.0 -1065.0 L 5708.7 -1048.7" class="track-outline" data-sector="15"/>
      <path d="M 5708.7 -1048.7 L 5597.0 -1022.0 L 5497.0 -999.0 L 5377.0 -972.0 L 5254.0 -946.0 L 5166.0 -928.0 L 5039.0 -903.0 L 4902.0 -874.0 L 4819.0 -858.0 L 4701.0 -836.0 L 4653.0 -828.0 L 4563.0 -812.0 L 4427.0 -791.0 L 4346.0 -780.0 L 4297.0 -774.0 L 4266.0 -771.0 L 4192.0 -767.0 L 4092.0 -770.0 L 4037.0 -778.0 L 3987.0 -789.0 L 3870.0 -830.0 L 3811.0 -859.0 L 3760.0 -890.0 L 3715.0 -921.0 L 3642.0 -982.0 L 3569.0 -1059.0 L 3529.0 -1110.0 L 3490.0 -1164.0 L 3441.0 -1239.0 L 3405.0 -1297.0" class="track-outline" data-sector="16"/>
      <path d="M 3405.0 -1297.0 L 3340.0 -1409.0 L 3314.0 -1456.0 L 3267.0 -1548.0 L 3236.0 -1613.0 L 3180.0 -1732.0 L 3127.0 -1848.0 L 3084.0 -1942.0 L 3036.0 -2046.0 L 2980.0 -2168.0 L 2919.0 -2300.0 L 2881.0 -2384.0 L 2819.0 -2519.0 L 2753.0 -2657.0 L 2715.0 -2736.0 L 2654.0 -2859.0 L 2587.0 -2993.0 L 2550.0 -3065.0 L 2509.0 -3146.0 L 2462.0 -3237.0 L 2396.0 -3366.0 L 2388.5 -3380.4" class="track-outline" data-sector="17"/>
      <path d="M 2388.5 -3380.4 L 2310.0 -3532.0 L 2237.0 -3670.0 L 2168.0 -3800.0 L 2098.0 -3931.0 L 2019.0 -4073.0 L 1979.0 -4143.0 L 1942.0 -4204.0 L 1901.0 -4269.0 L 1866.0 -4318.0 L 1836.0 -4357.0 L 1815.0 -4382.0 L 1722.0 -4474.0 L 1680.0 -4507.0 L 1639.0 -4533.0 L 1602.0 -4553.0 L 1501.0 -4591.0 L 1422.0 -4608.0 L 1365.0 -4614.0 L 1287.0 -4614.0 L 1224.0 -4608.0 L 1177.0 -4600.0 L 1131.0 -4588.0 L 1085.0 -4573.0 L 1031.0 -4551.0 L 1012.7 -4540.9" class="track-outline" data-sector="18"/>
      <path d="M 1012.7 -4540.9 L 959.0 -4511.0 L 907.0 -4476.0 L 866.0 -4443.0 L 836.0 -4414.0 L 785.0 -4362.0 L 749.0 -4318.0 L 671.0 -4207.0 L 601.0 -4090.0 L 557.0 -4010.0 L 530.0 -3959.0 L 474.0 -3853.0 L 461.0 -3827.0 L 394.0 -3700.0 L 306.0 -3535.0 L 263.0 -3458.0 L 200.0 -3343.0 L 148.0 -3247.0 L 119.0 -3195.0 L 31.0 -3036.0 L -20.0 -2943.0 L -77.0 -2840.0 L -149.0 -2712.0 L -204.0 -2614.0 L -264.0 -2506.0 L -319.0 -2405.0 L -362.0 -2329.0 L -391.5 -2275.0" class="track-outline" data-sector="19"/>
      <path d="M -391.5 -2275.0 L -409.0 -2243.0 L -491.0 -2096.0 L -564.0 -1964.0 L -598.0 -1902.0 L -687.0 -1740.0 L -731.0 -1658.0 L -801.0 -1530.0 L -836.0 -1466.0 L -877.0 -1392.0 L -958.0 -1245.0 L -1010.0 -1151.0 L -1051.0 -1077.0 L -1104.0 -981.0 L -1158.0 -884.0 L -1233.0 -747.0 L -1255.0 -708.0 L -1342.0 -550.0 L -1442.0 -370.0 L -1497.0 -270.0 L -1539.6 -193.2" class="track-outline" data-sector="20"/>
    </g>

    <g id="track-sectors">
      <path d="M -1539.6 -193.2 L -1604.0 -77.0 L -1655.0 14.0 L -1740.0 169.0 L -1820.0 314.0 L -1861.0 387.0 L -1913.0 482.0 L -2000.0 640.0 L -2059.0 746.0 L -2113.0 844.0 L -2196.0 995.0 L -2238.0 1071.0 L -2292.0 1168.0 L -2402.0 1361.0 L -2451.0 1448.0 L -2507.0 1545.0 L -2587.0 1686.0 L -2642.0 1784.0 L -2717.0 1916.0 L -2767.0 2003.0 L -2867.0 2180.0 L -2930.0 2290.0 L -2993.6 2402.3" class="track" data-sector="1"/>
      <path d="M -2993.6 2402.3 L -3037.0 2479.0 L -3056.0 2513.0 L -3196.0 2759.0 L -3320.0 2978.0 L -3372.0 3069.0 L -3449.0 3204.0 L -3561.0 3401.0 L -3652.0 3562.0 L -3794.0 3801.0 L -3841.0 3879.0 L -3934.0 4036.0 L -4023.0 4187.0 L -4136.0 4386.0 L -4189.0 4490.0 L -4223.0 4557.0 L -4266.0 4648.0 L -4331.0 4787.0 L -4373.0 4883.0 L -4399.0 4949.0 L -4434.0 5057.0 L -4457.0 5154.0 L -4467.0 5228.0 L -4471.0 5320.0 L -4465.0 5392.0 L -4456.0 5448.0 L -4437.0 5520.0 L -4418.0 5567.0 L -4400.0 5599.0 L -4372.0 5644.0 L -4337.0 5689.0 L -4305.0 5724.0 L -4291.7 5737.0" class="track" data-sector="2"/>
      <path d="M -4291.7 5737.0 L -4260.0 5768.0 L -4227.0 5794.0 L -4174.0 5830.0 L -4132.0 5853.0 L -4083.0 5876.0 L -4000.0 5903.0 L -3930.0 5916.0 L -3811.0 5920.0 L -3766.0 5917.0 L -3681.0 5902.0 L -3624.0 5886.0 L -3554.0 5860.0 L -3468.0 5820.0 L -3392.0 5779.0 L -3316.0 5733.0 L -3246.0 5688.0 L -3198.0 5657.0 L -3134.0 5614.0 L -3047.0 5556.0 L -2997.0 5523.0 L -2926.0 5476.0 L -2821.0 5407.0 L -2761.0 5367.0 L -2678.0 5314.0 L -2594.0 5259.0 L -2530.0 5218.0 L -2495.0 5195.0 L -2412.0 5141.0 L -2330.0 5090.0 L -2285.0 5062.0 L -2241.0 5036.0 L -2133.0 4978.0 L -2065.0 4949.0 L -2023.0 4935.0 L -1961.0 4919.0 L -1879.0 4909.0 L -1795.0 4911.0 L -1704.0 4927.0 L -1627.0 4952.0 L -1581.0 4973.0 L -1514.0 5012.0 L -1494.6 5025.8" class="track" data-sector="3"/>
      <path d="M -1494.6 5025.8 L -1479.0 5037.0 L -1433.0 5075.0 L -1379.0 5130.0 L -1323.0 5206.0 L -1288.0 5270.0 L -1259.0 5345.0 L -1235.0 5443.0 L -1227.0 5505.0 L -1222.0 5575.0 L -1221.0 5620.0 L -1222.0 5819.0 L -1224.0 5895.0 L -1225.0 5944.0 L -1227.0 6042.0 L -1229.0 6116.0 L -1232.0 6223.0 L -1237.0 6396.0 L -1239.0 6484.0 L -1241.0 6597.0 L -1241.0 6680.0 L -1236.0 6840.0 L -1223.0 6942.0 L -1209.0 7018.0 L -1186.0 7103.0 L -1144.0 7222.0 L -1085.0 7346.0 L -997.0 7488.0 L -937.9 7568.9" class="track" data-sector="4"/>
      <path d="M -937.9 7568.9 L -924.0 7588.0 L -816.0 7723.0 L -755.0 7798.0 L -670.0 7896.0 L -630.0 7940.0 L -502.0 8079.0 L -447.0 8139.0 L -373.0 8221.0 L -290.0 8313.0 L -277.0 8328.0 L -214.0 8397.0 L -52.0 8575.0 L 61.0 8701.0 L 83.0 8725.0 L 155.0 8805.0 L 272.0 8935.0 L 390.0 9065.0 L 518.0 9205.0 L 601.0 9297.0 L 687.0 9393.0 L 808.0 9525.0 L 821.0 9539.0 L 945.0 9676.0 L 955.0 9687.0 L 1021.0 9758.0 L 1125.0 9866.0 L 1231.0 9955.0 L 1280.0 9984.0 L 1367.0 10021.0 L 1446.0 10041.0 L 1520.6 10049.8" class="track" data-sector="5"/>
      <path d="M 1520.6 10049.8 L 1539.0 10052.0 L 1645.0 10050.0 L 1751.0 10035.0 L 1836.0 10012.0 L 1894.0 9990.0 L 1950.0 9964.0 L 1998.0 9937.0 L 2112.0 9860.0 L 2177.0 9808.0 L 2237.0 9757.0 L 2298.0 9703.0 L 2363.0 9642.0 L 2419.0 9586.0 L 2521.0 9475.0 L 2586.0 9393.0 L 2623.0 9335.0 L 2668.0 9250.0 L 2713.0 9130.0 L 2726.0 9078.0 L 2740.0 9002.0 L 2749.0 8912.0 L 2747.0 8817.0 L 2746.6 8815.1" class="track" data-sector="6"/>
      <path d="M 2746.6 8815.1 L 2727.0 8713.0 L 2710.0 8666.0 L 2685.0 8615.0 L 2627.0 8528.0 L 2553.0 8443.0 L 2522.0 8411.0 L 2444.0 8334.0 L 2384.0 8275.0 L 2322.0 8216.0 L 2293.0 8187.0 L 2253.0 8149.0 L 2181.0 8080.0 L 2139.0 8039.0 L 2065.0 7967.0 L 2021.0 7925.0 L 1905.0 7811.0 L 1848.0 7752.0 L 1792.0 7693.0 L 1726.0 7619.0 L 1668.0 7554.0 L 1611.0 7491.0 L 1549.0 7421.0 L 1489.0 7355.0 L 1451.0 7311.0 L 1414.0 7266.0 L 1344.0 7174.0 L 1311.0 7126.0 L 1257.0 7042.0 L 1239.0 7010.0 L 1213.0 6960.0 L 1195.0 6922.0 L 1171.0 6855.0 L 1164.0 6820.0 L 1159.0 6757.0 L 1165.0 6703.0 L 1180.0 6655.0 L 1209.0 6606.0 L 1242.0 6574.0 L 1248.6 6569.3" class="track" data-sector="7"/>
      <path d="M 1248.6 6569.3 L 1280.0 6547.0 L 1307.0 6534.0 L 1361.0 6513.0 L 1414.0 6502.0 L 1442.0 6500.0 L 1510.0 6503.0 L 1546.0 6506.0 L 1634.0 6523.0 L 1672.0 6534.0 L 1729.0 6552.0 L 1813.0 6583.0 L 1865.0 6603.0 L 1918.0 6623.0 L 1939.0 6631.0 L 1983.0 6648.0 L 2126.0 6704.0 L 2230.0 6745.0 L 2287.0 6767.0 L 2466.0 6842.0 L 2527.0 6868.0 L 2616.0 6907.0 L 2694.0 6941.0 L 2779.0 6982.0 L 2851.0 7016.0 L 2888.0 7033.0 L 3038.0 7104.0 L 3208.0 7183.0 L 3280.0 7215.0 L 3394.0 7265.0 L 3484.0 7304.0 L 3610.0 7359.0 L 3693.0 7395.0 L 3854.0 7462.0 L 3937.0 7495.0 L 4019.0 7525.0 L 4089.0 7548.0 L 4183.0 7573.0 L 4267.0 7586.0 L 4325.0 7589.0 L 4426.0 7582.0 L 4491.0 7570.0 L 4596.0 7535.0 L 4661.0 7503.0 L 4709.0 7473.0 L 4757.0 7438.0 L 4819.0 7381.0 L 4867.0 7326.0 L 4900.0 7279.0 L 4913.5 7254.1" class="track" data-sector="8"/>
      <path d="M 4913.5 7254.1 L 4951.0 7185.0 L 4982.0 7093.0 L 4998.0 6989.0 L 4999.0 6930.0 L 4984.0 6816.0 L 4948.0 6715.0 L 4916.0 6653.0 L 4892.0 6612.0 L 4829.0 6532.0 L 4745.0 6453.0 L 4681.0 6396.0 L 4612.0 6332.0 L 4492.0 6207.0 L 4413.0 6116.0 L 4323.0 5999.0 L 4287.0 5950.0 L 4219.0 5847.0 L 4169.0 5767.0 L 4108.0 5662.0 L 4068.0 5590.0 L 4038.0 5531.0 L 3995.0 5440.0 L 3953.0 5345.0 L 3924.0 5268.9" class="track" data-sector="9"/>
      <path d="M 3924.0 5268.9 L 3900.0 5206.0 L 3863.0 5095.0 L 3828.0 4974.0 L 3810.0 4905.0 L 3791.0 4831.0 L 3746.0 4707.0 L 3716.0 4639.0 L 3622.0 4488.0 L 3600.0 4459.0 L 3515.0 4370.0 L 3428.0 4306.0 L 3349.0 4264.0 L 3196.0 4205.0 L 3126.0 4183.0 L 3043.0 4159.0 L 2939.0 4130.0 L 2842.9 4107.6" class="track" data-sector="10"/>
      <path d="M 2842.9 4107.6 L 2832.0 4105.0 L 2701.0 4078.0 L 2558.0 4052.0 L 2418.0 4028.0 L 2379.0 4021.0 L 2283.0 4003.0 L 2160.0 3979.0 L 2055.0 3956.0 L 2005.0 3944.0 L 1899.0 3904.0 L 1821.0 3857.0 L 1750.0 3791.0 L 1714.0 3745.0 L 1683.0 3696.0 L 1655.0 3640.0 L 1649.0 3627.0 L 1621.0 3542.0 L 1612.0 3496.0 L 1606.0 3454.0 L 1603.0 3403.0 L 1607.0 3365.0 L 1615.0 3319.0 L 1630.0 3270.0 L 1646.0 3229.0 L 1675.0 3176.0 L 1719.0 3110.0 L 1769.0 3044.0 L 1769.6 3043.3" class="track" data-sector="11"/>
      <path d="M 1769.6 3043.3 L 1852.0 2947.0 L 1892.0 2902.0 L 1935.0 2857.0 L 1999.0 2794.0 L 2064.0 2736.0 L 2156.0 2662.0 L 2254.0 2590.0 L 2395.0 2494.0 L 2527.0 2413.0 L 2610.0 2367.0 L 2660.0 2340.0 L 2733.0 2304.0 L 2800.0 2272.0 L 2917.0 2221.0 L 2996.0 2189.0 L 3094.0 2153.0 L 3170.0 2128.0 L 3255.0 2101.0 L 3324.0 2082.0 L 3457.0 2049.0 L 3583.0 2023.0 L 3684.0 2006.0 L 3775.0 1995.0 L 3877.0 1986.0 L 3993.0 1981.0 L 4071.0 1979.0 L 4200.0 1978.0 L 4235.3 1978.8" class="track" data-sector="12"/>
      <path d="M 4235.3 1978.8 L 4380.0 1982.0 L 4492.0 1988.0 L 4625.0 1998.0 L 4791.0 2014.0 L 4958.0 2032.0 L 5085.0 2047.0 L 5245.0 2065.0 L 5309.0 2073.0 L 5461.0 2091.0 L 5635.0 2111.0 L 5654.0 2114.0 L 5754.0 2125.0 L 5853.0 2137.0 L 5947.0 2150.0 L 6041.0 2164.0 L 6151.0 2181.0 L 6228.0 2194.0 L 6328.0 2208.0 L 6502.0 2223.0 L 6622.0 2222.0 L 6688.0 2218.0 L 6776.0 2206.0 L 6840.0 2193.0 L 6941.0 2164.0 L 7087.0 2102.0 L 7148.0 2068.0 L 7207.0 2031.0 L 7281.0 1977.0 L 7344.0 1924.7" class="track" data-sector="13"/>
      <path d="M 7344.0 1924.7 L 7346.0 1923.0 L 7408.0 1864.0 L 7492.0 1771.0 L 7551.0 1696.0 L 7634.0 1575.0 L 7677.0 1505.0 L 7719.0 1434.0 L 7744.0 1389.0 L 7789.0 1307.0 L 7850.0 1185.0 L 7890.0 1104.0 L 7920.0 1039.0 L 7929.0 1018.0 L 8000.0 832.0 L 8015.0 781.0 L 8034.0 692.0 L 8047.0 525.0 L 8041.0 434.0 L 8027.0 354.0 L 8022.0 332.0 L 7999.0 254.0 L 7957.0 148.0 L 7924.0 79.0 L 7881.0 -3.0 L 7855.0 -50.0 L 7790.0 -159.0 L 7737.7 -238.2" class="track" data-sector="14"/>
      <path d="M 7737.7 -238.2 L 7683.0 -321.0 L 7635.0 -389.0 L 7549.0 -514.0 L 7490.0 -599.0 L 7431.0 -683.0 L 7384.0 -751.0 L 7343.0 -810.0 L 7291.0 -885.0 L 7256.0 -931.0 L 7261.0 -923.0 L 7226.0 -968.0 L 7153.0 -1042.0 L 7071.0 -1104.0 L 6975.0 -1153.0 L 6936.0 -1168.0 L 6853.0 -1195.0 L 6782.0 -1211.0 L 6687.0 -1216.0 L 6617.0 -1214.0 L 6525.0 -1207.0 L 6461.0 -1200.0 L 6395.0 -1192.0 L 6300.0 -1178.0 L 6211.0 -1162.0 L 6083.0 -1134.0 L 5928.0 -1099.0 L 5777.0 -1065.0 L 5708.7 -1048.7" class="track" data-sector="15"/>
      <path d="M 5708.7 -1048.7 L 5597.0 -1022.0 L 5497.0 -999.0 L 5377.0 -972.0 L 5254.0 -946.0 L 5166.0 -928.0 L 5039.0 -903.0 L 4902.0 -874.0 L 4819.0 -858.0 L 4701.0 -836.0 L 4653.0 -828.0 L 4563.0 -812.0 L 4427.0 -791.0 L 4346.0 -780.0 L 4297.0 -774.0 L 4266.0 -771.0 L 4192.0 -767.0 L 4092.0 -770.0 L 4037.0 -778.0 L 3987.0 -789.0 L 3870.0 -830.0 L 3811.0 -859.0 L 3760.0 -890.0 L 3715.0 -921.0 L 3642.0 -982.0 L 3569.0 -1059.0 L 3529.0 -1110.0 L 3490.0 -1164.0 L 3441.0 -1239.0 L 3405.0 -1297.0" class="track" data-sector="16"/>
      <path d="M 3405.0 -1297.0 L 3340.0 -1409.0 L 3314.0 -1456.0 L 3267.0 -1548.0 L 3236.0 -1613.0 L 3180.0 -1732.0 L 3127.0 -1848.0 L 3084.0 -1942.0 L 3036.0 -2046.0 L 2980.0 -2168.0 L 2919.0 -2300.0 L 2881.0 -2384.0 L 2819.0 -2519.0 L 2753.0 -2657.0 L 2715.0 -2736.0 L 2654.0 -2859.0 L 2587.0 -2993.0 L 2550.0 -3065.0 L 2509.0 -3146.0 L 2462.0 -3237.0 L 2396.0 -3366.0 L 2388.5 -3380.4" class="track" data-sector="17"/>
      <path d="M 2388.5 -3380.4 L 2310.0 -3532.0 L 2237.0 -3670.0 L 2168.0 -3800.0 L 2098.0 -3931.0 L 2019.0 -4073.0 L 1979.0 -4143.0 L 1942.0 -4204.0 L 1901.0 -4269.0 L 1866.0 -4318.0 L 1836.0 -4357.0 L 1815.0 -4382.0 L 1722.0 -4474.0 L 1680.0 -4507.0 L 1639.0 -4533.0 L 1602.0 -4553.0 L 1501.0 -4591.0 L 1422.0 -4608.0 L 1365.0 -4614.0 L 1287.0 -4614.0 L 1224.0 -4608.0 L 1177.0 -4600.0 L 1131.0 -4588.0 L 1085.0 -4573.0 L 1031.0 -4551.0 L 1012.7 -4540.9" class="track" data-sector="18"/>
      <path d="M 1012.7 -4540.9 L 959.0 -4511.0 L 907.0 -4476.0 L 866.0 -4443.0 L 836.0 -4414.0 L 785.0 -4362.0 L 749.0 -4318.0 L 671.0 -4207.0 L 601.0 -4090.0 L 557.0 -4010.0 L 530.0 -3959.0 L 474.0 -3853.0 L 461.0 -3827.0 L 394.0 -3700.0 L 306.0 -3535.0 L 263.0 -3458.0 L 200.0 -3343.0 L 148.0 -3247.0 L 119.0 -3195.0 L 31.0 -3036.0 L -20.0 -2943.0 L -77.0 -2840.0 L -149.0 -2712.0 L -204.0 -2614.0 L -264.0 -2506.0 L -319.0 -2405.0 L -362.0 -2329.0 L -391.5 -2275.0" class="track" data-sector="19"/>
      <path d="M -391.5 -2275.0 L -409.0 -2243.0 L -491.0 -2096.0 L -564.0 -1964.0 L -598.0 -1902.0 L -687.0 -1740.0 L -731.0 -1658.0 L -801.0 -1530.0 L -836.0 -1466.0 L -877.0 -1392.0 L -958.0 -1245.0 L -1010.0 -1151.0 L -1051.0 -1077.0 L -1104.0 -981.0 L -1158.0 -884.0 L -1233.0 -747.0 L -1255.0 -708.0 L -1342.0 -550.0 L -1442.0 -370.0 L -1497.0 -270.0 L -1539.6 -193.2" class="track" data-sector="20"/>
    </g>

    <g id="marshal-lights">
      <g class="marshal-light-marker" data-light="1">
        <rect x="-960.9" y="-1352.9" width="80.4" height="80.4" class="marshal-light-bg"/>
        <text x="-920.7" y="-1312.7" class="marshal-light-label">1</text>
      </g>
      <g class="marshal-light-marker" data-light="2">
        <rect x="-2408.1" y="1260.8" width="80.4" height="80.4" class="marshal-light-bg"/>
        <text x="-2367.8" y="1301.1" class="marshal-light-label">2</text>
      </g>
      <g class="marshal-light-marker" data-light="3">
        <rect x="-3907.8" y="3883.6" width="80.4" height="80.4" class="marshal-light-bg"/>
        <text x="-3867.5" y="3923.8" class="marshal-light-label">3</text>
      </g>
      <g class="marshal-light-marker" data-light="4">
        <rect x="-2380.7" y="5056.3" width="80.4" height="80.4" class="marshal-light-bg"/>
        <text x="-2340.5" y="5096.5" class="marshal-light-label">4</text>
      </g>
      <g class="marshal-light-marker" data-light="5">
        <rect x="-1274.5" y="6260.7" width="80.4" height="80.4" class="marshal-light-bg"/>
        <text x="-1234.3" y="6300.9" class="marshal-light-label">5</text>
      </g>
      <g class="marshal-light-marker" data-light="6">
        <rect x="571.9" y="9269.2" width="80.4" height="80.4" class="marshal-light-bg"/>
        <text x="612.1" y="9309.4" class="marshal-light-label">6</text>
      </g>
      <g class="marshal-light-marker" data-light="7">
        <rect x="2564.6" y="9323.4" width="80.4" height="80.4" class="marshal-light-bg"/>
        <text x="2604.8" y="9363.6" class="marshal-light-label">7</text>
      </g>
      <g class="marshal-light-marker" data-light="8">
        <rect x="2102.4" y="8002.3" width="80.4" height="80.4" class="marshal-light-bg"/>
        <text x="2142.6" y="8042.5" class="marshal-light-label">8</text>
      </g>
      <g class="marshal-light-marker" data-light="9">
        <rect x="3554.9" y="7312.3" width="80.4" height="80.4" class="marshal-light-bg"/>
        <text x="3595.1" y="7352.5" class="marshal-light-label">9</text>
      </g>
      <g class="marshal-light-marker" data-light="10">
        <rect x="4432.4" y="6144.5" width="80.4" height="80.4" class="marshal-light-bg"/>
        <text x="4472.6" y="6184.7" class="marshal-light-label">10</text>
      </g>
      <g class="marshal-light-marker" data-light="11">
        <rect x="3390.1" y="4267.5" width="80.4" height="80.4" class="marshal-light-bg"/>
        <text x="3430.4" y="4307.7" class="marshal-light-label">11</text>
      </g>
      <g class="marshal-light-marker" data-light="12">
        <rect x="2397.5" y="3991.2" width="80.4" height="80.4" class="marshal-light-bg"/>
        <text x="2437.7" y="4031.4" class="marshal-light-label">12</text>
      </g>
      <g class="marshal-light-marker" data-light="13">
        <rect x="3030.0" y="2121.5" width="80.4" height="80.4" class="marshal-light-bg"/>
        <text x="3070.2" y="2161.7" class="marshal-light-label">13</text>
      </g>
      <g class="marshal-light-marker" data-light="14">
        <rect x="6127.2" y="2143.5" width="80.4" height="80.4" class="marshal-light-bg"/>
        <text x="6167.4" y="2183.8" class="marshal-light-label">14</text>
      </g>
      <g class="marshal-light-marker" data-light="15">
        <rect x="7951.5" y="813.5" width="80.4" height="80.4" class="marshal-light-bg"/>
        <text x="7991.7" y="853.7" class="marshal-light-label">15</text>
      </g>
      <g class="marshal-light-marker" data-light="16">
        <rect x="6695.7" y="-1253.6" width="80.4" height="80.4" class="marshal-light-bg"/>
        <text x="6736.0" y="-1213.4" class="marshal-light-label">16</text>
      </g>
      <g class="marshal-light-marker" data-light="17">
        <rect x="4891.3" y="-920.5" width="80.4" height="80.4" class="marshal-light-bg"/>
        <text x="4931.5" y="-880.2" class="marshal-light-label">17</text>
      </g>
      <g class="marshal-light-marker" data-light="18">
        <rect x="2857.8" y="-2386.5" width="80.4" height="80.4" class="marshal-light-bg"/>
        <text x="2898.1" y="-2346.3" class="marshal-light-label">18</text>
      </g>
      <g class="marshal-light-marker" data-light="19">
        <rect x="1994.2" y="-4085.4" width="80.4" height="80.4" class="marshal-light-bg"/>
        <text x="2034.5" y="-4045.2" class="marshal-light-label">19</text>
      </g>
      <g class="marshal-light-marker" data-light="20">
        <rect x="-521.6" y="-2153.4" width="80.4" height="80.4" class="marshal-light-bg"/>
        <text x="-481.4" y="-2113.2" class="marshal-light-label">20</text>
      </g>
    </g>

    <g id="marshal-sectors">
      <g class="marshal-sector-marker" data-sector="1" data-length="1009.9">
        <polygon points="-1539.6,-289.7 -1623.2,-144.9 -1456.0,-144.9" class="marshal-sector-bg"/>
        <text x="-1539.6" y="-193.2" class="marshal-sector-label">1</text>
      </g>
      <g class="marshal-sector-marker" data-sector="2" data-length="3984.9">
        <polygon points="-2993.6,2305.8 -3077.2,2450.6 -2910.0,2450.6" class="marshal-sector-bg"/>
        <text x="-2993.6" y="2402.3" class="marshal-sector-label">2</text>
      </g>
      <g class="marshal-sector-marker" data-sector="3" data-length="7742.7">
        <polygon points="-4291.7,5640.4 -4375.3,5785.2 -4208.1,5785.2" class="marshal-sector-bg"/>
        <text x="-4291.7" y="5737.0" class="marshal-sector-label">3</text>
      </g>
      <g class="marshal-sector-marker" data-sector="4" data-length="10886.0">
        <polygon points="-1494.6,4929.3 -1578.2,5074.1 -1411.0,5074.1" class="marshal-sector-bg"/>
        <text x="-1494.6" y="5025.8" class="marshal-sector-label">4</text>
      </g>
      <g class="marshal-sector-marker" data-sector="5" data-length="13587.5">
        <polygon points="-937.9,7472.4 -1021.5,7617.2 -854.4,7617.2" class="marshal-sector-bg"/>
        <text x="-937.9" y="7568.9" class="marshal-sector-label">5</text>
      </g>
      <g class="marshal-sector-marker" data-sector="6" data-length="17122.2">
        <polygon points="1520.6,9953.3 1437.0,10098.1 1604.2,10098.1" class="marshal-sector-bg"/>
        <text x="1520.6" y="10049.8" class="marshal-sector-label">6</text>
      </g>
      <g class="marshal-sector-marker" data-sector="7" data-length="19036.9">
        <polygon points="2746.6,8718.6 2663.0,8863.4 2830.2,8863.4" class="marshal-sector-bg"/>
        <text x="2746.6" y="8815.1" class="marshal-sector-label">7</text>
      </g>
      <g class="marshal-sector-marker" data-sector="8" data-length="21898.3">
        <polygon points="1248.6,6472.8 1165.0,6617.6 1332.2,6617.6" class="marshal-sector-bg"/>
        <text x="1248.6" y="6569.3" class="marshal-sector-label">8</text>
      </g>
      <g class="marshal-sector-marker" data-sector="9" data-length="25912.7">
        <polygon points="4913.5,7157.6 4829.9,7302.4 4997.1,7302.4" class="marshal-sector-bg"/>
        <text x="4913.5" y="7254.1" class="marshal-sector-label">9</text>
      </g>
      <g class="marshal-sector-marker" data-sector="10" data-length="28264.9">
        <polygon points="3924.0,5172.4 3840.4,5317.2 4007.6,5317.2" class="marshal-sector-bg"/>
        <text x="3924.0" y="5268.9" class="marshal-sector-label">10</text>
      </g>
      <g class="marshal-sector-marker" data-sector="11" data-length="29994.4">
        <polygon points="2842.9,4011.0 2759.3,4155.8 2926.5,4155.8" class="marshal-sector-bg"/>
        <text x="2842.9" y="4107.6" class="marshal-sector-label">11</text>
      </g>
      <g class="marshal-sector-marker" data-sector="12" data-length="31976.4">
        <polygon points="1769.6,2946.8 1686.0,3091.6 1853.2,3091.6" class="marshal-sector-bg"/>
        <text x="1769.6" y="3043.3" class="marshal-sector-label">12</text>
      </g>
      <g class="marshal-sector-marker" data-sector="13" data-length="34753.6">
        <polygon points="4235.3,1882.3 4151.7,2027.0 4318.9,2027.0" class="marshal-sector-bg"/>
        <text x="4235.3" y="1978.8" class="marshal-sector-label">13</text>
      </g>
      <g class="marshal-sector-marker" data-sector="14" data-length="37951.7">
        <polygon points="7344.0,1828.1 7260.4,1972.9 7427.6,1972.9" class="marshal-sector-bg"/>
        <text x="7344.0" y="1924.7" class="marshal-sector-label">14</text>
      </g>
      <g class="marshal-sector-marker" data-sector="15" data-length="40383.9">
        <polygon points="7737.7,-334.7 7654.1,-189.9 7821.3,-189.9" class="marshal-sector-bg"/>
        <text x="7737.7" y="-238.2" class="marshal-sector-label">15</text>
      </g>
      <g class="marshal-sector-marker" data-sector="16" data-length="42900.3">
        <polygon points="5708.7,-1145.2 5625.1,-1000.4 5792.3,-1000.4" class="marshal-sector-bg"/>
        <text x="5708.7" y="-1048.7" class="marshal-sector-label">16</text>
      </g>
      <g class="marshal-sector-marker" data-sector="17" data-length="45446.1">
        <polygon points="3404.8,-1393.8 3321.2,-1249.0 3488.4,-1249.0" class="marshal-sector-bg"/>
        <text x="3404.8" y="-1297.3" class="marshal-sector-label">17</text>
      </g>
      <g class="marshal-sector-marker" data-sector="18" data-length="47764.7">
        <polygon points="2388.5,-3477.0 2304.9,-3332.2 2472.1,-3332.2" class="marshal-sector-bg"/>
        <text x="2388.5" y="-3380.4" class="marshal-sector-label">18</text>
      </g>
      <g class="marshal-sector-marker" data-sector="19" data-length="49805.5">
        <polygon points="1012.7,-4637.4 929.1,-4492.6 1096.3,-4492.6" class="marshal-sector-bg"/>
        <text x="1012.7" y="-4540.9" class="marshal-sector-label">19</text>
      </g>
      <g class="marshal-sector-marker" data-sector="20" data-length="52494.4">
        <polygon points="-391.5,-2371.6 -475.1,-2226.8 -307.9,-2226.8" class="marshal-sector-bg"/>
        <text x="-391.5" y="-2275.0" class="marshal-sector-label">20</text>
      </g>
    </g>

    <g id="corners">
      <g class="corner-marker" data-corner="1" data-length="7974.1">
        <circle cx="-4102.1" cy="5867.1" r="128.7" class="corner-bg"/>
        <text x="-4102.1" y="5867.1" class="corner-label">1</text>
      </g>
      <g class="corner-marker" data-corner="2" data-length="10881.8">
        <circle cx="-1498.1" cy="5023.4" r="128.7" class="corner-bg"/>
        <text x="-1498.1" y="5023.4" class="corner-label">2</text>
      </g>
      <g class="corner-marker" data-corner="3" data-length="13107.8">
        <circle cx="-1169.0" cy="7151.1" r="128.7" class="corner-bg"/>
        <text x="-1169.0" y="7151.1" class="corner-label">3</text>
      </g>
      <g class="corner-marker" data-corner="4" data-length="17303.2">
        <circle cx="1700.9" cy="10042.1" r="128.7" class="corner-bg"/>
        <text x="1700.9" y="10042.1" class="corner-label">4</text>
      </g>
      <g class="corner-marker" data-corner="5" data-length="18868.5">
        <circle cx="2741.9" cy="8983.0" r="128.7" class="corner-bg"/>
        <text x="2741.9" y="8983.0" class="corner-label">5</text>
      </g>
      <g class="corner-marker" data-corner="6" data-length="21990.8">
        <circle cx="1329.4" cy="6525.3" r="128.7" class="corner-bg"/>
        <text x="1329.4" y="6525.3" class="corner-label">6</text>
      </g>
      <g class="corner-marker" data-corner="7" data-length="25950.5">
        <circle cx="4931.6" cy="7220.8" r="128.7" class="corner-bg"/>
        <text x="4931.6" y="7220.8" class="corner-label">7</text>
      </g>
      <g class="corner-marker" data-corner="8" data-length="27865.2">
        <circle cx="4091.1" cy="5631.7" r="128.7" class="corner-bg"/>
        <text x="4091.1" y="5631.7" class="corner-label">8</text>
      </g>
      <g class="corner-marker" data-corner="9" data-length="29077.1">
        <circle cx="3637.9" cy="4513.5" r="128.7" class="corner-bg"/>
        <text x="3637.9" y="4513.5" class="corner-label">9</text>
      </g>
      <g class="corner-marker" data-corner="10" data-length="31395.7">
        <circle cx="1632.5" cy="3576.9" r="128.7" class="corner-bg"/>
        <text x="1632.5" y="3576.9" class="corner-label">10</text>
      </g>
      <g class="corner-marker" data-corner="11" data-length="34513.8">
        <circle cx="3995.5" cy="1980.9" r="128.7" class="corner-bg"/>
        <text x="3995.5" y="1980.9" class="corner-label">11</text>
      </g>
      <g class="corner-marker" data-corner="12" data-length="37581.4">
        <circle cx="7034.2" cy="2124.4" r="128.7" class="corner-bg"/>
        <text x="7034.2" y="2124.4" class="corner-label">12</text>
      </g>
      <g class="corner-marker" data-corner="13" data-length="39588.6">
        <circle cx="8044.4" cy="485.5" r="128.7" class="corner-bg"/>
        <text x="8044.4" y="485.5" class="corner-label">13</text>
      </g>
      <g class="corner-marker" data-corner="14" data-length="41637.9">
        <circle cx="6947.8" cy="-1163.5" r="128.7" class="corner-bg"/>
        <text x="6947.8" y="-1163.5" class="corner-label">14</text>
      </g>
      <g class="corner-marker" data-corner="15" data-length="44583.4">
        <circle cx="4053.3" cy="-775.6" r="128.7" class="corner-bg"/>
        <text x="4053.3" y="-775.6" class="corner-label">15</text>
      </g>
      <g class="corner-marker" data-corner="16" data-length="49330.0">
        <circle cx="1474.9" cy="-4596.6" r="128.7" class="corner-bg"/>
        <text x="1474.9" y="-4596.6" class="corner-label">16</text>
      </g>
    </g>

    <g id="start-finish" data-track-x="-1051.0" data-track-y="-1077.0" data-lap-distance="53862.0">
      <polygon points="-1028.4,-1616.2 -1262.1,-1193.9 -1515.5,-1334.2 -1281.7,-1756.4" class="checker-border"/>
      <polygon points="-1028.4,-1616.2 -1075.1,-1531.7 -1159.6,-1578.5 -1112.8,-1662.9" class="checker-black"/>
      <polygon points="-1112.8,-1662.9 -1159.6,-1578.5 -1244.0,-1625.2 -1197.3,-1709.7" class="checker-white"/>
      <polygon points="-1197.3,-1709.7 -1244.0,-1625.2 -1328.5,-1672.0 -1281.7,-1756.4" class="checker-black"/>
      <polygon points="-1075.1,-1531.7 -1121.9,-1447.2 -1206.3,-1494.0 -1159.6,-1578.5" class="checker-white"/>
      <polygon points="-1159.6,-1578.5 -1206.3,-1494.0 -1290.8,-1540.8 -1244.0,-1625.2" class="checker-black"/>
      <polygon points="-1244.0,-1625.2 -1290.8,-1540.8 -1375.2,-1587.5 -1328.5,-1672.0" class="checker-white"/>
      <polygon points="-1121.9,-1447.2 -1168.6,-1362.8 -1253.1,-1409.5 -1206.3,-1494.0" class="checker-black"/>
      <polygon points="-1206.3,-1494.0 -1253.1,-1409.5 -1337.5,-1456.3 -1290.8,-1540.8" class="checker-white"/>
      <polygon points="-1290.8,-1540.8 -1337.5,-1456.3 -1422.0,-1503.1 -1375.2,-1587.5" class="checker-black"/>
      <polygon points="-1168.6,-1362.8 -1215.4,-1278.3 -1299.8,-1325.1 -1253.1,-1409.5" class="checker-white"/>
      <polygon points="-1253.1,-1409.5 -1299.8,-1325.1 -1384.3,-1371.9 -1337.5,-1456.3" class="checker-black"/>
      <polygon points="-1337.5,-1456.3 -1384.3,-1371.9 -1468.7,-1418.6 -1422.0,-1503.1" class="checker-white"/>
      <polygon points="-1215.4,-1278.3 -1262.1,-1193.9 -1346.6,-1240.6 -1299.8,-1325.1" class="checker-black"/>
      <polygon points="-1299.8,-1325.1 -1346.6,-1240.6 -1431.0,-1287.4 -1384.3,-1371.9" class="checker-white"/>
      <polygon points="-1384.3,-1371.9 -1431.0,-1287.4 -1515.5,-1334.2 -1468.7,-1418.6" class="checker-black"/>
      <polyline points="-1763.3,-919.7 -1700.5,-701.0 -1481.8,-763.8" class="chevron"/>
      <polyline points="-1825.7,-807.1 -1762.9,-588.4 -1544.2,-651.2" class="chevron"/>
      <polyline points="-1888.0,-694.5 -1825.2,-475.8 -1606.5,-538.6" class="chevron"/>
    </g>

    <g id="car-markers"></g>

  </g>
</svg>
