<?xml version="1.0" encoding="utf-8"?>
<?xml-stylesheet type="text/css" href="../../css/tracks.css"?>
<svg xmlns="http://www.w3.org/2000/svg" viewBox="-473.0 339.0 960.0 636.0">
  <title>Singapore</title>

  <g id="track-root" transform="translate(0, 636.00) scale(1, -1) scale(0.054320) translate(6002.00, 408.50) rotate(335, -6002.00, -408.50)" data-scale="0.054320" data-rotation="335.0">

    <g id="track-outline">
      <path d="M 639.9 2757.2 L 639.0 2765.0 L 630.0 2838.0 L 617.0 2934.0 L 598.0 3040.0 L 577.0 3147.0 L 563.0 3206.0 L 546.0 3267.0 L 530.0 3311.0 L 503.0 3371.0 L 498.0 3378.0 L 465.0 3434.0 L 430.0 3478.0 L 395.0 3514.0 L 347.0 3550.0 L 294.0 3579.0 L 210.0 3608.0 L 149.0 3624.0 L 124.0 3629.0 L 48.0 3645.0 L -87.0 3678.0 L -148.0 3699.0 L -207.0 3728.0 L -299.0 3791.0 L -355.0 3836.0 L -420.0 3891.0 L -475.0 3939.0 L -544.0 3995.0 L -586.0 4025.0 L -597.0 4033.0 L -658.0 4065.0 L -694.0 4079.0 L -744.0 4087.0 L -809.0 4085.0 L -852.0 4075.0 L -904.0 4053.0 L -932.0 4036.0 L -964.0 4008.0 L -1003.0 3962.0 L -1030.0 3919.0 L -1038.0 3902.0 L -1050.1 3875.0" class="track-outline" data-sector="2"/>
      <path d="M -1050.1 3875.0 L -1055.0 3864.0 L -1078.0 3801.0 L -1099.0 3717.0 L -1108.0 3677.0 L -1117.0 3624.0 L -1124.0 3574.0 L -1129.0 3512.0 L -1131.0 3480.0 L -1132.0 3384.0 L -1129.0 3319.0 L -1122.0 3246.0 L -1098.0 3093.0 L -1086.0 3040.0 L -1056.0 2927.0 L -1034.0 2859.0 L -1012.0 2795.0 L -987.0 2726.0 L -943.0 2612.0 L -898.0 2503.0 L -845.0 2377.0 L -797.0 2263.0 L -768.0 2193.0 L -732.0 2107.0 L -712.0 2059.0 L -661.0 1928.0 L -633.0 1853.0 L -609.0 1786.0 L -576.0 1691.0 L -535.0 1558.0 L -511.0 1468.0 L -489.0 1377.0 L -467.0 1271.0 L -462.0 1246.0 L -454.8 1195.5" class="track-outline" data-sector="3"/>
      <path d="M -454.8 1195.5 L -447.0 1141.0 L -440.0 1080.0 L -436.0 1021.0 L -430.0 894.0 L -430.0 875.0 L -434.0 751.0 L -445.0 659.0 L -454.0 616.0 L -485.0 522.0 L -510.0 472.0 L -555.0 407.0 L -582.0 378.0 L -596.0 365.0 L -705.0 290.0 L -728.0 279.0 L -809.0 245.0 L -819.0 242.0 L -884.0 221.0 L -997.0 194.0 L -1086.0 178.0 L -1133.0 171.0 L -1259.0 159.0 L -1303.0 156.0 L -1386.0 154.0 L -1435.0 153.0 L -1538.0 154.0 L -1623.0 158.0 L -1667.0 161.0 L -1755.0 169.0 L -1884.0 180.0 L -1993.0 190.0 L -2145.0 204.0 L -2344.0 222.0 L -2412.0 228.0 L -2489.0 234.0 L -2577.0 242.0 L -2718.0 253.0 L -2871.0 266.0 L -2973.0 274.0 L -3015.7 277.3" class="track-outline" data-sector="4"/>
      <path d="M -3015.7 277.3 L -3075.0 282.0 L -3207.0 291.0 L -3303.0 298.0 L -3390.0 305.0 L -3477.0 312.0 L -3576.0 320.0 L -3678.0 328.0 L -4192.0 369.0 L -4287.0 377.0 L -4383.0 385.0 L -4469.0 393.0 L -4577.0 403.0 L -4783.0 427.0 L -4914.0 446.0 L -5023.0 466.0 L -5131.0 490.0 L -5229.0 515.0 L -5358.0 555.0 L -5454.0 591.0 L -5664.0 684.0 L -5777.0 743.0 L -5920.0 822.0 L -6133.0 947.0 L -6235.0 1008.0 L -6388.0 1101.0 L -6490.0 1164.0 L -6614.0 1239.0 L -6712.0 1299.0 L -6784.0 1344.0 L -6881.0 1403.0 L -6984.0 1470.0 L -7080.0 1533.0 L -7189.0 1603.0 L -7275.3 1659.7" class="track-outline" data-sector="5"/>
      <path d="M -7275.3 1659.7 L -7291.0 1670.0 L -7376.0 1727.0 L -7456.0 1780.0 L -7554.0 1846.0 L -7626.0 1895.0 L -7701.0 1947.0 L -7755.0 1981.0 L -7855.0 2032.0 L -7913.0 2058.0 L -8013.0 2096.0 L -8051.0 2109.0 L -8128.0 2129.0 L -8211.0 2142.0 L -8273.0 2145.0 L -8353.0 2133.0 L -8394.0 2121.0 L -8455.0 2092.0 L -8529.0 2039.0 L -8555.0 2016.0 L -8599.0 1973.0 L -8668.0 1895.0 L -8720.0 1829.0 L -8751.0 1786.0 L -8800.0 1716.0 L -8829.0 1671.0 L -8861.0 1620.0 L -8884.0 1583.0 L -8917.0 1528.0 L -8948.0 1470.0 L -8997.0 1372.0 L -9036.0 1290.0 L -9081.0 1191.0 L -9114.0 1115.0 L -9156.0 1017.0 L -9200.9 912.3" class="track-outline" data-sector="6"/>
      <path d="M -9200.9 912.3 L -9207.0 898.0 L -9227.0 854.0 L -9240.0 827.0 L -9276.0 757.0 L -9307.0 704.0 L -9332.0 666.0 L -9357.0 631.0 L -9397.0 588.0 L -9452.0 548.0 L -9529.0 526.0 L -9562.0 530.0 L -9608.0 545.0 L -9641.0 562.0 L -9676.0 585.0 L -9729.0 627.0 L -9780.0 676.0 L -9799.0 695.0 L -9831.0 731.0 L -9859.0 762.0 L -9887.0 796.0 L -9910.0 824.0 L -9933.0 855.0 L -9993.0 936.0 L -10036.0 990.0 L -10070.0 1034.0 L -10121.0 1097.0 L -10183.0 1172.0 L -10228.0 1224.0 L -10239.0 1236.0 L -10330.0 1333.0 L -10384.7 1386.4" class="track-outline" data-sector="7"/>
      <path d="M -10384.7 1386.4 L -10416.0 1417.0 L -10454.0 1452.0 L -10516.0 1501.0 L -10531.0 1511.0 L -10589.0 1548.0 L -10685.0 1596.0 L -10715.0 1609.0 L -10772.0 1629.0 L -10826.0 1643.0 L -10904.0 1656.0 L -10937.0 1657.0 L -10988.0 1654.0 L -11051.0 1640.0 L -11105.0 1620.0 L -11155.0 1596.0 L -11220.0 1557.0 L -11270.0 1518.0 L -11335.0 1452.0 L -11396.0 1377.0 L -11462.0 1285.0 L -11491.0 1241.0 L -11520.0 1195.0 L -11578.0 1097.0 L -11625.0 1010.0 L -11684.0 896.0 L -11700.0 865.0 L -11755.0 757.0 L -11836.0 598.0 L -11884.0 501.0 L -11935.0 403.0 L -11972.0 331.0 L -12034.0 214.0 L -12077.0 132.0 L -12126.0 41.0 L -12163.0 -27.0 L -12218.0 -128.0 L -12258.0 -198.0 L -12297.0 -269.0 L -12351.0 -365.0 L -12413.0 -480.0 L -12462.0 -572.0 L -12516.0 -672.0 L -12620.0 -858.0 L -12689.0 -975.0 L -12715.0 -1015.0 L -12753.8 -1075.0" class="track-outline" data-sector="8"/>
      <path d="M -12753.8 -1075.0 L -12825.0 -1185.0 L -12910.0 -1311.0 L -12958.0 -1385.0 L -13015.0 -1480.0 L -13062.0 -1558.0 L -13104.0 -1630.0 L -13117.0 -1652.0 L -13149.0 -1710.0 L -13175.0 -1769.0 L -13191.0 -1820.0 L -13198.0 -1883.0 L -13198.0 -1961.0 L -13183.0 -2073.0 L -13174.0 -2113.0 L -13140.0 -2218.0 L -13113.0 -2278.0 L -13061.0 -2366.0 L -13034.0 -2403.0 L -12983.0 -2460.0 L -12939.0 -2501.0 L -12904.0 -2529.0 L -12867.0 -2556.0 L -12743.0 -2626.0 L -12710.0 -2642.0 L -12639.9 -2669.6" class="track-outline" data-sector="9"/>
      <path d="M -12639.9 -2669.6 L -12601.0 -2685.0 L -12560.0 -2699.0 L -12462.0 -2733.0 L -12424.0 -2748.0 L -12376.0 -2773.0 L -12340.0 -2800.0 L -12284.0 -2868.0 L -12224.0 -3012.0 L -12205.0 -3088.0 L -12191.0 -3153.0 L -12184.0 -3194.0 L -12169.0 -3279.0 L -12163.0 -3318.0 L -12149.0 -3402.0 L -12141.0 -3443.0 L -12110.0 -3568.0 L -12075.0 -3642.0 L -12033.0 -3698.0 L -12012.0 -3720.0 L -11972.0 -3760.0 L -11926.0 -3801.0 L -11859.0 -3859.0 L -11810.0 -3900.0 L -11774.0 -3928.0 L -11665.0 -4016.0 L -11622.0 -4051.0 L -11593.2 -4074.9" class="track-outline" data-sector="10"/>
      <path d="M -11593.2 -4074.9 L -11540.0 -4119.0 L -11505.0 -4149.0 L -11451.0 -4197.0 L -11361.0 -4281.0 L -11282.0 -4364.0 L -11209.0 -4452.0 L -11161.0 -4520.0 L -11125.0 -4575.0 L -11100.0 -4615.0 L -11048.0 -4695.0 L -11017.0 -4741.0 L -10987.0 -4780.0 L -10960.0 -4811.0 L -10944.0 -4826.0 L -10919.0 -4848.0 L -10883.0 -4874.0 L -10859.0 -4886.0 L -10826.0 -4898.0 L -10793.0 -4904.0 L -10738.0 -4895.0 L -10715.0 -4883.0 L -10697.0 -4871.0 L -10678.0 -4852.0 L -10655.0 -4825.0 L -10634.0 -4791.0 L -10621.0 -4765.0 L -10600.0 -4713.0 L -10580.0 -4649.0 L -10576.0 -4631.0 L -10560.0 -4563.0 L -10542.0 -4466.0 L -10531.0 -4407.0 L -10525.0 -4367.0 L -10509.0 -4260.0 L -10501.0 -4198.0 L -10489.0 -4097.0 L -10479.0 -4023.0 L -10469.0 -3946.0 L -10456.0 -3860.0 L -10450.0 -3819.0 L -10429.0 -3672.0 L -10409.0 -3548.0 L -10397.0 -3473.0 L -10395.9 -3466.6" class="track-outline" data-sector="11"/>
      <path d="M -10395.9 -3466.6 L -10393.0 -3450.0 L -10379.0 -3358.0 L -10349.0 -3168.0 L -10340.0 -3111.0 L -10289.0 -2801.0 L -10271.0 -2697.0 L -10257.0 -2619.0 L -10246.0 -2556.0 L -10222.0 -2422.0 L -10191.0 -2267.0 L -10164.0 -2128.0 L -10149.0 -2063.0 L -10117.0 -1921.0 L -10067.0 -1710.0 L -10045.0 -1623.0 L -10013.0 -1497.0 L -9999.0 -1444.0" class="track-outline" data-sector="12"/>
      <path d="M -9999.0 -1444.0 L -9994.0 -1425.0 L -9955.0 -1286.0 L -9921.0 -1172.0 L -9880.0 -1040.0 L -9854.0 -959.0 L -9828.0 -878.0 L -9798.0 -791.0 L -9758.0 -678.0 L -9713.0 -553.0 L -9666.0 -427.0 L -9639.0 -354.0 L -9617.0 -297.0 L -9585.0 -218.0 L -9554.0 -144.0 L -9532.0 -98.0 L -9504.0 -42.0 L -9467.0 14.0 L -9429.0 58.0 L -9396.0 86.0 L -9361.0 106.0 L -9277.0 126.0 L -9231.0 125.0 L -9195.0 118.0 L -9124.0 94.0 L -9082.0 73.0 L -9026.0 40.0 L -8965.0 -2.0 L -8937.0 -23.0 L -8882.0 -67.0 L -8837.0 -103.0 L -8827.0 -112.0 L -8737.0 -188.0 L -8710.0 -211.0 L -8670.0 -246.0 L -8595.0 -313.0 L -8561.0 -344.0 L -8526.0 -376.0 L -8445.0 -453.0 L -8379.0 -516.0 L -8306.0 -587.0 L -8233.0 -655.0 L -8152.0 -729.0 L -8085.0 -789.0 L -7975.0 -885.0 L -7908.0 -940.0 L -7865.0 -975.0 L -7808.0 -1020.0 L -7703.0 -1098.0 L -7641.6 -1138.8" class="track-outline" data-sector="13"/>
      <path d="M -7641.6 -1138.8 L -7584.0 -1177.0 L -7519.0 -1216.0 L -7388.0 -1283.0 L -7241.0 -1343.0 L -7129.0 -1378.0 L -7014.0 -1405.0 L -6810.0 -1434.0 L -6735.0 -1441.0 L -6592.0 -1450.0 L -6497.0 -1456.0 L -6381.0 -1464.0 L -6164.0 -1478.0 L -5944.0 -1493.0 L -5821.0 -1501.0 L -5770.0 -1504.0 L -5656.0 -1512.0 L -5541.0 -1519.0 L -5372.0 -1531.0 L -5254.0 -1538.0 L -5190.0 -1543.0 L -5028.0 -1553.0 L -4940.0 -1559.0 L -4853.0 -1564.0 L -4720.0 -1571.0 L -4631.0 -1576.0 L -4407.0 -1587.0 L -4282.0 -1592.0 L -4157.0 -1596.0 L -4044.0 -1597.0 L -3945.0 -1599.0 L -3819.0 -1601.0 L -3728.0 -1604.0 L -3632.0 -1607.0 L -3488.0 -1611.0 L -3355.2 -1614.2" class="track-outline" data-sector="14"/>
      <path d="M -3355.2 -1614.2 L -3323.0 -1615.0 L -3254.0 -1618.0 L -3070.0 -1628.0 L -3050.0 -1630.0 L -2933.0 -1638.0 L -2897.0 -1641.0 L -2851.0 -1646.0 L -2754.0 -1659.0 L -2694.0 -1671.0 L -2657.0 -1681.0 L -2626.0 -1692.0 L -2561.0 -1729.0 L -2504.0 -1793.0 L -2472.0 -1876.0 L -2455.0 -1940.0 L -2442.0 -1992.0 L -2430.0 -2032.0 L -2422.0 -2056.0 L -2408.0 -2093.0 L -2393.0 -2130.0 L -2350.0 -2215.0 L -2314.0 -2276.0 L -2265.0 -2341.0 L -2215.0 -2393.0 L -2189.0 -2416.0 L -2107.0 -2475.0 L -2066.0 -2497.0 L -2002.0 -2525.0 L -1945.0 -2544.0 L -1897.0 -2557.0 L -1795.0 -2579.0 L -1731.0 -2589.0 L -1665.0 -2597.0 L -1609.0 -2601.0 L -1538.0 -2606.0 L -1432.0 -2609.0 L -1377.0 -2610.0 L -1275.0 -2611.0 L -1175.0 -2611.0 L -1026.0 -2614.0 L -926.0 -2617.0 L -887.0 -2618.0 L -793.0 -2621.0 L -712.0 -2624.0 L -623.0 -2629.0 L -540.0 -2633.0 L -387.0 -2642.0 L -219.4 -2653.6" class="track-outline" data-sector="15"/>
      <path d="M -219.4 -2653.6 L -214.0 -2654.0 L -92.0 -2662.0 L 73.0 -2671.0 L 217.0 -2673.0 L 303.0 -2669.0 L 367.0 -2661.0 L 431.0 -2650.0 L 548.0 -2615.0 L 612.0 -2585.0 L 679.0 -2544.0 L 726.0 -2509.0 L 816.0 -2426.0 L 908.0 -2318.0 L 944.0 -2268.0 L 996.0 -2187.0 L 1038.0 -2112.0 L 1065.0 -2057.0 L 1102.0 -1970.0 L 1172.0 -1706.0 L 1191.0 -1537.0 L 1194.0 -1476.0 L 1194.0 -1345.0 L 1190.0 -1258.0 L 1184.0 -1171.0 L 1175.0 -1081.0 L 1162.0 -974.0 L 1144.0 -853.0 L 1120.0 -707.0 L 1116.3 -684.6" class="track-outline" data-sector="16"/>
      <path d="M 1116.3 -684.6 L 1108.0 -635.0 L 1076.0 -441.0 L 1018.0 -84.0 L 987.0 114.0 L 966.0 249.0 L 943.0 397.0 L 927.0 506.0 L 915.0 586.0 L 894.0 728.0 L 875.0 861.0 L 856.0 996.0 L 843.0 1090.0 L 825.0 1227.0 L 814.0 1313.0 L 805.0 1377.0 L 772.0 1638.0 L 752.0 1794.0 L 749.0 1816.0 L 736.0 1927.0 L 721.0 2047.0 L 692.0 2300.0 L 683.0 2385.0 L 669.0 2504.0 L 655.0 2629.0 L 639.9 2757.2" class="track-outline" data-sector="1"/>
    </g>

    <g id="track-sectors">
      <path d="M 639.9 2757.2 L 639.0 2765.0 L 630.0 2838.0 L 617.0 2934.0 L 598.0 3040.0 L 577.0 3147.0 L 563.0 3206.0 L 546.0 3267.0 L 530.0 3311.0 L 503.0 3371.0 L 498.0 3378.0 L 465.0 3434.0 L 430.0 3478.0 L 395.0 3514.0 L 347.0 3550.0 L 294.0 3579.0 L 210.0 3608.0 L 149.0 3624.0 L 124.0 3629.0 L 48.0 3645.0 L -87.0 3678.0 L -148.0 3699.0 L -207.0 3728.0 L -299.0 3791.0 L -355.0 3836.0 L -420.0 3891.0 L -475.0 3939.0 L -544.0 3995.0 L -586.0 4025.0 L -597.0 4033.0 L -658.0 4065.0 L -694.0 4079.0 L -744.0 4087.0 L -809.0 4085.0 L -852.0 4075.0 L -904.0 4053.0 L -932.0 4036.0 L -964.0 4008.0 L -1003.0 3962.0 L -1030.0 3919.0 L -1038.0 3902.0 L -1050.1 3875.0" class="track" data-sector="2"/>
      <path d="M -1050.1 3875.0 L -1055.0 3864.0 L -1078.0 3801.0 L -1099.0 3717.0 L -1108.0 3677.0 L -1117.0 3624.0 L -1124.0 3574.0 L -1129.0 3512.0 L -1131.0 3480.0 L -1132.0 3384.0 L -1129.0 3319.0 L -1122.0 3246.0 L -1098.0 3093.0 L -1086.0 3040.0 L -1056.0 2927.0 L -1034.0 2859.0 L -1012.0 2795.0 L -987.0 2726.0 L -943.0 2612.0 L -898.0 2503.0 L -845.0 2377.0 L -797.0 2263.0 L -768.0 2193.0 L -732.0 2107.0 L -712.0 2059.0 L -661.0 1928.0 L -633.0 1853.0 L -609.0 1786.0 L -576.0 1691.0 L -535.0 1558.0 L -511.0 1468.0 L -489.0 1377.0 L -467.0 1271.0 L -462.0 1246.0 L -454.8 1195.5" class="track" data-sector="3"/>
      <path d="M -454.8 1195.5 L -447.0 1141.0 L -440.0 1080.0 L -436.0 1021.0 L -430.0 894.0 L -430.0 875.0 L -434.0 751.0 L -445.0 659.0 L -454.0 616.0 L -485.0 522.0 L -510.0 472.0 L -555.0 407.0 L -582.0 378.0 L -596.0 365.0 L -705.0 290.0 L -728.0 279.0 L -809.0 245.0 L -819.0 242.0 L -884.0 221.0 L -997.0 194.0 L -1086.0 178.0 L -1133.0 171.0 L -1259.0 159.0 L -1303.0 156.0 L -1386.0 154.0 L -1435.0 153.0 L -1538.0 154.0 L -1623.0 158.0 L -1667.0 161.0 L -1755.0 169.0 L -1884.0 180.0 L -1993.0 190.0 L -2145.0 204.0 L -2344.0 222.0 L -2412.0 228.0 L -2489.0 234.0 L -2577.0 242.0 L -2718.0 253.0 L -2871.0 266.0 L -2973.0 274.0 L -3015.7 277.3" class="track" data-sector="4"/>
      <path d="M -3015.7 277.3 L -3075.0 282.0 L -3207.0 291.0 L -3303.0 298.0 L -3390.0 305.0 L -3477.0 312.0 L -3576.0 320.0 L -3678.0 328.0 L -4192.0 369.0 L -4287.0 377.0 L -4383.0 385.0 L -4469.0 393.0 L -4577.0 403.0 L -4783.0 427.0 L -4914.0 446.0 L -5023.0 466.0 L -5131.0 490.0 L -5229.0 515.0 L -5358.0 555.0 L -5454.0 591.0 L -5664.0 684.0 L -5777.0 743.0 L -5920.0 822.0 L -6133.0 947.0 L -6235.0 1008.0 L -6388.0 1101.0 L -6490.0 1164.0 L -6614.0 1239.0 L -6712.0 1299.0 L -6784.0 1344.0 L -6881.0 1403.0 L -6984.0 1470.0 L -7080.0 1533.0 L -7189.0 1603.0 L -7275.3 1659.7" class="track" data-sector="5"/>
      <path d="M -7275.3 1659.7 L -7291.0 1670.0 L -7376.0 1727.0 L -7456.0 1780.0 L -7554.0 1846.0 L -7626.0 1895.0 L -7701.0 1947.0 L -7755.0 1981.0 L -7855.0 2032.0 L -7913.0 2058.0 L -8013.0 2096.0 L -8051.0 2109.0 L -8128.0 2129.0 L -8211.0 2142.0 L -8273.0 2145.0 L -8353.0 2133.0 L -8394.0 2121.0 L -8455.0 2092.0 L -8529.0 2039.0 L -8555.0 2016.0 L -8599.0 1973.0 L -8668.0 1895.0 L -8720.0 1829.0 L -8751.0 1786.0 L -8800.0 1716.0 L -8829.0 1671.0 L -8861.0 1620.0 L -8884.0 1583.0 L -8917.0 1528.0 L -8948.0 1470.0 L -8997.0 1372.0 L -9036.0 1290.0 L -9081.0 1191.0 L -9114.0 1115.0 L -9156.0 1017.0 L -9200.9 912.3" class="track" data-sector="6"/>
      <path d="M -9200.9 912.3 L -9207.0 898.0 L -9227.0 854.0 L -9240.0 827.0 L -9276.0 757.0 L -9307.0 704.0 L -9332.0 666.0 L -9357.0 631.0 L -9397.0 588.0 L -9452.0 548.0 L -9529.0 526.0 L -9562.0 530.0 L -9608.0 545.0 L -9641.0 562.0 L -9676.0 585.0 L -9729.0 627.0 L -9780.0 676.0 L -9799.0 695.0 L -9831.0 731.0 L -9859.0 762.0 L -9887.0 796.0 L -9910.0 824.0 L -9933.0 855.0 L -9993.0 936.0 L -10036.0 990.0 L -10070.0 1034.0 L -10121.0 1097.0 L -10183.0 1172.0 L -10228.0 1224.0 L -10239.0 1236.0 L -10330.0 1333.0 L -10384.7 1386.4" class="track" data-sector="7"/>
      <path d="M -10384.7 1386.4 L -10416.0 1417.0 L -10454.0 1452.0 L -10516.0 1501.0 L -10531.0 1511.0 L -10589.0 1548.0 L -10685.0 1596.0 L -10715.0 1609.0 L -10772.0 1629.0 L -10826.0 1643.0 L -10904.0 1656.0 L -10937.0 1657.0 L -10988.0 1654.0 L -11051.0 1640.0 L -11105.0 1620.0 L -11155.0 1596.0 L -11220.0 1557.0 L -11270.0 1518.0 L -11335.0 1452.0 L -11396.0 1377.0 L -11462.0 1285.0 L -11491.0 1241.0 L -11520.0 1195.0 L -11578.0 1097.0 L -11625.0 1010.0 L -11684.0 896.0 L -11700.0 865.0 L -11755.0 757.0 L -11836.0 598.0 L -11884.0 501.0 L -11935.0 403.0 L -11972.0 331.0 L -12034.0 214.0 L -12077.0 132.0 L -12126.0 41.0 L -12163.0 -27.0 L -12218.0 -128.0 L -12258.0 -198.0 L -12297.0 -269.0 L -12351.0 -365.0 L -12413.0 -480.0 L -12462.0 -572.0 L -12516.0 -672.0 L -12620.0 -858.0 L -12689.0 -975.0 L -12715.0 -1015.0 L -12753.8 -1075.0" class="track" data-sector="8"/>
      <path d="M -12753.8 -1075.0 L -12825.0 -1185.0 L -12910.0 -1311.0 L -12958.0 -1385.0 L -13015.0 -1480.0 L -13062.0 -1558.0 L -13104.0 -1630.0 L -13117.0 -1652.0 L -13149.0 -1710.0 L -13175.0 -1769.0 L -13191.0 -1820.0 L -13198.0 -1883.0 L -13198.0 -1961.0 L -13183.0 -2073.0 L -13174.0 -2113.0 L -13140.0 -2218.0 L -13113.0 -2278.0 L -13061.0 -2366.0 L -13034.0 -2403.0 L -12983.0 -2460.0 L -12939.0 -2501.0 L -12904.0 -2529.0 L -12867.0 -2556.0 L -12743.0 -2626.0 L -12710.0 -2642.0 L -12639.9 -2669.6" class="track" data-sector="9"/>
      <path d="M -12639.9 -2669.6 L -12601.0 -2685.0 L -12560.0 -2699.0 L -12462.0 -2733.0 L -12424.0 -2748.0 L -12376.0 -2773.0 L -12340.0 -2800.0 L -12284.0 -2868.0 L -12224.0 -3012.0 L -12205.0 -3088.0 L -12191.0 -3153.0 L -12184.0 -3194.0 L -12169.0 -3279.0 L -12163.0 -3318.0 L -12149.0 -3402.0 L -12141.0 -3443.0 L -12110.0 -3568.0 L -12075.0 -3642.0 L -12033.0 -3698.0 L -12012.0 -3720.0 L -11972.0 -3760.0 L -11926.0 -3801.0 L -11859.0 -3859.0 L -11810.0 -3900.0 L -11774.0 -3928.0 L -11665.0 -4016.0 L -11622.0 -4051.0 L -11593.2 -4074.9" class="track" data-sector="10"/>
      <path d="M -11593.2 -4074.9 L -11540.0 -4119.0 L -11505.0 -4149.0 L -11451.0 -4197.0 L -11361.0 -4281.0 L -11282.0 -4364.0 L -11209.0 -4452.0 L -11161.0 -4520.0 L -11125.0 -4575.0 L -11100.0 -4615.0 L -11048.0 -4695.0 L -11017.0 -4741.0 L -10987.0 -4780.0 L -10960.0 -4811.0 L -10944.0 -4826.0 L -10919.0 -4848.0 L -10883.0 -4874.0 L -10859.0 -4886.0 L -10826.0 -4898.0 L -10793.0 -4904.0 L -10738.0 -4895.0 L -10715.0 -4883.0 L -10697.0 -4871.0 L -10678.0 -4852.0 L -10655.0 -4825.0 L -10634.0 -4791.0 L -10621.0 -4765.0 L -10600.0 -4713.0 L -10580.0 -4649.0 L -10576.0 -4631.0 L -10560.0 -4563.0 L -10542.0 -4466.0 L -10531.0 -4407.0 L -10525.0 -4367.0 L -10509.0 -4260.0 L -10501.0 -4198.0 L -10489.0 -4097.0 L -10479.0 -4023.0 L -10469.0 -3946.0 L -10456.0 -3860.0 L -10450.0 -3819.0 L -10429.0 -3672.0 L -10409.0 -3548.0 L -10397.0 -3473.0 L -10395.9 -3466.6" class="track" data-sector="11"/>
      <path d="M -10395.9 -3466.6 L -10393.0 -3450.0 L -10379.0 -3358.0 L -10349.0 -3168.0 L -10340.0 -3111.0 L -10289.0 -2801.0 L -10271.0 -2697.0 L -10257.0 -2619.0 L -10246.0 -2556.0 L -10222.0 -2422.0 L -10191.0 -2267.0 L -10164.0 -2128.0 L -10149.0 -2063.0 L -10117.0 -1921.0 L -10067.0 -1710.0 L -10045.0 -1623.0 L -10013.0 -1497.0 L -9999.0 -1444.0" class="track" data-sector="12"/>
      <path d="M -9999.0 -1444.0 L -9994.0 -1425.0 L -9955.0 -1286.0 L -9921.0 -1172.0 L -9880.0 -1040.0 L -9854.0 -959.0 L -9828.0 -878.0 L -9798.0 -791.0 L -9758.0 -678.0 L -9713.0 -553.0 L -9666.0 -427.0 L -9639.0 -354.0 L -9617.0 -297.0 L -9585.0 -218.0 L -9554.0 -144.0 L -9532.0 -98.0 L -9504.0 -42.0 L -9467.0 14.0 L -9429.0 58.0 L -9396.0 86.0 L -9361.0 106.0 L -9277.0 126.0 L -9231.0 125.0 L -9195.0 118.0 L -9124.0 94.0 L -9082.0 73.0 L -9026.0 40.0 L -8965.0 -2.0 L -8937.0 -23.0 L -8882.0 -67.0 L -8837.0 -103.0 L -8827.0 -112.0 L -8737.0 -188.0 L -8710.0 -211.0 L -8670.0 -246.0 L -8595.0 -313.0 L -8561.0 -344.0 L -8526.0 -376.0 L -8445.0 -453.0 L -8379.0 -516.0 L -8306.0 -587.0 L -8233.0 -655.0 L -8152.0 -729.0 L -8085.0 -789.0 L -7975.0 -885.0 L -7908.0 -940.0 L -7865.0 -975.0 L -7808.0 -1020.0 L -7703.0 -1098.0 L -7641.6 -1138.8" class="track" data-sector="13"/>
      <path d="M -7641.6 -1138.8 L -7584.0 -1177.0 L -7519.0 -1216.0 L -7388.0 -1283.0 L -7241.0 -1343.0 L -7129.0 -1378.0 L -7014.0 -1405.0 L -6810.0 -1434.0 L -6735.0 -1441.0 L -6592.0 -1450.0 L -6497.0 -1456.0 L -6381.0 -1464.0 L -6164.0 -1478.0 L -5944.0 -1493.0 L -5821.0 -1501.0 L -5770.0 -1504.0 L -5656.0 -1512.0 L -5541.0 -1519.0 L -5372.0 -1531.0 L -5254.0 -1538.0 L -5190.0 -1543.0 L -5028.0 -1553.0 L -4940.0 -1559.0 L -4853.0 -1564.0 L -4720.0 -1571.0 L -4631.0 -1576.0 L -4407.0 -1587.0 L -4282.0 -1592.0 L -4157.0 -1596.0 L -4044.0 -1597.0 L -3945.0 -1599.0 L -3819.0 -1601.0 L -3728.0 -1604.0 L -3632.0 -1607.0 L -3488.0 -1611.0 L -3355.2 -1614.2" class="track" data-sector="14"/>
      <path d="M -3355.2 -1614.2 L -3323.0 -1615.0 L -3254.0 -1618.0 L -3070.0 -1628.0 L -3050.0 -1630.0 L -2933.0 -1638.0 L -2897.0 -1641.0 L -2851.0 -1646.0 L -2754.0 -1659.0 L -2694.0 -1671.0 L -2657.0 -1681.0 L -2626.0 -1692.0 L -2561.0 -1729.0 L -2504.0 -1793.0 L -2472.0 -1876.0 L -2455.0 -1940.0 L -2442.0 -1992.0 L -2430.0 -2032.0 L -2422.0 -2056.0 L -2408.0 -2093.0 L -2393.0 -2130.0 L -2350.0 -2215.0 L -2314.0 -2276.0 L -2265.0 -2341.0 L -2215.0 -2393.0 L -2189.0 -2416.0 L -2107.0 -2475.0 L -2066.0 -2497.0 L -2002.0 -2525.0 L -1945.0 -2544.0 L -1897.0 -2557.0 L -1795.0 -2579.0 L -1731.0 -2589.0 L -1665.0 -2597.0 L -1609.0 -2601.0 L -1538.0 -2606.0 L -1432.0 -2609.0 L -1377.0 -2610.0 L -1275.0 -2611.0 L -1175.0 -2611.0 L -1026.0 -2614.0 L -926.0 -2617.0 L -887.0 -2618.0 L -793.0 -2621.0 L -712.0 -2624.0 L -623.0 -2629.0 L -540.0 -2633.0 L -387.0 -2642.0 L -219.4 -2653.6" class="track" data-sector="15"/>
      <path d="M -219.4 -2653.6 L -214.0 -2654.0 L -92.0 -2662.0 L 73.0 -2671.0 L 217.0 -2673.0 L 303.0 -2669.0 L 367.0 -2661.0 L 431.0 -2650.0 L 548.0 -2615.0 L 612.0 -2585.0 L 679.0 -2544.0 L 726.0 -2509.0 L 816.0 -2426.0 L 908.0 -2318.0 L 944.0 -2268.0 L 996.0 -2187.0 L 1038.0 -2112.0 L 1065.0 -2057.0 L 1102.0 -1970.0 L 1172.0 -1706.0 L 1191.0 -1537.0 L 1194.0 -1476.0 L 1194.0 -1345.0 L 1190.0 -1258.0 L 1184.0 -1171.0 L 1175.0 -1081.0 L 1162.0 -974.0 L 1144.0 -853.0 L 1120.0 -707.0 L 1116.3 -684.6" class="track" data-sector="16"/>
      <path d="M 1116.3 -684.6 L 1108.0 -635.0 L 1076.0 -441.0 L 1018.0 -84.0 L 987.0 114.0 L 966.0 249.0 L 943.0 397.0 L 927.0 506.0 L 915.0 586.0 L 894.0 728.0 L 875.0 861.0 L 856.0 996.0 L 843.0 1090.0 L 825.0 1227.0 L 814.0 1313.0 L 805.0 1377.0 L 772.0 1638.0 L 752.0 1794.0 L 749.0 1816.0 L 736.0 1927.0 L 721.0 2047.0 L 692.0 2300.0 L 683.0 2385.0 L 669.0 2504.0 L 655.0 2629.0 L 639.9 2757.2" class="track" data-sector="1"/>
    </g>

    <g id="marshal-lights">
      <g class="marshal-light-marker" data-light="1">
        <rect x="1014.1" y="-389.6" width="92.0" height="92.0" class="marshal-light-bg"/>
        <text x="1060.2" y="-343.5" class="marshal-light-label">1</text>
      </g>
      <g class="marshal-light-marker" data-light="2">
        <rect x="620.4" y="2481.0" width="92.0" height="92.0" class="marshal-light-bg"/>
        <text x="666.4" y="2527.1" class="marshal-light-label">2</text>
      </g>
      <g class="marshal-light-marker" data-light="3">
        <rect x="-1154.4" y="3628.8" width="92.0" height="92.0" class="marshal-light-bg"/>
        <text x="-1108.4" y="3674.8" class="marshal-light-label">3</text>
      </g>
      <g class="marshal-light-marker" data-light="4">
        <rect x="-477.4" y="877.2" width="92.0" height="92.0" class="marshal-light-bg"/>
        <text x="-431.4" y="923.2" class="marshal-light-label">4</text>
      </g>
      <g class="marshal-light-marker" data-light="5">
        <rect x="-2993.6" y="226.0" width="92.0" height="92.0" class="marshal-light-bg"/>
        <text x="-2947.6" y="272.0" class="marshal-light-label">5</text>
      </g>
      <g class="marshal-light-marker" data-light="6">
        <rect x="-7318.1" y="1611.6" width="92.0" height="92.0" class="marshal-light-bg"/>
        <text x="-7272.1" y="1657.6" class="marshal-light-label">6</text>
      </g>
      <g class="marshal-light-marker" data-light="7">
        <rect x="-9227.4" y="911.7" width="92.0" height="92.0" class="marshal-light-bg"/>
        <text x="-9181.4" y="957.7" class="marshal-light-label">7</text>
      </g>
      <g class="marshal-light-marker" data-light="8">
        <rect x="-10452.4" y="1361.6" width="92.0" height="92.0" class="marshal-light-bg"/>
        <text x="-10406.4" y="1407.6" class="marshal-light-label">8</text>
      </g>
      <g class="marshal-light-marker" data-light="9">
        <rect x="-12777.2" y="-1086.0" width="92.0" height="92.0" class="marshal-light-bg"/>
        <text x="-12731.1" y="-1039.9" class="marshal-light-label">9</text>
      </g>
      <g class="marshal-light-marker" data-light="10">
        <rect x="-12742.5" y="-2693.4" width="92.0" height="92.0" class="marshal-light-bg"/>
        <text x="-12696.5" y="-2647.3" class="marshal-light-label">10</text>
      </g>
      <g class="marshal-light-marker" data-light="11">
        <rect x="-11431.4" y="-4304.3" width="92.0" height="92.0" class="marshal-light-bg"/>
        <text x="-11385.4" y="-4258.3" class="marshal-light-label">11</text>
      </g>
      <g class="marshal-light-marker" data-light="12">
        <rect x="-10406.6" y="-3287.5" width="92.0" height="92.0" class="marshal-light-bg"/>
        <text x="-10360.6" y="-3241.4" class="marshal-light-label">12</text>
      </g>
      <g class="marshal-light-marker" data-light="13">
        <rect x="-10054.7" y="-1526.8" width="92.0" height="92.0" class="marshal-light-bg"/>
        <text x="-10008.7" y="-1480.7" class="marshal-light-label">13</text>
      </g>
      <g class="marshal-light-marker" data-light="14">
        <rect x="-7787.4" y="-1115.5" width="92.0" height="92.0" class="marshal-light-bg"/>
        <text x="-7741.4" y="-1069.5" class="marshal-light-label">14</text>
      </g>
      <g class="marshal-light-marker" data-light="15">
        <rect x="-3568.3" y="-1656.1" width="92.0" height="92.0" class="marshal-light-bg"/>
        <text x="-3522.3" y="-1610.0" class="marshal-light-label">15</text>
      </g>
      <g class="marshal-light-marker" data-light="16">
        <rect x="-144.2" y="-2707.6" width="92.0" height="92.0" class="marshal-light-bg"/>
        <text x="-98.1" y="-2661.6" class="marshal-light-label">16</text>
      </g>
    </g>

    <g id="marshal-sectors">
      <g class="marshal-sector-marker" data-sector="1" data-length="48366.9">
        <polygon points="1116.3,-795.0 1020.6,-629.3 1211.9,-629.3" class="marshal-sector-bg"/>
        <text x="1116.3" y="-684.6" class="marshal-sector-label">1</text>
      </g>
      <g class="marshal-sector-marker" data-sector="2" data-length="3228.3">
        <polygon points="639.9,2646.7 544.3,2812.4 735.6,2812.4" class="marshal-sector-bg"/>
        <text x="639.9" y="2757.2" class="marshal-sector-label">2</text>
      </g>
      <g class="marshal-sector-marker" data-sector="3" data-length="5738.7">
        <polygon points="-1050.1,3764.5 -1145.7,3930.2 -954.4,3930.2" class="marshal-sector-bg"/>
        <text x="-1050.1" y="3875.0" class="marshal-sector-label">3</text>
      </g>
      <g class="marshal-sector-marker" data-sector="4" data-length="8541.6">
        <polygon points="-454.8,1085.0 -550.4,1250.7 -359.1,1250.7" class="marshal-sector-bg"/>
        <text x="-454.8" y="1195.5" class="marshal-sector-label">4</text>
      </g>
      <g class="marshal-sector-marker" data-sector="5" data-length="11883.8">
        <polygon points="-3015.7,166.9 -3111.4,332.6 -2920.1,332.6" class="marshal-sector-bg"/>
        <text x="-3015.7" y="277.3" class="marshal-sector-label">5</text>
      </g>
      <g class="marshal-sector-marker" data-sector="6" data-length="16464.1">
        <polygon points="-7275.3,1549.2 -7370.9,1714.9 -7179.6,1714.9" class="marshal-sector-bg"/>
        <text x="-7275.3" y="1659.7" class="marshal-sector-label">6</text>
      </g>
      <g class="marshal-sector-marker" data-sector="7" data-length="19194.8">
        <polygon points="-9200.9,801.9 -9296.5,967.6 -9105.2,967.6" class="marshal-sector-bg"/>
        <text x="-9200.9" y="912.3" class="marshal-sector-label">7</text>
      </g>
      <g class="marshal-sector-marker" data-sector="8" data-length="20957.1">
        <polygon points="-10384.7,1275.9 -10480.3,1441.6 -10289.0,1441.6" class="marshal-sector-bg"/>
        <text x="-10384.7" y="1386.4" class="marshal-sector-label">8</text>
      </g>
      <g class="marshal-sector-marker" data-sector="9" data-length="24948.7">
        <polygon points="-12753.8,-1185.5 -12849.5,-1019.8 -12658.2,-1019.8" class="marshal-sector-bg"/>
        <text x="-12753.8" y="-1075.0" class="marshal-sector-label">9</text>
      </g>
      <g class="marshal-sector-marker" data-sector="10" data-length="26916.1">
        <polygon points="-12639.9,-2780.1 -12735.6,-2614.4 -12544.3,-2614.4" class="marshal-sector-bg"/>
        <text x="-12639.9" y="-2669.6" class="marshal-sector-label">10</text>
      </g>
      <g class="marshal-sector-marker" data-sector="11" data-length="28788.5">
        <polygon points="-11593.2,-4185.3 -11688.9,-4019.6 -11497.6,-4019.6" class="marshal-sector-bg"/>
        <text x="-11593.2" y="-4074.9" class="marshal-sector-label">11</text>
      </g>
      <g class="marshal-sector-marker" data-sector="12" data-length="31515.4">
        <polygon points="-10395.9,-3577.0 -10491.5,-3411.3 -10300.2,-3411.3" class="marshal-sector-bg"/>
        <text x="-10395.9" y="-3466.6" class="marshal-sector-label">12</text>
      </g>
      <g class="marshal-sector-marker" data-sector="13" data-length="33577.7">
        <polygon points="-9999.0,-1554.5 -10094.7,-1388.8 -9903.4,-1388.8" class="marshal-sector-bg"/>
        <text x="-9999.0" y="-1444.0" class="marshal-sector-label">13</text>
      </g>
      <g class="marshal-sector-marker" data-sector="14" data-length="37451.6">
        <polygon points="-7641.6,-1249.2 -7737.2,-1083.6 -7545.9,-1083.6" class="marshal-sector-bg"/>
        <text x="-7641.6" y="-1138.8" class="marshal-sector-label">14</text>
      </g>
      <g class="marshal-sector-marker" data-sector="15" data-length="41804.0">
        <polygon points="-3355.2,-1724.7 -3450.9,-1559.0 -3259.6,-1559.0" class="marshal-sector-bg"/>
        <text x="-3355.2" y="-1614.2" class="marshal-sector-label">15</text>
      </g>
      <g class="marshal-sector-marker" data-sector="16" data-length="45419.7">
        <polygon points="-219.4,-2764.1 -315.1,-2598.4 -123.8,-2598.4" class="marshal-sector-bg"/>
        <text x="-219.4" y="-2653.6" class="marshal-sector-label">16</text>
      </g>
    </g>

    <g id="corners">
      <g class="corner-marker" data-corner="1" data-length="3987.8">
        <circle cx="431.1" cy="3476.6" r="147.3" class="corner-bg"/>
        <text x="431.1" y="3476.6" class="corner-label">1</text>
      </g>
      <g class="corner-marker" data-corner="2" data-length="4671.5">
        <circle cx="-195.2" cy="3722.2" r="147.3" class="corner-bg"/>
        <text x="-195.2" y="3722.2" class="corner-label">2</text>
      </g>
      <g class="corner-marker" data-corner="3" data-length="5374.1">
        <circle cx="-779.8" cy="4085.9" r="147.3" class="corner-bg"/>
        <text x="-779.8" y="4085.9" class="corner-label">3</text>
      </g>
      <g class="corner-marker" data-corner="4" data-length="6878.1">
        <circle cx="-1000.2" cy="2762.6" r="147.3" class="corner-bg"/>
        <text x="-1000.2" y="2762.6" class="corner-label">4</text>
      </g>
      <g class="corner-marker" data-corner="5" data-length="9548.0">
        <circle cx="-704.3" cy="290.5" r="147.3" class="corner-bg"/>
        <text x="-704.3" y="290.5" class="corner-label">5</text>
      </g>
      <g class="corner-marker" data-corner="6" data-length="13790.4">
        <circle cx="-4914.4" cy="446.1" r="147.3" class="corner-bg"/>
        <text x="-4914.4" y="446.1" class="corner-label">6</text>
      </g>
      <g class="corner-marker" data-corner="7" data-length="17527.5">
        <circle cx="-8210.5" cy="2141.9" r="147.3" class="corner-bg"/>
        <text x="-8210.5" y="2141.9" class="corner-label">7</text>
      </g>
      <g class="corner-marker" data-corner="8" data-length="19806.3">
        <circle cx="-9608.5" cy="545.2" r="147.3" class="corner-bg"/>
        <text x="-9608.5" y="545.2" class="corner-label">8</text>
      </g>
      <g class="corner-marker" data-corner="9" data-length="21686.3">
        <circle cx="-11035.3" cy="1643.5" r="147.3" class="corner-bg"/>
        <text x="-11035.3" y="1643.5" class="corner-label">9</text>
      </g>
      <g class="corner-marker" data-corner="10" data-length="25879.2">
        <circle cx="-13198.0" cy="-1884.0" r="147.3" class="corner-bg"/>
        <text x="-13198.0" y="-1884.0" class="corner-label">10</text>
      </g>
      <g class="corner-marker" data-corner="11" data-length="27485.8">
        <circle cx="-12225.3" cy="-3009.0" r="147.3" class="corner-bg"/>
        <text x="-12225.3" y="-3009.0" class="corner-label">11</text>
      </g>
      <g class="corner-marker" data-corner="12" data-length="28294.7">
        <circle cx="-11972.8" cy="-3759.2" r="147.3" class="corner-bg"/>
        <text x="-11972.8" y="-3759.2" class="corner-label">12</text>
      </g>
      <g class="corner-marker" data-corner="13" data-length="29958.2">
        <circle cx="-10795.2" cy="-4903.6" r="147.3" class="corner-bg"/>
        <text x="-10795.2" y="-4903.6" class="corner-label">13</text>
      </g>
      <g class="corner-marker" data-corner="14" data-length="35560.2">
        <circle cx="-9087.2" cy="75.6" r="147.3" class="corner-bg"/>
        <text x="-9087.2" y="75.6" class="corner-label">14</text>
      </g>
      <g class="corner-marker" data-corner="15" data-length="37763.0">
        <circle cx="-7370.0" cy="-1290.3" r="147.3" class="corner-bg"/>
        <text x="-7370.0" y="-1290.3" class="corner-label">15</text>
      </g>
      <g class="corner-marker" data-corner="16" data-length="42639.6">
        <circle cx="-2544.3" cy="-1747.8" r="147.3" class="corner-bg"/>
        <text x="-2544.3" y="-1747.8" class="corner-label">16</text>
      </g>
      <g class="corner-marker" data-corner="17" data-length="43387.8">
        <circle cx="-2205.5" cy="-2401.4" r="147.3" class="corner-bg"/>
        <text x="-2205.5" y="-2401.4" class="corner-label">17</text>
      </g>
      <g class="corner-marker" data-corner="18" data-length="46027.4">
        <circle cx="386.8" cy="-2657.6" r="147.3" class="corner-bg"/>
        <text x="386.8" y="-2657.6" class="corner-label">18</text>
      </g>
      <g class="corner-marker" data-corner="19" data-length="47200.9">
        <circle cx="1136.6" cy="-1839.6" r="147.3" class="corner-bg"/>
        <text x="1136.6" y="-1839.6" class="corner-label">19</text>
      </g>
    </g>

    <g id="start-finish" data-track-x="1076.0" data-track-y="-441.0" data-lap-distance="48613.8">
      <polygon points="886.1,-1028.5 803.0,-482.5 475.4,-532.4 558.5,-1078.4" class="checker-border"/>
      <polygon points="886.1,-1028.5 869.5,-919.3 760.3,-936.0 776.9,-1045.2" class="checker-black"/>
      <polygon points="776.9,-1045.2 760.3,-936.0 651.1,-952.6 667.7,-1061.8" class="checker-white"/>
      <polygon points="667.7,-1061.8 651.1,-952.6 541.9,-969.2 558.5,-1078.4" class="checker-black"/>
      <polygon points="869.5,-919.3 852.9,-810.1 743.7,-826.8 760.3,-936.0" class="checker-white"/>
      <polygon points="760.3,-936.0 743.7,-826.8 634.5,-843.4 651.1,-952.6" class="checker-black"/>
      <polygon points="651.1,-952.6 634.5,-843.4 525.3,-860.0 541.9,-969.2" class="checker-white"/>
      <polygon points="852.9,-810.1 836.2,-700.9 727.0,-717.6 743.7,-826.8" class="checker-black"/>
      <polygon points="743.7,-826.8 727.0,-717.6 617.8,-734.2 634.5,-843.4" class="checker-white"/>
      <polygon points="634.5,-843.4 617.8,-734.2 508.6,-750.8 525.3,-860.0" class="checker-black"/>
      <polygon points="836.2,-700.9 819.6,-591.7 710.4,-608.4 727.0,-717.6" class="checker-white"/>
      <polygon points="727.0,-717.6 710.4,-608.4 601.2,-625.0 617.8,-734.2" class="checker-black"/>
      <polygon points="617.8,-734.2 601.2,-625.0 492.0,-641.6 508.6,-750.8" class="checker-white"/>
      <polygon points="819.6,-591.7 803.0,-482.5 693.8,-499.2 710.4,-608.4" class="checker-black"/>
      <polygon points="710.4,-608.4 693.8,-499.2 584.6,-515.8 601.2,-625.0" class="checker-white"/>
      <polygon points="601.2,-625.0 584.6,-515.8 475.4,-532.4 492.0,-641.6" class="checker-black"/>
      <polyline points="374.1,10.8 528.4,220.5 738.1,66.2" class="chevron"/>
      <polyline points="351.9,156.4 506.2,366.1 715.9,211.8" class="chevron"/>
      <polyline points="329.8,302.0 484.1,511.7 693.8,357.4" class="chevron"/>
    </g>

    <g id="car-markers"></g>

  </g>
</svg>
