<?xml version="1.0" encoding="utf-8"?>
<?xml-stylesheet type="text/css" href="../../css/tracks.css"?>
<svg xmlns="http://www.w3.org/2000/svg" viewBox="-441.1 248.8 960.0 555.2">
  <title>Melbourne</title>

  <g id="track-root" transform="translate(0, 555.22) scale(1, -1) scale(0.040365) translate(-147.50, -3149.50) rotate(44, 147.50, 3149.50)" data-scale="0.040365" data-rotation="44.0">

    <g id="track-outline">
      <path d="M -1185.0 -1341.0 L -1286.0 -1248.0 L -1315.0 -1219.0 L -1431.0 -1109.0 L -1436.0 -1104.0 L -1517.0 -1028.0 L -1539.0 -1006.0 L -1776.0 -782.0 L -1816.0 -743.0 L -1900.0 -664.0 L -1924.0 -640.0 L -2024.0 -545.0 L -2151.0 -424.0 L -2300.0 -283.0 L -2349.0 -236.0 L -2414.0 -175.0 L -2530.0 -64.0 L -2729.0 124.0 L -2781.0 173.0 L -2844.0 232.0 L -2897.3 282.4" class="track-outline" data-sector="1"/>
      <path d="M -2897.3 282.4 L -3025.0 403.0 L -3099.0 473.0 L -3190.0 559.0 L -3245.0 611.0 L -3301.0 665.0 L -3318.0 682.0 L -3432.0 801.0 L -3457.0 828.0 L -3519.0 902.0 L -3558.0 960.0 L -3601.0 1030.0 L -3611.0 1048.0 L -3647.0 1131.0 L -3662.0 1393.0 L -3661.0 1408.0 L -3642.0 1511.0 L -3641.0 1513.0 L -3626.0 1577.0 L -3617.0 1614.0 L -3596.0 1696.0 L -3570.0 1803.0 L -3567.0 1813.0 L -3559.0 1856.0 L -3558.0 1879.0 L -3553.0 2072.0 L -3554.0 2079.0 L -3556.0 2137.0 L -3564.0 2179.0 L -3566.0 2192.0 L -3579.0 2274.0 L -3597.0 2359.0 L -3608.0 2395.0 L -3644.0 2496.0 L -3661.0 2537.0 L -3727.0 2655.0 L -3747.0 2686.0 L -3816.2 2784.7" class="track-outline" data-sector="2"/>
      <path d="M -3816.2 2784.7 L -3820.0 2790.0 L -3871.0 2857.0 L -3916.0 2906.0 L -3921.0 2911.0 L -4025.0 3017.0 L -4071.0 3061.0 L -4138.0 3121.0 L -4227.0 3196.0 L -4230.0 3198.0 L -4309.0 3267.0 L -4357.0 3308.0 L -4458.0 3397.0 L -4471.0 3409.0 L -4519.0 3452.0 L -4573.0 3501.0 L -4611.0 3536.0 L -4655.0 3577.0 L -4733.0 3652.0 L -4798.0 3714.0 L -4888.0 3802.0 L -4963.0 3877.0 L -4981.0 3894.0 L -5023.0 3936.0 L -5106.6 4022.3" class="track-outline" data-sector="3"/>
      <path d="M -5106.6 4022.3 L -5204.0 4123.0 L -5240.0 4161.0 L -5390.0 4323.0 L -5498.0 4441.0 L -5528.0 4473.0 L -5581.0 4534.0 L -5604.0 4561.0 L -5755.0 4737.0 L -5758.0 4741.0 L -5866.0 4871.0 L -5946.0 4969.0 L -5976.0 5007.0 L -6167.0 5254.0 L -6184.0 5276.0 L -6248.0 5361.0 L -6301.0 5434.0 L -6321.0 5462.0 L -6455.0 5648.0 L -6459.0 5654.0 L -6540.0 5770.0 L -6572.0 5817.0 L -6634.0 5908.0 L -6716.0 6030.0 L -6719.0 6035.0 L -6782.0 6129.0 L -6831.0 6204.0 L -6851.3 6234.7" class="track-outline" data-sector="4"/>
      <path d="M -6851.3 6234.7 L -6901.0 6310.0 L -6945.0 6377.0 L -6968.0 6412.0 L -7014.0 6484.0 L -7049.0 6540.0 L -7095.0 6615.0 L -7114.0 6647.0 L -7119.0 6657.0 L -7154.0 6727.0 L -7179.0 6790.0 L -7188.0 6818.0 L -7206.0 6906.0 L -7208.0 6926.0 L -7207.0 7042.0 L -7205.0 7053.0 L -7196.0 7099.0 L -7189.0 7119.0 L -7176.0 7150.0 L -7151.0 7192.0 L -7146.0 7199.0 L -7124.0 7223.0 L -7094.0 7250.0 L -7048.0 7278.0 L -7025.0 7288.0 L -6978.0 7304.0 L -6936.0 7313.0 L -6918.0 7317.0 L -6813.0 7333.0 L -6802.0 7334.0 L -6695.0 7349.0 L -6673.0 7352.0 L -6570.0 7361.0 L -6536.0 7365.0 L -6457.0 7373.0 L -6399.0 7381.0 L -6349.0 7388.0 L -6348.4 7388.2" class="track-outline" data-sector="5"/>
      <path d="M -6348.4 7388.2 L -6327.0 7394.0 L -6213.0 7427.0 L -6176.0 7441.0 L -6149.0 7454.0 L -6100.0 7479.0 L -6053.0 7509.0 L -6029.0 7526.0 L -6000.0 7551.0 L -5925.0 7632.0 L -5923.0 7636.0 L -5885.0 7697.0 L -5883.0 7700.0 L -5851.0 7774.0 L -5842.0 7801.0 L -5832.0 7831.0 L -5819.0 7903.0 L -5810.0 8028.0 L -5810.0 8047.0 L -5817.0 8163.0 L -5820.0 8184.0 L -5829.0 8260.0 L -5838.0 8331.0 L -5842.0 8358.0 L -5849.0 8411.0 L -5862.0 8491.0 L -5869.0 8538.0 L -5877.0 8587.0 L -5882.0 8619.0 L -5901.0 8729.0 L -5928.0 8911.0 L -5928.0 8915.0 L -5935.0 8970.0 L -5937.0 9014.0 L -5946.0 9200.0 L -5947.0 9209.0 L -5947.0 9210.1" class="track-outline" data-sector="6"/>
      <path d="M -5947.0 9210.1 L -5947.0 9247.0 L -5920.0 9497.0 L -5910.0 9553.0 L -5879.0 9655.0 L -5866.0 9689.0 L -5820.0 9793.0 L -5786.0 9851.0 L -5782.0 9858.0 L -5729.0 9934.0 L -5701.0 9971.0 L -5571.0 10105.0 L -5565.0 10111.0 L -5475.0 10189.0 L -5430.0 10225.0 L -5347.0 10290.0 L -5309.0 10320.0 L -5266.0 10353.0 L -5218.0 10388.0 L -5135.0 10449.0 L -5085.0 10484.0 L -5045.0 10512.0 L -4994.0 10546.0 L -4930.0 10589.0" class="track-outline" data-sector="7"/>
      <path d="M -4930.0 10589.0 L -4854.0 10637.0 L -4756.0 10695.0 L -4750.0 10700.0 L -4650.0 10757.0 L -4633.0 10766.0 L -4496.0 10837.0 L -4467.0 10850.0 L -4257.0 10948.0 L -4187.0 10978.0 L -4135.0 11001.0 L -4131.0 11002.0 L -3944.0 11085.0 L -3911.0 11099.0 L -3819.0 11139.0 L -3795.0 11149.0 L -3596.0 11237.0 L -3570.0 11249.0 L -3464.0 11295.0 L -3456.0 11298.7" class="track-outline" data-sector="8"/>
      <path d="M -3456.0 11298.7 L -3403.0 11323.0 L -3335.0 11353.0 L -3179.0 11427.0 L -3059.0 11485.0 L -3054.0 11487.0 L -2937.0 11549.0 L -2886.0 11577.0 L -2769.0 11647.0 L -2709.0 11685.0 L -2695.0 11693.0 L -2585.0 11763.0 L -2566.0 11774.0 L -2495.0 11810.0 L -2487.0 11814.0 L -2350.0 11850.0 L -2278.0 11862.0 L -2219.0 11859.0 L -2158.0 11835.0 L -2146.0 11830.0 L -2091.0 11804.0 L -1950.0 11731.0 L -1906.0 11702.0 L -1833.0 11645.0 L -1787.0 11609.0 L -1778.0 11602.0 L -1714.0 11559.0 L -1590.0 11492.0 L -1552.0 11474.0 L -1446.0 11438.0 L -1332.0 11407.0 L -1229.0 11381.0 L -1078.0 11348.0 L -991.0 11333.0 L -907.0 11318.0 L -824.0 11302.0 L -818.0 11300.0 L -636.0 11260.0 L -629.0 11259.0 L -504.0 11226.0 L -497.0 11224.0 L -375.1 11185.7" class="track-outline" data-sector="9"/>
      <path d="M -375.1 11185.7 L -338.0 11174.0 L -240.0 11137.0 L -233.0 11134.0 L -117.0 11083.0 L -16.0 11032.0 L 42.0 10997.0 L 178.0 10901.0 L 220.0 10870.0 L 328.0 10772.0 L 400.0 10695.0 L 466.0 10621.0 L 510.0 10567.0 L 597.0 10451.0 L 619.0 10419.0 L 635.0 10394.0 L 709.0 10274.0 L 729.0 10240.0 L 817.0 10065.0 L 843.0 10004.0 L 882.0 9911.0 L 889.0 9891.0 L 930.0 9777.0 L 938.0 9753.0 L 965.0 9665.0 L 982.0 9605.0 L 1028.0 9427.0 L 1072.0 9216.0 L 1089.0 9139.0 L 1107.0 9056.0 L 1127.0 8937.0 L 1129.0 8925.0 L 1152.1 8734.8" class="track-outline" data-sector="10"/>
      <path d="M 1152.1 8734.8 L 1163.0 8645.0 L 1172.0 8539.0 L 1169.0 8472.0 L 1165.0 8381.0 L 1154.0 8132.0 L 1154.0 8122.0 L 1146.0 8010.0 L 1140.0 7937.0 L 1129.0 7788.0 L 1120.0 7700.0 L 1115.0 7645.0 L 1097.0 7512.0 L 1093.0 7488.0 L 1064.0 7357.0 L 1044.0 7288.0 L 1015.0 7204.0 L 1001.0 7164.0 L 937.0 6993.0 L 894.0 6872.0 L 860.0 6775.0 L 791.0 6561.0 L 749.0 6435.0 L 713.0 6326.0 L 673.0 6209.0 L 664.0 6184.0 L 617.0 6059.0 L 589.0 5991.0 L 535.0 5868.0 L 531.9 5861.1" class="track-outline" data-sector="11"/>
      <path d="M 531.9 5861.1 L 510.0 5812.0 L 466.0 5720.0 L 463.0 5714.0 L 387.0 5534.0 L 374.0 5499.0 L 316.0 5290.0 L 291.0 5148.0 L 274.0 5035.0 L 266.0 4978.0 L 261.0 4863.0 L 259.0 4794.0 L 260.0 4690.0 L 274.0 4428.0 L 274.0 4421.0 L 298.0 4186.0 L 316.0 4040.0 L 318.0 4030.0 L 328.0 3962.0 L 381.9 3724.3" class="track-outline" data-sector="12"/>
      <path d="M 381.9 3724.3 L 406.0 3618.0 L 418.0 3573.0 L 465.0 3423.0 L 481.0 3377.0 L 574.0 3145.0 L 576.0 3139.0 L 639.0 3001.0 L 764.0 2747.0 L 779.0 2719.0 L 815.0 2649.0 L 848.0 2596.0 L 873.0 2554.0 L 950.0 2430.0 L 998.0 2360.0 L 1093.0 2233.0 L 1097.0 2227.0 L 1229.0 2070.0 L 1344.0 1948.0 L 1472.0 1817.0 L 1514.0 1773.0 L 1558.0 1731.0 L 1608.0 1686.0 L 1756.0 1552.0 L 1832.0 1484.0 L 1917.0 1408.0 L 1961.0 1372.0 L 1967.0 1368.0 L 2043.4 1305.0" class="track-outline" data-sector="13"/>
      <path d="M 2043.4 1305.0 L 2173.0 1198.0 L 2178.0 1193.0 L 2342.0 1067.0 L 2351.0 1061.0 L 2457.0 985.0 L 2577.0 907.0 L 2586.0 903.0 L 2704.0 844.0 L 2747.0 827.0 L 2838.0 799.0 L 2901.0 796.0 L 3005.0 798.0 L 3141.0 808.0 L 3220.0 817.0 L 3250.0 823.0 L 3419.0 846.0 L 3740.9 854.5" class="track-outline" data-sector="14"/>
      <path d="M 3740.9 854.5 L 3948.0 860.0 L 3974.0 855.0 L 4149.0 802.0 L 4167.0 795.0 L 4228.0 762.0 L 4270.0 735.0 L 4333.0 692.0 L 4382.0 654.0 L 4406.0 635.0 L 4512.0 547.0 L 4558.0 507.0 L 4643.0 434.0 L 4670.0 410.0 L 4758.0 334.0 L 4858.0 250.0 L 4873.0 239.0 L 4950.0 176.0 L 4960.0 166.0 L 5086.0 63.0 L 5121.0 33.0 L 5156.0 4.0 L 5215.0 -46.0 L 5266.0 -89.0 L 5312.0 -128.0 L 5505.0 -293.0 L 5541.0 -324.0 L 5665.0 -430.0 L 5676.0 -440.0 L 5760.0 -515.0 L 5909.0 -659.0 L 5947.0 -697.0 L 6021.0 -776.0 L 6036.0 -795.0 L 6177.0 -970.0 L 6180.0 -974.0 L 6222.0 -1031.0 L 6307.0 -1158.0 L 6357.0 -1241.0 L 6430.1 -1370.1" class="track-outline" data-sector="15"/>
      <path d="M 6430.1 -1370.1 L 6485.0 -1467.0 L 6523.0 -1539.0 L 6579.0 -1664.0 L 6598.0 -1711.0 L 6675.0 -1904.0 L 6690.0 -1944.0 L 6737.0 -2072.0 L 6753.0 -2116.0 L 6798.0 -2242.0 L 6808.0 -2269.0 L 6851.0 -2392.0 L 6883.0 -2487.0 L 6904.0 -2547.0 L 6929.0 -2624.0 L 7003.0 -2850.0 L 7007.0 -2861.0 L 7084.0 -3100.0 L 7090.0 -3119.0 L 7135.0 -3260.0 L 7143.0 -3286.0 L 7169.9 -3368.4" class="track-outline" data-sector="16"/>
      <path d="M 7169.9 -3368.4 L 7240.0 -3583.0 L 7242.0 -3589.0 L 7307.0 -3791.0 L 7330.0 -3866.0 L 7353.0 -3945.0 L 7377.0 -4031.0 L 7379.0 -4038.0 L 7406.0 -4150.0 L 7413.0 -4180.0 L 7428.0 -4263.0 L 7432.0 -4281.0 L 7449.0 -4380.0 L 7455.0 -4415.0 L 7471.0 -4491.0 L 7476.0 -4514.0 L 7484.0 -4558.0 L 7484.0 -4561.0 L 7500.0 -4664.0 L 7502.0 -4685.0 L 7503.0 -4751.0 L 7503.0 -4763.0 L 7495.0 -4822.0 L 7489.0 -4852.0 L 7475.0 -4892.0 L 7458.0 -4928.0 L 7445.0 -4947.0 L 7413.0 -4980.0 L 7410.0 -4981.0 L 7319.0 -5033.0 L 7316.0 -5034.0 L 7265.0 -5055.0 L 7233.0 -5065.0 L 7128.0 -5098.0 L 7117.0 -5101.0 L 7055.0 -5119.0 L 7034.0 -5124.0 L 6968.0 -5144.0 L 6911.0 -5159.0 L 6898.0 -5163.0 L 6824.0 -5183.0 L 6812.0 -5186.0 L 6737.0 -5207.0 L 6640.0 -5231.0 L 6578.0 -5247.0 L 6458.0 -5275.0 L 6443.0 -5278.0 L 6364.0 -5296.0 L 6333.0 -5304.0 L 6287.0 -5314.0 L 6247.0 -5324.0 L 6156.0 -5347.0 L 6138.0 -5352.0 L 5993.0 -5391.0 L 5954.0 -5401.0 L 5941.1 -5404.4" class="track-outline" data-sector="17"/>
      <path d="M 5941.1 -5404.4 L 5889.0 -5418.0 L 5694.0 -5466.0 L 5676.0 -5472.0 L 5578.0 -5502.0 L 5547.0 -5510.0 L 5454.0 -5535.0 L 5361.0 -5551.0 L 5294.0 -5560.0 L 5195.0 -5563.0 L 5140.0 -5558.0 L 5038.0 -5544.0 L 4958.0 -5521.0 L 4930.0 -5506.0 L 4811.0 -5435.0 L 4807.0 -5432.0 L 4759.0 -5395.0 L 4722.0 -5362.0 L 4657.0 -5298.0 L 4631.0 -5270.0 L 4552.0 -5172.0 L 4539.0 -5154.0 L 4446.0 -5015.0 L 4407.0 -4953.0 L 4382.0 -4905.0 L 4363.0 -4868.0 L 4318.0 -4780.0 L 4276.0 -4695.0 L 4193.0 -4525.0 L 4190.0 -4518.0 L 4160.0 -4457.0 L 4142.0 -4417.0 L 4132.0 -4395.0 L 4078.0 -4279.0 L 4062.0 -4244.0 L 4029.0 -4173.0 L 3944.0 -4008.0 L 3919.9 -3964.6" class="track-outline" data-sector="18"/>
      <path d="M 3919.9 -3964.6 L 3919.0 -3963.0 L 3869.0 -3890.0 L 3867.0 -3887.0 L 3836.0 -3839.0 L 3824.0 -3821.0 L 3796.0 -3783.0 L 3754.0 -3732.0 L 3714.0 -3696.0 L 3652.0 -3655.0 L 3637.0 -3646.0 L 3623.0 -3639.0 L 3599.0 -3635.0 L 3589.0 -3634.0 L 3499.0 -3634.0 L 3497.0 -3634.0 L 3452.0 -3646.0 L 3414.0 -3662.0 L 3394.0 -3673.0 L 3363.0 -3691.0 L 3346.0 -3705.0 L 3282.0 -3766.0 L 3275.0 -3772.0 L 3244.0 -3811.0 L 3242.0 -3812.0 L 3197.0 -3876.0 L 3195.0 -3878.0 L 3191.0 -3886.0 L 3169.0 -3920.0 L 3161.0 -3935.0 L 3132.0 -3983.0 L 3109.0 -4024.0 L 3030.0 -4147.0 L 3027.0 -4150.0 L 2928.0 -4253.0 L 2895.0 -4280.8" class="track-outline" data-sector="19"/>
      <path d="M 2895.0 -4280.8 L 2890.0 -4285.0 L 2862.0 -4306.0 L 2784.0 -4356.0 L 2780.0 -4357.0 L 2676.0 -4410.0 L 2606.0 -4441.0 L 2526.0 -4455.0 L 2434.0 -4461.0 L 2396.0 -4462.0 L 2300.0 -4454.0 L 2168.0 -4420.0 L 2160.0 -4417.0 L 2094.0 -4395.0 L 2052.0 -4377.0 L 1981.0 -4344.0 L 1910.0 -4304.0 L 1895.0 -4294.0 L 1738.0 -4168.0 L 1705.0 -4141.0 L 1680.0 -4120.0 L 1646.0 -4088.0 L 1608.0 -4051.0 L 1433.0 -3885.0 L 1428.0 -3881.0 L 1266.0 -3721.0 L 1256.0 -3711.0 L 1194.0 -3650.0 L 1164.0 -3621.0 L 1116.0 -3574.0 L 1072.0 -3531.0 L 943.0 -3405.0 L 919.0 -3381.0 L 840.0 -3304.0 L 742.0 -3207.0 L 709.0 -3175.0 L 651.0 -3119.0 L 505.0 -2976.0 L 487.0 -2958.0 L 330.0 -2804.0 L 316.0 -2790.0 L 234.0 -2711.0 L 68.0 -2548.0 L 51.0 -2531.0 L -16.0 -2464.0 L -146.0 -2337.0 L -161.0 -2321.0 L -258.0 -2228.0 L -359.0 -2128.0 L -381.0 -2107.0 L -554.0 -1943.0 L -571.0 -1926.0 L -718.0 -1788.0 L -752.0 -1754.0 L -891.0 -1623.0 L -992.0 -1528.0 L -1017.0 -1504.0 L -1033.0 -1488.0 L -1111.0 -1410.0 L -1189.0 -1336.0 L -1185.0 -1341.0" class="track-outline" data-sector="20"/>
    </g>

    <g id="track-sectors">
      <path d="M -1185.0 -1341.0 L -1286.0 -1248.0 L -1315.0 -1219.0 L -1431.0 -1109.0 L -1436.0 -1104.0 L -1517.0 -1028.0 L -1539.0 -1006.0 L -1776.0 -782.0 L -1816.0 -743.0 L -1900.0 -664.0 L -1924.0 -640.0 L -2024.0 -545.0 L -2151.0 -424.0 L -2300.0 -283.0 L -2349.0 -236.0 L -2414.0 -175.0 L -2530.0 -64.0 L -2729.0 124.0 L -2781.0 173.0 L -2844.0 232.0 L -2897.3 282.4" class="track" data-sector="1"/>
      <path d="M -2897.3 282.4 L -3025.0 403.0 L -3099.0 473.0 L -3190.0 559.0 L -3245.0 611.0 L -3301.0 665.0 L -3318.0 682.0 L -3432.0 801.0 L -3457.0 828.0 L -3519.0 902.0 L -3558.0 960.0 L -3601.0 1030.0 L -3611.0 1048.0 L -3647.0 1131.0 L -3662.0 1393.0 L -3661.0 1408.0 L -3642.0 1511.0 L -3641.0 1513.0 L -3626.0 1577.0 L -3617.0 1614.0 L -3596.0 1696.0 L -3570.0 1803.0 L -3567.0 1813.0 L -3559.0 1856.0 L -3558.0 1879.0 L -3553.0 2072.0 L -3554.0 2079.0 L -3556.0 2137.0 L -3564.0 2179.0 L -3566.0 2192.0 L -3579.0 2274.0 L -3597.0 2359.0 L -3608.0 2395.0 L -3644.0 2496.0 L -3661.0 2537.0 L -3727.0 2655.0 L -3747.0 2686.0 L -3816.2 2784.7" class="track" data-sector="2"/>
      <path d="M -3816.2 2784.7 L -3820.0 2790.0 L -3871.0 2857.0 L -3916.0 2906.0 L -3921.0 2911.0 L -4025.0 3017.0 L -4071.0 3061.0 L -4138.0 3121.0 L -4227.0 3196.0 L -4230.0 3198.0 L -4309.0 3267.0 L -4357.0 3308.0 L -4458.0 3397.0 L -4471.0 3409.0 L -4519.0 3452.0 L -4573.0 3501.0 L -4611.0 3536.0 L -4655.0 3577.0 L -4733.0 3652.0 L -4798.0 3714.0 L -4888.0 3802.0 L -4963.0 3877.0 L -4981.0 3894.0 L -5023.0 3936.0 L -5106.6 4022.3" class="track" data-sector="3"/>
      <path d="M -5106.6 4022.3 L -5204.0 4123.0 L -5240.0 4161.0 L -5390.0 4323.0 L -5498.0 4441.0 L -5528.0 4473.0 L -5581.0 4534.0 L -5604.0 4561.0 L -5755.0 4737.0 L -5758.0 4741.0 L -5866.0 4871.0 L -5946.0 4969.0 L -5976.0 5007.0 L -6167.0 5254.0 L -6184.0 5276.0 L -6248.0 5361.0 L -6301.0 5434.0 L -6321.0 5462.0 L -6455.0 5648.0 L -6459.0 5654.0 L -6540.0 5770.0 L -6572.0 5817.0 L -6634.0 5908.0 L -6716.0 6030.0 L -6719.0 6035.0 L -6782.0 6129.0 L -6831.0 6204.0 L -6851.3 6234.7" class="track" data-sector="4"/>
      <path d="M -6851.3 6234.7 L -6901.0 6310.0 L -6945.0 6377.0 L -6968.0 6412.0 L -7014.0 6484.0 L -7049.0 6540.0 L -7095.0 6615.0 L -7114.0 6647.0 L -7119.0 6657.0 L -7154.0 6727.0 L -7179.0 6790.0 L -7188.0 6818.0 L -7206.0 6906.0 L -7208.0 6926.0 L -7207.0 7042.0 L -7205.0 7053.0 L -7196.0 7099.0 L -7189.0 7119.0 L -7176.0 7150.0 L -7151.0 7192.0 L -7146.0 7199.0 L -7124.0 7223.0 L -7094.0 7250.0 L -7048.0 7278.0 L -7025.0 7288.0 L -6978.0 7304.0 L -6936.0 7313.0 L -6918.0 7317.0 L -6813.0 7333.0 L -6802.0 7334.0 L -6695.0 7349.0 L -6673.0 7352.0 L -6570.0 7361.0 L -6536.0 7365.0 L -6457.0 7373.0 L -6399.0 7381.0 L -6349.0 7388.0 L -6348.4 7388.2" class="track" data-sector="5"/>
      <path d="M -6348.4 7388.2 L -6327.0 7394.0 L -6213.0 7427.0 L -6176.0 7441.0 L -6149.0 7454.0 L -6100.0 7479.0 L -6053.0 7509.0 L -6029.0 7526.0 L -6000.0 7551.0 L -5925.0 7632.0 L -5923.0 7636.0 L -5885.0 7697.0 L -5883.0 7700.0 L -5851.0 7774.0 L -5842.0 7801.0 L -5832.0 7831.0 L -5819.0 7903.0 L -5810.0 8028.0 L -5810.0 8047.0 L -5817.0 8163.0 L -5820.0 8184.0 L -5829.0 8260.0 L -5838.0 8331.0 L -5842.0 8358.0 L -5849.0 8411.0 L -5862.0 8491.0 L -5869.0 8538.0 L -5877.0 8587.0 L -5882.0 8619.0 L -5901.0 8729.0 L -5928.0 8911.0 L -5928.0 8915.0 L -5935.0 8970.0 L -5937.0 9014.0 L -5946.0 9200.0 L -5947.0 9209.0 L -5947.0 9210.1" class="track" data-sector="6"/>
      <path d="M -5947.0 9210.1 L -5947.0 9247.0 L -5920.0 9497.0 L -5910.0 9553.0 L -5879.0 9655.0 L -5866.0 9689.0 L -5820.0 9793.0 L -5786.0 9851.0 L -5782.0 9858.0 L -5729.0 9934.0 L -5701.0 9971.0 L -5571.0 10105.0 L -5565.0 10111.0 L -5475.0 10189.0 L -5430.0 10225.0 L -5347.0 10290.0 L -5309.0 10320.0 L -5266.0 10353.0 L -5218.0 10388.0 L -5135.0 10449.0 L -5085.0 10484.0 L -5045.0 10512.0 L -4994.0 10546.0 L -4930.0 10589.0" class="track" data-sector="7"/>
      <path d="M -4930.0 10589.0 L -4854.0 10637.0 L -4756.0 10695.0 L -4750.0 10700.0 L -4650.0 10757.0 L -4633.0 10766.0 L -4496.0 10837.0 L -4467.0 10850.0 L -4257.0 10948.0 L -4187.0 10978.0 L -4135.0 11001.0 L -4131.0 11002.0 L -3944.0 11085.0 L -3911.0 11099.0 L -3819.0 11139.0 L -3795.0 11149.0 L -3596.0 11237.0 L -3570.0 11249.0 L -3464.0 11295.0 L -3456.0 11298.7" class="track" data-sector="8"/>
      <path d="M -3456.0 11298.7 L -3403.0 11323.0 L -3335.0 11353.0 L -3179.0 11427.0 L -3059.0 11485.0 L -3054.0 11487.0 L -2937.0 11549.0 L -2886.0 11577.0 L -2769.0 11647.0 L -2709.0 11685.0 L -2695.0 11693.0 L -2585.0 11763.0 L -2566.0 11774.0 L -2495.0 11810.0 L -2487.0 11814.0 L -2350.0 11850.0 L -2278.0 11862.0 L -2219.0 11859.0 L -2158.0 11835.0 L -2146.0 11830.0 L -2091.0 11804.0 L -1950.0 11731.0 L -1906.0 11702.0 L -1833.0 11645.0 L -1787.0 11609.0 L -1778.0 11602.0 L -1714.0 11559.0 L -1590.0 11492.0 L -1552.0 11474.0 L -1446.0 11438.0 L -1332.0 11407.0 L -1229.0 11381.0 L -1078.0 11348.0 L -991.0 11333.0 L -907.0 11318.0 L -824.0 11302.0 L -818.0 11300.0 L -636.0 11260.0 L -629.0 11259.0 L -504.0 11226.0 L -497.0 11224.0 L -375.1 11185.7" class="track" data-sector="9"/>
      <path d="M -375.1 11185.7 L -338.0 11174.0 L -240.0 11137.0 L -233.0 11134.0 L -117.0 11083.0 L -16.0 11032.0 L 42.0 10997.0 L 178.0 10901.0 L 220.0 10870.0 L 328.0 10772.0 L 400.0 10695.0 L 466.0 10621.0 L 510.0 10567.0 L 597.0 10451.0 L 619.0 10419.0 L 635.0 10394.0 L 709.0 10274.0 L 729.0 10240.0 L 817.0 10065.0 L 843.0 10004.0 L 882.0 9911.0 L 889.0 9891.0 L 930.0 9777.0 L 938.0 9753.0 L 965.0 9665.0 L 982.0 9605.0 L 1028.0 9427.0 L 1072.0 9216.0 L 1089.0 9139.0 L 1107.0 9056.0 L 1127.0 8937.0 L 1129.0 8925.0 L 1152.1 8734.8" class="track" data-sector="10"/>
      <path d="M 1152.1 8734.8 L 1163.0 8645.0 L 1172.0 8539.0 L 1169.0 8472.0 L 1165.0 8381.0 L 1154.0 8132.0 L 1154.0 8122.0 L 1146.0 8010.0 L 1140.0 7937.0 L 1129.0 7788.0 L 1120.0 7700.0 L 1115.0 7645.0 L 1097.0 7512.0 L 1093.0 7488.0 L 1064.0 7357.0 L 1044.0 7288.0 L 1015.0 7204.0 L 1001.0 7164.0 L 937.0 6993.0 L 894.0 6872.0 L 860.0 6775.0 L 791.0 6561.0 L 749.0 6435.0 L 713.0 6326.0 L 673.0 6209.0 L 664.0 6184.0 L 617.0 6059.0 L 589.0 5991.0 L 535.0 5868.0 L 531.9 5861.1" class="track" data-sector="11"/>
      <path d="M 531.9 5861.1 L 510.0 5812.0 L 466.0 5720.0 L 463.0 5714.0 L 387.0 5534.0 L 374.0 5499.0 L 316.0 5290.0 L 291.0 5148.0 L 274.0 5035.0 L 266.0 4978.0 L 261.0 4863.0 L 259.0 4794.0 L 260.0 4690.0 L 274.0 4428.0 L 274.0 4421.0 L 298.0 4186.0 L 316.0 4040.0 L 318.0 4030.0 L 328.0 3962.0 L 381.9 3724.3" class="track" data-sector="12"/>
      <path d="M 381.9 3724.3 L 406.0 3618.0 L 418.0 3573.0 L 465.0 3423.0 L 481.0 3377.0 L 574.0 3145.0 L 576.0 3139.0 L 639.0 3001.0 L 764.0 2747.0 L 779.0 2719.0 L 815.0 2649.0 L 848.0 2596.0 L 873.0 2554.0 L 950.0 2430.0 L 998.0 2360.0 L 1093.0 2233.0 L 1097.0 2227.0 L 1229.0 2070.0 L 1344.0 1948.0 L 1472.0 1817.0 L 1514.0 1773.0 L 1558.0 1731.0 L 1608.0 1686.0 L 1756.0 1552.0 L 1832.0 1484.0 L 1917.0 1408.0 L 1961.0 1372.0 L 1967.0 1368.0 L 2043.4 1305.0" class="track" data-sector="13"/>
      <path d="M 2043.4 1305.0 L 2173.0 1198.0 L 2178.0 1193.0 L 2342.0 1067.0 L 2351.0 1061.0 L 2457.0 985.0 L 2577.0 907.0 L 2586.0 903.0 L 2704.0 844.0 L 2747.0 827.0 L 2838.0 799.0 L 2901.0 796.0 L 3005.0 798.0 L 3141.0 808.0 L 3220.0 817.0 L 3250.0 823.0 L 3419.0 846.0 L 3740.9 854.5" class="track" data-sector="14"/>
      <path d="M 3740.9 854.5 L 3948.0 860.0 L 3974.0 855.0 L 4149.0 802.0 L 4167.0 795.0 L 4228.0 762.0 L 4270.0 735.0 L 4333.0 692.0 L 4382.0 654.0 L 4406.0 635.0 L 4512.0 547.0 L 4558.0 507.0 L 4643.0 434.0 L 4670.0 410.0 L 4758.0 334.0 L 4858.0 250.0 L 4873.0 239.0 L 4950.0 176.0 L 4960.0 166.0 L 5086.0 63.0 L 5121.0 33.0 L 5156.0 4.0 L 5215.0 -46.0 L 5266.0 -89.0 L 5312.0 -128.0 L 5505.0 -293.0 L 5541.0 -324.0 L 5665.0 -430.0 L 5676.0 -440.0 L 5760.0 -515.0 L 5909.0 -659.0 L 5947.0 -697.0 L 6021.0 -776.0 L 6036.0 -795.0 L 6177.0 -970.0 L 6180.0 -974.0 L 6222.0 -1031.0 L 6307.0 -1158.0 L 6357.0 -1241.0 L 6430.1 -1370.1" class="track" data-sector="15"/>
      <path d="M 6430.1 -1370.1 L 6485.0 -1467.0 L 6523.0 -1539.0 L 6579.0 -1664.0 L 6598.0 -1711.0 L 6675.0 -1904.0 L 6690.0 -1944.0 L 6737.0 -2072.0 L 6753.0 -2116.0 L 6798.0 -2242.0 L 6808.0 -2269.0 L 6851.0 -2392.0 L 6883.0 -2487.0 L 6904.0 -2547.0 L 6929.0 -2624.0 L 7003.0 -2850.0 L 7007.0 -2861.0 L 7084.0 -3100.0 L 7090.0 -3119.0 L 7135.0 -3260.0 L 7143.0 -3286.0 L 7169.9 -3368.4" class="track" data-sector="16"/>
      <path d="M 7169.9 -3368.4 L 7240.0 -3583.0 L 7242.0 -3589.0 L 7307.0 -3791.0 L 7330.0 -3866.0 L 7353.0 -3945.0 L 7377.0 -4031.0 L 7379.0 -4038.0 L 7406.0 -4150.0 L 7413.0 -4180.0 L 7428.0 -4263.0 L 7432.0 -4281.0 L 7449.0 -4380.0 L 7455.0 -4415.0 L 7471.0 -4491.0 L 7476.0 -4514.0 L 7484.0 -4558.0 L 7484.0 -4561.0 L 7500.0 -4664.0 L 7502.0 -4685.0 L 7503.0 -4751.0 L 7503.0 -4763.0 L 7495.0 -4822.0 L 7489.0 -4852.0 L 7475.0 -4892.0 L 7458.0 -4928.0 L 7445.0 -4947.0 L 7413.0 -4980.0 L 7410.0 -4981.0 L 7319.0 -5033.0 L 7316.0 -5034.0 L 7265.0 -5055.0 L 7233.0 -5065.0 L 7128.0 -5098.0 L 7117.0 -5101.0 L 7055.0 -5119.0 L 7034.0 -5124.0 L 6968.0 -5144.0 L 6911.0 -5159.0 L 6898.0 -5163.0 L 6824.0 -5183.0 L 6812.0 -5186.0 L 6737.0 -5207.0 L 6640.0 -5231.0 L 6578.0 -5247.0 L 6458.0 -5275.0 L 6443.0 -5278.0 L 6364.0 -5296.0 L 6333.0 -5304.0 L 6287.0 -5314.0 L 6247.0 -5324.0 L 6156.0 -5347.0 L 6138.0 -5352.0 L 5993.0 -5391.0 L 5954.0 -5401.0 L 5941.1 -5404.4" class="track" data-sector="17"/>
      <path d="M 5941.1 -5404.4 L 5889.0 -5418.0 L 5694.0 -5466.0 L 5676.0 -5472.0 L 5578.0 -5502.0 L 5547.0 -5510.0 L 5454.0 -5535.0 L 5361.0 -5551.0 L 5294.0 -5560.0 L 5195.0 -5563.0 L 5140.0 -5558.0 L 5038.0 -5544.0 L 4958.0 -5521.0 L 4930.0 -5506.0 L 4811.0 -5435.0 L 4807.0 -5432.0 L 4759.0 -5395.0 L 4722.0 -5362.0 L 4657.0 -5298.0 L 4631.0 -5270.0 L 4552.0 -5172.0 L 4539.0 -5154.0 L 4446.0 -5015.0 L 4407.0 -4953.0 L 4382.0 -4905.0 L 4363.0 -4868.0 L 4318.0 -4780.0 L 4276.0 -4695.0 L 4193.0 -4525.0 L 4190.0 -4518.0 L 4160.0 -4457.0 L 4142.0 -4417.0 L 4132.0 -4395.0 L 4078.0 -4279.0 L 4062.0 -4244.0 L 4029.0 -4173.0 L 3944.0 -4008.0 L 3919.9 -3964.6" class="track" data-sector="18"/>
      <path d="M 3919.9 -3964.6 L 3919.0 -3963.0 L 3869.0 -3890.0 L 3867.0 -3887.0 L 3836.0 -3839.0 L 3824.0 -3821.0 L 3796.0 -3783.0 L 3754.0 -3732.0 L 3714.0 -3696.0 L 3652.0 -3655.0 L 3637.0 -3646.0 L 3623.0 -3639.0 L 3599.0 -3635.0 L 3589.0 -3634.0 L 3499.0 -3634.0 L 3497.0 -3634.0 L 3452.0 -3646.0 L 3414.0 -3662.0 L 3394.0 -3673.0 L 3363.0 -3691.0 L 3346.0 -3705.0 L 3282.0 -3766.0 L 3275.0 -3772.0 L 3244.0 -3811.0 L 3242.0 -3812.0 L 3197.0 -3876.0 L 3195.0 -3878.0 L 3191.0 -3886.0 L 3169.0 -3920.0 L 3161.0 -3935.0 L 3132.0 -3983.0 L 3109.0 -4024.0 L 3030.0 -4147.0 L 3027.0 -4150.0 L 2928.0 -4253.0 L 2895.0 -4280.8" class="track" data-sector="19"/>
      <path d="M 2895.0 -4280.8 L 2890.0 -4285.0 L 2862.0 -4306.0 L 2784.0 -4356.0 L 2780.0 -4357.0 L 2676.0 -4410.0 L 2606.0 -4441.0 L 2526.0 -4455.0 L 2434.0 -4461.0 L 2396.0 -4462.0 L 2300.0 -4454.0 L 2168.0 -4420.0 L 2160.0 -4417.0 L 2094.0 -4395.0 L 2052.0 -4377.0 L 1981.0 -4344.0 L 1910.0 -4304.0 L 1895.0 -4294.0 L 1738.0 -4168.0 L 1705.0 -4141.0 L 1680.0 -4120.0 L 1646.0 -4088.0 L 1608.0 -4051.0 L 1433.0 -3885.0 L 1428.0 -3881.0 L 1266.0 -3721.0 L 1256.0 -3711.0 L 1194.0 -3650.0 L 1164.0 -3621.0 L 1116.0 -3574.0 L 1072.0 -3531.0 L 943.0 -3405.0 L 919.0 -3381.0 L 840.0 -3304.0 L 742.0 -3207.0 L 709.0 -3175.0 L 651.0 -3119.0 L 505.0 -2976.0 L 487.0 -2958.0 L 330.0 -2804.0 L 316.0 -2790.0 L 234.0 -2711.0 L 68.0 -2548.0 L 51.0 -2531.0 L -16.0 -2464.0 L -146.0 -2337.0 L -161.0 -2321.0 L -258.0 -2228.0 L -359.0 -2128.0 L -381.0 -2107.0 L -554.0 -1943.0 L -571.0 -1926.0 L -718.0 -1788.0 L -752.0 -1754.0 L -891.0 -1623.0 L -992.0 -1528.0 L -1017.0 -1504.0 L -1033.0 -1488.0 L -1111.0 -1410.0 L -1189.0 -1336.0 L -1185.0 -1341.0" class="track" data-sector="20"/>
    </g>

    <g id="marshal-lights">
      <g class="marshal-light-marker" data-light="1">
        <rect x="-1262.0" y="-1389.1" width="123.9" height="123.9" class="marshal-light-bg"/>
        <text x="-1200.1" y="-1327.1" class="marshal-light-label">1</text>
      </g>
      <g class="marshal-light-marker" data-light="2">
        <rect x="-2953.3" y="214.8" width="123.9" height="123.9" class="marshal-light-bg"/>
        <text x="-2891.4" y="276.7" class="marshal-light-label">2</text>
      </g>
      <g class="marshal-light-marker" data-light="3">
        <rect x="-3849.9" y="2682.5" width="123.9" height="123.9" class="marshal-light-bg"/>
        <text x="-3788.0" y="2744.4" class="marshal-light-label">3</text>
      </g>
      <g class="marshal-light-marker" data-light="4">
        <rect x="-5219.8" y="4013.4" width="123.9" height="123.9" class="marshal-light-bg"/>
        <text x="-5157.8" y="4075.3" class="marshal-light-label">4</text>
      </g>
      <g class="marshal-light-marker" data-light="5">
        <rect x="-6947.1" y="6224.0" width="123.9" height="123.9" class="marshal-light-bg"/>
        <text x="-6885.1" y="6286.0" class="marshal-light-label">5</text>
      </g>
      <g class="marshal-light-marker" data-light="6">
        <rect x="-6382.7" y="7333.9" width="123.9" height="123.9" class="marshal-light-bg"/>
        <text x="-6320.7" y="7395.8" class="marshal-light-label">6</text>
      </g>
      <g class="marshal-light-marker" data-light="7">
        <rect x="-6008.9" y="9148.2" width="123.9" height="123.9" class="marshal-light-bg"/>
        <text x="-5947.0" y="9210.1" class="marshal-light-label">7</text>
      </g>
      <g class="marshal-light-marker" data-light="8">
        <rect x="-4988.8" y="10529.1" width="123.9" height="123.9" class="marshal-light-bg"/>
        <text x="-4926.8" y="10591.0" class="marshal-light-label">8</text>
      </g>
      <g class="marshal-light-marker" data-light="9">
        <rect x="-3536.6" y="11228.4" width="123.9" height="123.9" class="marshal-light-bg"/>
        <text x="-3474.7" y="11290.4" class="marshal-light-label">9</text>
      </g>
      <g class="marshal-light-marker" data-light="10">
        <rect x="-566.0" y="11164.1" width="123.9" height="123.9" class="marshal-light-bg"/>
        <text x="-504.1" y="11226.0" class="marshal-light-label">10</text>
      </g>
      <g class="marshal-light-marker" data-light="11">
        <rect x="1087.7" y="8693.2" width="123.9" height="123.9" class="marshal-light-bg"/>
        <text x="1149.6" y="8755.2" class="marshal-light-label">11</text>
      </g>
      <g class="marshal-light-marker" data-light="12">
        <rect x="432.4" y="5717.3" width="123.9" height="123.9" class="marshal-light-bg"/>
        <text x="494.3" y="5779.2" class="marshal-light-label">12</text>
      </g>
      <g class="marshal-light-marker" data-light="13">
        <rect x="344.5" y="3554.5" width="123.9" height="123.9" class="marshal-light-bg"/>
        <text x="406.4" y="3616.4" class="marshal-light-label">13</text>
      </g>
      <g class="marshal-light-marker" data-light="14">
        <rect x="1927.7" y="1287.4" width="123.9" height="123.9" class="marshal-light-bg"/>
        <text x="1989.7" y="1349.3" class="marshal-light-label">14</text>
      </g>
      <g class="marshal-light-marker" data-light="15">
        <rect x="3466.1" y="786.9" width="123.9" height="123.9" class="marshal-light-bg"/>
        <text x="3528.0" y="848.9" class="marshal-light-label">15</text>
      </g>
      <g class="marshal-light-marker" data-light="16">
        <rect x="6358.1" y="-1414.2" width="123.9" height="123.9" class="marshal-light-bg"/>
        <text x="6420.0" y="-1352.3" class="marshal-light-label">16</text>
      </g>
      <g class="marshal-light-marker" data-light="17">
        <rect x="7133.4" y="-3508.3" width="123.9" height="123.9" class="marshal-light-bg"/>
        <text x="7195.4" y="-3446.3" class="marshal-light-label">17</text>
      </g>
      <g class="marshal-light-marker" data-light="18">
        <rect x="6017.8" y="-5429.6" width="123.9" height="123.9" class="marshal-light-bg"/>
        <text x="6079.7" y="-5367.7" class="marshal-light-label">18</text>
      </g>
      <g class="marshal-light-marker" data-light="19">
        <rect x="3900.6" y="-4105.9" width="123.9" height="123.9" class="marshal-light-bg"/>
        <text x="3962.5" y="-4044.0" class="marshal-light-label">19</text>
      </g>
      <g class="marshal-light-marker" data-light="20">
        <rect x="2873.1" y="-4307.7" width="123.9" height="123.9" class="marshal-light-bg"/>
        <text x="2935.0" y="-4245.7" class="marshal-light-label">20</text>
      </g>
    </g>

    <g id="marshal-sectors">
      <g class="marshal-sector-marker" data-sector="1" data-length="0.0">
        <polygon points="-1185.0,-1489.6 -1313.7,-1266.7 -1056.3,-1266.7" class="marshal-sector-bg"/>
        <text x="-1185.0" y="-1341.0" class="marshal-sector-label">1</text>
      </g>
      <g class="marshal-sector-marker" data-sector="2" data-length="2359.6">
        <polygon points="-2897.3,133.7 -3026.0,356.7 -2768.6,356.7" class="marshal-sector-bg"/>
        <text x="-2897.3" y="282.4" class="marshal-sector-label">2</text>
      </g>
      <g class="marshal-sector-marker" data-sector="3" data-length="5227.2">
        <polygon points="-3816.2,2636.0 -3945.0,2859.0 -3687.5,2859.0" class="marshal-sector-bg"/>
        <text x="-3816.2" y="2784.7" class="marshal-sector-label">3</text>
      </g>
      <g class="marshal-sector-marker" data-sector="4" data-length="7017.3">
        <polygon points="-5106.6,3873.7 -5235.3,4096.6 -4977.8,4096.6" class="marshal-sector-bg"/>
        <text x="-5106.6" y="4022.3" class="marshal-sector-label">4</text>
      </g>
      <g class="marshal-sector-marker" data-sector="5" data-length="9839.8">
        <polygon points="-6851.3,6086.1 -6980.0,6309.0 -6722.5,6309.0" class="marshal-sector-bg"/>
        <text x="-6851.3" y="6234.7" class="marshal-sector-label">5</text>
      </g>
      <g class="marshal-sector-marker" data-sector="6" data-length="11748.8">
        <polygon points="-6348.4,7239.5 -6477.1,7462.5 -6219.6,7462.5" class="marshal-sector-bg"/>
        <text x="-6348.4" y="7388.2" class="marshal-sector-label">6</text>
      </g>
      <g class="marshal-sector-marker" data-sector="7" data-length="13858.5">
        <polygon points="-5947.0,9061.4 -6075.7,9284.4 -5818.3,9284.4" class="marshal-sector-bg"/>
        <text x="-5947.0" y="9210.1" class="marshal-sector-label">7</text>
      </g>
      <g class="marshal-sector-marker" data-sector="8" data-length="15665.1">
        <polygon points="-4930.3,10440.1 -5059.0,10663.1 -4801.6,10663.1" class="marshal-sector-bg"/>
        <text x="-4930.3" y="10588.8" class="marshal-sector-label">8</text>
      </g>
      <g class="marshal-sector-marker" data-sector="9" data-length="17303.7">
        <polygon points="-3456.0,11150.0 -3584.7,11373.0 -3327.3,11373.0" class="marshal-sector-bg"/>
        <text x="-3456.0" y="11298.7" class="marshal-sector-label">9</text>
      </g>
      <g class="marshal-sector-marker" data-sector="10" data-length="20662.8">
        <polygon points="-375.1,11037.0 -503.8,11260.0 -246.4,11260.0" class="marshal-sector-bg"/>
        <text x="-375.1" y="11185.7" class="marshal-sector-label">10</text>
      </g>
      <g class="marshal-sector-marker" data-sector="11" data-length="23727.0">
        <polygon points="1152.1,8586.2 1023.4,8809.1 1280.8,8809.1" class="marshal-sector-bg"/>
        <text x="1152.1" y="8734.8" class="marshal-sector-label">11</text>
      </g>
      <g class="marshal-sector-marker" data-sector="12" data-length="26701.1">
        <polygon points="531.9,5712.5 403.2,5935.5 660.7,5935.5" class="marshal-sector-bg"/>
        <text x="531.9" y="5861.1" class="marshal-sector-label">12</text>
      </g>
      <g class="marshal-sector-marker" data-sector="13" data-length="28892.7">
        <polygon points="381.9,3575.7 253.2,3798.6 510.6,3798.6" class="marshal-sector-bg"/>
        <text x="381.9" y="3724.3" class="marshal-sector-label">13</text>
      </g>
      <g class="marshal-sector-marker" data-sector="14" data-length="31887.3">
        <polygon points="2043.4,1156.3 1914.6,1379.3 2172.1,1379.3" class="marshal-sector-bg"/>
        <text x="2043.4" y="1305.0" class="marshal-sector-label">14</text>
      </g>
      <g class="marshal-sector-marker" data-sector="15" data-length="33743.0">
        <polygon points="3740.9,705.9 3612.2,928.8 3869.7,928.8" class="marshal-sector-bg"/>
        <text x="3740.9" y="854.5" class="marshal-sector-label">15</text>
      </g>
      <g class="marshal-sector-marker" data-sector="16" data-length="37335.7">
        <polygon points="6430.1,-1518.7 6301.4,-1295.8 6558.8,-1295.8" class="marshal-sector-bg"/>
        <text x="6430.1" y="-1370.1" class="marshal-sector-label">16</text>
      </g>
      <g class="marshal-sector-marker" data-sector="17" data-length="39470.0">
        <polygon points="7169.9,-3517.1 7041.2,-3294.1 7298.7,-3294.1" class="marshal-sector-bg"/>
        <text x="7169.9" y="-3368.4" class="marshal-sector-label">17</text>
      </g>
      <g class="marshal-sector-marker" data-sector="18" data-length="42685.7">
        <polygon points="5941.1,-5553.0 5812.4,-5330.0 6069.9,-5330.0" class="marshal-sector-bg"/>
        <text x="5941.1" y="-5404.4" class="marshal-sector-label">18</text>
      </g>
      <g class="marshal-sector-marker" data-sector="19" data-length="45598.4">
        <polygon points="3919.9,-4113.2 3791.2,-3890.3 4048.6,-3890.3" class="marshal-sector-bg"/>
        <text x="3919.9" y="-3964.6" class="marshal-sector-label">19</text>
      </g>
      <g class="marshal-sector-marker" data-sector="20" data-length="47077.2">
        <polygon points="2895.0,-4429.4 2766.3,-4206.5 3023.7,-4206.5" class="marshal-sector-bg"/>
        <text x="2895.0" y="-4280.8" class="marshal-sector-label">20</text>
      </g>
    </g>

    <g id="corners">
      <g class="corner-marker" data-corner="1" data-length="3564.0">
        <circle cx="-3650.6" cy="1193.8" r="198.2" class="corner-bg"/>
        <text x="-3650.6" y="1193.8" class="corner-label">1</text>
      </g>
      <g class="corner-marker" data-corner="2" data-length="4375.1">
        <circle cx="-3555.1" cy="1992.8" r="198.2" class="corner-bg"/>
        <text x="-3555.1" y="1992.8" class="corner-label">2</text>
      </g>
      <g class="corner-marker" data-corner="3" data-length="10802.5">
        <circle cx="-7195.0" cy="7101.9" r="198.2" class="corner-bg"/>
        <text x="-7195.0" y="7101.9" class="corner-label">3</text>
      </g>
      <g class="corner-marker" data-corner="4" data-length="12338.7">
        <circle cx="-5878.7" cy="7709.9" r="198.2" class="corner-bg"/>
        <text x="-5878.7" y="7709.9" class="corner-label">4</text>
      </g>
      <g class="corner-marker" data-corner="5" data-length="14333.7">
        <circle cx="-5870.7" cy="9676.8" r="198.2" class="corner-bg"/>
        <text x="-5870.7" y="9676.8" class="corner-label">5</text>
      </g>
      <g class="corner-marker" data-corner="6" data-length="18614.6">
        <circle cx="-2280.6" cy="11861.6" r="198.2" class="corner-bg"/>
        <text x="-2280.6" y="11861.6" class="corner-label">6</text>
      </g>
      <g class="corner-marker" data-corner="7" data-length="19716.5">
        <circle cx="-1296.4" cy="11398.0" r="198.2" class="corner-bg"/>
        <text x="-1296.4" y="11398.0" class="corner-label">7</text>
      </g>
      <g class="corner-marker" data-corner="8" data-length="21748.4">
        <circle cx="502.4" cy="10576.3" r="198.2" class="corner-bg"/>
        <text x="502.4" y="10576.3" class="corner-label">8</text>
      </g>
      <g class="corner-marker" data-corner="9" data-length="32837.7">
        <circle cx="2838.8" cy="799.0" r="198.2" class="corner-bg"/>
        <text x="2838.8" y="799.0" class="corner-label">9</text>
      </g>
      <g class="corner-marker" data-corner="10" data-length="33976.5">
        <circle cx="3973.9" cy="855.0" r="198.2" class="corner-bg"/>
        <text x="3973.9" y="855.0" class="corner-label">10</text>
      </g>
      <g class="corner-marker" data-corner="11" data-length="40998.0">
        <circle cx="7489.1" cy="-4851.3" r="198.2" class="corner-bg"/>
        <text x="7489.1" y="-4851.3" class="corner-label">11</text>
      </g>
      <g class="corner-marker" data-corner="12" data-length="43627.9">
        <circle cx="5020.2" cy="-5538.9" r="198.2" class="corner-bg"/>
        <text x="5020.2" y="-5538.9" class="corner-label">12</text>
      </g>
      <g class="corner-marker" data-corner="13" data-length="46081.7">
        <circle cx="3587.2" cy="-3634.0" r="198.2" class="corner-bg"/>
        <text x="3587.2" y="-3634.0" class="corner-label">13</text>
      </g>
      <g class="corner-marker" data-corner="14" data-length="47716.3">
        <circle cx="2300.3" cy="-4454.0" r="198.2" class="corner-bg"/>
        <text x="2300.3" y="-4454.0" class="corner-label">14</text>
      </g>
    </g>

    <g id="start-finish" data-track-x="-1185.0" data-track-y="-1341.0" data-lap-distance="52435.4">
      <polygon points="-901.5,-2122.1 -1440.7,-1610.6 -1747.6,-1934.1 -1208.4,-2445.6" class="checker-border"/>
      <polygon points="-901.5,-2122.1 -1009.4,-2019.8 -1111.7,-2127.6 -1003.8,-2229.9" class="checker-black"/>
      <polygon points="-1003.8,-2229.9 -1111.7,-2127.6 -1214.0,-2235.5 -1106.1,-2337.8" class="checker-white"/>
      <polygon points="-1106.1,-2337.8 -1214.0,-2235.5 -1316.3,-2343.3 -1208.4,-2445.6" class="checker-black"/>
      <polygon points="-1009.4,-2019.8 -1117.2,-1917.5 -1219.5,-2025.4 -1111.7,-2127.6" class="checker-white"/>
      <polygon points="-1111.7,-2127.6 -1219.5,-2025.4 -1321.8,-2133.2 -1214.0,-2235.5" class="checker-black"/>
      <polygon points="-1214.0,-2235.5 -1321.8,-2133.2 -1424.1,-2241.0 -1316.3,-2343.3" class="checker-white"/>
      <polygon points="-1117.2,-1917.5 -1225.1,-1815.2 -1327.4,-1923.1 -1219.5,-2025.4" class="checker-black"/>
      <polygon points="-1219.5,-2025.4 -1327.4,-1923.1 -1429.7,-2030.9 -1321.8,-2133.2" class="checker-white"/>
      <polygon points="-1321.8,-2133.2 -1429.7,-2030.9 -1532.0,-2138.7 -1424.1,-2241.0" class="checker-black"/>
      <polygon points="-1225.1,-1815.2 -1332.9,-1712.9 -1435.2,-1820.8 -1327.4,-1923.1" class="checker-white"/>
      <polygon points="-1327.4,-1923.1 -1435.2,-1820.8 -1537.5,-1928.6 -1429.7,-2030.9" class="checker-black"/>
      <polygon points="-1429.7,-2030.9 -1537.5,-1928.6 -1639.8,-2036.4 -1532.0,-2138.7" class="checker-white"/>
      <polygon points="-1332.9,-1712.9 -1440.7,-1610.6 -1543.0,-1718.5 -1435.2,-1820.8" class="checker-black"/>
      <polygon points="-1435.2,-1820.8 -1543.0,-1718.5 -1645.3,-1826.3 -1537.5,-1928.6" class="checker-white"/>
      <polygon points="-1537.5,-1928.6 -1645.3,-1826.3 -1747.6,-1934.1 -1639.8,-2036.4" class="checker-black"/>
      <polyline points="-2303.9,-1440.6 -2313.2,-1090.4 -1962.9,-1081.1" class="chevron"/>
      <polyline points="-2447.7,-1304.2 -2456.9,-954.0 -2106.7,-944.7" class="chevron"/>
      <polyline points="-2591.5,-1167.8 -2600.7,-817.6 -2250.5,-808.3" class="chevron"/>
    </g>

    <g id="car-markers"></g>

  </g>
</svg>
