<?xml version="1.0" encoding="utf-8"?>
<?xml-stylesheet type="text/css" href="../../css/tracks.css"?>
<svg xmlns="http://www.w3.org/2000/svg" viewBox="-539.1 198.5 960.0 640.3">
  <title>Mexico City</title>

  <g id="track-root" transform="translate(0, 640.34) scale(1, -1) scale(0.054389) translate(-4791.00, 3878.00) rotate(36, 4791.00, -3878.00)" data-scale="0.054389" data-rotation="36.0">

    <g id="track-outline">
      <path d="M 5051.8 448.8 L 5086.0 445.0 L 5215.0 430.0 L 5280.0 423.0 L 5425.0 405.0 L 5457.0 402.0 L 5639.0 380.0 L 5653.0 379.0 L 5850.0 356.0 L 5854.0 355.0 L 6047.0 333.0 L 6069.0 330.0 L 6245.0 311.0 L 6285.0 306.0 L 6443.0 288.0 L 6502.0 281.0 L 6643.0 265.0 L 6721.0 255.0 L 6843.0 241.0 L 6939.0 228.0 L 7043.0 215.0 L 7158.0 200.0 L 7244.0 189.0 L 7377.0 171.0 L 7445.0 162.0 L 7597.0 142.0 L 7647.0 136.0 L 7818.0 113.0 L 7850.0 109.0 L 8039.0 83.0 L 8052.0 82.0 L 8256.0 56.0 L 8261.0 55.0 L 8459.0 29.0 L 8483.0 25.0 L 8663.0 2.0 L 8706.0 -3.0 L 8868.0 -24.0 L 8926.0 -31.0 L 9059.0 -49.0 L 9172.0 -64.0 L 9258.0 -76.0 L 9391.0 -93.0 L 9460.0 -102.0 L 9614.0 -122.0 L 9665.0 -129.0 L 9719.1 -136.1" class="track-outline" data-sector="2"/>
      <path d="M 9719.1 -136.1 L 9802.0 -147.0 L 9871.0 -156.0 L 10065.0 -181.0 L 10077.0 -183.0 L 10273.0 -209.0 L 10278.0 -209.0 L 10449.0 -231.0 L 10469.0 -233.0 L 10608.0 -251.0 L 10639.0 -254.0 L 10751.0 -269.0 L 10791.0 -274.0 L 10879.0 -288.0 L 10925.0 -295.0 L 10994.0 -307.0 L 11044.0 -316.0 L 11087.0 -326.0 L 11148.0 -341.0 L 11178.0 -350.0 L 11239.0 -371.0 L 11259.0 -379.0 L 11320.0 -407.0 L 11331.0 -413.0 L 11390.0 -449.0 L 11395.0 -452.0 L 11451.0 -495.0 L 11452.0 -496.0 L 11497.0 -541.0 L 11501.0 -546.0 L 11535.0 -593.0 L 11541.0 -604.0 L 11564.0 -649.0 L 11575.0 -677.0 L 11586.0 -708.0 L 11596.0 -741.0 L 11602.0 -767.0 L 11607.0 -805.0 L 11609.0 -826.0 L 11610.0 -872.0 L 11610.0 -888.0 L 11606.0 -941.0 L 11605.0 -951.0 L 11595.0 -1010.0 L 11595.0 -1015.0 L 11582.0 -1082.0 L 11581.0 -1083.0 L 11571.0 -1150.0 L 11569.0 -1157.0 L 11565.0 -1215.0 L 11564.0 -1228.0 L 11567.0 -1276.0 L 11569.0 -1293.0 L 11579.0 -1333.0 L 11586.0 -1354.0 L 11600.0 -1386.0 L 11613.0 -1409.0 L 11629.0 -1434.0 L 11647.0 -1459.0 L 11663.0 -1477.0 L 11690.0 -1502.0 L 11705.0 -1514.0 L 11741.0 -1539.0 L 11753.0 -1548.0 L 11797.0 -1575.0 L 11805.0 -1581.0 L 11855.0 -1615.0 L 11859.0 -1618.0 L 11910.0 -1661.0 L 11911.0 -1662.0 L 11954.0 -1711.0 L 11958.0 -1717.0 L 11985.0 -1770.0 L 11990.0 -1782.0 L 12004.0 -1828.0 L 12004.1 -1828.8" class="track-outline" data-sector="3"/>
      <path d="M 12004.1 -1828.8 L 12008.0 -1853.0 L 12013.0 -1896.0 L 12014.0 -1929.0 L 12014.0 -1966.0 L 12010.0 -2018.0 L 12009.0 -2037.0 L 11999.0 -2099.0 L 11997.0 -2112.0 L 11981.0 -2182.0 L 11980.0 -2188.0 L 11960.0 -2268.0 L 11959.0 -2270.0 L 11936.0 -2354.0 L 11932.0 -2364.0 L 11908.0 -2445.0 L 11901.0 -2464.0 L 11875.0 -2539.0 L 11864.0 -2568.0 L 11838.0 -2639.0 L 11822.0 -2680.0 L 11797.0 -2743.0 L 11778.0 -2787.0 L 11757.0 -2836.0 L 11728.0 -2898.0 L 11705.0 -2948.0 L 11668.0 -3022.0 L 11650.0 -3061.0 L 11604.0 -3147.0 L 11589.0 -3176.0 L 11532.0 -3275.0 L 11522.0 -3294.0 L 11454.0 -3406.0 L 11450.0 -3414.0 L 11375.0 -3536.0 L 11372.0 -3539.0 L 11298.0 -3658.0 L 11288.0 -3672.0 L 11217.0 -3785.0 L 11199.0 -3811.0 L 11133.0 -3911.0 L 11107.0 -3949.0 L 11047.0 -4040.0 L 11028.0 -4068.0 L 10960.0 -4174.0 L 10933.0 -4215.0 L 10873.0 -4311.0 L 10838.0 -4366.0 L 10787.0 -4452.0 L 10744.0 -4520.0 L 10739.5 -4527.6" class="track-outline" data-sector="4"/>
      <path d="M 10739.5 -4527.6 L 10700.0 -4594.0 L 10650.0 -4678.0 L 10614.0 -4741.0 L 10556.0 -4839.0 L 10527.0 -4889.0 L 10460.0 -5003.0 L 10439.0 -5040.0 L 10364.0 -5167.0 L 10358.0 -5178.0 L 10267.0 -5331.0 L 10264.0 -5334.0 L 10175.0 -5485.0 L 10147.0 -5530.0 L 10082.0 -5641.0 L 10045.0 -5701.0 L 9987.0 -5798.0 L 9941.0 -5873.0 L 9891.0 -5956.0 L 9834.0 -6046.0 L 9793.0 -6114.0 L 9727.0 -6218.0 L 9693.0 -6272.0 L 9610.0 -6396.0 L 9583.0 -6438.0 L 9510.8 -6544.1" class="track-outline" data-sector="5"/>
      <path d="M 9510.8 -6544.1 L 9485.0 -6582.0 L 9468.0 -6608.0 L 9373.0 -6748.0 L 9367.0 -6757.0 L 9276.0 -6890.0 L 9257.0 -6916.0 L 9192.0 -7009.0 L 9168.0 -7041.0 L 9116.0 -7115.0 L 9087.0 -7154.0 L 9046.0 -7212.0 L 9015.0 -7253.0 L 8986.0 -7296.0 L 8954.0 -7341.0 L 8935.0 -7372.0 L 8911.0 -7409.0 L 8901.0 -7428.0 L 8874.0 -7477.0 L 8866.0 -7494.0 L 8841.0 -7546.0 L 8838.0 -7556.0 L 8818.0 -7612.0 L 8817.0 -7616.0 L 8804.0 -7674.0 L 8803.0 -7675.0 L 8799.0 -7726.0 L 8799.0 -7730.0 L 8801.0 -7784.0 L 8801.0 -7785.0 L 8811.0 -7835.0 L 8815.0 -7849.0 L 8829.0 -7882.0 L 8838.0 -7899.0 L 8856.0 -7924.0 L 8871.0 -7942.0 L 8889.0 -7961.0 L 8911.0 -7980.0 L 8929.0 -7993.0 L 8958.0 -8012.0 L 8974.0 -8021.0 L 9010.0 -8040.0 L 9018.0 -8045.0 L 9065.0 -8070.0 L 9069.0 -8072.0 L 9119.0 -8102.0 L 9120.0 -8102.0 L 9163.0 -8135.0 L 9167.0 -8138.0 L 9199.0 -8170.0 L 9205.0 -8177.0 L 9227.0 -8208.0 L 9233.0 -8220.0 L 9246.0 -8249.0 L 9250.0 -8265.0 L 9256.0 -8292.0 L 9258.0 -8312.0 L 9259.0 -8335.0 L 9255.0 -8358.0 L 9252.0 -8376.0 L 9240.0 -8409.0 L 9238.0 -8415.0 L 9216.0 -8448.0 L 9215.0 -8451.0 L 9186.0 -8486.0 L 9185.0 -8486.0 L 9151.0 -8520.0 L 9146.0 -8523.0 L 9111.0 -8553.0 L 9101.0 -8559.0 L 9064.0 -8586.0 L 9049.0 -8596.0 L 9014.0 -8621.0 L 8993.0 -8635.0 L 8960.0 -8658.0 L 8932.0 -8677.0 L 8901.0 -8699.0 L 8853.0 -8732.0 L 8837.0 -8744.0 L 8835.6 -8745.0" class="track-outline" data-sector="6"/>
      <path d="M 8835.6 -8745.0 L 8777.0 -8785.0 L 8766.0 -8794.0 L 8695.0 -8848.0 L 8691.0 -8852.0 L 8630.0 -8899.0 L 8620.0 -8907.0 L 8557.0 -8952.0 L 8554.0 -8955.0 L 8491.0 -8993.0 L 8489.0 -8994.0 L 8429.0 -9021.0 L 8421.0 -9023.0 L 8368.0 -9036.0 L 8345.0 -9039.0 L 8312.0 -9042.0 L 8285.0 -9041.0 L 8258.0 -9040.0 L 8228.0 -9035.0 L 8207.0 -9031.0 L 8175.0 -9020.0 L 8165.0 -9016.0 L 8130.0 -8996.0 L 8124.0 -8992.0 L 8090.0 -8963.0 L 8088.0 -8961.0 L 8057.0 -8924.0 L 8056.0 -8923.0 L 8033.0 -8880.0 L 8026.0 -8866.0 L 8014.0 -8833.0 L 8007.0 -8813.0 L 8000.0 -8782.0 L 7994.0 -8756.0 L 7991.0 -8728.0 L 7988.0 -8695.0 L 7988.0 -8670.0 L 7987.0 -8629.0 L 7988.0 -8608.0 L 7990.0 -8560.0 L 7992.0 -8544.0 L 7997.0 -8485.0 L 7999.0 -8474.0 L 8008.0 -8403.0 L 8009.0 -8399.0 L 8023.0 -8318.0 L 8023.0 -8315.0 L 8039.0 -8231.0 L 8041.0 -8219.0 L 8059.0 -8126.0 L 8063.0 -8102.0 L 8080.0 -8014.0 L 8081.2 -8006.4" class="track-outline" data-sector="7"/>
      <path d="M 8081.2 -8006.4 L 8085.0 -7981.0 L 8099.0 -7908.0 L 8106.0 -7865.0 L 8119.0 -7797.0 L 8129.0 -7741.0 L 8140.0 -7681.0 L 8151.0 -7612.0 L 8161.0 -7561.0 L 8176.0 -7477.0 L 8184.0 -7435.0 L 8197.0 -7360.0 L 8208.0 -7306.0 L 8225.0 -7218.0 L 8234.0 -7174.0 L 8254.0 -7071.0 L 8261.0 -7038.0 L 8284.0 -6919.0 L 8289.0 -6898.0 L 8314.0 -6764.0 L 8316.0 -6756.0 L 8342.0 -6610.0 L 8342.0 -6605.0 L 8366.0 -6466.0 L 8366.6 -6460.3" class="track-outline" data-sector="8"/>
      <path d="M 8366.6 -6460.3 L 8368.0 -6448.0 L 8388.0 -6333.0 L 8391.0 -6306.0 L 8398.0 -6222.0 L 8398.0 -6175.0 L 8397.0 -6104.0 L 8395.0 -6051.0 L 8391.0 -5996.0 L 8382.0 -5938.0 L 8372.0 -5896.0 L 8351.0 -5831.0 L 8338.0 -5799.0 L 8304.0 -5730.0 L 8292.0 -5709.0 L 8245.0 -5640.0 L 8236.0 -5629.0 L 8171.0 -5561.0 L 8167.0 -5557.0 L 8089.0 -5491.0 L 8086.0 -5489.0 L 8003.0 -5432.0 L 7992.0 -5425.0 L 7912.0 -5374.0 L 7875.0 -5350.0 L 7820.0 -5312.0 L 7776.0 -5279.0 L 7731.0 -5242.0 L 7680.0 -5197.0 L 7643.0 -5162.0 L 7587.0 -5104.0 L 7561.0 -5074.0 L 7504.0 -5002.0 L 7487.0 -4978.0 L 7455.9 -4932.7" class="track-outline" data-sector="9"/>
      <path d="M 7455.9 -4932.7 L 7428.0 -4892.0 L 7418.0 -4876.0 L 7358.0 -4774.0 L 7354.0 -4768.0 L 7287.0 -4659.0 L 7285.0 -4656.0 L 7209.0 -4556.0 L 7199.0 -4544.0 L 7122.0 -4462.0 L 7102.0 -4443.0 L 7024.0 -4378.0 L 6993.0 -4355.0 L 6919.0 -4306.0 L 6895.0 -4292.0 L 6807.0 -4247.0 L 6771.0 -4231.0 L 6689.0 -4201.0 L 6640.0 -4185.0 L 6565.0 -4165.0 L 6504.0 -4152.0 L 6437.0 -4142.0 L 6355.0 -4133.0 L 6295.0 -4129.0 L 6220.0 -4126.6" class="track-outline" data-sector="10"/>
      <path d="M 6220.0 -4126.6 L 6202.0 -4126.0 L 6156.0 -4126.0 L 6049.0 -4124.0 L 6016.0 -4124.0 L 5904.0 -4120.0 L 5896.0 -4120.0 L 5773.0 -4108.0 L 5769.0 -4107.0 L 5660.0 -4087.0 L 5647.0 -4084.0 L 5555.0 -4057.0 L 5534.0 -4049.0 L 5460.0 -4018.0 L 5434.0 -4003.0 L 5376.0 -3966.0 L 5330.0 -3930.0 L 5299.0 -3901.0 L 5254.0 -3852.0 L 5233.0 -3827.0 L 5188.0 -3767.0 L 5175.0 -3748.0 L 5130.0 -3678.0 L 5123.0 -3665.0 L 5079.0 -3581.0 L 5077.0 -3576.0 L 5036.0 -3482.0 L 5034.0 -3479.0 L 4998.0 -3383.0 L 4993.0 -3371.0 L 4955.0 -3281.0 L 4944.0 -3259.0 L 4903.0 -3179.0 L 4885.0 -3148.0 L 4845.0 -3080.0 L 4823.0 -3048.0 L 4788.0 -3004.0 L 4756.0 -2969.0 L 4717.0 -2932.0 L 4664.0 -2886.0 L 4621.0 -2852.0 L 4548.0 -2802.0 L 4511.0 -2778.0 L 4423.0 -2726.0 L 4394.0 -2710.0 L 4291.0 -2654.0 L 4272.0 -2644.0 L 4177.0 -2596.0 L 4147.0 -2581.0 L 4037.0 -2528.0 L 4018.0 -2519.0 L 3893.0 -2463.0 L 3886.0 -2460.0 L 3749.0 -2403.0 L 3744.0 -2401.0 L 3740.6 -2399.7" class="track-outline" data-sector="11"/>
      <path d="M 3740.6 -2399.7 L 3606.0 -2350.0 L 3588.0 -2343.0 L 3458.0 -2302.0 L 3425.0 -2292.0 L 3306.0 -2257.0 L 3230.0 -2235.0 L 3151.0 -2214.0 L 3060.0 -2190.0 L 3007.0 -2178.0 L 2885.0 -2150.0 L 2846.0 -2142.0 L 2707.0 -2113.0 L 2682.0 -2109.0 L 2527.0 -2081.0 L 2515.0 -2079.0 L 2317.0 -2047.0 L 2312.0 -2046.0 L 2141.0 -2021.0 L 2121.0 -2018.0 L 1981.0 -1999.0 L 1945.0 -1994.0 L 1805.0 -1978.0 L 1751.0 -1971.0 L 1626.0 -1957.0 L 1555.0 -1949.0 L 1446.0 -1937.0 L 1358.0 -1927.0 L 1264.0 -1917.0 L 1159.0 -1905.0 L 1081.0 -1897.0 L 958.0 -1883.0 L 896.0 -1877.0 L 756.0 -1860.0 L 713.0 -1856.0 L 574.0 -1840.0 L 550.0 -1838.0 L 498.5 -1832.1" class="track-outline" data-sector="12"/>
      <path d="M 498.5 -1832.1 L 411.0 -1822.0 L 402.0 -1821.0 L 267.0 -1806.0 L 263.0 -1805.0 L 145.0 -1792.0 L 131.0 -1790.0 L 35.0 -1778.0 L 13.0 -1775.0 L -64.0 -1763.0 L -91.0 -1757.0 L -152.0 -1743.0 L -183.0 -1733.0 L -231.0 -1718.0 L -266.0 -1703.0 L -302.0 -1686.0 L -339.0 -1663.0 L -366.0 -1646.0 L -406.0 -1615.0 L -425.0 -1600.0 L -473.0 -1551.0 L -476.0 -1548.0 L -520.0 -1492.0 L -521.0 -1490.0 L -556.0 -1431.0 L -559.0 -1423.0 L -583.0 -1364.0 L -591.0 -1335.0 L -603.0 -1289.0 L -609.0 -1250.0 L -615.0 -1216.0 L -621.0 -1160.0 L -624.0 -1131.0 L -626.0 -1062.0 L -627.0 -1041.0 L -625.0 -963.0 L -625.0 -945.0 L -617.0 -808.0 L -617.0 -799.0 L -609.0 -693.0 L -608.0 -690.0 L -604.9 -623.8" class="track-outline" data-sector="13"/>
      <path d="M -604.9 -623.8 L -603.0 -582.0 L -602.0 -569.0 L -599.0 -478.0 L -598.0 -457.0 L -596.0 -383.0 L -596.0 -356.0 L -598.0 -300.0 L -599.0 -269.0 L -604.0 -225.0 L -608.0 -191.0 L -615.0 -157.0 L -622.0 -120.0 L -629.0 -95.0 L -642.0 -58.0 L -650.0 -42.0 L -669.0 -8.0 L -677.0 1.0 L -705.0 30.0 L -711.0 35.0 L -747.0 58.0 L -750.0 60.0 L -791.0 77.0 L -792.0 77.0 L -834.0 84.0 L -838.0 84.0 L -875.0 83.0 L -883.0 81.0 L -914.0 75.0 L -925.0 70.0 L -951.0 59.0 L -963.0 51.0 L -983.0 39.0 L -992.0 32.0 L -1014.0 15.0 L -1031.0 0.0 L -1045.0 -10.0 L -1066.0 -27.0 L -1078.0 -37.0 L -1104.0 -58.0 L -1113.0 -66.0 L -1147.0 -90.0 L -1154.0 -95.0 L -1201.0 -123.0 L -1207.0 -126.0 L -1256.0 -147.0 L -1268.0 -150.0 L -1311.0 -160.0 L -1335.0 -163.0 L -1375.0 -168.0 L -1406.0 -169.0 L -1441.0 -169.0 L -1490.0 -165.0 L -1507.0 -164.0 L -1565.0 -154.0 L -1576.0 -153.0 L -1627.0 -141.0 L -1632.0 -141.0 L -1707.0 -126.0 L -1709.0 -125.0 L -1786.0 -112.0 L -1795.0 -110.0 L -1819.0 -106.3" class="track-outline" data-sector="14"/>
      <path d="M -1819.0 -106.3 L -1873.0 -98.0 L -1891.0 -95.0 L -1964.0 -86.0 L -1990.0 -82.0 L -2051.0 -74.0 L -2097.0 -67.0 L -2131.0 -62.0 L -2180.0 -52.0 L -2204.0 -46.0 L -2253.0 -29.0 L -2268.0 -23.0 L -2313.0 3.0 L -2321.0 9.0 L -2359.0 47.0 L -2362.0 50.0 L -2391.0 99.0 L -2391.0 100.0 L -2411.0 152.0 L -2412.0 158.0 L -2424.0 205.0 L -2425.0 216.0 L -2431.0 258.0 L -2431.0 273.0 L -2432.0 311.0 L -2431.0 332.0 L -2428.0 367.0 L -2423.0 396.0 L -2418.0 428.0 L -2410.0 463.0 L -2404.0 489.0 L -2390.0 531.0 L -2383.0 553.0 L -2363.0 603.0 L -2356.0 619.0 L -2326.0 675.0 L -2321.0 686.0 L -2279.0 751.0 L -2277.0 756.0 L -2224.0 825.0 L -2222.0 827.0 L -2161.0 894.0 L -2152.0 902.0 L -2094.0 957.0 L -2069.0 977.0 L -2010.0 1022.0 L -1974.5 1045.7" class="track-outline" data-sector="15"/>
      <path d="M -1974.5 1045.7 L -1974.0 1046.0 L -1917.0 1082.0 L -1868.0 1108.0 L -1814.0 1135.0 L -1753.0 1160.0 L -1705.0 1179.0 L -1627.0 1204.0 L -1586.0 1217.0 L -1492.0 1240.0 L -1461.0 1247.0 L -1331.0 1268.0 L -1327.0 1268.0 L -1196.0 1281.0 L -1179.0 1281.0 L -1058.0 1286.0 L -1028.0 1286.0 L -918.0 1285.0 L -848.0 1282.0 L -774.0 1278.0 L -691.0 1271.0 L -629.0 1266.0 L -528.0 1255.0 L -481.0 1250.0 L -390.0 1238.0 L -359.0 1235.0 L -272.0 1223.0" class="track-outline" data-sector="16"/>
      <path d="M -272.0 1223.0 L -294.0 1226.0 L -295.0 1226.0 L -218.0 1216.0 L -182.0 1212.0 L -55.0 1193.0 L -32.0 1190.0 L 108.0 1167.0 L 119.0 1166.0 L 273.0 1141.0 L 304.0 1135.0 L 429.0 1115.0 L 475.0 1107.0 L 588.0 1088.0 L 650.0 1077.0 L 749.0 1061.0 L 826.0 1048.0 L 911.0 1034.0 L 1033.0 1014.0 L 1074.0 1008.0 L 1214.0 985.0 L 1240.0 981.0 L 1395.0 956.0 L 1406.0 955.0 L 1574.0 929.0 L 1578.0 928.0 L 1743.0 903.0 L 1763.0 899.0 L 1914.0 877.0 L 1949.0 871.0 L 2086.0 851.0 L 2137.0 843.0 L 2258.0 825.0 L 2325.0 814.0 L 2433.0 798.0 L 2518.0 785.0 L 2610.0 772.0 L 2708.0 757.0 L 2788.0 745.0 L 2928.0 723.0 L 2998.0 713.0 L 3168.0 687.0 L 3180.0 686.0 L 3363.0 659.0 L 3368.0 658.0 L 3547.0 632.0 L 3568.0 628.0 L 3732.0 605.0 L 3770.0 599.0 L 3919.0 580.0 L 3942.0 577.0 L 4107.0 557.0 L 4147.0 552.0 L 4297.0 534.0 L 4354.0 527.0 L 4487.0 513.0 L 4562.0 504.0 L 4679.0 491.0 L 4770.0 481.0 L 4871.0 470.0 L 4995.0 455.0 L 5051.8 448.8" class="track-outline" data-sector="1"/>
    </g>

    <g id="track-sectors">
      <path d="M 5051.8 448.8 L 5086.0 445.0 L 5215.0 430.0 L 5280.0 423.0 L 5425.0 405.0 L 5457.0 402.0 L 5639.0 380.0 L 5653.0 379.0 L 5850.0 356.0 L 5854.0 355.0 L 6047.0 333.0 L 6069.0 330.0 L 6245.0 311.0 L 6285.0 306.0 L 6443.0 288.0 L 6502.0 281.0 L 6643.0 265.0 L 6721.0 255.0 L 6843.0 241.0 L 6939.0 228.0 L 7043.0 215.0 L 7158.0 200.0 L 7244.0 189.0 L 7377.0 171.0 L 7445.0 162.0 L 7597.0 142.0 L 7647.0 136.0 L 7818.0 113.0 L 7850.0 109.0 L 8039.0 83.0 L 8052.0 82.0 L 8256.0 56.0 L 8261.0 55.0 L 8459.0 29.0 L 8483.0 25.0 L 8663.0 2.0 L 8706.0 -3.0 L 8868.0 -24.0 L 8926.0 -31.0 L 9059.0 -49.0 L 9172.0 -64.0 L 9258.0 -76.0 L 9391.0 -93.0 L 9460.0 -102.0 L 9614.0 -122.0 L 9665.0 -129.0 L 9719.1 -136.1" class="track" data-sector="2"/>
      <path d="M 9719.1 -136.1 L 9802.0 -147.0 L 9871.0 -156.0 L 10065.0 -181.0 L 10077.0 -183.0 L 10273.0 -209.0 L 10278.0 -209.0 L 10449.0 -231.0 L 10469.0 -233.0 L 10608.0 -251.0 L 10639.0 -254.0 L 10751.0 -269.0 L 10791.0 -274.0 L 10879.0 -288.0 L 10925.0 -295.0 L 10994.0 -307.0 L 11044.0 -316.0 L 11087.0 -326.0 L 11148.0 -341.0 L 11178.0 -350.0 L 11239.0 -371.0 L 11259.0 -379.0 L 11320.0 -407.0 L 11331.0 -413.0 L 11390.0 -449.0 L 11395.0 -452.0 L 11451.0 -495.0 L 11452.0 -496.0 L 11497.0 -541.0 L 11501.0 -546.0 L 11535.0 -593.0 L 11541.0 -604.0 L 11564.0 -649.0 L 11575.0 -677.0 L 11586.0 -708.0 L 11596.0 -741.0 L 11602.0 -767.0 L 11607.0 -805.0 L 11609.0 -826.0 L 11610.0 -872.0 L 11610.0 -888.0 L 11606.0 -941.0 L 11605.0 -951.0 L 11595.0 -1010.0 L 11595.0 -1015.0 L 11582.0 -1082.0 L 11581.0 -1083.0 L 11571.0 -1150.0 L 11569.0 -1157.0 L 11565.0 -1215.0 L 11564.0 -1228.0 L 11567.0 -1276.0 L 11569.0 -1293.0 L 11579.0 -1333.0 L 11586.0 -1354.0 L 11600.0 -1386.0 L 11613.0 -1409.0 L 11629.0 -1434.0 L 11647.0 -1459.0 L 11663.0 -1477.0 L 11690.0 -1502.0 L 11705.0 -1514.0 L 11741.0 -1539.0 L 11753.0 -1548.0 L 11797.0 -1575.0 L 11805.0 -1581.0 L 11855.0 -1615.0 L 11859.0 -1618.0 L 11910.0 -1661.0 L 11911.0 -1662.0 L 11954.0 -1711.0 L 11958.0 -1717.0 L 11985.0 -1770.0 L 11990.0 -1782.0 L 12004.0 -1828.0 L 12004.1 -1828.8" class="track" data-sector="3"/>
      <path d="M 12004.1 -1828.8 L 12008.0 -1853.0 L 12013.0 -1896.0 L 12014.0 -1929.0 L 12014.0 -1966.0 L 12010.0 -2018.0 L 12009.0 -2037.0 L 11999.0 -2099.0 L 11997.0 -2112.0 L 11981.0 -2182.0 L 11980.0 -2188.0 L 11960.0 -2268.0 L 11959.0 -2270.0 L 11936.0 -2354.0 L 11932.0 -2364.0 L 11908.0 -2445.0 L 11901.0 -2464.0 L 11875.0 -2539.0 L 11864.0 -2568.0 L 11838.0 -2639.0 L 11822.0 -2680.0 L 11797.0 -2743.0 L 11778.0 -2787.0 L 11757.0 -2836.0 L 11728.0 -2898.0 L 11705.0 -2948.0 L 11668.0 -3022.0 L 11650.0 -3061.0 L 11604.0 -3147.0 L 11589.0 -3176.0 L 11532.0 -3275.0 L 11522.0 -3294.0 L 11454.0 -3406.0 L 11450.0 -3414.0 L 11375.0 -3536.0 L 11372.0 -3539.0 L 11298.0 -3658.0 L 11288.0 -3672.0 L 11217.0 -3785.0 L 11199.0 -3811.0 L 11133.0 -3911.0 L 11107.0 -3949.0 L 11047.0 -4040.0 L 11028.0 -4068.0 L 10960.0 -4174.0 L 10933.0 -4215.0 L 10873.0 -4311.0 L 10838.0 -4366.0 L 10787.0 -4452.0 L 10744.0 -4520.0 L 10739.5 -4527.6" class="track" data-sector="4"/>
      <path d="M 10739.5 -4527.6 L 10700.0 -4594.0 L 10650.0 -4678.0 L 10614.0 -4741.0 L 10556.0 -4839.0 L 10527.0 -4889.0 L 10460.0 -5003.0 L 10439.0 -5040.0 L 10364.0 -5167.0 L 10358.0 -5178.0 L 10267.0 -5331.0 L 10264.0 -5334.0 L 10175.0 -5485.0 L 10147.0 -5530.0 L 10082.0 -5641.0 L 10045.0 -5701.0 L 9987.0 -5798.0 L 9941.0 -5873.0 L 9891.0 -5956.0 L 9834.0 -6046.0 L 9793.0 -6114.0 L 9727.0 -6218.0 L 9693.0 -6272.0 L 9610.0 -6396.0 L 9583.0 -6438.0 L 9510.8 -6544.1" class="track" data-sector="5"/>
      <path d="M 9510.8 -6544.1 L 9485.0 -6582.0 L 9468.0 -6608.0 L 9373.0 -6748.0 L 9367.0 -6757.0 L 9276.0 -6890.0 L 9257.0 -6916.0 L 9192.0 -7009.0 L 9168.0 -7041.0 L 9116.0 -7115.0 L 9087.0 -7154.0 L 9046.0 -7212.0 L 9015.0 -7253.0 L 8986.0 -7296.0 L 8954.0 -7341.0 L 8935.0 -7372.0 L 8911.0 -7409.0 L 8901.0 -7428.0 L 8874.0 -7477.0 L 8866.0 -7494.0 L 8841.0 -7546.0 L 8838.0 -7556.0 L 8818.0 -7612.0 L 8817.0 -7616.0 L 8804.0 -7674.0 L 8803.0 -7675.0 L 8799.0 -7726.0 L 8799.0 -7730.0 L 8801.0 -7784.0 L 8801.0 -7785.0 L 8811.0 -7835.0 L 8815.0 -7849.0 L 8829.0 -7882.0 L 8838.0 -7899.0 L 8856.0 -7924.0 L 8871.0 -7942.0 L 8889.0 -7961.0 L 8911.0 -7980.0 L 8929.0 -7993.0 L 8958.0 -8012.0 L 8974.0 -8021.0 L 9010.0 -8040.0 L 9018.0 -8045.0 L 9065.0 -8070.0 L 9069.0 -8072.0 L 9119.0 -8102.0 L 9120.0 -8102.0 L 9163.0 -8135.0 L 9167.0 -8138.0 L 9199.0 -8170.0 L 9205.0 -8177.0 L 9227.0 -8208.0 L 9233.0 -8220.0 L 9246.0 -8249.0 L 9250.0 -8265.0 L 9256.0 -8292.0 L 9258.0 -8312.0 L 9259.0 -8335.0 L 9255.0 -8358.0 L 9252.0 -8376.0 L 9240.0 -8409.0 L 9238.0 -8415.0 L 9216.0 -8448.0 L 9215.0 -8451.0 L 9186.0 -8486.0 L 9185.0 -8486.0 L 9151.0 -8520.0 L 9146.0 -8523.0 L 9111.0 -8553.0 L 9101.0 -8559.0 L 9064.0 -8586.0 L 9049.0 -8596.0 L 9014.0 -8621.0 L 8993.0 -8635.0 L 8960.0 -8658.0 L 8932.0 -8677.0 L 8901.0 -8699.0 L 8853.0 -8732.0 L 8837.0 -8744.0 L 8835.6 -8745.0" class="track" data-sector="6"/>
      <path d="M 8835.6 -8745.0 L 8777.0 -8785.0 L 8766.0 -8794.0 L 8695.0 -8848.0 L 8691.0 -8852.0 L 8630.0 -8899.0 L 8620.0 -8907.0 L 8557.0 -8952.0 L 8554.0 -8955.0 L 8491.0 -8993.0 L 8489.0 -8994.0 L 8429.0 -9021.0 L 8421.0 -9023.0 L 8368.0 -9036.0 L 8345.0 -9039.0 L 8312.0 -9042.0 L 8285.0 -9041.0 L 8258.0 -9040.0 L 8228.0 -9035.0 L 8207.0 -9031.0 L 8175.0 -9020.0 L 8165.0 -9016.0 L 8130.0 -8996.0 L 8124.0 -8992.0 L 8090.0 -8963.0 L 8088.0 -8961.0 L 8057.0 -8924.0 L 8056.0 -8923.0 L 8033.0 -8880.0 L 8026.0 -8866.0 L 8014.0 -8833.0 L 8007.0 -8813.0 L 8000.0 -8782.0 L 7994.0 -8756.0 L 7991.0 -8728.0 L 7988.0 -8695.0 L 7988.0 -8670.0 L 7987.0 -8629.0 L 7988.0 -8608.0 L 7990.0 -8560.0 L 7992.0 -8544.0 L 7997.0 -8485.0 L 7999.0 -8474.0 L 8008.0 -8403.0 L 8009.0 -8399.0 L 8023.0 -8318.0 L 8023.0 -8315.0 L 8039.0 -8231.0 L 8041.0 -8219.0 L 8059.0 -8126.0 L 8063.0 -8102.0 L 8080.0 -8014.0 L 8081.2 -8006.4" class="track" data-sector="7"/>
      <path d="M 8081.2 -8006.4 L 8085.0 -7981.0 L 8099.0 -7908.0 L 8106.0 -7865.0 L 8119.0 -7797.0 L 8129.0 -7741.0 L 8140.0 -7681.0 L 8151.0 -7612.0 L 8161.0 -7561.0 L 8176.0 -7477.0 L 8184.0 -7435.0 L 8197.0 -7360.0 L 8208.0 -7306.0 L 8225.0 -7218.0 L 8234.0 -7174.0 L 8254.0 -7071.0 L 8261.0 -7038.0 L 8284.0 -6919.0 L 8289.0 -6898.0 L 8314.0 -6764.0 L 8316.0 -6756.0 L 8342.0 -6610.0 L 8342.0 -6605.0 L 8366.0 -6466.0 L 8366.6 -6460.3" class="track" data-sector="8"/>
      <path d="M 8366.6 -6460.3 L 8368.0 -6448.0 L 8388.0 -6333.0 L 8391.0 -6306.0 L 8398.0 -6222.0 L 8398.0 -6175.0 L 8397.0 -6104.0 L 8395.0 -6051.0 L 8391.0 -5996.0 L 8382.0 -5938.0 L 8372.0 -5896.0 L 8351.0 -5831.0 L 8338.0 -5799.0 L 8304.0 -5730.0 L 8292.0 -5709.0 L 8245.0 -5640.0 L 8236.0 -5629.0 L 8171.0 -5561.0 L 8167.0 -5557.0 L 8089.0 -5491.0 L 8086.0 -5489.0 L 8003.0 -5432.0 L 7992.0 -5425.0 L 7912.0 -5374.0 L 7875.0 -5350.0 L 7820.0 -5312.0 L 7776.0 -5279.0 L 7731.0 -5242.0 L 7680.0 -5197.0 L 7643.0 -5162.0 L 7587.0 -5104.0 L 7561.0 -5074.0 L 7504.0 -5002.0 L 7487.0 -4978.0 L 7455.9 -4932.7" class="track" data-sector="9"/>
      <path d="M 7455.9 -4932.7 L 7428.0 -4892.0 L 7418.0 -4876.0 L 7358.0 -4774.0 L 7354.0 -4768.0 L 7287.0 -4659.0 L 7285.0 -4656.0 L 7209.0 -4556.0 L 7199.0 -4544.0 L 7122.0 -4462.0 L 7102.0 -4443.0 L 7024.0 -4378.0 L 6993.0 -4355.0 L 6919.0 -4306.0 L 6895.0 -4292.0 L 6807.0 -4247.0 L 6771.0 -4231.0 L 6689.0 -4201.0 L 6640.0 -4185.0 L 6565.0 -4165.0 L 6504.0 -4152.0 L 6437.0 -4142.0 L 6355.0 -4133.0 L 6295.0 -4129.0 L 6220.0 -4126.6" class="track" data-sector="10"/>
      <path d="M 6220.0 -4126.6 L 6202.0 -4126.0 L 6156.0 -4126.0 L 6049.0 -4124.0 L 6016.0 -4124.0 L 5904.0 -4120.0 L 5896.0 -4120.0 L 5773.0 -4108.0 L 5769.0 -4107.0 L 5660.0 -4087.0 L 5647.0 -4084.0 L 5555.0 -4057.0 L 5534.0 -4049.0 L 5460.0 -4018.0 L 5434.0 -4003.0 L 5376.0 -3966.0 L 5330.0 -3930.0 L 5299.0 -3901.0 L 5254.0 -3852.0 L 5233.0 -3827.0 L 5188.0 -3767.0 L 5175.0 -3748.0 L 5130.0 -3678.0 L 5123.0 -3665.0 L 5079.0 -3581.0 L 5077.0 -3576.0 L 5036.0 -3482.0 L 5034.0 -3479.0 L 4998.0 -3383.0 L 4993.0 -3371.0 L 4955.0 -3281.0 L 4944.0 -3259.0 L 4903.0 -3179.0 L 4885.0 -3148.0 L 4845.0 -3080.0 L 4823.0 -3048.0 L 4788.0 -3004.0 L 4756.0 -2969.0 L 4717.0 -2932.0 L 4664.0 -2886.0 L 4621.0 -2852.0 L 4548.0 -2802.0 L 4511.0 -2778.0 L 4423.0 -2726.0 L 4394.0 -2710.0 L 4291.0 -2654.0 L 4272.0 -2644.0 L 4177.0 -2596.0 L 4147.0 -2581.0 L 4037.0 -2528.0 L 4018.0 -2519.0 L 3893.0 -2463.0 L 3886.0 -2460.0 L 3749.0 -2403.0 L 3744.0 -2401.0 L 3740.6 -2399.7" class="track" data-sector="11"/>
      <path d="M 3740.6 -2399.7 L 3606.0 -2350.0 L 3588.0 -2343.0 L 3458.0 -2302.0 L 3425.0 -2292.0 L 3306.0 -2257.0 L 3230.0 -2235.0 L 3151.0 -2214.0 L 3060.0 -2190.0 L 3007.0 -2178.0 L 2885.0 -2150.0 L 2846.0 -2142.0 L 2707.0 -2113.0 L 2682.0 -2109.0 L 2527.0 -2081.0 L 2515.0 -2079.0 L 2317.0 -2047.0 L 2312.0 -2046.0 L 2141.0 -2021.0 L 2121.0 -2018.0 L 1981.0 -1999.0 L 1945.0 -1994.0 L 1805.0 -1978.0 L 1751.0 -1971.0 L 1626.0 -1957.0 L 1555.0 -1949.0 L 1446.0 -1937.0 L 1358.0 -1927.0 L 1264.0 -1917.0 L 1159.0 -1905.0 L 1081.0 -1897.0 L 958.0 -1883.0 L 896.0 -1877.0 L 756.0 -1860.0 L 713.0 -1856.0 L 574.0 -1840.0 L 550.0 -1838.0 L 498.5 -1832.1" class="track" data-sector="12"/>
      <path d="M 498.5 -1832.1 L 411.0 -1822.0 L 402.0 -1821.0 L 267.0 -1806.0 L 263.0 -1805.0 L 145.0 -1792.0 L 131.0 -1790.0 L 35.0 -1778.0 L 13.0 -1775.0 L -64.0 -1763.0 L -91.0 -1757.0 L -152.0 -1743.0 L -183.0 -1733.0 L -231.0 -1718.0 L -266.0 -1703.0 L -302.0 -1686.0 L -339.0 -1663.0 L -366.0 -1646.0 L -406.0 -1615.0 L -425.0 -1600.0 L -473.0 -1551.0 L -476.0 -1548.0 L -520.0 -1492.0 L -521.0 -1490.0 L -556.0 -1431.0 L -559.0 -1423.0 L -583.0 -1364.0 L -591.0 -1335.0 L -603.0 -1289.0 L -609.0 -1250.0 L -615.0 -1216.0 L -621.0 -1160.0 L -624.0 -1131.0 L -626.0 -1062.0 L -627.0 -1041.0 L -625.0 -963.0 L -625.0 -945.0 L -617.0 -808.0 L -617.0 -799.0 L -609.0 -693.0 L -608.0 -690.0 L -604.9 -623.8" class="track" data-sector="13"/>
      <path d="M -604.9 -623.8 L -603.0 -582.0 L -602.0 -569.0 L -599.0 -478.0 L -598.0 -457.0 L -596.0 -383.0 L -596.0 -356.0 L -598.0 -300.0 L -599.0 -269.0 L -604.0 -225.0 L -608.0 -191.0 L -615.0 -157.0 L -622.0 -120.0 L -629.0 -95.0 L -642.0 -58.0 L -650.0 -42.0 L -669.0 -8.0 L -677.0 1.0 L -705.0 30.0 L -711.0 35.0 L -747.0 58.0 L -750.0 60.0 L -791.0 77.0 L -792.0 77.0 L -834.0 84.0 L -838.0 84.0 L -875.0 83.0 L -883.0 81.0 L -914.0 75.0 L -925.0 70.0 L -951.0 59.0 L -963.0 51.0 L -983.0 39.0 L -992.0 32.0 L -1014.0 15.0 L -1031.0 0.0 L -1045.0 -10.0 L -1066.0 -27.0 L -1078.0 -37.0 L -1104.0 -58.0 L -1113.0 -66.0 L -1147.0 -90.0 L -1154.0 -95.0 L -1201.0 -123.0 L -1207.0 -126.0 L -1256.0 -147.0 L -1268.0 -150.0 L -1311.0 -160.0 L -1335.0 -163.0 L -1375.0 -168.0 L -1406.0 -169.0 L -1441.0 -169.0 L -1490.0 -165.0 L -1507.0 -164.0 L -1565.0 -154.0 L -1576.0 -153.0 L -1627.0 -141.0 L -1632.0 -141.0 L -1707.0 -126.0 L -1709.0 -125.0 L -1786.0 -112.0 L -1795.0 -110.0 L -1819.0 -106.3" class="track" data-sector="14"/>
      <path d="M -1819.0 -106.3 L -1873.0 -98.0 L -1891.0 -95.0 L -1964.0 -86.0 L -1990.0 -82.0 L -2051.0 -74.0 L -2097.0 -67.0 L -2131.0 -62.0 L -2180.0 -52.0 L -2204.0 -46.0 L -2253.0 -29.0 L -2268.0 -23.0 L -2313.0 3.0 L -2321.0 9.0 L -2359.0 47.0 L -2362.0 50.0 L -2391.0 99.0 L -2391.0 100.0 L -2411.0 152.0 L -2412.0 158.0 L -2424.0 205.0 L -2425.0 216.0 L -2431.0 258.0 L -2431.0 273.0 L -2432.0 311.0 L -2431.0 332.0 L -2428.0 367.0 L -2423.0 396.0 L -2418.0 428.0 L -2410.0 463.0 L -2404.0 489.0 L -2390.0 531.0 L -2383.0 553.0 L -2363.0 603.0 L -2356.0 619.0 L -2326.0 675.0 L -2321.0 686.0 L -2279.0 751.0 L -2277.0 756.0 L -2224.0 825.0 L -2222.0 827.0 L -2161.0 894.0 L -2152.0 902.0 L -2094.0 957.0 L -2069.0 977.0 L -2010.0 1022.0 L -1974.5 1045.7" class="track" data-sector="15"/>
      <path d="M -1974.5 1045.7 L -1974.0 1046.0 L -1917.0 1082.0 L -1868.0 1108.0 L -1814.0 1135.0 L -1753.0 1160.0 L -1705.0 1179.0 L -1627.0 1204.0 L -1586.0 1217.0 L -1492.0 1240.0 L -1461.0 1247.0 L -1331.0 1268.0 L -1327.0 1268.0 L -1196.0 1281.0 L -1179.0 1281.0 L -1058.0 1286.0 L -1028.0 1286.0 L -918.0 1285.0 L -848.0 1282.0 L -774.0 1278.0 L -691.0 1271.0 L -629.0 1266.0 L -528.0 1255.0 L -481.0 1250.0 L -390.0 1238.0 L -359.0 1235.0 L -272.0 1223.0" class="track" data-sector="16"/>
      <path d="M -272.0 1223.0 L -294.0 1226.0 L -295.0 1226.0 L -218.0 1216.0 L -182.0 1212.0 L -55.0 1193.0 L -32.0 1190.0 L 108.0 1167.0 L 119.0 1166.0 L 273.0 1141.0 L 304.0 1135.0 L 429.0 1115.0 L 475.0 1107.0 L 588.0 1088.0 L 650.0 1077.0 L 749.0 1061.0 L 826.0 1048.0 L 911.0 1034.0 L 1033.0 1014.0 L 1074.0 1008.0 L 1214.0 985.0 L 1240.0 981.0 L 1395.0 956.0 L 1406.0 955.0 L 1574.0 929.0 L 1578.0 928.0 L 1743.0 903.0 L 1763.0 899.0 L 1914.0 877.0 L 1949.0 871.0 L 2086.0 851.0 L 2137.0 843.0 L 2258.0 825.0 L 2325.0 814.0 L 2433.0 798.0 L 2518.0 785.0 L 2610.0 772.0 L 2708.0 757.0 L 2788.0 745.0 L 2928.0 723.0 L 2998.0 713.0 L 3168.0 687.0 L 3180.0 686.0 L 3363.0 659.0 L 3368.0 658.0 L 3547.0 632.0 L 3568.0 628.0 L 3732.0 605.0 L 3770.0 599.0 L 3919.0 580.0 L 3942.0 577.0 L 4107.0 557.0 L 4147.0 552.0 L 4297.0 534.0 L 4354.0 527.0 L 4487.0 513.0 L 4562.0 504.0 L 4679.0 491.0 L 4770.0 481.0 L 4871.0 470.0 L 4995.0 455.0 L 5051.8 448.8" class="track" data-sector="1"/>
    </g>

    <g id="marshal-lights">
      <g class="marshal-light-marker" data-light="1">
        <rect x="-341.0" y="1180.0" width="91.9" height="91.9" class="marshal-light-bg"/>
        <text x="-295.0" y="1226.0" class="marshal-light-label">1</text>
      </g>
      <g class="marshal-light-marker" data-light="2">
        <rect x="4986.0" y="405.0" width="91.9" height="91.9" class="marshal-light-bg"/>
        <text x="5032.0" y="450.9" class="marshal-light-label">2</text>
      </g>
      <g class="marshal-light-marker" data-light="3">
        <rect x="9669.8" y="-181.6" width="91.9" height="91.9" class="marshal-light-bg"/>
        <text x="9715.8" y="-135.7" class="marshal-light-label">3</text>
      </g>
      <g class="marshal-light-marker" data-light="4">
        <rect x="11917.5" y="-1773.6" width="91.9" height="91.9" class="marshal-light-bg"/>
        <text x="11963.4" y="-1727.6" class="marshal-light-label">4</text>
      </g>
      <g class="marshal-light-marker" data-light="5">
        <rect x="10737.6" y="-4503.4" width="91.9" height="91.9" class="marshal-light-bg"/>
        <text x="10783.6" y="-4457.4" class="marshal-light-label">5</text>
      </g>
      <g class="marshal-light-marker" data-light="6">
        <rect x="9496.6" y="-6543.4" width="91.9" height="91.9" class="marshal-light-bg"/>
        <text x="9542.5" y="-6497.5" class="marshal-light-label">6</text>
      </g>
      <g class="marshal-light-marker" data-light="7">
        <rect x="8682.2" y="-8868.7" width="91.9" height="91.9" class="marshal-light-bg"/>
        <text x="8728.2" y="-8822.8" class="marshal-light-label">7</text>
      </g>
      <g class="marshal-light-marker" data-light="8">
        <rect x="8038.7" y="-8029.4" width="91.9" height="91.9" class="marshal-light-bg"/>
        <text x="8084.6" y="-7983.4" class="marshal-light-label">8</text>
      </g>
      <g class="marshal-light-marker" data-light="9">
        <rect x="8301.8" y="-6617.5" width="91.9" height="91.9" class="marshal-light-bg"/>
        <text x="8347.8" y="-6571.5" class="marshal-light-label">9</text>
      </g>
      <g class="marshal-light-marker" data-light="10">
        <rect x="7378.3" y="-4932.0" width="91.9" height="91.9" class="marshal-light-bg"/>
        <text x="7424.3" y="-4886.0" class="marshal-light-label">10</text>
      </g>
      <g class="marshal-light-marker" data-light="11">
        <rect x="5829.2" y="-4163.9" width="91.9" height="91.9" class="marshal-light-bg"/>
        <text x="5875.1" y="-4118.0" class="marshal-light-label">11</text>
      </g>
      <g class="marshal-light-marker" data-light="12">
        <rect x="3654.2" y="-2430.8" width="91.9" height="91.9" class="marshal-light-bg"/>
        <text x="3700.1" y="-2384.8" class="marshal-light-label">12</text>
      </g>
      <g class="marshal-light-marker" data-light="13">
        <rect x="343.8" y="-1865.6" width="91.9" height="91.9" class="marshal-light-bg"/>
        <text x="389.8" y="-1819.6" class="marshal-light-label">13</text>
      </g>
      <g class="marshal-light-marker" data-light="14">
        <rect x="-645.6" y="-543.9" width="91.9" height="91.9" class="marshal-light-bg"/>
        <text x="-599.7" y="-497.9" class="marshal-light-label">14</text>
      </g>
      <g class="marshal-light-marker" data-light="15">
        <rect x="-2009.5" y="-132.0" width="91.9" height="91.9" class="marshal-light-bg"/>
        <text x="-1963.5" y="-86.1" class="marshal-light-label">15</text>
      </g>
      <g class="marshal-light-marker" data-light="16">
        <rect x="-1967.1" y="1033.4" width="91.9" height="91.9" class="marshal-light-bg"/>
        <text x="-1921.2" y="1079.4" class="marshal-light-label">16</text>
      </g>
    </g>

    <g id="marshal-sectors">
      <g class="marshal-sector-marker" data-sector="1" data-length="23.2">
        <polygon points="-272.0,1112.7 -367.5,1278.2 -176.4,1278.2" class="marshal-sector-bg"/>
        <text x="-272.0" y="1223.0" class="marshal-sector-label">1</text>
      </g>
      <g class="marshal-sector-marker" data-sector="2" data-length="5404.0">
        <polygon points="5051.8,338.4 4956.3,503.9 5147.3,503.9" class="marshal-sector-bg"/>
        <text x="5051.8" y="448.8" class="marshal-sector-label">2</text>
      </g>
      <g class="marshal-sector-marker" data-sector="3" data-length="10108.1">
        <polygon points="9719.1,-246.4 9623.5,-80.9 9814.6,-80.9" class="marshal-sector-bg"/>
        <text x="9719.1" y="-136.1" class="marshal-sector-label">3</text>
      </g>
      <g class="marshal-sector-marker" data-sector="4" data-length="13455.3">
        <polygon points="12004.1,-1939.2 11908.6,-1773.7 12099.7,-1773.7" class="marshal-sector-bg"/>
        <text x="12004.1" y="-1828.8" class="marshal-sector-label">4</text>
      </g>
      <g class="marshal-sector-marker" data-sector="5" data-length="16480.8">
        <polygon points="10739.5,-4637.9 10643.9,-4472.5 10835.0,-4472.5" class="marshal-sector-bg"/>
        <text x="10739.5" y="-4527.6" class="marshal-sector-label">5</text>
      </g>
      <g class="marshal-sector-marker" data-sector="6" data-length="18842.8">
        <polygon points="9510.8,-6654.4 9415.3,-6488.9 9606.3,-6488.9" class="marshal-sector-bg"/>
        <text x="9510.8" y="-6544.1" class="marshal-sector-label">6</text>
      </g>
      <g class="marshal-sector-marker" data-sector="7" data-length="21659.2">
        <polygon points="8835.6,-8855.3 8740.1,-8689.8 8931.1,-8689.8" class="marshal-sector-bg"/>
        <text x="8835.6" y="-8745.0" class="marshal-sector-label">7</text>
      </g>
      <g class="marshal-sector-marker" data-sector="8" data-length="23503.7">
        <polygon points="8081.2,-8116.7 7985.6,-7951.2 8176.7,-7951.2" class="marshal-sector-bg"/>
        <text x="8081.2" y="-8006.4" class="marshal-sector-label">8</text>
      </g>
      <g class="marshal-sector-marker" data-sector="9" data-length="25076.1">
        <polygon points="8366.6,-6570.6 8271.1,-6405.2 8462.2,-6405.2" class="marshal-sector-bg"/>
        <text x="8366.6" y="-6460.3" class="marshal-sector-label">9</text>
      </g>
      <g class="marshal-sector-marker" data-sector="10" data-length="27000.2">
        <polygon points="7455.9,-5043.0 7360.4,-4877.5 7551.4,-4877.5" class="marshal-sector-bg"/>
        <text x="7455.9" y="-4932.7" class="marshal-sector-label">10</text>
      </g>
      <g class="marshal-sector-marker" data-sector="11" data-length="28566.0">
        <polygon points="6220.0,-4236.9 6124.4,-4071.4 6315.5,-4071.4" class="marshal-sector-bg"/>
        <text x="6220.0" y="-4126.6" class="marshal-sector-label">11</text>
      </g>
      <g class="marshal-sector-marker" data-sector="12" data-length="31797.1">
        <polygon points="3740.6,-2510.1 3645.1,-2344.6 3836.1,-2344.6" class="marshal-sector-bg"/>
        <text x="3740.6" y="-2399.7" class="marshal-sector-label">12</text>
      </g>
      <g class="marshal-sector-marker" data-sector="13" data-length="35097.9">
        <polygon points="498.5,-1942.4 403.0,-1776.9 594.1,-1776.9" class="marshal-sector-bg"/>
        <text x="498.5" y="-1832.1" class="marshal-sector-label">13</text>
      </g>
      <g class="marshal-sector-marker" data-sector="14" data-length="37098.3">
        <polygon points="-604.9,-734.1 -700.5,-568.7 -509.4,-568.7" class="marshal-sector-bg"/>
        <text x="-604.9" y="-623.8" class="marshal-sector-label">14</text>
      </g>
      <g class="marshal-sector-marker" data-sector="15" data-length="38982.6">
        <polygon points="-1819.0,-216.6 -1914.5,-51.1 -1723.5,-51.1" class="marshal-sector-bg"/>
        <text x="-1819.0" y="-106.3" class="marshal-sector-label">15</text>
      </g>
      <g class="marshal-sector-marker" data-sector="16" data-length="40734.2">
        <polygon points="-1974.5,935.4 -2070.0,1100.9 -1878.9,1100.9" class="marshal-sector-bg"/>
        <text x="-1974.5" y="1045.7" class="marshal-sector-label">16</text>
      </g>
    </g>

    <g id="corners">
      <g class="corner-marker" data-corner="1" data-length="12055.4">
        <circle cx="11549.4" cy="-620.4" r="147.1" class="corner-bg"/>
        <text x="11549.4" y="-620.4" class="corner-label">1</text>
      </g>
      <g class="corner-marker" data-corner="2" data-length="12785.2">
        <circle cx="11579.6" cy="-1334.7" r="147.1" class="corner-bg"/>
        <text x="11579.6" y="-1334.7" class="corner-label">2</text>
      </g>
      <g class="corner-marker" data-corner="3" data-length="13392.3">
        <circle cx="11984.5" cy="-1769.0" r="147.1" class="corner-bg"/>
        <text x="11984.5" y="-1769.0" class="corner-label">3</text>
      </g>
      <g class="corner-marker" data-corner="4" data-length="20345.5">
        <circle cx="8811.0" cy="-7835.1" r="147.1" class="corner-bg"/>
        <text x="8811.0" y="-7835.1" class="corner-label">4</text>
      </g>
      <g class="corner-marker" data-corner="5" data-length="21048.8">
        <circle cx="9258.9" cy="-8332.7" r="147.1" class="corner-bg"/>
        <text x="9258.9" y="-8332.7" class="corner-label">5</text>
      </g>
      <g class="corner-marker" data-corner="6" data-length="22405.6">
        <circle cx="8180.2" cy="-9021.8" r="147.1" class="corner-bg"/>
        <text x="8180.2" y="-9021.8" class="corner-label">6</text>
      </g>
      <g class="corner-marker" data-corner="7" data-length="25749.6">
        <circle cx="8337.1" cy="-5797.3" r="147.1" class="corner-bg"/>
        <text x="8337.1" y="-5797.3" class="corner-label">7</text>
      </g>
      <g class="corner-marker" data-corner="8" data-length="26887.4">
        <circle cx="7521.6" cy="-5024.3" r="147.1" class="corner-bg"/>
        <text x="7521.6" y="-5024.3" class="corner-label">8</text>
      </g>
      <g class="corner-marker" data-corner="9" data-length="27637.1">
        <circle cx="7078.7" cy="-4423.6" r="147.1" class="corner-bg"/>
        <text x="7078.7" y="-4423.6" class="corner-label">9</text>
      </g>
      <g class="corner-marker" data-corner="10" data-length="29498.2">
        <circle cx="5329.7" cy="-3929.7" r="147.1" class="corner-bg"/>
        <text x="5329.7" y="-3929.7" class="corner-label">10</text>
      </g>
      <g class="corner-marker" data-corner="11" data-length="30523.3">
        <circle cx="4822.9" cy="-3047.8" r="147.1" class="corner-bg"/>
        <text x="4822.9" y="-3047.8" class="corner-label">11</text>
      </g>
      <g class="corner-marker" data-corner="12" data-length="36093.2">
        <circle cx="-443.9" cy="-1580.7" r="147.1" class="corner-bg"/>
        <text x="-443.9" y="-1580.7" class="corner-label">12</text>
      </g>
      <g class="corner-marker" data-corner="13" data-length="37877.9">
        <circle cx="-791.7" cy="77.0" r="147.1" class="corner-bg"/>
        <text x="-791.7" y="77.0" class="corner-label">13</text>
      </g>
      <g class="corner-marker" data-corner="14" data-length="38531.4">
        <circle cx="-1373.7" cy="-167.8" r="147.1" class="corner-bg"/>
        <text x="-1373.7" y="-167.8" class="corner-label">14</text>
      </g>
      <g class="corner-marker" data-corner="15" data-length="38972.7">
        <circle cx="-1809.2" cy="-107.8" r="147.1" class="corner-bg"/>
        <text x="-1809.2" y="-107.8" class="corner-label">15</text>
      </g>
      <g class="corner-marker" data-corner="16" data-length="39616.2">
        <circle cx="-2390.4" cy="98.0" r="147.1" class="corner-bg"/>
        <text x="-2390.4" y="98.0" class="corner-label">16</text>
      </g>
      <g class="corner-marker" data-corner="17" data-length="40830.4">
        <circle cx="-1892.1" cy="1095.2" r="147.1" class="corner-bg"/>
        <text x="-1892.1" y="1095.2" class="corner-label">17</text>
      </g>
    </g>

    <g id="start-finish" data-track-x="-295.0" data-track-y="1226.0" data-lap-distance="42507.0">
      <polygon points="-798.0,1582.8 -252.9,1498.6 -202.3,1825.6 -747.4,1909.9" class="checker-border"/>
      <polygon points="-798.0,1582.8 -689.0,1566.0 -672.1,1675.0 -781.1,1691.8" class="checker-black"/>
      <polygon points="-781.1,1691.8 -672.1,1675.0 -655.3,1784.0 -764.3,1800.8" class="checker-white"/>
      <polygon points="-764.3,1800.8 -655.3,1784.0 -638.4,1893.0 -747.4,1909.9" class="checker-black"/>
      <polygon points="-689.0,1566.0 -579.9,1549.1 -563.1,1658.1 -672.1,1675.0" class="checker-white"/>
      <polygon points="-672.1,1675.0 -563.1,1658.1 -546.2,1767.2 -655.3,1784.0" class="checker-black"/>
      <polygon points="-655.3,1784.0 -546.2,1767.2 -529.4,1876.2 -638.4,1893.0" class="checker-white"/>
      <polygon points="-579.9,1549.1 -470.9,1532.3 -454.1,1641.3 -563.1,1658.1" class="checker-black"/>
      <polygon points="-563.1,1658.1 -454.1,1641.3 -437.2,1750.3 -546.2,1767.2" class="checker-white"/>
      <polygon points="-546.2,1767.2 -437.2,1750.3 -420.4,1859.3 -529.4,1876.2" class="checker-black"/>
      <polygon points="-470.9,1532.3 -361.9,1515.4 -345.1,1624.4 -454.1,1641.3" class="checker-white"/>
      <polygon points="-454.1,1641.3 -345.1,1624.4 -328.2,1733.5 -437.2,1750.3" class="checker-black"/>
      <polygon points="-437.2,1750.3 -328.2,1733.5 -311.4,1842.5 -420.4,1859.3" class="checker-white"/>
      <polygon points="-361.9,1515.4 -252.9,1498.6 -236.0,1607.6 -345.1,1624.4" class="checker-black"/>
      <polygon points="-345.1,1624.4 -236.0,1607.6 -219.2,1716.6 -328.2,1733.5" class="checker-white"/>
      <polygon points="-328.2,1733.5 -219.2,1716.6 -202.3,1825.6 -311.4,1842.5" class="checker-black"/>
      <polyline points="345.6,1759.6 499.2,1549.8 289.4,1396.1" class="chevron"/>
      <polyline points="491.0,1737.1 644.6,1527.3 434.8,1373.7" class="chevron"/>
      <polyline points="636.3,1714.6 789.9,1504.8 580.2,1351.2" class="chevron"/>
    </g>

    <g id="car-markers"></g>

  </g>
</svg>
