<?xml version="1.0" encoding="utf-8"?>
<?xml-stylesheet type="text/css" href="../../css/tracks.css"?>
<svg xmlns="http://www.w3.org/2000/svg" viewBox="-479.7 237.3 960.0 467.0">
  <title>Miami</title>

  <g id="track-root" transform="translate(0, 467.05) scale(1, -1) scale(0.054012) translate(-3092.50, 1857.00) rotate(2, 3092.50, -1857.00)" data-scale="0.054012" data-rotation="2.0">

    <g id="track-outline">
      <path d="M 2803.4 -478.8 L 2866.0 -518.0 L 2992.0 -597.0 L 3030.0 -620.0 L 3099.0 -663.0 L 3391.0 -838.0 L 3393.0 -839.0 L 3458.0 -879.0 L 3508.0 -909.0 L 3694.0 -1018.0 L 3805.0 -1080.0 L 3968.0 -1165.0 L 3969.0 -1166.0 L 4114.0 -1241.0 L 4210.0 -1291.0 L 4298.0 -1338.0 L 4366.0 -1374.0 L 4451.0 -1420.0 L 4483.0 -1436.0 L 4525.0 -1457.0 L 4577.0 -1484.0 L 4617.3 -1506.1" class="track-outline" data-sector="1"/>
      <path d="M 4617.3 -1506.1 L 4690.0 -1546.0 L 4731.0 -1570.0 L 4777.0 -1601.0 L 4805.0 -1622.0 L 4861.0 -1663.0 L 4887.0 -1684.0 L 4938.0 -1731.0 L 4951.0 -1747.0 L 4971.0 -1777.0 L 4999.0 -1834.0 L 5010.0 -1881.0 L 5012.0 -1915.0 L 5011.0 -1921.0 L 5006.0 -1965.0 L 5000.0 -1997.0 L 4997.0 -2007.0 L 4993.0 -2017.0 L 4973.0 -2059.0 L 4953.0 -2089.0 L 4945.0 -2101.0 L 4929.0 -2121.0 L 4904.0 -2151.0 L 4899.0 -2158.0 L 4864.0 -2197.0 L 4855.0 -2207.0 L 4843.0 -2219.0 L 4812.0 -2250.0 L 4787.0 -2277.0 L 4738.0 -2327.0 L 4737.0 -2327.0 L 4705.0 -2360.0 L 4671.0 -2394.0 L 4660.0 -2407.0 L 4638.0 -2430.0 L 4619.0 -2452.0 L 4600.0 -2472.0 L 4576.0 -2503.0 L 4515.0 -2592.0 L 4507.0 -2604.0 L 4462.0 -2691.0 L 4456.2 -2709.7" class="track-outline" data-sector="2"/>
      <path d="M 4456.2 -2709.7 L 4447.0 -2739.0 L 4445.0 -2748.0 L 4443.0 -2745.0 L 4439.0 -2771.0 L 4421.0 -2868.0 L 4417.0 -2899.0 L 4411.0 -2947.0 L 4413.0 -2970.0 L 4414.0 -3002.0 L 4413.0 -3128.0 L 4412.0 -3162.0 L 4405.0 -3236.0 L 4391.0 -3320.0 L 4390.0 -3327.0 L 4373.0 -3400.0 L 4357.0 -3455.0 L 4356.0 -3456.0 L 4325.0 -3544.0 L 4302.0 -3591.0 L 4249.0 -3687.0 L 4245.0 -3696.0 L 4208.0 -3752.0 L 4145.0 -3820.0 L 4126.0 -3839.0 L 4111.0 -3853.0 L 4086.0 -3875.0 L 4023.0 -3927.0 L 3968.0 -3965.0 L 3933.0 -3988.0 L 3815.0 -4055.0 L 3747.0 -4090.0 L 3671.0 -4124.0 L 3631.0 -4141.0 L 3587.0 -4158.0 L 3516.0 -4182.0 L 3514.3 -4182.5" class="track-outline" data-sector="3"/>
      <path d="M 3514.3 -4182.5 L 3405.0 -4216.0 L 3337.0 -4232.0 L 3285.0 -4243.0 L 3169.0 -4261.0 L 3078.0 -4273.0 L 2952.0 -4282.0 L 2857.0 -4281.0 L 2854.0 -4280.0 L 2644.0 -4263.0 L 2558.0 -4253.0 L 2455.0 -4232.0 L 2412.0 -4221.0 L 2353.0 -4205.0 L 2266.0 -4177.0 L 2020.0 -4070.0 L 2004.0 -4062.0 L 1940.0 -4029.0 L 1893.0 -4002.0 L 1862.0 -3984.0 L 1693.0 -3882.0 L 1648.8 -3853.7" class="track-outline" data-sector="4"/>
      <path d="M 1648.8 -3853.7 L 1643.0 -3850.0 L 1495.0 -3756.0 L 1432.0 -3716.0 L 1370.0 -3677.0 L 1281.0 -3620.0 L 1244.0 -3596.0 L 1117.0 -3515.0 L 1103.0 -3506.0 L 925.0 -3392.0 L 922.0 -3390.0 L 746.0 -3277.0 L 638.0 -3209.0 L 573.0 -3168.0 L 546.0 -3151.0 L 448.0 -3089.0 L 335.0 -3018.0 L 215.0 -2944.0 L 148.0 -2902.0 L 75.0 -2857.0 L -20.0 -2799.0 L -45.0 -2783.0 L -128.3 -2738.8" class="track-outline" data-sector="5"/>
      <path d="M -128.3 -2738.8 L -207.0 -2697.0 L -209.0 -2695.0 L -290.0 -2662.0 L -324.0 -2648.0 L -444.0 -2616.0 L -610.0 -2599.0 L -646.0 -2596.0 L -783.0 -2617.0 L -799.0 -2622.0 L -862.0 -2638.0 L -917.0 -2659.0 L -1076.0 -2736.0 L -1111.0 -2754.0 L -1164.0 -2793.0 L -1170.0 -2798.0 L -1230.0 -2846.0 L -1319.0 -2917.0 L -1396.0 -2978.0 L -1514.0 -3063.0 L -1636.0 -3122.0 L -1648.0 -3127.0 L -1792.0 -3164.0 L -1871.0 -3176.0 L -1985.0 -3179.0 L -2048.0 -3171.0 L -2072.0 -3166.0 L -2117.0 -3154.0 L -2180.0 -3132.0 L -2190.0 -3127.0 L -2323.0 -3049.0 L -2331.0 -3044.0 L -2393.0 -2994.0 L -2401.0 -2988.0 L -2521.0 -2868.0 L -2540.0 -2849.0 L -2653.0 -2730.0 L -2683.0 -2700.0 L -2816.0 -2581.0 L -2817.0 -2579.0 L -2893.0 -2529.0 L -2941.0 -2503.0 L -3045.0 -2459.0 L -3081.0 -2447.0 L -3140.0 -2430.0 L -3170.9 -2427.4" class="track-outline" data-sector="6"/>
      <path d="M -3170.9 -2427.4 L -3282.0 -2418.0 L -3311.0 -2420.0 L -3382.0 -2428.0 L -3462.0 -2445.0 L -3535.0 -2465.0 L -3593.0 -2483.0 L -3602.0 -2486.0 L -3723.0 -2532.0 L -3732.0 -2536.0 L -3826.0 -2581.0 L -3847.0 -2592.0 L -3909.0 -2631.0 L -3919.0 -2637.0 L -3983.0 -2686.0 L -4005.0 -2704.0 L -4067.0 -2763.0 L -4068.0 -2764.0 L -4132.0 -2838.0 L -4149.0 -2860.0 L -4188.0 -2916.0 L -4188.0 -2917.0 L -4229.0 -2983.0 L -4233.0 -2991.0 L -4268.0 -3059.0 L -4278.0 -3080.0 L -4294.0 -3118.0 L -4339.0 -3254.0 L -4347.0 -3279.0 L -4359.0 -3324.0 L -4363.0 -3367.0 L -4368.0 -3455.0 L -4369.0 -3470.0 L -4367.0 -3532.0 L -4366.0 -3532.0 L -4358.0 -3597.0 L -4345.0 -3657.0 L -4328.0 -3703.0 L -4283.0 -3797.0 L -4264.0 -3824.0 L -4224.0 -3866.0 L -4219.0 -3870.0 L -4181.0 -3898.0 L -4149.7 -3912.3" class="track-outline" data-sector="7"/>
      <path d="M -4149.7 -3912.3 L -4133.0 -3920.0 L -4123.0 -3925.0 L -4064.0 -3939.0 L -4032.0 -3940.0 L -3987.0 -3937.0 L -3925.0 -3930.0 L -3897.0 -3925.0 L -3858.0 -3915.0 L -3830.0 -3908.0 L -3757.0 -3891.0 L -3690.0 -3877.0 L -3662.0 -3871.0 L -3594.0 -3861.0 L -3518.0 -3852.0 L -3474.0 -3849.0 L -3348.0 -3844.0 L -3326.0 -3845.0 L -3157.0 -3854.0 L -3154.0 -3854.0 L -3096.0 -3855.0 L -2994.0 -3878.0 L -2785.0 -3940.0 L -2753.0 -3951.0 L -2644.0 -3987.0 L -2633.0 -3990.0 L -2553.3 -4015.7" class="track-outline" data-sector="8"/>
      <path d="M -2553.3 -4015.7 L -2537.0 -4021.0 L -2527.0 -4025.0 L -2427.0 -4057.0 L -2346.0 -4082.0 L -2114.0 -4143.0 L -2102.0 -4147.0 L -1994.0 -4166.0 L -1951.0 -4169.0 L -1787.0 -4174.0 L -1772.0 -4174.0 L -1619.0 -4167.0 L -1392.0 -4149.0 L -1388.0 -4148.0 L -1289.0 -4140.0 L -1234.0 -4134.0 L -1190.0 -4131.0 L -964.0 -4114.0 L -910.0 -4110.0 L -804.0 -4106.0 L -763.0 -4106.0 L -567.0 -4102.0 L -550.0 -4101.0 L -468.0 -4100.0 L -436.0 -4099.0 L -330.0 -4099.0 L -219.0 -4097.0 L -114.0 -4096.0 L -65.0 -4095.0 L 73.0 -4093.0 L 90.0 -4092.0 L 167.0 -4092.0 L 279.0 -4090.0 L 325.0 -4090.0 L 501.0 -4088.0 L 526.5 -4088.2" class="track-outline" data-sector="9"/>
      <path d="M 526.5 -4088.2 L 610.0 -4089.0 L 753.0 -4094.0 L 755.0 -4094.0 L 912.0 -4108.0 L 1006.0 -4122.0 L 1009.0 -4122.0 L 1289.0 -4191.0 L 1292.0 -4191.0 L 1494.0 -4258.0 L 1600.0 -4297.0 L 1658.0 -4318.0 L 1723.0 -4341.0 L 1915.0 -4408.0 L 1952.0 -4421.0 L 2048.0 -4452.0 L 2077.0 -4462.0 L 2288.0 -4528.0 L 2363.0 -4552.0 L 2500.0 -4593.0 L 2600.0 -4621.0 L 2613.0 -4625.0 L 2728.0 -4655.0 L 2792.0 -4671.0 L 2925.0 -4701.0 L 2944.0 -4705.0 L 3127.0 -4737.0 L 3291.0 -4763.0 L 3380.0 -4775.0 L 3467.0 -4781.0 L 3481.0 -4782.0 L 3576.0 -4788.0 L 3649.0 -4791.0 L 3777.0 -4794.0 L 3954.0 -4792.0 L 3970.0 -4792.0 L 4134.0 -4784.0 L 4251.0 -4777.0 L 4301.0 -4773.0 L 4350.0 -4768.6" class="track-outline" data-sector="10"/>
      <path d="M 4350.0 -4768.6 L 4379.0 -4766.0 L 4512.0 -4752.0 L 4582.0 -4744.0 L 4718.0 -4725.0 L 4749.0 -4721.0 L 4961.0 -4681.0 L 4994.0 -4675.0 L 5168.0 -4634.0 L 5307.0 -4595.0 L 5323.0 -4591.0 L 5458.0 -4550.0 L 5546.0 -4523.0 L 5683.0 -4477.0 L 5854.0 -4420.0 L 5857.0 -4418.0 L 6127.0 -4328.0 L 6276.0 -4277.0 L 6436.0 -4223.0 L 6493.0 -4203.0 L 6832.0 -4088.0 L 6834.0 -4087.0 L 6968.0 -4041.0 L 7072.0 -4003.0 L 7239.0 -3938.0 L 7392.0 -3880.0 L 7485.0 -3842.0 L 7578.0 -3803.0 L 7580.0 -3801.0 L 7729.0 -3737.0 L 7793.0 -3708.0 L 7969.0 -3629.0 L 8056.0 -3590.0 L 8165.0 -3539.0 L 8189.0 -3528.0 L 8319.0 -3465.0 L 8420.0 -3417.0 L 8551.0 -3353.0 L 8661.0 -3300.0 L 8710.0 -3276.0 L 8794.0 -3232.0 L 8821.0 -3219.0 L 8872.1 -3191.8" class="track-outline" data-sector="11"/>
      <path d="M 8872.1 -3191.8 L 8962.0 -3144.0 L 9057.0 -3093.0 L 9131.0 -3050.0 L 9188.0 -3016.0 L 9209.0 -3004.0 L 9282.0 -2959.0 L 9292.0 -2953.0 L 9396.0 -2881.0 L 9407.0 -2873.0 L 9459.0 -2830.0 L 9469.0 -2822.0 L 9532.0 -2763.0 L 9552.0 -2744.0 L 9594.0 -2690.0 L 9598.0 -2683.0 L 9629.0 -2636.0 L 9632.0 -2629.0 L 9657.0 -2575.0 L 9661.0 -2566.0 L 9673.0 -2521.0 L 9678.0 -2486.0 L 9677.0 -2460.0 L 9674.0 -2438.0 L 9667.0 -2414.0 L 9652.0 -2385.0 L 9614.0 -2330.0 L 9603.0 -2315.0 L 9579.0 -2287.0 L 9567.0 -2276.0 L 9560.0 -2269.0 L 9532.0 -2244.0 L 9517.0 -2230.0 L 9505.7 -2220.3" class="track-outline" data-sector="12"/>
      <path d="M 9505.7 -2220.3 L 9496.0 -2212.0 L 9477.0 -2196.0 L 9436.0 -2162.0 L 9418.0 -2148.0 L 9383.0 -2119.0 L 9340.0 -2083.0 L 9339.0 -2082.0 L 9278.0 -2024.0 L 9277.0 -2023.0 L 9230.0 -1970.0 L 9209.0 -1942.0 L 9178.0 -1893.0 L 9157.0 -1853.0 L 9153.0 -1844.0 L 9133.0 -1789.0 L 9129.0 -1770.0 L 9121.0 -1709.0 L 9120.0 -1678.0 L 9121.0 -1636.0 L 9131.0 -1583.0 L 9133.0 -1570.0 L 9141.0 -1542.0 L 9149.0 -1523.0 L 9163.0 -1488.0 L 9173.0 -1468.0 L 9184.0 -1446.0 L 9205.0 -1412.0 L 9230.0 -1378.0 L 9245.0 -1362.0 L 9298.0 -1311.0 L 9309.0 -1301.0 L 9359.0 -1270.0 L 9422.0 -1241.0 L 9439.0 -1235.0 L 9480.0 -1219.0 L 9496.0 -1218.0 L 9508.0 -1217.0 L 9556.0 -1209.0 L 9563.0 -1208.0 L 9641.0 -1202.0 L 9671.0 -1201.0 L 9733.0 -1199.0 L 9794.5 -1197.4" class="track-outline" data-sector="13"/>
      <path d="M 9794.5 -1197.4 L 9811.0 -1197.0 L 9860.0 -1196.0 L 9931.0 -1193.0 L 9980.0 -1186.0 L 10022.0 -1178.0 L 10061.0 -1166.0 L 10179.0 -1114.0 L 10215.0 -1095.0 L 10243.0 -1072.0 L 10266.0 -1052.0 L 10319.0 -1008.0 L 10320.0 -1006.0 L 10368.0 -956.0 L 10403.0 -911.0 L 10458.0 -838.0 L 10491.0 -787.0 L 10507.0 -756.0 L 10508.0 -754.0 L 10510.0 -746.0 L 10513.0 -740.0 L 10523.0 -717.0 L 10528.0 -704.0 L 10546.0 -643.0 L 10549.0 -617.0 L 10550.9 -585.5" class="track-outline" data-sector="14"/>
      <path d="M 10550.9 -585.5 L 10553.0 -551.0 L 10554.0 -538.0 L 10551.0 -507.0 L 10546.0 -496.0 L 10530.0 -469.0 L 10504.0 -433.0 L 10503.0 -432.0 L 10439.0 -383.0 L 10426.0 -369.0 L 10407.0 -335.0 L 10398.0 -302.0 L 10396.0 -287.0 L 10396.0 -265.0 L 10399.0 -246.0 L 10400.0 -236.0 L 10407.0 -188.0 L 10411.0 -162.0 L 10414.0 -137.0 L 10421.0 -103.0 L 10428.0 -73.0 L 10432.0 -54.0 L 10443.0 -3.0 L 10449.0 25.0 L 10453.0 45.0 L 10457.0 65.0 L 10463.0 96.0 L 10477.0 161.0 L 10485.0 197.0 L 10490.0 228.0 L 10496.0 266.0 L 10501.0 295.0 L 10507.0 340.0 L 10509.0 357.0 L 10510.0 376.0 L 10510.0 385.0" class="track-outline" data-sector="15"/>
      <path d="M 10510.0 385.0 L 10510.0 419.0 L 10504.0 467.0 L 10503.0 475.0 L 10491.0 515.0 L 10487.0 523.0 L 10469.0 554.0 L 10452.0 574.0 L 10440.0 585.0 L 10402.0 610.0 L 10391.0 618.0 L 10366.0 630.0 L 10350.0 636.0 L 10317.0 646.0 L 10308.0 648.0 L 10259.0 659.0 L 10249.0 660.0 L 10198.0 667.0 L 10191.0 667.0 L 10145.0 670.0 L 10130.0 671.0 L 10050.0 670.0 L 10024.0 668.0 L 9968.0 666.0 L 9865.0 665.0 L 9847.0 665.0 L 9803.0 666.0 L 9783.0 667.0 L 9650.0 668.0 L 9606.0 668.0 L 9540.0 670.0 L 9462.0 674.0 L 9396.0 678.0 L 9371.0 678.0 L 9276.0 681.0 L 9149.0 683.0 L 9146.0 683.0 L 8971.0 685.0 L 8957.0 685.0 L 8857.0 686.0 L 8835.0 686.0 L 8696.0 687.0 L 8606.0 689.0 L 8499.0 690.0 L 8393.0 692.0 L 8389.0 692.0 L 8148.0 695.0 L 8099.0 695.0 L 8045.0 696.0 L 8029.0 697.0 L 7894.0 699.0 L 7891.0 699.0 L 7723.0 701.0 L 7685.0 701.0 L 7531.0 703.0 L 7436.0 705.0 L 7406.0 705.0 L 7250.0 708.0 L 7247.0 708.0 L 7126.0 710.0 L 7089.0 710.0 L 6884.0 715.0 L 6771.0 718.0 L 6678.0 722.0 L 6566.0 726.0 L 6491.0 730.0 L 6268.0 740.0 L 6255.0 741.0 L 6093.0 748.0 L 6076.0 748.0 L 5977.0 751.0 L 5727.0 755.0 L 5705.0 755.0 L 5599.0 756.0 L 5570.0 757.0 L 5461.0 758.0 L 5395.0 760.0 L 5323.0 762.0 L 5226.0 766.0 L 5191.0 767.0 L 5073.0 773.0 L 5069.0 773.0 L 4830.0 785.0 L 4787.0 788.0 L 4713.0 792.0 L 4709.0 792.0 L 4569.0 799.0 L 4556.0 800.0 L 4409.0 808.0 L 4381.0 810.0 L 4145.0 822.0 L 4108.0 823.0 L 3993.0 830.0 L 3973.0 831.0 L 3806.0 840.0 L 3803.0 840.0 L 3630.0 850.0 L 3600.0 852.0 L 3467.0 859.0 L 3411.0 862.0 L 3288.0 868.0 L 3168.0 875.0 L 2926.0 885.0 L 2769.0 891.0 L 2699.0 893.0 L 2592.0 896.0 L 2558.0 896.0 L 2398.0 900.0 L 2305.0 901.0 L 2203.0 903.0 L 2163.0 903.0 L 2080.0 905.1" class="track-outline" data-sector="16"/>
      <path d="M 2080.0 905.1 L 2043.0 906.0 L 1951.0 907.0 L 1748.0 912.0 L 1591.0 914.0 L 1533.0 916.0 L 1438.0 917.0 L 1229.0 921.0 L 1200.0 922.0 L 1050.0 924.0 L 1029.0 925.0 L 800.0 929.0 L 721.0 931.0 L 585.0 933.0 L 521.0 935.0 L 367.0 938.0 L 244.0 940.0 L 81.0 943.0 L 30.0 944.0 L -161.0 948.0 L -180.0 948.0 L -326.0 950.0 L -417.0 952.0 L -585.0 956.0 L -618.0 957.0 L -710.0 960.0 L -852.0 966.0 L -1002.0 976.0 L -1070.0 981.0 L -1166.0 991.0 L -1424.0 1017.0 L -1440.0 1019.0 L -1596.0 1034.0 L -1673.0 1042.0 L -1681.0 1043.0 L -1754.0 1050.0 L -1818.0 1056.0 L -1844.0 1059.0 L -1934.0 1068.0 L -1935.0 1068.0 L -2016.0 1074.0 L -2061.0 1077.0 L -2069.0 1078.0 L -2122.0 1079.0 L -2156.0 1080.0 L -2219.0 1079.0 L -2236.0 1077.7" class="track-outline" data-sector="17"/>
      <path d="M -2236.0 1077.7 L -2273.0 1075.0 L -2297.0 1073.0 L -2322.0 1069.0 L -2384.0 1060.0 L -2410.0 1054.0 L -2431.0 1049.0 L -2520.0 1009.0 L -2520.0 1008.0 L -2540.0 992.0 L -2545.0 987.0 L -2571.0 957.0 L -2578.0 946.0 L -2590.0 925.0 L -2610.0 861.0 L -2610.0 860.0 L -2613.0 823.0 L -2611.0 803.0 L -2610.0 802.0 L -2605.0 769.0 L -2603.0 760.0 L -2595.0 735.0 L -2592.0 730.0 L -2573.0 689.0 L -2572.0 686.0 L -2561.0 667.0 L -2551.0 654.0 L -2548.0 650.0 L -2508.0 604.0 L -2488.0 583.0 L -2474.0 570.0 L -2434.0 537.0 L -2429.0 533.0 L -2394.0 506.0 L -2393.0 505.0 L -2344.0 472.0 L -2335.0 467.0 L -2289.0 443.0 L -2250.0 423.0 L -2201.0 398.0 L -2199.0 397.0 L -2147.0 371.0 L -2079.0 336.0 L -2069.0 331.0 L -1997.0 293.0 L -1977.0 283.0 L -1938.0 263.0 L -1921.0 256.0 L -1894.2 246.2" class="track-outline" data-sector="18"/>
      <path d="M -1894.2 246.2 L -1736.0 188.0 L -1734.0 187.0 L -1682.0 174.0 L -1647.0 172.0 L -1582.0 167.0 L -1562.0 166.0 L -1493.0 165.0 L -1405.0 170.0 L -1386.0 172.0 L -1264.0 190.0 L -1250.0 192.0 L -1161.0 215.0 L -1119.0 229.0 L -1072.0 246.0 L -1029.0 263.0 L -926.0 304.0 L -913.0 309.0 L -832.0 342.0 L -754.0 374.0 L -606.0 433.0 L -603.0 434.0 L -378.0 518.0 L -317.0 538.0 L -250.0 556.0 L -96.0 589.0 L -46.0 599.0 L -22.5 602.4" class="track-outline" data-sector="19"/>
      <path d="M -22.5 602.4 L -18.0 603.0 L 83.0 614.0 L 109.0 615.0 L 238.0 622.0 L 253.0 622.0 L 392.0 625.0 L 408.0 625.0 L 605.0 611.0 L 677.0 604.0 L 767.0 590.0 L 827.0 572.0 L 848.0 567.0 L 976.0 530.0 L 1020.0 514.0 L 1170.0 454.0 L 1304.0 400.0 L 1333.0 390.0 L 1469.0 339.0 L 1497.0 329.0 L 1619.0 268.0 L 1737.0 194.0 L 1779.0 166.0 L 1817.0 142.0 L 1831.0 132.0 L 1800.0 152.0 L 1841.0 126.0 L 1972.0 43.0 L 2080.0 -24.0 L 2110.0 -43.0 L 2196.0 -97.0 L 2278.0 -149.0 L 2346.0 -192.0 L 2461.0 -264.0 L 2569.0 -332.0 L 2656.0 -386.0 L 2737.0 -437.0 L 2751.0 -446.0 L 2803.4 -478.8" class="track-outline" data-sector="20"/>
    </g>

    <g id="track-sectors">
      <path d="M 2803.4 -478.8 L 2866.0 -518.0 L 2992.0 -597.0 L 3030.0 -620.0 L 3099.0 -663.0 L 3391.0 -838.0 L 3393.0 -839.0 L 3458.0 -879.0 L 3508.0 -909.0 L 3694.0 -1018.0 L 3805.0 -1080.0 L 3968.0 -1165.0 L 3969.0 -1166.0 L 4114.0 -1241.0 L 4210.0 -1291.0 L 4298.0 -1338.0 L 4366.0 -1374.0 L 4451.0 -1420.0 L 4483.0 -1436.0 L 4525.0 -1457.0 L 4577.0 -1484.0 L 4617.3 -1506.1" class="track" data-sector="1"/>
      <path d="M 4617.3 -1506.1 L 4690.0 -1546.0 L 4731.0 -1570.0 L 4777.0 -1601.0 L 4805.0 -1622.0 L 4861.0 -1663.0 L 4887.0 -1684.0 L 4938.0 -1731.0 L 4951.0 -1747.0 L 4971.0 -1777.0 L 4999.0 -1834.0 L 5010.0 -1881.0 L 5012.0 -1915.0 L 5011.0 -1921.0 L 5006.0 -1965.0 L 5000.0 -1997.0 L 4997.0 -2007.0 L 4993.0 -2017.0 L 4973.0 -2059.0 L 4953.0 -2089.0 L 4945.0 -2101.0 L 4929.0 -2121.0 L 4904.0 -2151.0 L 4899.0 -2158.0 L 4864.0 -2197.0 L 4855.0 -2207.0 L 4843.0 -2219.0 L 4812.0 -2250.0 L 4787.0 -2277.0 L 4738.0 -2327.0 L 4737.0 -2327.0 L 4705.0 -2360.0 L 4671.0 -2394.0 L 4660.0 -2407.0 L 4638.0 -2430.0 L 4619.0 -2452.0 L 4600.0 -2472.0 L 4576.0 -2503.0 L 4515.0 -2592.0 L 4507.0 -2604.0 L 4462.0 -2691.0 L 4456.2 -2709.7" class="track" data-sector="2"/>
      <path d="M 4456.2 -2709.7 L 4447.0 -2739.0 L 4445.0 -2748.0 L 4443.0 -2745.0 L 4439.0 -2771.0 L 4421.0 -2868.0 L 4417.0 -2899.0 L 4411.0 -2947.0 L 4413.0 -2970.0 L 4414.0 -3002.0 L 4413.0 -3128.0 L 4412.0 -3162.0 L 4405.0 -3236.0 L 4391.0 -3320.0 L 4390.0 -3327.0 L 4373.0 -3400.0 L 4357.0 -3455.0 L 4356.0 -3456.0 L 4325.0 -3544.0 L 4302.0 -3591.0 L 4249.0 -3687.0 L 4245.0 -3696.0 L 4208.0 -3752.0 L 4145.0 -3820.0 L 4126.0 -3839.0 L 4111.0 -3853.0 L 4086.0 -3875.0 L 4023.0 -3927.0 L 3968.0 -3965.0 L 3933.0 -3988.0 L 3815.0 -4055.0 L 3747.0 -4090.0 L 3671.0 -4124.0 L 3631.0 -4141.0 L 3587.0 -4158.0 L 3516.0 -4182.0 L 3514.3 -4182.5" class="track" data-sector="3"/>
      <path d="M 3514.3 -4182.5 L 3405.0 -4216.0 L 3337.0 -4232.0 L 3285.0 -4243.0 L 3169.0 -4261.0 L 3078.0 -4273.0 L 2952.0 -4282.0 L 2857.0 -4281.0 L 2854.0 -4280.0 L 2644.0 -4263.0 L 2558.0 -4253.0 L 2455.0 -4232.0 L 2412.0 -4221.0 L 2353.0 -4205.0 L 2266.0 -4177.0 L 2020.0 -4070.0 L 2004.0 -4062.0 L 1940.0 -4029.0 L 1893.0 -4002.0 L 1862.0 -3984.0 L 1693.0 -3882.0 L 1648.8 -3853.7" class="track" data-sector="4"/>
      <path d="M 1648.8 -3853.7 L 1643.0 -3850.0 L 1495.0 -3756.0 L 1432.0 -3716.0 L 1370.0 -3677.0 L 1281.0 -3620.0 L 1244.0 -3596.0 L 1117.0 -3515.0 L 1103.0 -3506.0 L 925.0 -3392.0 L 922.0 -3390.0 L 746.0 -3277.0 L 638.0 -3209.0 L 573.0 -3168.0 L 546.0 -3151.0 L 448.0 -3089.0 L 335.0 -3018.0 L 215.0 -2944.0 L 148.0 -2902.0 L 75.0 -2857.0 L -20.0 -2799.0 L -45.0 -2783.0 L -128.3 -2738.8" class="track" data-sector="5"/>
      <path d="M -128.3 -2738.8 L -207.0 -2697.0 L -209.0 -2695.0 L -290.0 -2662.0 L -324.0 -2648.0 L -444.0 -2616.0 L -610.0 -2599.0 L -646.0 -2596.0 L -783.0 -2617.0 L -799.0 -2622.0 L -862.0 -2638.0 L -917.0 -2659.0 L -1076.0 -2736.0 L -1111.0 -2754.0 L -1164.0 -2793.0 L -1170.0 -2798.0 L -1230.0 -2846.0 L -1319.0 -2917.0 L -1396.0 -2978.0 L -1514.0 -3063.0 L -1636.0 -3122.0 L -1648.0 -3127.0 L -1792.0 -3164.0 L -1871.0 -3176.0 L -1985.0 -3179.0 L -2048.0 -3171.0 L -2072.0 -3166.0 L -2117.0 -3154.0 L -2180.0 -3132.0 L -2190.0 -3127.0 L -2323.0 -3049.0 L -2331.0 -3044.0 L -2393.0 -2994.0 L -2401.0 -2988.0 L -2521.0 -2868.0 L -2540.0 -2849.0 L -2653.0 -2730.0 L -2683.0 -2700.0 L -2816.0 -2581.0 L -2817.0 -2579.0 L -2893.0 -2529.0 L -2941.0 -2503.0 L -3045.0 -2459.0 L -3081.0 -2447.0 L -3140.0 -2430.0 L -3170.9 -2427.4" class="track" data-sector="6"/>
      <path d="M -3170.9 -2427.4 L -3282.0 -2418.0 L -3311.0 -2420.0 L -3382.0 -2428.0 L -3462.0 -2445.0 L -3535.0 -2465.0 L -3593.0 -2483.0 L -3602.0 -2486.0 L -3723.0 -2532.0 L -3732.0 -2536.0 L -3826.0 -2581.0 L -3847.0 -2592.0 L -3909.0 -2631.0 L -3919.0 -2637.0 L -3983.0 -2686.0 L -4005.0 -2704.0 L -4067.0 -2763.0 L -4068.0 -2764.0 L -4132.0 -2838.0 L -4149.0 -2860.0 L -4188.0 -2916.0 L -4188.0 -2917.0 L -4229.0 -2983.0 L -4233.0 -2991.0 L -4268.0 -3059.0 L -4278.0 -3080.0 L -4294.0 -3118.0 L -4339.0 -3254.0 L -4347.0 -3279.0 L -4359.0 -3324.0 L -4363.0 -3367.0 L -4368.0 -3455.0 L -4369.0 -3470.0 L -4367.0 -3532.0 L -4366.0 -3532.0 L -4358.0 -3597.0 L -4345.0 -3657.0 L -4328.0 -3703.0 L -4283.0 -3797.0 L -4264.0 -3824.0 L -4224.0 -3866.0 L -4219.0 -3870.0 L -4181.0 -3898.0 L -4149.7 -3912.3" class="track" data-sector="7"/>
      <path d="M -4149.7 -3912.3 L -4133.0 -3920.0 L -4123.0 -3925.0 L -4064.0 -3939.0 L -4032.0 -3940.0 L -3987.0 -3937.0 L -3925.0 -3930.0 L -3897.0 -3925.0 L -3858.0 -3915.0 L -3830.0 -3908.0 L -3757.0 -3891.0 L -3690.0 -3877.0 L -3662.0 -3871.0 L -3594.0 -3861.0 L -3518.0 -3852.0 L -3474.0 -3849.0 L -3348.0 -3844.0 L -3326.0 -3845.0 L -3157.0 -3854.0 L -3154.0 -3854.0 L -3096.0 -3855.0 L -2994.0 -3878.0 L -2785.0 -3940.0 L -2753.0 -3951.0 L -2644.0 -3987.0 L -2633.0 -3990.0 L -2553.3 -4015.7" class="track" data-sector="8"/>
      <path d="M -2553.3 -4015.7 L -2537.0 -4021.0 L -2527.0 -4025.0 L -2427.0 -4057.0 L -2346.0 -4082.0 L -2114.0 -4143.0 L -2102.0 -4147.0 L -1994.0 -4166.0 L -1951.0 -4169.0 L -1787.0 -4174.0 L -1772.0 -4174.0 L -1619.0 -4167.0 L -1392.0 -4149.0 L -1388.0 -4148.0 L -1289.0 -4140.0 L -1234.0 -4134.0 L -1190.0 -4131.0 L -964.0 -4114.0 L -910.0 -4110.0 L -804.0 -4106.0 L -763.0 -4106.0 L -567.0 -4102.0 L -550.0 -4101.0 L -468.0 -4100.0 L -436.0 -4099.0 L -330.0 -4099.0 L -219.0 -4097.0 L -114.0 -4096.0 L -65.0 -4095.0 L 73.0 -4093.0 L 90.0 -4092.0 L 167.0 -4092.0 L 279.0 -4090.0 L 325.0 -4090.0 L 501.0 -4088.0 L 526.5 -4088.2" class="track" data-sector="9"/>
      <path d="M 526.5 -4088.2 L 610.0 -4089.0 L 753.0 -4094.0 L 755.0 -4094.0 L 912.0 -4108.0 L 1006.0 -4122.0 L 1009.0 -4122.0 L 1289.0 -4191.0 L 1292.0 -4191.0 L 1494.0 -4258.0 L 1600.0 -4297.0 L 1658.0 -4318.0 L 1723.0 -4341.0 L 1915.0 -4408.0 L 1952.0 -4421.0 L 2048.0 -4452.0 L 2077.0 -4462.0 L 2288.0 -4528.0 L 2363.0 -4552.0 L 2500.0 -4593.0 L 2600.0 -4621.0 L 2613.0 -4625.0 L 2728.0 -4655.0 L 2792.0 -4671.0 L 2925.0 -4701.0 L 2944.0 -4705.0 L 3127.0 -4737.0 L 3291.0 -4763.0 L 3380.0 -4775.0 L 3467.0 -4781.0 L 3481.0 -4782.0 L 3576.0 -4788.0 L 3649.0 -4791.0 L 3777.0 -4794.0 L 3954.0 -4792.0 L 3970.0 -4792.0 L 4134.0 -4784.0 L 4251.0 -4777.0 L 4301.0 -4773.0 L 4350.0 -4768.6" class="track" data-sector="10"/>
      <path d="M 4350.0 -4768.6 L 4379.0 -4766.0 L 4512.0 -4752.0 L 4582.0 -4744.0 L 4718.0 -4725.0 L 4749.0 -4721.0 L 4961.0 -4681.0 L 4994.0 -4675.0 L 5168.0 -4634.0 L 5307.0 -4595.0 L 5323.0 -4591.0 L 5458.0 -4550.0 L 5546.0 -4523.0 L 5683.0 -4477.0 L 5854.0 -4420.0 L 5857.0 -4418.0 L 6127.0 -4328.0 L 6276.0 -4277.0 L 6436.0 -4223.0 L 6493.0 -4203.0 L 6832.0 -4088.0 L 6834.0 -4087.0 L 6968.0 -4041.0 L 7072.0 -4003.0 L 7239.0 -3938.0 L 7392.0 -3880.0 L 7485.0 -3842.0 L 7578.0 -3803.0 L 7580.0 -3801.0 L 7729.0 -3737.0 L 7793.0 -3708.0 L 7969.0 -3629.0 L 8056.0 -3590.0 L 8165.0 -3539.0 L 8189.0 -3528.0 L 8319.0 -3465.0 L 8420.0 -3417.0 L 8551.0 -3353.0 L 8661.0 -3300.0 L 8710.0 -3276.0 L 8794.0 -3232.0 L 8821.0 -3219.0 L 8872.1 -3191.8" class="track" data-sector="11"/>
      <path d="M 8872.1 -3191.8 L 8962.0 -3144.0 L 9057.0 -3093.0 L 9131.0 -3050.0 L 9188.0 -3016.0 L 9209.0 -3004.0 L 9282.0 -2959.0 L 9292.0 -2953.0 L 9396.0 -2881.0 L 9407.0 -2873.0 L 9459.0 -2830.0 L 9469.0 -2822.0 L 9532.0 -2763.0 L 9552.0 -2744.0 L 9594.0 -2690.0 L 9598.0 -2683.0 L 9629.0 -2636.0 L 9632.0 -2629.0 L 9657.0 -2575.0 L 9661.0 -2566.0 L 9673.0 -2521.0 L 9678.0 -2486.0 L 9677.0 -2460.0 L 9674.0 -2438.0 L 9667.0 -2414.0 L 9652.0 -2385.0 L 9614.0 -2330.0 L 9603.0 -2315.0 L 9579.0 -2287.0 L 9567.0 -2276.0 L 9560.0 -2269.0 L 9532.0 -2244.0 L 9517.0 -2230.0 L 9505.7 -2220.3" class="track" data-sector="12"/>
      <path d="M 9505.7 -2220.3 L 9496.0 -2212.0 L 9477.0 -2196.0 L 9436.0 -2162.0 L 9418.0 -2148.0 L 9383.0 -2119.0 L 9340.0 -2083.0 L 9339.0 -2082.0 L 9278.0 -2024.0 L 9277.0 -2023.0 L 9230.0 -1970.0 L 9209.0 -1942.0 L 9178.0 -1893.0 L 9157.0 -1853.0 L 9153.0 -1844.0 L 9133.0 -1789.0 L 9129.0 -1770.0 L 9121.0 -1709.0 L 9120.0 -1678.0 L 9121.0 -1636.0 L 9131.0 -1583.0 L 9133.0 -1570.0 L 9141.0 -1542.0 L 9149.0 -1523.0 L 9163.0 -1488.0 L 9173.0 -1468.0 L 9184.0 -1446.0 L 9205.0 -1412.0 L 9230.0 -1378.0 L 9245.0 -1362.0 L 9298.0 -1311.0 L 9309.0 -1301.0 L 9359.0 -1270.0 L 9422.0 -1241.0 L 9439.0 -1235.0 L 9480.0 -1219.0 L 9496.0 -1218.0 L 9508.0 -1217.0 L 9556.0 -1209.0 L 9563.0 -1208.0 L 9641.0 -1202.0 L 9671.0 -1201.0 L 9733.0 -1199.0 L 9794.5 -1197.4" class="track" data-sector="13"/>
      <path d="M 9794.5 -1197.4 L 9811.0 -1197.0 L 9860.0 -1196.0 L 9931.0 -1193.0 L 9980.0 -1186.0 L 10022.0 -1178.0 L 10061.0 -1166.0 L 10179.0 -1114.0 L 10215.0 -1095.0 L 10243.0 -1072.0 L 10266.0 -1052.0 L 10319.0 -1008.0 L 10320.0 -1006.0 L 10368.0 -956.0 L 10403.0 -911.0 L 10458.0 -838.0 L 10491.0 -787.0 L 10507.0 -756.0 L 10508.0 -754.0 L 10510.0 -746.0 L 10513.0 -740.0 L 10523.0 -717.0 L 10528.0 -704.0 L 10546.0 -643.0 L 10549.0 -617.0 L 10550.9 -585.5" class="track" data-sector="14"/>
      <path d="M 10550.9 -585.5 L 10553.0 -551.0 L 10554.0 -538.0 L 10551.0 -507.0 L 10546.0 -496.0 L 10530.0 -469.0 L 10504.0 -433.0 L 10503.0 -432.0 L 10439.0 -383.0 L 10426.0 -369.0 L 10407.0 -335.0 L 10398.0 -302.0 L 10396.0 -287.0 L 10396.0 -265.0 L 10399.0 -246.0 L 10400.0 -236.0 L 10407.0 -188.0 L 10411.0 -162.0 L 10414.0 -137.0 L 10421.0 -103.0 L 10428.0 -73.0 L 10432.0 -54.0 L 10443.0 -3.0 L 10449.0 25.0 L 10453.0 45.0 L 10457.0 65.0 L 10463.0 96.0 L 10477.0 161.0 L 10485.0 197.0 L 10490.0 228.0 L 10496.0 266.0 L 10501.0 295.0 L 10507.0 340.0 L 10509.0 357.0 L 10510.0 376.0 L 10510.0 385.0" class="track" data-sector="15"/>
      <path d="M 10510.0 385.0 L 10510.0 419.0 L 10504.0 467.0 L 10503.0 475.0 L 10491.0 515.0 L 10487.0 523.0 L 10469.0 554.0 L 10452.0 574.0 L 10440.0 585.0 L 10402.0 610.0 L 10391.0 618.0 L 10366.0 630.0 L 10350.0 636.0 L 10317.0 646.0 L 10308.0 648.0 L 10259.0 659.0 L 10249.0 660.0 L 10198.0 667.0 L 10191.0 667.0 L 10145.0 670.0 L 10130.0 671.0 L 10050.0 670.0 L 10024.0 668.0 L 9968.0 666.0 L 9865.0 665.0 L 9847.0 665.0 L 9803.0 666.0 L 9783.0 667.0 L 9650.0 668.0 L 9606.0 668.0 L 9540.0 670.0 L 9462.0 674.0 L 9396.0 678.0 L 9371.0 678.0 L 9276.0 681.0 L 9149.0 683.0 L 9146.0 683.0 L 8971.0 685.0 L 8957.0 685.0 L 8857.0 686.0 L 8835.0 686.0 L 8696.0 687.0 L 8606.0 689.0 L 8499.0 690.0 L 8393.0 692.0 L 8389.0 692.0 L 8148.0 695.0 L 8099.0 695.0 L 8045.0 696.0 L 8029.0 697.0 L 7894.0 699.0 L 7891.0 699.0 L 7723.0 701.0 L 7685.0 701.0 L 7531.0 703.0 L 7436.0 705.0 L 7406.0 705.0 L 7250.0 708.0 L 7247.0 708.0 L 7126.0 710.0 L 7089.0 710.0 L 6884.0 715.0 L 6771.0 718.0 L 6678.0 722.0 L 6566.0 726.0 L 6491.0 730.0 L 6268.0 740.0 L 6255.0 741.0 L 6093.0 748.0 L 6076.0 748.0 L 5977.0 751.0 L 5727.0 755.0 L 5705.0 755.0 L 5599.0 756.0 L 5570.0 757.0 L 5461.0 758.0 L 5395.0 760.0 L 5323.0 762.0 L 5226.0 766.0 L 5191.0 767.0 L 5073.0 773.0 L 5069.0 773.0 L 4830.0 785.0 L 4787.0 788.0 L 4713.0 792.0 L 4709.0 792.0 L 4569.0 799.0 L 4556.0 800.0 L 4409.0 808.0 L 4381.0 810.0 L 4145.0 822.0 L 4108.0 823.0 L 3993.0 830.0 L 3973.0 831.0 L 3806.0 840.0 L 3803.0 840.0 L 3630.0 850.0 L 3600.0 852.0 L 3467.0 859.0 L 3411.0 862.0 L 3288.0 868.0 L 3168.0 875.0 L 2926.0 885.0 L 2769.0 891.0 L 2699.0 893.0 L 2592.0 896.0 L 2558.0 896.0 L 2398.0 900.0 L 2305.0 901.0 L 2203.0 903.0 L 2163.0 903.0 L 2080.0 905.1" class="track" data-sector="16"/>
      <path d="M 2080.0 905.1 L 2043.0 906.0 L 1951.0 907.0 L 1748.0 912.0 L 1591.0 914.0 L 1533.0 916.0 L 1438.0 917.0 L 1229.0 921.0 L 1200.0 922.0 L 1050.0 924.0 L 1029.0 925.0 L 800.0 929.0 L 721.0 931.0 L 585.0 933.0 L 521.0 935.0 L 367.0 938.0 L 244.0 940.0 L 81.0 943.0 L 30.0 944.0 L -161.0 948.0 L -180.0 948.0 L -326.0 950.0 L -417.0 952.0 L -585.0 956.0 L -618.0 957.0 L -710.0 960.0 L -852.0 966.0 L -1002.0 976.0 L -1070.0 981.0 L -1166.0 991.0 L -1424.0 1017.0 L -1440.0 1019.0 L -1596.0 1034.0 L -1673.0 1042.0 L -1681.0 1043.0 L -1754.0 1050.0 L -1818.0 1056.0 L -1844.0 1059.0 L -1934.0 1068.0 L -1935.0 1068.0 L -2016.0 1074.0 L -2061.0 1077.0 L -2069.0 1078.0 L -2122.0 1079.0 L -2156.0 1080.0 L -2219.0 1079.0 L -2236.0 1077.7" class="track" data-sector="17"/>
      <path d="M -2236.0 1077.7 L -2273.0 1075.0 L -2297.0 1073.0 L -2322.0 1069.0 L -2384.0 1060.0 L -2410.0 1054.0 L -2431.0 1049.0 L -2520.0 1009.0 L -2520.0 1008.0 L -2540.0 992.0 L -2545.0 987.0 L -2571.0 957.0 L -2578.0 946.0 L -2590.0 925.0 L -2610.0 861.0 L -2610.0 860.0 L -2613.0 823.0 L -2611.0 803.0 L -2610.0 802.0 L -2605.0 769.0 L -2603.0 760.0 L -2595.0 735.0 L -2592.0 730.0 L -2573.0 689.0 L -2572.0 686.0 L -2561.0 667.0 L -2551.0 654.0 L -2548.0 650.0 L -2508.0 604.0 L -2488.0 583.0 L -2474.0 570.0 L -2434.0 537.0 L -2429.0 533.0 L -2394.0 506.0 L -2393.0 505.0 L -2344.0 472.0 L -2335.0 467.0 L -2289.0 443.0 L -2250.0 423.0 L -2201.0 398.0 L -2199.0 397.0 L -2147.0 371.0 L -2079.0 336.0 L -2069.0 331.0 L -1997.0 293.0 L -1977.0 283.0 L -1938.0 263.0 L -1921.0 256.0 L -1894.2 246.2" class="track" data-sector="18"/>
      <path d="M -1894.2 246.2 L -1736.0 188.0 L -1734.0 187.0 L -1682.0 174.0 L -1647.0 172.0 L -1582.0 167.0 L -1562.0 166.0 L -1493.0 165.0 L -1405.0 170.0 L -1386.0 172.0 L -1264.0 190.0 L -1250.0 192.0 L -1161.0 215.0 L -1119.0 229.0 L -1072.0 246.0 L -1029.0 263.0 L -926.0 304.0 L -913.0 309.0 L -832.0 342.0 L -754.0 374.0 L -606.0 433.0 L -603.0 434.0 L -378.0 518.0 L -317.0 538.0 L -250.0 556.0 L -96.0 589.0 L -46.0 599.0 L -22.5 602.4" class="track" data-sector="19"/>
      <path d="M -22.5 602.4 L -18.0 603.0 L 83.0 614.0 L 109.0 615.0 L 238.0 622.0 L 253.0 622.0 L 392.0 625.0 L 408.0 625.0 L 605.0 611.0 L 677.0 604.0 L 767.0 590.0 L 827.0 572.0 L 848.0 567.0 L 976.0 530.0 L 1020.0 514.0 L 1170.0 454.0 L 1304.0 400.0 L 1333.0 390.0 L 1469.0 339.0 L 1497.0 329.0 L 1619.0 268.0 L 1737.0 194.0 L 1779.0 166.0 L 1817.0 142.0 L 1831.0 132.0 L 1800.0 152.0 L 1841.0 126.0 L 1972.0 43.0 L 2080.0 -24.0 L 2110.0 -43.0 L 2196.0 -97.0 L 2278.0 -149.0 L 2346.0 -192.0 L 2461.0 -264.0 L 2569.0 -332.0 L 2656.0 -386.0 L 2737.0 -437.0 L 2751.0 -446.0 L 2803.4 -478.8" class="track" data-sector="20"/>
    </g>

    <g id="marshal-lights">
      <g class="marshal-light-marker" data-light="1">
        <rect x="4951.7" y="-1878.2" width="92.6" height="92.6" class="marshal-light-bg"/>
        <text x="4998.0" y="-1831.9" class="marshal-light-label">1</text>
      </g>
      <g class="marshal-light-marker" data-light="2">
        <rect x="4465.2" y="-2643.5" width="92.6" height="92.6" class="marshal-light-bg"/>
        <text x="4511.5" y="-2597.2" class="marshal-light-label">2</text>
      </g>
      <g class="marshal-light-marker" data-light="3">
        <rect x="4280.9" y="-3584.0" width="92.6" height="92.6" class="marshal-light-bg"/>
        <text x="4327.2" y="-3537.8" class="marshal-light-label">3</text>
      </g>
      <g class="marshal-light-marker" data-light="4">
        <rect x="-693.4" y="-2642.5" width="92.6" height="92.6" class="marshal-light-bg"/>
        <text x="-647.1" y="-2596.2" class="marshal-light-label">4</text>
      </g>
      <g class="marshal-light-marker" data-light="5">
        <rect x="-1920.1" y="-3222.4" width="92.6" height="92.6" class="marshal-light-bg"/>
        <text x="-1873.8" y="-3176.1" class="marshal-light-label">5</text>
      </g>
      <g class="marshal-light-marker" data-light="6">
        <rect x="-3127.5" y="-2493.2" width="92.6" height="92.6" class="marshal-light-bg"/>
        <text x="-3081.2" y="-2446.9" class="marshal-light-label">6</text>
      </g>
      <g class="marshal-light-marker" data-light="7">
        <rect x="-4275.3" y="-3029.4" width="92.6" height="92.6" class="marshal-light-bg"/>
        <text x="-4229.1" y="-2983.1" class="marshal-light-label">7</text>
      </g>
      <g class="marshal-light-marker" data-light="8">
        <rect x="-4132.8" y="-3979.9" width="92.6" height="92.6" class="marshal-light-bg"/>
        <text x="-4086.6" y="-3933.6" class="marshal-light-label">8</text>
      </g>
      <g class="marshal-light-marker" data-light="9">
        <rect x="1078.1" y="-4196.7" width="92.6" height="92.6" class="marshal-light-bg"/>
        <text x="1124.3" y="-4150.4" class="marshal-light-label">9</text>
      </g>
      <g class="marshal-light-marker" data-light="10">
        <rect x="3852.2" y="-4838.9" width="92.6" height="92.6" class="marshal-light-bg"/>
        <text x="3898.5" y="-4792.6" class="marshal-light-label">10</text>
      </g>
      <g class="marshal-light-marker" data-light="11">
        <rect x="9631.7" y="-2531.6" width="92.6" height="92.6" class="marshal-light-bg"/>
        <text x="9678.0" y="-2485.3" class="marshal-light-label">11</text>
      </g>
      <g class="marshal-light-marker" data-light="12">
        <rect x="9094.6" y="-1588.8" width="92.6" height="92.6" class="marshal-light-bg"/>
        <text x="9140.9" y="-1542.5" class="marshal-light-label">12</text>
      </g>
      <g class="marshal-light-marker" data-light="13">
        <rect x="10135.8" y="-1158.7" width="92.6" height="92.6" class="marshal-light-bg"/>
        <text x="10182.1" y="-1112.4" class="marshal-light-label">13</text>
      </g>
      <g class="marshal-light-marker" data-light="14">
        <rect x="10500.9" y="-544.9" width="92.6" height="92.6" class="marshal-light-bg"/>
        <text x="10547.2" y="-498.7" class="marshal-light-label">14</text>
      </g>
      <g class="marshal-light-marker" data-light="15">
        <rect x="10361.2" y="-382.2" width="92.6" height="92.6" class="marshal-light-bg"/>
        <text x="10407.5" y="-335.9" class="marshal-light-label">15</text>
      </g>
      <g class="marshal-light-marker" data-light="16">
        <rect x="10420.7" y="510.0" width="92.6" height="92.6" class="marshal-light-bg"/>
        <text x="10467.0" y="556.3" class="marshal-light-label">16</text>
      </g>
      <g class="marshal-light-marker" data-light="17">
        <rect x="-2636.5" y="878.1" width="92.6" height="92.6" class="marshal-light-bg"/>
        <text x="-2590.2" y="924.4" class="marshal-light-label">17</text>
      </g>
      <g class="marshal-light-marker" data-light="18">
        <rect x="-1638.8" y="121.5" width="92.6" height="92.6" class="marshal-light-bg"/>
        <text x="-1592.6" y="167.8" class="marshal-light-label">18</text>
      </g>
      <g class="marshal-light-marker" data-light="19">
        <rect x="432.7" y="573.7" width="92.6" height="92.6" class="marshal-light-bg"/>
        <text x="479.0" y="620.0" class="marshal-light-label">19</text>
      </g>
    </g>

    <g id="marshal-sectors">
      <g class="marshal-sector-marker" data-sector="1" data-length="1185.2">
        <polygon points="2803.4,-589.9 2707.2,-423.3 2899.6,-423.3" class="marshal-sector-bg"/>
        <text x="2803.4" y="-478.8" class="marshal-sector-label">1</text>
      </g>
      <g class="marshal-sector-marker" data-sector="2" data-length="3270.9">
        <polygon points="4617.3,-1617.2 4521.1,-1450.5 4713.5,-1450.5" class="marshal-sector-bg"/>
        <text x="4617.3" y="-1506.1" class="marshal-sector-label">2</text>
      </g>
      <g class="marshal-sector-marker" data-sector="3" data-length="4854.0">
        <polygon points="4456.2,-2820.7 4360.0,-2654.1 4552.4,-2654.1" class="marshal-sector-bg"/>
        <text x="4456.2" y="-2709.7" class="marshal-sector-label">3</text>
      </g>
      <g class="marshal-sector-marker" data-sector="4" data-length="6776.3">
        <polygon points="3514.3,-4293.6 3418.1,-4127.0 3610.5,-4127.0" class="marshal-sector-bg"/>
        <text x="3514.3" y="-4182.5" class="marshal-sector-label">4</text>
      </g>
      <g class="marshal-sector-marker" data-sector="5" data-length="8744.7">
        <polygon points="1648.8,-3964.8 1552.6,-3798.2 1745.0,-3798.2" class="marshal-sector-bg"/>
        <text x="1648.8" y="-3853.7" class="marshal-sector-label">5</text>
      </g>
      <g class="marshal-sector-marker" data-sector="6" data-length="10842.9">
        <polygon points="-128.3,-2849.9 -224.5,-2683.2 -32.1,-2683.2" class="marshal-sector-bg"/>
        <text x="-128.3" y="-2738.8" class="marshal-sector-label">6</text>
      </g>
      <g class="marshal-sector-marker" data-sector="7" data-length="14319.0">
        <polygon points="-3170.9,-2538.5 -3267.1,-2371.8 -3074.7,-2371.8" class="marshal-sector-bg"/>
        <text x="-3170.9" y="-2427.4" class="marshal-sector-label">7</text>
      </g>
      <g class="marshal-sector-marker" data-sector="8" data-length="16614.0">
        <polygon points="-4149.7,-4023.4 -4245.9,-3856.8 -4053.5,-3856.8" class="marshal-sector-bg"/>
        <text x="-4149.7" y="-3912.3" class="marshal-sector-label">8</text>
      </g>
      <g class="marshal-sector-marker" data-sector="9" data-length="18247.3">
        <polygon points="-2553.3,-4126.8 -2649.5,-3960.2 -2457.1,-3960.2" class="marshal-sector-bg"/>
        <text x="-2553.3" y="-4015.7" class="marshal-sector-label">9</text>
      </g>
      <g class="marshal-sector-marker" data-sector="10" data-length="21350.7">
        <polygon points="526.5,-4199.3 430.3,-4032.7 622.7,-4032.7" class="marshal-sector-bg"/>
        <text x="526.5" y="-4088.2" class="marshal-sector-label">10</text>
      </g>
      <g class="marshal-sector-marker" data-sector="11" data-length="25270.7">
        <polygon points="4350.0,-4879.7 4253.8,-4713.1 4446.2,-4713.1" class="marshal-sector-bg"/>
        <text x="4350.0" y="-4768.6" class="marshal-sector-label">11</text>
      </g>
      <g class="marshal-sector-marker" data-sector="12" data-length="30082.8">
        <polygon points="8872.1,-3302.9 8775.9,-3136.3 8968.3,-3136.3" class="marshal-sector-bg"/>
        <text x="8872.1" y="-3191.8" class="marshal-sector-label">12</text>
      </g>
      <g class="marshal-sector-marker" data-sector="13" data-length="31519.3">
        <polygon points="9505.7,-2331.4 9409.5,-2164.7 9601.9,-2164.7" class="marshal-sector-bg"/>
        <text x="9505.7" y="-2220.3" class="marshal-sector-label">13</text>
      </g>
      <g class="marshal-sector-marker" data-sector="14" data-length="33152.6">
        <polygon points="9794.5,-1308.5 9698.3,-1141.9 9890.7,-1141.9" class="marshal-sector-bg"/>
        <text x="9794.5" y="-1197.4" class="marshal-sector-label">14</text>
      </g>
      <g class="marshal-sector-marker" data-sector="15" data-length="34220.6">
        <polygon points="10550.9,-696.6 10454.7,-530.0 10647.1,-530.0" class="marshal-sector-bg"/>
        <text x="10550.9" y="-585.5" class="marshal-sector-label">15</text>
      </g>
      <g class="marshal-sector-marker" data-sector="16" data-length="35259.2">
        <polygon points="10510.0,273.9 10413.8,440.5 10606.2,440.5" class="marshal-sector-bg"/>
        <text x="10510.0" y="385.0" class="marshal-sector-label">16</text>
      </g>
      <g class="marshal-sector-marker" data-sector="17" data-length="43861.5">
        <polygon points="2080.0,794.0 1983.8,960.6 2176.2,960.6" class="marshal-sector-bg"/>
        <text x="2080.0" y="905.1" class="marshal-sector-label">17</text>
      </g>
      <g class="marshal-sector-marker" data-sector="18" data-length="48183.5">
        <polygon points="-2236.0,966.7 -2332.2,1133.3 -2139.8,1133.3" class="marshal-sector-bg"/>
        <text x="-2236.0" y="1077.7" class="marshal-sector-label">18</text>
      </g>
      <g class="marshal-sector-marker" data-sector="19" data-length="49657.7">
        <polygon points="-1894.2,135.1 -1990.5,301.7 -1798.0,301.7" class="marshal-sector-bg"/>
        <text x="-1894.2" y="246.2" class="marshal-sector-label">19</text>
      </g>
      <g class="marshal-sector-marker" data-sector="20" data-length="51613.6">
        <polygon points="-22.5,491.3 -118.7,657.9 73.7,657.9" class="marshal-sector-bg"/>
        <text x="-22.5" y="602.4" class="marshal-sector-label">20</text>
      </g>
    </g>

    <g id="corners">
      <g class="corner-marker" data-corner="1" data-length="3790.2">
        <circle cx="5000.4" cy="-1839.9" r="148.1" class="corner-bg"/>
        <text x="5000.4" y="-1839.9" class="corner-label">1</text>
      </g>
      <g class="corner-marker" data-corner="2" data-length="4833.0">
        <circle cx="4462.6" cy="-2689.8" r="148.1" class="corner-bg"/>
        <text x="4462.6" y="-2689.8" class="corner-label">2</text>
      </g>
      <g class="corner-marker" data-corner="3" data-length="5746.0">
        <circle cx="4309.5" cy="-3575.7" r="148.1" class="corner-bg"/>
        <text x="4309.5" y="-3575.7" class="corner-label">3</text>
      </g>
      <g class="corner-marker" data-corner="4" data-length="11416.6">
        <circle cx="-676.1" cy="-2600.6" r="148.1" class="corner-bg"/>
        <text x="-676.1" y="-2600.6" class="corner-label">4</text>
      </g>
      <g class="corner-marker" data-corner="5" data-length="12802.9">
        <circle cx="-1907.3" cy="-3177.0" r="148.1" class="corner-bg"/>
        <text x="-1907.3" y="-3177.0" class="corner-label">5</text>
      </g>
      <g class="corner-marker" data-corner="6" data-length="14285.4">
        <circle cx="-3137.6" cy="-2430.7" r="148.1" class="corner-bg"/>
        <text x="-3137.6" y="-2430.7" class="corner-label">6</text>
      </g>
      <g class="corner-marker" data-corner="7" data-length="15667.5">
        <circle cx="-4269.1" cy="-3061.4" r="148.1" class="corner-bg"/>
        <text x="-4269.1" y="-3061.4" class="corner-label">7</text>
      </g>
      <g class="corner-marker" data-corner="8" data-length="16664.3">
        <circle cx="-4102.9" cy="-3929.8" r="148.1" class="corner-bg"/>
        <text x="-4102.9" y="-3929.8" class="corner-label">8</text>
      </g>
      <g class="corner-marker" data-corner="9" data-length="21928.6">
        <circle cx="1099.9" cy="-4144.4" r="148.1" class="corner-bg"/>
        <text x="1099.9" y="-4144.4" class="corner-label">9</text>
      </g>
      <g class="corner-marker" data-corner="10" data-length="24726.3">
        <circle cx="3806.4" cy="-4793.7" r="148.1" class="corner-bg"/>
        <text x="3806.4" y="-4793.7" class="corner-label">10</text>
      </g>
      <g class="corner-marker" data-corner="11" data-length="31125.6">
        <circle cx="9665.0" cy="-2550.9" r="148.1" class="corner-bg"/>
        <text x="9665.0" y="-2550.9" class="corner-label">11</text>
      </g>
      <g class="corner-marker" data-corner="12" data-length="32256.4">
        <circle cx="9121.7" cy="-1632.5" r="148.1" class="corner-bg"/>
        <text x="9121.7" y="-1632.5" class="corner-label">12</text>
      </g>
      <g class="corner-marker" data-corner="13" data-length="33550.5">
        <circle cx="10178.3" cy="-1114.3" r="148.1" class="corner-bg"/>
        <text x="10178.3" y="-1114.3" class="corner-label">13</text>
      </g>
      <g class="corner-marker" data-corner="14" data-length="34300.2">
        <circle cx="10550.7" cy="-506.3" r="148.1" class="corner-bg"/>
        <text x="10550.7" y="-506.3" class="corner-label">14</text>
      </g>
      <g class="corner-marker" data-corner="15" data-length="34492.8">
        <circle cx="10423.8" cy="-365.1" r="148.1" class="corner-bg"/>
        <text x="10423.8" y="-365.1" class="corner-label">15</text>
      </g>
      <g class="corner-marker" data-corner="16" data-length="35397.4">
        <circle cx="10488.3" cy="520.3" r="148.1" class="corner-bg"/>
        <text x="10488.3" y="520.3" class="corner-label">16</text>
      </g>
      <g class="corner-marker" data-corner="17" data-length="48589.8">
        <circle cx="-2590.2" cy="924.4" r="148.1" class="corner-bg"/>
        <text x="-2590.2" y="924.4" class="corner-label">17</text>
      </g>
      <g class="corner-marker" data-corner="18" data-length="49980.2">
        <circle cx="-1584.2" cy="167.2" r="148.1" class="corner-bg"/>
        <text x="-1584.2" y="167.2" class="corner-label">18</text>
      </g>
      <g class="corner-marker" data-corner="19" data-length="52065.9">
        <circle cx="428.8" cy="623.5" r="148.1" class="corner-bg"/>
        <text x="428.8" y="623.5" class="corner-label">19</text>
      </g>
    </g>

    <g id="start-finish" data-track-x="1800.0" data-track-y="152.0" data-lap-distance="53607.1">
      <polygon points="1477.5,682.7 1947.8,387.1 2125.1,669.3 1654.9,964.9" class="checker-border"/>
      <polygon points="1477.5,682.7 1571.6,623.6 1630.7,717.6 1536.6,776.7" class="checker-black"/>
      <polygon points="1536.6,776.7 1630.7,717.6 1689.8,811.7 1595.7,870.8" class="checker-white"/>
      <polygon points="1595.7,870.8 1689.8,811.7 1748.9,905.7 1654.9,964.9" class="checker-black"/>
      <polygon points="1571.6,623.6 1665.6,564.5 1724.7,658.5 1630.7,717.6" class="checker-white"/>
      <polygon points="1630.7,717.6 1724.7,658.5 1783.8,752.6 1689.8,811.7" class="checker-black"/>
      <polygon points="1689.8,811.7 1783.8,752.6 1843.0,846.6 1748.9,905.7" class="checker-white"/>
      <polygon points="1665.6,564.5 1759.7,505.4 1818.8,599.4 1724.7,658.5" class="checker-black"/>
      <polygon points="1724.7,658.5 1818.8,599.4 1877.9,693.5 1783.8,752.6" class="checker-white"/>
      <polygon points="1783.8,752.6 1877.9,693.5 1937.0,787.5 1843.0,846.6" class="checker-black"/>
      <polygon points="1759.7,505.4 1853.7,446.2 1912.8,540.3 1818.8,599.4" class="checker-white"/>
      <polygon points="1818.8,599.4 1912.8,540.3 1972.0,634.4 1877.9,693.5" class="checker-black"/>
      <polygon points="1877.9,693.5 1972.0,634.4 2031.1,728.4 1937.0,787.5" class="checker-white"/>
      <polygon points="1853.7,446.2 1947.8,387.1 2006.9,481.2 1912.8,540.3" class="checker-black"/>
      <polygon points="1912.8,540.3 2006.9,481.2 2066.0,575.2 1972.0,634.4" class="checker-white"/>
      <polygon points="1972.0,634.4 2066.0,575.2 2125.1,669.3 2031.1,728.4" class="checker-black"/>
      <polyline points="2605.2,389.4 2663.5,134.1 2408.2,75.9" class="chevron"/>
      <polyline points="2730.6,310.6 2788.9,55.3 2533.6,-2.9" class="chevron"/>
      <polyline points="2856.0,231.8 2914.3,-23.5 2659.0,-81.7" class="chevron"/>
    </g>

    <g id="car-markers"></g>

  </g>
</svg>
