<?xml version="1.0" encoding="utf-8"?>
<?xml-stylesheet type="text/css" href="../../css/tracks.css"?>
<svg xmlns="http://www.w3.org/2000/svg" viewBox="-457.3 212.1 960.0 478.2">
  <title>Monte Carlo</title>

  <g id="track-root" transform="translate(0, 478.20) scale(1, -1) scale(0.071146) translate(3945.00, 4980.00) rotate(315, -3945.00, -4980.00)" data-scale="0.071146" data-rotation="315.0">

    <g id="track-outline">
      <path d="M -7577.8 -5313.2 L -7577.0 -5309.0 L -7542.0 -5158.0 L -7529.0 -5107.0 L -7520.0 -5076.0 L -7512.0 -5049.0 L -7503.0 -5015.0 L -7482.0 -4944.0 L -7477.0 -4928.0 L -7461.0 -4882.0 L -7458.0 -4875.0 L -7437.0 -4819.0 L -7434.0 -4810.0 L -7415.0 -4770.0 L -7414.0 -4769.0 L -7382.0 -4721.0 L -7365.0 -4701.0 L -7327.0 -4670.0 L -7268.0 -4646.0 L -7267.0 -4645.0 L -7213.0 -4628.0 L -7172.0 -4619.0 L -7122.0 -4610.0 L -7105.0 -4607.0 L -7074.0 -4602.0 L -6959.0 -4591.0 L -6947.0 -4590.0 L -6912.0 -4587.0 L -6897.0 -4586.0 L -6860.0 -4583.0 L -6781.0 -4576.0 L -6780.0 -4575.0 L -6734.0 -4571.0 L -6599.0 -4556.0 L -6574.0 -4553.0 L -6492.0 -4540.0 L -6484.0 -4539.0 L -6390.0 -4522.0 L -6341.0 -4511.0 L -6283.0 -4499.0 L -6261.0 -4494.0 L -6182.0 -4475.0 L -6142.0 -4465.0 L -6079.0 -4450.0 L -6046.0 -4441.0 L -5951.0 -4418.0 L -5856.0 -4394.0 L -5800.0 -4380.0 L -5752.0 -4369.0 L -5661.0 -4346.0 L -5657.0 -4345.0 L -5496.0 -4303.0 L -5464.0 -4295.0 L -5372.0 -4268.0 L -5337.5 -4261.3" class="track-outline" data-sector="2"/>
      <path d="M -5337.5 -4261.3 L -5274.0 -4249.0 L -5253.0 -4245.0 L -5087.0 -4217.0 L -5084.0 -4216.0 L -4966.0 -4204.0 L -4931.0 -4202.0 L -4879.0 -4197.0 L -4826.0 -4193.0 L -4645.0 -4165.0 L -4643.0 -4164.0 L -4558.0 -4141.0 L -4518.0 -4127.0 L -4331.0 -4042.0 L -4316.0 -4034.0 L -4217.0 -3982.0 L -4182.0 -3965.0 L -4118.0 -3933.0 L -4069.0 -3911.0 L -3989.0 -3876.0 L -3953.0 -3862.0 L -3802.8 -3811.7" class="track-outline" data-sector="3"/>
      <path d="M -3802.8 -3811.7 L -3753.0 -3795.0 L -3750.0 -3794.0 L -3558.0 -3753.0 L -3520.0 -3746.0 L -3349.0 -3722.0 L -3347.0 -3721.0 L -3248.0 -3710.0 L -3149.0 -3697.0 L -3070.0 -3687.0 L -2989.0 -3673.0 L -2980.0 -3672.0 L -2874.0 -3648.0 L -2842.0 -3639.0 L -2782.0 -3619.0 L -2716.0 -3591.0 L -2637.0 -3553.0 L -2619.0 -3543.0 L -2525.0 -3479.0 L -2520.0 -3475.0 L -2471.0 -3433.0 L -2466.0 -3428.0 L -2410.0 -3370.0 L -2406.0 -3365.0 L -2357.0 -3296.0 L -2335.0 -3258.0 L -2318.0 -3223.0 L -2296.0 -3167.0 L -2292.0 -3153.0 L -2280.7 -3097.0" class="track-outline" data-sector="4"/>
      <path d="M -2280.7 -3097.0 L -2267.0 -3029.0 L -2266.0 -3027.0 L -2262.0 -2947.0 L -2262.0 -2928.0 L -2269.0 -2850.0 L -2270.0 -2833.0 L -2281.0 -2774.0 L -2289.0 -2748.0 L -2328.0 -2635.0 L -2331.0 -2624.0 L -2351.0 -2579.0 L -2374.0 -2541.0 L -2378.0 -2534.0 L -2429.0 -2451.0 L -2429.0 -2450.0 L -2486.0 -2371.0 L -2487.0 -2369.0 L -2550.0 -2291.0 L -2564.0 -2276.0 L -2609.0 -2222.0 L -2638.0 -2186.0 L -2646.0 -2175.0 L -2695.0 -2098.0 L -2699.0 -2093.0 L -2727.0 -2033.0 L -2740.0 -1984.0 L -2745.0 -1959.0 L -2747.0 -1908.0 L -2746.8 -1905.0" class="track-outline" data-sector="5"/>
      <path d="M -2746.8 -1905.0 L -2745.0 -1871.0 L -2734.0 -1816.0 L -2732.0 -1809.0 L -2687.0 -1689.0 L -2660.0 -1633.0 L -2645.0 -1610.0 L -2644.0 -1608.0 L -2613.0 -1558.0 L -2612.0 -1557.0 L -2525.0 -1438.0 L -2495.0 -1402.0 L -2492.0 -1399.0 L -2454.0 -1357.0 L -2428.0 -1327.0 L -2361.0 -1252.0 L -2281.0 -1162.0 L -2276.0 -1157.0 L -2187.0 -1044.0 L -2165.0 -1013.0 L -2103.0 -924.0 L -2057.0 -858.0 L -2029.0 -815.0 L -2007.0 -782.0 L -1943.0 -692.0 L -1894.0 -628.0 L -1836.0 -552.0 L -1797.0 -502.0 L -1771.0 -472.0 L -1765.0 -465.0 L -1714.0 -404.0 L -1701.2 -389.1" class="track-outline" data-sector="6"/>
      <path d="M -1701.2 -389.1 L -1690.0 -376.0 L -1655.0 -336.0 L -1587.0 -267.0 L -1586.0 -266.0 L -1563.0 -246.0 L -1539.0 -226.0 L -1493.0 -204.0 L -1488.0 -203.0 L -1432.0 -198.0 L -1425.0 -197.0 L -1366.0 -216.0 L -1362.0 -217.0 L -1332.0 -235.0 L -1328.0 -238.0 L -1283.0 -279.0 L -1276.0 -287.0 L -1256.0 -312.0 L -1250.0 -333.0 L -1233.0 -378.0 L -1226.0 -398.0 L -1223.0 -411.0 L -1206.0 -477.0 L -1203.0 -486.0 L -1197.0 -515.0 L -1181.0 -569.0 L -1168.0 -613.0 L -1145.0 -680.0 L -1127.0 -730.0 L -1114.0 -763.0 L -1092.0 -813.0 L -1054.0 -893.0 L -1048.0 -904.0 L -1023.0 -948.0 L -998.0 -988.0 L -997.0 -988.0 L -985.0 -1006.0 L -967.0 -1027.0 L -924.0 -1072.0 L -905.0 -1092.0 L -889.0 -1105.0 L -884.8 -1106.9" class="track-outline" data-sector="7"/>
      <path d="M -884.8 -1106.9 L -876.0 -1111.0 L -857.0 -1120.0 L -830.0 -1129.0 L -824.0 -1129.0 L -768.0 -1125.0 L -749.0 -1116.0 L -737.0 -1092.0 L -736.0 -1089.0 L -731.0 -1065.0 L -731.0 -1063.0 L -731.0 -1036.0 L -731.0 -1029.0 L -733.0 -1019.0 L -738.0 -998.0 L -746.0 -973.0 L -746.0 -972.0 L -756.0 -944.0 L -767.0 -927.0 L -772.0 -918.0 L -785.0 -898.0 L -797.0 -878.0 L -810.0 -862.0 L -814.0 -859.0 L -826.0 -845.0 L -835.0 -836.0 L -853.0 -815.0 L -858.0 -811.0 L -891.0 -777.0 L -902.0 -765.0 L -905.0 -760.0 L -941.0 -720.0 L -980.0 -678.0 L -996.0 -660.0 L -1006.0 -635.0 L -1008.0 -630.0 L -1023.0 -573.0 L -1029.0 -553.0 L -1029.0 -521.8" class="track-outline" data-sector="8"/>
      <path d="M -1029.0 -521.8 L -1029.0 -517.0 L -1025.0 -505.0 L -1019.0 -485.0 L -1013.0 -464.0 L -997.0 -434.0 L -994.0 -430.0 L -960.0 -389.0 L -943.0 -376.0 L -919.0 -359.0 L -898.0 -345.0 L -874.0 -329.0 L -847.0 -316.0 L -841.0 -313.0 L -796.0 -292.0 L -795.0 -292.0 L -799.0 -294.0 L -743.0 -270.0 L -734.0 -266.0 L -640.0 -232.0 L -599.0 -217.0 L -557.0 -209.0 L -543.0 -207.0 L -529.7 -205.0" class="track-outline" data-sector="9"/>
      <path d="M -529.7 -205.0 L -463.0 -195.0 L -444.0 -193.0 L -376.0 -195.0 L -348.0 -202.0 L -344.0 -202.0 L -311.0 -218.0 L -298.0 -227.0 L -272.0 -250.0 L -267.0 -257.0 L -252.0 -279.0 L -243.0 -298.0 L -232.0 -324.0 L -229.0 -339.0 L -216.0 -404.0 L -213.0 -417.0 L -209.0 -491.0 L -210.0 -493.0 L -209.0 -505.0 L -210.0 -518.0 L -211.0 -561.0 L -211.0 -572.0 L -213.0 -629.0 L -213.0 -644.0 L -219.0 -724.0 L -224.0 -796.0 L -225.0 -809.0 L -232.0 -887.0 L -232.0 -895.0 L -237.0 -937.0 L -240.0 -980.0 L -243.0 -1005.0 L -246.0 -1049.0 L -247.2 -1065.0" class="track-outline" data-sector="10"/>
      <path d="M -247.2 -1065.0 L -254.0 -1158.0 L -257.0 -1216.0 L -258.0 -1235.0 L -261.0 -1296.0 L -262.0 -1315.0 L -266.0 -1406.0 L -267.0 -1437.0 L -280.0 -1567.0 L -284.0 -1598.0 L -315.0 -1765.0 L -327.0 -1820.0 L -361.0 -1935.0 L -372.0 -1971.0 L -375.0 -1981.0 L -459.0 -2225.0 L -459.0 -2226.0 L -490.0 -2310.0 L -522.0 -2391.0 L -541.0 -2438.0 L -597.0 -2571.0 L -624.0 -2633.0 L -651.0 -2692.0 L -709.0 -2812.0 L -716.0 -2825.0 L -762.0 -2906.0 L -770.0 -2919.0 L -860.0 -3053.0 L -949.0 -3161.0 L -967.0 -3180.0 L -986.0 -3200.0 L -995.0 -3208.0" class="track-outline" data-sector="11"/>
      <path d="M -995.0 -3208.0 L -1101.0 -3303.0 L -1112.0 -3312.0 L -1216.0 -3385.0 L -1230.0 -3394.0 L -1386.0 -3479.0 L -1485.0 -3529.0 L -1521.0 -3546.0 L -1631.0 -3597.0 L -1665.0 -3613.0 L -1825.0 -3691.0 L -1856.0 -3707.0 L -1996.0 -3779.0 L -2027.0 -3795.0 L -2140.0 -3852.0 L -2285.0 -3924.0 L -2298.0 -3930.0 L -2353.0 -3956.0 L -2491.0 -4019.0 L -2508.0 -4026.0 L -2655.0 -4087.0 L -2803.0 -4145.0 L -2903.0 -4179.0 L -3040.0 -4220.0 L -3074.0 -4230.0 L -3177.0 -4256.0 L -3235.0 -4269.0 L -3300.4 -4281.3" class="track-outline" data-sector="12"/>
      <path d="M -3300.4 -4281.3 L -3405.0 -4301.0 L -3431.0 -4305.0 L -3540.0 -4320.0 L -3559.0 -4322.0 L -3569.0 -4323.0 L -3629.0 -4329.0 L -3738.0 -4341.0 L -3781.0 -4346.0 L -3834.0 -4351.0 L -3922.0 -4361.0 L -3923.0 -4361.0 L -3977.0 -4368.0 L -4036.0 -4377.0 L -4054.0 -4382.0 L -4086.0 -4392.0 L -4128.0 -4413.0 L -4159.0 -4440.0 L -4190.0 -4490.0 L -4192.0 -4493.0 L -4205.0 -4519.0 L -4216.0 -4538.0 L -4245.0 -4579.0 L -4267.0 -4605.0 L -4299.0 -4627.0 L -4323.0 -4637.0 L -4353.0 -4645.0 L -4363.0 -4646.0 L -4391.0 -4650.0 L -4425.0 -4650.0 L -4431.0 -4649.0 L -4451.0 -4649.0 L -4464.0 -4647.0 L -4485.0 -4644.0 L -4503.0 -4640.0 L -4533.0 -4633.0 L -4602.0 -4616.0 L -4617.0 -4612.0 L -4666.0 -4604.0 L -4698.0 -4601.0 L -4727.0 -4600.0 L -4782.0 -4601.0 L -4789.0 -4602.0 L -4892.0 -4615.0 L -4945.0 -4623.0 L -5007.0 -4632.0 L -5066.0 -4642.0 L -5117.0 -4649.0 L -5160.0 -4656.0 L -5214.0 -4663.0 L -5242.0 -4667.0 L -5247.1 -4667.7" class="track-outline" data-sector="13"/>
      <path d="M -5247.1 -4667.7 L -5296.0 -4675.0 L -5354.0 -4682.0 L -5422.0 -4691.0 L -5434.0 -4692.0 L -5504.0 -4701.0 L -5516.0 -4702.0 L -5600.0 -4713.0 L -5602.0 -4713.0 L -5820.0 -4738.0 L -5832.0 -4739.0 L -5896.0 -4746.0 L -5981.0 -4755.0 L -6191.0 -4774.0 L -6193.0 -4774.0 L -6292.0 -4781.0 L -6359.0 -4785.0 L -6536.0 -4797.0 L -6537.0 -4797.0 L -6604.0 -4803.0 L -6638.0 -4813.0 L -6649.0 -4817.0 L -6694.0 -4832.0 L -6710.0 -4840.0 L -6840.0 -4933.0 L -6846.0 -4938.0 L -6877.0 -4966.0 L -6897.0 -4991.0 L -6905.0 -5001.0 L -6948.0 -5056.0 L -6961.0 -5073.0 L -7014.0 -5155.0 L -7057.0 -5237.0 L -7068.0 -5257.0 L -7090.0 -5305.0 L -7109.0 -5354.0 L -7110.0 -5358.0 L -7147.0 -5474.0 L -7151.0 -5487.0 L -7153.0 -5494.0 L -7173.0 -5579.0 L -7181.0 -5623.0 L -7191.0 -5687.0 L -7193.0 -5700.0 L -7201.0 -5755.0 L -7205.0 -5803.0 L -7208.0 -5824.0 L -7211.0 -5860.0 L -7211.8 -5869.8" class="track-outline" data-sector="14"/>
      <path d="M -7211.8 -5869.8 L -7216.0 -5920.0 L -7217.0 -5955.0 L -7219.0 -6010.0 L -7219.0 -6011.0 L -7219.0 -6073.0 L -7216.0 -6122.0 L -7214.0 -6155.0 L -7209.0 -6190.0 L -7206.0 -6209.0 L -7191.0 -6269.0 L -7186.0 -6288.0 L -7166.0 -6332.0 L -7153.0 -6355.0 L -7108.0 -6408.0 L -7087.0 -6430.0 L -7075.0 -6442.0 L -7029.0 -6496.0 L -6996.0 -6554.0 L -6982.0 -6589.0 L -6949.0 -6678.0 L -6935.0 -6721.0 L -6908.0 -6803.0 L -6877.0 -6908.0 L -6871.0 -6925.0 L -6838.0 -7057.0 L -6834.0 -7070.0 L -6818.0 -7144.0 L -6813.0 -7172.0 L -6800.0 -7240.0 L -6798.0 -7249.0 L -6783.0 -7346.0 L -6782.0 -7346.0 L -6773.0 -7416.0 L -6773.0 -7421.0 L -6768.0 -7459.0 L -6766.0 -7479.0 L -6760.0 -7536.0 L -6756.0 -7580.0 L -6751.0 -7620.0 L -6750.0 -7644.0 L -6746.0 -7709.0 L -6746.0 -7725.0 L -6746.0 -7758.3" class="track-outline" data-sector="15"/>
      <path d="M -6746.0 -7758.3 L -6746.0 -7769.0 L -6746.0 -7793.0 L -6746.0 -7807.0 L -6750.0 -7852.0 L -6752.0 -7869.0 L -6763.0 -7909.0 L -6851.0 -8010.0 L -6854.0 -8013.0 L -6875.0 -8042.0 L -6882.0 -8060.0 L -6894.0 -8120.0 L -6895.0 -8128.0 L -6896.0 -8151.0 L -6895.0 -8178.0 L -6894.0 -8178.0 L -6892.0 -8219.0 L -6890.0 -8237.0 L -6889.0 -8250.0 L -6884.0 -8289.0 L -6882.0 -8300.0 L -6878.0 -8322.0 L -6868.0 -8366.0 L -6868.0 -8371.0 L -6857.0 -8412.0 L -6852.0 -8434.0 L -6846.0 -8452.0 L -6835.0 -8486.0 L -6829.0 -8504.0 L -6817.0 -8536.0 L -6814.0 -8547.0 L -6797.0 -8588.0 L -6780.0 -8630.0 L -6770.0 -8651.0 L -6746.0 -8703.0 L -6745.0 -8703.0 L -6732.0 -8728.0 L -6710.0 -8770.0 L -6686.0 -8810.0 L -6684.0 -8815.0 L -6653.0 -8863.0 L -6630.0 -8894.0 L -6604.0 -8929.0 L -6602.0 -8933.0 L -6582.0 -8960.0 L -6553.0 -8994.0 L -6528.0 -9022.0 L -6520.0 -9032.0 L -6502.0 -9050.0 L -6465.0 -9088.0 L -6416.0 -9134.0 L -6401.0 -9146.0 L -6379.6 -9164.5" class="track-outline" data-sector="16"/>
      <path d="M -6379.6 -9164.5 L -6334.0 -9204.0 L -6312.0 -9221.0 L -6305.0 -9227.0 L -6282.0 -9244.0 L -6217.0 -9292.0 L -6214.0 -9295.0 L -6178.0 -9320.0 L -6155.0 -9336.0 L -6131.0 -9354.0 L -6081.0 -9390.0 L -6076.0 -9393.0 L -6050.0 -9413.0 L -6049.0 -9413.0 L -5993.0 -9460.0 L -5992.0 -9460.0 L -5967.0 -9484.0 L -5950.0 -9504.0 L -5944.0 -9512.0 L -5929.0 -9538.0 L -5928.0 -9547.0 L -5928.0 -9573.0 L -5929.0 -9578.0 L -5937.0 -9596.0 L -5940.0 -9600.0 L -5947.0 -9608.0 L -5954.0 -9615.0 L -5971.0 -9630.0 L -5990.0 -9644.0 L -6001.0 -9651.0 L -6015.0 -9660.0 L -6029.0 -9669.0 L -6040.0 -9676.0 L -6057.0 -9687.0 L -6073.0 -9696.0 L -6081.0 -9700.0 L -6082.0 -9700.0 L -6100.0 -9708.0 L -6106.0 -9711.0 L -6118.0 -9715.0 L -6124.0 -9717.0 L -6140.0 -9721.0 L -6160.0 -9726.0 L -6163.0 -9727.0 L -6183.0 -9731.0 L -6199.0 -9735.0 L -6210.0 -9737.0 L -6216.0 -9738.0 L -6232.0 -9741.0 L -6248.0 -9744.0 L -6262.0 -9746.0 L -6293.0 -9752.0 L -6291.0 -9751.0 L -6270.0 -9747.0 L -6272.0 -9748.0 L -6305.0 -9753.0 L -6336.0 -9757.0 L -6355.0 -9759.0 L -6361.0 -9760.0 L -6371.0 -9761.0 L -6394.0 -9763.0 L -6401.0 -9764.0 L -6414.0 -9764.0 L -6425.0 -9765.0 L -6439.0 -9765.0 L -6462.0 -9767.0 L -6465.8 -9767.0" class="track-outline" data-sector="17"/>
      <path d="M -6465.8 -9767.0 L -6497.0 -9767.0 L -6500.0 -9767.0 L -6529.0 -9765.0 L -6536.0 -9764.0 L -6574.0 -9761.0 L -6580.0 -9760.0 L -6603.0 -9756.0 L -6626.0 -9750.0 L -6632.0 -9749.0 L -6671.0 -9734.0 L -6687.0 -9727.0 L -6691.0 -9724.0 L -6704.0 -9717.0 L -6721.0 -9703.0 L -6721.0 -9702.0 L -6744.0 -9677.0 L -6748.0 -9670.0 L -6763.0 -9646.0 L -6772.0 -9625.0 L -6779.0 -9608.0 L -6782.0 -9596.0 L -6797.0 -9543.0 L -6797.0 -9542.0 L -6807.0 -9502.0 L -6810.0 -9487.0 L -6818.0 -9449.0 L -6828.0 -9404.0 L -6828.0 -9403.0 L -6837.0 -9371.0 L -6862.0 -9304.0 L -6891.0 -9239.0 L -6897.0 -9225.0 L -6925.0 -9176.0 L -6948.0 -9144.0 L -6955.0 -9133.0 L -6990.0 -9083.0 L -7029.0 -9025.0 L -7057.0 -8983.0 L -7103.0 -8916.0 L -7108.0 -8907.0 L -7152.0 -8832.0 L -7168.0 -8801.0 L -7237.0 -8643.0 L -7238.0 -8640.0 L -7289.0 -8502.0 L -7295.0 -8480.0 L -7316.0 -8417.0 L -7351.0 -8308.0 L -7357.0 -8289.0 L -7369.0 -8248.2" class="track-outline" data-sector="18"/>
      <path d="M -7369.0 -8248.2 L -7389.0 -8180.0 L -7493.0 -7802.0 L -7496.0 -7793.0 L -7531.0 -7654.0 L -7534.0 -7644.0 L -7566.0 -7505.0 L -7571.0 -7477.0 L -7590.0 -7373.0 L -7597.0 -7337.0 L -7606.0 -7273.0 L -7614.0 -7218.0 L -7634.0 -7009.0 L -7642.0 -6924.0 L -7648.0 -6838.0 L -7651.0 -6804.0 L -7651.7 -6792.4" class="track-outline" data-sector="19"/>
      <path d="M -7651.7 -6792.4 L -7657.0 -6706.0 L -7662.0 -6636.0 L -7661.0 -6619.0 L -7666.0 -6556.0 L -7674.0 -6428.0 L -7674.0 -6412.0 L -7681.0 -6300.0 L -7681.0 -6270.0 L -7675.0 -6098.0 L -7674.0 -6071.0 L -7662.0 -5897.0 L -7661.0 -5894.0 L -7652.0 -5791.0 L -7648.0 -5747.0 L -7629.0 -5596.0 L -7614.0 -5498.0 L -7604.0 -5442.0 L -7579.0 -5319.0 L -7577.8 -5313.2" class="track-outline" data-sector="1"/>
    </g>

    <g id="track-sectors">
      <path d="M -7577.8 -5313.2 L -7577.0 -5309.0 L -7542.0 -5158.0 L -7529.0 -5107.0 L -7520.0 -5076.0 L -7512.0 -5049.0 L -7503.0 -5015.0 L -7482.0 -4944.0 L -7477.0 -4928.0 L -7461.0 -4882.0 L -7458.0 -4875.0 L -7437.0 -4819.0 L -7434.0 -4810.0 L -7415.0 -4770.0 L -7414.0 -4769.0 L -7382.0 -4721.0 L -7365.0 -4701.0 L -7327.0 -4670.0 L -7268.0 -4646.0 L -7267.0 -4645.0 L -7213.0 -4628.0 L -7172.0 -4619.0 L -7122.0 -4610.0 L -7105.0 -4607.0 L -7074.0 -4602.0 L -6959.0 -4591.0 L -6947.0 -4590.0 L -6912.0 -4587.0 L -6897.0 -4586.0 L -6860.0 -4583.0 L -6781.0 -4576.0 L -6780.0 -4575.0 L -6734.0 -4571.0 L -6599.0 -4556.0 L -6574.0 -4553.0 L -6492.0 -4540.0 L -6484.0 -4539.0 L -6390.0 -4522.0 L -6341.0 -4511.0 L -6283.0 -4499.0 L -6261.0 -4494.0 L -6182.0 -4475.0 L -6142.0 -4465.0 L -6079.0 -4450.0 L -6046.0 -4441.0 L -5951.0 -4418.0 L -5856.0 -4394.0 L -5800.0 -4380.0 L -5752.0 -4369.0 L -5661.0 -4346.0 L -5657.0 -4345.0 L -5496.0 -4303.0 L -5464.0 -4295.0 L -5372.0 -4268.0 L -5337.5 -4261.3" class="track" data-sector="2"/>
      <path d="M -5337.5 -4261.3 L -5274.0 -4249.0 L -5253.0 -4245.0 L -5087.0 -4217.0 L -5084.0 -4216.0 L -4966.0 -4204.0 L -4931.0 -4202.0 L -4879.0 -4197.0 L -4826.0 -4193.0 L -4645.0 -4165.0 L -4643.0 -4164.0 L -4558.0 -4141.0 L -4518.0 -4127.0 L -4331.0 -4042.0 L -4316.0 -4034.0 L -4217.0 -3982.0 L -4182.0 -3965.0 L -4118.0 -3933.0 L -4069.0 -3911.0 L -3989.0 -3876.0 L -3953.0 -3862.0 L -3802.8 -3811.7" class="track" data-sector="3"/>
      <path d="M -3802.8 -3811.7 L -3753.0 -3795.0 L -3750.0 -3794.0 L -3558.0 -3753.0 L -3520.0 -3746.0 L -3349.0 -3722.0 L -3347.0 -3721.0 L -3248.0 -3710.0 L -3149.0 -3697.0 L -3070.0 -3687.0 L -2989.0 -3673.0 L -2980.0 -3672.0 L -2874.0 -3648.0 L -2842.0 -3639.0 L -2782.0 -3619.0 L -2716.0 -3591.0 L -2637.0 -3553.0 L -2619.0 -3543.0 L -2525.0 -3479.0 L -2520.0 -3475.0 L -2471.0 -3433.0 L -2466.0 -3428.0 L -2410.0 -3370.0 L -2406.0 -3365.0 L -2357.0 -3296.0 L -2335.0 -3258.0 L -2318.0 -3223.0 L -2296.0 -3167.0 L -2292.0 -3153.0 L -2280.7 -3097.0" class="track" data-sector="4"/>
      <path d="M -2280.7 -3097.0 L -2267.0 -3029.0 L -2266.0 -3027.0 L -2262.0 -2947.0 L -2262.0 -2928.0 L -2269.0 -2850.0 L -2270.0 -2833.0 L -2281.0 -2774.0 L -2289.0 -2748.0 L -2328.0 -2635.0 L -2331.0 -2624.0 L -2351.0 -2579.0 L -2374.0 -2541.0 L -2378.0 -2534.0 L -2429.0 -2451.0 L -2429.0 -2450.0 L -2486.0 -2371.0 L -2487.0 -2369.0 L -2550.0 -2291.0 L -2564.0 -2276.0 L -2609.0 -2222.0 L -2638.0 -2186.0 L -2646.0 -2175.0 L -2695.0 -2098.0 L -2699.0 -2093.0 L -2727.0 -2033.0 L -2740.0 -1984.0 L -2745.0 -1959.0 L -2747.0 -1908.0 L -2746.8 -1905.0" class="track" data-sector="5"/>
      <path d="M -2746.8 -1905.0 L -2745.0 -1871.0 L -2734.0 -1816.0 L -2732.0 -1809.0 L -2687.0 -1689.0 L -2660.0 -1633.0 L -2645.0 -1610.0 L -2644.0 -1608.0 L -2613.0 -1558.0 L -2612.0 -1557.0 L -2525.0 -1438.0 L -2495.0 -1402.0 L -2492.0 -1399.0 L -2454.0 -1357.0 L -2428.0 -1327.0 L -2361.0 -1252.0 L -2281.0 -1162.0 L -2276.0 -1157.0 L -2187.0 -1044.0 L -2165.0 -1013.0 L -2103.0 -924.0 L -2057.0 -858.0 L -2029.0 -815.0 L -2007.0 -782.0 L -1943.0 -692.0 L -1894.0 -628.0 L -1836.0 -552.0 L -1797.0 -502.0 L -1771.0 -472.0 L -1765.0 -465.0 L -1714.0 -404.0 L -1701.2 -389.1" class="track" data-sector="6"/>
      <path d="M -1701.2 -389.1 L -1690.0 -376.0 L -1655.0 -336.0 L -1587.0 -267.0 L -1586.0 -266.0 L -1563.0 -246.0 L -1539.0 -226.0 L -1493.0 -204.0 L -1488.0 -203.0 L -1432.0 -198.0 L -1425.0 -197.0 L -1366.0 -216.0 L -1362.0 -217.0 L -1332.0 -235.0 L -1328.0 -238.0 L -1283.0 -279.0 L -1276.0 -287.0 L -1256.0 -312.0 L -1250.0 -333.0 L -1233.0 -378.0 L -1226.0 -398.0 L -1223.0 -411.0 L -1206.0 -477.0 L -1203.0 -486.0 L -1197.0 -515.0 L -1181.0 -569.0 L -1168.0 -613.0 L -1145.0 -680.0 L -1127.0 -730.0 L -1114.0 -763.0 L -1092.0 -813.0 L -1054.0 -893.0 L -1048.0 -904.0 L -1023.0 -948.0 L -998.0 -988.0 L -997.0 -988.0 L -985.0 -1006.0 L -967.0 -1027.0 L -924.0 -1072.0 L -905.0 -1092.0 L -889.0 -1105.0 L -884.8 -1106.9" class="track" data-sector="7"/>
      <path d="M -884.8 -1106.9 L -876.0 -1111.0 L -857.0 -1120.0 L -830.0 -1129.0 L -824.0 -1129.0 L -768.0 -1125.0 L -749.0 -1116.0 L -737.0 -1092.0 L -736.0 -1089.0 L -731.0 -1065.0 L -731.0 -1063.0 L -731.0 -1036.0 L -731.0 -1029.0 L -733.0 -1019.0 L -738.0 -998.0 L -746.0 -973.0 L -746.0 -972.0 L -756.0 -944.0 L -767.0 -927.0 L -772.0 -918.0 L -785.0 -898.0 L -797.0 -878.0 L -810.0 -862.0 L -814.0 -859.0 L -826.0 -845.0 L -835.0 -836.0 L -853.0 -815.0 L -858.0 -811.0 L -891.0 -777.0 L -902.0 -765.0 L -905.0 -760.0 L -941.0 -720.0 L -980.0 -678.0 L -996.0 -660.0 L -1006.0 -635.0 L -1008.0 -630.0 L -1023.0 -573.0 L -1029.0 -553.0 L -1029.0 -521.8" class="track" data-sector="8"/>
      <path d="M -1029.0 -521.8 L -1029.0 -517.0 L -1025.0 -505.0 L -1019.0 -485.0 L -1013.0 -464.0 L -997.0 -434.0 L -994.0 -430.0 L -960.0 -389.0 L -943.0 -376.0 L -919.0 -359.0 L -898.0 -345.0 L -874.0 -329.0 L -847.0 -316.0 L -841.0 -313.0 L -796.0 -292.0 L -795.0 -292.0 L -799.0 -294.0 L -743.0 -270.0 L -734.0 -266.0 L -640.0 -232.0 L -599.0 -217.0 L -557.0 -209.0 L -543.0 -207.0 L -529.7 -205.0" class="track" data-sector="9"/>
      <path d="M -529.7 -205.0 L -463.0 -195.0 L -444.0 -193.0 L -376.0 -195.0 L -348.0 -202.0 L -344.0 -202.0 L -311.0 -218.0 L -298.0 -227.0 L -272.0 -250.0 L -267.0 -257.0 L -252.0 -279.0 L -243.0 -298.0 L -232.0 -324.0 L -229.0 -339.0 L -216.0 -404.0 L -213.0 -417.0 L -209.0 -491.0 L -210.0 -493.0 L -209.0 -505.0 L -210.0 -518.0 L -211.0 -561.0 L -211.0 -572.0 L -213.0 -629.0 L -213.0 -644.0 L -219.0 -724.0 L -224.0 -796.0 L -225.0 -809.0 L -232.0 -887.0 L -232.0 -895.0 L -237.0 -937.0 L -240.0 -980.0 L -243.0 -1005.0 L -246.0 -1049.0 L -247.2 -1065.0" class="track" data-sector="10"/>
      <path d="M -247.2 -1065.0 L -254.0 -1158.0 L -257.0 -1216.0 L -258.0 -1235.0 L -261.0 -1296.0 L -262.0 -1315.0 L -266.0 -1406.0 L -267.0 -1437.0 L -280.0 -1567.0 L -284.0 -1598.0 L -315.0 -1765.0 L -327.0 -1820.0 L -361.0 -1935.0 L -372.0 -1971.0 L -375.0 -1981.0 L -459.0 -2225.0 L -459.0 -2226.0 L -490.0 -2310.0 L -522.0 -2391.0 L -541.0 -2438.0 L -597.0 -2571.0 L -624.0 -2633.0 L -651.0 -2692.0 L -709.0 -2812.0 L -716.0 -2825.0 L -762.0 -2906.0 L -770.0 -2919.0 L -860.0 -3053.0 L -949.0 -3161.0 L -967.0 -3180.0 L -986.0 -3200.0 L -995.0 -3208.0" class="track" data-sector="11"/>
      <path d="M -995.0 -3208.0 L -1101.0 -3303.0 L -1112.0 -3312.0 L -1216.0 -3385.0 L -1230.0 -3394.0 L -1386.0 -3479.0 L -1485.0 -3529.0 L -1521.0 -3546.0 L -1631.0 -3597.0 L -1665.0 -3613.0 L -1825.0 -3691.0 L -1856.0 -3707.0 L -1996.0 -3779.0 L -2027.0 -3795.0 L -2140.0 -3852.0 L -2285.0 -3924.0 L -2298.0 -3930.0 L -2353.0 -3956.0 L -2491.0 -4019.0 L -2508.0 -4026.0 L -2655.0 -4087.0 L -2803.0 -4145.0 L -2903.0 -4179.0 L -3040.0 -4220.0 L -3074.0 -4230.0 L -3177.0 -4256.0 L -3235.0 -4269.0 L -3300.4 -4281.3" class="track" data-sector="12"/>
      <path d="M -3300.4 -4281.3 L -3405.0 -4301.0 L -3431.0 -4305.0 L -3540.0 -4320.0 L -3559.0 -4322.0 L -3569.0 -4323.0 L -3629.0 -4329.0 L -3738.0 -4341.0 L -3781.0 -4346.0 L -3834.0 -4351.0 L -3922.0 -4361.0 L -3923.0 -4361.0 L -3977.0 -4368.0 L -4036.0 -4377.0 L -4054.0 -4382.0 L -4086.0 -4392.0 L -4128.0 -4413.0 L -4159.0 -4440.0 L -4190.0 -4490.0 L -4192.0 -4493.0 L -4205.0 -4519.0 L -4216.0 -4538.0 L -4245.0 -4579.0 L -4267.0 -4605.0 L -4299.0 -4627.0 L -4323.0 -4637.0 L -4353.0 -4645.0 L -4363.0 -4646.0 L -4391.0 -4650.0 L -4425.0 -4650.0 L -4431.0 -4649.0 L -4451.0 -4649.0 L -4464.0 -4647.0 L -4485.0 -4644.0 L -4503.0 -4640.0 L -4533.0 -4633.0 L -4602.0 -4616.0 L -4617.0 -4612.0 L -4666.0 -4604.0 L -4698.0 -4601.0 L -4727.0 -4600.0 L -4782.0 -4601.0 L -4789.0 -4602.0 L -4892.0 -4615.0 L -4945.0 -4623.0 L -5007.0 -4632.0 L -5066.0 -4642.0 L -5117.0 -4649.0 L -5160.0 -4656.0 L -5214.0 -4663.0 L -5242.0 -4667.0 L -5247.1 -4667.7" class="track" data-sector="13"/>
      <path d="M -5247.1 -4667.7 L -5296.0 -4675.0 L -5354.0 -4682.0 L -5422.0 -4691.0 L -5434.0 -4692.0 L -5504.0 -4701.0 L -5516.0 -4702.0 L -5600.0 -4713.0 L -5602.0 -4713.0 L -5820.0 -4738.0 L -5832.0 -4739.0 L -5896.0 -4746.0 L -5981.0 -4755.0 L -6191.0 -4774.0 L -6193.0 -4774.0 L -6292.0 -4781.0 L -6359.0 -4785.0 L -6536.0 -4797.0 L -6537.0 -4797.0 L -6604.0 -4803.0 L -6638.0 -4813.0 L -6649.0 -4817.0 L -6694.0 -4832.0 L -6710.0 -4840.0 L -6840.0 -4933.0 L -6846.0 -4938.0 L -6877.0 -4966.0 L -6897.0 -4991.0 L -6905.0 -5001.0 L -6948.0 -5056.0 L -6961.0 -5073.0 L -7014.0 -5155.0 L -7057.0 -5237.0 L -7068.0 -5257.0 L -7090.0 -5305.0 L -7109.0 -5354.0 L -7110.0 -5358.0 L -7147.0 -5474.0 L -7151.0 -5487.0 L -7153.0 -5494.0 L -7173.0 -5579.0 L -7181.0 -5623.0 L -7191.0 -5687.0 L -7193.0 -5700.0 L -7201.0 -5755.0 L -7205.0 -5803.0 L -7208.0 -5824.0 L -7211.0 -5860.0 L -7211.8 -5869.8" class="track" data-sector="14"/>
      <path d="M -7211.8 -5869.8 L -7216.0 -5920.0 L -7217.0 -5955.0 L -7219.0 -6010.0 L -7219.0 -6011.0 L -7219.0 -6073.0 L -7216.0 -6122.0 L -7214.0 -6155.0 L -7209.0 -6190.0 L -7206.0 -6209.0 L -7191.0 -6269.0 L -7186.0 -6288.0 L -7166.0 -6332.0 L -7153.0 -6355.0 L -7108.0 -6408.0 L -7087.0 -6430.0 L -7075.0 -6442.0 L -7029.0 -6496.0 L -6996.0 -6554.0 L -6982.0 -6589.0 L -6949.0 -6678.0 L -6935.0 -6721.0 L -6908.0 -6803.0 L -6877.0 -6908.0 L -6871.0 -6925.0 L -6838.0 -7057.0 L -6834.0 -7070.0 L -6818.0 -7144.0 L -6813.0 -7172.0 L -6800.0 -7240.0 L -6798.0 -7249.0 L -6783.0 -7346.0 L -6782.0 -7346.0 L -6773.0 -7416.0 L -6773.0 -7421.0 L -6768.0 -7459.0 L -6766.0 -7479.0 L -6760.0 -7536.0 L -6756.0 -7580.0 L -6751.0 -7620.0 L -6750.0 -7644.0 L -6746.0 -7709.0 L -6746.0 -7725.0 L -6746.0 -7758.3" class="track" data-sector="15"/>
      <path d="M -6746.0 -7758.3 L -6746.0 -7769.0 L -6746.0 -7793.0 L -6746.0 -7807.0 L -6750.0 -7852.0 L -6752.0 -7869.0 L -6763.0 -7909.0 L -6851.0 -8010.0 L -6854.0 -8013.0 L -6875.0 -8042.0 L -6882.0 -8060.0 L -6894.0 -8120.0 L -6895.0 -8128.0 L -6896.0 -8151.0 L -6895.0 -8178.0 L -6894.0 -8178.0 L -6892.0 -8219.0 L -6890.0 -8237.0 L -6889.0 -8250.0 L -6884.0 -8289.0 L -6882.0 -8300.0 L -6878.0 -8322.0 L -6868.0 -8366.0 L -6868.0 -8371.0 L -6857.0 -8412.0 L -6852.0 -8434.0 L -6846.0 -8452.0 L -6835.0 -8486.0 L -6829.0 -8504.0 L -6817.0 -8536.0 L -6814.0 -8547.0 L -6797.0 -8588.0 L -6780.0 -8630.0 L -6770.0 -8651.0 L -6746.0 -8703.0 L -6745.0 -8703.0 L -6732.0 -8728.0 L -6710.0 -8770.0 L -6686.0 -8810.0 L -6684.0 -8815.0 L -6653.0 -8863.0 L -6630.0 -8894.0 L -6604.0 -8929.0 L -6602.0 -8933.0 L -6582.0 -8960.0 L -6553.0 -8994.0 L -6528.0 -9022.0 L -6520.0 -9032.0 L -6502.0 -9050.0 L -6465.0 -9088.0 L -6416.0 -9134.0 L -6401.0 -9146.0 L -6379.6 -9164.5" class="track" data-sector="16"/>
      <path d="M -6379.6 -9164.5 L -6334.0 -9204.0 L -6312.0 -9221.0 L -6305.0 -9227.0 L -6282.0 -9244.0 L -6217.0 -9292.0 L -6214.0 -9295.0 L -6178.0 -9320.0 L -6155.0 -9336.0 L -6131.0 -9354.0 L -6081.0 -9390.0 L -6076.0 -9393.0 L -6050.0 -9413.0 L -6049.0 -9413.0 L -5993.0 -9460.0 L -5992.0 -9460.0 L -5967.0 -9484.0 L -5950.0 -9504.0 L -5944.0 -9512.0 L -5929.0 -9538.0 L -5928.0 -9547.0 L -5928.0 -9573.0 L -5929.0 -9578.0 L -5937.0 -9596.0 L -5940.0 -9600.0 L -5947.0 -9608.0 L -5954.0 -9615.0 L -5971.0 -9630.0 L -5990.0 -9644.0 L -6001.0 -9651.0 L -6015.0 -9660.0 L -6029.0 -9669.0 L -6040.0 -9676.0 L -6057.0 -9687.0 L -6073.0 -9696.0 L -6081.0 -9700.0 L -6082.0 -9700.0 L -6100.0 -9708.0 L -6106.0 -9711.0 L -6118.0 -9715.0 L -6124.0 -9717.0 L -6140.0 -9721.0 L -6160.0 -9726.0 L -6163.0 -9727.0 L -6183.0 -9731.0 L -6199.0 -9735.0 L -6210.0 -9737.0 L -6216.0 -9738.0 L -6232.0 -9741.0 L -6248.0 -9744.0 L -6262.0 -9746.0 L -6293.0 -9752.0 L -6291.0 -9751.0 L -6270.0 -9747.0 L -6272.0 -9748.0 L -6305.0 -9753.0 L -6336.0 -9757.0 L -6355.0 -9759.0 L -6361.0 -9760.0 L -6371.0 -9761.0 L -6394.0 -9763.0 L -6401.0 -9764.0 L -6414.0 -9764.0 L -6425.0 -9765.0 L -6439.0 -9765.0 L -6462.0 -9767.0 L -6465.8 -9767.0" class="track" data-sector="17"/>
      <path d="M -6465.8 -9767.0 L -6497.0 -9767.0 L -6500.0 -9767.0 L -6529.0 -9765.0 L -6536.0 -9764.0 L -6574.0 -9761.0 L -6580.0 -9760.0 L -6603.0 -9756.0 L -6626.0 -9750.0 L -6632.0 -9749.0 L -6671.0 -9734.0 L -6687.0 -9727.0 L -6691.0 -9724.0 L -6704.0 -9717.0 L -6721.0 -9703.0 L -6721.0 -9702.0 L -6744.0 -9677.0 L -6748.0 -9670.0 L -6763.0 -9646.0 L -6772.0 -9625.0 L -6779.0 -9608.0 L -6782.0 -9596.0 L -6797.0 -9543.0 L -6797.0 -9542.0 L -6807.0 -9502.0 L -6810.0 -9487.0 L -6818.0 -9449.0 L -6828.0 -9404.0 L -6828.0 -9403.0 L -6837.0 -9371.0 L -6862.0 -9304.0 L -6891.0 -9239.0 L -6897.0 -9225.0 L -6925.0 -9176.0 L -6948.0 -9144.0 L -6955.0 -9133.0 L -6990.0 -9083.0 L -7029.0 -9025.0 L -7057.0 -8983.0 L -7103.0 -8916.0 L -7108.0 -8907.0 L -7152.0 -8832.0 L -7168.0 -8801.0 L -7237.0 -8643.0 L -7238.0 -8640.0 L -7289.0 -8502.0 L -7295.0 -8480.0 L -7316.0 -8417.0 L -7351.0 -8308.0 L -7357.0 -8289.0 L -7369.0 -8248.2" class="track" data-sector="18"/>
      <path d="M -7369.0 -8248.2 L -7389.0 -8180.0 L -7493.0 -7802.0 L -7496.0 -7793.0 L -7531.0 -7654.0 L -7534.0 -7644.0 L -7566.0 -7505.0 L -7571.0 -7477.0 L -7590.0 -7373.0 L -7597.0 -7337.0 L -7606.0 -7273.0 L -7614.0 -7218.0 L -7634.0 -7009.0 L -7642.0 -6924.0 L -7648.0 -6838.0 L -7651.0 -6804.0 L -7651.7 -6792.4" class="track" data-sector="19"/>
      <path d="M -7651.7 -6792.4 L -7657.0 -6706.0 L -7662.0 -6636.0 L -7661.0 -6619.0 L -7666.0 -6556.0 L -7674.0 -6428.0 L -7674.0 -6412.0 L -7681.0 -6300.0 L -7681.0 -6270.0 L -7675.0 -6098.0 L -7674.0 -6071.0 L -7662.0 -5897.0 L -7661.0 -5894.0 L -7652.0 -5791.0 L -7648.0 -5747.0 L -7629.0 -5596.0 L -7614.0 -5498.0 L -7604.0 -5442.0 L -7579.0 -5319.0 L -7577.8 -5313.2" class="track" data-sector="1"/>
    </g>

    <g id="marshal-lights">
      <g class="marshal-light-marker" data-light="1">
        <rect x="-7680.6" y="-6909.1" width="70.3" height="70.3" class="marshal-light-bg"/>
        <text x="-7645.5" y="-6874.0" class="marshal-light-label">1</text>
      </g>
      <g class="marshal-light-marker" data-light="2">
        <rect x="-7623.1" y="-5398.4" width="70.3" height="70.3" class="marshal-light-bg"/>
        <text x="-7588.0" y="-5363.3" class="marshal-light-label">2</text>
      </g>
      <g class="marshal-light-marker" data-light="3">
        <rect x="-5367.6" y="-4295.5" width="70.3" height="70.3" class="marshal-light-bg"/>
        <text x="-5332.5" y="-4260.3" class="marshal-light-label">3</text>
      </g>
      <g class="marshal-light-marker" data-light="4">
        <rect x="-3857.4" y="-3853.3" width="70.3" height="70.3" class="marshal-light-bg"/>
        <text x="-3822.2" y="-3818.2" class="marshal-light-label">4</text>
      </g>
      <g class="marshal-light-marker" data-light="5">
        <rect x="-2323.9" y="-3172.2" width="70.3" height="70.3" class="marshal-light-bg"/>
        <text x="-2288.8" y="-3137.0" class="marshal-light-label">5</text>
      </g>
      <g class="marshal-light-marker" data-light="6">
        <rect x="-2776.8" y="-1889.4" width="70.3" height="70.3" class="marshal-light-bg"/>
        <text x="-2741.7" y="-1854.3" class="marshal-light-label">6</text>
      </g>
      <g class="marshal-light-marker" data-light="7">
        <rect x="-1726.4" y="-412.6" width="70.3" height="70.3" class="marshal-light-bg"/>
        <text x="-1691.2" y="-377.4" class="marshal-light-label">7</text>
      </g>
      <g class="marshal-light-marker" data-light="8">
        <rect x="-950.9" y="-1115.8" width="70.3" height="70.3" class="marshal-light-bg"/>
        <text x="-915.8" y="-1080.6" class="marshal-light-label">8</text>
      </g>
      <g class="marshal-light-marker" data-light="9">
        <rect x="-1053.4" y="-517.6" width="70.3" height="70.3" class="marshal-light-bg"/>
        <text x="-1018.3" y="-482.5" class="marshal-light-label">9</text>
      </g>
      <g class="marshal-light-marker" data-light="10">
        <rect x="-610.3" y="-247.6" width="70.3" height="70.3" class="marshal-light-bg"/>
        <text x="-575.1" y="-212.5" class="marshal-light-label">10</text>
      </g>
      <g class="marshal-light-marker" data-light="11">
        <rect x="-275.0" y="-1013.6" width="70.3" height="70.3" class="marshal-light-bg"/>
        <text x="-239.9" y="-978.4" class="marshal-light-label">11</text>
      </g>
      <g class="marshal-light-marker" data-light="12">
        <rect x="-974.0" y="-3183.8" width="70.3" height="70.3" class="marshal-light-bg"/>
        <text x="-938.8" y="-3148.7" class="marshal-light-label">12</text>
      </g>
      <g class="marshal-light-marker" data-light="13">
        <rect x="-3295.4" y="-4308.9" width="70.3" height="70.3" class="marshal-light-bg"/>
        <text x="-3260.2" y="-4273.7" class="marshal-light-label">13</text>
      </g>
      <g class="marshal-light-marker" data-light="14">
        <rect x="-5317.6" y="-4708.1" width="70.3" height="70.3" class="marshal-light-bg"/>
        <text x="-5282.5" y="-4673.0" class="marshal-light-label">14</text>
      </g>
      <g class="marshal-light-marker" data-light="15">
        <rect x="-7253.3" y="-6022.3" width="70.3" height="70.3" class="marshal-light-bg"/>
        <text x="-7218.2" y="-5987.2" class="marshal-light-label">15</text>
      </g>
      <g class="marshal-light-marker" data-light="16">
        <rect x="-6781.1" y="-7788.3" width="70.3" height="70.3" class="marshal-light-bg"/>
        <text x="-6746.0" y="-7753.2" class="marshal-light-label">16</text>
      </g>
      <g class="marshal-light-marker" data-light="17">
        <rect x="-6399.3" y="-9213.0" width="70.3" height="70.3" class="marshal-light-bg"/>
        <text x="-6364.1" y="-9177.9" class="marshal-light-label">17</text>
      </g>
      <g class="marshal-light-marker" data-light="18">
        <rect x="-6577.5" y="-9798.6" width="70.3" height="70.3" class="marshal-light-bg"/>
        <text x="-6542.4" y="-9763.5" class="marshal-light-label">18</text>
      </g>
      <g class="marshal-light-marker" data-light="19">
        <rect x="-7402.7" y="-8288.3" width="70.3" height="70.3" class="marshal-light-bg"/>
        <text x="-7367.5" y="-8253.1" class="marshal-light-label">19</text>
      </g>
    </g>

    <g id="marshal-sectors">
      <g class="marshal-sector-marker" data-sector="1" data-length="32538.6">
        <polygon points="-7651.7,-6876.7 -7724.7,-6750.2 -7578.7,-6750.2" class="marshal-sector-bg"/>
        <text x="-7651.7" y="-6792.4" class="marshal-sector-label">1</text>
      </g>
      <g class="marshal-sector-marker" data-sector="2" data-length="1313.6">
        <polygon points="-7577.8,-5397.5 -7650.9,-5271.0 -7504.8,-5271.0" class="marshal-sector-bg"/>
        <text x="-7577.8" y="-5313.2" class="marshal-sector-label">2</text>
      </g>
      <g class="marshal-sector-marker" data-sector="3" data-length="4053.3">
        <polygon points="-5337.5,-4345.6 -5410.5,-4219.1 -5264.5,-4219.1" class="marshal-sector-bg"/>
        <text x="-5337.5" y="-4261.3" class="marshal-sector-label">3</text>
      </g>
      <g class="marshal-sector-marker" data-sector="4" data-length="5668.4">
        <polygon points="-3802.8,-3896.0 -3875.9,-3769.5 -3729.8,-3769.5" class="marshal-sector-bg"/>
        <text x="-3802.8" y="-3811.7" class="marshal-sector-label">4</text>
      </g>
      <g class="marshal-sector-marker" data-sector="5" data-length="7467.6">
        <polygon points="-2280.7,-3181.3 -2353.7,-3054.8 -2207.7,-3054.8" class="marshal-sector-bg"/>
        <text x="-2280.7" y="-3097.0" class="marshal-sector-label">5</text>
      </g>
      <g class="marshal-sector-marker" data-sector="6" data-length="8796.6">
        <polygon points="-2746.8,-1989.4 -2819.9,-1862.9 -2673.8,-1862.9" class="marshal-sector-bg"/>
        <text x="-2746.8" y="-1905.0" class="marshal-sector-label">6</text>
      </g>
      <g class="marshal-sector-marker" data-sector="7" data-length="10657.1">
        <polygon points="-1701.2,-473.4 -1774.2,-346.9 -1628.2,-346.9" class="marshal-sector-bg"/>
        <text x="-1701.2" y="-389.1" class="marshal-sector-label">7</text>
      </g>
      <g class="marshal-sector-marker" data-sector="8" data-length="12108.7">
        <polygon points="-884.8,-1191.3 -957.8,-1064.8 -811.8,-1064.8" class="marshal-sector-bg"/>
        <text x="-884.8" y="-1106.9" class="marshal-sector-label">8</text>
      </g>
      <g class="marshal-sector-marker" data-sector="9" data-length="12946.9">
        <polygon points="-1029.0,-606.1 -1102.0,-479.6 -956.0,-479.6" class="marshal-sector-bg"/>
        <text x="-1029.0" y="-521.8" class="marshal-sector-label">9</text>
      </g>
      <g class="marshal-sector-marker" data-sector="10" data-length="13580.7">
        <polygon points="-529.7,-289.3 -602.8,-162.8 -456.7,-162.8" class="marshal-sector-bg"/>
        <text x="-529.7" y="-205.0" class="marshal-sector-label">10</text>
      </g>
      <g class="marshal-sector-marker" data-sector="11" data-length="14684.8">
        <polygon points="-247.2,-1149.3 -320.2,-1022.8 -174.1,-1022.8" class="marshal-sector-bg"/>
        <text x="-247.2" y="-1065.0" class="marshal-sector-label">11</text>
      </g>
      <g class="marshal-sector-marker" data-sector="12" data-length="17000.2">
        <polygon points="-995.0,-3292.4 -1068.0,-3165.9 -921.9,-3165.9" class="marshal-sector-bg"/>
        <text x="-995.0" y="-3208.0" class="marshal-sector-label">12</text>
      </g>
      <g class="marshal-sector-marker" data-sector="13" data-length="19561.0">
        <polygon points="-3300.4,-4365.6 -3373.4,-4239.1 -3227.4,-4239.1" class="marshal-sector-bg"/>
        <text x="-3300.4" y="-4281.3" class="marshal-sector-label">13</text>
      </g>
      <g class="marshal-sector-marker" data-sector="14" data-length="21641.3">
        <polygon points="-5247.1,-4752.1 -5320.1,-4625.6 -5174.0,-4625.6" class="marshal-sector-bg"/>
        <text x="-5247.1" y="-4667.7" class="marshal-sector-label">14</text>
      </g>
      <g class="marshal-sector-marker" data-sector="15" data-length="24309.4">
        <polygon points="-7211.8,-5954.2 -7284.9,-5827.7 -7138.8,-5827.7" class="marshal-sector-bg"/>
        <text x="-7211.8" y="-5869.8" class="marshal-sector-label">15</text>
      </g>
      <g class="marshal-sector-marker" data-sector="16" data-length="26297.7">
        <polygon points="-6746.0,-7842.6 -6819.0,-7716.1 -6673.0,-7716.1" class="marshal-sector-bg"/>
        <text x="-6746.0" y="-7758.3" class="marshal-sector-label">16</text>
      </g>
      <g class="marshal-sector-marker" data-sector="17" data-length="27907.7">
        <polygon points="-6379.6,-9248.9 -6452.6,-9122.4 -6306.6,-9122.4" class="marshal-sector-bg"/>
        <text x="-6379.6" y="-9164.5" class="marshal-sector-label">17</text>
      </g>
      <g class="marshal-sector-marker" data-sector="18" data-length="29175.4">
        <polygon points="-6465.8,-9851.3 -6538.9,-9724.8 -6392.8,-9724.8" class="marshal-sector-bg"/>
        <text x="-6465.8" y="-9767.0" class="marshal-sector-label">18</text>
      </g>
      <g class="marshal-sector-marker" data-sector="19" data-length="31051.2">
        <polygon points="-7369.0,-8332.6 -7442.0,-8206.1 -7295.9,-8206.1" class="marshal-sector-bg"/>
        <text x="-7369.0" y="-8248.2" class="marshal-sector-label">19</text>
      </g>
    </g>

    <g id="corners">
      <g class="corner-marker" data-corner="1" data-length="1942.3">
        <circle cx="-7381.1" cy="-4719.9" r="112.4" class="corner-bg"/>
        <text x="-7381.1" y="-4719.9" class="corner-label">1</text>
      </g>
      <g class="corner-marker" data-corner="2" data-length="5842.2">
        <circle cx="-3634.5" cy="-3769.3" r="112.4" class="corner-bg"/>
        <text x="-3634.5" y="-3769.3" class="corner-label">2</text>
      </g>
      <g class="corner-marker" data-corner="3" data-length="7493.2">
        <circle cx="-2275.6" cy="-3071.9" r="112.4" class="corner-bg"/>
        <text x="-2275.6" y="-3071.9" class="corner-label">3</text>
      </g>
      <g class="corner-marker" data-corner="4" data-length="8745.5">
        <circle cx="-2745.1" cy="-1956.1" r="112.4" class="corner-bg"/>
        <text x="-2745.1" y="-1956.1" class="corner-label">4</text>
      </g>
      <g class="corner-marker" data-corner="5" data-length="11009.8">
        <circle cx="-1422.2" cy="-197.9" r="112.4" class="corner-bg"/>
        <text x="-1422.2" y="-197.9" class="corner-label">5</text>
      </g>
      <g class="corner-marker" data-corner="6" data-length="12200.7">
        <circle cx="-797.2" cy="-1127.1" r="112.4" class="corner-bg"/>
        <text x="-797.2" y="-1127.1" class="corner-label">6</text>
      </g>
      <g class="corner-marker" data-corner="7" data-length="12992.9">
        <circle cx="-1016.9" cy="-477.6" r="112.4" class="corner-bg"/>
        <text x="-1016.9" y="-477.6" class="corner-label">7</text>
      </g>
      <g class="corner-marker" data-corner="8" data-length="13856.8">
        <circle cx="-271.2" cy="-251.1" r="112.4" class="corner-bg"/>
        <text x="-271.2" y="-251.1" class="corner-label">8</text>
      </g>
      <g class="corner-marker" data-corner="9" data-length="17174.0">
        <circle cx="-1126.1" cy="-3321.9" r="112.4" class="corner-bg"/>
        <text x="-1126.1" y="-3321.9" class="corner-label">9</text>
      </g>
      <g class="corner-marker" data-corner="10" data-length="20445.2">
        <circle cx="-4160.0" cy="-4441.6" r="112.4" class="corner-bg"/>
        <text x="-4160.0" y="-4441.6" class="corner-label">10</text>
      </g>
      <g class="corner-marker" data-corner="11" data-length="20966.6">
        <circle cx="-4579.2" cy="-4621.6" r="112.4" class="corner-bg"/>
        <text x="-4579.2" y="-4621.6" class="corner-label">11</text>
      </g>
      <g class="corner-marker" data-corner="12" data-length="23246.2">
        <circle cx="-6814.4" cy="-4914.7" r="112.4" class="corner-bg"/>
        <text x="-6814.4" y="-4914.7" class="corner-label">12</text>
      </g>
      <g class="corner-marker" data-corner="13" data-length="24774.5">
        <circle cx="-7168.0" cy="-6327.6" r="112.4" class="corner-bg"/>
        <text x="-7168.0" y="-6327.6" class="corner-label">13</text>
      </g>
      <g class="corner-marker" data-corner="14" data-length="25071.0">
        <circle cx="-6992.1" cy="-6563.9" r="112.4" class="corner-bg"/>
        <text x="-6992.1" y="-6563.9" class="corner-label">14</text>
      </g>
      <g class="corner-marker" data-corner="15" data-length="26410.1">
        <circle cx="-6752.4" cy="-7870.4" r="112.4" class="corner-bg"/>
        <text x="-6752.4" y="-7870.4" class="corner-label">15</text>
      </g>
      <g class="corner-marker" data-corner="16" data-length="26624.8">
        <circle cx="-6875.2" cy="-8042.6" r="112.4" class="corner-bg"/>
        <text x="-6875.2" y="-8042.6" class="corner-label">16</text>
      </g>
      <g class="corner-marker" data-corner="17" data-length="27360.8">
        <circle cx="-6723.6" cy="-8744.1" r="112.4" class="corner-bg"/>
        <text x="-6723.6" y="-8744.1" class="corner-label">17</text>
      </g>
      <g class="corner-marker" data-corner="18" data-length="28531.3">
        <circle cx="-5928.0" cy="-9572.4" r="112.4" class="corner-bg"/>
        <text x="-5928.0" y="-9572.4" class="corner-label">18</text>
      </g>
      <g class="corner-marker" data-corner="19" data-length="29441.1">
        <circle cx="-6718.7" cy="-9704.9" r="112.4" class="corner-bg"/>
        <text x="-6718.7" y="-9704.9" class="corner-label">19</text>
      </g>
    </g>

    <g id="start-finish" data-track-x="-7661.0" data-track-y="-6619.0" data-lap-distance="32712.4">
      <polygon points="-7876.4,-7038.3 -7871.8,-6616.7 -8124.8,-6614.0 -8129.4,-7035.6" class="checker-border"/>
      <polygon points="-7876.4,-7038.3 -7875.5,-6954.0 -7959.8,-6953.1 -7960.7,-7037.4" class="checker-black"/>
      <polygon points="-7960.7,-7037.4 -7959.8,-6953.1 -8044.1,-6952.2 -8045.1,-7036.5" class="checker-white"/>
      <polygon points="-8045.1,-7036.5 -8044.1,-6952.2 -8128.5,-6951.3 -8129.4,-7035.6" class="checker-black"/>
      <polygon points="-7875.5,-6954.0 -7874.6,-6869.7 -7958.9,-6868.8 -7959.8,-6953.1" class="checker-white"/>
      <polygon points="-7959.8,-6953.1 -7958.9,-6868.8 -8043.2,-6867.9 -8044.1,-6952.2" class="checker-black"/>
      <polygon points="-8044.1,-6952.2 -8043.2,-6867.9 -8127.6,-6866.9 -8128.5,-6951.3" class="checker-white"/>
      <polygon points="-7874.6,-6869.7 -7873.7,-6785.4 -7958.0,-6784.4 -7958.9,-6868.8" class="checker-black"/>
      <polygon points="-7958.9,-6868.8 -7958.0,-6784.4 -8042.3,-6783.5 -8043.2,-6867.9" class="checker-white"/>
      <polygon points="-8043.2,-6867.9 -8042.3,-6783.5 -8126.6,-6782.6 -8127.6,-6866.9" class="checker-black"/>
      <polygon points="-7873.7,-6785.4 -7872.7,-6701.0 -7957.1,-6700.1 -7958.0,-6784.4" class="checker-white"/>
      <polygon points="-7958.0,-6784.4 -7957.1,-6700.1 -8041.4,-6699.2 -8042.3,-6783.5" class="checker-black"/>
      <polygon points="-8042.3,-6783.5 -8041.4,-6699.2 -8125.7,-6698.3 -8126.6,-6782.6" class="checker-white"/>
      <polygon points="-7872.7,-6701.0 -7871.8,-6616.7 -7956.1,-6615.8 -7957.1,-6700.1" class="checker-black"/>
      <polygon points="-7957.1,-6700.1 -7956.1,-6615.8 -8040.5,-6614.9 -8041.4,-6699.2" class="checker-white"/>
      <polygon points="-8041.4,-6699.2 -8040.5,-6614.9 -8124.8,-6614.0 -8125.7,-6698.3" class="checker-black"/>
      <polyline points="-8134.3,-6192.2 -7992.2,-6053.1 -7853.2,-6195.2" class="chevron"/>
      <polyline points="-8133.1,-6079.7 -7991.0,-5940.7 -7852.0,-6082.8" class="chevron"/>
      <polyline points="-8131.8,-5967.3 -7989.8,-5828.3 -7850.7,-5970.3" class="chevron"/>
    </g>

    <g id="car-markers"></g>

  </g>
</svg>
