<?xml version="1.0" encoding="utf-8"?>
<?xml-stylesheet type="text/css" href="../../css/tracks.css"?>
<svg xmlns="http://www.w3.org/2000/svg" viewBox="-465.4 246.0 960.0 466.6">
  <title>Montreal</title>

  <g id="track-root" transform="translate(0, 466.62) scale(1, -1) scale(0.042408) translate(-718.50, -7243.50) rotate(62, 718.50, 7243.50)" data-scale="0.042408" data-rotation="62.0">

    <g id="track-outline">
      <path d="M 3353.0 920.0 L 3363.0 851.0 L 3372.0 771.0 L 3387.0 611.0 L 3394.0 481.0 L 3394.0 476.0 L 3396.0 351.0 L 3395.0 346.0 L 3394.0 220.0 L 3392.0 182.0 L 3381.0 -10.0 L 3378.0 -48.0 L 3370.0 -142.0 L 3359.0 -243.0 L 3349.0 -332.0 L 3341.0 -395.0 L 3326.0 -532.0 L 3322.0 -562.0 L 3312.0 -649.0 L 3300.0 -758.0 L 3299.0 -761.0 L 3290.0 -862.0 L 3282.0 -997.0 L 3281.0 -1056.0 L 3280.0 -1092.0 L 3284.0 -1176.0 L 3291.0 -1214.0 L 3313.0 -1313.0 L 3315.0 -1321.0 L 3339.0 -1384.0 L 3348.0 -1399.0 L 3424.0 -1510.0 L 3448.0 -1537.0 L 3507.0 -1587.0 L 3542.0 -1612.0 L 3588.0 -1644.0 L 3618.0 -1663.0 L 3667.0 -1690.0 L 3727.0 -1723.0 L 3785.0 -1755.0 L 3814.0 -1778.0 L 3820.0 -1783.0 L 3841.0 -1804.0 L 3848.0 -1811.0 L 3860.0 -1827.0 L 3877.0 -1855.0 L 3887.0 -1905.0 L 3885.0 -1958.0 L 3885.0 -1972.0 L 3879.0 -2019.0 L 3865.0 -2051.0 L 3856.0 -2075.0 L 3855.0 -2076.0 L 3846.0 -2101.0 L 3825.0 -2133.0 L 3779.0 -2188.0 L 3776.0 -2193.0 L 3741.0 -2222.0 L 3729.0 -2227.0 L 3716.0 -2232.0 L 3662.0 -2253.0 L 3621.0 -2261.0 L 3601.0 -2265.0 L 3552.0 -2270.0 L 3542.0 -2271.0 L 3515.8 -2271.8" class="track-outline" data-sector="1"/>
      <path d="M 3515.8 -2271.8 L 3478.0 -2273.0 L 3453.0 -2273.0 L 3384.0 -2272.0 L 3303.0 -2266.0 L 3282.0 -2265.0 L 3138.0 -2245.0 L 3105.0 -2238.0 L 3014.0 -2215.0 L 2959.0 -2199.0 L 2927.0 -2189.0 L 2846.0 -2164.0 L 2725.0 -2124.0 L 2714.0 -2121.0 L 2642.0 -2096.0 L 2615.0 -2086.0 L 2502.0 -2041.0 L 2483.0 -2033.0 L 2373.0 -1981.0 L 2301.0 -1943.0 L 2233.0 -1905.0 L 2159.0 -1859.0 L 2151.0 -1854.0 L 2069.0 -1801.0 L 2036.0 -1779.0 L 1956.0 -1724.0 L 1871.0 -1663.0 L 1832.0 -1635.0 L 1767.0 -1587.0 L 1728.0 -1558.0 L 1691.7 -1530.0" class="track-outline" data-sector="2"/>
      <path d="M 1691.7 -1530.0 L 1662.0 -1507.0 L 1624.0 -1477.0 L 1520.0 -1394.0 L 1387.0 -1287.0 L 1301.0 -1217.0 L 1274.0 -1195.0 L 1151.0 -1096.0 L 1140.0 -1087.0 L 1062.0 -1022.0 L 1004.0 -970.0 L 971.0 -939.0 L 895.0 -859.0 L 832.0 -780.0 L 766.0 -659.0 L 763.0 -654.0 L 740.0 -609.0 L 743.0 -558.0 L 746.0 -507.0 L 752.0 -427.0 L 756.0 -389.0 L 759.0 -375.0 L 768.0 -281.0 L 769.0 -275.0 L 762.0 -133.0 L 760.0 -113.0 L 745.0 -36.0 L 741.0 -21.0 L 724.0 28.0 L 714.0 55.0 L 676.0 128.0 L 655.0 159.0 L 637.0 186.0 L 610.8 219.5" class="track-outline" data-sector="3"/>
      <path d="M 610.8 219.5 L 576.0 264.0 L 547.0 302.0 L 529.0 323.0 L 515.0 342.0 L 437.0 440.0 L 424.0 455.0 L 379.0 509.0 L 370.0 522.0 L 336.0 563.0 L 315.0 591.0 L 288.0 623.0 L 221.0 703.0 L 191.0 736.0 L 127.0 808.0 L 117.0 817.0 L 72.0 865.0 L 21.0 913.0 L -27.0 958.0 L -64.0 990.0 L -155.0 1066.0 L -157.0 1067.0 L -251.0 1142.0 L -273.0 1159.0 L -330.0 1204.0 L -419.0 1275.0 L -457.0 1307.0 L -581.0 1422.0 L -589.0 1430.0 L -699.0 1575.0 L -744.0 1654.0 L -774.0 1715.0 L -800.5 1781.1" class="track-outline" data-sector="4"/>
      <path d="M -800.5 1781.1 L -831.0 1857.0 L -860.0 1938.0 L -877.0 1992.0 L -895.0 2058.0 L -922.0 2180.0 L -922.0 2184.0 L -938.0 2313.0 L -943.0 2436.0 L -943.0 2440.0 L -944.0 2508.0 L -944.0 2584.0 L -943.0 2682.0 L -941.0 2759.0 L -936.0 2876.0 L -935.0 2916.0 L -928.0 3060.0 L -925.0 3104.0 L -924.1 3118.9" class="track-outline" data-sector="5"/>
      <path d="M -924.1 3118.9 L -920.0 3191.0 L -918.0 3206.0 L -915.0 3251.0 L -912.0 3367.0 L -912.0 3396.0 L -927.0 3574.0 L -931.0 3605.0 L -939.0 3641.0 L -944.0 3656.0 L -954.0 3689.0 L -976.0 3752.0 L -984.0 3772.0 L -1005.0 3812.0 L -1023.0 3840.0 L -1037.0 3859.0 L -1069.0 3895.0 L -1078.0 3903.0 L -1153.0 3954.0 L -1158.0 3956.0 L -1205.0 3972.0 L -1236.0 3978.0 L -1263.0 3982.0 L -1281.0 3983.0 L -1368.0 3981.0 L -1377.0 3980.0 L -1393.0 3979.0 L -1435.0 3975.0 L -1483.0 3972.0 L -1489.0 3971.0 L -1533.0 3970.0 L -1534.0 3970.0 L -1586.0 3970.0 L -1635.0 3974.0 L -1676.0 3980.0 L -1711.0 3988.0 L -1765.0 4007.0 L -1770.0 4009.0 L -1827.0 4039.0 L -1841.0 4047.0 L -1907.0 4095.0 L -1950.0 4133.0 L -1971.0 4155.0 L -2015.0 4205.0 L -2035.0 4230.0 L -2084.0 4300.0 L -2085.0 4302.0 L -2125.0 4370.0 L -2141.0 4404.0 L -2150.7 4427.3" class="track-outline" data-sector="6"/>
      <path d="M -2150.7 4427.3 L -2199.0 4543.0 L -2212.0 4580.0 L -2230.0 4642.0 L -2243.0 4701.0 L -2255.0 4763.0 L -2272.0 4848.0 L -2274.0 4861.0 L -2291.0 4970.0 L -2291.0 4972.0 L -2309.0 5117.0 L -2314.0 5151.0 L -2323.0 5221.0 L -2327.0 5259.0 L -2336.0 5341.0 L -2342.0 5404.0 L -2353.0 5501.0 L -2366.0 5630.0 L -2372.0 5693.0 L -2379.0 5787.0 L -2383.0 5824.0 L -2391.0 5919.0 L -2393.0 5944.0 L -2405.0 6094.0 L -2408.0 6142.0 L -2420.0 6303.0 L -2422.0 6339.0 L -2431.0 6509.0 L -2437.0 6620.0 L -2440.0 6685.0 L -2444.0 6796.0 L -2449.0 7090.0 L -2450.0 7126.0 L -2449.0 7242.0 L -2446.9 7329.7" class="track-outline" data-sector="7"/>
      <path d="M -2446.9 7329.7 L -2446.0 7368.0 L -2445.0 7418.0 L -2441.0 7541.0 L -2437.0 7622.0 L -2432.0 7714.0 L -2428.0 7759.0 L -2417.0 7920.0 L -2411.0 7986.0 L -2399.0 8111.0 L -2393.0 8159.0 L -2379.0 8292.0 L -2378.0 8304.0 L -2355.0 8481.0 L -2354.0 8485.0 L -2335.0 8615.0 L -2331.0 8643.0 L -2313.0 8745.0 L -2312.0 8757.0 L -2285.0 8902.0 L -2265.0 9008.0 L -2260.0 9028.0 L -2237.0 9139.0 L -2204.0 9286.0 L -2202.0 9290.0 L -2152.0 9503.0 L -2148.7 9516.1" class="track-outline" data-sector="8"/>
      <path d="M -2148.7 9516.1 L -2137.0 9563.0 L -2111.0 9671.0 L -2109.0 9681.0 L -2094.0 9745.0 L -2076.0 9819.0 L -2057.0 9906.0 L -2051.0 9930.0 L -2038.0 9993.0 L -2019.0 10074.0 L -2009.0 10118.0 L -1978.0 10234.0 L -1975.0 10243.0 L -1960.0 10294.0 L -1949.0 10326.0 L -1929.0 10375.0 L -1886.0 10449.0 L -1878.0 10464.0 L -1851.0 10497.0 L -1841.0 10504.0 L -1800.0 10530.0 L -1785.0 10540.0 L -1742.0 10557.0 L -1669.0 10575.0 L -1667.0 10575.0 L -1619.0 10586.0 L -1617.0 10586.0 L -1557.0 10604.0 L -1542.0 10610.0 L -1513.0 10622.0 L -1433.0 10664.0 L -1407.0 10680.0 L -1371.0 10703.0 L -1317.0 10748.0 L -1310.0 10755.0 L -1267.0 10798.0 L -1227.0 10844.0 L -1204.0 10875.0 L -1169.0 10923.0 L -1134.0 10988.0 L -1102.0 11055.0 L -1077.0 11113.0 L -1045.0 11198.0 L -1044.0 11200.0 L -1010.0 11309.0 L -994.0 11362.0 L -992.3 11368.5" class="track-outline" data-sector="9"/>
      <path d="M -992.3 11368.5 L -969.0 11457.0 L -945.0 11549.0 L -930.0 11614.0 L -897.0 11747.0 L -880.0 11822.0 L -874.0 11842.0 L -834.0 12007.0 L -824.0 12054.0 L -816.0 12088.0 L -798.0 12175.0 L -793.0 12195.0 L -771.0 12310.0 L -755.0 12392.0 L -748.0 12437.0 L -735.0 12507.0 L -707.0 12673.0 L -702.0 12702.0 L -686.0 12807.0 L -685.0 12809.0 L -669.0 12916.0 L -660.0 12973.0 L -648.0 13054.0 L -643.0 13084.0 L -626.0 13207.0 L -613.0 13308.0 L -602.0 13406.0 L -600.0 13423.0 L -586.0 13565.0 L -583.0 13594.0 L -577.0 13655.0 L -566.0 13858.0 L -565.0 13861.0 L -561.0 13977.0 L -560.0 13980.0 L -557.0 14097.0 L -554.0 14263.0 L -553.0 14285.0 L -553.0 14391.0 L -552.0 14467.0 L -555.0 14658.0 L -557.0 14755.0 L -559.0 14782.0 L -568.0 14905.0 L -571.0 14939.0 L -587.0 15075.0 L -618.0 15255.4" class="track-outline" data-sector="10"/>
      <path d="M -618.0 15255.4 L -619.0 15261.0 L -648.0 15401.0 L -661.0 15465.0 L -726.0 15736.0 L -726.0 15738.0 L -747.0 15826.0 L -751.0 15843.0 L -779.0 15964.0 L -784.0 15990.0 L -803.0 16072.0 L -808.0 16098.0 L -829.0 16197.0 L -844.0 16268.0 L -849.0 16295.0 L -857.0 16340.0 L -866.0 16391.0 L -867.0 16399.0 L -870.0 16412.0 L -877.0 16478.0 L -879.0 16495.0 L -880.0 16558.0 L -880.0 16562.0 L -871.0 16617.0 L -866.0 16638.0 L -858.0 16658.0 L -838.0 16686.0 L -810.0 16719.0 L -794.0 16732.0 L -772.0 16742.0 L -742.0 16752.0 L -732.0 16756.0 L -709.0 16760.0 L -704.0 16760.0 L -648.0 16754.0 L -646.0 16754.0 L -618.0 16741.0 L -613.0 16739.0 L -589.0 16723.0 L -587.0 16722.0 L -553.0 16686.0 L -545.0 16676.0 L -542.0 16671.0 L -527.0 16646.0 L -518.0 16630.0 L -505.0 16603.0 L -502.0 16597.0 L -493.0 16577.0 L -476.0 16533.0 L -475.0 16531.0 L -465.0 16500.0 L -462.0 16492.0 L -437.0 16391.0 L -434.0 16375.0 L -428.0 16348.0 L -421.0 16299.0 L -420.0 16297.0 L -412.0 16222.0 L -408.0 16185.0 L -407.0 16182.0 L -401.0 16104.0 L -393.0 15995.0 L -389.0 15955.0 L -382.0 15891.0 L -381.0 15878.0 L -359.0 15744.0 L -358.0 15740.0 L -355.0 15724.0 L -335.0 15643.0 L -314.0 15569.0 L -285.0 15484.0 L -268.0 15435.0 L -230.0 15336.0 L -228.0 15329.0 L -215.6 15299.3" class="track-outline" data-sector="11"/>
      <path d="M -215.6 15299.3 L -197.0 15255.0 L -188.0 15232.0 L -124.0 15081.0 L -94.0 15009.0 L -70.0 14954.0 L -60.0 14929.0 L 29.0 14718.0 L 35.0 14703.0 L 75.0 14610.0 L 117.0 14512.0 L 117.0 14509.0 L 171.0 14388.0 L 172.0 14384.0 L 264.0 14173.0 L 294.0 14103.0 L 341.0 13995.0 L 372.0 13927.0 L 407.0 13848.0 L 424.0 13807.0 L 498.0 13634.0 L 504.0 13622.0 L 539.0 13536.0 L 561.0 13486.0 L 588.0 13420.0 L 619.0 13348.0 L 687.0 13182.0 L 740.0 13053.0 L 781.0 12949.0 L 822.0 12842.0 L 831.0 12821.0 L 866.0 12730.0 L 887.0 12675.0 L 919.0 12586.0 L 952.0 12491.0 L 992.0 12374.0 L 1052.0 12189.0 L 1073.0 12117.0 L 1076.7 12105.0" class="track-outline" data-sector="12"/>
      <path d="M 1076.7 12105.0 L 1092.0 12056.0 L 1144.0 11878.0 L 1167.0 11793.0 L 1188.0 11719.0 L 1210.0 11633.0 L 1238.0 11525.0 L 1243.0 11503.0 L 1280.0 11362.0 L 1293.0 11308.0 L 1328.0 11165.0 L 1376.0 10967.0 L 1388.0 10912.0 L 1399.0 10867.0 L 1436.0 10712.0 L 1443.0 10683.0 L 1474.0 10548.0 L 1506.0 10408.0 L 1538.0 10273.0 L 1545.0 10244.0 L 1573.0 10125.0 L 1578.0 10103.0 L 1605.0 9988.0 L 1617.0 9932.0 L 1657.0 9762.0 L 1661.0 9749.0 L 1697.0 9594.0 L 1713.0 9522.0 L 1729.0 9456.0 L 1794.0 9175.0 L 1810.0 9111.0 L 1830.0 9023.0 L 1854.0 8920.0 L 1890.0 8759.0 L 1941.0 8537.0 L 1966.0 8426.0 L 1993.0 8310.0 L 2048.0 8066.0 L 2090.0 7886.0 L 2113.0 7785.0 L 2123.0 7743.0 L 2132.0 7701.0 L 2166.0 7563.0 L 2186.0 7480.0 L 2212.0 7367.0 L 2253.0 7199.0 L 2284.0 7066.0 L 2295.0 7023.0 L 2312.0 6950.9" class="track-outline" data-sector="13"/>
      <path d="M 2312.0 6950.9 L 2319.0 6921.0 L 2354.0 6776.0 L 2395.0 6603.0 L 2404.0 6564.0 L 2448.0 6377.0 L 2454.0 6354.0 L 2480.0 6243.0 L 2497.0 6167.0 L 2530.0 6031.0 L 2536.0 6002.0 L 2558.0 5910.0 L 2566.0 5871.0 L 2584.0 5782.0 L 2586.0 5770.0 L 2598.0 5694.0 L 2603.0 5634.0 L 2605.0 5613.0 L 2605.0 5559.0 L 2602.0 5511.0 L 2592.0 5459.0 L 2587.0 5441.0 L 2577.0 5416.0 L 2541.0 5344.0 L 2535.0 5334.0 L 2511.0 5295.0 L 2497.0 5273.0 L 2459.0 5208.0 L 2455.0 5200.0 L 2430.0 5141.0 L 2415.0 5085.0 L 2401.0 5016.0 L 2400.0 5014.0 L 2396.0 4947.0 L 2396.0 4940.0 L 2396.0 4886.0 L 2398.0 4823.0 L 2399.0 4809.0 L 2406.0 4731.0 L 2408.0 4713.0 L 2417.0 4650.0 L 2419.0 4632.0 L 2433.0 4556.0 L 2462.0 4421.0 L 2471.0 4379.0 L 2477.8 4353.2" class="track-outline" data-sector="14"/>
      <path d="M 2477.8 4353.2 L 2492.0 4299.0 L 2496.0 4287.0 L 2535.0 4147.0 L 2555.0 4077.0 L 2587.0 3969.0 L 2591.0 3953.0 L 2605.0 3904.0 L 2618.0 3861.0 L 2634.0 3803.0 L 2640.0 3784.0 L 2672.0 3671.0 L 2704.0 3550.0 L 2722.0 3483.0 L 2729.0 3455.0 L 2757.0 3350.0 L 2782.0 3252.0 L 2792.0 3212.0 L 2807.0 3152.0 L 2844.0 3005.0 L 2872.0 2897.0 L 2892.0 2818.0 L 2931.0 2666.0 L 2936.0 2648.0 L 2974.0 2500.0 L 2977.0 2484.0 L 3017.0 2337.0 L 3050.0 2209.0 L 3075.0 2115.0 L 3087.0 2068.0 L 3105.0 2002.0 L 3138.0 1874.0 L 3146.0 1846.0 L 3205.0 1617.0 L 3219.0 1559.0 L 3248.0 1441.0 L 3248.0 1438.0 L 3277.0 1319.0 L 3290.0 1259.0 L 3321.0 1109.0 L 3324.0 1094.0 L 3358.0 877.0 L 3367.0 819.0 L 3367.0 815.0 L 3353.0 920.0" class="track-outline" data-sector="15"/>
    </g>

    <g id="track-sectors">
      <path d="M 3353.0 920.0 L 3363.0 851.0 L 3372.0 771.0 L 3387.0 611.0 L 3394.0 481.0 L 3394.0 476.0 L 3396.0 351.0 L 3395.0 346.0 L 3394.0 220.0 L 3392.0 182.0 L 3381.0 -10.0 L 3378.0 -48.0 L 3370.0 -142.0 L 3359.0 -243.0 L 3349.0 -332.0 L 3341.0 -395.0 L 3326.0 -532.0 L 3322.0 -562.0 L 3312.0 -649.0 L 3300.0 -758.0 L 3299.0 -761.0 L 3290.0 -862.0 L 3282.0 -997.0 L 3281.0 -1056.0 L 3280.0 -1092.0 L 3284.0 -1176.0 L 3291.0 -1214.0 L 3313.0 -1313.0 L 3315.0 -1321.0 L 3339.0 -1384.0 L 3348.0 -1399.0 L 3424.0 -1510.0 L 3448.0 -1537.0 L 3507.0 -1587.0 L 3542.0 -1612.0 L 3588.0 -1644.0 L 3618.0 -1663.0 L 3667.0 -1690.0 L 3727.0 -1723.0 L 3785.0 -1755.0 L 3814.0 -1778.0 L 3820.0 -1783.0 L 3841.0 -1804.0 L 3848.0 -1811.0 L 3860.0 -1827.0 L 3877.0 -1855.0 L 3887.0 -1905.0 L 3885.0 -1958.0 L 3885.0 -1972.0 L 3879.0 -2019.0 L 3865.0 -2051.0 L 3856.0 -2075.0 L 3855.0 -2076.0 L 3846.0 -2101.0 L 3825.0 -2133.0 L 3779.0 -2188.0 L 3776.0 -2193.0 L 3741.0 -2222.0 L 3729.0 -2227.0 L 3716.0 -2232.0 L 3662.0 -2253.0 L 3621.0 -2261.0 L 3601.0 -2265.0 L 3552.0 -2270.0 L 3542.0 -2271.0 L 3515.8 -2271.8" class="track" data-sector="1"/>
      <path d="M 3515.8 -2271.8 L 3478.0 -2273.0 L 3453.0 -2273.0 L 3384.0 -2272.0 L 3303.0 -2266.0 L 3282.0 -2265.0 L 3138.0 -2245.0 L 3105.0 -2238.0 L 3014.0 -2215.0 L 2959.0 -2199.0 L 2927.0 -2189.0 L 2846.0 -2164.0 L 2725.0 -2124.0 L 2714.0 -2121.0 L 2642.0 -2096.0 L 2615.0 -2086.0 L 2502.0 -2041.0 L 2483.0 -2033.0 L 2373.0 -1981.0 L 2301.0 -1943.0 L 2233.0 -1905.0 L 2159.0 -1859.0 L 2151.0 -1854.0 L 2069.0 -1801.0 L 2036.0 -1779.0 L 1956.0 -1724.0 L 1871.0 -1663.0 L 1832.0 -1635.0 L 1767.0 -1587.0 L 1728.0 -1558.0 L 1691.7 -1530.0" class="track" data-sector="2"/>
      <path d="M 1691.7 -1530.0 L 1662.0 -1507.0 L 1624.0 -1477.0 L 1520.0 -1394.0 L 1387.0 -1287.0 L 1301.0 -1217.0 L 1274.0 -1195.0 L 1151.0 -1096.0 L 1140.0 -1087.0 L 1062.0 -1022.0 L 1004.0 -970.0 L 971.0 -939.0 L 895.0 -859.0 L 832.0 -780.0 L 766.0 -659.0 L 763.0 -654.0 L 740.0 -609.0 L 743.0 -558.0 L 746.0 -507.0 L 752.0 -427.0 L 756.0 -389.0 L 759.0 -375.0 L 768.0 -281.0 L 769.0 -275.0 L 762.0 -133.0 L 760.0 -113.0 L 745.0 -36.0 L 741.0 -21.0 L 724.0 28.0 L 714.0 55.0 L 676.0 128.0 L 655.0 159.0 L 637.0 186.0 L 610.8 219.5" class="track" data-sector="3"/>
      <path d="M 610.8 219.5 L 576.0 264.0 L 547.0 302.0 L 529.0 323.0 L 515.0 342.0 L 437.0 440.0 L 424.0 455.0 L 379.0 509.0 L 370.0 522.0 L 336.0 563.0 L 315.0 591.0 L 288.0 623.0 L 221.0 703.0 L 191.0 736.0 L 127.0 808.0 L 117.0 817.0 L 72.0 865.0 L 21.0 913.0 L -27.0 958.0 L -64.0 990.0 L -155.0 1066.0 L -157.0 1067.0 L -251.0 1142.0 L -273.0 1159.0 L -330.0 1204.0 L -419.0 1275.0 L -457.0 1307.0 L -581.0 1422.0 L -589.0 1430.0 L -699.0 1575.0 L -744.0 1654.0 L -774.0 1715.0 L -800.5 1781.1" class="track" data-sector="4"/>
      <path d="M -800.5 1781.1 L -831.0 1857.0 L -860.0 1938.0 L -877.0 1992.0 L -895.0 2058.0 L -922.0 2180.0 L -922.0 2184.0 L -938.0 2313.0 L -943.0 2436.0 L -943.0 2440.0 L -944.0 2508.0 L -944.0 2584.0 L -943.0 2682.0 L -941.0 2759.0 L -936.0 2876.0 L -935.0 2916.0 L -928.0 3060.0 L -925.0 3104.0 L -924.1 3118.9" class="track" data-sector="5"/>
      <path d="M -924.1 3118.9 L -920.0 3191.0 L -918.0 3206.0 L -915.0 3251.0 L -912.0 3367.0 L -912.0 3396.0 L -927.0 3574.0 L -931.0 3605.0 L -939.0 3641.0 L -944.0 3656.0 L -954.0 3689.0 L -976.0 3752.0 L -984.0 3772.0 L -1005.0 3812.0 L -1023.0 3840.0 L -1037.0 3859.0 L -1069.0 3895.0 L -1078.0 3903.0 L -1153.0 3954.0 L -1158.0 3956.0 L -1205.0 3972.0 L -1236.0 3978.0 L -1263.0 3982.0 L -1281.0 3983.0 L -1368.0 3981.0 L -1377.0 3980.0 L -1393.0 3979.0 L -1435.0 3975.0 L -1483.0 3972.0 L -1489.0 3971.0 L -1533.0 3970.0 L -1534.0 3970.0 L -1586.0 3970.0 L -1635.0 3974.0 L -1676.0 3980.0 L -1711.0 3988.0 L -1765.0 4007.0 L -1770.0 4009.0 L -1827.0 4039.0 L -1841.0 4047.0 L -1907.0 4095.0 L -1950.0 4133.0 L -1971.0 4155.0 L -2015.0 4205.0 L -2035.0 4230.0 L -2084.0 4300.0 L -2085.0 4302.0 L -2125.0 4370.0 L -2141.0 4404.0 L -2150.7 4427.3" class="track" data-sector="6"/>
      <path d="M -2150.7 4427.3 L -2199.0 4543.0 L -2212.0 4580.0 L -2230.0 4642.0 L -2243.0 4701.0 L -2255.0 4763.0 L -2272.0 4848.0 L -2274.0 4861.0 L -2291.0 4970.0 L -2291.0 4972.0 L -2309.0 5117.0 L -2314.0 5151.0 L -2323.0 5221.0 L -2327.0 5259.0 L -2336.0 5341.0 L -2342.0 5404.0 L -2353.0 5501.0 L -2366.0 5630.0 L -2372.0 5693.0 L -2379.0 5787.0 L -2383.0 5824.0 L -2391.0 5919.0 L -2393.0 5944.0 L -2405.0 6094.0 L -2408.0 6142.0 L -2420.0 6303.0 L -2422.0 6339.0 L -2431.0 6509.0 L -2437.0 6620.0 L -2440.0 6685.0 L -2444.0 6796.0 L -2449.0 7090.0 L -2450.0 7126.0 L -2449.0 7242.0 L -2446.9 7329.7" class="track" data-sector="7"/>
      <path d="M -2446.9 7329.7 L -2446.0 7368.0 L -2445.0 7418.0 L -2441.0 7541.0 L -2437.0 7622.0 L -2432.0 7714.0 L -2428.0 7759.0 L -2417.0 7920.0 L -2411.0 7986.0 L -2399.0 8111.0 L -2393.0 8159.0 L -2379.0 8292.0 L -2378.0 8304.0 L -2355.0 8481.0 L -2354.0 8485.0 L -2335.0 8615.0 L -2331.0 8643.0 L -2313.0 8745.0 L -2312.0 8757.0 L -2285.0 8902.0 L -2265.0 9008.0 L -2260.0 9028.0 L -2237.0 9139.0 L -2204.0 9286.0 L -2202.0 9290.0 L -2152.0 9503.0 L -2148.7 9516.1" class="track" data-sector="8"/>
      <path d="M -2148.7 9516.1 L -2137.0 9563.0 L -2111.0 9671.0 L -2109.0 9681.0 L -2094.0 9745.0 L -2076.0 9819.0 L -2057.0 9906.0 L -2051.0 9930.0 L -2038.0 9993.0 L -2019.0 10074.0 L -2009.0 10118.0 L -1978.0 10234.0 L -1975.0 10243.0 L -1960.0 10294.0 L -1949.0 10326.0 L -1929.0 10375.0 L -1886.0 10449.0 L -1878.0 10464.0 L -1851.0 10497.0 L -1841.0 10504.0 L -1800.0 10530.0 L -1785.0 10540.0 L -1742.0 10557.0 L -1669.0 10575.0 L -1667.0 10575.0 L -1619.0 10586.0 L -1617.0 10586.0 L -1557.0 10604.0 L -1542.0 10610.0 L -1513.0 10622.0 L -1433.0 10664.0 L -1407.0 10680.0 L -1371.0 10703.0 L -1317.0 10748.0 L -1310.0 10755.0 L -1267.0 10798.0 L -1227.0 10844.0 L -1204.0 10875.0 L -1169.0 10923.0 L -1134.0 10988.0 L -1102.0 11055.0 L -1077.0 11113.0 L -1045.0 11198.0 L -1044.0 11200.0 L -1010.0 11309.0 L -994.0 11362.0 L -992.3 11368.5" class="track" data-sector="9"/>
      <path d="M -992.3 11368.5 L -969.0 11457.0 L -945.0 11549.0 L -930.0 11614.0 L -897.0 11747.0 L -880.0 11822.0 L -874.0 11842.0 L -834.0 12007.0 L -824.0 12054.0 L -816.0 12088.0 L -798.0 12175.0 L -793.0 12195.0 L -771.0 12310.0 L -755.0 12392.0 L -748.0 12437.0 L -735.0 12507.0 L -707.0 12673.0 L -702.0 12702.0 L -686.0 12807.0 L -685.0 12809.0 L -669.0 12916.0 L -660.0 12973.0 L -648.0 13054.0 L -643.0 13084.0 L -626.0 13207.0 L -613.0 13308.0 L -602.0 13406.0 L -600.0 13423.0 L -586.0 13565.0 L -583.0 13594.0 L -577.0 13655.0 L -566.0 13858.0 L -565.0 13861.0 L -561.0 13977.0 L -560.0 13980.0 L -557.0 14097.0 L -554.0 14263.0 L -553.0 14285.0 L -553.0 14391.0 L -552.0 14467.0 L -555.0 14658.0 L -557.0 14755.0 L -559.0 14782.0 L -568.0 14905.0 L -571.0 14939.0 L -587.0 15075.0 L -618.0 15255.4" class="track" data-sector="10"/>
      <path d="M -618.0 15255.4 L -619.0 15261.0 L -648.0 15401.0 L -661.0 15465.0 L -726.0 15736.0 L -726.0 15738.0 L -747.0 15826.0 L -751.0 15843.0 L -779.0 15964.0 L -784.0 15990.0 L -803.0 16072.0 L -808.0 16098.0 L -829.0 16197.0 L -844.0 16268.0 L -849.0 16295.0 L -857.0 16340.0 L -866.0 16391.0 L -867.0 16399.0 L -870.0 16412.0 L -877.0 16478.0 L -879.0 16495.0 L -880.0 16558.0 L -880.0 16562.0 L -871.0 16617.0 L -866.0 16638.0 L -858.0 16658.0 L -838.0 16686.0 L -810.0 16719.0 L -794.0 16732.0 L -772.0 16742.0 L -742.0 16752.0 L -732.0 16756.0 L -709.0 16760.0 L -704.0 16760.0 L -648.0 16754.0 L -646.0 16754.0 L -618.0 16741.0 L -613.0 16739.0 L -589.0 16723.0 L -587.0 16722.0 L -553.0 16686.0 L -545.0 16676.0 L -542.0 16671.0 L -527.0 16646.0 L -518.0 16630.0 L -505.0 16603.0 L -502.0 16597.0 L -493.0 16577.0 L -476.0 16533.0 L -475.0 16531.0 L -465.0 16500.0 L -462.0 16492.0 L -437.0 16391.0 L -434.0 16375.0 L -428.0 16348.0 L -421.0 16299.0 L -420.0 16297.0 L -412.0 16222.0 L -408.0 16185.0 L -407.0 16182.0 L -401.0 16104.0 L -393.0 15995.0 L -389.0 15955.0 L -382.0 15891.0 L -381.0 15878.0 L -359.0 15744.0 L -358.0 15740.0 L -355.0 15724.0 L -335.0 15643.0 L -314.0 15569.0 L -285.0 15484.0 L -268.0 15435.0 L -230.0 15336.0 L -228.0 15329.0 L -215.6 15299.3" class="track" data-sector="11"/>
      <path d="M -215.6 15299.3 L -197.0 15255.0 L -188.0 15232.0 L -124.0 15081.0 L -94.0 15009.0 L -70.0 14954.0 L -60.0 14929.0 L 29.0 14718.0 L 35.0 14703.0 L 75.0 14610.0 L 117.0 14512.0 L 117.0 14509.0 L 171.0 14388.0 L 172.0 14384.0 L 264.0 14173.0 L 294.0 14103.0 L 341.0 13995.0 L 372.0 13927.0 L 407.0 13848.0 L 424.0 13807.0 L 498.0 13634.0 L 504.0 13622.0 L 539.0 13536.0 L 561.0 13486.0 L 588.0 13420.0 L 619.0 13348.0 L 687.0 13182.0 L 740.0 13053.0 L 781.0 12949.0 L 822.0 12842.0 L 831.0 12821.0 L 866.0 12730.0 L 887.0 12675.0 L 919.0 12586.0 L 952.0 12491.0 L 992.0 12374.0 L 1052.0 12189.0 L 1073.0 12117.0 L 1076.7 12105.0" class="track" data-sector="12"/>
      <path d="M 1076.7 12105.0 L 1092.0 12056.0 L 1144.0 11878.0 L 1167.0 11793.0 L 1188.0 11719.0 L 1210.0 11633.0 L 1238.0 11525.0 L 1243.0 11503.0 L 1280.0 11362.0 L 1293.0 11308.0 L 1328.0 11165.0 L 1376.0 10967.0 L 1388.0 10912.0 L 1399.0 10867.0 L 1436.0 10712.0 L 1443.0 10683.0 L 1474.0 10548.0 L 1506.0 10408.0 L 1538.0 10273.0 L 1545.0 10244.0 L 1573.0 10125.0 L 1578.0 10103.0 L 1605.0 9988.0 L 1617.0 9932.0 L 1657.0 9762.0 L 1661.0 9749.0 L 1697.0 9594.0 L 1713.0 9522.0 L 1729.0 9456.0 L 1794.0 9175.0 L 1810.0 9111.0 L 1830.0 9023.0 L 1854.0 8920.0 L 1890.0 8759.0 L 1941.0 8537.0 L 1966.0 8426.0 L 1993.0 8310.0 L 2048.0 8066.0 L 2090.0 7886.0 L 2113.0 7785.0 L 2123.0 7743.0 L 2132.0 7701.0 L 2166.0 7563.0 L 2186.0 7480.0 L 2212.0 7367.0 L 2253.0 7199.0 L 2284.0 7066.0 L 2295.0 7023.0 L 2312.0 6950.9" class="track" data-sector="13"/>
      <path d="M 2312.0 6950.9 L 2319.0 6921.0 L 2354.0 6776.0 L 2395.0 6603.0 L 2404.0 6564.0 L 2448.0 6377.0 L 2454.0 6354.0 L 2480.0 6243.0 L 2497.0 6167.0 L 2530.0 6031.0 L 2536.0 6002.0 L 2558.0 5910.0 L 2566.0 5871.0 L 2584.0 5782.0 L 2586.0 5770.0 L 2598.0 5694.0 L 2603.0 5634.0 L 2605.0 5613.0 L 2605.0 5559.0 L 2602.0 5511.0 L 2592.0 5459.0 L 2587.0 5441.0 L 2577.0 5416.0 L 2541.0 5344.0 L 2535.0 5334.0 L 2511.0 5295.0 L 2497.0 5273.0 L 2459.0 5208.0 L 2455.0 5200.0 L 2430.0 5141.0 L 2415.0 5085.0 L 2401.0 5016.0 L 2400.0 5014.0 L 2396.0 4947.0 L 2396.0 4940.0 L 2396.0 4886.0 L 2398.0 4823.0 L 2399.0 4809.0 L 2406.0 4731.0 L 2408.0 4713.0 L 2417.0 4650.0 L 2419.0 4632.0 L 2433.0 4556.0 L 2462.0 4421.0 L 2471.0 4379.0 L 2477.8 4353.2" class="track" data-sector="14"/>
      <path d="M 2477.8 4353.2 L 2492.0 4299.0 L 2496.0 4287.0 L 2535.0 4147.0 L 2555.0 4077.0 L 2587.0 3969.0 L 2591.0 3953.0 L 2605.0 3904.0 L 2618.0 3861.0 L 2634.0 3803.0 L 2640.0 3784.0 L 2672.0 3671.0 L 2704.0 3550.0 L 2722.0 3483.0 L 2729.0 3455.0 L 2757.0 3350.0 L 2782.0 3252.0 L 2792.0 3212.0 L 2807.0 3152.0 L 2844.0 3005.0 L 2872.0 2897.0 L 2892.0 2818.0 L 2931.0 2666.0 L 2936.0 2648.0 L 2974.0 2500.0 L 2977.0 2484.0 L 3017.0 2337.0 L 3050.0 2209.0 L 3075.0 2115.0 L 3087.0 2068.0 L 3105.0 2002.0 L 3138.0 1874.0 L 3146.0 1846.0 L 3205.0 1617.0 L 3219.0 1559.0 L 3248.0 1441.0 L 3248.0 1438.0 L 3277.0 1319.0 L 3290.0 1259.0 L 3321.0 1109.0 L 3324.0 1094.0 L 3358.0 877.0 L 3367.0 819.0 L 3367.0 815.0 L 3353.0 920.0" class="track" data-sector="15"/>
    </g>

    <g id="marshal-lights">
      <g class="marshal-light-marker" data-light="1">
        <rect x="3294.0" y="861.0" width="117.9" height="117.9" class="marshal-light-bg"/>
        <text x="3353.0" y="920.0" class="marshal-light-label">1</text>
      </g>
      <g class="marshal-light-marker" data-light="2">
        <rect x="3440.0" y="-2331.3" width="117.9" height="117.9" class="marshal-light-bg"/>
        <text x="3498.9" y="-2272.3" class="marshal-light-label">2</text>
      </g>
      <g class="marshal-light-marker" data-light="3">
        <rect x="1603.3" y="-1566.2" width="117.9" height="117.9" class="marshal-light-bg"/>
        <text x="1662.3" y="-1507.2" class="marshal-light-label">3</text>
      </g>
      <g class="marshal-light-marker" data-light="4">
        <rect x="618.3" y="66.7" width="117.9" height="117.9" class="marshal-light-bg"/>
        <text x="677.2" y="125.6" class="marshal-light-label">4</text>
      </g>
      <g class="marshal-light-marker" data-light="5">
        <rect x="-833.0" y="1656.1" width="117.9" height="117.9" class="marshal-light-bg"/>
        <text x="-774.0" y="1715.1" class="marshal-light-label">5</text>
      </g>
      <g class="marshal-light-marker" data-light="6">
        <rect x="-983.5" y="3053.2" width="117.9" height="117.9" class="marshal-light-bg"/>
        <text x="-924.5" y="3112.1" class="marshal-light-label">6</text>
      </g>
      <g class="marshal-light-marker" data-light="7">
        <rect x="-2216.2" y="4383.9" width="117.9" height="117.9" class="marshal-light-bg"/>
        <text x="-2157.2" y="4442.9" class="marshal-light-label">7</text>
      </g>
      <g class="marshal-light-marker" data-light="8">
        <rect x="-2504.8" y="7314.8" width="117.9" height="117.9" class="marshal-light-bg"/>
        <text x="-2445.9" y="7373.7" class="marshal-light-label">8</text>
      </g>
      <g class="marshal-light-marker" data-light="9">
        <rect x="-2147.7" y="9707.4" width="117.9" height="117.9" class="marshal-light-bg"/>
        <text x="-2088.8" y="9766.4" class="marshal-light-label">9</text>
      </g>
      <g class="marshal-light-marker" data-light="10">
        <rect x="-1034.0" y="11375.1" width="117.9" height="117.9" class="marshal-light-bg"/>
        <text x="-975.1" y="11434.0" class="marshal-light-label">10</text>
      </g>
      <g class="marshal-light-marker" data-light="11">
        <rect x="-694.7" y="15282.7" width="117.9" height="117.9" class="marshal-light-bg"/>
        <text x="-635.7" y="15341.7" class="marshal-light-label">11</text>
      </g>
      <g class="marshal-light-marker" data-light="12">
        <rect x="-266.7" y="15221.6" width="117.9" height="117.9" class="marshal-light-bg"/>
        <text x="-207.7" y="15280.6" class="marshal-light-label">12</text>
      </g>
      <g class="marshal-light-marker" data-light="13">
        <rect x="1034.8" y="11991.0" width="117.9" height="117.9" class="marshal-light-bg"/>
        <text x="1093.8" y="12050.0" class="marshal-light-label">13</text>
      </g>
      <g class="marshal-light-marker" data-light="14">
        <rect x="2266.4" y="6835.9" width="117.9" height="117.9" class="marshal-light-bg"/>
        <text x="2325.3" y="6894.9" class="marshal-light-label">14</text>
      </g>
      <g class="marshal-light-marker" data-light="15">
        <rect x="2417.1" y="4300.8" width="117.9" height="117.9" class="marshal-light-bg"/>
        <text x="2476.1" y="4359.7" class="marshal-light-label">15</text>
      </g>
    </g>

    <g id="marshal-sectors">
      <g class="marshal-sector-marker" data-sector="1" data-length="0.0">
        <polygon points="3353.0,778.5 3230.5,990.7 3475.5,990.7" class="marshal-sector-bg"/>
        <text x="3353.0" y="920.0" class="marshal-sector-label">1</text>
      </g>
      <g class="marshal-sector-marker" data-sector="2" data-length="3695.3">
        <polygon points="3515.8,-2413.3 3393.3,-2201.1 3638.4,-2201.1" class="marshal-sector-bg"/>
        <text x="3515.8" y="-2271.8" class="marshal-sector-label">2</text>
      </g>
      <g class="marshal-sector-marker" data-sector="3" data-length="5703.8">
        <polygon points="1691.7,-1671.5 1569.2,-1459.2 1814.3,-1459.2" class="marshal-sector-bg"/>
        <text x="1691.7" y="-1530.0" class="marshal-sector-label">3</text>
      </g>
      <g class="marshal-sector-marker" data-sector="4" data-length="7908.8">
        <polygon points="610.8,78.0 488.3,290.3 733.3,290.3" class="marshal-sector-bg"/>
        <text x="610.8" y="219.5" class="marshal-sector-label">4</text>
      </g>
      <g class="marshal-sector-marker" data-sector="5" data-length="10032.5">
        <polygon points="-800.5,1639.6 -923.1,1851.8 -678.0,1851.8" class="marshal-sector-bg"/>
        <text x="-800.5" y="1781.1" class="marshal-sector-label">5</text>
      </g>
      <g class="marshal-sector-marker" data-sector="6" data-length="11390.7">
        <polygon points="-924.1,2977.4 -1046.7,3189.6 -801.6,3189.6" class="marshal-sector-bg"/>
        <text x="-924.1" y="3118.9" class="marshal-sector-label">6</text>
      </g>
      <g class="marshal-sector-marker" data-sector="7" data-length="13511.0">
        <polygon points="-2150.7,4285.8 -2273.2,4498.0 -2028.2,4498.0" class="marshal-sector-bg"/>
        <text x="-2150.7" y="4427.3" class="marshal-sector-label">7</text>
      </g>
      <g class="marshal-sector-marker" data-sector="8" data-length="16440.8">
        <polygon points="-2446.9,7188.2 -2569.4,7400.5 -2324.4,7400.5" class="marshal-sector-bg"/>
        <text x="-2446.9" y="7329.7" class="marshal-sector-label">8</text>
      </g>
      <g class="marshal-sector-marker" data-sector="9" data-length="18652.6">
        <polygon points="-2148.7,9374.6 -2271.3,9586.8 -2026.2,9586.8" class="marshal-sector-bg"/>
        <text x="-2148.7" y="9516.1" class="marshal-sector-label">9</text>
      </g>
      <g class="marshal-sector-marker" data-sector="10" data-length="20993.1">
        <polygon points="-992.3,11227.0 -1114.8,11439.2 -869.8,11439.2" class="marshal-sector-bg"/>
        <text x="-992.3" y="11368.5" class="marshal-sector-label">10</text>
      </g>
      <g class="marshal-sector-marker" data-sector="11" data-length="24925.4">
        <polygon points="-618.0,15113.9 -740.6,15326.2 -495.5,15326.2" class="marshal-sector-bg"/>
        <text x="-618.0" y="15255.4" class="marshal-sector-label">11</text>
      </g>
      <g class="marshal-sector-marker" data-sector="12" data-length="28166.9">
        <polygon points="-215.6,15157.8 -338.1,15370.0 -93.0,15370.0" class="marshal-sector-bg"/>
        <text x="-215.6" y="15299.3" class="marshal-sector-label">12</text>
      </g>
      <g class="marshal-sector-marker" data-sector="13" data-length="31614.9">
        <polygon points="1076.7,11963.5 954.2,12175.7 1199.3,12175.7" class="marshal-sector-bg"/>
        <text x="1076.7" y="12105.0" class="marshal-sector-label">13</text>
      </g>
      <g class="marshal-sector-marker" data-sector="14" data-length="36915.7">
        <polygon points="2312.0,6809.4 2189.4,7021.6 2434.5,7021.6" class="marshal-sector-bg"/>
        <text x="2312.0" y="6950.9" class="marshal-sector-label">14</text>
      </g>
      <g class="marshal-sector-marker" data-sector="15" data-length="39598.2">
        <polygon points="2477.8,4211.7 2355.2,4423.9 2600.3,4423.9" class="marshal-sector-bg"/>
        <text x="2477.8" y="4353.2" class="marshal-sector-label">15</text>
      </g>
    </g>

    <g id="corners">
      <g class="corner-marker" data-corner="1" data-length="2249.0">
        <circle cx="3314.2" cy="-1317.9" r="188.6" class="corner-bg"/>
        <text x="3314.2" y="-1317.9" class="corner-label">1</text>
      </g>
      <g class="corner-marker" data-corner="2" data-length="3271.9">
        <circle cx="3856.6" cy="-2073.5" r="188.6" class="corner-bg"/>
        <text x="3856.6" y="-2073.5" class="corner-label">2</text>
      </g>
      <g class="corner-marker" data-corner="3" data-length="7041.7">
        <circle cx="740.0" cy="-609.0" r="188.6" class="corner-bg"/>
        <text x="740.0" y="-609.0" class="corner-label">3</text>
      </g>
      <g class="corner-marker" data-corner="4" data-length="7610.7">
        <circle cx="746.4" cy="-43.0" r="188.6" class="corner-bg"/>
        <text x="746.4" y="-43.0" class="corner-label">4</text>
      </g>
      <g class="corner-marker" data-corner="5" data-length="9853.0">
        <circle cx="-724.0" cy="1619.0" r="188.6" class="corner-bg"/>
        <text x="-724.0" y="1619.0" class="corner-label">5</text>
      </g>
      <g class="corner-marker" data-corner="6" data-length="12074.9">
        <circle cx="-993.9" cy="3790.9" r="188.6" class="corner-bg"/>
        <text x="-993.9" y="3790.9" class="corner-label">6</text>
      </g>
      <g class="corner-marker" data-corner="7" data-length="12948.8">
        <circle cx="-1783.9" cy="4016.3" r="188.6" class="corner-bg"/>
        <text x="-1783.9" y="4016.3" class="corner-label">7</text>
      </g>
      <g class="corner-marker" data-corner="8" data-length="19763.5">
        <circle cx="-1785.4" cy="10539.7" r="188.6" class="corner-bg"/>
        <text x="-1785.4" y="10539.7" class="corner-label">8</text>
      </g>
      <g class="corner-marker" data-corner="9" data-length="20573.1">
        <circle cx="-1140.3" cy="10976.3" r="188.6" class="corner-bg"/>
        <text x="-1140.3" y="10976.3" class="corner-label">9</text>
      </g>
      <g class="corner-marker" data-corner="10" data-length="26544.5">
        <circle cx="-711.5" cy="16759.6" r="188.6" class="corner-bg"/>
        <text x="-711.5" y="16759.6" class="corner-label">10</text>
      </g>
      <g class="corner-marker" data-corner="11" data-length="27601.2">
        <circle cx="-374.8" cy="15840.4" r="188.6" class="corner-bg"/>
        <text x="-374.8" y="15840.4" class="corner-label">11</text>
      </g>
      <g class="corner-marker" data-corner="12" data-length="31283.0">
        <circle cx="975.9" cy="12421.2" r="188.6" class="corner-bg"/>
        <text x="975.9" y="12421.2" class="corner-label">12</text>
      </g>
      <g class="corner-marker" data-corner="13" data-length="38460.2">
        <circle cx="2586.9" cy="5440.8" r="188.6" class="corner-bg"/>
        <text x="2586.9" y="5440.8" class="corner-label">13</text>
      </g>
      <g class="corner-marker" data-corner="14" data-length="38785.3">
        <circle cx="2435.4" cy="5153.8" r="188.6" class="corner-bg"/>
        <text x="2435.4" y="5153.8" class="corner-label">14</text>
      </g>
    </g>

    <g id="start-finish" data-track-x="3353.0" data-track-y="920.0" data-lap-distance="43354.5">
      <polygon points="3685.3,1637.7 3706.5,930.6 4130.8,943.4 4109.5,1650.5" class="checker-border"/>
      <polygon points="3685.3,1637.7 3689.5,1496.3 3830.9,1500.6 3826.7,1642.0" class="checker-black"/>
      <polygon points="3826.7,1642.0 3830.9,1500.6 3972.4,1504.8 3968.1,1646.3" class="checker-white"/>
      <polygon points="3968.1,1646.3 3972.4,1504.8 4113.8,1509.1 4109.5,1650.5" class="checker-black"/>
      <polygon points="3689.5,1496.3 3693.8,1354.9 3835.2,1359.2 3830.9,1500.6" class="checker-white"/>
      <polygon points="3830.9,1500.6 3835.2,1359.2 3976.6,1363.4 3972.4,1504.8" class="checker-black"/>
      <polygon points="3972.4,1504.8 3976.6,1363.4 4118.0,1367.7 4113.8,1509.1" class="checker-white"/>
      <polygon points="3693.8,1354.9 3698.0,1213.5 3839.5,1217.7 3835.2,1359.2" class="checker-black"/>
      <polygon points="3835.2,1359.2 3839.5,1217.7 3980.9,1222.0 3976.6,1363.4" class="checker-white"/>
      <polygon points="3976.6,1363.4 3980.9,1222.0 4122.3,1226.3 4118.0,1367.7" class="checker-black"/>
      <polygon points="3698.0,1213.5 3702.3,1072.1 3843.7,1076.3 3839.5,1217.7" class="checker-white"/>
      <polygon points="3839.5,1217.7 3843.7,1076.3 3985.1,1080.6 3980.9,1222.0" class="checker-black"/>
      <polygon points="3980.9,1222.0 3985.1,1080.6 4126.5,1084.8 4122.3,1226.3" class="checker-white"/>
      <polygon points="3702.3,1072.1 3706.5,930.6 3848.0,934.9 3843.7,1076.3" class="checker-black"/>
      <polygon points="3843.7,1076.3 3848.0,934.9 3989.4,939.2 3985.1,1080.6" class="checker-white"/>
      <polygon points="3985.1,1080.6 3989.4,939.2 4130.8,943.4 4126.5,1084.8" class="checker-black"/>
      <polyline points="4175.7,237.0 3947.1,-5.8 3704.3,222.8" class="chevron"/>
      <polyline points="4181.3,48.5 3952.7,-194.3 3709.9,34.3" class="chevron"/>
      <polyline points="4187.0,-140.1 3958.4,-382.9 3715.6,-154.3" class="chevron"/>
    </g>

    <g id="car-markers"></g>

  </g>
</svg>
