<?xml version="1.0" encoding="utf-8"?>
<?xml-stylesheet type="text/css" href="../../css/tracks.css"?>
<svg xmlns="http://www.w3.org/2000/svg" viewBox="-480.7 282.2 960.0 560.2">
  <title>Monza</title>

  <g id="track-root" transform="translate(0, 560.18) scale(1, -1) scale(0.035572) translate(-4784.50, -5043.50) rotate(95, 4784.50, 5043.50)" data-scale="0.035572" data-rotation="95.0">

    <g id="track-outline">
      <path d="M -1004.8 3590.0 L -998.0 3670.0 L -997.0 3677.0 L -980.0 3871.0 L -977.0 3896.0 L -963.0 4072.0 L -959.0 4115.0 L -946.0 4273.0 L -940.0 4335.0 L -928.0 4475.0 L -921.0 4555.0 L -911.0 4676.0 L -902.0 4775.0 L -894.0 4878.0 L -883.0 4995.0 L -876.0 5080.0 L -864.0 5215.0 L -859.0 5282.0 L -845.0 5436.0 L -841.0 5485.0 L -826.0 5658.0 L -824.0 5687.0 L -807.0 5877.0 L -806.0 5890.0 L -785.0 6134.0 L -784.0 6142.0 L -769.0 6337.0 L -766.0 6363.0 L -751.0 6550.0 L -747.0 6595.0 L -746.1 6605.3" class="track-outline" data-sector="2"/>
      <path d="M -746.1 6605.3 L -734.0 6753.0 L -728.0 6815.0 L -716.0 6956.0 L -709.0 7034.0 L -700.0 7148.0 L -692.0 7240.0 L -686.0 7323.0 L -680.0 7385.0 L -677.0 7429.0 L -669.0 7521.0 L -666.0 7568.0 L -655.0 7685.0 L -655.0 7692.0 L -645.0 7799.0 L -644.0 7802.0 L -636.0 7885.0 L -633.0 7903.0 L -625.0 7968.0 L -621.0 7990.0 L -611.0 8039.0 L -607.0 8053.0 L -592.0 8100.0 L -585.0 8117.0 L -570.0 8153.0 L -559.0 8172.0 L -543.0 8199.0 L -527.0 8219.0 L -511.0 8239.0 L -491.0 8258.0 L -476.0 8270.0 L -447.0 8286.0 L -433.0 8293.0 L -397.0 8306.0 L -386.0 8309.0 L -342.0 8315.0 L -335.0 8317.0 L -287.0 8326.0 L -285.0 8327.0 L -242.0 8342.0 L -240.0 8342.0 L -207.0 8364.0 L -203.0 8367.0 L -180.0 8394.0 L -175.0 8401.0 L -161.0 8430.0 L -156.0 8442.0 L -148.0 8470.0 L -144.0 8486.0 L -141.0 8510.0 L -139.0 8529.0 L -138.0 8550.0 L -137.0 8574.0 L -138.0 8592.0 L -139.0 8621.0 L -141.0 8636.0 L -146.0 8671.0 L -148.0 8683.0 L -156.0 8726.0 L -158.0 8734.0 L -170.0 8784.0 L -171.0 8788.0 L -186.0 8846.0 L -186.0 8848.0 L -204.0 8909.0 L -206.0 8917.0 L -223.0 8979.0 L -227.0 8995.0 L -243.0 9055.0 L -249.0 9079.0 L -264.0 9136.0 L -273.0 9170.0 L -287.0 9224.0 L -298.0 9269.0 L -308.0 9310.0 L -323.0 9375.0 L -331.0 9409.0 L -344.0 9470.0 L -354.0 9515.0 L -361.4 9550.8" class="track-outline" data-sector="3"/>
      <path d="M -361.4 9550.8 L -369.0 9588.0 L -376.0 9626.0 L -393.0 9737.0 L -394.0 9744.0 L -409.0 9867.0 L -409.0 9871.0 L -419.0 9996.0 L -419.0 10012.0 L -425.0 10129.0 L -425.0 10158.0 L -427.0 10266.0 L -427.0 10334.0 L -428.0 10407.0 L -426.0 10490.0 L -425.0 10551.0 L -421.0 10650.0 L -420.0 10699.0 L -414.0 10813.0 L -412.0 10849.0 L -401.0 10979.0 L -400.0 11002.0 L -385.0 11148.0 L -385.0 11157.0 L -366.0 11314.0 L -365.0 11320.0 L -337.0 11505.0 L -333.0 11527.0 L -306.0 11664.0 L -298.0 11698.0 L -266.0 11825.0 L -252.0 11874.0 L -236.7 11925.5" class="track-outline" data-sector="4"/>
      <path d="M -236.7 11925.5 L -219.0 11985.0 L -197.0 12049.0 L -163.0 12145.0 L -120.0 12251.0 L -98.0 12303.0 L -42.0 12422.0 L -24.0 12459.0 L 44.0 12589.0 L 57.0 12611.0 L 142.0 12752.0 L 148.0 12761.0 L 249.0 12906.0 L 252.0 12911.0 L 357.0 13046.0 L 372.0 13063.0 L 483.0 13186.0 L 510.0 13214.0 L 612.0 13311.0 L 653.0 13348.0 L 749.0 13430.0 L 805.0 13475.0 L 879.0 13532.0 L 964.0 13593.0 L 1028.0 13637.0 L 1103.0 13686.0 L 1184.0 13735.0 L 1260.1 13778.8" class="track-outline" data-sector="5"/>
      <path d="M 1260.1 13778.8 L 1276.0 13788.0 L 1344.0 13825.0 L 1455.0 13881.0 L 1510.0 13908.0 L 1638.0 13965.0 L 1679.0 13982.0 L 1826.0 14039.0 L 1852.0 14049.0 L 2019.0 14102.0 L 2028.0 14105.0 L 2179.0 14146.0 L 2185.0 14147.0 L 2361.0 14187.0 L 2384.0 14191.0 L 2543.0 14222.0 L 2582.0 14228.0 L 2727.0 14252.0 L 2783.0 14260.0 L 2911.0 14279.0 L 2984.0 14288.0 L 3096.0 14302.0 L 3186.0 14312.0 L 3281.0 14322.0 L 3388.0 14331.0 L 3466.0 14338.0 L 3591.0 14347.0 L 3653.0 14352.0 L 3795.0 14364.0 L 3839.0 14368.0 L 3995.0 14381.0 L 4025.0 14384.0 L 4234.0 14401.0 L 4246.0 14402.0 L 4433.0 14416.0 L 4439.0 14416.0 L 4620.0 14429.0 L 4643.0 14430.0 L 4808.0 14440.0 L 4848.0 14442.0 L 4995.0 14450.0 L 5053.0 14452.0 L 5183.0 14459.0 L 5188.3 14459.2" class="track-outline" data-sector="6"/>
      <path d="M 5188.3 14459.2 L 5258.0 14462.0 L 5371.0 14467.0 L 5463.0 14470.0 L 5559.0 14474.0 L 5664.0 14478.0 L 5737.0 14482.0 L 5871.0 14486.0 L 5893.0 14487.0 L 6027.0 14491.0 L 6035.0 14492.0 L 6152.0 14496.0 L 6162.0 14496.0 L 6216.0 14498.0 L 6234.0 14498.0 L 6318.0 14503.0 L 6330.0 14503.0 L 6410.0 14509.0 L 6428.0 14510.0 L 6492.0 14519.0 L 6515.0 14523.0 L 6567.0 14534.0 L 6595.0 14541.0 L 6637.0 14553.0 L 6669.0 14563.0 L 6702.0 14575.0 L 6736.0 14589.0 L 6759.0 14601.0 L 6802.0 14626.0 L 6809.0 14631.0 L 6849.0 14664.0 L 6852.0 14667.0 L 6887.0 14710.0 L 6888.0 14711.0 L 6915.0 14767.0 L 6924.0 14787.0 L 6946.0 14834.0 L 6959.0 14859.0 L 6982.0 14894.0 L 7002.0 14919.0 L 7026.0 14945.0 L 7065.0 14979.0 L 7079.0 14990.0 L 7129.0 15022.0 L 7139.0 15028.0 L 7202.0 15059.0 L 7206.0 15061.0 L 7278.0 15088.0 L 7280.0 15088.0 L 7358.0 15111.0 L 7368.0 15113.0 L 7444.0 15130.0 L 7463.0 15134.0 L 7535.0 15148.0 L 7564.0 15153.0 L 7633.0 15164.0 L 7673.0 15170.0 L 7736.0 15182.0 L 7787.0 15192.0 L 7843.0 15204.0 L 7907.0 15220.0 L 7955.0 15233.0 L 8032.0 15255.0 L 8070.0 15267.0 L 8156.0 15293.0 L 8190.0 15304.0 L 8341.0 15350.0 L 8365.0 15358.0 L 8480.0 15395.0 L 8483.0 15396.0 L 8608.0 15442.0 L 8624.0 15448.0 L 8738.0 15492.0 L 8767.0 15503.0 L 8780.7 15508.5" class="track-outline" data-sector="7"/>
      <path d="M 8780.7 15508.5 L 8870.0 15544.0 L 8910.0 15559.0 L 9003.0 15595.0 L 9057.0 15615.0 L 9141.0 15645.0 L 9208.0 15668.0 L 9280.0 15693.0 L 9363.0 15720.0 L 9423.0 15740.0 L 9517.0 15772.0 L 9563.0 15787.0 L 9665.0 15819.0 L 9695.0 15828.0 L 9794.0 15855.0 L 9811.0 15859.0 L 9917.0 15878.0 L 9924.0 15879.0 L 10039.0 15892.0 L 10043.0 15891.0 L 10151.0 15878.0 L 10165.0 15875.0 L 10263.0 15857.0 L 10286.0 15850.0 L 10368.0 15823.0 L 10398.0 15809.0 L 10465.0 15774.0 L 10502.0 15751.0 L 10556.0 15713.0 L 10597.0 15678.0 L 10637.0 15640.0 L 10679.0 15592.0 L 10708.0 15557.0 L 10749.0 15494.0 L 10768.0 15463.0 L 10807.0 15384.0 L 10818.0 15359.0 L 10851.0 15263.0 L 10857.0 15247.0 L 10886.0 15134.0 L 10888.0 15128.0 L 10910.0 15004.0 L 10910.0 14999.0 L 10926.0 14877.0 L 10927.0 14860.0 L 10940.0 14747.0 L 10942.0 14718.0 L 10951.0 14614.0 L 10954.0 14572.0 L 10962.0 14479.0 L 10965.0 14424.0 L 10971.0 14342.0 L 10975.0 14274.0 L 10979.0 14215.0 L 10984.0 14120.0 L 10988.0 14073.0 L 10994.0 13986.0 L 10999.0 13929.0 L 11005.0 13848.0 L 11009.0 13808.0 L 11019.0 13695.0 L 11023.0 13660.0 L 11035.0 13532.0 L 11038.0 13512.0 L 11050.0 13383.0 L 11051.0 13376.0 L 11051.1 13374.7" class="track-outline" data-sector="8"/>
      <path d="M 11051.1 13374.7 L 11061.0 13251.0 L 11061.0 13246.0 L 11068.0 13134.0 L 11068.0 13119.0 L 11069.0 13025.0 L 11066.0 12982.0 L 11060.0 12921.0 L 11052.0 12871.0 L 11042.0 12821.0 L 11026.0 12764.0 L 11012.0 12726.0 L 10983.0 12667.0 L 10968.0 12640.0 L 10925.0 12577.0 L 10911.0 12559.0 L 10851.0 12496.0 L 10841.0 12486.0 L 10763.0 12423.0 L 10759.0 12420.0 L 10664.0 12358.0 L 10660.0 12355.0 L 10563.0 12301.0 L 10549.0 12293.0 L 10456.0 12245.0 L 10432.0 12232.0 L 10345.0 12190.0 L 10310.0 12172.0 L 10231.0 12134.0 L 10184.0 12110.0 L 10114.0 12075.0 L 10055.0 12045.0 L 9994.0 12013.0 L 9923.0 11974.0 L 9872.0 11947.0 L 9787.0 11901.0 L 9746.0 11879.0 L 9649.0 11826.0 L 9618.0 11809.0 L 9497.0 11744.0 L 9477.0 11734.0 L 9350.0 11665.0 L 9343.0 11662.0 L 9208.0 11587.0 L 9203.0 11584.0 L 9169.1 11564.6" class="track-outline" data-sector="9"/>
      <path d="M 9169.1 11564.6 L 9084.0 11516.0 L 9054.0 11499.0 L 8946.0 11436.0 L 8902.0 11410.0 L 8805.0 11355.0 L 8773.0 11337.0 L 8662.0 11275.0 L 8616.0 11249.0 L 8517.0 11194.0 L 8458.0 11161.0 L 8370.0 11111.0 L 8296.0 11069.0 L 8221.0 11027.0 L 8134.0 10977.0 L 8072.0 10942.0 L 7970.0 10883.0 L 7921.0 10854.0 L 7806.0 10784.0 L 7771.0 10762.0 L 7644.0 10680.0 L 7623.0 10666.0 L 7483.0 10568.0 L 7476.0 10563.0 L 7331.0 10452.0 L 7325.0 10447.0 L 7189.0 10337.0 L 7170.0 10322.0 L 7047.0 10220.0 L 7015.0 10194.0 L 6905.0 10104.0 L 6861.0 10067.0 L 6764.0 9983.0 L 6707.0 9933.0 L 6642.1 9875.9" class="track-outline" data-sector="10"/>
      <path d="M 6642.1 9875.9 L 6624.0 9860.0 L 6555.0 9799.0 L 6484.0 9737.0 L 6402.0 9666.0 L 6343.0 9615.0 L 6248.0 9532.0 L 6202.0 9492.0 L 6093.0 9398.0 L 6060.0 9369.0 L 5939.0 9263.0 L 5919.0 9246.0 L 5784.0 9128.0 L 5777.0 9122.0 L 5634.0 8999.0 L 5628.0 8994.0 L 5492.0 8875.0 L 5473.0 8859.0 L 5350.0 8752.0 L 5318.0 8725.0 L 5279.1 8691.0" class="track-outline" data-sector="11"/>
      <path d="M 5279.1 8691.0 L 5207.0 8628.0 L 5163.0 8589.0 L 5065.0 8504.0 L 5007.0 8454.0 L 4922.0 8380.0 L 4852.0 8319.0 L 4793.0 8267.0 L 4697.0 8184.0 L 4650.0 8143.0 L 4563.0 8068.0 L 4507.0 8019.0 L 4427.0 7949.0 L 4383.0 7911.0 L 4248.0 7794.0 L 4208.0 7759.0 L 4076.0 7644.0 L 4055.0 7626.0 L 3919.0 7508.0 L 3912.0 7502.0 L 3769.0 7377.0 L 3763.0 7372.0 L 3626.0 7253.0 L 3607.0 7237.0 L 3556.1 7192.7" class="track-outline" data-sector="12"/>
      <path d="M 3556.1 7192.7 L 3483.0 7129.0 L 3451.0 7101.0 L 3341.0 7005.0 L 3299.0 6968.0 L 3210.0 6891.0 L 3158.0 6846.0 L 3091.0 6788.0 L 3052.0 6754.0 L 3016.0 6722.0 L 2961.0 6673.0 L 2921.0 6637.0 L 2861.0 6583.0 L 2835.0 6558.0 L 2775.0 6500.0 L 2758.0 6483.0 L 2698.0 6418.0 L 2689.0 6408.0 L 2635.0 6338.0 L 2633.0 6334.0 L 2591.0 6256.0 L 2583.0 6237.0 L 2562.0 6168.0 L 2555.0 6138.0 L 2546.0 6068.0 L 2543.0 6025.0 L 2542.0 5960.0 L 2539.0 5907.0 L 2538.0 5853.0 L 2541.0 5786.0 L 2544.0 5739.0 L 2544.0 5664.0 L 2543.0 5628.0 L 2537.0 5541.0 L 2535.0 5514.0 L 2519.0 5416.0 L 2516.0 5400.0 L 2486.0 5292.0 L 2484.0 5286.0 L 2440.0 5172.0 L 2438.0 5167.0 L 2390.0 5072.0 L 2376.0 5049.0 L 2324.0 4967.0 L 2300.0 4935.0 L 2244.0 4865.0 L 2224.0 4843.0 L 2151.0 4768.0 L 2119.0 4736.0 L 2051.0 4668.0 L 2013.0 4627.0 L 1963.0 4566.0 L 1925.0 4511.0 L 1890.0 4451.0 L 1855.0 4376.0 L 1834.0 4320.0 L 1803.0 4221.0 L 1791.0 4173.0 L 1766.0 4058.0 L 1760.0 4023.0 L 1741.0 3893.0 L 1739.0 3871.0 L 1725.0 3723.0 L 1725.0 3715.0 L 1712.0 3558.0 L 1711.0 3552.0 L 1698.0 3400.0 L 1696.0 3379.0 L 1682.0 3240.0 L 1678.0 3205.0 L 1665.0 3076.0 L 1659.0 3020.0 L 1648.0 2892.0 L 1642.0 2823.0 L 1634.0 2725.0 L 1626.0 2643.0 L 1618.0 2557.0 L 1609.0 2457.0 L 1603.0 2386.0 L 1592.0 2271.0 L 1587.0 2215.0 L 1574.0 2082.0 L 1571.0 2041.0 L 1557.0 1890.0 L 1555.0 1865.0 L 1539.0 1698.0 L 1539.0 1689.0 L 1536.2 1659.3" class="track-outline" data-sector="13"/>
      <path d="M 1536.2 1659.3 L 1522.0 1511.0 L 1521.0 1504.0 L 1506.0 1331.0 L 1503.0 1308.0 L 1489.0 1151.0 L 1484.0 1107.0 L 1470.0 945.0 L 1464.0 886.0 L 1453.0 762.0 L 1446.0 688.0 L 1437.0 578.0 L 1428.0 487.0 L 1421.0 410.0 L 1409.0 285.0 L 1404.0 225.0 L 1394.0 115.0 L 1387.0 38.0 L 1375.0 -87.0 L 1370.0 -148.0 L 1357.0 -292.0 L 1353.0 -336.0 L 1337.0 -497.0 L 1335.0 -524.0 L 1318.0 -702.0 L 1318.0 -713.0 L 1300.0 -902.0 L 1299.0 -908.0 L 1283.0 -1092.0 L 1280.0 -1116.0 L 1266.0 -1281.0 L 1262.0 -1322.0 L 1248.0 -1471.0 L 1242.0 -1529.0 L 1231.0 -1660.0 L 1223.0 -1735.0 L 1213.0 -1850.0 L 1204.0 -1942.0 L 1196.0 -2039.0 L 1185.0 -2149.0 L 1178.0 -2229.0 L 1166.0 -2355.0 L 1161.0 -2418.0 L 1148.0 -2563.0 L 1144.0 -2608.0 L 1129.0 -2760.0 L 1127.0 -2786.0 L 1111.0 -2953.0 L 1111.0 -2963.0 L 1094.0 -3153.0 L 1093.0 -3159.0 L 1076.0 -3343.0 L 1073.0 -3367.0 L 1059.0 -3533.0 L 1054.0 -3574.0 L 1040.0 -3722.0 L 1034.0 -3780.0 L 1022.0 -3912.0 L 1021.2 -3919.3" class="track-outline" data-sector="14"/>
      <path d="M 1021.2 -3919.3 L 1014.0 -3987.0 L 1003.0 -4102.0 L 993.0 -4195.0 L 983.0 -4292.0 L 970.0 -4399.0 L 962.0 -4475.0 L 947.0 -4589.0 L 940.0 -4643.0 L 921.0 -4760.0 L 915.0 -4797.0 L 889.0 -4926.0 L 885.0 -4948.0 L 853.0 -5073.0 L 852.0 -5080.0 L 813.0 -5204.0 L 811.0 -5208.0 L 771.0 -5310.0 L 769.0 -5316.0 L 716.0 -5419.0 L 713.0 -5423.0 L 652.0 -5512.0 L 642.0 -5523.0 L 574.0 -5596.0 L 554.0 -5612.0 L 484.0 -5667.0 L 454.0 -5686.0 L 386.0 -5725.0 L 344.0 -5744.0 L 279.0 -5768.0 L 223.0 -5782.0 L 165.0 -5794.0 L 94.0 -5802.0 L 44.0 -5805.0 L -37.0 -5802.0 L -77.0 -5798.0 L -170.0 -5782.0 L -199.0 -5776.0 L -303.0 -5744.0 L -321.0 -5739.0 L -432.0 -5692.0 L -440.0 -5689.0 L -517.4 -5645.9" class="track-outline" data-sector="15"/>
      <path d="M -517.4 -5645.9 L -591.0 -5605.0 L -618.0 -5587.0 L -701.0 -5525.0 L -733.0 -5498.0 L -806.0 -5433.0 L -846.0 -5392.0 L -904.0 -5330.0 L -966.0 -5256.0 L -995.0 -5219.0 L -1059.0 -5127.0 L -1078.0 -5098.0 L -1143.0 -4988.0 L -1154.0 -4969.0 L -1221.0 -4834.0 L -1229.0 -4816.0 L -1281.0 -4692.0 L -1293.0 -4660.0 L -1334.0 -4545.0 L -1348.0 -4498.0 L -1379.0 -4393.0 L -1394.0 -4331.0 L -1405.4 -4282.5" class="track-outline" data-sector="16"/>
      <path d="M -1405.4 -4282.5 L -1416.0 -4237.0 L -1431.0 -4158.0 L -1446.0 -4077.0 L -1459.0 -3985.0 L -1467.0 -3924.0 L -1476.0 -3836.0 L -1479.0 -3803.0 L -1488.0 -3660.0 L -1490.0 -3635.0 L -1495.0 -3474.0 L -1496.0 -3465.0 L -1498.0 -3318.0 L -1499.0 -3294.0 L -1499.0 -3129.0 L -1500.0 -3121.0 L -1499.0 -2946.0 L -1498.0 -2938.0 L -1496.0 -2770.0 L -1495.0 -2746.0 L -1491.0 -2593.0 L -1490.0 -2559.0 L -1487.0 -2448.0 L -1485.0 -2395.0 L -1480.0 -2268.0 L -1476.0 -2194.0 L -1472.0 -2086.0 L -1467.0 -1996.0 L -1462.0 -1903.0 L -1455.0 -1795.0 L -1451.0 -1719.0 L -1443.0 -1595.0 L -1439.0 -1535.0 L -1429.0 -1393.0 L -1426.0 -1349.0 L -1415.0 -1190.0 L -1414.6 -1183.9" class="track-outline" data-sector="17"/>
      <path d="M -1414.6 -1183.9 L -1413.0 -1163.0 L -1398.0 -987.0 L -1398.0 -977.0 L -1393.0 -874.0 L -1393.0 -874.0 L -1384.0 -794.0 L -1383.0 -787.0 L -1368.0 -606.0 L -1365.0 -582.0 L -1352.0 -418.0 L -1348.0 -376.0 L -1335.0 -228.0 L -1329.0 -169.0 L -1318.0 -38.0 L -1311.0 37.0 L -1301.0 151.0 L -1292.0 244.0 L -1284.0 342.0 L -1274.0 453.0 L -1268.0 534.0 L -1256.0 663.0 L -1251.0 727.0 L -1237.0 875.0 L -1234.0 921.0 L -1220.0 1086.0 L -1218.0 1115.0 L -1201.0 1299.0 L -1201.0 1310.0 L -1184.0 1506.0 L -1183.0 1513.0 L -1167.0 1702.0 L -1164.0 1727.0 L -1150.0 1899.0 L -1146.0 1942.0 L -1133.0 2096.0 L -1124.0 2192.0 L -1118.0 2275.0 L -1106.0 2406.0 L -1101.0 2473.0 L -1091.0 2588.0 L -1084.0 2672.0 L -1071.0 2805.0 L -1066.0 2871.0 L -1052.0 3023.0 L -1049.0 3071.0 L -1034.0 3241.0 L -1032.0 3270.0 L -1015.0 3459.0 L -1015.0 3470.0 L -1004.8 3590.0" class="track-outline" data-sector="1"/>
    </g>

    <g id="track-sectors">
      <path d="M -1004.8 3590.0 L -998.0 3670.0 L -997.0 3677.0 L -980.0 3871.0 L -977.0 3896.0 L -963.0 4072.0 L -959.0 4115.0 L -946.0 4273.0 L -940.0 4335.0 L -928.0 4475.0 L -921.0 4555.0 L -911.0 4676.0 L -902.0 4775.0 L -894.0 4878.0 L -883.0 4995.0 L -876.0 5080.0 L -864.0 5215.0 L -859.0 5282.0 L -845.0 5436.0 L -841.0 5485.0 L -826.0 5658.0 L -824.0 5687.0 L -807.0 5877.0 L -806.0 5890.0 L -785.0 6134.0 L -784.0 6142.0 L -769.0 6337.0 L -766.0 6363.0 L -751.0 6550.0 L -747.0 6595.0 L -746.1 6605.3" class="track" data-sector="2"/>
      <path d="M -746.1 6605.3 L -734.0 6753.0 L -728.0 6815.0 L -716.0 6956.0 L -709.0 7034.0 L -700.0 7148.0 L -692.0 7240.0 L -686.0 7323.0 L -680.0 7385.0 L -677.0 7429.0 L -669.0 7521.0 L -666.0 7568.0 L -655.0 7685.0 L -655.0 7692.0 L -645.0 7799.0 L -644.0 7802.0 L -636.0 7885.0 L -633.0 7903.0 L -625.0 7968.0 L -621.0 7990.0 L -611.0 8039.0 L -607.0 8053.0 L -592.0 8100.0 L -585.0 8117.0 L -570.0 8153.0 L -559.0 8172.0 L -543.0 8199.0 L -527.0 8219.0 L -511.0 8239.0 L -491.0 8258.0 L -476.0 8270.0 L -447.0 8286.0 L -433.0 8293.0 L -397.0 8306.0 L -386.0 8309.0 L -342.0 8315.0 L -335.0 8317.0 L -287.0 8326.0 L -285.0 8327.0 L -242.0 8342.0 L -240.0 8342.0 L -207.0 8364.0 L -203.0 8367.0 L -180.0 8394.0 L -175.0 8401.0 L -161.0 8430.0 L -156.0 8442.0 L -148.0 8470.0 L -144.0 8486.0 L -141.0 8510.0 L -139.0 8529.0 L -138.0 8550.0 L -137.0 8574.0 L -138.0 8592.0 L -139.0 8621.0 L -141.0 8636.0 L -146.0 8671.0 L -148.0 8683.0 L -156.0 8726.0 L -158.0 8734.0 L -170.0 8784.0 L -171.0 8788.0 L -186.0 8846.0 L -186.0 8848.0 L -204.0 8909.0 L -206.0 8917.0 L -223.0 8979.0 L -227.0 8995.0 L -243.0 9055.0 L -249.0 9079.0 L -264.0 9136.0 L -273.0 9170.0 L -287.0 9224.0 L -298.0 9269.0 L -308.0 9310.0 L -323.0 9375.0 L -331.0 9409.0 L -344.0 9470.0 L -354.0 9515.0 L -361.4 9550.8" class="track" data-sector="3"/>
      <path d="M -361.4 9550.8 L -369.0 9588.0 L -376.0 9626.0 L -393.0 9737.0 L -394.0 9744.0 L -409.0 9867.0 L -409.0 9871.0 L -419.0 9996.0 L -419.0 10012.0 L -425.0 10129.0 L -425.0 10158.0 L -427.0 10266.0 L -427.0 10334.0 L -428.0 10407.0 L -426.0 10490.0 L -425.0 10551.0 L -421.0 10650.0 L -420.0 10699.0 L -414.0 10813.0 L -412.0 10849.0 L -401.0 10979.0 L -400.0 11002.0 L -385.0 11148.0 L -385.0 11157.0 L -366.0 11314.0 L -365.0 11320.0 L -337.0 11505.0 L -333.0 11527.0 L -306.0 11664.0 L -298.0 11698.0 L -266.0 11825.0 L -252.0 11874.0 L -236.7 11925.5" class="track" data-sector="4"/>
      <path d="M -236.7 11925.5 L -219.0 11985.0 L -197.0 12049.0 L -163.0 12145.0 L -120.0 12251.0 L -98.0 12303.0 L -42.0 12422.0 L -24.0 12459.0 L 44.0 12589.0 L 57.0 12611.0 L 142.0 12752.0 L 148.0 12761.0 L 249.0 12906.0 L 252.0 12911.0 L 357.0 13046.0 L 372.0 13063.0 L 483.0 13186.0 L 510.0 13214.0 L 612.0 13311.0 L 653.0 13348.0 L 749.0 13430.0 L 805.0 13475.0 L 879.0 13532.0 L 964.0 13593.0 L 1028.0 13637.0 L 1103.0 13686.0 L 1184.0 13735.0 L 1260.1 13778.8" class="track" data-sector="5"/>
      <path d="M 1260.1 13778.8 L 1276.0 13788.0 L 1344.0 13825.0 L 1455.0 13881.0 L 1510.0 13908.0 L 1638.0 13965.0 L 1679.0 13982.0 L 1826.0 14039.0 L 1852.0 14049.0 L 2019.0 14102.0 L 2028.0 14105.0 L 2179.0 14146.0 L 2185.0 14147.0 L 2361.0 14187.0 L 2384.0 14191.0 L 2543.0 14222.0 L 2582.0 14228.0 L 2727.0 14252.0 L 2783.0 14260.0 L 2911.0 14279.0 L 2984.0 14288.0 L 3096.0 14302.0 L 3186.0 14312.0 L 3281.0 14322.0 L 3388.0 14331.0 L 3466.0 14338.0 L 3591.0 14347.0 L 3653.0 14352.0 L 3795.0 14364.0 L 3839.0 14368.0 L 3995.0 14381.0 L 4025.0 14384.0 L 4234.0 14401.0 L 4246.0 14402.0 L 4433.0 14416.0 L 4439.0 14416.0 L 4620.0 14429.0 L 4643.0 14430.0 L 4808.0 14440.0 L 4848.0 14442.0 L 4995.0 14450.0 L 5053.0 14452.0 L 5183.0 14459.0 L 5188.3 14459.2" class="track" data-sector="6"/>
      <path d="M 5188.3 14459.2 L 5258.0 14462.0 L 5371.0 14467.0 L 5463.0 14470.0 L 5559.0 14474.0 L 5664.0 14478.0 L 5737.0 14482.0 L 5871.0 14486.0 L 5893.0 14487.0 L 6027.0 14491.0 L 6035.0 14492.0 L 6152.0 14496.0 L 6162.0 14496.0 L 6216.0 14498.0 L 6234.0 14498.0 L 6318.0 14503.0 L 6330.0 14503.0 L 6410.0 14509.0 L 6428.0 14510.0 L 6492.0 14519.0 L 6515.0 14523.0 L 6567.0 14534.0 L 6595.0 14541.0 L 6637.0 14553.0 L 6669.0 14563.0 L 6702.0 14575.0 L 6736.0 14589.0 L 6759.0 14601.0 L 6802.0 14626.0 L 6809.0 14631.0 L 6849.0 14664.0 L 6852.0 14667.0 L 6887.0 14710.0 L 6888.0 14711.0 L 6915.0 14767.0 L 6924.0 14787.0 L 6946.0 14834.0 L 6959.0 14859.0 L 6982.0 14894.0 L 7002.0 14919.0 L 7026.0 14945.0 L 7065.0 14979.0 L 7079.0 14990.0 L 7129.0 15022.0 L 7139.0 15028.0 L 7202.0 15059.0 L 7206.0 15061.0 L 7278.0 15088.0 L 7280.0 15088.0 L 7358.0 15111.0 L 7368.0 15113.0 L 7444.0 15130.0 L 7463.0 15134.0 L 7535.0 15148.0 L 7564.0 15153.0 L 7633.0 15164.0 L 7673.0 15170.0 L 7736.0 15182.0 L 7787.0 15192.0 L 7843.0 15204.0 L 7907.0 15220.0 L 7955.0 15233.0 L 8032.0 15255.0 L 8070.0 15267.0 L 8156.0 15293.0 L 8190.0 15304.0 L 8341.0 15350.0 L 8365.0 15358.0 L 8480.0 15395.0 L 8483.0 15396.0 L 8608.0 15442.0 L 8624.0 15448.0 L 8738.0 15492.0 L 8767.0 15503.0 L 8780.7 15508.5" class="track" data-sector="7"/>
      <path d="M 8780.7 15508.5 L 8870.0 15544.0 L 8910.0 15559.0 L 9003.0 15595.0 L 9057.0 15615.0 L 9141.0 15645.0 L 9208.0 15668.0 L 9280.0 15693.0 L 9363.0 15720.0 L 9423.0 15740.0 L 9517.0 15772.0 L 9563.0 15787.0 L 9665.0 15819.0 L 9695.0 15828.0 L 9794.0 15855.0 L 9811.0 15859.0 L 9917.0 15878.0 L 9924.0 15879.0 L 10039.0 15892.0 L 10043.0 15891.0 L 10151.0 15878.0 L 10165.0 15875.0 L 10263.0 15857.0 L 10286.0 15850.0 L 10368.0 15823.0 L 10398.0 15809.0 L 10465.0 15774.0 L 10502.0 15751.0 L 10556.0 15713.0 L 10597.0 15678.0 L 10637.0 15640.0 L 10679.0 15592.0 L 10708.0 15557.0 L 10749.0 15494.0 L 10768.0 15463.0 L 10807.0 15384.0 L 10818.0 15359.0 L 10851.0 15263.0 L 10857.0 15247.0 L 10886.0 15134.0 L 10888.0 15128.0 L 10910.0 15004.0 L 10910.0 14999.0 L 10926.0 14877.0 L 10927.0 14860.0 L 10940.0 14747.0 L 10942.0 14718.0 L 10951.0 14614.0 L 10954.0 14572.0 L 10962.0 14479.0 L 10965.0 14424.0 L 10971.0 14342.0 L 10975.0 14274.0 L 10979.0 14215.0 L 10984.0 14120.0 L 10988.0 14073.0 L 10994.0 13986.0 L 10999.0 13929.0 L 11005.0 13848.0 L 11009.0 13808.0 L 11019.0 13695.0 L 11023.0 13660.0 L 11035.0 13532.0 L 11038.0 13512.0 L 11050.0 13383.0 L 11051.0 13376.0 L 11051.1 13374.7" class="track" data-sector="8"/>
      <path d="M 11051.1 13374.7 L 11061.0 13251.0 L 11061.0 13246.0 L 11068.0 13134.0 L 11068.0 13119.0 L 11069.0 13025.0 L 11066.0 12982.0 L 11060.0 12921.0 L 11052.0 12871.0 L 11042.0 12821.0 L 11026.0 12764.0 L 11012.0 12726.0 L 10983.0 12667.0 L 10968.0 12640.0 L 10925.0 12577.0 L 10911.0 12559.0 L 10851.0 12496.0 L 10841.0 12486.0 L 10763.0 12423.0 L 10759.0 12420.0 L 10664.0 12358.0 L 10660.0 12355.0 L 10563.0 12301.0 L 10549.0 12293.0 L 10456.0 12245.0 L 10432.0 12232.0 L 10345.0 12190.0 L 10310.0 12172.0 L 10231.0 12134.0 L 10184.0 12110.0 L 10114.0 12075.0 L 10055.0 12045.0 L 9994.0 12013.0 L 9923.0 11974.0 L 9872.0 11947.0 L 9787.0 11901.0 L 9746.0 11879.0 L 9649.0 11826.0 L 9618.0 11809.0 L 9497.0 11744.0 L 9477.0 11734.0 L 9350.0 11665.0 L 9343.0 11662.0 L 9208.0 11587.0 L 9203.0 11584.0 L 9169.1 11564.6" class="track" data-sector="9"/>
      <path d="M 9169.1 11564.6 L 9084.0 11516.0 L 9054.0 11499.0 L 8946.0 11436.0 L 8902.0 11410.0 L 8805.0 11355.0 L 8773.0 11337.0 L 8662.0 11275.0 L 8616.0 11249.0 L 8517.0 11194.0 L 8458.0 11161.0 L 8370.0 11111.0 L 8296.0 11069.0 L 8221.0 11027.0 L 8134.0 10977.0 L 8072.0 10942.0 L 7970.0 10883.0 L 7921.0 10854.0 L 7806.0 10784.0 L 7771.0 10762.0 L 7644.0 10680.0 L 7623.0 10666.0 L 7483.0 10568.0 L 7476.0 10563.0 L 7331.0 10452.0 L 7325.0 10447.0 L 7189.0 10337.0 L 7170.0 10322.0 L 7047.0 10220.0 L 7015.0 10194.0 L 6905.0 10104.0 L 6861.0 10067.0 L 6764.0 9983.0 L 6707.0 9933.0 L 6642.1 9875.9" class="track" data-sector="10"/>
      <path d="M 6642.1 9875.9 L 6624.0 9860.0 L 6555.0 9799.0 L 6484.0 9737.0 L 6402.0 9666.0 L 6343.0 9615.0 L 6248.0 9532.0 L 6202.0 9492.0 L 6093.0 9398.0 L 6060.0 9369.0 L 5939.0 9263.0 L 5919.0 9246.0 L 5784.0 9128.0 L 5777.0 9122.0 L 5634.0 8999.0 L 5628.0 8994.0 L 5492.0 8875.0 L 5473.0 8859.0 L 5350.0 8752.0 L 5318.0 8725.0 L 5279.1 8691.0" class="track" data-sector="11"/>
      <path d="M 5279.1 8691.0 L 5207.0 8628.0 L 5163.0 8589.0 L 5065.0 8504.0 L 5007.0 8454.0 L 4922.0 8380.0 L 4852.0 8319.0 L 4793.0 8267.0 L 4697.0 8184.0 L 4650.0 8143.0 L 4563.0 8068.0 L 4507.0 8019.0 L 4427.0 7949.0 L 4383.0 7911.0 L 4248.0 7794.0 L 4208.0 7759.0 L 4076.0 7644.0 L 4055.0 7626.0 L 3919.0 7508.0 L 3912.0 7502.0 L 3769.0 7377.0 L 3763.0 7372.0 L 3626.0 7253.0 L 3607.0 7237.0 L 3556.1 7192.7" class="track" data-sector="12"/>
      <path d="M 3556.1 7192.7 L 3483.0 7129.0 L 3451.0 7101.0 L 3341.0 7005.0 L 3299.0 6968.0 L 3210.0 6891.0 L 3158.0 6846.0 L 3091.0 6788.0 L 3052.0 6754.0 L 3016.0 6722.0 L 2961.0 6673.0 L 2921.0 6637.0 L 2861.0 6583.0 L 2835.0 6558.0 L 2775.0 6500.0 L 2758.0 6483.0 L 2698.0 6418.0 L 2689.0 6408.0 L 2635.0 6338.0 L 2633.0 6334.0 L 2591.0 6256.0 L 2583.0 6237.0 L 2562.0 6168.0 L 2555.0 6138.0 L 2546.0 6068.0 L 2543.0 6025.0 L 2542.0 5960.0 L 2539.0 5907.0 L 2538.0 5853.0 L 2541.0 5786.0 L 2544.0 5739.0 L 2544.0 5664.0 L 2543.0 5628.0 L 2537.0 5541.0 L 2535.0 5514.0 L 2519.0 5416.0 L 2516.0 5400.0 L 2486.0 5292.0 L 2484.0 5286.0 L 2440.0 5172.0 L 2438.0 5167.0 L 2390.0 5072.0 L 2376.0 5049.0 L 2324.0 4967.0 L 2300.0 4935.0 L 2244.0 4865.0 L 2224.0 4843.0 L 2151.0 4768.0 L 2119.0 4736.0 L 2051.0 4668.0 L 2013.0 4627.0 L 1963.0 4566.0 L 1925.0 4511.0 L 1890.0 4451.0 L 1855.0 4376.0 L 1834.0 4320.0 L 1803.0 4221.0 L 1791.0 4173.0 L 1766.0 4058.0 L 1760.0 4023.0 L 1741.0 3893.0 L 1739.0 3871.0 L 1725.0 3723.0 L 1725.0 3715.0 L 1712.0 3558.0 L 1711.0 3552.0 L 1698.0 3400.0 L 1696.0 3379.0 L 1682.0 3240.0 L 1678.0 3205.0 L 1665.0 3076.0 L 1659.0 3020.0 L 1648.0 2892.0 L 1642.0 2823.0 L 1634.0 2725.0 L 1626.0 2643.0 L 1618.0 2557.0 L 1609.0 2457.0 L 1603.0 2386.0 L 1592.0 2271.0 L 1587.0 2215.0 L 1574.0 2082.0 L 1571.0 2041.0 L 1557.0 1890.0 L 1555.0 1865.0 L 1539.0 1698.0 L 1539.0 1689.0 L 1536.2 1659.3" class="track" data-sector="13"/>
      <path d="M 1536.2 1659.3 L 1522.0 1511.0 L 1521.0 1504.0 L 1506.0 1331.0 L 1503.0 1308.0 L 1489.0 1151.0 L 1484.0 1107.0 L 1470.0 945.0 L 1464.0 886.0 L 1453.0 762.0 L 1446.0 688.0 L 1437.0 578.0 L 1428.0 487.0 L 1421.0 410.0 L 1409.0 285.0 L 1404.0 225.0 L 1394.0 115.0 L 1387.0 38.0 L 1375.0 -87.0 L 1370.0 -148.0 L 1357.0 -292.0 L 1353.0 -336.0 L 1337.0 -497.0 L 1335.0 -524.0 L 1318.0 -702.0 L 1318.0 -713.0 L 1300.0 -902.0 L 1299.0 -908.0 L 1283.0 -1092.0 L 1280.0 -1116.0 L 1266.0 -1281.0 L 1262.0 -1322.0 L 1248.0 -1471.0 L 1242.0 -1529.0 L 1231.0 -1660.0 L 1223.0 -1735.0 L 1213.0 -1850.0 L 1204.0 -1942.0 L 1196.0 -2039.0 L 1185.0 -2149.0 L 1178.0 -2229.0 L 1166.0 -2355.0 L 1161.0 -2418.0 L 1148.0 -2563.0 L 1144.0 -2608.0 L 1129.0 -2760.0 L 1127.0 -2786.0 L 1111.0 -2953.0 L 1111.0 -2963.0 L 1094.0 -3153.0 L 1093.0 -3159.0 L 1076.0 -3343.0 L 1073.0 -3367.0 L 1059.0 -3533.0 L 1054.0 -3574.0 L 1040.0 -3722.0 L 1034.0 -3780.0 L 1022.0 -3912.0 L 1021.2 -3919.3" class="track" data-sector="14"/>
      <path d="M 1021.2 -3919.3 L 1014.0 -3987.0 L 1003.0 -4102.0 L 993.0 -4195.0 L 983.0 -4292.0 L 970.0 -4399.0 L 962.0 -4475.0 L 947.0 -4589.0 L 940.0 -4643.0 L 921.0 -4760.0 L 915.0 -4797.0 L 889.0 -4926.0 L 885.0 -4948.0 L 853.0 -5073.0 L 852.0 -5080.0 L 813.0 -5204.0 L 811.0 -5208.0 L 771.0 -5310.0 L 769.0 -5316.0 L 716.0 -5419.0 L 713.0 -5423.0 L 652.0 -5512.0 L 642.0 -5523.0 L 574.0 -5596.0 L 554.0 -5612.0 L 484.0 -5667.0 L 454.0 -5686.0 L 386.0 -5725.0 L 344.0 -5744.0 L 279.0 -5768.0 L 223.0 -5782.0 L 165.0 -5794.0 L 94.0 -5802.0 L 44.0 -5805.0 L -37.0 -5802.0 L -77.0 -5798.0 L -170.0 -5782.0 L -199.0 -5776.0 L -303.0 -5744.0 L -321.0 -5739.0 L -432.0 -5692.0 L -440.0 -5689.0 L -517.4 -5645.9" class="track" data-sector="15"/>
      <path d="M -517.4 -5645.9 L -591.0 -5605.0 L -618.0 -5587.0 L -701.0 -5525.0 L -733.0 -5498.0 L -806.0 -5433.0 L -846.0 -5392.0 L -904.0 -5330.0 L -966.0 -5256.0 L -995.0 -5219.0 L -1059.0 -5127.0 L -1078.0 -5098.0 L -1143.0 -4988.0 L -1154.0 -4969.0 L -1221.0 -4834.0 L -1229.0 -4816.0 L -1281.0 -4692.0 L -1293.0 -4660.0 L -1334.0 -4545.0 L -1348.0 -4498.0 L -1379.0 -4393.0 L -1394.0 -4331.0 L -1405.4 -4282.5" class="track" data-sector="16"/>
      <path d="M -1405.4 -4282.5 L -1416.0 -4237.0 L -1431.0 -4158.0 L -1446.0 -4077.0 L -1459.0 -3985.0 L -1467.0 -3924.0 L -1476.0 -3836.0 L -1479.0 -3803.0 L -1488.0 -3660.0 L -1490.0 -3635.0 L -1495.0 -3474.0 L -1496.0 -3465.0 L -1498.0 -3318.0 L -1499.0 -3294.0 L -1499.0 -3129.0 L -1500.0 -3121.0 L -1499.0 -2946.0 L -1498.0 -2938.0 L -1496.0 -2770.0 L -1495.0 -2746.0 L -1491.0 -2593.0 L -1490.0 -2559.0 L -1487.0 -2448.0 L -1485.0 -2395.0 L -1480.0 -2268.0 L -1476.0 -2194.0 L -1472.0 -2086.0 L -1467.0 -1996.0 L -1462.0 -1903.0 L -1455.0 -1795.0 L -1451.0 -1719.0 L -1443.0 -1595.0 L -1439.0 -1535.0 L -1429.0 -1393.0 L -1426.0 -1349.0 L -1415.0 -1190.0 L -1414.6 -1183.9" class="track" data-sector="17"/>
      <path d="M -1414.6 -1183.9 L -1413.0 -1163.0 L -1398.0 -987.0 L -1398.0 -977.0 L -1393.0 -874.0 L -1393.0 -874.0 L -1384.0 -794.0 L -1383.0 -787.0 L -1368.0 -606.0 L -1365.0 -582.0 L -1352.0 -418.0 L -1348.0 -376.0 L -1335.0 -228.0 L -1329.0 -169.0 L -1318.0 -38.0 L -1311.0 37.0 L -1301.0 151.0 L -1292.0 244.0 L -1284.0 342.0 L -1274.0 453.0 L -1268.0 534.0 L -1256.0 663.0 L -1251.0 727.0 L -1237.0 875.0 L -1234.0 921.0 L -1220.0 1086.0 L -1218.0 1115.0 L -1201.0 1299.0 L -1201.0 1310.0 L -1184.0 1506.0 L -1183.0 1513.0 L -1167.0 1702.0 L -1164.0 1727.0 L -1150.0 1899.0 L -1146.0 1942.0 L -1133.0 2096.0 L -1124.0 2192.0 L -1118.0 2275.0 L -1106.0 2406.0 L -1101.0 2473.0 L -1091.0 2588.0 L -1084.0 2672.0 L -1071.0 2805.0 L -1066.0 2871.0 L -1052.0 3023.0 L -1049.0 3071.0 L -1034.0 3241.0 L -1032.0 3270.0 L -1015.0 3459.0 L -1015.0 3470.0 L -1004.8 3590.0" class="track" data-sector="1"/>
    </g>

    <g id="marshal-lights">
      <g class="marshal-light-marker" data-light="1">
        <rect x="-1463.3" y="-944.3" width="140.6" height="140.6" class="marshal-light-bg"/>
        <text x="-1393.0" y="-874.0" class="marshal-light-label">1</text>
      </g>
      <g class="marshal-light-marker" data-light="2">
        <rect x="-1063.9" y="3645.3" width="140.6" height="140.6" class="marshal-light-bg"/>
        <text x="-993.6" y="3715.6" class="marshal-light-label">2</text>
      </g>
      <g class="marshal-light-marker" data-light="3">
        <rect x="-799.0" y="6737.0" width="140.6" height="140.6" class="marshal-light-bg"/>
        <text x="-728.7" y="6807.3" class="marshal-light-label">3</text>
      </g>
      <g class="marshal-light-marker" data-light="4">
        <rect x="-404.3" y="9352.8" width="140.6" height="140.6" class="marshal-light-bg"/>
        <text x="-334.0" y="9423.1" class="marshal-light-label">4</text>
      </g>
      <g class="marshal-light-marker" data-light="5">
        <rect x="-267.0" y="11979.5" width="140.6" height="140.6" class="marshal-light-bg"/>
        <text x="-196.7" y="12049.8" class="marshal-light-label">5</text>
      </g>
      <g class="marshal-light-marker" data-light="6">
        <rect x="1217.3" y="13724.0" width="140.6" height="140.6" class="marshal-light-bg"/>
        <text x="1287.6" y="13794.3" class="marshal-light-label">6</text>
      </g>
      <g class="marshal-light-marker" data-light="7">
        <rect x="5014.6" y="14383.4" width="140.6" height="140.6" class="marshal-light-bg"/>
        <text x="5084.9" y="14453.7" class="marshal-light-label">7</text>
      </g>
      <g class="marshal-light-marker" data-light="8">
        <rect x="8769.0" y="15461.5" width="140.6" height="140.6" class="marshal-light-bg"/>
        <text x="8839.3" y="15531.8" class="marshal-light-label">8</text>
      </g>
      <g class="marshal-light-marker" data-light="9">
        <rect x="10975.9" y="13353.7" width="140.6" height="140.6" class="marshal-light-bg"/>
        <text x="11046.2" y="13424.0" class="marshal-light-label">9</text>
      </g>
      <g class="marshal-light-marker" data-light="10">
        <rect x="9079.3" y="11483.2" width="140.6" height="140.6" class="marshal-light-bg"/>
        <text x="9149.6" y="11553.5" class="marshal-light-label">10</text>
      </g>
      <g class="marshal-light-marker" data-light="11">
        <rect x="6480.6" y="9725.1" width="140.6" height="140.6" class="marshal-light-bg"/>
        <text x="6550.9" y="9795.4" class="marshal-light-label">11</text>
      </g>
      <g class="marshal-light-marker" data-light="12">
        <rect x="5617.2" y="8974.7" width="140.6" height="140.6" class="marshal-light-bg"/>
        <text x="5687.5" y="9045.0" class="marshal-light-label">12</text>
      </g>
      <g class="marshal-light-marker" data-light="13">
        <rect x="3639.0" y="7255.1" width="140.6" height="140.6" class="marshal-light-bg"/>
        <text x="3709.3" y="7325.4" class="marshal-light-label">13</text>
      </g>
      <g class="marshal-light-marker" data-light="14">
        <rect x="1472.3" y="1665.3" width="140.6" height="140.6" class="marshal-light-bg"/>
        <text x="1542.6" y="1735.6" class="marshal-light-label">14</text>
      </g>
      <g class="marshal-light-marker" data-light="15">
        <rect x="965.1" y="-3837.1" width="140.6" height="140.6" class="marshal-light-bg"/>
        <text x="1035.4" y="-3766.8" class="marshal-light-label">15</text>
      </g>
      <g class="marshal-light-marker" data-light="16">
        <rect x="-662.4" y="-5674.5" width="140.6" height="140.6" class="marshal-light-bg"/>
        <text x="-592.1" y="-5604.3" class="marshal-light-label">16</text>
      </g>
      <g class="marshal-light-marker" data-light="17">
        <rect x="-1515.9" y="-4149.6" width="140.6" height="140.6" class="marshal-light-bg"/>
        <text x="-1445.6" y="-4079.3" class="marshal-light-label">17</text>
      </g>
    </g>

    <g id="marshal-sectors">
      <g class="marshal-sector-marker" data-sector="1" data-length="57336.3">
        <polygon points="-1414.6,-1352.6 -1560.6,-1099.6 -1268.5,-1099.6" class="marshal-sector-bg"/>
        <text x="-1414.6" y="-1183.9" class="marshal-sector-label">1</text>
      </g>
      <g class="marshal-sector-marker" data-sector="2" data-length="4481.2">
        <polygon points="-1004.8,3421.4 -1150.9,3674.4 -858.7,3674.4" class="marshal-sector-bg"/>
        <text x="-1004.8" y="3590.0" class="marshal-sector-label">2</text>
      </g>
      <g class="marshal-sector-marker" data-sector="3" data-length="7507.6">
        <polygon points="-746.1,6436.7 -892.2,6689.7 -600.1,6689.7" class="marshal-sector-bg"/>
        <text x="-746.1" y="6605.3" class="marshal-sector-label">3</text>
      </g>
      <g class="marshal-sector-marker" data-sector="4" data-length="10741.3">
        <polygon points="-361.4,9382.2 -507.4,9635.2 -215.3,9635.2" class="marshal-sector-bg"/>
        <text x="-361.4" y="9550.8" class="marshal-sector-label">4</text>
      </g>
      <g class="marshal-sector-marker" data-sector="5" data-length="13137.2">
        <polygon points="-236.7,11756.8 -382.8,12009.8 -90.6,12009.8" class="marshal-sector-bg"/>
        <text x="-236.7" y="11925.5" class="marshal-sector-label">5</text>
      </g>
      <g class="marshal-sector-marker" data-sector="6" data-length="15582.7">
        <polygon points="1260.1,13610.2 1114.0,13863.2 1406.2,13863.2" class="marshal-sector-bg"/>
        <text x="1260.1" y="13778.8" class="marshal-sector-label">6</text>
      </g>
      <g class="marshal-sector-marker" data-sector="7" data-length="19604.5">
        <polygon points="5188.3,14290.5 5042.2,14543.5 5334.4,14543.5" class="marshal-sector-bg"/>
        <text x="5188.3" y="14459.2" class="marshal-sector-label">7</text>
      </g>
      <g class="marshal-sector-marker" data-sector="8" data-length="23491.2">
        <polygon points="8780.7,15339.8 8634.6,15592.8 8926.8,15592.8" class="marshal-sector-bg"/>
        <text x="8780.7" y="15508.5" class="marshal-sector-label">8</text>
      </g>
      <g class="marshal-sector-marker" data-sector="9" data-length="27814.7">
        <polygon points="11051.1,13206.0 10905.0,13459.0 11197.2,13459.0" class="marshal-sector-bg"/>
        <text x="11051.1" y="13374.7" class="marshal-sector-label">9</text>
      </g>
      <g class="marshal-sector-marker" data-sector="10" data-length="30679.0">
        <polygon points="9169.1,11396.0 9023.1,11649.0 9315.2,11649.0" class="marshal-sector-bg"/>
        <text x="9169.1" y="11564.6" class="marshal-sector-label">10</text>
      </g>
      <g class="marshal-sector-marker" data-sector="11" data-length="33728.0">
        <polygon points="6642.1,9707.2 6496.0,9960.2 6788.1,9960.2" class="marshal-sector-bg"/>
        <text x="6642.1" y="9875.9" class="marshal-sector-label">11</text>
      </g>
      <g class="marshal-sector-marker" data-sector="12" data-length="35534.0">
        <polygon points="5279.1,8522.4 5133.0,8775.4 5425.2,8775.4" class="marshal-sector-bg"/>
        <text x="5279.1" y="8691.0" class="marshal-sector-label">12</text>
      </g>
      <g class="marshal-sector-marker" data-sector="13" data-length="37817.4">
        <polygon points="3556.1,7024.0 3410.1,7277.0 3702.2,7277.0" class="marshal-sector-bg"/>
        <text x="3556.1" y="7192.7" class="marshal-sector-label">13</text>
      </g>
      <g class="marshal-sector-marker" data-sector="14" data-length="44009.9">
        <polygon points="1536.2,1490.6 1390.1,1743.6 1682.2,1743.6" class="marshal-sector-bg"/>
        <text x="1536.2" y="1659.3" class="marshal-sector-label">14</text>
      </g>
      <g class="marshal-sector-marker" data-sector="15" data-length="49612.5">
        <polygon points="1021.2,-4088.0 875.2,-3834.9 1167.3,-3834.9" class="marshal-sector-bg"/>
        <text x="1021.2" y="-3919.3" class="marshal-sector-label">15</text>
      </g>
      <g class="marshal-sector-marker" data-sector="16" data-length="52553.4">
        <polygon points="-517.4,-5814.6 -663.5,-5561.6 -371.3,-5561.6" class="marshal-sector-bg"/>
        <text x="-517.4" y="-5645.9" class="marshal-sector-label">16</text>
      </g>
      <g class="marshal-sector-marker" data-sector="17" data-length="54228.7">
        <polygon points="-1405.4,-4451.1 -1551.4,-4198.1 -1259.3,-4198.1" class="marshal-sector-bg"/>
        <text x="-1405.4" y="-4282.5" class="marshal-sector-label">17</text>
      </g>
    </g>

    <g id="corners">
      <g class="corner-marker" data-corner="1" data-length="9070.4">
        <circle cx="-569.6" cy="8153.7" r="224.9" class="corner-bg"/>
        <text x="-569.6" y="8153.7" class="corner-label">1</text>
      </g>
      <g class="corner-marker" data-corner="2" data-length="9637.9">
        <circle cx="-146.8" cy="8475.0" r="224.9" class="corner-bg"/>
        <text x="-146.8" y="8475.0" class="corner-label">2</text>
      </g>
      <g class="corner-marker" data-corner="3" data-length="14781.1">
        <circle cx="611.6" cy="13310.6" r="224.9" class="corner-bg"/>
        <text x="611.6" y="13310.6" class="corner-label">3</text>
      </g>
      <g class="corner-marker" data-corner="4" data-length="21248.3">
        <circle cx="6808.7" cy="14630.8" r="224.9" class="corner-bg"/>
        <text x="6808.7" y="14630.8" class="corner-label">4</text>
      </g>
      <g class="corner-marker" data-corner="5" data-length="21766.3">
        <circle cx="7130.9" cy="15023.1" r="224.9" class="corner-bg"/>
        <text x="7130.9" y="15023.1" class="corner-label">5</text>
      </g>
      <g class="corner-marker" data-corner="6" data-length="25364.7">
        <circle cx="10554.9" cy="15713.8" r="224.9" class="corner-bg"/>
        <text x="10554.9" y="15713.8" class="corner-label">6</text>
      </g>
      <g class="corner-marker" data-corner="7" data-length="28557.8">
        <circle cx="10972.6" cy="12648.4" r="224.9" class="corner-bg"/>
        <text x="10972.6" y="12648.4" class="corner-label">7</text>
      </g>
      <g class="corner-marker" data-corner="8" data-length="39258.5">
        <circle cx="2562.9" cy="6171.0" r="224.9" class="corner-bg"/>
        <text x="2562.9" y="6171.0" class="corner-label">8</text>
      </g>
      <g class="corner-marker" data-corner="9" data-length="40168.3">
        <circle cx="2478.0" cy="5270.6" r="224.9" class="corner-bg"/>
        <text x="2478.0" y="5270.6" class="corner-label">9</text>
      </g>
      <g class="corner-marker" data-corner="10" data-length="41186.1">
        <circle cx="1890.1" cy="4451.2" r="224.9" class="corner-bg"/>
        <text x="1890.1" y="4451.2" class="corner-label">10</text>
      </g>
      <g class="corner-marker" data-corner="11" data-length="52062.5">
        <circle cx="-55.3" cy="-5800.2" r="224.9" class="corner-bg"/>
        <text x="-55.3" y="-5800.2" class="corner-label">11</text>
      </g>
    </g>

    <g id="start-finish" data-track-x="-1393.0" data-track-y="-874.0" data-lap-distance="57647.1">
      <polygon points="-1888.6,-1676.2 -1813.0,-836.2 -2317.0,-790.8 -2392.6,-1630.8" class="checker-border"/>
      <polygon points="-1888.6,-1676.2 -1873.5,-1508.2 -2041.5,-1493.0 -2056.6,-1661.0" class="checker-black"/>
      <polygon points="-2056.6,-1661.0 -2041.5,-1493.0 -2209.5,-1477.9 -2224.6,-1645.9" class="checker-white"/>
      <polygon points="-2224.6,-1645.9 -2209.5,-1477.9 -2377.4,-1462.8 -2392.6,-1630.8" class="checker-black"/>
      <polygon points="-1873.5,-1508.2 -1858.3,-1340.2 -2026.3,-1325.1 -2041.5,-1493.0" class="checker-white"/>
      <polygon points="-2041.5,-1493.0 -2026.3,-1325.1 -2194.3,-1309.9 -2209.5,-1477.9" class="checker-black"/>
      <polygon points="-2209.5,-1477.9 -2194.3,-1309.9 -2362.3,-1294.8 -2377.4,-1462.8" class="checker-white"/>
      <polygon points="-1858.3,-1340.2 -1843.2,-1172.2 -2011.2,-1157.1 -2026.3,-1325.1" class="checker-black"/>
      <polygon points="-2026.3,-1325.1 -2011.2,-1157.1 -2179.2,-1141.9 -2194.3,-1309.9" class="checker-white"/>
      <polygon points="-2194.3,-1309.9 -2179.2,-1141.9 -2347.2,-1126.8 -2362.3,-1294.8" class="checker-black"/>
      <polygon points="-1843.2,-1172.2 -1828.1,-1004.2 -1996.1,-989.1 -2011.2,-1157.1" class="checker-white"/>
      <polygon points="-2011.2,-1157.1 -1996.1,-989.1 -2164.1,-973.9 -2179.2,-1141.9" class="checker-black"/>
      <polygon points="-2179.2,-1141.9 -2164.1,-973.9 -2332.1,-958.8 -2347.2,-1126.8" class="checker-white"/>
      <polygon points="-1828.1,-1004.2 -1813.0,-836.2 -1981.0,-821.1 -1996.1,-989.1" class="checker-black"/>
      <polygon points="-1996.1,-989.1 -1981.0,-821.1 -2149.0,-806.0 -2164.1,-973.9" class="checker-white"/>
      <polygon points="-2164.1,-973.9 -2149.0,-806.0 -2317.0,-790.8 -2332.1,-958.8" class="checker-black"/>
      <polyline points="-2269.4,51.7 -1964.2,306.4 -1709.4,1.2" class="chevron"/>
      <polyline points="-2249.2,275.6 -1944.0,530.4 -1689.2,225.2" class="chevron"/>
      <polyline points="-2229.0,499.6 -1923.8,754.4 -1669.1,449.2" class="chevron"/>
    </g>

    <g id="car-markers"></g>

  </g>
</svg>
