<?xml version="1.0" encoding="utf-8"?>
<?xml-stylesheet type="text/css" href="../../css/tracks.css"?>
<svg xmlns="http://www.w3.org/2000/svg" viewBox="-472.0 341.1 960.0 683.6">
  <title>Sakhir</title>

  <g id="track-root" transform="translate(0, 683.57) scale(1, -1) scale(0.067529) translate(-3461.00, -2423.50) rotate(92, 3461.00, 2423.50)" data-scale="0.067529" data-rotation="92.0">

    <g id="track-outline">
      <path d="M -175.1 6721.3 L -174.0 6767.0 L -174.0 6786.0 L -167.0 7024.0 L -165.0 7056.0 L -159.0 7262.0 L -157.0 7336.0 L -154.0 7418.0 L -150.0 7534.0 L -147.0 7583.0 L -141.0 7725.0 L -138.0 7777.0 L -136.0 7825.0 L -133.0 7863.0 L -132.0 7866.0 L -122.0 7997.0 L -121.0 8012.0 L -119.0 8031.0 L -106.0 8098.0 L -89.0 8166.0 L -88.0 8168.0 L -65.0 8222.0 L -56.0 8235.0 L -30.0 8271.0 L -5.0 8296.0 L 6.0 8307.0 L 28.0 8322.0 L 44.0 8330.0 L 115.0 8348.0 L 117.0 8348.0 L 158.0 8347.0 L 180.0 8337.0 L 196.0 8328.0 L 234.0 8310.0 L 235.0 8308.0 L 259.0 8292.0 L 263.0 8290.0 L 288.0 8270.0 L 300.0 8261.0 L 319.0 8243.0 L 330.0 8234.0 L 348.0 8216.0 L 375.0 8190.0 L 398.0 8165.0 L 426.0 8136.0 L 449.0 8110.0 L 474.0 8084.0 L 476.0 8083.0 L 499.0 8060.0 L 523.0 8036.0 L 548.0 8015.0 L 595.0 7977.0 L 607.0 7970.0 L 693.0 7923.0 L 715.0 7912.0 L 795.0 7885.0 L 811.0 7881.0 L 876.0 7868.0 L 881.0 7868.0 L 954.0 7863.0 L 1074.0 7871.0 L 1090.0 7873.0 L 1208.0 7890.0 L 1243.0 7897.0 L 1337.0 7916.0 L 1350.0 7919.0 L 1443.0 7942.0 L 1585.0 7986.0 L 1602.0 7992.0 L 1655.0 8011.0 L 1759.0 8041.0 L 1820.0 8051.0 L 1923.0 8067.0 L 1994.0 8074.0 L 2029.3 8072.5" class="track-outline" data-sector="2"/>
      <path d="M 2029.3 8072.5 L 2064.0 8071.0 L 2088.0 8070.0 L 2238.0 8065.0 L 2257.0 8065.0 L 2380.0 8055.0 L 2386.0 8054.0 L 2479.0 8044.0 L 2580.0 8031.0 L 2637.0 8021.0 L 2706.0 8010.0 L 2807.0 7989.0 L 2860.0 7979.0 L 3109.0 7928.0 L 3131.0 7923.0 L 3201.0 7909.0 L 3270.0 7896.0 L 3399.0 7869.0 L 3420.0 7865.0 L 3511.0 7846.0 L 3559.0 7837.0 L 3622.0 7824.0 L 3643.0 7820.0 L 3792.0 7789.0 L 3813.0 7785.0 L 3935.0 7760.0 L 3956.0 7756.0 L 4072.0 7733.0 L 4078.0 7731.0 L 4217.0 7704.0 L 4400.0 7667.0 L 4548.0 7638.0 L 4555.0 7636.0 L 4683.0 7611.0 L 4791.0 7589.0 L 4866.0 7575.0 L 4985.0 7551.0 L 5112.0 7526.0 L 5158.0 7516.0 L 5251.0 7499.0 L 5502.0 7451.0 L 5571.0 7437.0 L 5658.0 7421.0 L 5771.0 7401.0 L 5868.0 7383.0 L 5938.0 7370.2" class="track-outline" data-sector="3"/>
      <path d="M 5938.0 7370.2 L 6027.0 7354.0 L 6135.0 7333.0 L 6156.0 7330.0 L 6367.0 7291.0 L 6500.0 7268.0 L 6508.0 7266.0 L 6620.0 7246.0 L 6756.0 7222.0 L 6802.0 7213.0 L 6946.0 7186.0 L 7008.0 7173.0 L 7048.0 7162.0 L 7081.0 7151.0 L 7196.0 7110.0 L 7223.0 7098.0 L 7242.0 7089.0 L 7337.0 7031.0 L 7368.0 7010.0 L 7387.0 6994.0 L 7432.0 6946.0 L 7437.0 6938.0 L 7464.0 6895.0 L 7476.0 6855.0 L 7495.0 6751.0 L 7498.0 6735.0 L 7499.0 6705.0 L 7496.0 6682.0 L 7483.0 6602.0 L 7473.0 6549.0 L 7446.0 6466.0 L 7420.0 6418.0 L 7409.0 6399.0 L 7375.0 6345.0 L 7373.0 6342.0 L 7333.0 6292.0 L 7319.0 6276.0 L 7242.0 6198.0 L 7192.0 6152.0 L 7150.0 6118.0 L 7122.0 6096.0 L 7066.0 6054.0 L 6994.0 6003.0 L 6984.0 5996.0 L 6970.0 5986.0 L 6915.0 5947.0 L 6832.0 5890.0 L 6771.0 5847.0 L 6701.0 5797.0 L 6664.0 5770.0 L 6608.0 5727.0 L 6595.0 5717.0 L 6513.7 5653.4" class="track-outline" data-sector="4"/>
      <path d="M 6513.7 5653.4 L 6462.0 5613.0 L 6412.0 5572.0 L 6384.0 5548.0 L 6286.0 5458.0 L 6257.0 5429.0 L 6160.0 5326.0 L 6155.0 5321.0 L 6104.0 5261.0 L 6042.0 5183.0 L 6015.0 5148.0 L 5924.0 5020.0 L 5917.0 5009.0 L 5859.0 4924.0 L 5783.0 4800.0 L 5701.0 4665.0 L 5684.0 4637.0 L 5641.0 4564.0 L 5604.0 4523.0 L 5470.0 4380.0 L 5440.1 4352.9" class="track-outline" data-sector="5"/>
      <path d="M 5440.1 4352.9 L 5438.0 4351.0 L 5281.0 4254.0 L 5253.0 4240.0 L 5227.0 4226.0 L 5133.0 4203.0 L 5089.0 4197.0 L 4967.0 4185.0 L 4907.0 4180.0 L 4883.0 4182.0 L 4844.0 4185.0 L 4816.0 4185.0 L 4586.0 4189.0 L 4580.0 4189.0 L 4517.0 4189.0 L 4457.0 4184.0 L 4295.0 4160.0 L 4275.0 4156.0 L 4176.0 4130.0 L 4106.0 4103.0 L 4070.0 4088.0 L 4043.0 4076.0 L 3973.0 4042.0 L 3968.0 4039.0 L 3857.0 3972.0 L 3852.0 3969.0 L 3822.0 3945.0" class="track-outline" data-sector="6"/>
      <path d="M 3822.0 3945.0 L 3718.0 3862.0 L 3704.0 3849.0 L 3628.0 3773.0 L 3572.0 3703.0 L 3563.0 3690.0 L 3497.0 3601.0 L 3447.0 3529.0 L 3407.0 3466.0 L 3309.0 3308.0 L 3299.0 3292.0 L 3246.0 3203.0 L 3203.0 3130.0 L 3173.0 3078.0 L 3150.0 3038.0 L 3102.0 2960.0 L 3067.0 2908.0 L 2990.0 2798.0 L 2977.0 2780.0 L 2928.0 2716.0 L 2921.0 2707.0 L 2911.0 2694.8" class="track-outline" data-sector="7"/>
      <path d="M 2911.0 2694.8 L 2872.0 2647.0 L 2833.0 2602.0 L 2793.0 2564.0 L 2741.0 2521.0 L 2723.0 2508.0 L 2690.0 2487.0 L 2657.0 2476.0 L 2644.0 2472.0 L 2625.0 2467.0 L 2557.0 2458.0 L 2519.0 2457.0 L 2491.0 2458.0 L 2467.0 2474.0 L 2462.0 2477.0 L 2425.0 2508.0 L 2407.0 2529.0 L 2401.0 2537.0 L 2399.0 2538.0 L 2365.0 2595.0 L 2364.0 2598.0 L 2329.0 2677.0 L 2328.0 2679.0 L 2313.0 2725.0 L 2313.0 2727.0 L 2304.0 2760.0 L 2301.0 2777.0 L 2295.0 2815.0 L 2294.0 2817.0 L 2290.0 2868.0 L 2290.0 2871.0 L 2289.0 2930.0 L 2289.0 2943.0 L 2291.0 2995.0 L 2291.0 3007.0 L 2299.0 3085.0 L 2303.0 3122.0 L 2305.0 3142.0 L 2313.0 3188.0 L 2318.0 3224.0 L 2329.0 3293.0 L 2336.0 3330.0 L 2347.0 3388.0 L 2355.0 3424.0 L 2380.0 3542.0 L 2389.0 3586.0 L 2395.0 3610.0 L 2402.0 3645.0 L 2428.0 3759.0 L 2442.8 3827.1" class="track-outline" data-sector="8"/>
      <path d="M 2442.8 3827.1 L 2446.0 3842.0 L 2458.0 3900.0 L 2475.0 3980.0 L 2476.0 3985.0 L 2496.0 4079.0 L 2521.0 4184.0 L 2531.0 4223.0 L 2553.0 4314.0 L 2565.0 4367.0 L 2587.0 4464.0 L 2599.0 4520.0 L 2615.0 4595.0 L 2657.0 4802.0 L 2658.0 4811.0 L 2679.0 4920.0 L 2687.0 4965.0 L 2700.0 5041.0 L 2717.0 5159.0 L 2737.0 5312.0 L 2741.0 5352.0 L 2747.0 5421.0 L 2749.0 5444.0 L 2754.0 5640.0 L 2747.0 5712.0 L 2738.5 5781.6" class="track-outline" data-sector="9"/>
      <path d="M 2738.5 5781.6 L 2728.0 5868.0 L 2711.0 5951.0 L 2689.0 6005.0 L 2684.0 6018.0 L 2651.0 6108.0 L 2592.0 6229.0 L 2585.0 6242.0 L 2553.0 6293.0 L 2536.0 6319.0 L 2494.0 6375.0 L 2475.0 6396.0 L 2389.0 6484.0 L 2385.0 6487.0 L 2296.0 6554.0 L 2283.0 6562.0 L 2249.0 6579.0 L 2203.0 6599.0 L 2153.0 6611.0 L 2136.0 6614.0 L 2104.0 6614.0 L 2097.0 6614.0 L 2034.0 6596.0 L 2027.0 6594.0 L 1998.0 6578.0 L 1977.0 6556.0 L 1970.0 6547.0 L 1949.5 6521.6" class="track-outline" data-sector="10"/>
      <path d="M 1949.5 6521.6 L 1949.0 6521.0 L 1927.0 6482.0 L 1922.0 6471.0 L 1904.0 6425.0 L 1895.0 6400.0 L 1887.0 6372.0 L 1868.0 6290.0 L 1868.0 6288.0 L 1857.0 6227.0 L 1855.0 6214.0 L 1849.0 6177.0 L 1836.0 6079.0 L 1834.0 6067.0 L 1818.0 5923.0 L 1817.0 5913.0 L 1780.0 5511.0 L 1776.0 5465.0 L 1772.0 5387.0 L 1767.0 5318.0 L 1766.0 5291.0 L 1761.0 5224.0 L 1752.0 5067.0 L 1747.0 4990.0 L 1743.0 4909.0 L 1743.0 4904.0 L 1738.0 4819.0 L 1732.0 4726.0 L 1726.0 4617.0 L 1726.0 4609.0 L 1715.0 4417.0 L 1714.0 4379.0 L 1709.0 4296.0 L 1709.0 4274.0 L 1704.0 4167.0 L 1703.0 4131.0 L 1699.0 4052.0 L 1694.0 3940.0 L 1691.0 3890.0 L 1685.0 3759.0 L 1684.0 3751.0 L 1679.0 3631.0 L 1677.0 3603.0 L 1664.0 3340.0 L 1663.0 3313.0 L 1656.0 3159.0 L 1653.0 3076.0 L 1648.0 2962.0 L 1643.0 2835.0 L 1640.0 2783.0 L 1635.0 2668.0 L 1633.0 2629.0 L 1630.0 2544.0 L 1617.0 2287.0 L 1617.0 2280.0 L 1604.0 2019.0 L 1603.0 1988.0 L 1591.0 1766.0 L 1590.0 1733.0 L 1578.0 1486.0 L 1576.0 1442.0 L 1571.0 1337.0 L 1569.0 1295.0 L 1563.0 1172.0 L 1560.0 1115.0 L 1557.0 1066.0 L 1546.0 885.0 L 1541.0 784.0 L 1531.0 597.0 L 1527.0 512.0 L 1522.0 419.0 L 1519.0 328.0 L 1518.0 321.0 L 1518.0 158.4" class="track-outline" data-sector="11"/>
      <path d="M 1518.0 158.4 L 1518.0 125.0 L 1520.0 62.0 L 1526.0 3.0 L 1534.0 -60.0 L 1538.0 -86.0 L 1547.0 -140.0 L 1559.0 -191.0 L 1568.0 -229.0 L 1607.0 -336.0 L 1615.0 -351.0 L 1686.0 -461.0 L 1728.0 -509.0 L 1781.0 -540.0 L 1784.0 -542.0 L 1802.0 -553.0 L 1880.0 -594.0 L 1919.0 -609.0 L 2038.0 -646.0 L 2042.0 -648.0 L 2118.0 -663.0 L 2121.0 -664.0 L 2238.0 -669.0 L 2243.0 -669.0 L 2340.0 -659.0 L 2357.0 -656.0 L 2524.0 -610.0 L 2527.0 -610.0 L 2615.0 -574.0 L 2669.0 -544.0 L 2815.0 -458.0 L 2833.0 -445.0 L 2891.0 -399.0 L 2919.0 -374.0 L 2983.0 -314.0 L 3017.0 -278.0 L 3091.0 -190.0 L 3118.0 -156.0 L 3148.5 -112.1" class="track-outline" data-sector="12"/>
      <path d="M 3148.5 -112.1 L 3182.0 -64.0 L 3239.0 36.0 L 3263.0 83.0 L 3285.0 129.0 L 3317.0 200.0 L 3324.0 215.0 L 3372.0 328.0 L 3384.0 358.0 L 3614.8 837.9" class="track-outline" data-sector="13"/>
      <path d="M 3614.8 837.9 L 3673.0 959.0 L 3702.0 1003.0 L 3751.0 1069.0 L 3791.0 1118.0 L 3811.0 1141.0 L 3883.0 1218.0 L 3926.0 1259.0 L 3985.0 1309.0 L 4067.0 1367.0 L 4108.0 1392.0 L 4187.0 1435.0 L 4293.0 1486.0 L 4312.0 1494.0 L 4416.0 1534.0 L 4422.0 1537.0 L 4541.0 1574.0 L 4656.0 1598.0 L 4676.0 1602.0 L 4787.0 1614.0 L 4795.0 1614.0 L 5013.0 1602.0 L 5095.0 1593.0 L 5124.0 1588.0 L 5210.0 1567.0 L 5260.0 1548.0 L 5444.0 1469.0 L 5549.0 1423.0 L 5601.0 1398.0 L 5641.0 1376.0 L 5668.0 1363.0 L 5771.0 1310.0 L 5818.0 1288.0 L 5985.0 1208.0 L 6004.0 1200.0 L 6066.0 1170.0 L 6110.8 1147.6" class="track-outline" data-sector="14"/>
      <path d="M 6110.8 1147.6 L 6130.0 1138.0 L 6225.0 1090.0 L 6311.0 1037.0 L 6358.0 1007.0 L 6388.0 985.0 L 6478.0 909.0 L 6481.0 907.0 L 6557.0 820.0 L 6559.0 816.0 L 6596.0 756.0 L 6630.0 665.0 L 6647.0 615.0 L 6658.0 572.0 L 6663.0 510.0 L 6663.0 506.0 L 6666.0 448.0 L 6657.0 342.0 L 6653.0 323.0 L 6638.0 271.0 L 6618.0 217.0 L 6604.0 190.0 L 6551.0 104.0 L 6543.0 92.0 L 6494.0 28.0 L 6468.0 4.0 L 6453.0 -10.0 L 6404.0 -55.0 L 6395.0 -64.0 L 6331.0 -116.0 L 6297.0 -141.0 L 6282.0 -151.0 L 6162.0 -229.0 L 6134.0 -245.0 L 6051.0 -292.0 L 6005.0 -315.0 L 5989.0 -324.0 L 5946.0 -346.0 L 5898.0 -372.0 L 5844.0 -400.0 L 5727.0 -461.0 L 5704.0 -472.0 L 5670.0 -490.0 L 5668.0 -492.0 L 5577.0 -538.0 L 5517.0 -570.0 L 5428.0 -615.0 L 5414.0 -623.0 L 5345.0 -658.0 L 5307.3 -678.3" class="track-outline" data-sector="15"/>
      <path d="M 5307.3 -678.3 L 5254.0 -707.0 L 5193.0 -739.0 L 5167.0 -754.0 L 5083.0 -798.0 L 5067.0 -807.0 L 4977.0 -855.0 L 4852.0 -923.0 L 4835.0 -931.0 L 4753.0 -976.0 L 4702.0 -1004.0 L 4514.0 -1107.0 L 4506.0 -1111.0 L 4407.0 -1166.0 L 4373.0 -1184.0 L 4227.0 -1266.0 L 4220.0 -1269.0 L 4153.0 -1307.0 L 3900.0 -1446.0 L 3882.0 -1457.0 L 3743.0 -1534.0 L 3656.0 -1583.0 L 3618.0 -1604.0 L 3552.0 -1640.0 L 3450.0 -1697.0 L 3427.0 -1711.0 L 3303.0 -1779.0 L 3209.0 -1832.0 L 3155.0 -1862.0 L 3102.0 -1891.0 L 3041.0 -1926.0 L 2964.0 -1968.0 L 2780.0 -2071.0 L 2740.0 -2092.0 L 2613.0 -2164.0 L 2580.0 -2183.0 L 2493.0 -2230.0 L 2432.0 -2265.0 L 2400.0 -2282.0 L 2216.0 -2385.0 L 2180.0 -2404.0 L 2107.0 -2446.0 L 1944.0 -2538.0 L 1936.0 -2542.0 L 1750.0 -2646.0 L 1725.0 -2661.0 L 1525.0 -2774.0 L 1423.0 -2833.0 L 1381.0 -2856.0 L 1292.0 -2908.0 L 1258.0 -2928.0 L 1172.0 -2976.0 L 1079.0 -3030.0 L 1046.0 -3048.4" class="track-outline" data-sector="16"/>
      <path d="M 1046.0 -3048.4 L 1002.0 -3073.0 L 920.0 -3121.0 L 725.0 -3231.0 L 689.0 -3252.0 L 614.0 -3294.0 L 550.0 -3329.0 L 447.0 -3383.0 L 422.0 -3395.0 L 371.0 -3420.0 L 288.0 -3452.0 L 225.0 -3471.0 L 203.0 -3477.0 L 57.0 -3497.0 L 12.0 -3501.0 L -13.0 -3501.0 L -51.0 -3497.0 L -77.0 -3491.0 L -132.0 -3477.0 L -148.0 -3472.0 L -190.0 -3450.0 L -199.0 -3444.0 L -277.0 -3376.0 L -280.0 -3374.0 L -319.0 -3329.0 L -331.0 -3315.0 L -362.0 -3271.0 L -387.0 -3236.0 L -399.0 -3216.0 L -422.0 -3180.0 L -452.0 -3122.0 L -460.0 -3106.0 L -487.0 -3044.0 L -488.0 -3040.0 L -515.0 -2965.0 L -533.0 -2892.0 L -549.0 -2824.0 L -558.0 -2776.0 L -562.0 -2743.0 L -563.0 -2730.0 L -570.0 -2668.0 L -574.0 -2591.0 L -577.0 -2488.0 L -577.0 -2472.0 L -576.0 -2387.0 L -576.0 -2382.0 L -571.0 -2230.0 L -567.0 -2153.0 L -564.9 -2112.8" class="track-outline" data-sector="17"/>
      <path d="M -564.9 -2112.8 L -563.0 -2076.0 L -563.0 -2072.0 L -556.0 -1969.0 L -555.0 -1962.0 L -545.0 -1804.0 L -543.0 -1756.0 L -534.0 -1598.0 L -526.0 -1480.0 L -522.0 -1406.0 L -521.0 -1381.0 L -516.0 -1292.0 L -516.0 -1275.0 L -510.0 -1176.0 L -510.0 -1171.0 L -504.0 -1070.0 L -503.0 -1063.0 L -498.0 -953.0 L -498.0 -948.0 L -490.0 -820.0 L -490.0 -806.0 L -486.0 -732.0 L -484.0 -710.0 L -476.0 -543.0 L -470.0 -448.0 L -468.0 -413.0 L -467.0 -390.0 L -462.0 -301.0 L -459.0 -250.0 L -452.0 -120.0 L -451.0 -95.0 L -449.0 -62.0 L -449.0 -57.0 L -445.0 14.0 L -441.0 94.0 L -440.0 108.0 L -436.0 190.0 L -433.0 248.0 L -432.0 263.0 L -429.0 326.0 L -427.0 356.0 L -421.0 468.0 L -420.0 490.0 L -412.0 645.0 L -408.0 707.0 L -404.0 785.0 L -404.0 800.0 L -397.0 939.0 L -397.0 946.0 L -393.2 1019.2" class="track-outline" data-sector="18"/>
      <path d="M -393.2 1019.2 L -392.0 1042.0 L -387.0 1141.0 L -385.0 1161.0 L -383.0 1219.0 L -382.0 1223.0 L -375.0 1344.0 L -372.0 1443.0 L -372.0 1462.0 L -367.0 1551.0 L -363.0 1650.0 L -360.0 1702.0 L -356.0 1793.0 L -350.0 1936.0 L -346.0 2024.0 L -341.0 2154.0 L -339.0 2225.0 L -334.0 2343.0 L -333.0 2371.0 L -325.0 2552.0 L -324.0 2581.0 L -318.0 2713.0 L -312.0 2842.0 L -300.0 3091.0 L -296.0 3177.0 L -289.0 3323.0 L -283.0 3449.0 L -283.0 3473.0 L -270.0 3815.0 L -270.0 3837.0 L -265.0 3973.0 L -262.0 4054.0 L -257.0 4187.0 L -256.0 4212.0 L -250.0 4344.0 L -250.0 4371.0 L -241.0 4628.0 L -239.0 4689.0 L -234.0 4803.0 L -232.0 4890.0 L -231.0 4914.0 L -228.0 5025.0 L -226.0 5079.0 L -220.0 5219.0 L -217.0 5335.0 L -209.0 5588.0 L -207.0 5626.0 L -200.0 5838.0 L -199.0 5893.0 L -195.0 5998.0 L -193.0 6063.0 L -183.0 6433.0 L -182.0 6464.0 L -178.0 6607.0 L -175.1 6721.3" class="track-outline" data-sector="1"/>
    </g>

    <g id="track-sectors">
      <path d="M -175.1 6721.3 L -174.0 6767.0 L -174.0 6786.0 L -167.0 7024.0 L -165.0 7056.0 L -159.0 7262.0 L -157.0 7336.0 L -154.0 7418.0 L -150.0 7534.0 L -147.0 7583.0 L -141.0 7725.0 L -138.0 7777.0 L -136.0 7825.0 L -133.0 7863.0 L -132.0 7866.0 L -122.0 7997.0 L -121.0 8012.0 L -119.0 8031.0 L -106.0 8098.0 L -89.0 8166.0 L -88.0 8168.0 L -65.0 8222.0 L -56.0 8235.0 L -30.0 8271.0 L -5.0 8296.0 L 6.0 8307.0 L 28.0 8322.0 L 44.0 8330.0 L 115.0 8348.0 L 117.0 8348.0 L 158.0 8347.0 L 180.0 8337.0 L 196.0 8328.0 L 234.0 8310.0 L 235.0 8308.0 L 259.0 8292.0 L 263.0 8290.0 L 288.0 8270.0 L 300.0 8261.0 L 319.0 8243.0 L 330.0 8234.0 L 348.0 8216.0 L 375.0 8190.0 L 398.0 8165.0 L 426.0 8136.0 L 449.0 8110.0 L 474.0 8084.0 L 476.0 8083.0 L 499.0 8060.0 L 523.0 8036.0 L 548.0 8015.0 L 595.0 7977.0 L 607.0 7970.0 L 693.0 7923.0 L 715.0 7912.0 L 795.0 7885.0 L 811.0 7881.0 L 876.0 7868.0 L 881.0 7868.0 L 954.0 7863.0 L 1074.0 7871.0 L 1090.0 7873.0 L 1208.0 7890.0 L 1243.0 7897.0 L 1337.0 7916.0 L 1350.0 7919.0 L 1443.0 7942.0 L 1585.0 7986.0 L 1602.0 7992.0 L 1655.0 8011.0 L 1759.0 8041.0 L 1820.0 8051.0 L 1923.0 8067.0 L 1994.0 8074.0 L 2029.3 8072.5" class="track" data-sector="2"/>
      <path d="M 2029.3 8072.5 L 2064.0 8071.0 L 2088.0 8070.0 L 2238.0 8065.0 L 2257.0 8065.0 L 2380.0 8055.0 L 2386.0 8054.0 L 2479.0 8044.0 L 2580.0 8031.0 L 2637.0 8021.0 L 2706.0 8010.0 L 2807.0 7989.0 L 2860.0 7979.0 L 3109.0 7928.0 L 3131.0 7923.0 L 3201.0 7909.0 L 3270.0 7896.0 L 3399.0 7869.0 L 3420.0 7865.0 L 3511.0 7846.0 L 3559.0 7837.0 L 3622.0 7824.0 L 3643.0 7820.0 L 3792.0 7789.0 L 3813.0 7785.0 L 3935.0 7760.0 L 3956.0 7756.0 L 4072.0 7733.0 L 4078.0 7731.0 L 4217.0 7704.0 L 4400.0 7667.0 L 4548.0 7638.0 L 4555.0 7636.0 L 4683.0 7611.0 L 4791.0 7589.0 L 4866.0 7575.0 L 4985.0 7551.0 L 5112.0 7526.0 L 5158.0 7516.0 L 5251.0 7499.0 L 5502.0 7451.0 L 5571.0 7437.0 L 5658.0 7421.0 L 5771.0 7401.0 L 5868.0 7383.0 L 5938.0 7370.2" class="track" data-sector="3"/>
      <path d="M 5938.0 7370.2 L 6027.0 7354.0 L 6135.0 7333.0 L 6156.0 7330.0 L 6367.0 7291.0 L 6500.0 7268.0 L 6508.0 7266.0 L 6620.0 7246.0 L 6756.0 7222.0 L 6802.0 7213.0 L 6946.0 7186.0 L 7008.0 7173.0 L 7048.0 7162.0 L 7081.0 7151.0 L 7196.0 7110.0 L 7223.0 7098.0 L 7242.0 7089.0 L 7337.0 7031.0 L 7368.0 7010.0 L 7387.0 6994.0 L 7432.0 6946.0 L 7437.0 6938.0 L 7464.0 6895.0 L 7476.0 6855.0 L 7495.0 6751.0 L 7498.0 6735.0 L 7499.0 6705.0 L 7496.0 6682.0 L 7483.0 6602.0 L 7473.0 6549.0 L 7446.0 6466.0 L 7420.0 6418.0 L 7409.0 6399.0 L 7375.0 6345.0 L 7373.0 6342.0 L 7333.0 6292.0 L 7319.0 6276.0 L 7242.0 6198.0 L 7192.0 6152.0 L 7150.0 6118.0 L 7122.0 6096.0 L 7066.0 6054.0 L 6994.0 6003.0 L 6984.0 5996.0 L 6970.0 5986.0 L 6915.0 5947.0 L 6832.0 5890.0 L 6771.0 5847.0 L 6701.0 5797.0 L 6664.0 5770.0 L 6608.0 5727.0 L 6595.0 5717.0 L 6513.7 5653.4" class="track" data-sector="4"/>
      <path d="M 6513.7 5653.4 L 6462.0 5613.0 L 6412.0 5572.0 L 6384.0 5548.0 L 6286.0 5458.0 L 6257.0 5429.0 L 6160.0 5326.0 L 6155.0 5321.0 L 6104.0 5261.0 L 6042.0 5183.0 L 6015.0 5148.0 L 5924.0 5020.0 L 5917.0 5009.0 L 5859.0 4924.0 L 5783.0 4800.0 L 5701.0 4665.0 L 5684.0 4637.0 L 5641.0 4564.0 L 5604.0 4523.0 L 5470.0 4380.0 L 5440.1 4352.9" class="track" data-sector="5"/>
      <path d="M 5440.1 4352.9 L 5438.0 4351.0 L 5281.0 4254.0 L 5253.0 4240.0 L 5227.0 4226.0 L 5133.0 4203.0 L 5089.0 4197.0 L 4967.0 4185.0 L 4907.0 4180.0 L 4883.0 4182.0 L 4844.0 4185.0 L 4816.0 4185.0 L 4586.0 4189.0 L 4580.0 4189.0 L 4517.0 4189.0 L 4457.0 4184.0 L 4295.0 4160.0 L 4275.0 4156.0 L 4176.0 4130.0 L 4106.0 4103.0 L 4070.0 4088.0 L 4043.0 4076.0 L 3973.0 4042.0 L 3968.0 4039.0 L 3857.0 3972.0 L 3852.0 3969.0 L 3822.0 3945.0" class="track" data-sector="6"/>
      <path d="M 3822.0 3945.0 L 3718.0 3862.0 L 3704.0 3849.0 L 3628.0 3773.0 L 3572.0 3703.0 L 3563.0 3690.0 L 3497.0 3601.0 L 3447.0 3529.0 L 3407.0 3466.0 L 3309.0 3308.0 L 3299.0 3292.0 L 3246.0 3203.0 L 3203.0 3130.0 L 3173.0 3078.0 L 3150.0 3038.0 L 3102.0 2960.0 L 3067.0 2908.0 L 2990.0 2798.0 L 2977.0 2780.0 L 2928.0 2716.0 L 2921.0 2707.0 L 2911.0 2694.8" class="track" data-sector="7"/>
      <path d="M 2911.0 2694.8 L 2872.0 2647.0 L 2833.0 2602.0 L 2793.0 2564.0 L 2741.0 2521.0 L 2723.0 2508.0 L 2690.0 2487.0 L 2657.0 2476.0 L 2644.0 2472.0 L 2625.0 2467.0 L 2557.0 2458.0 L 2519.0 2457.0 L 2491.0 2458.0 L 2467.0 2474.0 L 2462.0 2477.0 L 2425.0 2508.0 L 2407.0 2529.0 L 2401.0 2537.0 L 2399.0 2538.0 L 2365.0 2595.0 L 2364.0 2598.0 L 2329.0 2677.0 L 2328.0 2679.0 L 2313.0 2725.0 L 2313.0 2727.0 L 2304.0 2760.0 L 2301.0 2777.0 L 2295.0 2815.0 L 2294.0 2817.0 L 2290.0 2868.0 L 2290.0 2871.0 L 2289.0 2930.0 L 2289.0 2943.0 L 2291.0 2995.0 L 2291.0 3007.0 L 2299.0 3085.0 L 2303.0 3122.0 L 2305.0 3142.0 L 2313.0 3188.0 L 2318.0 3224.0 L 2329.0 3293.0 L 2336.0 3330.0 L 2347.0 3388.0 L 2355.0 3424.0 L 2380.0 3542.0 L 2389.0 3586.0 L 2395.0 3610.0 L 2402.0 3645.0 L 2428.0 3759.0 L 2442.8 3827.1" class="track" data-sector="8"/>
      <path d="M 2442.8 3827.1 L 2446.0 3842.0 L 2458.0 3900.0 L 2475.0 3980.0 L 2476.0 3985.0 L 2496.0 4079.0 L 2521.0 4184.0 L 2531.0 4223.0 L 2553.0 4314.0 L 2565.0 4367.0 L 2587.0 4464.0 L 2599.0 4520.0 L 2615.0 4595.0 L 2657.0 4802.0 L 2658.0 4811.0 L 2679.0 4920.0 L 2687.0 4965.0 L 2700.0 5041.0 L 2717.0 5159.0 L 2737.0 5312.0 L 2741.0 5352.0 L 2747.0 5421.0 L 2749.0 5444.0 L 2754.0 5640.0 L 2747.0 5712.0 L 2738.5 5781.6" class="track" data-sector="9"/>
      <path d="M 2738.5 5781.6 L 2728.0 5868.0 L 2711.0 5951.0 L 2689.0 6005.0 L 2684.0 6018.0 L 2651.0 6108.0 L 2592.0 6229.0 L 2585.0 6242.0 L 2553.0 6293.0 L 2536.0 6319.0 L 2494.0 6375.0 L 2475.0 6396.0 L 2389.0 6484.0 L 2385.0 6487.0 L 2296.0 6554.0 L 2283.0 6562.0 L 2249.0 6579.0 L 2203.0 6599.0 L 2153.0 6611.0 L 2136.0 6614.0 L 2104.0 6614.0 L 2097.0 6614.0 L 2034.0 6596.0 L 2027.0 6594.0 L 1998.0 6578.0 L 1977.0 6556.0 L 1970.0 6547.0 L 1949.5 6521.6" class="track" data-sector="10"/>
      <path d="M 1949.5 6521.6 L 1949.0 6521.0 L 1927.0 6482.0 L 1922.0 6471.0 L 1904.0 6425.0 L 1895.0 6400.0 L 1887.0 6372.0 L 1868.0 6290.0 L 1868.0 6288.0 L 1857.0 6227.0 L 1855.0 6214.0 L 1849.0 6177.0 L 1836.0 6079.0 L 1834.0 6067.0 L 1818.0 5923.0 L 1817.0 5913.0 L 1780.0 5511.0 L 1776.0 5465.0 L 1772.0 5387.0 L 1767.0 5318.0 L 1766.0 5291.0 L 1761.0 5224.0 L 1752.0 5067.0 L 1747.0 4990.0 L 1743.0 4909.0 L 1743.0 4904.0 L 1738.0 4819.0 L 1732.0 4726.0 L 1726.0 4617.0 L 1726.0 4609.0 L 1715.0 4417.0 L 1714.0 4379.0 L 1709.0 4296.0 L 1709.0 4274.0 L 1704.0 4167.0 L 1703.0 4131.0 L 1699.0 4052.0 L 1694.0 3940.0 L 1691.0 3890.0 L 1685.0 3759.0 L 1684.0 3751.0 L 1679.0 3631.0 L 1677.0 3603.0 L 1664.0 3340.0 L 1663.0 3313.0 L 1656.0 3159.0 L 1653.0 3076.0 L 1648.0 2962.0 L 1643.0 2835.0 L 1640.0 2783.0 L 1635.0 2668.0 L 1633.0 2629.0 L 1630.0 2544.0 L 1617.0 2287.0 L 1617.0 2280.0 L 1604.0 2019.0 L 1603.0 1988.0 L 1591.0 1766.0 L 1590.0 1733.0 L 1578.0 1486.0 L 1576.0 1442.0 L 1571.0 1337.0 L 1569.0 1295.0 L 1563.0 1172.0 L 1560.0 1115.0 L 1557.0 1066.0 L 1546.0 885.0 L 1541.0 784.0 L 1531.0 597.0 L 1527.0 512.0 L 1522.0 419.0 L 1519.0 328.0 L 1518.0 321.0 L 1518.0 158.4" class="track" data-sector="11"/>
      <path d="M 1518.0 158.4 L 1518.0 125.0 L 1520.0 62.0 L 1526.0 3.0 L 1534.0 -60.0 L 1538.0 -86.0 L 1547.0 -140.0 L 1559.0 -191.0 L 1568.0 -229.0 L 1607.0 -336.0 L 1615.0 -351.0 L 1686.0 -461.0 L 1728.0 -509.0 L 1781.0 -540.0 L 1784.0 -542.0 L 1802.0 -553.0 L 1880.0 -594.0 L 1919.0 -609.0 L 2038.0 -646.0 L 2042.0 -648.0 L 2118.0 -663.0 L 2121.0 -664.0 L 2238.0 -669.0 L 2243.0 -669.0 L 2340.0 -659.0 L 2357.0 -656.0 L 2524.0 -610.0 L 2527.0 -610.0 L 2615.0 -574.0 L 2669.0 -544.0 L 2815.0 -458.0 L 2833.0 -445.0 L 2891.0 -399.0 L 2919.0 -374.0 L 2983.0 -314.0 L 3017.0 -278.0 L 3091.0 -190.0 L 3118.0 -156.0 L 3148.5 -112.1" class="track" data-sector="12"/>
      <path d="M 3148.5 -112.1 L 3182.0 -64.0 L 3239.0 36.0 L 3263.0 83.0 L 3285.0 129.0 L 3317.0 200.0 L 3324.0 215.0 L 3372.0 328.0 L 3384.0 358.0 L 3614.8 837.9" class="track" data-sector="13"/>
      <path d="M 3614.8 837.9 L 3673.0 959.0 L 3702.0 1003.0 L 3751.0 1069.0 L 3791.0 1118.0 L 3811.0 1141.0 L 3883.0 1218.0 L 3926.0 1259.0 L 3985.0 1309.0 L 4067.0 1367.0 L 4108.0 1392.0 L 4187.0 1435.0 L 4293.0 1486.0 L 4312.0 1494.0 L 4416.0 1534.0 L 4422.0 1537.0 L 4541.0 1574.0 L 4656.0 1598.0 L 4676.0 1602.0 L 4787.0 1614.0 L 4795.0 1614.0 L 5013.0 1602.0 L 5095.0 1593.0 L 5124.0 1588.0 L 5210.0 1567.0 L 5260.0 1548.0 L 5444.0 1469.0 L 5549.0 1423.0 L 5601.0 1398.0 L 5641.0 1376.0 L 5668.0 1363.0 L 5771.0 1310.0 L 5818.0 1288.0 L 5985.0 1208.0 L 6004.0 1200.0 L 6066.0 1170.0 L 6110.8 1147.6" class="track" data-sector="14"/>
      <path d="M 6110.8 1147.6 L 6130.0 1138.0 L 6225.0 1090.0 L 6311.0 1037.0 L 6358.0 1007.0 L 6388.0 985.0 L 6478.0 909.0 L 6481.0 907.0 L 6557.0 820.0 L 6559.0 816.0 L 6596.0 756.0 L 6630.0 665.0 L 6647.0 615.0 L 6658.0 572.0 L 6663.0 510.0 L 6663.0 506.0 L 6666.0 448.0 L 6657.0 342.0 L 6653.0 323.0 L 6638.0 271.0 L 6618.0 217.0 L 6604.0 190.0 L 6551.0 104.0 L 6543.0 92.0 L 6494.0 28.0 L 6468.0 4.0 L 6453.0 -10.0 L 6404.0 -55.0 L 6395.0 -64.0 L 6331.0 -116.0 L 6297.0 -141.0 L 6282.0 -151.0 L 6162.0 -229.0 L 6134.0 -245.0 L 6051.0 -292.0 L 6005.0 -315.0 L 5989.0 -324.0 L 5946.0 -346.0 L 5898.0 -372.0 L 5844.0 -400.0 L 5727.0 -461.0 L 5704.0 -472.0 L 5670.0 -490.0 L 5668.0 -492.0 L 5577.0 -538.0 L 5517.0 -570.0 L 5428.0 -615.0 L 5414.0 -623.0 L 5345.0 -658.0 L 5307.3 -678.3" class="track" data-sector="15"/>
      <path d="M 5307.3 -678.3 L 5254.0 -707.0 L 5193.0 -739.0 L 5167.0 -754.0 L 5083.0 -798.0 L 5067.0 -807.0 L 4977.0 -855.0 L 4852.0 -923.0 L 4835.0 -931.0 L 4753.0 -976.0 L 4702.0 -1004.0 L 4514.0 -1107.0 L 4506.0 -1111.0 L 4407.0 -1166.0 L 4373.0 -1184.0 L 4227.0 -1266.0 L 4220.0 -1269.0 L 4153.0 -1307.0 L 3900.0 -1446.0 L 3882.0 -1457.0 L 3743.0 -1534.0 L 3656.0 -1583.0 L 3618.0 -1604.0 L 3552.0 -1640.0 L 3450.0 -1697.0 L 3427.0 -1711.0 L 3303.0 -1779.0 L 3209.0 -1832.0 L 3155.0 -1862.0 L 3102.0 -1891.0 L 3041.0 -1926.0 L 2964.0 -1968.0 L 2780.0 -2071.0 L 2740.0 -2092.0 L 2613.0 -2164.0 L 2580.0 -2183.0 L 2493.0 -2230.0 L 2432.0 -2265.0 L 2400.0 -2282.0 L 2216.0 -2385.0 L 2180.0 -2404.0 L 2107.0 -2446.0 L 1944.0 -2538.0 L 1936.0 -2542.0 L 1750.0 -2646.0 L 1725.0 -2661.0 L 1525.0 -2774.0 L 1423.0 -2833.0 L 1381.0 -2856.0 L 1292.0 -2908.0 L 1258.0 -2928.0 L 1172.0 -2976.0 L 1079.0 -3030.0 L 1046.0 -3048.4" class="track" data-sector="16"/>
      <path d="M 1046.0 -3048.4 L 1002.0 -3073.0 L 920.0 -3121.0 L 725.0 -3231.0 L 689.0 -3252.0 L 614.0 -3294.0 L 550.0 -3329.0 L 447.0 -3383.0 L 422.0 -3395.0 L 371.0 -3420.0 L 288.0 -3452.0 L 225.0 -3471.0 L 203.0 -3477.0 L 57.0 -3497.0 L 12.0 -3501.0 L -13.0 -3501.0 L -51.0 -3497.0 L -77.0 -3491.0 L -132.0 -3477.0 L -148.0 -3472.0 L -190.0 -3450.0 L -199.0 -3444.0 L -277.0 -3376.0 L -280.0 -3374.0 L -319.0 -3329.0 L -331.0 -3315.0 L -362.0 -3271.0 L -387.0 -3236.0 L -399.0 -3216.0 L -422.0 -3180.0 L -452.0 -3122.0 L -460.0 -3106.0 L -487.0 -3044.0 L -488.0 -3040.0 L -515.0 -2965.0 L -533.0 -2892.0 L -549.0 -2824.0 L -558.0 -2776.0 L -562.0 -2743.0 L -563.0 -2730.0 L -570.0 -2668.0 L -574.0 -2591.0 L -577.0 -2488.0 L -577.0 -2472.0 L -576.0 -2387.0 L -576.0 -2382.0 L -571.0 -2230.0 L -567.0 -2153.0 L -564.9 -2112.8" class="track" data-sector="17"/>
      <path d="M -564.9 -2112.8 L -563.0 -2076.0 L -563.0 -2072.0 L -556.0 -1969.0 L -555.0 -1962.0 L -545.0 -1804.0 L -543.0 -1756.0 L -534.0 -1598.0 L -526.0 -1480.0 L -522.0 -1406.0 L -521.0 -1381.0 L -516.0 -1292.0 L -516.0 -1275.0 L -510.0 -1176.0 L -510.0 -1171.0 L -504.0 -1070.0 L -503.0 -1063.0 L -498.0 -953.0 L -498.0 -948.0 L -490.0 -820.0 L -490.0 -806.0 L -486.0 -732.0 L -484.0 -710.0 L -476.0 -543.0 L -470.0 -448.0 L -468.0 -413.0 L -467.0 -390.0 L -462.0 -301.0 L -459.0 -250.0 L -452.0 -120.0 L -451.0 -95.0 L -449.0 -62.0 L -449.0 -57.0 L -445.0 14.0 L -441.0 94.0 L -440.0 108.0 L -436.0 190.0 L -433.0 248.0 L -432.0 263.0 L -429.0 326.0 L -427.0 356.0 L -421.0 468.0 L -420.0 490.0 L -412.0 645.0 L -408.0 707.0 L -404.0 785.0 L -404.0 800.0 L -397.0 939.0 L -397.0 946.0 L -393.2 1019.2" class="track" data-sector="18"/>
      <path d="M -393.2 1019.2 L -392.0 1042.0 L -387.0 1141.0 L -385.0 1161.0 L -383.0 1219.0 L -382.0 1223.0 L -375.0 1344.0 L -372.0 1443.0 L -372.0 1462.0 L -367.0 1551.0 L -363.0 1650.0 L -360.0 1702.0 L -356.0 1793.0 L -350.0 1936.0 L -346.0 2024.0 L -341.0 2154.0 L -339.0 2225.0 L -334.0 2343.0 L -333.0 2371.0 L -325.0 2552.0 L -324.0 2581.0 L -318.0 2713.0 L -312.0 2842.0 L -300.0 3091.0 L -296.0 3177.0 L -289.0 3323.0 L -283.0 3449.0 L -283.0 3473.0 L -270.0 3815.0 L -270.0 3837.0 L -265.0 3973.0 L -262.0 4054.0 L -257.0 4187.0 L -256.0 4212.0 L -250.0 4344.0 L -250.0 4371.0 L -241.0 4628.0 L -239.0 4689.0 L -234.0 4803.0 L -232.0 4890.0 L -231.0 4914.0 L -228.0 5025.0 L -226.0 5079.0 L -220.0 5219.0 L -217.0 5335.0 L -209.0 5588.0 L -207.0 5626.0 L -200.0 5838.0 L -199.0 5893.0 L -195.0 5998.0 L -193.0 6063.0 L -183.0 6433.0 L -182.0 6464.0 L -178.0 6607.0 L -175.1 6721.3" class="track" data-sector="1"/>
    </g>

    <g id="marshal-lights">
      <g class="marshal-light-marker" data-light="1">
        <rect x="-440.1" y="782.2" width="74.0" height="74.0" class="marshal-light-bg"/>
        <text x="-403.0" y="819.3" class="marshal-light-label">1</text>
      </g>
      <g class="marshal-light-marker" data-light="2">
        <rect x="-208.0" y="6851.1" width="74.0" height="74.0" class="marshal-light-bg"/>
        <text x="-171.0" y="6888.1" class="marshal-light-label">2</text>
      </g>
      <g class="marshal-light-marker" data-light="3">
        <rect x="2054.8" y="8032.9" width="74.0" height="74.0" class="marshal-light-bg"/>
        <text x="2091.8" y="8069.9" class="marshal-light-label">3</text>
      </g>
      <g class="marshal-light-marker" data-light="4">
        <rect x="5991.3" y="7316.7" width="74.0" height="74.0" class="marshal-light-bg"/>
        <text x="6028.3" y="7353.7" class="marshal-light-label">4</text>
      </g>
      <g class="marshal-light-marker" data-light="5">
        <rect x="6347.2" y="5511.2" width="74.0" height="74.0" class="marshal-light-bg"/>
        <text x="6384.2" y="5548.2" class="marshal-light-label">5</text>
      </g>
      <g class="marshal-light-marker" data-light="6">
        <rect x="5364.3" y="4291.3" width="74.0" height="74.0" class="marshal-light-bg"/>
        <text x="5401.4" y="4328.4" class="marshal-light-label">6</text>
      </g>
      <g class="marshal-light-marker" data-light="7">
        <rect x="3849.9" y="3953.0" width="74.0" height="74.0" class="marshal-light-bg"/>
        <text x="3886.9" y="3990.1" class="marshal-light-label">7</text>
      </g>
      <g class="marshal-light-marker" data-light="8">
        <rect x="2940.4" y="2743.5" width="74.0" height="74.0" class="marshal-light-bg"/>
        <text x="2977.4" y="2780.5" class="marshal-light-label">8</text>
      </g>
      <g class="marshal-light-marker" data-light="9">
        <rect x="2385.1" y="3696.4" width="74.0" height="74.0" class="marshal-light-bg"/>
        <text x="2422.2" y="3733.4" class="marshal-light-label">9</text>
      </g>
      <g class="marshal-light-marker" data-light="10">
        <rect x="2710.1" y="5674.1" width="74.0" height="74.0" class="marshal-light-bg"/>
        <text x="2747.1" y="5711.2" class="marshal-light-label">10</text>
      </g>
      <g class="marshal-light-marker" data-light="11">
        <rect x="1912.4" y="6484.6" width="74.0" height="74.0" class="marshal-light-bg"/>
        <text x="1949.5" y="6521.6" class="marshal-light-label">11</text>
      </g>
      <g class="marshal-light-marker" data-light="12">
        <rect x="1483.8" y="346.5" width="74.0" height="74.0" class="marshal-light-bg"/>
        <text x="1520.8" y="383.5" class="marshal-light-label">12</text>
      </g>
      <g class="marshal-light-marker" data-light="13">
        <rect x="3022.3" y="-264.6" width="74.0" height="74.0" class="marshal-light-bg"/>
        <text x="3059.4" y="-227.6" class="marshal-light-label">13</text>
      </g>
      <g class="marshal-light-marker" data-light="14">
        <rect x="3585.0" y="815.9" width="74.0" height="74.0" class="marshal-light-bg"/>
        <text x="3622.0" y="853.0" class="marshal-light-label">14</text>
      </g>
      <g class="marshal-light-marker" data-light="15">
        <rect x="6185.5" y="1054.2" width="74.0" height="74.0" class="marshal-light-bg"/>
        <text x="6222.5" y="1091.2" class="marshal-light-label">15</text>
      </g>
      <g class="marshal-light-marker" data-light="16">
        <rect x="5359.0" y="-669.1" width="74.0" height="74.0" class="marshal-light-bg"/>
        <text x="5396.1" y="-632.1" class="marshal-light-label">16</text>
      </g>
      <g class="marshal-light-marker" data-light="17">
        <rect x="1204.8" y="-2974.1" width="74.0" height="74.0" class="marshal-light-bg"/>
        <text x="1241.8" y="-2937.0" class="marshal-light-label">17</text>
      </g>
      <g class="marshal-light-marker" data-light="18">
        <rect x="-602.1" y="-2153.9" width="74.0" height="74.0" class="marshal-light-bg"/>
        <text x="-565.1" y="-2116.9" class="marshal-light-label">18</text>
      </g>
    </g>

    <g id="marshal-sectors">
      <g class="marshal-sector-marker" data-sector="1" data-length="53069.8">
        <polygon points="-393.2,930.4 -470.1,1063.7 -316.2,1063.7" class="marshal-sector-bg"/>
        <text x="-393.2" y="1019.2" class="marshal-sector-label">1</text>
      </g>
      <g class="marshal-sector-marker" data-sector="2" data-length="5381.2">
        <polygon points="-175.1,6632.4 -252.1,6765.7 -98.2,6765.7" class="marshal-sector-bg"/>
        <text x="-175.1" y="6721.3" class="marshal-sector-label">2</text>
      </g>
      <g class="marshal-sector-marker" data-sector="3" data-length="9223.2">
        <polygon points="2029.3,7983.6 1952.3,8116.9 2106.2,8116.9" class="marshal-sector-bg"/>
        <text x="2029.3" y="8072.5" class="marshal-sector-label">3</text>
      </g>
      <g class="marshal-sector-marker" data-sector="4" data-length="13198.6">
        <polygon points="5938.0,7281.4 5861.1,7414.7 6015.0,7414.7" class="marshal-sector-bg"/>
        <text x="5938.0" y="7370.2" class="marshal-sector-label">4</text>
      </g>
      <g class="marshal-sector-marker" data-sector="5" data-length="16523.3">
        <polygon points="6513.7,5564.6 6436.8,5697.9 6590.6,5697.9" class="marshal-sector-bg"/>
        <text x="6513.7" y="5653.4" class="marshal-sector-label">5</text>
      </g>
      <g class="marshal-sector-marker" data-sector="6" data-length="18221.1">
        <polygon points="5440.1,4264.0 5363.2,4397.3 5517.0,4397.3" class="marshal-sector-bg"/>
        <text x="5440.1" y="4352.9" class="marshal-sector-label">6</text>
      </g>
      <g class="marshal-sector-marker" data-sector="7" data-length="19931.4">
        <polygon points="3822.0,3856.2 3745.0,3989.4 3898.9,3989.4" class="marshal-sector-bg"/>
        <text x="3822.0" y="3945.0" class="marshal-sector-label">7</text>
      </g>
      <g class="marshal-sector-marker" data-sector="8" data-length="21487.4">
        <polygon points="2911.0,2605.9 2834.1,2739.2 2988.0,2739.2" class="marshal-sector-bg"/>
        <text x="2911.0" y="2694.8" class="marshal-sector-label">8</text>
      </g>
      <g class="marshal-sector-marker" data-sector="9" data-length="23443.8">
        <polygon points="2442.8,3738.3 2365.8,3871.6 2519.7,3871.6" class="marshal-sector-bg"/>
        <text x="2442.8" y="3827.1" class="marshal-sector-label">9</text>
      </g>
      <g class="marshal-sector-marker" data-sector="10" data-length="25429.4">
        <polygon points="2738.5,5692.7 2661.6,5826.0 2815.5,5826.0" class="marshal-sector-bg"/>
        <text x="2738.5" y="5781.6" class="marshal-sector-label">10</text>
      </g>
      <g class="marshal-sector-marker" data-sector="11" data-length="26739.3">
        <polygon points="1949.5,6432.7 1872.5,6566.0 2026.4,6566.0" class="marshal-sector-bg"/>
        <text x="1949.5" y="6521.6" class="marshal-sector-label">11</text>
      </g>
      <g class="marshal-sector-marker" data-sector="12" data-length="33130.0">
        <polygon points="1518.0,69.5 1441.1,202.8 1594.9,202.8" class="marshal-sector-bg"/>
        <text x="1518.0" y="158.4" class="marshal-sector-label">12</text>
      </g>
      <g class="marshal-sector-marker" data-sector="13" data-length="35495.2">
        <polygon points="3148.5,-201.0 3071.6,-67.7 3225.5,-67.7" class="marshal-sector-bg"/>
        <text x="3148.5" y="-112.1" class="marshal-sector-label">13</text>
      </g>
      <g class="marshal-sector-marker" data-sector="14" data-length="36554.8">
        <polygon points="3614.8,749.1 3537.8,882.3 3691.7,882.3" class="marshal-sector-bg"/>
        <text x="3614.8" y="837.9" class="marshal-sector-label">14</text>
      </g>
      <g class="marshal-sector-marker" data-sector="15" data-length="39449.8">
        <polygon points="6110.8,1058.7 6033.9,1192.0 6187.7,1192.0" class="marshal-sector-bg"/>
        <text x="6110.8" y="1147.6" class="marshal-sector-label">15</text>
      </g>
      <g class="marshal-sector-marker" data-sector="16" data-length="42253.1">
        <polygon points="5307.3,-767.2 5230.3,-633.9 5384.2,-633.9" class="marshal-sector-bg"/>
        <text x="5307.3" y="-678.3" class="marshal-sector-label">16</text>
      </g>
      <g class="marshal-sector-marker" data-sector="17" data-length="47129.5">
        <polygon points="1046.0,-3137.3 969.1,-3004.0 1123.0,-3004.0" class="marshal-sector-bg"/>
        <text x="1046.0" y="-3048.4" class="marshal-sector-label">17</text>
      </g>
      <g class="marshal-sector-marker" data-sector="18" data-length="49932.8">
        <polygon points="-564.9,-2201.6 -641.9,-2068.3 -488.0,-2068.3" class="marshal-sector-bg"/>
        <text x="-564.9" y="-2112.8" class="marshal-sector-label">18</text>
      </g>
    </g>

    <g id="corners">
      <g class="corner-marker" data-corner="1" data-length="7045.7">
        <circle cx="42.4" cy="8329.2" r="118.5" class="corner-bg"/>
        <text x="42.4" y="8329.2" class="corner-label">1</text>
      </g>
      <g class="corner-marker" data-corner="2" data-length="7988.4">
        <circle cx="820.8" cy="7879.0" r="118.5" class="corner-bg"/>
        <text x="820.8" y="7879.0" class="corner-label">2</text>
      </g>
      <g class="corner-marker" data-corner="3" data-length="9106.4">
        <circle cx="1913.0" cy="8065.4" r="118.5" class="corner-bg"/>
        <text x="1913.0" y="8065.4" class="corner-label">3</text>
      </g>
      <g class="corner-marker" data-corner="4" data-length="14942.3">
        <circle cx="7487.7" cy="6790.7" r="118.5" class="corner-bg"/>
        <text x="7487.7" y="6790.7" class="corner-label">4</text>
      </g>
      <g class="corner-marker" data-corner="5" data-length="17582.9">
        <circle cx="5820.2" cy="4860.7" r="118.5" class="corner-bg"/>
        <text x="5820.2" y="4860.7" class="corner-label">5</text>
      </g>
      <g class="corner-marker" data-corner="6" data-length="18517.3">
        <circle cx="5180.4" cy="4214.6" r="118.5" class="corner-bg"/>
        <text x="5180.4" y="4214.6" class="corner-label">6</text>
      </g>
      <g class="corner-marker" data-corner="7" data-length="19426.7">
        <circle cx="4276.2" cy="4156.2" r="118.5" class="corner-bg"/>
        <text x="4276.2" y="4156.2" class="corner-label">7</text>
      </g>
      <g class="corner-marker" data-corner="8" data-length="21996.3">
        <circle cx="2490.1" cy="2458.6" r="118.5" class="corner-bg"/>
        <text x="2490.1" y="2458.6" class="corner-label">8</text>
      </g>
      <g class="corner-marker" data-corner="9" data-length="25600.5">
        <circle cx="2711.2" cy="5950.2" r="118.5" class="corner-bg"/>
        <text x="2711.2" y="5950.2" class="corner-label">9</text>
      </g>
      <g class="corner-marker" data-corner="10" data-length="26555.7">
        <circle cx="2100.1" cy="6614.0" r="118.5" class="corner-bg"/>
        <text x="2100.1" y="6614.0" class="corner-label">10</text>
      </g>
      <g class="corner-marker" data-corner="11" data-length="34273.0">
        <circle cx="2121.0" cy="-664.0" r="118.5" class="corner-bg"/>
        <text x="2121.0" y="-664.0" class="corner-label">11</text>
      </g>
      <g class="corner-marker" data-corner="12" data-length="38223.4">
        <circle cx="4981.3" cy="1603.7" r="118.5" class="corner-bg"/>
        <text x="4981.3" y="1603.7" class="corner-label">12</text>
      </g>
      <g class="corner-marker" data-corner="13" data-length="40400.9">
        <circle cx="6665.9" cy="449.3" r="118.5" class="corner-bg"/>
        <text x="6665.9" y="449.3" class="corner-label">13</text>
      </g>
      <g class="corner-marker" data-corner="14" data-length="48431.1">
        <circle cx="-145.4" cy="-3472.8" r="118.5" class="corner-bg"/>
        <text x="-145.4" y="-3472.8" class="corner-label">14</text>
      </g>
      <g class="corner-marker" data-corner="15" data-length="49240.3">
        <circle cx="-552.8" cy="-2803.7" r="118.5" class="corner-bg"/>
        <text x="-552.8" y="-2803.7" class="corner-label">15</text>
      </g>
    </g>

    <g id="start-finish" data-track-x="-375.0" data-track-y="1344.0" data-lap-distance="53395.1">
      <polygon points="-615.1,909.2 -596.9,1353.1 -863.3,1364.0 -881.4,920.1" class="checker-border"/>
      <polygon points="-615.1,909.2 -611.5,998.0 -700.2,1001.6 -703.9,912.8" class="checker-black"/>
      <polygon points="-703.9,912.8 -700.2,1001.6 -789.0,1005.2 -792.6,916.4" class="checker-white"/>
      <polygon points="-792.6,916.4 -789.0,1005.2 -877.8,1008.8 -881.4,920.1" class="checker-black"/>
      <polygon points="-611.5,998.0 -607.8,1086.7 -696.6,1090.4 -700.2,1001.6" class="checker-white"/>
      <polygon points="-700.2,1001.6 -696.6,1090.4 -785.4,1094.0 -789.0,1005.2" class="checker-black"/>
      <polygon points="-789.0,1005.2 -785.4,1094.0 -874.2,1097.6 -877.8,1008.8" class="checker-white"/>
      <polygon points="-607.8,1086.7 -604.2,1175.5 -693.0,1179.1 -696.6,1090.4" class="checker-black"/>
      <polygon points="-696.6,1090.4 -693.0,1179.1 -781.7,1182.8 -785.4,1094.0" class="checker-white"/>
      <polygon points="-785.4,1094.0 -781.7,1182.8 -870.5,1186.4 -874.2,1097.6" class="checker-black"/>
      <polygon points="-604.2,1175.5 -600.6,1264.3 -689.3,1267.9 -693.0,1179.1" class="checker-white"/>
      <polygon points="-693.0,1179.1 -689.3,1267.9 -778.1,1271.5 -781.7,1182.8" class="checker-black"/>
      <polygon points="-781.7,1182.8 -778.1,1271.5 -866.9,1275.2 -870.5,1186.4" class="checker-white"/>
      <polygon points="-600.6,1264.3 -596.9,1353.1 -685.7,1356.7 -689.3,1267.9" class="checker-black"/>
      <polygon points="-689.3,1267.9 -685.7,1356.7 -774.5,1360.3 -778.1,1271.5" class="checker-white"/>
      <polygon points="-778.1,1271.5 -774.5,1360.3 -863.3,1364.0 -866.9,1275.2" class="checker-black"/>
      <polyline points="-859.9,1808.4 -705.9,1950.4 -564.0,1796.3" class="chevron"/>
      <polyline points="-855.1,1926.8 -701.1,2068.7 -559.2,1914.7" class="chevron"/>
      <polyline points="-850.3,2045.2 -696.2,2187.1 -554.3,2033.1" class="chevron"/>
    </g>

    <g id="car-markers"></g>

  </g>
</svg>
