<?xml version="1.0" encoding="utf-8"?>
<?xml-stylesheet type="text/css" href="../../css/tracks.css"?>
<svg xmlns="http://www.w3.org/2000/svg" viewBox="-549.9 219.0 960.0 673.3">
  <title>Shanghai</title>

  <g id="track-root" transform="translate(0, 673.25) scale(1, -1) scale(0.060052) translate(639.00, -1784.00) rotate(237, -639.00, 1784.00)" data-scale="0.060052" data-rotation="237.0">

    <g id="track-outline">
      <path d="M 227.8 -1515.2 L 183.0 -1524.0 L 0.0 -1564.0 L -5.0 -1566.0 L -164.0 -1601.0 L -210.0 -1611.0 L -331.0 -1636.0 L -425.0 -1657.0 L -512.0 -1676.0 L -660.0 -1709.0 L -669.0 -1711.0 L -806.0 -1741.0 L -845.0 -1749.0 L -1034.0 -1790.0 L -1041.0 -1792.0 L -1216.0 -1830.0 L -1265.0 -1841.0 L -1384.0 -1867.0 L -1480.0 -1888.0 L -1575.0 -1908.0 L -1744.0 -1946.0 L -1787.0 -1955.0 L -1972.0 -1995.0 L -1978.0 -1997.0 L -2150.0 -2034.0 L -2203.0 -2046.0 L -2348.0 -2078.0 L -2457.0 -2102.0 L -2550.0 -2122.0 L -2702.0 -2155.0 L -2713.0 -2157.0 L -2903.0 -2198.0 L -2936.0 -2206.0 L -2977.1 -2214.8" class="track-outline" data-sector="20"/>
      <path d="M -2977.1 -2214.8 L -3053.0 -2231.0 L -3122.0 -2246.0 L -3225.0 -2268.0 L -3366.0 -2299.0 L -3424.0 -2311.0 L -3601.0 -2350.0 L -3610.0 -2352.0 L -3779.0 -2386.0 L -3855.0 -2403.0 L -3990.0 -2434.0 L -4118.0 -2464.0 L -4193.0 -2481.0 L -4353.0 -2516.0 L -4377.0 -2521.0 L -4549.0 -2557.0 L -4568.0 -2561.0 L -4726.0 -2573.0 L -4757.0 -2573.0 L -4858.0 -2564.0 L -4955.0 -2546.0 L -5012.0 -2529.0 L -5124.0 -2486.0 L -5154.0 -2473.0 L -5253.0 -2411.0 L -5261.0 -2403.0 L -5458.0 -2220.0 L -5485.0 -2192.0 L -5533.0 -2120.0 L -5535.0 -2118.0 L -5587.0 -2015.0 L -5601.0 -1984.0 L -5627.0 -1907.0 L -5642.0 -1850.0 L -5648.0 -1817.0 L -5661.0 -1711.0 L -5661.0 -1705.0 L -5659.6 -1653.9" class="track-outline" data-sector="1"/>
      <path d="M -5659.6 -1653.9 L -5658.0 -1592.0 L -5657.0 -1572.0 L -5641.0 -1463.0 L -5639.0 -1458.0 L -5606.0 -1349.0 L -5599.0 -1330.0 L -5561.0 -1253.0 L -5548.0 -1232.0 L -5505.0 -1176.0 L -5472.0 -1140.0 L -5432.0 -1105.0 L -5394.0 -1078.0 L -5367.0 -1062.0 L -5307.0 -1031.0 L -5306.0 -1031.0 L -5231.0 -1005.0 L -5211.0 -1000.0 L -5158.0 -989.0 L -5123.0 -985.0 L -5091.0 -983.0 L -5043.0 -983.0 L -5029.0 -983.0 L -4977.0 -988.0 L -4963.0 -991.0 L -4951.5 -994.2" class="track-outline" data-sector="2"/>
      <path d="M -4951.5 -994.2 L -4890.0 -1011.0 L -4850.0 -1030.0 L -4803.0 -1059.0 L -4755.0 -1102.0 L -4738.0 -1119.0 L -4704.0 -1175.0 L -4702.0 -1178.0 L -4682.0 -1240.0 L -4680.0 -1251.0 L -4674.0 -1279.0 L -4674.0 -1310.0 L -4676.0 -1335.0 L -4687.0 -1399.0 L -4692.0 -1419.0 L -4712.0 -1475.0 L -4713.0 -1477.0 L -4735.0 -1527.0 L -4741.0 -1538.0 L -4764.0 -1581.0 L -4777.0 -1609.0 L -4791.0 -1646.0 L -4805.0 -1694.0 L -4808.0 -1711.0 L -4809.0 -1756.0 L -4809.0 -1763.0 L -4800.0 -1819.0 L -4795.0 -1842.0 L -4783.0 -1874.0 L -4767.0 -1905.0 L -4759.6 -1916.4" class="track-outline" data-sector="3"/>
      <path d="M -4759.6 -1916.4 L -4754.0 -1925.0 L -4721.0 -1967.0 L -4720.0 -1969.0 L -4682.0 -2000.0 L -4673.0 -2007.0 L -4651.0 -2022.0 L -4631.0 -2033.0 L -4604.0 -2043.0 L -4555.0 -2058.0 L -4544.0 -2060.0 L -4506.0 -2062.0 L -4505.0 -2063.0 L -4466.0 -2068.0 L -4426.0 -2056.0 L -4346.0 -2013.0 L -4235.0 -1922.0 L -4193.0 -1867.0 L -4099.0 -1689.0 L -4095.0 -1681.0 L -4058.0 -1586.0 L -4053.0 -1568.0 L -4035.0 -1496.0 L -4022.0 -1421.0 L -4017.0 -1372.0 L -4018.0 -1272.0 L -4018.0 -1258.0 L -4039.0 -1154.0 L -4041.0 -1147.0 L -4098.0 -1004.0 L -4112.0 -979.0 L -4171.0 -893.0 L -4208.0 -851.0 L -4255.0 -795.0 L -4319.0 -722.0 L -4331.0 -707.0 L -4425.0 -597.0 L -4436.0 -585.0 L -4514.0 -494.0 L -4518.0 -488.0 L -4533.6 -469.6" class="track-outline" data-sector="4"/>
      <path d="M -4533.6 -469.6 L -4616.0 -372.0 L -4637.0 -349.0 L -4719.0 -251.0 L -4766.0 -197.0 L -4821.0 -131.0 L -4889.0 -52.0 L -4915.0 -20.0 L -4994.0 68.0 L -4997.0 72.0 L -5073.0 160.0 L -5091.0 182.0 L -5176.0 284.0 L -5226.0 343.0 L -5280.0 406.0 L -5350.0 487.0 L -5383.0 525.0 L -5484.0 645.0 L -5499.0 662.0 L -5632.0 818.0 L -5655.0 845.0 L -5737.0 942.0 L -5784.0 997.0 L -5846.0 1068.0 L -5926.0 1166.0 L -5956.0 1209.0 L -6038.0 1354.0 L -6041.0 1362.0 L -6093.0 1506.0 L -6115.0 1571.0 L -6153.0 1687.0 L -6190.0 1799.0 L -6212.0 1868.0 L -6262.0 2018.0 L -6269.0 2042.0 L -6324.0 2207.0 L -6331.0 2226.0 L -6346.2 2272.2" class="track-outline" data-sector="5"/>
      <path d="M -6346.2 2272.2 L -6386.0 2393.0 L -6397.0 2426.0 L -6440.0 2558.0 L -6462.0 2625.0 L -6477.0 2673.0 L -6509.0 2768.0 L -6514.0 2784.0 L -6555.0 2907.0 L -6560.0 2920.0 L -6587.0 3005.0 L -6597.0 3034.0 L -6611.0 3077.0 L -6625.0 3119.0 L -6635.0 3149.0 L -6659.0 3220.0 L -6660.0 3223.0 L -6680.0 3284.0 L -6685.0 3299.0 L -6696.0 3333.0 L -6701.0 3347.0 L -6710.0 3372.0 L -6720.0 3404.0 L -6725.0 3430.0 L -6735.0 3490.0 L -6736.0 3492.0 L -6733.0 3529.0 L -6729.0 3541.0 L -6709.0 3581.0 L -6690.0 3610.0 L -6672.0 3627.0 L -6643.0 3647.0 L -6635.0 3651.0 L -6598.0 3666.0 L -6597.0 3667.0 L -6547.0 3671.0 L -6518.0 3670.0 L -6484.0 3662.0 L -6418.0 3626.0 L -6368.0 3593.0 L -6180.0 3461.0 L -6171.0 3454.0 L -6054.0 3354.0 L -6036.0 3338.0 L -5969.0 3277.0 L -5956.5 3264.5" class="track-outline" data-sector="6"/>
      <path d="M -5956.5 3264.5 L -5934.0 3242.0 L -5902.0 3209.0 L -5832.0 3131.0 L -5821.0 3118.0 L -5739.0 3014.0 L -5734.0 3008.0 L -5659.0 2904.0 L -5646.0 2883.0 L -5589.0 2789.0 L -5559.0 2738.0 L -5521.0 2673.0 L -5475.0 2590.0 L -5465.0 2573.0 L -5395.0 2448.0 L -5387.0 2433.0 L -5315.0 2305.0 L -5289.0 2258.0 L -5250.0 2186.0 L -5237.0 2162.0 L -5157.0 2021.0 L -5134.0 1979.0 L -5077.0 1877.0 L -5037.0 1804.0 L -4987.0 1715.0 L -4939.0 1629.0 L -4921.0 1597.0 L -4838.0 1451.0 L -4836.0 1446.0 L -4775.2 1336.4" class="track-outline" data-sector="7"/>
      <path d="M -4775.2 1336.4 L -4749.0 1289.0 L -4724.0 1245.0 L -4660.0 1142.0 L -4608.0 1071.0 L -4555.0 1010.0 L -4470.0 926.0 L -4453.0 910.0 L -4403.0 868.0 L -4385.0 856.0 L -4249.0 767.0 L -4208.0 744.0 L -4107.0 696.0 L -4034.0 669.0 L -3940.0 641.0 L -3850.0 622.0 L -3794.0 612.0 L -3661.0 603.0 L -3637.0 602.0 L -3451.0 615.0 L -3432.0 618.0 L -3321.0 639.0 L -3247.0 662.0 L -3179.0 686.0 L -3072.0 733.0 L -3044.0 746.0 L -2928.0 816.0 L -2925.0 819.0 L -2796.0 919.0 L -2762.0 951.0 L -2685.0 1031.0 L -2639.3 1088.8" class="track-outline" data-sector="8"/>
      <path d="M -2639.3 1088.8 L -2636.0 1093.0 L -2608.0 1129.0 L -2531.0 1251.0 L -2526.0 1259.0 L -2453.0 1409.0 L -2439.0 1439.0 L -2380.0 1559.0 L -2347.0 1628.0 L -2304.0 1716.0 L -2282.0 1763.0 L -2226.0 1889.0 L -2169.0 1997.0 L -2097.0 2104.0 L -1968.0 2269.0 L -1941.0 2297.0 L -1851.0 2356.0 L -1848.0 2358.0 L -1746.0 2408.0 L -1722.0 2420.0 L -1677.0 2438.0 L -1638.0 2449.0 L -1586.0 2460.0 L -1527.5 2469.9" class="track-outline" data-sector="9"/>
      <path d="M -1527.5 2469.9 L -1480.0 2478.0 L -1472.0 2478.0 L -1343.0 2477.0 L -1321.0 2476.0 L -1243.0 2464.0 L -1203.0 2455.0 L -1153.0 2440.0 L -1089.0 2417.0 L -1042.0 2395.0 L -965.0 2354.0 L -945.0 2341.0 L -862.0 2279.0 L -860.0 2277.0 L -796.0 2214.0 L -763.0 2177.0 L -725.0 2127.0 L -683.0 2062.0 L -666.0 2031.0 L -622.0 1936.0 L -619.0 1931.0 L -575.0 1835.0 L -568.0 1818.0 L -544.0 1768.0 L -513.0 1700.0 L -481.0 1631.0 L -401.0 1455.0 L -390.0 1432.0 L -333.0 1320.0 L -328.0 1312.0 L -294.0 1272.0 L -281.0 1261.0 L -253.0 1241.0 L -222.0 1223.0 L -210.0 1217.0 L -149.0 1197.0 L -147.0 1197.0 L -70.0 1193.0 L -48.0 1196.0 L 3.0 1208.0 L 37.0 1222.0 L 79.0 1246.0 L 103.0 1266.0 L 134.0 1299.0 L 176.0 1349.0 L 192.0 1369.0 L 244.0 1435.0 L 247.0 1438.0 L 320.0 1527.0 L 333.0 1543.0 L 350.2 1564.9" class="track-outline" data-sector="10"/>
      <path d="M 350.2 1564.9 L 374.0 1595.0 L 401.0 1629.0 L 458.0 1698.0 L 502.0 1754.0 L 535.0 1798.0 L 582.0 1868.0 L 592.0 1886.0 L 603.0 1999.0 L 602.0 2005.0 L 499.0 2229.0 L 466.0 2291.0 L 411.0 2387.0 L 354.0 2481.0 L 330.0 2520.0 L 263.0 2636.0 L 259.0 2641.0 L 191.0 2756.0 L 176.0 2782.0 L 108.0 2898.0 L 71.0 2964.0 L 40.0 3017.0 L -24.0 3128.0 L -33.0 3144.0 L -105.0 3267.0 L -115.0 3283.0 L -199.0 3427.0 L -231.0 3482.0 L -277.0 3561.0 L -322.0 3638.0 L -340.0 3670.0 L -435.0 3831.0 L -438.0 3836.0 L -446.9 3851.1" class="track-outline" data-sector="11"/>
      <path d="M -446.9 3851.1 L -520.0 3975.0 L -545.0 4016.0 L -611.0 4127.0 L -657.0 4206.0 L -692.0 4267.0 L -722.0 4318.0 L -783.0 4422.0 L -839.0 4517.0 L -862.0 4556.0 L -907.0 4632.0 L -910.0 4637.0 L -1006.0 4802.0 L -1036.0 4853.0 L -1103.0 4967.0 L -1148.0 5043.0 L -1182.0 5102.0 L -1238.0 5198.0 L -1241.0 5204.0 L -1316.0 5330.0 L -1330.0 5353.0 L -1376.0 5432.0 L -1401.0 5474.0 L -1430.0 5524.0 L -1467.0 5586.0 L -1481.0 5610.0 L -1524.0 5680.0 L -1526.0 5683.0 L -1557.0 5735.0 L -1570.0 5757.0 L -1591.0 5792.0 L -1611.0 5826.0 L -1634.0 5866.0 L -1652.0 5895.0 L -1666.0 5918.0 L -1688.0 5955.0 L -1693.0 5965.0 L -1725.0 6011.0" class="track-outline" data-sector="12"/>
      <path d="M -1725.0 6011.0 L -1727.0 6013.0 L -1794.0 6051.0 L -1814.0 6057.0 L -1846.0 6058.0 L -1882.0 6046.0 L -1898.0 6037.0 L -1950.0 6005.0 L -1952.0 6003.0 L -1986.0 5975.0 L -1996.0 5966.0 L -2048.0 5908.0 L -2076.0 5877.0 L -2099.0 5846.0 L -2123.0 5812.0 L -2128.0 5804.0 L -2172.0 5747.0 L -2178.0 5741.0 L -2223.0 5701.0 L -2225.0 5698.0 L -2275.0 5659.0 L -2298.0 5652.0 L -2445.0 5628.0 L -2530.0 5634.0 L -2610.0 5670.0 L -2679.0 5732.0 L -2697.0 5749.0 L -2735.0 5789.0 L -2737.0 5791.0 L -2738.5 5792.8" class="track-outline" data-sector="13"/>
      <path d="M -2738.5 5792.8 L -2798.0 5867.0 L -2810.0 5884.0 L -2847.0 5943.0 L -2866.0 5978.0 L -2887.0 6022.0 L -2913.0 6088.0 L -2923.0 6121.0 L -2947.0 6220.0 L -2950.0 6233.0 L -2961.0 6317.0 L -2963.0 6352.0 L -2962.0 6417.0 L -2959.0 6482.0 L -2954.0 6520.0 L -2936.0 6610.0 L -2931.0 6625.0 L -2896.0 6726.0 L -2881.0 6760.0 L -2834.0 6840.0 L -2795.0 6895.0 L -2755.0 6940.0 L -2683.0 7009.0 L -2660.0 7026.0 L -2595.8 7066.8" class="track-outline" data-sector="14"/>
      <path d="M -2595.8 7066.8 L -2553.0 7094.0 L -2550.0 7096.0 L -2438.0 7143.0 L -2401.0 7155.0 L -2317.0 7176.0 L -2206.0 7197.0 L -2160.0 7202.0 L -2026.0 7207.0 L -2018.0 7206.0 L -1881.0 7194.0 L -1858.0 7191.0 L -1778.0 7175.0 L -1731.0 7163.0 L -1661.0 7141.0 L -1561.0 7102.0 L -1540.0 7092.0 L -1394.0 7010.0 L -1378.0 7000.0 L -1265.0 6913.0 L -1223.0 6875.0 L -1156.0 6806.0 L -1096.0 6733.0 L -1059.0 6682.0 L -980.0 6559.0 L -967.0 6539.0 L -871.0 6391.0 L -860.0 6374.0 L -777.0 6243.0 L -742.0 6188.0 L -681.0 6092.0 L -624.0 6003.0 L -591.0 5952.0 L -516.0 5834.0 L -503.0 5813.0 L -410.0 5667.0 L -382.0 5623.0 L -320.0 5527.0 L -274.0 5455.0 L -204.0 5346.0 L -134.0 5236.0 L -91.0 5171.0 L -3.0 5035.0 L 27.0 4986.0 L 113.0 4849.0 L 116.0 4843.0 L 180.0 4745.0 L 195.0 4723.0 L 269.0 4606.0 L 318.0 4529.0 L 362.0 4458.0 L 464.0 4301.0 L 478.0 4278.0 L 577.0 4125.0 L 589.0 4108.0 L 679.0 3964.0 L 717.0 3905.0 L 781.0 3803.0 L 846.0 3703.0 L 869.0 3666.0 L 877.0 3653.4" class="track-outline" data-sector="15"/>
      <path d="M 877.0 3653.4 L 977.0 3496.0 L 981.0 3492.0 L 1082.0 3334.0 L 1111.0 3290.0 L 1200.0 3151.0 L 1240.0 3088.0 L 1316.0 2963.0 L 1340.0 2926.0 L 1420.0 2800.0 L 1464.0 2733.0 L 1521.0 2644.0 L 1600.0 2523.0 L 1634.0 2469.0 L 1746.0 2296.0 L 1751.0 2287.0 L 1860.0 2118.0 L 1881.0 2086.0 L 1961.0 1957.0 L 2009.0 1883.0 L 2070.0 1787.0 L 2150.0 1664.0 L 2182.0 1613.0 L 2264.0 1484.0 L 2274.0 1470.0 L 2331.0 1379.0 L 2360.0 1336.0 L 2423.0 1235.0 L 2494.0 1125.0 L 2587.0 977.0 L 2628.0 914.0 L 2702.0 798.0 L 2774.0 687.0 L 2816.0 620.0 L 2909.0 476.0 L 2923.0 453.0 L 3035.0 277.0 L 3049.0 257.0 L 3147.0 102.0 L 3189.0 38.0 L 3242.0 -44.0 L 3329.0 -180.0 L 3352.0 -217.0 L 3460.0 -385.0 L 3464.0 -391.0 L 3577.0 -568.0 L 3609.0 -618.0 L 3686.0 -739.0 L 3744.0 -829.0 L 3776.0 -880.0 L 3878.0 -1040.0 L 3883.0 -1048.0 L 3981.0 -1200.0 L 4002.0 -1233.0 L 4097.0 -1381.0 L 4148.0 -1461.0 L 4204.0 -1549.0 L 4234.0 -1596.0 L 4316.0 -1726.0 L 4379.0 -1824.0 L 4429.0 -1903.0 L 4502.4 -2017.5" class="track-outline" data-sector="16"/>
      <path d="M 4502.4 -2017.5 L 4513.0 -2034.0 L 4518.0 -2042.0 L 4632.0 -2219.0 L 4654.0 -2253.0 L 4729.0 -2372.0 L 4772.0 -2439.0 L 4827.0 -2525.0 L 4896.0 -2632.0 L 4907.0 -2650.0 L 4979.0 -2762.0 L 4988.0 -2776.0 L 5057.0 -2885.0 L 5084.0 -2927.0 L 5122.0 -2987.0 L 5154.0 -3037.0 L 5172.0 -3066.0 L 5214.0 -3129.0 L 5219.0 -3138.0 L 5256.0 -3195.0 L 5268.0 -3213.0 L 5293.0 -3253.0 L 5311.0 -3281.0 L 5325.0 -3303.0 L 5349.0 -3340.0 L 5355.0 -3350.0 L 5385.0 -3397.0 L 5387.0 -3399.0 L 5408.0 -3432.0 L 5419.0 -3449.0 L 5428.0 -3465.0 L 5439.0 -3484.0 L 5444.0 -3493.0 L 5458.0 -3529.0 L 5458.0 -3531.0 L 5448.0 -3580.0 L 5447.0 -3587.0 L 5442.0 -3596.0 L 5434.0 -3602.0 L 5419.0 -3611.0 L 5374.0 -3636.0 L 5359.0 -3639.0 L 5315.0 -3636.0 L 5304.0 -3632.0 L 5251.0 -3608.0 L 5250.0 -3608.0 L 5191.0 -3584.0 L 5159.0 -3566.0 L 5030.0 -3487.0 L 4940.0 -3429.0 L 4892.0 -3396.0 L 4842.0 -3359.0 L 4824.0 -3346.0 L 4728.0 -3282.0 L 4726.0 -3280.0 L 4660.0 -3219.0 L 4641.0 -3197.0 L 4587.0 -3123.0 L 4548.0 -3067.0 L 4517.0 -3023.0 L 4484.3 -2977.2" class="track-outline" data-sector="17"/>
      <path d="M 4484.3 -2977.2 L 4467.0 -2953.0 L 4450.0 -2930.0 L 4371.0 -2816.0 L 4369.0 -2813.0 L 4316.0 -2737.0 L 4283.0 -2691.0 L 4215.0 -2596.0 L 4166.0 -2528.0 L 4129.0 -2476.0 L 4074.0 -2397.0 L 4057.0 -2373.0 L 3967.0 -2247.0 L 3964.0 -2243.0 L 3870.0 -2109.0 L 3843.0 -2071.0 L 3792.0 -2000.0 L 3733.0 -1916.0 L 3708.0 -1881.0 L 3631.0 -1768.0 L 3626.0 -1761.0 L 3523.0 -1613.0 L 3505.0 -1587.0 L 3445.0 -1501.0 L 3413.0 -1456.0 L 3370.0 -1394.0 L 3317.0 -1316.0 L 3307.0 -1302.0 L 3243.0 -1212.0 L 3236.0 -1202.0 L 3178.0 -1119.0 L 3157.0 -1087.0 L 3122.0 -1035.0 L 3108.1 -1016.7" class="track-outline" data-sector="18"/>
      <path d="M 3108.1 -1016.7 L 3087.0 -989.0 L 3058.0 -960.0 L 2987.0 -913.0 L 2976.0 -910.0 L 2918.0 -918.0 L 2904.0 -920.0 L 2793.0 -947.0 L 2781.0 -950.0 L 2700.0 -968.0 L 2665.0 -977.0 L 2591.0 -994.0 L 2519.0 -1012.0 L 2479.0 -1021.0 L 2392.0 -1041.0 L 2375.0 -1044.0 L 2233.0 -1078.0 L 2217.0 -1082.0 L 2092.0 -1109.0 L 2041.0 -1121.0 L 1951.0 -1140.0 L 1865.0 -1160.0 L 1741.0 -1186.0 L 1689.0 -1198.0 L 1591.0 -1218.0 L 1494.0 -1240.0 L 1433.0 -1253.0 L 1299.0 -1283.0 L 1278.0 -1287.0 L 1113.0 -1323.0 L 1105.0 -1324.0 L 946.0 -1358.0 L 907.0 -1367.0 L 765.0 -1398.0 L 624.0 -1429.0 L 547.0 -1445.0 L 407.0 -1476.0 L 344.0 -1489.0 L 229.0 -1515.0 L 227.8 -1515.2" class="track-outline" data-sector="19"/>
    </g>

    <g id="track-sectors">
      <path d="M 227.8 -1515.2 L 183.0 -1524.0 L 0.0 -1564.0 L -5.0 -1566.0 L -164.0 -1601.0 L -210.0 -1611.0 L -331.0 -1636.0 L -425.0 -1657.0 L -512.0 -1676.0 L -660.0 -1709.0 L -669.0 -1711.0 L -806.0 -1741.0 L -845.0 -1749.0 L -1034.0 -1790.0 L -1041.0 -1792.0 L -1216.0 -1830.0 L -1265.0 -1841.0 L -1384.0 -1867.0 L -1480.0 -1888.0 L -1575.0 -1908.0 L -1744.0 -1946.0 L -1787.0 -1955.0 L -1972.0 -1995.0 L -1978.0 -1997.0 L -2150.0 -2034.0 L -2203.0 -2046.0 L -2348.0 -2078.0 L -2457.0 -2102.0 L -2550.0 -2122.0 L -2702.0 -2155.0 L -2713.0 -2157.0 L -2903.0 -2198.0 L -2936.0 -2206.0 L -2977.1 -2214.8" class="track" data-sector="20"/>
      <path d="M -2977.1 -2214.8 L -3053.0 -2231.0 L -3122.0 -2246.0 L -3225.0 -2268.0 L -3366.0 -2299.0 L -3424.0 -2311.0 L -3601.0 -2350.0 L -3610.0 -2352.0 L -3779.0 -2386.0 L -3855.0 -2403.0 L -3990.0 -2434.0 L -4118.0 -2464.0 L -4193.0 -2481.0 L -4353.0 -2516.0 L -4377.0 -2521.0 L -4549.0 -2557.0 L -4568.0 -2561.0 L -4726.0 -2573.0 L -4757.0 -2573.0 L -4858.0 -2564.0 L -4955.0 -2546.0 L -5012.0 -2529.0 L -5124.0 -2486.0 L -5154.0 -2473.0 L -5253.0 -2411.0 L -5261.0 -2403.0 L -5458.0 -2220.0 L -5485.0 -2192.0 L -5533.0 -2120.0 L -5535.0 -2118.0 L -5587.0 -2015.0 L -5601.0 -1984.0 L -5627.0 -1907.0 L -5642.0 -1850.0 L -5648.0 -1817.0 L -5661.0 -1711.0 L -5661.0 -1705.0 L -5659.6 -1653.9" class="track" data-sector="1"/>
      <path d="M -5659.6 -1653.9 L -5658.0 -1592.0 L -5657.0 -1572.0 L -5641.0 -1463.0 L -5639.0 -1458.0 L -5606.0 -1349.0 L -5599.0 -1330.0 L -5561.0 -1253.0 L -5548.0 -1232.0 L -5505.0 -1176.0 L -5472.0 -1140.0 L -5432.0 -1105.0 L -5394.0 -1078.0 L -5367.0 -1062.0 L -5307.0 -1031.0 L -5306.0 -1031.0 L -5231.0 -1005.0 L -5211.0 -1000.0 L -5158.0 -989.0 L -5123.0 -985.0 L -5091.0 -983.0 L -5043.0 -983.0 L -5029.0 -983.0 L -4977.0 -988.0 L -4963.0 -991.0 L -4951.5 -994.2" class="track" data-sector="2"/>
      <path d="M -4951.5 -994.2 L -4890.0 -1011.0 L -4850.0 -1030.0 L -4803.0 -1059.0 L -4755.0 -1102.0 L -4738.0 -1119.0 L -4704.0 -1175.0 L -4702.0 -1178.0 L -4682.0 -1240.0 L -4680.0 -1251.0 L -4674.0 -1279.0 L -4674.0 -1310.0 L -4676.0 -1335.0 L -4687.0 -1399.0 L -4692.0 -1419.0 L -4712.0 -1475.0 L -4713.0 -1477.0 L -4735.0 -1527.0 L -4741.0 -1538.0 L -4764.0 -1581.0 L -4777.0 -1609.0 L -4791.0 -1646.0 L -4805.0 -1694.0 L -4808.0 -1711.0 L -4809.0 -1756.0 L -4809.0 -1763.0 L -4800.0 -1819.0 L -4795.0 -1842.0 L -4783.0 -1874.0 L -4767.0 -1905.0 L -4759.6 -1916.4" class="track" data-sector="3"/>
      <path d="M -4759.6 -1916.4 L -4754.0 -1925.0 L -4721.0 -1967.0 L -4720.0 -1969.0 L -4682.0 -2000.0 L -4673.0 -2007.0 L -4651.0 -2022.0 L -4631.0 -2033.0 L -4604.0 -2043.0 L -4555.0 -2058.0 L -4544.0 -2060.0 L -4506.0 -2062.0 L -4505.0 -2063.0 L -4466.0 -2068.0 L -4426.0 -2056.0 L -4346.0 -2013.0 L -4235.0 -1922.0 L -4193.0 -1867.0 L -4099.0 -1689.0 L -4095.0 -1681.0 L -4058.0 -1586.0 L -4053.0 -1568.0 L -4035.0 -1496.0 L -4022.0 -1421.0 L -4017.0 -1372.0 L -4018.0 -1272.0 L -4018.0 -1258.0 L -4039.0 -1154.0 L -4041.0 -1147.0 L -4098.0 -1004.0 L -4112.0 -979.0 L -4171.0 -893.0 L -4208.0 -851.0 L -4255.0 -795.0 L -4319.0 -722.0 L -4331.0 -707.0 L -4425.0 -597.0 L -4436.0 -585.0 L -4514.0 -494.0 L -4518.0 -488.0 L -4533.6 -469.6" class="track" data-sector="4"/>
      <path d="M -4533.6 -469.6 L -4616.0 -372.0 L -4637.0 -349.0 L -4719.0 -251.0 L -4766.0 -197.0 L -4821.0 -131.0 L -4889.0 -52.0 L -4915.0 -20.0 L -4994.0 68.0 L -4997.0 72.0 L -5073.0 160.0 L -5091.0 182.0 L -5176.0 284.0 L -5226.0 343.0 L -5280.0 406.0 L -5350.0 487.0 L -5383.0 525.0 L -5484.0 645.0 L -5499.0 662.0 L -5632.0 818.0 L -5655.0 845.0 L -5737.0 942.0 L -5784.0 997.0 L -5846.0 1068.0 L -5926.0 1166.0 L -5956.0 1209.0 L -6038.0 1354.0 L -6041.0 1362.0 L -6093.0 1506.0 L -6115.0 1571.0 L -6153.0 1687.0 L -6190.0 1799.0 L -6212.0 1868.0 L -6262.0 2018.0 L -6269.0 2042.0 L -6324.0 2207.0 L -6331.0 2226.0 L -6346.2 2272.2" class="track" data-sector="5"/>
      <path d="M -6346.2 2272.2 L -6386.0 2393.0 L -6397.0 2426.0 L -6440.0 2558.0 L -6462.0 2625.0 L -6477.0 2673.0 L -6509.0 2768.0 L -6514.0 2784.0 L -6555.0 2907.0 L -6560.0 2920.0 L -6587.0 3005.0 L -6597.0 3034.0 L -6611.0 3077.0 L -6625.0 3119.0 L -6635.0 3149.0 L -6659.0 3220.0 L -6660.0 3223.0 L -6680.0 3284.0 L -6685.0 3299.0 L -6696.0 3333.0 L -6701.0 3347.0 L -6710.0 3372.0 L -6720.0 3404.0 L -6725.0 3430.0 L -6735.0 3490.0 L -6736.0 3492.0 L -6733.0 3529.0 L -6729.0 3541.0 L -6709.0 3581.0 L -6690.0 3610.0 L -6672.0 3627.0 L -6643.0 3647.0 L -6635.0 3651.0 L -6598.0 3666.0 L -6597.0 3667.0 L -6547.0 3671.0 L -6518.0 3670.0 L -6484.0 3662.0 L -6418.0 3626.0 L -6368.0 3593.0 L -6180.0 3461.0 L -6171.0 3454.0 L -6054.0 3354.0 L -6036.0 3338.0 L -5969.0 3277.0 L -5956.5 3264.5" class="track" data-sector="6"/>
      <path d="M -5956.5 3264.5 L -5934.0 3242.0 L -5902.0 3209.0 L -5832.0 3131.0 L -5821.0 3118.0 L -5739.0 3014.0 L -5734.0 3008.0 L -5659.0 2904.0 L -5646.0 2883.0 L -5589.0 2789.0 L -5559.0 2738.0 L -5521.0 2673.0 L -5475.0 2590.0 L -5465.0 2573.0 L -5395.0 2448.0 L -5387.0 2433.0 L -5315.0 2305.0 L -5289.0 2258.0 L -5250.0 2186.0 L -5237.0 2162.0 L -5157.0 2021.0 L -5134.0 1979.0 L -5077.0 1877.0 L -5037.0 1804.0 L -4987.0 1715.0 L -4939.0 1629.0 L -4921.0 1597.0 L -4838.0 1451.0 L -4836.0 1446.0 L -4775.2 1336.4" class="track" data-sector="7"/>
      <path d="M -4775.2 1336.4 L -4749.0 1289.0 L -4724.0 1245.0 L -4660.0 1142.0 L -4608.0 1071.0 L -4555.0 1010.0 L -4470.0 926.0 L -4453.0 910.0 L -4403.0 868.0 L -4385.0 856.0 L -4249.0 767.0 L -4208.0 744.0 L -4107.0 696.0 L -4034.0 669.0 L -3940.0 641.0 L -3850.0 622.0 L -3794.0 612.0 L -3661.0 603.0 L -3637.0 602.0 L -3451.0 615.0 L -3432.0 618.0 L -3321.0 639.0 L -3247.0 662.0 L -3179.0 686.0 L -3072.0 733.0 L -3044.0 746.0 L -2928.0 816.0 L -2925.0 819.0 L -2796.0 919.0 L -2762.0 951.0 L -2685.0 1031.0 L -2639.3 1088.8" class="track" data-sector="8"/>
      <path d="M -2639.3 1088.8 L -2636.0 1093.0 L -2608.0 1129.0 L -2531.0 1251.0 L -2526.0 1259.0 L -2453.0 1409.0 L -2439.0 1439.0 L -2380.0 1559.0 L -2347.0 1628.0 L -2304.0 1716.0 L -2282.0 1763.0 L -2226.0 1889.0 L -2169.0 1997.0 L -2097.0 2104.0 L -1968.0 2269.0 L -1941.0 2297.0 L -1851.0 2356.0 L -1848.0 2358.0 L -1746.0 2408.0 L -1722.0 2420.0 L -1677.0 2438.0 L -1638.0 2449.0 L -1586.0 2460.0 L -1527.5 2469.9" class="track" data-sector="9"/>
      <path d="M -1527.5 2469.9 L -1480.0 2478.0 L -1472.0 2478.0 L -1343.0 2477.0 L -1321.0 2476.0 L -1243.0 2464.0 L -1203.0 2455.0 L -1153.0 2440.0 L -1089.0 2417.0 L -1042.0 2395.0 L -965.0 2354.0 L -945.0 2341.0 L -862.0 2279.0 L -860.0 2277.0 L -796.0 2214.0 L -763.0 2177.0 L -725.0 2127.0 L -683.0 2062.0 L -666.0 2031.0 L -622.0 1936.0 L -619.0 1931.0 L -575.0 1835.0 L -568.0 1818.0 L -544.0 1768.0 L -513.0 1700.0 L -481.0 1631.0 L -401.0 1455.0 L -390.0 1432.0 L -333.0 1320.0 L -328.0 1312.0 L -294.0 1272.0 L -281.0 1261.0 L -253.0 1241.0 L -222.0 1223.0 L -210.0 1217.0 L -149.0 1197.0 L -147.0 1197.0 L -70.0 1193.0 L -48.0 1196.0 L 3.0 1208.0 L 37.0 1222.0 L 79.0 1246.0 L 103.0 1266.0 L 134.0 1299.0 L 176.0 1349.0 L 192.0 1369.0 L 244.0 1435.0 L 247.0 1438.0 L 320.0 1527.0 L 333.0 1543.0 L 350.2 1564.9" class="track" data-sector="10"/>
      <path d="M 350.2 1564.9 L 374.0 1595.0 L 401.0 1629.0 L 458.0 1698.0 L 502.0 1754.0 L 535.0 1798.0 L 582.0 1868.0 L 592.0 1886.0 L 603.0 1999.0 L 602.0 2005.0 L 499.0 2229.0 L 466.0 2291.0 L 411.0 2387.0 L 354.0 2481.0 L 330.0 2520.0 L 263.0 2636.0 L 259.0 2641.0 L 191.0 2756.0 L 176.0 2782.0 L 108.0 2898.0 L 71.0 2964.0 L 40.0 3017.0 L -24.0 3128.0 L -33.0 3144.0 L -105.0 3267.0 L -115.0 3283.0 L -199.0 3427.0 L -231.0 3482.0 L -277.0 3561.0 L -322.0 3638.0 L -340.0 3670.0 L -435.0 3831.0 L -438.0 3836.0 L -446.9 3851.1" class="track" data-sector="11"/>
      <path d="M -446.9 3851.1 L -520.0 3975.0 L -545.0 4016.0 L -611.0 4127.0 L -657.0 4206.0 L -692.0 4267.0 L -722.0 4318.0 L -783.0 4422.0 L -839.0 4517.0 L -862.0 4556.0 L -907.0 4632.0 L -910.0 4637.0 L -1006.0 4802.0 L -1036.0 4853.0 L -1103.0 4967.0 L -1148.0 5043.0 L -1182.0 5102.0 L -1238.0 5198.0 L -1241.0 5204.0 L -1316.0 5330.0 L -1330.0 5353.0 L -1376.0 5432.0 L -1401.0 5474.0 L -1430.0 5524.0 L -1467.0 5586.0 L -1481.0 5610.0 L -1524.0 5680.0 L -1526.0 5683.0 L -1557.0 5735.0 L -1570.0 5757.0 L -1591.0 5792.0 L -1611.0 5826.0 L -1634.0 5866.0 L -1652.0 5895.0 L -1666.0 5918.0 L -1688.0 5955.0 L -1693.0 5965.0 L -1725.0 6011.0" class="track" data-sector="12"/>
      <path d="M -1725.0 6011.0 L -1727.0 6013.0 L -1794.0 6051.0 L -1814.0 6057.0 L -1846.0 6058.0 L -1882.0 6046.0 L -1898.0 6037.0 L -1950.0 6005.0 L -1952.0 6003.0 L -1986.0 5975.0 L -1996.0 5966.0 L -2048.0 5908.0 L -2076.0 5877.0 L -2099.0 5846.0 L -2123.0 5812.0 L -2128.0 5804.0 L -2172.0 5747.0 L -2178.0 5741.0 L -2223.0 5701.0 L -2225.0 5698.0 L -2275.0 5659.0 L -2298.0 5652.0 L -2445.0 5628.0 L -2530.0 5634.0 L -2610.0 5670.0 L -2679.0 5732.0 L -2697.0 5749.0 L -2735.0 5789.0 L -2737.0 5791.0 L -2738.5 5792.8" class="track" data-sector="13"/>
      <path d="M -2738.5 5792.8 L -2798.0 5867.0 L -2810.0 5884.0 L -2847.0 5943.0 L -2866.0 5978.0 L -2887.0 6022.0 L -2913.0 6088.0 L -2923.0 6121.0 L -2947.0 6220.0 L -2950.0 6233.0 L -2961.0 6317.0 L -2963.0 6352.0 L -2962.0 6417.0 L -2959.0 6482.0 L -2954.0 6520.0 L -2936.0 6610.0 L -2931.0 6625.0 L -2896.0 6726.0 L -2881.0 6760.0 L -2834.0 6840.0 L -2795.0 6895.0 L -2755.0 6940.0 L -2683.0 7009.0 L -2660.0 7026.0 L -2595.8 7066.8" class="track" data-sector="14"/>
      <path d="M -2595.8 7066.8 L -2553.0 7094.0 L -2550.0 7096.0 L -2438.0 7143.0 L -2401.0 7155.0 L -2317.0 7176.0 L -2206.0 7197.0 L -2160.0 7202.0 L -2026.0 7207.0 L -2018.0 7206.0 L -1881.0 7194.0 L -1858.0 7191.0 L -1778.0 7175.0 L -1731.0 7163.0 L -1661.0 7141.0 L -1561.0 7102.0 L -1540.0 7092.0 L -1394.0 7010.0 L -1378.0 7000.0 L -1265.0 6913.0 L -1223.0 6875.0 L -1156.0 6806.0 L -1096.0 6733.0 L -1059.0 6682.0 L -980.0 6559.0 L -967.0 6539.0 L -871.0 6391.0 L -860.0 6374.0 L -777.0 6243.0 L -742.0 6188.0 L -681.0 6092.0 L -624.0 6003.0 L -591.0 5952.0 L -516.0 5834.0 L -503.0 5813.0 L -410.0 5667.0 L -382.0 5623.0 L -320.0 5527.0 L -274.0 5455.0 L -204.0 5346.0 L -134.0 5236.0 L -91.0 5171.0 L -3.0 5035.0 L 27.0 4986.0 L 113.0 4849.0 L 116.0 4843.0 L 180.0 4745.0 L 195.0 4723.0 L 269.0 4606.0 L 318.0 4529.0 L 362.0 4458.0 L 464.0 4301.0 L 478.0 4278.0 L 577.0 4125.0 L 589.0 4108.0 L 679.0 3964.0 L 717.0 3905.0 L 781.0 3803.0 L 846.0 3703.0 L 869.0 3666.0 L 877.0 3653.4" class="track" data-sector="15"/>
      <path d="M 877.0 3653.4 L 977.0 3496.0 L 981.0 3492.0 L 1082.0 3334.0 L 1111.0 3290.0 L 1200.0 3151.0 L 1240.0 3088.0 L 1316.0 2963.0 L 1340.0 2926.0 L 1420.0 2800.0 L 1464.0 2733.0 L 1521.0 2644.0 L 1600.0 2523.0 L 1634.0 2469.0 L 1746.0 2296.0 L 1751.0 2287.0 L 1860.0 2118.0 L 1881.0 2086.0 L 1961.0 1957.0 L 2009.0 1883.0 L 2070.0 1787.0 L 2150.0 1664.0 L 2182.0 1613.0 L 2264.0 1484.0 L 2274.0 1470.0 L 2331.0 1379.0 L 2360.0 1336.0 L 2423.0 1235.0 L 2494.0 1125.0 L 2587.0 977.0 L 2628.0 914.0 L 2702.0 798.0 L 2774.0 687.0 L 2816.0 620.0 L 2909.0 476.0 L 2923.0 453.0 L 3035.0 277.0 L 3049.0 257.0 L 3147.0 102.0 L 3189.0 38.0 L 3242.0 -44.0 L 3329.0 -180.0 L 3352.0 -217.0 L 3460.0 -385.0 L 3464.0 -391.0 L 3577.0 -568.0 L 3609.0 -618.0 L 3686.0 -739.0 L 3744.0 -829.0 L 3776.0 -880.0 L 3878.0 -1040.0 L 3883.0 -1048.0 L 3981.0 -1200.0 L 4002.0 -1233.0 L 4097.0 -1381.0 L 4148.0 -1461.0 L 4204.0 -1549.0 L 4234.0 -1596.0 L 4316.0 -1726.0 L 4379.0 -1824.0 L 4429.0 -1903.0 L 4502.4 -2017.5" class="track" data-sector="16"/>
      <path d="M 4502.4 -2017.5 L 4513.0 -2034.0 L 4518.0 -2042.0 L 4632.0 -2219.0 L 4654.0 -2253.0 L 4729.0 -2372.0 L 4772.0 -2439.0 L 4827.0 -2525.0 L 4896.0 -2632.0 L 4907.0 -2650.0 L 4979.0 -2762.0 L 4988.0 -2776.0 L 5057.0 -2885.0 L 5084.0 -2927.0 L 5122.0 -2987.0 L 5154.0 -3037.0 L 5172.0 -3066.0 L 5214.0 -3129.0 L 5219.0 -3138.0 L 5256.0 -3195.0 L 5268.0 -3213.0 L 5293.0 -3253.0 L 5311.0 -3281.0 L 5325.0 -3303.0 L 5349.0 -3340.0 L 5355.0 -3350.0 L 5385.0 -3397.0 L 5387.0 -3399.0 L 5408.0 -3432.0 L 5419.0 -3449.0 L 5428.0 -3465.0 L 5439.0 -3484.0 L 5444.0 -3493.0 L 5458.0 -3529.0 L 5458.0 -3531.0 L 5448.0 -3580.0 L 5447.0 -3587.0 L 5442.0 -3596.0 L 5434.0 -3602.0 L 5419.0 -3611.0 L 5374.0 -3636.0 L 5359.0 -3639.0 L 5315.0 -3636.0 L 5304.0 -3632.0 L 5251.0 -3608.0 L 5250.0 -3608.0 L 5191.0 -3584.0 L 5159.0 -3566.0 L 5030.0 -3487.0 L 4940.0 -3429.0 L 4892.0 -3396.0 L 4842.0 -3359.0 L 4824.0 -3346.0 L 4728.0 -3282.0 L 4726.0 -3280.0 L 4660.0 -3219.0 L 4641.0 -3197.0 L 4587.0 -3123.0 L 4548.0 -3067.0 L 4517.0 -3023.0 L 4484.3 -2977.2" class="track" data-sector="17"/>
      <path d="M 4484.3 -2977.2 L 4467.0 -2953.0 L 4450.0 -2930.0 L 4371.0 -2816.0 L 4369.0 -2813.0 L 4316.0 -2737.0 L 4283.0 -2691.0 L 4215.0 -2596.0 L 4166.0 -2528.0 L 4129.0 -2476.0 L 4074.0 -2397.0 L 4057.0 -2373.0 L 3967.0 -2247.0 L 3964.0 -2243.0 L 3870.0 -2109.0 L 3843.0 -2071.0 L 3792.0 -2000.0 L 3733.0 -1916.0 L 3708.0 -1881.0 L 3631.0 -1768.0 L 3626.0 -1761.0 L 3523.0 -1613.0 L 3505.0 -1587.0 L 3445.0 -1501.0 L 3413.0 -1456.0 L 3370.0 -1394.0 L 3317.0 -1316.0 L 3307.0 -1302.0 L 3243.0 -1212.0 L 3236.0 -1202.0 L 3178.0 -1119.0 L 3157.0 -1087.0 L 3122.0 -1035.0 L 3108.1 -1016.7" class="track" data-sector="18"/>
      <path d="M 3108.1 -1016.7 L 3087.0 -989.0 L 3058.0 -960.0 L 2987.0 -913.0 L 2976.0 -910.0 L 2918.0 -918.0 L 2904.0 -920.0 L 2793.0 -947.0 L 2781.0 -950.0 L 2700.0 -968.0 L 2665.0 -977.0 L 2591.0 -994.0 L 2519.0 -1012.0 L 2479.0 -1021.0 L 2392.0 -1041.0 L 2375.0 -1044.0 L 2233.0 -1078.0 L 2217.0 -1082.0 L 2092.0 -1109.0 L 2041.0 -1121.0 L 1951.0 -1140.0 L 1865.0 -1160.0 L 1741.0 -1186.0 L 1689.0 -1198.0 L 1591.0 -1218.0 L 1494.0 -1240.0 L 1433.0 -1253.0 L 1299.0 -1283.0 L 1278.0 -1287.0 L 1113.0 -1323.0 L 1105.0 -1324.0 L 946.0 -1358.0 L 907.0 -1367.0 L 765.0 -1398.0 L 624.0 -1429.0 L 547.0 -1445.0 L 407.0 -1476.0 L 344.0 -1489.0 L 229.0 -1515.0 L 227.8 -1515.2" class="track" data-sector="19"/>
    </g>

    <g id="marshal-lights">
      <g class="marshal-light-marker" data-light="1">
        <rect x="-3056.1" y="-2264.4" width="83.3" height="83.3" class="marshal-light-bg"/>
        <text x="-3014.5" y="-2222.8" class="marshal-light-label">1</text>
      </g>
      <g class="marshal-light-marker" data-light="2">
        <rect x="-5698.7" y="-1614.8" width="83.3" height="83.3" class="marshal-light-bg"/>
        <text x="-5657.1" y="-1573.2" class="marshal-light-label">2</text>
      </g>
      <g class="marshal-light-marker" data-light="3">
        <rect x="-5175.0" y="-1027.8" width="83.3" height="83.3" class="marshal-light-bg"/>
        <text x="-5133.3" y="-986.2" class="marshal-light-label">3</text>
      </g>
      <g class="marshal-light-marker" data-light="4">
        <rect x="-4837.1" y="-1881.3" width="83.3" height="83.3" class="marshal-light-bg"/>
        <text x="-4795.5" y="-1839.7" class="marshal-light-label">4</text>
      </g>
      <g class="marshal-light-marker" data-light="5">
        <rect x="-4428.9" y="-682.7" width="83.3" height="83.3" class="marshal-light-bg"/>
        <text x="-4387.3" y="-641.1" class="marshal-light-label">5</text>
      </g>
      <g class="marshal-light-marker" data-light="6">
        <rect x="-6409.1" y="2295.2" width="83.3" height="83.3" class="marshal-light-bg"/>
        <text x="-6367.5" y="2336.8" class="marshal-light-label">6</text>
      </g>
      <g class="marshal-light-marker" data-light="7">
        <rect x="-5898.9" y="3117.6" width="83.3" height="83.3" class="marshal-light-bg"/>
        <text x="-5857.3" y="3159.2" class="marshal-light-label">7</text>
      </g>
      <g class="marshal-light-marker" data-light="8">
        <rect x="-4854.0" y="1361.7" width="83.3" height="83.3" class="marshal-light-bg"/>
        <text x="-4812.4" y="1403.4" class="marshal-light-label">8</text>
      </g>
      <g class="marshal-light-marker" data-light="9">
        <rect x="-2638.2" y="1105.4" width="83.3" height="83.3" class="marshal-light-bg"/>
        <text x="-2596.6" y="1147.1" class="marshal-light-label">9</text>
      </g>
      <g class="marshal-light-marker" data-light="10">
        <rect x="-1577.5" y="2426.9" width="83.3" height="83.3" class="marshal-light-bg"/>
        <text x="-1535.9" y="2468.5" class="marshal-light-label">10</text>
      </g>
      <g class="marshal-light-marker" data-light="11">
        <rect x="292.8" y="1503.2" width="83.3" height="83.3" class="marshal-light-bg"/>
        <text x="334.4" y="1544.8" class="marshal-light-label">11</text>
      </g>
      <g class="marshal-light-marker" data-light="12">
        <rect x="-393.4" y="3648.2" width="83.3" height="83.3" class="marshal-light-bg"/>
        <text x="-351.7" y="3689.9" class="marshal-light-label">12</text>
      </g>
      <g class="marshal-light-marker" data-light="13">
        <rect x="-1627.1" y="5741.1" width="83.3" height="83.3" class="marshal-light-bg"/>
        <text x="-1585.4" y="5782.7" class="marshal-light-label">13</text>
      </g>
      <g class="marshal-light-marker" data-light="14">
        <rect x="-2777.3" y="5748.0" width="83.3" height="83.3" class="marshal-light-bg"/>
        <text x="-2735.7" y="5789.7" class="marshal-light-label">14</text>
      </g>
      <g class="marshal-light-marker" data-light="15">
        <rect x="-2198.3" y="7160.5" width="83.3" height="83.3" class="marshal-light-bg"/>
        <text x="-2156.7" y="7202.1" class="marshal-light-label">15</text>
      </g>
      <g class="marshal-light-marker" data-light="16">
        <rect x="244.7" y="4537.1" width="83.3" height="83.3" class="marshal-light-bg"/>
        <text x="286.4" y="4578.7" class="marshal-light-label">16</text>
      </g>
      <g class="marshal-light-marker" data-light="17">
        <rect x="3950.6" y="-1259.2" width="83.3" height="83.3" class="marshal-light-bg"/>
        <text x="3992.2" y="-1217.6" class="marshal-light-label">17</text>
      </g>
      <g class="marshal-light-marker" data-light="18">
        <rect x="4913.7" y="-3480.5" width="83.3" height="83.3" class="marshal-light-bg"/>
        <text x="4955.4" y="-3438.9" class="marshal-light-label">18</text>
      </g>
      <g class="marshal-light-marker" data-light="19">
        <rect x="3172.6" y="-1212.5" width="83.3" height="83.3" class="marshal-light-bg"/>
        <text x="3214.2" y="-1170.8" class="marshal-light-label">19</text>
      </g>
      <g class="marshal-light-marker" data-light="20">
        <rect x="664.2" y="-1452.6" width="83.3" height="83.3" class="marshal-light-bg"/>
        <text x="705.9" y="-1411.0" class="marshal-light-label">20</text>
      </g>
    </g>

    <g id="marshal-sectors">
      <g class="marshal-sector-marker" data-sector="1" data-length="3399.6">
        <polygon points="-2977.1,-2314.7 -3063.6,-2164.8 -2890.5,-2164.8" class="marshal-sector-bg"/>
        <text x="-2977.1" y="-2214.8" class="marshal-sector-label">1</text>
      </g>
      <g class="marshal-sector-marker" data-sector="2" data-length="6641.8">
        <polygon points="-5659.6,-1753.9 -5746.2,-1604.0 -5573.1,-1604.0" class="marshal-sector-bg"/>
        <text x="-5659.6" y="-1653.9" class="marshal-sector-label">2</text>
      </g>
      <g class="marshal-sector-marker" data-sector="3" data-length="7765.1">
        <polygon points="-4951.5,-1094.1 -5038.0,-944.2 -4865.0,-944.2" class="marshal-sector-bg"/>
        <text x="-4951.5" y="-994.2" class="marshal-sector-label">3</text>
      </g>
      <g class="marshal-sector-marker" data-sector="4" data-length="8862.8">
        <polygon points="-4759.6,-2016.3 -4846.1,-1866.5 -4673.0,-1866.5" class="marshal-sector-bg"/>
        <text x="-4759.6" y="-1916.4" class="marshal-sector-label">4</text>
      </g>
      <g class="marshal-sector-marker" data-sector="5" data-length="11156.2">
        <polygon points="-4533.6,-569.5 -4620.1,-419.6 -4447.0,-419.6" class="marshal-sector-bg"/>
        <text x="-4533.6" y="-469.6" class="marshal-sector-label">5</text>
      </g>
      <g class="marshal-sector-marker" data-sector="6" data-length="14492.0">
        <polygon points="-6346.2,2172.3 -6432.7,2322.1 -6259.7,2322.1" class="marshal-sector-bg"/>
        <text x="-6346.2" y="2272.2" class="marshal-sector-label">6</text>
      </g>
      <g class="marshal-sector-marker" data-sector="7" data-length="16789.6">
        <polygon points="-5956.5,3164.6 -6043.0,3314.4 -5869.9,3314.4" class="marshal-sector-bg"/>
        <text x="-5956.5" y="3264.5" class="marshal-sector-label">7</text>
      </g>
      <g class="marshal-sector-marker" data-sector="8" data-length="19057.4">
        <polygon points="-4775.2,1236.4 -4861.8,1386.3 -4688.7,1386.3" class="marshal-sector-bg"/>
        <text x="-4775.2" y="1336.4" class="marshal-sector-label">8</text>
      </g>
      <g class="marshal-sector-marker" data-sector="9" data-length="21635.9">
        <polygon points="-2639.3,988.9 -2725.8,1138.7 -2552.8,1138.7" class="marshal-sector-bg"/>
        <text x="-2639.3" y="1088.8" class="marshal-sector-label">9</text>
      </g>
      <g class="marshal-sector-marker" data-sector="10" data-length="23491.0">
        <polygon points="-1527.5,2370.0 -1614.0,2519.9 -1440.9,2519.9" class="marshal-sector-bg"/>
        <text x="-1527.5" y="2469.9" class="marshal-sector-label">10</text>
      </g>
      <g class="marshal-sector-marker" data-sector="11" data-length="26192.8">
        <polygon points="350.2,1464.9 263.7,1614.8 436.8,1614.8" class="marshal-sector-bg"/>
        <text x="350.2" y="1564.9" class="marshal-sector-label">11</text>
      </g>
      <g class="marshal-sector-marker" data-sector="12" data-length="28839.3">
        <polygon points="-446.9,3751.2 -533.4,3901.0 -360.4,3901.0" class="marshal-sector-bg"/>
        <text x="-446.9" y="3851.1" class="marshal-sector-label">12</text>
      </g>
      <g class="marshal-sector-marker" data-sector="13" data-length="31349.6">
        <polygon points="-1725.3,5911.3 -1811.8,6061.2 -1638.7,6061.2" class="marshal-sector-bg"/>
        <text x="-1725.3" y="6011.3" class="marshal-sector-label">13</text>
      </g>
      <g class="marshal-sector-marker" data-sector="14" data-length="32600.6">
        <polygon points="-2738.5,5692.9 -2825.0,5842.8 -2652.0,5842.8" class="marshal-sector-bg"/>
        <text x="-2738.5" y="5792.8" class="marshal-sector-label">14</text>
      </g>
      <g class="marshal-sector-marker" data-sector="15" data-length="34060.0">
        <polygon points="-2595.8,6966.9 -2682.3,7116.8 -2509.3,7116.8" class="marshal-sector-bg"/>
        <text x="-2595.8" y="7066.8" class="marshal-sector-label">15</text>
      </g>
      <g class="marshal-sector-marker" data-sector="16" data-length="39391.3">
        <polygon points="877.0,3553.5 790.5,3703.4 963.5,3703.4" class="marshal-sector-bg"/>
        <text x="877.0" y="3653.4" class="marshal-sector-label">16</text>
      </g>
      <g class="marshal-sector-marker" data-sector="17" data-length="46122.4">
        <polygon points="4502.4,-2117.4 4415.9,-1967.6 4589.0,-1967.6" class="marshal-sector-bg"/>
        <text x="4502.4" y="-2017.5" class="marshal-sector-label">17</text>
      </g>
      <g class="marshal-sector-marker" data-sector="18" data-length="49198.7">
        <polygon points="4484.3,-3077.1 4397.8,-2927.3 4570.8,-2927.3" class="marshal-sector-bg"/>
        <text x="4484.3" y="-2977.2" class="marshal-sector-label">18</text>
      </g>
      <g class="marshal-sector-marker" data-sector="19" data-length="51594.2">
        <polygon points="3108.1,-1116.6 3021.5,-966.7 3194.6,-966.7" class="marshal-sector-bg"/>
        <text x="3108.1" y="-1016.7" class="marshal-sector-label">19</text>
      </g>
      <g class="marshal-sector-marker" data-sector="20" data-length="119.1">
        <polygon points="227.8,-1615.1 141.3,-1465.3 314.3,-1465.3" class="marshal-sector-bg"/>
        <text x="227.8" y="-1515.2" class="marshal-sector-label">20</text>
      </g>
    </g>

    <g id="corners">
      <g class="corner-marker" data-corner="1" data-length="5739.8">
        <circle cx="-5247.4" cy="-2414.5" r="133.2" class="corner-bg"/>
        <text x="-5247.4" y="-2414.5" class="corner-label">1</text>
      </g>
      <g class="corner-marker" data-corner="2" data-length="7582.1">
        <circle cx="-5133.3" cy="-986.2" r="133.2" class="corner-bg"/>
        <text x="-5133.3" y="-986.2" class="corner-label">2</text>
      </g>
      <g class="corner-marker" data-corner="3" data-length="9109.6">
        <circle cx="-4563.6" cy="-2055.4" r="133.2" class="corner-bg"/>
        <text x="-4563.6" y="-2055.4" class="corner-label">3</text>
      </g>
      <g class="corner-marker" data-corner="4" data-length="10462.6">
        <circle cx="-4096.9" cy="-1006.8" r="133.2" class="corner-bg"/>
        <text x="-4096.9" y="-1006.8" class="corner-label">4</text>
      </g>
      <g class="corner-marker" data-corner="5" data-length="13475.1">
        <circle cx="-6014.2" cy="1312.0" r="133.2" class="corner-bg"/>
        <text x="-6014.2" y="1312.0" class="corner-label">5</text>
      </g>
      <g class="corner-marker" data-corner="6" data-length="16015.2">
        <circle cx="-6594.8" cy="3667.2" r="133.2" class="corner-bg"/>
        <text x="-6594.8" y="3667.2" class="corner-label">6</text>
      </g>
      <g class="corner-marker" data-corner="7" data-length="20627.5">
        <circle cx="-3495.4" cy="611.9" r="133.2" class="corner-bg"/>
        <text x="-3495.4" y="611.9" class="corner-label">7</text>
      </g>
      <g class="corner-marker" data-corner="8" data-length="23605.8">
        <circle cx="-1413.3" cy="2477.5" r="133.2" class="corner-bg"/>
        <text x="-1413.3" y="2477.5" class="corner-label">8</text>
      </g>
      <g class="corner-marker" data-corner="9" data-length="25516.3">
        <circle cx="-166.5" cy="1202.7" r="133.2" class="corner-bg"/>
        <text x="-166.5" y="1202.7" class="corner-label">9</text>
      </g>
      <g class="corner-marker" data-corner="10" data-length="26677.8">
        <circle cx="600.0" cy="1968.2" r="133.2" class="corner-bg"/>
        <text x="600.0" y="1968.2" class="corner-label">10</text>
      </g>
      <g class="corner-marker" data-corner="11" data-length="31447.5">
        <circle cx="-1811.6" cy="6056.3" r="133.2" class="corner-bg"/>
        <text x="-1811.6" y="6056.3" class="corner-label">11</text>
      </g>
      <g class="corner-marker" data-corner="12" data-length="32298.5">
        <circle cx="-2493.6" cy="5631.4" r="133.2" class="corner-bg"/>
        <text x="-2493.6" y="5631.4" class="corner-label">12</text>
      </g>
      <g class="corner-marker" data-corner="13" data-length="34332.3">
        <circle cx="-2345.1" cy="7169.0" r="133.2" class="corner-bg"/>
        <text x="-2345.1" y="7169.0" class="corner-label">13</text>
      </g>
      <g class="corner-marker" data-corner="14" data-length="47990.3">
        <circle cx="5434.5" cy="-3601.6" r="133.2" class="corner-bg"/>
        <text x="5434.5" y="-3601.6" class="corner-label">14</text>
      </g>
      <g class="corner-marker" data-corner="15" data-length="48807.2">
        <circle cx="4727.8" cy="-3281.8" r="133.2" class="corner-bg"/>
        <text x="4727.8" y="-3281.8" class="corner-label">15</text>
      </g>
      <g class="corner-marker" data-corner="16" data-length="51764.4">
        <circle cx="2978.1" cy="-910.6" r="133.2" class="corner-bg"/>
        <text x="2978.1" y="-910.6" class="corner-label">16</text>
      </g>
    </g>

    <g id="start-finish" data-track-x="344.0" data-track-y="-1489.0" data-lap-distance="54461.9">
      <polygon points="885.4,-1626.4 397.3,-1733.0 461.3,-2025.9 949.3,-1919.2" class="checker-border"/>
      <polygon points="885.4,-1626.4 787.8,-1647.7 809.1,-1745.3 906.7,-1724.0" class="checker-black"/>
      <polygon points="906.7,-1724.0 809.1,-1745.3 830.4,-1843.0 928.0,-1821.6" class="checker-white"/>
      <polygon points="928.0,-1821.6 830.4,-1843.0 851.7,-1940.6 949.3,-1919.2" class="checker-black"/>
      <polygon points="787.8,-1647.7 690.1,-1669.1 711.5,-1766.7 809.1,-1745.3" class="checker-white"/>
      <polygon points="809.1,-1745.3 711.5,-1766.7 732.8,-1864.3 830.4,-1843.0" class="checker-black"/>
      <polygon points="830.4,-1843.0 732.8,-1864.3 754.1,-1961.9 851.7,-1940.6" class="checker-white"/>
      <polygon points="690.1,-1669.1 592.5,-1690.4 613.9,-1788.0 711.5,-1766.7" class="checker-black"/>
      <polygon points="711.5,-1766.7 613.9,-1788.0 635.2,-1885.6 732.8,-1864.3" class="checker-white"/>
      <polygon points="732.8,-1864.3 635.2,-1885.6 656.5,-1983.2 754.1,-1961.9" class="checker-black"/>
      <polygon points="592.5,-1690.4 494.9,-1711.7 516.2,-1809.3 613.9,-1788.0" class="checker-white"/>
      <polygon points="613.9,-1788.0 516.2,-1809.3 537.6,-1906.9 635.2,-1885.6" class="checker-black"/>
      <polygon points="635.2,-1885.6 537.6,-1906.9 558.9,-2004.5 656.5,-1983.2" class="checker-white"/>
      <polygon points="494.9,-1711.7 397.3,-1733.0 418.6,-1830.6 516.2,-1809.3" class="checker-black"/>
      <polygon points="516.2,-1809.3 418.6,-1830.6 440.0,-1928.2 537.6,-1906.9" class="checker-white"/>
      <polygon points="537.6,-1906.9 440.0,-1928.2 461.3,-2025.9 558.9,-2004.5" class="checker-black"/>
      <polyline points="-23.2,-2148.7 -221.4,-2021.6 -94.3,-1823.4" class="chevron"/>
      <polyline points="-153.4,-2177.2 -351.6,-2050.0 -224.4,-1851.8" class="chevron"/>
      <polyline points="-283.5,-2205.6 -481.7,-2078.5 -354.6,-1880.2" class="chevron"/>
    </g>

    <g id="car-markers"></g>

  </g>
</svg>
