<?xml version="1.0" encoding="utf-8"?>
<?xml-stylesheet type="text/css" href="../../css/tracks.css"?>
<svg xmlns="http://www.w3.org/2000/svg" viewBox="-481.6 305.9 960.0 619.4">
  <title>Silverstone</title>

  <g id="track-root" transform="translate(0, 619.40) scale(1, -1) scale(0.046181) translate(-2737.50, -4500.50) rotate(92, 2737.50, 4500.50)" data-scale="0.046181" data-rotation="92.0">

    <g id="track-outline">
      <path d="M -1756.0 1208.0 L -1755.0 1211.0 L -1745.0 1224.0 L -1677.0 1315.0 L -1643.0 1358.0 L -1610.0 1400.0 L -1551.0 1472.0 L -1509.0 1526.0 L -1473.0 1570.0 L -1431.0 1625.0 L -1411.0 1650.0 L -1349.0 1733.0 L -1306.0 1791.0 L -1282.0 1823.0 L -1253.0 1860.0 L -1196.0 1941.0 L -1144.0 2012.0 L -1117.0 2051.0 L -1080.0 2101.0 L -998.0 2212.0 L -979.0 2240.0 L -922.0 2318.0 L -917.0 2324.0 L -833.0 2439.0 L -814.0 2466.0 L -731.0 2581.0 L -688.0 2640.0 L -580.0 2794.0 L -565.0 2816.0 L -491.0 2925.0 L -463.0 2966.0 L -392.0 3072.0 L -376.0 3097.0 L -339.8 3151.3" class="track-outline" data-sector="1"/>
      <path d="M -339.8 3151.3 L -252.0 3283.0 L -246.0 3291.0 L -171.0 3402.0 L -125.0 3469.0 L -102.0 3499.0 L -72.0 3543.0 L 13.0 3660.0 L 84.0 3754.0 L 155.0 3843.0 L 217.0 3918.0 L 245.0 3950.0 L 330.0 4045.0 L 334.0 4049.0 L 409.0 4125.0 L 422.0 4137.0 L 476.0 4187.0 L 617.0 4297.0 L 653.0 4323.0 L 704.0 4352.0 L 739.0 4369.0 L 822.0 4407.0 L 847.0 4418.0 L 927.0 4446.0 L 943.0 4450.0 L 1102.0 4490.0 L 1107.0 4491.0 L 1207.0 4506.0 L 1318.0 4514.0 L 1344.0 4516.0 L 1403.0 4518.0 L 1451.0 4519.0 L 1489.0 4519.0 L 1538.0 4519.0 L 1620.0 4515.0 L 1636.0 4515.0 L 1725.0 4509.0 L 1798.0 4501.0 L 1849.0 4495.0 L 1913.0 4486.0 L 1942.0 4482.0 L 2109.0 4460.0 L 2127.0 4457.0 L 2305.0 4443.0 L 2323.0 4442.0 L 2406.0 4440.0 L 2588.0 4443.0 L 2621.0 4445.0 L 2691.0 4450.0 L 2733.0 4457.0 L 2771.0 4463.0 L 2917.0 4496.0 L 2923.0 4497.0 L 3043.0 4534.0 L 3084.0 4550.0 L 3160.0 4582.0 L 3199.0 4600.0 L 3264.0 4632.0 L 3321.0 4666.0 L 3381.0 4705.0 L 3491.0 4780.0 L 3545.0 4818.0 L 3582.0 4852.0 L 3587.0 4856.0 L 3777.0 5032.0 L 3782.0 5037.0 L 3861.0 5117.0 L 3889.0 5145.0 L 4054.0 5309.0 L 4068.0 5322.0 L 4152.0 5401.0 L 4161.0 5409.0 L 4222.6 5465.6" class="track-outline" data-sector="2"/>
      <path d="M 4222.6 5465.6 L 4259.0 5499.0 L 4273.0 5512.0 L 4373.0 5598.0 L 4393.0 5616.0 L 4446.0 5661.0 L 4496.0 5702.0 L 4521.0 5722.0 L 4565.0 5756.0 L 4632.0 5808.0 L 4640.0 5813.0 L 4699.0 5851.0 L 4728.0 5863.0 L 4801.0 5887.0 L 4817.0 5891.0 L 4865.0 5898.0 L 4885.0 5899.0 L 4929.0 5900.0 L 4970.0 5896.0 L 5023.0 5888.0 L 5032.0 5886.0 L 5051.0 5879.0 L 5129.0 5847.0 L 5147.0 5837.0 L 5178.0 5816.0 L 5201.0 5797.0 L 5215.0 5786.0 L 5241.0 5760.0 L 5255.0 5744.0 L 5280.0 5713.0 L 5289.0 5698.0 L 5319.0 5641.0 L 5323.0 5629.0 L 5339.0 5590.0 L 5347.0 5563.0 L 5353.0 5546.0 L 5362.0 5511.0 L 5366.0 5494.0 L 5373.0 5453.0 L 5375.0 5434.0 L 5387.0 5337.0 L 5387.0 5332.0 L 5393.0 5274.0 L 5396.0 5243.0 L 5399.0 5210.0 L 5401.0 5192.0 L 5409.0 5142.0 L 5412.0 5129.0 L 5420.0 5088.0 L 5436.0 5042.0 L 5437.0 5041.0 L 5459.0 4989.0 L 5462.0 4981.0 L 5494.0 4926.0 L 5500.0 4919.0 L 5544.0 4864.0 L 5544.4 4863.6" class="track-outline" data-sector="3"/>
      <path d="M 5544.4 4863.6 L 5572.0 4833.0 L 5595.0 4814.0 L 5627.0 4788.0 L 5646.0 4775.0 L 5686.0 4753.0 L 5688.0 4751.0 L 5719.0 4739.0 L 5728.0 4737.0 L 5792.0 4732.0 L 5801.0 4733.0 L 5840.0 4745.0 L 5871.0 4760.0 L 5881.0 4767.0 L 5945.0 4817.0 L 5954.0 4825.0 L 5988.0 4861.0 L 6019.0 4897.0 L 6023.0 4902.0 L 6047.0 4934.0 L 6053.0 4944.0 L 6098.0 5013.0 L 6112.0 5037.0 L 6127.0 5065.0 L 6128.0 5067.0 L 6152.0 5117.0 L 6153.0 5119.0 L 6185.0 5197.0 L 6190.0 5209.0 L 6220.0 5297.0 L 6224.0 5308.0 L 6235.0 5344.0 L 6238.0 5354.0 L 6256.0 5418.0 L 6261.0 5436.0 L 6271.0 5476.0 L 6287.0 5545.0 L 6301.0 5615.0 L 6306.0 5644.0 L 6316.0 5705.0 L 6316.0 5709.0 L 6324.0 5778.0 L 6325.0 5783.0 L 6330.0 5975.0 L 6329.0 5995.0 L 6326.0 6051.1" class="track-outline" data-sector="4"/>
      <path d="M 6326.0 6051.1 L 6326.0 6052.0 L 6323.0 6071.0 L 6309.0 6175.0 L 6304.0 6210.0 L 6283.0 6310.0 L 6272.0 6345.0 L 6218.0 6500.0 L 6217.0 6506.0 L 6185.0 6579.0 L 6162.0 6622.0 L 6120.0 6698.0 L 6090.0 6745.0 L 6011.0 6862.0 L 5969.0 6916.0 L 5919.0 6975.0 L 5888.0 7009.0 L 5844.0 7053.0 L 5789.0 7107.0 L 5756.0 7135.0 L 5699.0 7186.0 L 5654.0 7223.0 L 5596.0 7270.0 L 5469.0 7369.0 L 5437.0 7393.0 L 5348.0 7460.0 L 5317.0 7485.0 L 5237.0 7548.0 L 5134.0 7632.0 L 5036.0 7712.0 L 4943.0 7790.0 L 4913.0 7816.0 L 4839.0 7878.0 L 4767.0 7941.0 L 4733.0 7969.0 L 4662.0 8031.0 L 4638.0 8051.0 L 4496.0 8172.0 L 4448.0 8214.0 L 4391.0 8262.0 L 4340.0 8307.0 L 4308.0 8333.0 L 4216.0 8413.0 L 4153.0 8467.0 L 4128.2 8488.2" class="track-outline" data-sector="5"/>
      <path d="M 4128.2 8488.2 L 4098.0 8514.0 L 4038.0 8565.0 L 3965.0 8629.0 L 3916.0 8671.0 L 3797.0 8774.0 L 3700.0 8859.0 L 3607.0 8942.0 L 3528.0 9011.0 L 3453.0 9076.0 L 3381.0 9140.0 L 3290.0 9220.0 L 3249.0 9255.0 L 3142.0 9350.0 L 3135.0 9355.0 L 3084.0 9400.0 L 2912.0 9552.0 L 2903.0 9559.0 L 2731.0 9707.0 L 2667.0 9763.0 L 2509.0 9901.0 L 2504.0 9906.0 L 2398.0 9998.0 L 2353.0 10039.0 L 2268.0 10113.0 L 2218.0 10159.0 L 2112.0 10255.0 L 2106.0 10260.0 L 2014.1 10341.8" class="track-outline" data-sector="6"/>
      <path d="M 2014.1 10341.8 L 1934.0 10413.0 L 1929.0 10419.0 L 1806.0 10526.0 L 1767.0 10558.0 L 1731.0 10588.0 L 1727.0 10590.0 L 1626.0 10672.0 L 1585.0 10702.0 L 1569.0 10714.0 L 1503.0 10756.0 L 1500.0 10759.0 L 1379.0 10827.0 L 1377.0 10829.0 L 1319.0 10857.0 L 1277.0 10874.0 L 1200.0 10903.0 L 1141.0 10921.0 L 1130.0 10923.0 L 1098.0 10931.0 L 969.0 10945.0 L 948.0 10947.0 L 908.0 10948.0 L 883.0 10947.0 L 877.0 10947.0 L 790.0 10944.0 L 775.0 10944.0 L 731.0 10940.0 L 699.0 10933.0 L 601.0 10900.0 L 583.0 10894.0 L 556.0 10882.0 L 547.0 10877.0 L 526.0 10866.0 L 480.0 10839.0 L 475.0 10836.0 L 419.0 10788.0 L 376.0 10746.0 L 350.0 10715.0 L 335.0 10688.0 L 334.0 10687.0 L 294.0 10620.0 L 279.0 10592.0 L 252.0 10533.0 L 250.0 10529.0 L 221.0 10448.0 L 217.0 10432.0 L 210.0 10396.0 L 205.0 10364.0 L 198.0 10299.0 L 192.0 10222.0 L 192.0 10219.0 L 189.0 10160.0 L 187.0 10133.0 L 186.0 10099.0 L 184.0 10072.0 L 180.0 10014.0 L 179.0 10010.0 L 172.0 9932.0 L 165.0 9893.0 L 155.0 9844.0 L 142.0 9802.0 L 139.0 9793.0 L 118.0 9745.0 L 104.0 9718.0 L 86.0 9688.0 L 53.0 9643.0 L 21.0 9606.0 L 20.0 9605.0 L 0.0 9584.0 L -55.0 9539.0 L -57.0 9536.0 L -95.0 9511.0 L -108.0 9504.0 L -189.0 9465.0 L -202.0 9461.0 L -225.0 9453.0 L -253.0 9448.0 L -284.0 9444.0 L -324.0 9442.0 L -327.0 9441.0 L -354.4 9443.2" class="track-outline" data-sector="7"/>
      <path d="M -354.4 9443.2 L -364.0 9444.0 L -397.0 9450.0 L -449.0 9466.0 L -485.0 9481.0 L -530.0 9511.0 L -533.0 9513.0 L -584.0 9555.0 L -592.0 9562.0 L -634.0 9608.0 L -649.0 9630.0 L -664.0 9653.0 L -678.0 9675.0 L -681.0 9680.0 L -706.0 9728.0 L -715.0 9747.0 L -742.0 9824.0 L -744.0 9829.0 L -762.0 9905.0 L -763.0 9909.0 L -773.0 9973.0 L -774.0 9993.0 L -775.0 10088.0 L -775.0 10099.0 L -773.0 10140.0 L -767.0 10196.0 L -764.0 10225.0 L -761.0 10245.0 L -752.0 10297.0 L -739.0 10358.0 L -711.0 10459.0 L -705.0 10483.0 L -690.0 10526.0 L -684.0 10544.0 L -677.0 10562.0 L -642.0 10654.0 L -593.0 10763.0 L -580.0 10794.0 L -536.0 10883.0 L -517.0 10921.0 L -480.0 10992.0 L -453.0 11043.0 L -427.0 11092.0 L -413.0 11115.0 L -372.0 11190.0 L -370.0 11194.0 L -313.0 11288.0 L -303.0 11303.0 L -214.0 11436.0 L -198.0 11460.0 L -143.0 11532.0 L -134.0 11546.0 L -97.0 11594.0 L -58.0 11640.0 L 63.0 11781.0 L 89.0 11810.0 L 153.0 11876.0 L 223.0 11940.0 L 227.0 11944.0 L 263.0 11977.8" class="track-outline" data-sector="8"/>
      <path d="M 263.0 11977.8 L 293.0 12006.0 L 318.0 12029.0 L 417.0 12113.0 L 421.0 12117.0 L 524.0 12198.0 L 580.0 12238.0 L 687.0 12312.0 L 762.0 12362.0 L 835.0 12399.0 L 857.0 12409.0 L 1081.0 12513.0 L 1103.0 12523.0 L 1252.0 12580.0 L 1267.0 12585.0 L 1373.0 12619.0 L 1395.0 12626.0 L 1501.0 12656.0 L 1604.0 12683.0 L 1674.0 12700.0 L 1754.0 12717.0 L 1791.0 12725.0 L 2302.0 12800.0 L 2399.0 12811.0 L 2600.0 12832.0 L 2623.0 12834.0 L 2840.0 12857.0 L 2848.0 12858.0 L 3011.0 12874.0 L 3100.0 12883.0 L 3203.0 12893.0 L 3318.0 12906.0 L 3324.0 12907.0 L 3444.0 12920.0 L 3529.0 12929.0 L 3656.0 12944.0 L 3717.0 12950.0 L 3802.0 12959.0 L 3869.0 12968.0 L 3954.0 12978.0 L 4108.0 12996.0 L 4130.0 12999.0 L 4253.0 13015.0 L 4392.0 13033.0 L 4447.0 13040.0 L 4469.0 13044.0" class="track-outline" data-sector="9"/>
      <path d="M 4469.0 13044.0 L 4621.0 13064.0 L 4659.0 13068.0 L 4805.0 13086.0 L 4811.0 13087.0 L 4989.0 13104.0 L 4996.0 13104.0 L 5116.0 13112.0 L 5123.0 13112.0 L 5218.0 13115.0 L 5257.0 13114.0 L 5337.0 13111.0 L 5387.0 13105.0 L 5448.0 13096.0 L 5583.0 13065.0 L 5589.0 13064.0 L 5696.0 13032.0 L 5740.0 13018.0 L 5822.0 12986.0 L 5877.0 12956.0 L 5891.0 12949.0 L 6030.0 12863.0 L 6036.0 12858.0 L 6133.0 12784.0 L 6208.0 12717.0 L 6231.0 12696.0 L 6276.0 12650.0 L 6327.0 12591.0 L 6330.0 12588.0 L 6404.0 12484.0 L 6412.0 12470.0 L 6453.0 12400.0 L 6483.0 12341.0 L 6531.0 12242.0 L 6542.0 12217.0 L 6574.0 12139.0 L 6576.0 12133.0 L 6613.0 12033.0 L 6630.0 11982.0 L 6670.0 11851.0 L 6672.0 11847.0 L 6688.0 11790.0 L 6705.0 11723.0 L 6750.0 11543.0 L 6751.0 11536.0 L 6767.0 11464.0 L 6772.0 11445.0 L 6814.0 11251.0 L 6818.0 11233.0 L 6833.0 11157.0 L 6857.0 11018.0 L 6860.0 11001.0 L 6876.0 10895.0 L 6882.0 10851.0 L 6903.0 10687.0 L 6917.0 10585.0 L 6924.0 10517.0 L 6927.0 10489.0 L 6935.0 10403.0 L 6943.0 10322.0 L 6946.0 10284.0 L 6955.0 10181.0 L 6955.0 10172.0 L 6969.0 9939.0 L 6970.0 9915.0 L 6976.0 9779.0 L 6978.0 9706.0 L 6979.0 9624.0 L 6981.0 9560.0 L 6981.0 9510.0 L 6987.0 9307.0 L 6988.0 9283.0 L 6995.0 9116.0 L 6999.0 9055.1" class="track-outline" data-sector="10"/>
      <path d="M 6999.0 9055.1 L 7005.0 8964.0 L 7015.0 8840.0 L 7025.0 8773.0 L 7045.0 8646.0 L 7051.0 8615.0 L 7081.0 8469.0 L 7084.0 8460.0 L 7128.0 8285.0 L 7153.0 8188.0 L 7170.0 8141.0 L 7188.0 8084.0 L 7222.0 7983.0 L 7228.0 7967.0 L 7273.0 7843.0 L 7296.0 7780.0 L 7319.0 7723.0 L 7336.0 7680.0 L 7366.0 7605.0 L 7430.0 7439.0 L 7441.0 7408.0 L 7453.0 7371.0 L 7458.0 7356.0 L 7481.0 7278.0 L 7486.0 7264.0 L 7506.0 7182.0 L 7520.0 7107.0 L 7531.0 7016.0 L 7531.0 7009.0 L 7535.0 6906.0 L 7534.0 6889.0 L 7529.0 6804.0 L 7521.0 6732.0 L 7515.0 6683.0 L 7496.0 6573.0 L 7483.0 6502.0 L 7469.0 6434.0 L 7460.0 6395.0 L 7455.0 6372.0 L 7433.0 6281.0 L 7431.0 6275.0 L 7409.0 6183.0 L 7393.0 6115.0 L 7391.0 6103.0 L 7375.0 6031.0 L 7367.0 5991.0 L 7356.0 5932.0 L 7349.0 5887.0 L 7342.0 5841.0 L 7334.0 5769.0 L 7330.0 5722.0 L 7329.0 5702.0 L 7326.0 5604.0 L 7330.0 5535.0 L 7340.0 5445.0 L 7347.0 5393.0 L 7355.0 5367.0 L 7357.0 5358.0 L 7378.3 5283.5" class="track-outline" data-sector="11"/>
      <path d="M 7378.3 5283.5 L 7379.0 5281.0 L 7387.0 5261.0 L 7429.0 5159.0 L 7430.0 5155.0 L 7467.0 5081.0 L 7468.0 5077.0 L 7508.0 5007.0 L 7518.0 4991.0 L 7559.0 4922.0 L 7573.0 4897.0 L 7600.0 4854.0 L 7606.0 4843.0 L 7645.0 4774.0 L 7651.0 4765.0 L 7679.0 4710.0 L 7697.0 4669.0 L 7731.0 4591.0 L 7736.0 4580.0 L 7759.0 4508.0 L 7769.0 4467.0 L 7781.0 4396.0 L 7782.0 4379.0 L 7788.0 4290.0 L 7788.0 4244.0 L 7777.0 4166.0 L 7769.0 4128.0 L 7756.0 4066.0 L 7742.0 4021.0 L 7736.0 4006.0 L 7733.0 3999.0 L 7697.0 3913.0 L 7676.0 3864.0 L 7663.0 3836.0 L 7639.0 3795.0 L 7618.0 3761.0 L 7580.0 3704.0 L 7557.0 3675.0 L 7496.0 3604.0 L 7455.0 3562.0 L 7425.0 3537.0 L 7385.0 3506.0 L 7370.0 3495.0 L 7317.0 3460.0 L 7289.0 3443.0 L 7168.0 3375.0 L 7133.0 3356.0 L 7085.0 3331.0 L 7060.0 3318.0 L 6985.0 3277.0 L 6896.0 3219.0 L 6877.0 3205.0 L 6832.0 3169.0 L 6762.0 3107.0 L 6751.0 3096.0 L 6696.0 3043.0 L 6667.0 3013.0 L 6607.0 2950.0 L 6603.0 2945.0 L 6541.0 2878.0 L 6508.0 2840.0 L 6447.0 2765.0 L 6433.0 2747.0 L 6345.0 2625.0 L 6329.0 2602.0 L 6299.0 2554.0 L 6284.0 2530.0 L 6233.0 2445.0 L 6201.0 2389.0 L 6190.0 2369.0 L 6126.0 2252.0 L 6114.0 2230.0 L 6043.0 2090.0 L 6028.0 2060.0 L 5966.0 1934.0 L 5950.0 1902.0 L 5871.0 1740.0 L 5856.0 1711.0 L 5810.0 1615.0 L 5799.6 1592.6" class="track-outline" data-sector="12"/>
      <path d="M 5799.6 1592.6 L 5796.0 1585.0 L 5761.0 1513.0 L 5725.0 1437.0 L 5693.0 1372.0 L 5675.0 1333.0 L 5613.0 1203.0 L 5604.0 1184.0 L 5568.0 1107.0 L 5557.0 1085.0 L 5516.0 998.0 L 5506.0 978.0 L 5463.0 888.0 L 5426.0 811.0 L 5344.0 638.0 L 5340.0 630.0 L 5292.0 532.0 L 5252.0 449.0 L 5232.0 408.0 L 5181.0 302.0 L 5172.0 283.0 L 5109.0 153.0 L 5090.0 115.0 L 5014.0 -42.0 L 4929.0 -216.0 L 4862.0 -356.0 L 4860.0 -362.0 L 4826.0 -432.0 L 4784.0 -518.0 L 4782.0 -524.0 L 4719.0 -654.0 L 4704.0 -687.0 L 4628.0 -843.0 L 4578.0 -944.0 L 4522.0 -1062.0 L 4482.0 -1143.0 L 4448.0 -1214.0 L 4439.0 -1231.0 L 4374.0 -1366.0 L 4292.0 -1529.0 L 4264.0 -1588.0 L 4220.0 -1674.0 L 4184.0 -1746.0 L 4155.0 -1806.0 L 4111.0 -1893.0 L 4089.0 -1938.0 L 4077.7 -1960.4" class="track-outline" data-sector="13"/>
      <path d="M 4077.7 -1960.4 L 4011.0 -2093.0 L 4005.0 -2104.0 L 3911.0 -2287.0 L 3880.0 -2344.0 L 3870.0 -2365.0 L 3813.0 -2473.0 L 3755.0 -2586.0 L 3700.0 -2689.0 L 3695.0 -2697.0 L 3602.0 -2867.0 L 3578.0 -2913.0 L 3550.0 -2963.0 L 3528.0 -3003.0 L 3508.0 -3037.0 L 3452.0 -3136.0 L 3400.0 -3223.0 L 3369.0 -3276.0 L 3323.0 -3349.0 L 3304.0 -3380.0 L 3283.0 -3411.0 L 3249.0 -3460.0 L 3180.0 -3554.0 L 3143.0 -3603.0 L 3127.0 -3622.0 L 3109.0 -3643.0 L 3108.0 -3645.0 L 3036.0 -3728.0 L 3023.0 -3741.0 L 2991.0 -3774.0 L 2971.0 -3794.0 L 2914.0 -3844.0 L 2867.0 -3885.0 L 2857.0 -3892.0 L 2794.0 -3936.0 L 2791.0 -3937.0 L 2730.0 -3975.0 L 2719.0 -3981.0 L 2616.0 -4032.0 L 2572.0 -4050.0 L 2535.0 -4064.0 L 2530.0 -4066.0 L 2504.0 -4073.0 L 2490.0 -4078.0 L 2454.0 -4088.0 L 2414.0 -4097.0 L 2367.0 -4104.0 L 2305.0 -4112.0 L 2263.0 -4114.0 L 2254.0 -4114.0 L 2191.0 -4112.0 L 2176.0 -4112.0 L 2127.0 -4108.0 L 2061.0 -4095.0 L 1973.0 -4073.0 L 1950.0 -4067.0 L 1913.0 -4053.0 L 1912.0 -4053.0 L 1841.0 -4023.0 L 1831.0 -4018.0 L 1755.0 -3977.0 L 1729.0 -3961.0 L 1727.0 -3960.0 L 1675.0 -3925.0 L 1652.0 -3908.0 L 1602.0 -3868.0 L 1595.0 -3862.0 L 1546.0 -3817.0 L 1543.0 -3814.0 L 1512.0 -3784.0 L 1503.0 -3775.0 L 1427.0 -3690.0 L 1419.0 -3681.0 L 1386.0 -3638.0 L 1365.0 -3608.0 L 1358.0 -3599.0 L 1309.0 -3526.0 L 1306.0 -3522.0 L 1273.0 -3467.0 L 1254.0 -3435.0 L 1185.0 -3308.0 L 1143.0 -3230.0 L 1102.0 -3152.0 L 1101.0 -3150.0 L 1079.0 -3110.0 L 1070.0 -3093.0 L 1044.0 -3046.0 L 1008.0 -2985.0 L 980.0 -2941.0 L 879.0 -2786.0 L 870.0 -2772.0 L 799.0 -2673.0 L 796.0 -2669.0 L 685.0 -2518.0 L 673.0 -2502.0 L 634.0 -2449.0 L 624.0 -2435.0 L 601.0 -2404.0 L 505.0 -2275.0 L 502.0 -2270.0 L 397.0 -2131.0 L 383.0 -2113.0 L 352.0 -2071.0 L 305.4 -2010.2" class="track-outline" data-sector="14"/>
      <path d="M 305.4 -2010.2 L 293.0 -1994.0 L 266.0 -1959.0 L 175.0 -1847.0 L 118.0 -1778.0 L 106.0 -1764.0 L 55.0 -1705.0 L 37.0 -1684.0 L -4.0 -1635.0 L -26.0 -1609.0 L -68.0 -1563.0 L -113.0 -1512.0 L -198.0 -1416.0 L -212.0 -1402.0 L -254.0 -1354.0 L -284.0 -1319.0 L -351.0 -1244.0 L -359.0 -1233.0 L -406.0 -1183.0 L -407.0 -1181.0 L -461.0 -1126.0 L -463.0 -1124.0 L -484.0 -1103.0 L -509.0 -1078.0 L -545.0 -1048.0 L -562.0 -1034.0 L -615.0 -998.0 L -620.0 -994.0 L -653.0 -976.0 L -667.0 -968.0 L -739.0 -937.0 L -769.0 -926.0 L -806.0 -920.0 L -826.0 -917.0 L -863.0 -915.0 L -865.0 -915.0 L -911.0 -913.0 L -919.0 -913.0 L -971.0 -916.0 L -1005.0 -921.0 L -1020.0 -925.0 L -1064.0 -940.0 L -1066.0 -941.0 L -1098.0 -956.0 L -1108.0 -962.0 L -1135.0 -979.0 L -1152.0 -991.0 L -1178.0 -1009.0 L -1200.0 -1025.0 L -1232.0 -1049.0 L -1242.0 -1057.0 L -1282.0 -1085.0 L -1301.0 -1098.0 L -1333.0 -1116.0 L -1340.0 -1119.0 L -1370.0 -1130.0 L -1382.0 -1134.0 L -1431.0 -1145.0 L -1439.0 -1147.0 L -1480.0 -1152.0 L -1483.0 -1152.0 L -1535.0 -1148.0 L -1558.0 -1146.0 L -1584.0 -1141.0 L -1618.0 -1134.0 L -1678.0 -1116.0 L -1691.0 -1113.0 L -1758.0 -1087.0 L -1796.0 -1067.0 L -1798.0 -1067.0 L -1830.0 -1050.0 L -1871.0 -1018.0 L -1902.0 -990.0 L -1939.0 -956.0 L -1985.0 -901.0 L -2003.0 -878.0 L -2038.0 -833.0 L -2040.0 -830.0 L -2051.6 -815.4" class="track-outline" data-sector="15"/>
      <path d="M -2051.6 -815.4 L -2085.0 -773.0 L -2101.0 -753.0 L -2263.0 -403.0 L -2275.0 -355.0 L -2278.0 -343.0 L -2299.0 -230.0 L -2301.0 -218.0 L -2309.0 -134.0 L -2309.0 -118.0 L -2313.0 29.0 L -2312.0 34.0 L -2308.0 107.0 L -2287.0 245.0 L -2283.0 273.0 L -2248.0 407.0 L -2243.0 420.0 L -2218.0 490.0 L -2207.0 514.0 L -2156.0 619.0 L -2137.0 656.0 L -2103.0 715.0 L -2079.0 756.0 L -2004.0 868.0 L -1968.0 918.0 L -1953.0 940.0 L -1886.0 1033.0 L -1856.0 1072.0 L -1759.0 1205.0 L -1707.0 1275.0 L -1756.0 1208.0" class="track-outline" data-sector="16"/>
    </g>

    <g id="track-sectors">
      <path d="M -1756.0 1208.0 L -1755.0 1211.0 L -1745.0 1224.0 L -1677.0 1315.0 L -1643.0 1358.0 L -1610.0 1400.0 L -1551.0 1472.0 L -1509.0 1526.0 L -1473.0 1570.0 L -1431.0 1625.0 L -1411.0 1650.0 L -1349.0 1733.0 L -1306.0 1791.0 L -1282.0 1823.0 L -1253.0 1860.0 L -1196.0 1941.0 L -1144.0 2012.0 L -1117.0 2051.0 L -1080.0 2101.0 L -998.0 2212.0 L -979.0 2240.0 L -922.0 2318.0 L -917.0 2324.0 L -833.0 2439.0 L -814.0 2466.0 L -731.0 2581.0 L -688.0 2640.0 L -580.0 2794.0 L -565.0 2816.0 L -491.0 2925.0 L -463.0 2966.0 L -392.0 3072.0 L -376.0 3097.0 L -339.8 3151.3" class="track" data-sector="1"/>
      <path d="M -339.8 3151.3 L -252.0 3283.0 L -246.0 3291.0 L -171.0 3402.0 L -125.0 3469.0 L -102.0 3499.0 L -72.0 3543.0 L 13.0 3660.0 L 84.0 3754.0 L 155.0 3843.0 L 217.0 3918.0 L 245.0 3950.0 L 330.0 4045.0 L 334.0 4049.0 L 409.0 4125.0 L 422.0 4137.0 L 476.0 4187.0 L 617.0 4297.0 L 653.0 4323.0 L 704.0 4352.0 L 739.0 4369.0 L 822.0 4407.0 L 847.0 4418.0 L 927.0 4446.0 L 943.0 4450.0 L 1102.0 4490.0 L 1107.0 4491.0 L 1207.0 4506.0 L 1318.0 4514.0 L 1344.0 4516.0 L 1403.0 4518.0 L 1451.0 4519.0 L 1489.0 4519.0 L 1538.0 4519.0 L 1620.0 4515.0 L 1636.0 4515.0 L 1725.0 4509.0 L 1798.0 4501.0 L 1849.0 4495.0 L 1913.0 4486.0 L 1942.0 4482.0 L 2109.0 4460.0 L 2127.0 4457.0 L 2305.0 4443.0 L 2323.0 4442.0 L 2406.0 4440.0 L 2588.0 4443.0 L 2621.0 4445.0 L 2691.0 4450.0 L 2733.0 4457.0 L 2771.0 4463.0 L 2917.0 4496.0 L 2923.0 4497.0 L 3043.0 4534.0 L 3084.0 4550.0 L 3160.0 4582.0 L 3199.0 4600.0 L 3264.0 4632.0 L 3321.0 4666.0 L 3381.0 4705.0 L 3491.0 4780.0 L 3545.0 4818.0 L 3582.0 4852.0 L 3587.0 4856.0 L 3777.0 5032.0 L 3782.0 5037.0 L 3861.0 5117.0 L 3889.0 5145.0 L 4054.0 5309.0 L 4068.0 5322.0 L 4152.0 5401.0 L 4161.0 5409.0 L 4222.6 5465.6" class="track" data-sector="2"/>
      <path d="M 4222.6 5465.6 L 4259.0 5499.0 L 4273.0 5512.0 L 4373.0 5598.0 L 4393.0 5616.0 L 4446.0 5661.0 L 4496.0 5702.0 L 4521.0 5722.0 L 4565.0 5756.0 L 4632.0 5808.0 L 4640.0 5813.0 L 4699.0 5851.0 L 4728.0 5863.0 L 4801.0 5887.0 L 4817.0 5891.0 L 4865.0 5898.0 L 4885.0 5899.0 L 4929.0 5900.0 L 4970.0 5896.0 L 5023.0 5888.0 L 5032.0 5886.0 L 5051.0 5879.0 L 5129.0 5847.0 L 5147.0 5837.0 L 5178.0 5816.0 L 5201.0 5797.0 L 5215.0 5786.0 L 5241.0 5760.0 L 5255.0 5744.0 L 5280.0 5713.0 L 5289.0 5698.0 L 5319.0 5641.0 L 5323.0 5629.0 L 5339.0 5590.0 L 5347.0 5563.0 L 5353.0 5546.0 L 5362.0 5511.0 L 5366.0 5494.0 L 5373.0 5453.0 L 5375.0 5434.0 L 5387.0 5337.0 L 5387.0 5332.0 L 5393.0 5274.0 L 5396.0 5243.0 L 5399.0 5210.0 L 5401.0 5192.0 L 5409.0 5142.0 L 5412.0 5129.0 L 5420.0 5088.0 L 5436.0 5042.0 L 5437.0 5041.0 L 5459.0 4989.0 L 5462.0 4981.0 L 5494.0 4926.0 L 5500.0 4919.0 L 5544.0 4864.0 L 5544.4 4863.6" class="track" data-sector="3"/>
      <path d="M 5544.4 4863.6 L 5572.0 4833.0 L 5595.0 4814.0 L 5627.0 4788.0 L 5646.0 4775.0 L 5686.0 4753.0 L 5688.0 4751.0 L 5719.0 4739.0 L 5728.0 4737.0 L 5792.0 4732.0 L 5801.0 4733.0 L 5840.0 4745.0 L 5871.0 4760.0 L 5881.0 4767.0 L 5945.0 4817.0 L 5954.0 4825.0 L 5988.0 4861.0 L 6019.0 4897.0 L 6023.0 4902.0 L 6047.0 4934.0 L 6053.0 4944.0 L 6098.0 5013.0 L 6112.0 5037.0 L 6127.0 5065.0 L 6128.0 5067.0 L 6152.0 5117.0 L 6153.0 5119.0 L 6185.0 5197.0 L 6190.0 5209.0 L 6220.0 5297.0 L 6224.0 5308.0 L 6235.0 5344.0 L 6238.0 5354.0 L 6256.0 5418.0 L 6261.0 5436.0 L 6271.0 5476.0 L 6287.0 5545.0 L 6301.0 5615.0 L 6306.0 5644.0 L 6316.0 5705.0 L 6316.0 5709.0 L 6324.0 5778.0 L 6325.0 5783.0 L 6330.0 5975.0 L 6329.0 5995.0 L 6326.0 6051.1" class="track" data-sector="4"/>
      <path d="M 6326.0 6051.1 L 6326.0 6052.0 L 6323.0 6071.0 L 6309.0 6175.0 L 6304.0 6210.0 L 6283.0 6310.0 L 6272.0 6345.0 L 6218.0 6500.0 L 6217.0 6506.0 L 6185.0 6579.0 L 6162.0 6622.0 L 6120.0 6698.0 L 6090.0 6745.0 L 6011.0 6862.0 L 5969.0 6916.0 L 5919.0 6975.0 L 5888.0 7009.0 L 5844.0 7053.0 L 5789.0 7107.0 L 5756.0 7135.0 L 5699.0 7186.0 L 5654.0 7223.0 L 5596.0 7270.0 L 5469.0 7369.0 L 5437.0 7393.0 L 5348.0 7460.0 L 5317.0 7485.0 L 5237.0 7548.0 L 5134.0 7632.0 L 5036.0 7712.0 L 4943.0 7790.0 L 4913.0 7816.0 L 4839.0 7878.0 L 4767.0 7941.0 L 4733.0 7969.0 L 4662.0 8031.0 L 4638.0 8051.0 L 4496.0 8172.0 L 4448.0 8214.0 L 4391.0 8262.0 L 4340.0 8307.0 L 4308.0 8333.0 L 4216.0 8413.0 L 4153.0 8467.0 L 4128.2 8488.2" class="track" data-sector="5"/>
      <path d="M 4128.2 8488.2 L 4098.0 8514.0 L 4038.0 8565.0 L 3965.0 8629.0 L 3916.0 8671.0 L 3797.0 8774.0 L 3700.0 8859.0 L 3607.0 8942.0 L 3528.0 9011.0 L 3453.0 9076.0 L 3381.0 9140.0 L 3290.0 9220.0 L 3249.0 9255.0 L 3142.0 9350.0 L 3135.0 9355.0 L 3084.0 9400.0 L 2912.0 9552.0 L 2903.0 9559.0 L 2731.0 9707.0 L 2667.0 9763.0 L 2509.0 9901.0 L 2504.0 9906.0 L 2398.0 9998.0 L 2353.0 10039.0 L 2268.0 10113.0 L 2218.0 10159.0 L 2112.0 10255.0 L 2106.0 10260.0 L 2014.1 10341.8" class="track" data-sector="6"/>
      <path d="M 2014.1 10341.8 L 1934.0 10413.0 L 1929.0 10419.0 L 1806.0 10526.0 L 1767.0 10558.0 L 1731.0 10588.0 L 1727.0 10590.0 L 1626.0 10672.0 L 1585.0 10702.0 L 1569.0 10714.0 L 1503.0 10756.0 L 1500.0 10759.0 L 1379.0 10827.0 L 1377.0 10829.0 L 1319.0 10857.0 L 1277.0 10874.0 L 1200.0 10903.0 L 1141.0 10921.0 L 1130.0 10923.0 L 1098.0 10931.0 L 969.0 10945.0 L 948.0 10947.0 L 908.0 10948.0 L 883.0 10947.0 L 877.0 10947.0 L 790.0 10944.0 L 775.0 10944.0 L 731.0 10940.0 L 699.0 10933.0 L 601.0 10900.0 L 583.0 10894.0 L 556.0 10882.0 L 547.0 10877.0 L 526.0 10866.0 L 480.0 10839.0 L 475.0 10836.0 L 419.0 10788.0 L 376.0 10746.0 L 350.0 10715.0 L 335.0 10688.0 L 334.0 10687.0 L 294.0 10620.0 L 279.0 10592.0 L 252.0 10533.0 L 250.0 10529.0 L 221.0 10448.0 L 217.0 10432.0 L 210.0 10396.0 L 205.0 10364.0 L 198.0 10299.0 L 192.0 10222.0 L 192.0 10219.0 L 189.0 10160.0 L 187.0 10133.0 L 186.0 10099.0 L 184.0 10072.0 L 180.0 10014.0 L 179.0 10010.0 L 172.0 9932.0 L 165.0 9893.0 L 155.0 9844.0 L 142.0 9802.0 L 139.0 9793.0 L 118.0 9745.0 L 104.0 9718.0 L 86.0 9688.0 L 53.0 9643.0 L 21.0 9606.0 L 20.0 9605.0 L 0.0 9584.0 L -55.0 9539.0 L -57.0 9536.0 L -95.0 9511.0 L -108.0 9504.0 L -189.0 9465.0 L -202.0 9461.0 L -225.0 9453.0 L -253.0 9448.0 L -284.0 9444.0 L -324.0 9442.0 L -327.0 9441.0 L -354.4 9443.2" class="track" data-sector="7"/>
      <path d="M -354.4 9443.2 L -364.0 9444.0 L -397.0 9450.0 L -449.0 9466.0 L -485.0 9481.0 L -530.0 9511.0 L -533.0 9513.0 L -584.0 9555.0 L -592.0 9562.0 L -634.0 9608.0 L -649.0 9630.0 L -664.0 9653.0 L -678.0 9675.0 L -681.0 9680.0 L -706.0 9728.0 L -715.0 9747.0 L -742.0 9824.0 L -744.0 9829.0 L -762.0 9905.0 L -763.0 9909.0 L -773.0 9973.0 L -774.0 9993.0 L -775.0 10088.0 L -775.0 10099.0 L -773.0 10140.0 L -767.0 10196.0 L -764.0 10225.0 L -761.0 10245.0 L -752.0 10297.0 L -739.0 10358.0 L -711.0 10459.0 L -705.0 10483.0 L -690.0 10526.0 L -684.0 10544.0 L -677.0 10562.0 L -642.0 10654.0 L -593.0 10763.0 L -580.0 10794.0 L -536.0 10883.0 L -517.0 10921.0 L -480.0 10992.0 L -453.0 11043.0 L -427.0 11092.0 L -413.0 11115.0 L -372.0 11190.0 L -370.0 11194.0 L -313.0 11288.0 L -303.0 11303.0 L -214.0 11436.0 L -198.0 11460.0 L -143.0 11532.0 L -134.0 11546.0 L -97.0 11594.0 L -58.0 11640.0 L 63.0 11781.0 L 89.0 11810.0 L 153.0 11876.0 L 223.0 11940.0 L 227.0 11944.0 L 263.0 11977.8" class="track" data-sector="8"/>
      <path d="M 263.0 11977.8 L 293.0 12006.0 L 318.0 12029.0 L 417.0 12113.0 L 421.0 12117.0 L 524.0 12198.0 L 580.0 12238.0 L 687.0 12312.0 L 762.0 12362.0 L 835.0 12399.0 L 857.0 12409.0 L 1081.0 12513.0 L 1103.0 12523.0 L 1252.0 12580.0 L 1267.0 12585.0 L 1373.0 12619.0 L 1395.0 12626.0 L 1501.0 12656.0 L 1604.0 12683.0 L 1674.0 12700.0 L 1754.0 12717.0 L 1791.0 12725.0 L 2302.0 12800.0 L 2399.0 12811.0 L 2600.0 12832.0 L 2623.0 12834.0 L 2840.0 12857.0 L 2848.0 12858.0 L 3011.0 12874.0 L 3100.0 12883.0 L 3203.0 12893.0 L 3318.0 12906.0 L 3324.0 12907.0 L 3444.0 12920.0 L 3529.0 12929.0 L 3656.0 12944.0 L 3717.0 12950.0 L 3802.0 12959.0 L 3869.0 12968.0 L 3954.0 12978.0 L 4108.0 12996.0 L 4130.0 12999.0 L 4253.0 13015.0 L 4392.0 13033.0 L 4447.0 13040.0 L 4469.0 13044.0" class="track" data-sector="9"/>
      <path d="M 4469.0 13044.0 L 4621.0 13064.0 L 4659.0 13068.0 L 4805.0 13086.0 L 4811.0 13087.0 L 4989.0 13104.0 L 4996.0 13104.0 L 5116.0 13112.0 L 5123.0 13112.0 L 5218.0 13115.0 L 5257.0 13114.0 L 5337.0 13111.0 L 5387.0 13105.0 L 5448.0 13096.0 L 5583.0 13065.0 L 5589.0 13064.0 L 5696.0 13032.0 L 5740.0 13018.0 L 5822.0 12986.0 L 5877.0 12956.0 L 5891.0 12949.0 L 6030.0 12863.0 L 6036.0 12858.0 L 6133.0 12784.0 L 6208.0 12717.0 L 6231.0 12696.0 L 6276.0 12650.0 L 6327.0 12591.0 L 6330.0 12588.0 L 6404.0 12484.0 L 6412.0 12470.0 L 6453.0 12400.0 L 6483.0 12341.0 L 6531.0 12242.0 L 6542.0 12217.0 L 6574.0 12139.0 L 6576.0 12133.0 L 6613.0 12033.0 L 6630.0 11982.0 L 6670.0 11851.0 L 6672.0 11847.0 L 6688.0 11790.0 L 6705.0 11723.0 L 6750.0 11543.0 L 6751.0 11536.0 L 6767.0 11464.0 L 6772.0 11445.0 L 6814.0 11251.0 L 6818.0 11233.0 L 6833.0 11157.0 L 6857.0 11018.0 L 6860.0 11001.0 L 6876.0 10895.0 L 6882.0 10851.0 L 6903.0 10687.0 L 6917.0 10585.0 L 6924.0 10517.0 L 6927.0 10489.0 L 6935.0 10403.0 L 6943.0 10322.0 L 6946.0 10284.0 L 6955.0 10181.0 L 6955.0 10172.0 L 6969.0 9939.0 L 6970.0 9915.0 L 6976.0 9779.0 L 6978.0 9706.0 L 6979.0 9624.0 L 6981.0 9560.0 L 6981.0 9510.0 L 6987.0 9307.0 L 6988.0 9283.0 L 6995.0 9116.0 L 6999.0 9055.1" class="track" data-sector="10"/>
      <path d="M 6999.0 9055.1 L 7005.0 8964.0 L 7015.0 8840.0 L 7025.0 8773.0 L 7045.0 8646.0 L 7051.0 8615.0 L 7081.0 8469.0 L 7084.0 8460.0 L 7128.0 8285.0 L 7153.0 8188.0 L 7170.0 8141.0 L 7188.0 8084.0 L 7222.0 7983.0 L 7228.0 7967.0 L 7273.0 7843.0 L 7296.0 7780.0 L 7319.0 7723.0 L 7336.0 7680.0 L 7366.0 7605.0 L 7430.0 7439.0 L 7441.0 7408.0 L 7453.0 7371.0 L 7458.0 7356.0 L 7481.0 7278.0 L 7486.0 7264.0 L 7506.0 7182.0 L 7520.0 7107.0 L 7531.0 7016.0 L 7531.0 7009.0 L 7535.0 6906.0 L 7534.0 6889.0 L 7529.0 6804.0 L 7521.0 6732.0 L 7515.0 6683.0 L 7496.0 6573.0 L 7483.0 6502.0 L 7469.0 6434.0 L 7460.0 6395.0 L 7455.0 6372.0 L 7433.0 6281.0 L 7431.0 6275.0 L 7409.0 6183.0 L 7393.0 6115.0 L 7391.0 6103.0 L 7375.0 6031.0 L 7367.0 5991.0 L 7356.0 5932.0 L 7349.0 5887.0 L 7342.0 5841.0 L 7334.0 5769.0 L 7330.0 5722.0 L 7329.0 5702.0 L 7326.0 5604.0 L 7330.0 5535.0 L 7340.0 5445.0 L 7347.0 5393.0 L 7355.0 5367.0 L 7357.0 5358.0 L 7378.3 5283.5" class="track" data-sector="11"/>
      <path d="M 7378.3 5283.5 L 7379.0 5281.0 L 7387.0 5261.0 L 7429.0 5159.0 L 7430.0 5155.0 L 7467.0 5081.0 L 7468.0 5077.0 L 7508.0 5007.0 L 7518.0 4991.0 L 7559.0 4922.0 L 7573.0 4897.0 L 7600.0 4854.0 L 7606.0 4843.0 L 7645.0 4774.0 L 7651.0 4765.0 L 7679.0 4710.0 L 7697.0 4669.0 L 7731.0 4591.0 L 7736.0 4580.0 L 7759.0 4508.0 L 7769.0 4467.0 L 7781.0 4396.0 L 7782.0 4379.0 L 7788.0 4290.0 L 7788.0 4244.0 L 7777.0 4166.0 L 7769.0 4128.0 L 7756.0 4066.0 L 7742.0 4021.0 L 7736.0 4006.0 L 7733.0 3999.0 L 7697.0 3913.0 L 7676.0 3864.0 L 7663.0 3836.0 L 7639.0 3795.0 L 7618.0 3761.0 L 7580.0 3704.0 L 7557.0 3675.0 L 7496.0 3604.0 L 7455.0 3562.0 L 7425.0 3537.0 L 7385.0 3506.0 L 7370.0 3495.0 L 7317.0 3460.0 L 7289.0 3443.0 L 7168.0 3375.0 L 7133.0 3356.0 L 7085.0 3331.0 L 7060.0 3318.0 L 6985.0 3277.0 L 6896.0 3219.0 L 6877.0 3205.0 L 6832.0 3169.0 L 6762.0 3107.0 L 6751.0 3096.0 L 6696.0 3043.0 L 6667.0 3013.0 L 6607.0 2950.0 L 6603.0 2945.0 L 6541.0 2878.0 L 6508.0 2840.0 L 6447.0 2765.0 L 6433.0 2747.0 L 6345.0 2625.0 L 6329.0 2602.0 L 6299.0 2554.0 L 6284.0 2530.0 L 6233.0 2445.0 L 6201.0 2389.0 L 6190.0 2369.0 L 6126.0 2252.0 L 6114.0 2230.0 L 6043.0 2090.0 L 6028.0 2060.0 L 5966.0 1934.0 L 5950.0 1902.0 L 5871.0 1740.0 L 5856.0 1711.0 L 5810.0 1615.0 L 5799.6 1592.6" class="track" data-sector="12"/>
      <path d="M 5799.6 1592.6 L 5796.0 1585.0 L 5761.0 1513.0 L 5725.0 1437.0 L 5693.0 1372.0 L 5675.0 1333.0 L 5613.0 1203.0 L 5604.0 1184.0 L 5568.0 1107.0 L 5557.0 1085.0 L 5516.0 998.0 L 5506.0 978.0 L 5463.0 888.0 L 5426.0 811.0 L 5344.0 638.0 L 5340.0 630.0 L 5292.0 532.0 L 5252.0 449.0 L 5232.0 408.0 L 5181.0 302.0 L 5172.0 283.0 L 5109.0 153.0 L 5090.0 115.0 L 5014.0 -42.0 L 4929.0 -216.0 L 4862.0 -356.0 L 4860.0 -362.0 L 4826.0 -432.0 L 4784.0 -518.0 L 4782.0 -524.0 L 4719.0 -654.0 L 4704.0 -687.0 L 4628.0 -843.0 L 4578.0 -944.0 L 4522.0 -1062.0 L 4482.0 -1143.0 L 4448.0 -1214.0 L 4439.0 -1231.0 L 4374.0 -1366.0 L 4292.0 -1529.0 L 4264.0 -1588.0 L 4220.0 -1674.0 L 4184.0 -1746.0 L 4155.0 -1806.0 L 4111.0 -1893.0 L 4089.0 -1938.0 L 4077.7 -1960.4" class="track" data-sector="13"/>
      <path d="M 4077.7 -1960.4 L 4011.0 -2093.0 L 4005.0 -2104.0 L 3911.0 -2287.0 L 3880.0 -2344.0 L 3870.0 -2365.0 L 3813.0 -2473.0 L 3755.0 -2586.0 L 3700.0 -2689.0 L 3695.0 -2697.0 L 3602.0 -2867.0 L 3578.0 -2913.0 L 3550.0 -2963.0 L 3528.0 -3003.0 L 3508.0 -3037.0 L 3452.0 -3136.0 L 3400.0 -3223.0 L 3369.0 -3276.0 L 3323.0 -3349.0 L 3304.0 -3380.0 L 3283.0 -3411.0 L 3249.0 -3460.0 L 3180.0 -3554.0 L 3143.0 -3603.0 L 3127.0 -3622.0 L 3109.0 -3643.0 L 3108.0 -3645.0 L 3036.0 -3728.0 L 3023.0 -3741.0 L 2991.0 -3774.0 L 2971.0 -3794.0 L 2914.0 -3844.0 L 2867.0 -3885.0 L 2857.0 -3892.0 L 2794.0 -3936.0 L 2791.0 -3937.0 L 2730.0 -3975.0 L 2719.0 -3981.0 L 2616.0 -4032.0 L 2572.0 -4050.0 L 2535.0 -4064.0 L 2530.0 -4066.0 L 2504.0 -4073.0 L 2490.0 -4078.0 L 2454.0 -4088.0 L 2414.0 -4097.0 L 2367.0 -4104.0 L 2305.0 -4112.0 L 2263.0 -4114.0 L 2254.0 -4114.0 L 2191.0 -4112.0 L 2176.0 -4112.0 L 2127.0 -4108.0 L 2061.0 -4095.0 L 1973.0 -4073.0 L 1950.0 -4067.0 L 1913.0 -4053.0 L 1912.0 -4053.0 L 1841.0 -4023.0 L 1831.0 -4018.0 L 1755.0 -3977.0 L 1729.0 -3961.0 L 1727.0 -3960.0 L 1675.0 -3925.0 L 1652.0 -3908.0 L 1602.0 -3868.0 L 1595.0 -3862.0 L 1546.0 -3817.0 L 1543.0 -3814.0 L 1512.0 -3784.0 L 1503.0 -3775.0 L 1427.0 -3690.0 L 1419.0 -3681.0 L 1386.0 -3638.0 L 1365.0 -3608.0 L 1358.0 -3599.0 L 1309.0 -3526.0 L 1306.0 -3522.0 L 1273.0 -3467.0 L 1254.0 -3435.0 L 1185.0 -3308.0 L 1143.0 -3230.0 L 1102.0 -3152.0 L 1101.0 -3150.0 L 1079.0 -3110.0 L 1070.0 -3093.0 L 1044.0 -3046.0 L 1008.0 -2985.0 L 980.0 -2941.0 L 879.0 -2786.0 L 870.0 -2772.0 L 799.0 -2673.0 L 796.0 -2669.0 L 685.0 -2518.0 L 673.0 -2502.0 L 634.0 -2449.0 L 624.0 -2435.0 L 601.0 -2404.0 L 505.0 -2275.0 L 502.0 -2270.0 L 397.0 -2131.0 L 383.0 -2113.0 L 352.0 -2071.0 L 305.4 -2010.2" class="track" data-sector="14"/>
      <path d="M 305.4 -2010.2 L 293.0 -1994.0 L 266.0 -1959.0 L 175.0 -1847.0 L 118.0 -1778.0 L 106.0 -1764.0 L 55.0 -1705.0 L 37.0 -1684.0 L -4.0 -1635.0 L -26.0 -1609.0 L -68.0 -1563.0 L -113.0 -1512.0 L -198.0 -1416.0 L -212.0 -1402.0 L -254.0 -1354.0 L -284.0 -1319.0 L -351.0 -1244.0 L -359.0 -1233.0 L -406.0 -1183.0 L -407.0 -1181.0 L -461.0 -1126.0 L -463.0 -1124.0 L -484.0 -1103.0 L -509.0 -1078.0 L -545.0 -1048.0 L -562.0 -1034.0 L -615.0 -998.0 L -620.0 -994.0 L -653.0 -976.0 L -667.0 -968.0 L -739.0 -937.0 L -769.0 -926.0 L -806.0 -920.0 L -826.0 -917.0 L -863.0 -915.0 L -865.0 -915.0 L -911.0 -913.0 L -919.0 -913.0 L -971.0 -916.0 L -1005.0 -921.0 L -1020.0 -925.0 L -1064.0 -940.0 L -1066.0 -941.0 L -1098.0 -956.0 L -1108.0 -962.0 L -1135.0 -979.0 L -1152.0 -991.0 L -1178.0 -1009.0 L -1200.0 -1025.0 L -1232.0 -1049.0 L -1242.0 -1057.0 L -1282.0 -1085.0 L -1301.0 -1098.0 L -1333.0 -1116.0 L -1340.0 -1119.0 L -1370.0 -1130.0 L -1382.0 -1134.0 L -1431.0 -1145.0 L -1439.0 -1147.0 L -1480.0 -1152.0 L -1483.0 -1152.0 L -1535.0 -1148.0 L -1558.0 -1146.0 L -1584.0 -1141.0 L -1618.0 -1134.0 L -1678.0 -1116.0 L -1691.0 -1113.0 L -1758.0 -1087.0 L -1796.0 -1067.0 L -1798.0 -1067.0 L -1830.0 -1050.0 L -1871.0 -1018.0 L -1902.0 -990.0 L -1939.0 -956.0 L -1985.0 -901.0 L -2003.0 -878.0 L -2038.0 -833.0 L -2040.0 -830.0 L -2051.6 -815.4" class="track" data-sector="15"/>
      <path d="M -2051.6 -815.4 L -2085.0 -773.0 L -2101.0 -753.0 L -2263.0 -403.0 L -2275.0 -355.0 L -2278.0 -343.0 L -2299.0 -230.0 L -2301.0 -218.0 L -2309.0 -134.0 L -2309.0 -118.0 L -2313.0 29.0 L -2312.0 34.0 L -2308.0 107.0 L -2287.0 245.0 L -2283.0 273.0 L -2248.0 407.0 L -2243.0 420.0 L -2218.0 490.0 L -2207.0 514.0 L -2156.0 619.0 L -2137.0 656.0 L -2103.0 715.0 L -2079.0 756.0 L -2004.0 868.0 L -1968.0 918.0 L -1953.0 940.0 L -1886.0 1033.0 L -1856.0 1072.0 L -1759.0 1205.0 L -1707.0 1275.0 L -1756.0 1208.0" class="track" data-sector="16"/>
    </g>

    <g id="marshal-lights">
      <g class="marshal-light-marker" data-light="1">
        <rect x="-1808.3" y="1158.0" width="108.3" height="108.3" class="marshal-light-bg"/>
        <text x="-1754.1" y="1212.1" class="marshal-light-label">1</text>
      </g>
      <g class="marshal-light-marker" data-light="2">
        <rect x="-409.1" y="3074.4" width="108.3" height="108.3" class="marshal-light-bg"/>
        <text x="-355.0" y="3128.5" class="marshal-light-label">2</text>
      </g>
      <g class="marshal-light-marker" data-light="3">
        <rect x="4195.4" y="5436.2" width="108.3" height="108.3" class="marshal-light-bg"/>
        <text x="4249.5" y="5490.3" class="marshal-light-label">3</text>
      </g>
      <g class="marshal-light-marker" data-light="4">
        <rect x="5464.6" y="4841.5" width="108.3" height="108.3" class="marshal-light-bg"/>
        <text x="5518.7" y="4895.6" class="marshal-light-label">4</text>
      </g>
      <g class="marshal-light-marker" data-light="5">
        <rect x="6271.3" y="6001.5" width="108.3" height="108.3" class="marshal-light-bg"/>
        <text x="6325.4" y="6055.7" class="marshal-light-label">5</text>
      </g>
      <g class="marshal-light-marker" data-light="6">
        <rect x="4136.5" y="8380.6" width="108.3" height="108.3" class="marshal-light-bg"/>
        <text x="4190.7" y="8434.7" class="marshal-light-label">6</text>
      </g>
      <g class="marshal-light-marker" data-light="7">
        <rect x="2082.7" y="10178.4" width="108.3" height="108.3" class="marshal-light-bg"/>
        <text x="2136.8" y="10232.5" class="marshal-light-label">7</text>
      </g>
      <g class="marshal-light-marker" data-light="8">
        <rect x="-417.6" y="9389.8" width="108.3" height="108.3" class="marshal-light-bg"/>
        <text x="-363.5" y="9444.0" class="marshal-light-label">8</text>
      </g>
      <g class="marshal-light-marker" data-light="9">
        <rect x="395.0" y="12085.0" width="108.3" height="108.3" class="marshal-light-bg"/>
        <text x="449.2" y="12139.2" class="marshal-light-label">9</text>
      </g>
      <g class="marshal-light-marker" data-light="10">
        <rect x="4505.3" y="13001.8" width="108.3" height="108.3" class="marshal-light-bg"/>
        <text x="4559.5" y="13055.9" class="marshal-light-label">10</text>
      </g>
      <g class="marshal-light-marker" data-light="11">
        <rect x="6947.3" y="8964.5" width="108.3" height="108.3" class="marshal-light-bg"/>
        <text x="7001.4" y="9018.7" class="marshal-light-label">11</text>
      </g>
      <g class="marshal-light-marker" data-light="12">
        <rect x="7314.1" y="5264.5" width="108.3" height="108.3" class="marshal-light-bg"/>
        <text x="7368.3" y="5318.6" class="marshal-light-label">12</text>
      </g>
      <g class="marshal-light-marker" data-light="13">
        <rect x="7122.2" y="3325.5" width="108.3" height="108.3" class="marshal-light-bg"/>
        <text x="7176.3" y="3379.7" class="marshal-light-label">13</text>
      </g>
      <g class="marshal-light-marker" data-light="14">
        <rect x="5723.6" y="1493.3" width="108.3" height="108.3" class="marshal-light-bg"/>
        <text x="5777.7" y="1547.4" class="marshal-light-label">14</text>
      </g>
      <g class="marshal-light-marker" data-light="15">
        <rect x="4047.9" y="-1965.4" width="108.3" height="108.3" class="marshal-light-bg"/>
        <text x="4102.0" y="-1911.3" class="marshal-light-label">15</text>
      </g>
      <g class="marshal-light-marker" data-light="16">
        <rect x="312.0" y="-2144.4" width="108.3" height="108.3" class="marshal-light-bg"/>
        <text x="366.2" y="-2090.2" class="marshal-light-label">16</text>
      </g>
      <g class="marshal-light-marker" data-light="17">
        <rect x="-2119.8" y="-851.6" width="108.3" height="108.3" class="marshal-light-bg"/>
        <text x="-2065.7" y="-797.5" class="marshal-light-label">17</text>
      </g>
    </g>

    <g id="marshal-sectors">
      <g class="marshal-sector-marker" data-sector="1" data-length="0.0">
        <polygon points="-1756.0,1078.1 -1868.5,1273.0 -1643.5,1273.0" class="marshal-sector-bg"/>
        <text x="-1756.0" y="1208.0" class="marshal-sector-label">1</text>
      </g>
      <g class="marshal-sector-marker" data-sector="2" data-length="2405.6">
        <polygon points="-339.8,3021.4 -452.3,3216.3 -227.3,3216.3" class="marshal-sector-bg"/>
        <text x="-339.8" y="3151.3" class="marshal-sector-label">2</text>
      </g>
      <g class="marshal-sector-marker" data-sector="3" data-length="7906.1">
        <polygon points="4222.6,5335.7 4110.1,5530.6 4335.1,5530.6" class="marshal-sector-bg"/>
        <text x="4222.6" y="5465.6" class="marshal-sector-label">3</text>
      </g>
      <g class="marshal-sector-marker" data-sector="4" data-length="10074.4">
        <polygon points="5544.4,4733.7 5431.9,4928.5 5656.9,4928.5" class="marshal-sector-bg"/>
        <text x="5544.4" y="4863.6" class="marshal-sector-label">4</text>
      </g>
      <g class="marshal-sector-marker" data-sector="5" data-length="11868.3">
        <polygon points="6326.0,5921.2 6213.5,6116.1 6438.6,6116.1" class="marshal-sector-bg"/>
        <text x="6326.0" y="6051.1" class="marshal-sector-label">5</text>
      </g>
      <g class="marshal-sector-marker" data-sector="6" data-length="15241.7">
        <polygon points="4128.2,8358.2 4015.7,8553.1 4240.8,8553.1" class="marshal-sector-bg"/>
        <text x="4128.2" y="8488.2" class="marshal-sector-label">6</text>
      </g>
      <g class="marshal-sector-marker" data-sector="7" data-length="18053.6">
        <polygon points="2014.1,10211.9 1901.6,10406.7 2126.6,10406.7" class="marshal-sector-bg"/>
        <text x="2014.1" y="10341.8" class="marshal-sector-label">7</text>
      </g>
      <g class="marshal-sector-marker" data-sector="8" data-length="21582.1">
        <polygon points="-354.4,9313.3 -466.9,9508.2 -241.9,9508.2" class="marshal-sector-bg"/>
        <text x="-354.4" y="9443.2" class="marshal-sector-label">8</text>
      </g>
      <g class="marshal-sector-marker" data-sector="9" data-length="24626.8">
        <polygon points="263.0,11847.9 150.5,12042.8 375.5,12042.8" class="marshal-sector-bg"/>
        <text x="263.0" y="11977.8" class="marshal-sector-label">9</text>
      </g>
      <g class="marshal-sector-marker" data-sector="10" data-length="29050.1">
        <polygon points="4468.9,12914.1 4356.4,13109.0 4581.5,13109.0" class="marshal-sector-bg"/>
        <text x="4468.9" y="13044.0" class="marshal-sector-label">10</text>
      </g>
      <g class="marshal-sector-marker" data-sector="11" data-length="34714.9">
        <polygon points="6999.0,8925.2 6886.5,9120.1 7111.5,9120.1" class="marshal-sector-bg"/>
        <text x="6999.0" y="9055.1" class="marshal-sector-label">11</text>
      </g>
      <g class="marshal-sector-marker" data-sector="12" data-length="38590.4">
        <polygon points="7378.3,5153.6 7265.8,5348.5 7490.8,5348.5" class="marshal-sector-bg"/>
        <text x="7378.3" y="5283.5" class="marshal-sector-label">12</text>
      </g>
      <g class="marshal-sector-marker" data-sector="13" data-length="43136.9">
        <polygon points="5799.6,1462.7 5687.0,1657.6 5912.1,1657.6" class="marshal-sector-bg"/>
        <text x="5799.6" y="1592.6" class="marshal-sector-label">13</text>
      </g>
      <g class="marshal-sector-marker" data-sector="14" data-length="47085.4">
        <polygon points="4077.7,-2090.3 3965.2,-1895.4 4190.2,-1895.4" class="marshal-sector-bg"/>
        <text x="4077.7" y="-1960.4" class="marshal-sector-label">14</text>
      </g>
      <g class="marshal-sector-marker" data-sector="15" data-length="53024.1">
        <polygon points="305.4,-2140.2 192.9,-1945.3 418.0,-1945.3" class="marshal-sector-bg"/>
        <text x="305.4" y="-2010.2" class="marshal-sector-label">15</text>
      </g>
      <g class="marshal-sector-marker" data-sector="16" data-length="56032.3">
        <polygon points="-2051.6,-945.3 -2164.1,-750.4 -1939.0,-750.4" class="marshal-sector-bg"/>
        <text x="-2051.6" y="-815.4" class="marshal-sector-label">16</text>
      </g>
    </g>

    <g id="corners">
      <g class="corner-marker" data-corner="1" data-length="4523.7">
        <circle cx="1192.5" cy="4503.8" r="173.2" class="corner-bg"/>
        <text x="1192.5" y="4503.8" class="corner-label">1</text>
      </g>
      <g class="corner-marker" data-corner="2" data-length="6107.6">
        <circle cx="2770.3" cy="4462.9" r="173.2" class="corner-bg"/>
        <text x="2770.3" y="4462.9" class="corner-label">2</text>
      </g>
      <g class="corner-marker" data-corner="3" data-length="8673.0">
        <circle cx="4845.3" cy="5895.1" r="173.2" class="corner-bg"/>
        <text x="4845.3" y="5895.1" class="corner-label">3</text>
      </g>
      <g class="corner-marker" data-corner="4" data-length="10375.7">
        <circle cx="5802.7" cy="4733.5" r="173.2" class="corner-bg"/>
        <text x="5802.7" y="4733.5" class="corner-label">4</text>
      </g>
      <g class="corner-marker" data-corner="5" data-length="12288.3">
        <circle cx="6232.3" cy="6459.0" r="173.2" class="corner-bg"/>
        <text x="6232.3" y="6459.0" class="corner-label">5</text>
      </g>
      <g class="corner-marker" data-corner="6" data-length="19628.4">
        <circle cx="631.4" cy="10910.2" r="173.2" class="corner-bg"/>
        <text x="631.4" y="10910.2" class="corner-label">6</text>
      </g>
      <g class="corner-marker" data-corner="7" data-length="21819.5">
        <circle cx="-566.3" cy="9540.4" r="173.2" class="corner-bg"/>
        <text x="-566.3" y="9540.4" class="corner-label">7</text>
      </g>
      <g class="corner-marker" data-corner="8" data-length="25256.8">
        <circle cx="761.3" cy="12361.6" r="173.2" class="corner-bg"/>
        <text x="761.3" y="12361.6" class="corner-label">8</text>
      </g>
      <g class="corner-marker" data-corner="9" data-length="30506.2">
        <circle cx="5893.9" cy="12947.2" r="173.2" class="corner-bg"/>
        <text x="5893.9" y="12947.2" class="corner-label">9</text>
      </g>
      <g class="corner-marker" data-corner="10" data-length="36029.6">
        <circle cx="7295.8" cy="7780.5" r="173.2" class="corner-bg"/>
        <text x="7295.8" y="7780.5" class="corner-label">10</text>
      </g>
      <g class="corner-marker" data-corner="11" data-length="36942.5">
        <circle cx="7535.0" cy="6906.2" r="173.2" class="corner-bg"/>
        <text x="7535.0" y="6906.2" class="corner-label">11</text>
      </g>
      <g class="corner-marker" data-corner="12" data-length="38394.1">
        <circle cx="7336.7" cy="5474.7" r="173.2" class="corner-bg"/>
        <text x="7336.7" y="5474.7" class="corner-label">12</text>
      </g>
      <g class="corner-marker" data-corner="13" data-length="39804.6">
        <circle cx="7776.5" cy="4163.5" r="173.2" class="corner-bg"/>
        <text x="7776.5" y="4163.5" class="corner-label">13</text>
      </g>
      <g class="corner-marker" data-corner="14" data-length="41269.9">
        <circle cx="6806.8" cy="3146.7" r="173.2" class="corner-bg"/>
        <text x="6806.8" y="3146.7" class="corner-label">14</text>
      </g>
      <g class="corner-marker" data-corner="15" data-length="49892.7">
        <circle cx="2399.0" cy="-4099.2" r="173.2" class="corner-bg"/>
        <text x="2399.0" y="-4099.2" class="corner-label">15</text>
      </g>
      <g class="corner-marker" data-corner="16" data-length="54402.7">
        <circle cx="-620.4" cy="-993.8" r="173.2" class="corner-bg"/>
        <text x="-620.4" y="-993.8" class="corner-label">16</text>
      </g>
      <g class="corner-marker" data-corner="17" data-length="55297.4">
        <circle cx="-1438.1" cy="-1146.8" r="173.2" class="corner-bg"/>
        <text x="-1438.1" y="-1146.8" class="corner-label">17</text>
      </g>
      <g class="corner-marker" data-corner="18" data-length="56799.2">
        <circle cx="-2309.3" cy="-105.7" r="173.2" class="corner-bg"/>
        <text x="-2309.3" y="-105.7" class="corner-label">18</text>
      </g>
    </g>

    <g id="start-finish" data-track-x="-1756.0" data-track-y="1208.0" data-lap-distance="58428.8">
      <polygon points="-2411.7,895.8 -2012.0,1407.9 -2319.3,1647.7 -2719.0,1135.6" class="checker-border"/>
      <polygon points="-2411.7,895.8 -2331.8,998.2 -2434.2,1078.1 -2514.2,975.7" class="checker-black"/>
      <polygon points="-2514.2,975.7 -2434.2,1078.1 -2536.6,1158.1 -2616.6,1055.6" class="checker-white"/>
      <polygon points="-2616.6,1055.6 -2536.6,1158.1 -2639.1,1238.0 -2719.0,1135.6" class="checker-black"/>
      <polygon points="-2331.8,998.2 -2251.9,1100.6 -2354.3,1180.5 -2434.2,1078.1" class="checker-white"/>
      <polygon points="-2434.2,1078.1 -2354.3,1180.5 -2456.7,1260.5 -2536.6,1158.1" class="checker-black"/>
      <polygon points="-2536.6,1158.1 -2456.7,1260.5 -2559.1,1340.4 -2639.1,1238.0" class="checker-white"/>
      <polygon points="-2251.9,1100.6 -2171.9,1203.0 -2274.3,1283.0 -2354.3,1180.5" class="checker-black"/>
      <polygon points="-2354.3,1180.5 -2274.3,1283.0 -2376.8,1362.9 -2456.7,1260.5" class="checker-white"/>
      <polygon points="-2456.7,1260.5 -2376.8,1362.9 -2479.2,1442.8 -2559.1,1340.4" class="checker-black"/>
      <polygon points="-2171.9,1203.0 -2092.0,1305.4 -2194.4,1385.4 -2274.3,1283.0" class="checker-white"/>
      <polygon points="-2274.3,1283.0 -2194.4,1385.4 -2296.8,1465.3 -2376.8,1362.9" class="checker-black"/>
      <polygon points="-2376.8,1362.9 -2296.8,1465.3 -2399.2,1545.3 -2479.2,1442.8" class="checker-white"/>
      <polygon points="-2092.0,1305.4 -2012.0,1407.9 -2114.5,1487.8 -2194.4,1385.4" class="checker-black"/>
      <polygon points="-2194.4,1385.4 -2114.5,1487.8 -2216.9,1567.7 -2296.8,1465.3" class="checker-white"/>
      <polygon points="-2296.8,1465.3 -2216.9,1567.7 -2319.3,1647.7 -2399.2,1545.3" class="checker-black"/>
      <polyline points="-1936.7,2173.1 -1632.7,2210.5 -1595.3,1906.6" class="chevron"/>
      <polyline points="-1830.1,2309.6 -1526.1,2347.1 -1488.7,2043.2" class="chevron"/>
      <polyline points="-1723.5,2446.2 -1419.6,2483.7 -1382.1,2179.7" class="chevron"/>
    </g>

    <g id="car-markers"></g>

  </g>
</svg>
