<?xml version="1.0" encoding="utf-8"?>
<?xml-stylesheet type="text/css" href="../../css/tracks.css"?>
<svg xmlns="http://www.w3.org/2000/svg" viewBox="-479.7 325.2 960.0 659.8">
  <title>Spa-Francorchamps</title>

  <g id="track-root" transform="translate(0, 659.77) scale(1, -1) scale(0.039598) translate(-1987.50, 5611.50) rotate(91, 1987.50, -5611.50)" data-scale="0.039598" data-rotation="91.0">

    <g id="track-outline">
      <path d="M -1152.9 2391.4 L -1219.0 2491.0 L -1237.0 2518.0 L -1309.0 2626.0 L -1335.0 2666.0 L -1399.0 2763.0 L -1418.0 2791.0 L -1491.0 2901.0 L -1518.0 2941.0 L -1583.0 3040.0 L -1618.0 3094.0 L -1676.0 3181.0 L -1737.0 3274.0 L -1769.0 3321.0 L -1834.0 3419.0 L -1855.0 3451.0 L -1919.0 3548.0 L -1931.0 3566.0 L -1980.0 3640.0 L -1999.0 3669.0 L -2073.0 3783.0 L -2085.0 3802.0 L -2136.0 3883.0 L -2139.0 3888.0 L -2183.0 3963.0 L -2184.0 3964.0 L -2221.0 4032.0 L -2225.0 4039.0 L -2252.0 4093.0 L -2257.0 4105.0 L -2276.0 4151.0 L -2281.0 4167.0 L -2294.0 4205.0 L -2296.0 4216.0 L -2305.0 4258.0 L -2307.0 4273.0 L -2311.0 4309.0 L -2311.0 4327.0 L -2311.0 4357.0 L -2308.0 4380.0 L -2303.0 4405.0 L -2298.0 4421.0 L -2289.0 4445.0 L -2279.0 4463.0 L -2267.0 4482.0 L -2250.0 4500.0 L -2236.0 4513.0 L -2212.0 4528.0 L -2200.0 4535.0 L -2169.0 4546.0 L -2160.0 4549.0 L -2119.0 4555.0 L -2117.0 4555.0 L -2079.0 4554.0 L -2069.0 4552.0 L -2029.0 4545.0 L -2023.0 4543.0 L -1980.0 4532.0 L -1969.0 4529.0 L -1931.0 4517.0 L -1916.0 4511.0 L -1880.0 4498.0 L -1859.0 4489.0 L -1827.0 4476.0 L -1799.0 4464.0 L -1768.0 4451.0 L -1755.3 4445.2" class="track-outline" data-sector="1"/>
      <path d="M -1755.3 4445.2 L -1735.0 4436.0 L -1709.0 4424.0 L -1678.0 4409.0 L -1644.0 4393.0 L -1605.0 4374.0 L -1575.0 4359.0 L -1526.0 4334.0 L -1501.0 4321.0 L -1441.0 4290.0 L -1421.0 4280.0 L -1352.0 4244.0 L -1338.0 4237.0 L -1262.0 4198.0 L -1236.0 4185.0 L -1137.0 4133.0 L -1120.0 4125.0 L -1023.0 4076.0 L -1017.0 4073.0 L -909.0 4017.0 L -906.0 4015.0 L -798.0 3959.0 L -784.0 3951.0 L -683.0 3898.0 L -658.0 3884.0 L -565.0 3833.0 L -529.0 3812.0 L -445.0 3762.0 L -397.0 3733.0 L -324.0 3688.0 L -265.0 3650.0 L -202.0 3609.0 L -131.0 3560.0 L -79.0 3524.0 L 1.0 3464.0 L 43.0 3434.0 L 135.0 3363.0 L 166.0 3340.0 L 249.0 3274.0 L 290.0 3242.0 L 379.0 3169.0 L 409.0 3145.0 L 512.0 3055.0 L 531.0 3039.0 L 643.0 2933.0 L 651.0 2926.0 L 764.0 2813.0 L 777.0 2799.0 L 883.0 2693.0 L 886.0 2689.0 L 961.8 2611.2" class="track-outline" data-sector="2"/>
      <path d="M 961.8 2611.2 L 1002.0 2570.0 L 1016.0 2555.0 L 1120.0 2447.0 L 1143.0 2422.0 L 1233.0 2329.0 L 1267.0 2292.0 L 1354.0 2201.0 L 1400.0 2151.0 L 1475.0 2073.0 L 1533.0 2010.0 L 1597.0 1942.0 L 1644.0 1891.0 L 1720.0 1811.0 L 1778.0 1747.0 L 1843.0 1678.0 L 1912.0 1602.0 L 1966.0 1544.0 L 2046.0 1454.0 L 2089.0 1408.0 L 2204.0 1279.0 L 2212.0 1271.0 L 2334.0 1132.0 L 2337.0 1128.0 L 2457.0 993.0 L 2471.0 977.0 L 2583.0 856.0 L 2586.0 852.0 L 2713.0 724.0 L 2728.0 709.0 L 2850.0 604.0 L 2879.0 581.0 L 2997.0 506.0 L 3048.0 479.0 L 3179.0 422.0 L 3249.0 388.0 L 3354.0 334.0 L 3427.0 286.0 L 3499.0 230.0 L 3502.6 226.6" class="track-outline" data-sector="3"/>
      <path d="M 3502.6 226.6 L 3574.0 160.0 L 3626.0 104.0 L 3698.0 7.0 L 3731.0 -46.0 L 3796.0 -177.0 L 3816.0 -221.0 L 3874.0 -368.0 L 3884.0 -396.0 L 3931.0 -560.0 L 3934.0 -572.0 L 3960.0 -719.0 L 3965.0 -746.0 L 3990.0 -922.0 L 3992.0 -933.0 L 4032.0 -1115.0 L 4033.0 -1119.0 L 4097.0 -1285.0 L 4116.0 -1325.0 L 4205.0 -1485.0 L 4235.0 -1536.0 L 4305.0 -1646.0 L 4343.0 -1706.0 L 4406.0 -1802.0 L 4436.0 -1848.0 L 4508.0 -1955.0 L 4549.0 -2013.0 L 4617.0 -2105.0 L 4671.0 -2176.0 L 4730.0 -2253.0 L 4794.0 -2336.0 L 4843.0 -2401.0 L 4879.3 -2450.4" class="track-outline" data-sector="4"/>
      <path d="M 4879.3 -2450.4 L 4915.0 -2499.0 L 4954.0 -2551.0 L 5017.0 -2636.0 L 5065.0 -2702.0 L 5137.0 -2802.0 L 5175.0 -2854.0 L 5278.0 -2996.0 L 5285.0 -3006.0 L 5392.0 -3161.0 L 5394.0 -3165.0 L 5497.0 -3319.0 L 5509.0 -3337.0 L 5598.0 -3478.0 L 5617.0 -3509.0 L 5687.0 -3629.0 L 5714.0 -3677.0 L 5778.0 -3796.0 L 5811.0 -3861.0 L 5863.0 -3967.0 L 5887.0 -4019.0 L 5942.0 -4142.0 L 5971.0 -4211.0 L 6015.0 -4320.0 L 6047.0 -4406.0 L 6080.0 -4501.0 L 6115.0 -4605.0 L 6141.0 -4684.0 L 6170.0 -4773.0 L 6202.0 -4869.0 L 6236.0 -4974.0 L 6262.0 -5053.0 L 6302.0 -5175.0 L 6323.0 -5237.0 L 6369.0 -5376.0 L 6385.0 -5422.0 L 6447.0 -5608.0 L 6448.0 -5612.0 L 6506.0 -5785.0 L 6513.0 -5806.0 L 6567.0 -5971.0 L 6579.0 -6009.0 L 6629.0 -6157.0 L 6636.0 -6180.0 L 6689.0 -6336.0 L 6719.0 -6426.0 L 6751.0 -6523.0 L 6786.0 -6630.0 L 6813.0 -6710.0 L 6854.0 -6834.0 L 6874.1 -6891.4" class="track-outline" data-sector="5"/>
      <path d="M 6874.1 -6891.4 L 6876.0 -6897.0 L 6923.0 -7038.0 L 6939.0 -7085.0 L 6992.0 -7242.0 L 7003.0 -7272.0 L 7050.0 -7413.0 L 7066.0 -7460.0 L 7119.0 -7618.0 L 7129.0 -7648.0 L 7188.0 -7824.0 L 7193.0 -7837.0 L 7256.0 -8026.0 L 7257.0 -8030.0 L 7320.0 -8214.0 L 7327.0 -8235.0 L 7383.0 -8402.0 L 7395.0 -8440.0 L 7446.0 -8589.0 L 7453.0 -8611.0 L 7509.0 -8776.0 L 7522.0 -8815.0 L 7572.0 -8963.0 L 7590.0 -9018.0 L 7635.0 -9149.0 L 7659.0 -9221.0 L 7697.0 -9335.0 L 7727.0 -9425.0 L 7760.0 -9521.0 L 7795.0 -9624.0 L 7821.0 -9701.0 L 7861.0 -9822.0 L 7882.0 -9886.0 L 7916.0 -9992.0 L 7942.0 -10072.0 L 7993.0 -10227.0 L 8003.0 -10256.0 L 8061.0 -10428.0 L 8065.0 -10440.0 L 8124.0 -10611.0 L 8125.0 -10615.0 L 8177.0 -10766.0 L 8182.0 -10783.0 L 8223.0 -10908.0 L 8224.0 -10912.0 L 8261.0 -11037.0 L 8264.0 -11051.0 L 8289.0 -11150.0 L 8293.0 -11172.0 L 8308.0 -11259.0 L 8311.0 -11291.0 L 8316.0 -11365.0 L 8315.0 -11402.0 L 8312.0 -11451.0 L 8306.0 -11486.0 L 8295.0 -11539.0 L 8276.0 -11594.0 L 8263.0 -11624.0 L 8218.0 -11699.0 L 8203.0 -11722.0 L 8151.0 -11785.0 L 8142.0 -11797.0 L 8076.0 -11865.0 L 8072.0 -11870.0 L 8004.0 -11939.0 L 7989.0 -11953.0 L 7978.1 -11964.7" class="track-outline" data-sector="6"/>
      <path d="M 7978.1 -11964.7 L 7937.0 -12009.0 L 7918.0 -12030.0 L 7879.0 -12083.0 L 7859.0 -12112.0 L 7834.0 -12160.0 L 7823.0 -12183.0 L 7804.0 -12244.0 L 7796.0 -12279.0 L 7789.0 -12338.0 L 7784.0 -12384.0 L 7784.0 -12434.0 L 7788.0 -12489.0 L 7795.0 -12531.0 L 7808.0 -12595.0 L 7816.0 -12628.0 L 7836.0 -12702.0 L 7845.0 -12728.0 L 7868.0 -12794.0 L 7882.0 -12829.0 L 7912.0 -12907.0 L 7923.0 -12933.0 L 7957.0 -13023.0 L 7964.0 -13040.0 L 7999.0 -13142.0 L 8002.0 -13150.0 L 8032.0 -13265.0 L 8032.0 -13268.0 L 8048.0 -13381.0 L 8048.0 -13394.0 L 8047.0 -13494.0 L 8044.0 -13514.0 L 8028.0 -13590.0 L 8019.0 -13622.0 L 7994.0 -13703.0 L 7975.0 -13745.0 L 7943.0 -13810.0 L 7913.0 -13860.0 L 7879.0 -13912.0 L 7839.0 -13964.0 L 7807.0 -14002.0 L 7765.0 -14044.0 L 7717.0 -14088.0 L 7659.0 -14134.0 L 7620.4 -14163.0" class="track-outline" data-sector="7"/>
      <path d="M 7620.4 -14163.0 L 7615.0 -14167.0 L 7538.0 -14219.0 L 7510.0 -14238.0 L 7414.0 -14301.0 L 7396.0 -14313.0 L 7288.0 -14384.0 L 7281.0 -14390.0 L 7165.0 -14469.0 L 7162.0 -14470.0 L 7053.0 -14546.0 L 7046.0 -14552.0 L 6926.0 -14638.0 L 6922.0 -14640.0 L 6805.0 -14726.0 L 6790.0 -14736.0 L 6684.0 -14817.0 L 6655.0 -14838.0 L 6544.0 -14923.0 L 6505.0 -14952.0 L 6421.0 -15018.0 L 6373.0 -15054.0 L 6296.0 -15114.0 L 6258.0 -15142.0 L 6171.0 -15212.0 L 6121.0 -15250.0 L 6045.0 -15311.0 L 5983.0 -15359.0 L 5919.0 -15409.0 L 5829.0 -15474.0 L 5801.0 -15494.0 L 5707.0 -15554.0 L 5691.0 -15565.0 L 5592.0 -15622.0 L 5586.0 -15626.0 L 5489.0 -15679.0 L 5486.0 -15680.0 L 5401.0 -15721.0 L 5396.0 -15724.0 L 5309.0 -15757.0 L 5306.0 -15757.0 L 5228.0 -15773.0 L 5218.0 -15774.0 L 5148.0 -15778.0 L 5130.0 -15775.0 L 5065.0 -15760.0 L 5055.0 -15757.0 L 4993.0 -15735.0 L 4978.0 -15728.0 L 4927.0 -15699.0 L 4908.0 -15685.0 L 4868.0 -15651.0 L 4846.0 -15630.0 L 4817.0 -15597.0 L 4796.0 -15570.0 L 4778.0 -15541.0 L 4759.0 -15505.0 L 4748.0 -15479.0 L 4736.0 -15448.0 L 4727.0 -15415.0 L 4719.0 -15375.0 L 4718.8 -15373.2" class="track-outline" data-sector="8"/>
      <path d="M 4718.8 -15373.2 L 4716.0 -15345.0 L 4714.0 -15298.0 L 4716.0 -15275.0 L 4723.0 -15221.0 L 4727.0 -15203.0 L 4744.0 -15142.0 L 4748.0 -15131.0 L 4776.0 -15063.0 L 4779.0 -15059.0 L 4814.0 -14998.0 L 4822.0 -14988.0 L 4871.0 -14924.0 L 4875.0 -14920.0 L 4940.0 -14854.0 L 4941.0 -14852.0 L 5016.0 -14789.0 L 5025.0 -14781.0 L 5099.0 -14727.0 L 5116.0 -14714.0 L 5188.0 -14668.0 L 5198.0 -14661.0 L 5284.0 -14611.0 L 5304.0 -14599.0 L 5386.0 -14556.0 L 5417.0 -14539.0 L 5492.0 -14502.0 L 5534.0 -14479.0 L 5599.0 -14445.0 L 5646.0 -14418.0 L 5696.0 -14389.0 L 5754.0 -14351.0 L 5798.0 -14321.0 L 5859.0 -14273.0 L 5890.0 -14248.0 L 5937.0 -14202.0 L 5970.0 -14166.0 L 6015.0 -14106.0 L 6036.0 -14076.0 L 6076.0 -14004.0 L 6087.0 -13981.0 L 6113.0 -13894.0 L 6117.0 -13878.0 L 6129.0 -13794.0 L 6131.0 -13768.0 L 6130.0 -13673.0 L 6129.0 -13656.0 L 6114.0 -13549.0 L 6113.0 -13542.0 L 6085.0 -13427.0 L 6077.0 -13401.0 L 6048.0 -13311.0 L 6040.0 -13286.0 L 6025.0 -13239.0 L 6008.0 -13202.0 L 5976.0 -13134.0 L 5941.0 -13055.0 L 5928.0 -13025.0 L 5881.0 -12915.0 L 5873.0 -12895.0 L 5833.0 -12799.0 L 5820.0 -12768.0 L 5774.0 -12656.0 L 5766.0 -12636.0 L 5716.0 -12509.0 L 5713.0 -12501.0 L 5660.0 -12363.0 L 5658.0 -12359.0 L 5610.0 -12220.0 L 5604.0 -12203.0 L 5564.0 -12073.0 L 5555.0 -12042.0 L 5527.1 -11940.7" class="track-outline" data-sector="9"/>
      <path d="M 5527.1 -11940.7 L 5522.0 -11922.0 L 5517.0 -11904.0 L 5482.0 -11769.0 L 5473.0 -11736.0 L 5443.0 -11611.0 L 5431.0 -11563.0 L 5405.0 -11452.0 L 5390.0 -11389.0 L 5367.0 -11290.0 L 5349.0 -11211.0 L 5331.0 -11126.0 L 5317.0 -11061.0 L 5296.0 -10960.0 L 5279.0 -10879.0 L 5261.0 -10792.0 L 5240.0 -10694.0 L 5225.0 -10622.0 L 5201.0 -10508.0 L 5189.0 -10451.0 L 5161.0 -10321.0 L 5152.0 -10279.0 L 5114.0 -10106.0 L 5112.0 -10101.0 L 5076.0 -9931.0 L 5071.0 -9910.0 L 5037.0 -9755.0 L 5028.0 -9718.0 L 4996.0 -9580.0 L 4982.0 -9527.0 L 4948.0 -9407.0 L 4926.0 -9344.0 L 4889.0 -9251.0 L 4855.0 -9179.0 L 4815.0 -9105.0 L 4766.0 -9028.0 L 4727.0 -8974.0 L 4657.0 -8893.0 L 4621.0 -8855.0 L 4573.1 -8810.8" class="track-outline" data-sector="10"/>
      <path d="M 4573.1 -8810.8 L 4556.0 -8795.0 L 4506.0 -8755.0 L 4418.0 -8694.0 L 4373.0 -8667.0 L 4268.0 -8615.0 L 4246.0 -8606.0 L 4101.0 -8564.0 L 4090.0 -8562.0 L 3916.0 -8544.0 L 3912.0 -8543.0 L 3753.0 -8536.0 L 3743.0 -8536.0 L 3575.0 -8533.0 L 3570.0 -8533.0 L 3410.0 -8537.0 L 3390.0 -8538.0 L 3245.0 -8553.0 L 3211.0 -8558.0 L 3087.0 -8586.0 L 3040.0 -8601.0 L 2931.0 -8646.0 L 2872.0 -8674.0 L 2775.0 -8730.0 L 2720.0 -8764.0 L 2591.0 -8856.0 L 2533.0 -8901.0 L 2457.0 -8971.0 L 2397.0 -9029.0 L 2335.0 -9097.0 L 2270.0 -9174.0 L 2225.0 -9234.0 L 2158.0 -9330.0 L 2127.0 -9381.0 L 2060.0 -9495.0 L 2040.0 -9535.0 L 1988.0 -9643.0 L 1964.0 -9699.0 L 1912.0 -9823.0 L 1897.0 -9865.0 L 1847.0 -10008.0 L 1840.8 -10029.1" class="track-outline" data-sector="11"/>
      <path d="M 1840.8 -10029.1 L 1839.0 -10035.0 L 1789.0 -10197.0 L 1786.0 -10209.0 L 1732.0 -10381.0 L 1730.0 -10385.0 L 1678.0 -10553.0 L 1671.0 -10573.0 L 1622.0 -10725.0 L 1610.0 -10760.0 L 1567.0 -10896.0 L 1550.0 -10947.0 L 1512.0 -11068.0 L 1490.0 -11135.0 L 1457.0 -11241.0 L 1429.0 -11324.0 L 1401.0 -11413.0 L 1369.0 -11510.0 L 1346.0 -11586.0 L 1317.0 -11675.0 L 1288.0 -11767.0 L 1258.0 -11858.0 L 1237.0 -11925.0 L 1200.0 -12035.0 L 1186.0 -12077.0 L 1139.0 -12208.0 L 1131.0 -12232.0 L 1081.0 -12354.0 L 1078.0 -12363.0 L 1021.0 -12480.0 L 1019.0 -12482.0 L 963.0 -12575.0 L 959.0 -12582.0 L 889.0 -12672.0 L 886.0 -12674.0 L 812.0 -12753.0 L 802.0 -12761.0 L 729.0 -12823.0 L 711.0 -12835.0 L 646.0 -12879.0 L 620.0 -12892.0 L 556.0 -12921.0 L 519.0 -12933.0 L 461.0 -12948.0 L 431.0 -12952.0 L 360.0 -12959.0 L 320.0 -12962.0 L 264.4 -12964.7" class="track-outline" data-sector="12"/>
      <path d="M 264.4 -12964.7 L 259.0 -12965.0 L 210.0 -12958.0 L 158.0 -12946.0 L 82.0 -12927.0 L 59.0 -12920.0 L -21.0 -12884.0 L -36.0 -12877.0 L -130.0 -12824.0 L -137.0 -12821.0 L -238.0 -12765.0 L -240.0 -12763.0 L -334.0 -12719.0 L -341.0 -12717.0 L -448.0 -12682.0 L -450.0 -12681.0 L -558.0 -12663.0 L -570.0 -12661.0 L -666.0 -12655.0 L -689.0 -12657.0 L -782.0 -12678.0 L -796.0 -12681.0 L -895.0 -12709.0 L -918.0 -12717.0 L -1004.0 -12756.0 L -1035.0 -12772.0 L -1106.0 -12816.0 L -1143.0 -12843.0 L -1201.0 -12891.0 L -1244.0 -12933.0 L -1290.0 -12981.0 L -1335.0 -13034.0 L -1369.0 -13076.0 L -1407.0 -13127.0 L -1447.0 -13184.0 L -1488.0 -13247.0 L -1513.0 -13286.0 L -1579.0 -13402.0 L -1584.0 -13410.0 L -1638.1 -13512.3" class="track-outline" data-sector="13"/>
      <path d="M -1638.1 -13512.3 L -1649.0 -13533.0 L -1650.0 -13535.0 L -1711.0 -13660.0 L -1717.0 -13674.0 L -1772.0 -13789.0 L -1784.0 -13815.0 L -1833.0 -13922.0 L -1851.0 -13961.0 L -1897.0 -14055.0 L -1910.0 -14082.0 L -1964.0 -14187.0 L -1983.0 -14224.0 L -2030.0 -14309.0 L -2067.0 -14374.0 L -2095.0 -14420.0 L -2135.0 -14486.0 L -2156.0 -14518.0 L -2200.0 -14583.0 L -2215.0 -14604.0 L -2267.0 -14668.0 L -2277.0 -14680.0 L -2327.0 -14730.0 L -2344.0 -14745.0 L -2403.0 -14791.0 L -2415.0 -14799.0 L -2487.0 -14839.0 L -2493.0 -14842.0 L -2574.0 -14873.0 L -2590.0 -14877.0 L -2652.0 -14889.0 L -2675.0 -14893.0 L -2733.0 -14898.0 L -2770.0 -14891.0 L -2831.0 -14875.0 L -2876.0 -14865.0 L -2925.0 -14855.0 L -2977.0 -14839.0 L -3018.0 -14825.0" class="track-outline" data-sector="14"/>
      <path d="M -3018.0 -14825.0 L -3063.0 -14806.0 L -3112.0 -14785.0 L -3163.0 -14760.0 L -3209.0 -14735.0 L -3302.0 -14676.0 L -3345.0 -14650.0 L -3406.0 -14613.0 L -3428.0 -14601.0 L -3502.0 -14552.0 L -3542.0 -14525.0 L -3630.0 -14459.0 L -3657.0 -14440.0 L -3741.0 -14378.0 L -3757.0 -14367.0 L -3852.0 -14285.0 L -3859.0 -14280.0 L -3949.0 -14193.0 L -3960.0 -14181.0 L -4048.0 -14084.0 L -4066.0 -14060.0 L -4133.0 -13969.0 L -4142.0 -13954.0 L -4209.0 -13842.0 L -4223.0 -13814.0 L -4272.0 -13706.0 L -4287.0 -13664.0 L -4318.0 -13565.0 L -4328.0 -13508.0 L -4339.0 -13417.0 L -4341.0 -13341.0 L -4340.0 -13257.0 L -4336.0 -13194.0 L -4326.0 -13098.0 L -4315.0 -13021.0 L -4301.0 -12940.0 L -4282.0 -12850.0 L -4266.0 -12785.0 L -4237.0 -12683.0 L -4221.0 -12632.0 L -4181.0 -12518.0 L -4168.0 -12482.0 L -4116.0 -12354.0 L -4106.0 -12331.0 L -4053.0 -12219.0 L -4035.0 -12183.0 L -3968.0 -12060.0 L -3956.0 -12038.0 L -3874.0 -11904.0 L -3869.0 -11895.0 L -3824.5 -11827.6" class="track-outline" data-sector="15"/>
      <path d="M -3824.5 -11827.6 L -3776.0 -11754.0 L -3755.0 -11724.0 L -3678.0 -11615.0 L -3647.0 -11573.0 L -3575.0 -11479.0 L -3534.0 -11427.0 L -3467.0 -11345.0 L -3406.0 -11273.0 L -3341.0 -11197.0 L -3274.0 -11121.0 L -3225.0 -11068.0 L -3145.0 -10982.0 L -3105.0 -10940.0 L -3011.0 -10845.0 L -2981.0 -10815.0 L -2873.0 -10710.0 L -2854.0 -10692.0 L -2731.0 -10578.0 L -2723.0 -10571.0 L -2589.0 -10455.0 L -2585.0 -10451.0 L -2464.0 -10352.0 L -2456.0 -10346.0 L -2313.0 -10238.0 L -2309.0 -10235.0 L -2177.0 -10143.0 L -2145.0 -10121.0 L -2019.0 -10038.0 L -1970.0 -10007.0 L -1852.0 -9937.0 L -1789.0 -9901.0 L -1692.0 -9846.0 L -1643.0 -9818.0 L -1551.2 -9766.3" class="track-outline" data-sector="16"/>
      <path d="M -1551.2 -9766.3 L -1531.0 -9755.0 L -1468.0 -9719.0 L -1371.0 -9663.0 L -1293.0 -9617.0 L -1211.0 -9569.0 L -1118.0 -9515.0 L -1050.0 -9476.0 L -943.0 -9413.0 L -888.0 -9382.0 L -766.0 -9312.0 L -726.0 -9289.0 L -618.0 -9225.0 L -564.0 -9193.0 L -444.0 -9117.0 L -406.0 -9092.0 L -253.0 -8984.0 L -248.0 -8980.0 L -105.0 -8868.0 L -87.0 -8853.0 L 36.0 -8742.0 L 64.0 -8714.0 L 171.0 -8609.0 L 210.0 -8568.0 L 298.0 -8470.0 L 344.0 -8413.0 L 414.0 -8321.0 L 447.0 -8274.0 L 521.0 -8163.0 L 560.0 -8098.0 L 618.0 -7997.0 L 662.0 -7914.0 L 708.0 -7826.0 L 756.0 -7727.0 L 792.0 -7654.0 L 844.0 -7538.0 L 871.0 -7480.0 L 928.0 -7348.0 L 947.0 -7305.0 L 1009.0 -7156.0 L 1021.0 -7129.0 L 1053.7 -7046.8" class="track-outline" data-sector="17"/>
      <path d="M 1053.7 -7046.8 L 1087.0 -6963.0 L 1092.0 -6952.0 L 1160.0 -6774.0 L 1173.0 -6736.0 L 1223.0 -6594.0 L 1239.0 -6541.0 L 1274.0 -6420.0 L 1291.0 -6348.0 L 1316.0 -6236.0 L 1331.0 -6149.0 L 1341.0 -6070.0 L 1346.0 -5974.0 L 1347.0 -5870.0 L 1342.0 -5763.0 L 1334.0 -5680.0 L 1310.0 -5530.0 L 1295.0 -5456.0 L 1253.0 -5309.0 L 1238.0 -5263.0 L 1181.0 -5105.0 L 1170.0 -5076.0 L 1104.0 -4909.0 L 1100.0 -4897.0 L 1039.0 -4748.0 L 1028.0 -4722.0 L 958.0 -4559.0 L 954.0 -4548.0 L 879.0 -4375.0 L 876.0 -4370.0 L 804.0 -4203.0 L 795.0 -4182.0 L 734.2 -4043.8" class="track-outline" data-sector="18"/>
      <path d="M 734.2 -4043.8 L 729.0 -4032.0 L 713.0 -3996.0 L 655.0 -3860.0 L 646.0 -3838.0 L 583.0 -3688.0 L 555.0 -3620.0 L 513.0 -3517.0 L 479.0 -3433.0 L 445.0 -3344.0 L 408.0 -3244.0 L 383.0 -3171.0 L 346.0 -3056.0 L 330.0 -2997.0 L 297.0 -2859.0 L 287.0 -2815.0 L 253.0 -2661.0 L 248.0 -2634.0 L 214.0 -2469.0 L 212.0 -2458.0 L 180.0 -2295.0 L 179.0 -2291.0 L 161.0 -2197.0 L 158.0 -2181.0 L 133.0 -2042.0 L 127.0 -2010.0 L 109.0 -1901.0 L 102.0 -1861.0 L 88.0 -1774.0 L 77.0 -1708.0 L 70.0 -1662.0 L 59.0 -1593.0 L 55.0 -1561.0 L 51.0 -1535.9" class="track-outline" data-sector="19"/>
      <path d="M 51.0 -1535.9 L 47.0 -1511.0 L 42.0 -1477.0 L 33.0 -1422.0 L 29.0 -1397.0 L 21.0 -1345.0 L 20.0 -1335.0 L 11.0 -1273.0 L 11.0 -1269.0 L 3.0 -1207.0 L 2.0 -1205.0 L -3.0 -1147.0 L -3.0 -1140.0 L -8.0 -1091.0 L -8.0 -1089.0 L -12.0 -1041.0 L -12.0 -1035.0 L -13.0 -997.0 L -13.0 -988.0 L -13.0 -958.0 L -12.0 -947.0 L -11.0 -922.0 L -10.0 -908.0 L -9.0 -888.0 L -8.0 -878.0 L -7.0 -856.0 L -5.0 -843.0 L -3.0 -825.0 L -1.0 -810.0 L 0.0 -796.0 L 2.0 -780.0 L 5.0 -769.0 L 8.0 -751.0 L 11.0 -743.0 L 16.0 -724.0 L 19.0 -719.0 L 24.0 -703.0 L 28.0 -696.0 L 36.0 -677.0 L 40.0 -672.0 L 50.0 -652.0 L 53.0 -649.0 L 67.0 -627.0 L 69.0 -626.0 L 88.0 -606.0 L 88.0 -605.0 L 109.0 -590.0 L 111.0 -588.0 L 133.0 -575.0 L 138.0 -572.0 L 160.0 -564.0 L 168.0 -561.0 L 189.0 -556.0 L 201.0 -554.0 L 221.0 -552.0 L 236.0 -550.0 L 254.0 -550.0 L 273.0 -549.0 L 288.0 -550.0 L 310.0 -549.0 L 322.0 -549.0 L 341.0 -547.0 L 357.0 -546.0 L 382.0 -542.0 L 391.0 -541.0 L 418.0 -533.0 L 423.0 -532.0 L 450.0 -520.0 L 452.0 -520.0 L 477.0 -504.0 L 477.0 -503.0 L 497.0 -485.0 L 499.0 -484.0 L 517.0 -463.0 L 517.0 -462.0 L 530.0 -439.0 L 531.0 -436.0 L 542.0 -413.0 L 544.0 -407.0 L 550.0 -385.0 L 551.0 -376.0 L 553.0 -356.0 L 553.0 -344.0 L 554.0 -325.0 L 553.0 -315.0 L 552.0 -293.0 L 550.0 -280.0 L 547.0 -260.0 L 543.0 -243.0 L 539.0 -226.0 L 533.0 -204.0 L 528.0 -189.0 L 519.0 -163.0 L 514.0 -151.0 L 500.0 -119.0 L 496.0 -109.0 L 481.0 -80.0 L 474.0 -65.0 L 454.0 -29.0 L 448.0 -18.0 L 422.0 24.0 L 417.0 32.0 L 384.0 82.0 L 382.0 86.0 L 343.0 144.0 L 341.0 145.0 L 301.0 206.0 L 295.0 213.0 L 254.0 274.0 L 243.0 289.0 L 239.0 294.9" class="track-outline" data-sector="20"/>
      <path d="M 239.0 294.9 L 204.0 347.0 L 188.0 369.0 L 151.0 424.0 L 128.0 456.0 L 94.0 509.0 L 66.0 548.0 L 37.0 593.0 L 2.0 646.0 L -24.0 687.0 L -54.0 733.0 L -90.0 786.0 L -133.0 851.0 L -154.0 883.0 L -179.0 920.0 L -190.0 936.0 L -249.0 1027.0 L -262.0 1046.0 L -332.0 1153.0 L -338.0 1161.0 L -394.0 1241.0 L -387.0 1235.0 L -394.0 1246.0 L -430.0 1301.0 L -471.0 1362.0 L -516.0 1429.0 L -550.0 1481.0 L -602.0 1560.0 L -629.0 1600.0 L -687.0 1688.0 L -707.0 1718.0 L -777.0 1823.0 L -790.0 1843.0 L -853.0 1939.0 L -874.0 1971.0 L -950.0 2085.0 L -956.0 2094.0 L -1043.0 2224.0 L -1044.0 2226.0 L -1130.0 2357.0 L -1140.0 2372.0 L -1152.9 2391.4" class="track-outline" data-sector="21"/>
    </g>

    <g id="track-sectors">
      <path d="M -1152.9 2391.4 L -1219.0 2491.0 L -1237.0 2518.0 L -1309.0 2626.0 L -1335.0 2666.0 L -1399.0 2763.0 L -1418.0 2791.0 L -1491.0 2901.0 L -1518.0 2941.0 L -1583.0 3040.0 L -1618.0 3094.0 L -1676.0 3181.0 L -1737.0 3274.0 L -1769.0 3321.0 L -1834.0 3419.0 L -1855.0 3451.0 L -1919.0 3548.0 L -1931.0 3566.0 L -1980.0 3640.0 L -1999.0 3669.0 L -2073.0 3783.0 L -2085.0 3802.0 L -2136.0 3883.0 L -2139.0 3888.0 L -2183.0 3963.0 L -2184.0 3964.0 L -2221.0 4032.0 L -2225.0 4039.0 L -2252.0 4093.0 L -2257.0 4105.0 L -2276.0 4151.0 L -2281.0 4167.0 L -2294.0 4205.0 L -2296.0 4216.0 L -2305.0 4258.0 L -2307.0 4273.0 L -2311.0 4309.0 L -2311.0 4327.0 L -2311.0 4357.0 L -2308.0 4380.0 L -2303.0 4405.0 L -2298.0 4421.0 L -2289.0 4445.0 L -2279.0 4463.0 L -2267.0 4482.0 L -2250.0 4500.0 L -2236.0 4513.0 L -2212.0 4528.0 L -2200.0 4535.0 L -2169.0 4546.0 L -2160.0 4549.0 L -2119.0 4555.0 L -2117.0 4555.0 L -2079.0 4554.0 L -2069.0 4552.0 L -2029.0 4545.0 L -2023.0 4543.0 L -1980.0 4532.0 L -1969.0 4529.0 L -1931.0 4517.0 L -1916.0 4511.0 L -1880.0 4498.0 L -1859.0 4489.0 L -1827.0 4476.0 L -1799.0 4464.0 L -1768.0 4451.0 L -1755.3 4445.2" class="track" data-sector="1"/>
      <path d="M -1755.3 4445.2 L -1735.0 4436.0 L -1709.0 4424.0 L -1678.0 4409.0 L -1644.0 4393.0 L -1605.0 4374.0 L -1575.0 4359.0 L -1526.0 4334.0 L -1501.0 4321.0 L -1441.0 4290.0 L -1421.0 4280.0 L -1352.0 4244.0 L -1338.0 4237.0 L -1262.0 4198.0 L -1236.0 4185.0 L -1137.0 4133.0 L -1120.0 4125.0 L -1023.0 4076.0 L -1017.0 4073.0 L -909.0 4017.0 L -906.0 4015.0 L -798.0 3959.0 L -784.0 3951.0 L -683.0 3898.0 L -658.0 3884.0 L -565.0 3833.0 L -529.0 3812.0 L -445.0 3762.0 L -397.0 3733.0 L -324.0 3688.0 L -265.0 3650.0 L -202.0 3609.0 L -131.0 3560.0 L -79.0 3524.0 L 1.0 3464.0 L 43.0 3434.0 L 135.0 3363.0 L 166.0 3340.0 L 249.0 3274.0 L 290.0 3242.0 L 379.0 3169.0 L 409.0 3145.0 L 512.0 3055.0 L 531.0 3039.0 L 643.0 2933.0 L 651.0 2926.0 L 764.0 2813.0 L 777.0 2799.0 L 883.0 2693.0 L 886.0 2689.0 L 961.8 2611.2" class="track" data-sector="2"/>
      <path d="M 961.8 2611.2 L 1002.0 2570.0 L 1016.0 2555.0 L 1120.0 2447.0 L 1143.0 2422.0 L 1233.0 2329.0 L 1267.0 2292.0 L 1354.0 2201.0 L 1400.0 2151.0 L 1475.0 2073.0 L 1533.0 2010.0 L 1597.0 1942.0 L 1644.0 1891.0 L 1720.0 1811.0 L 1778.0 1747.0 L 1843.0 1678.0 L 1912.0 1602.0 L 1966.0 1544.0 L 2046.0 1454.0 L 2089.0 1408.0 L 2204.0 1279.0 L 2212.0 1271.0 L 2334.0 1132.0 L 2337.0 1128.0 L 2457.0 993.0 L 2471.0 977.0 L 2583.0 856.0 L 2586.0 852.0 L 2713.0 724.0 L 2728.0 709.0 L 2850.0 604.0 L 2879.0 581.0 L 2997.0 506.0 L 3048.0 479.0 L 3179.0 422.0 L 3249.0 388.0 L 3354.0 334.0 L 3427.0 286.0 L 3499.0 230.0 L 3502.6 226.6" class="track" data-sector="3"/>
      <path d="M 3502.6 226.6 L 3574.0 160.0 L 3626.0 104.0 L 3698.0 7.0 L 3731.0 -46.0 L 3796.0 -177.0 L 3816.0 -221.0 L 3874.0 -368.0 L 3884.0 -396.0 L 3931.0 -560.0 L 3934.0 -572.0 L 3960.0 -719.0 L 3965.0 -746.0 L 3990.0 -922.0 L 3992.0 -933.0 L 4032.0 -1115.0 L 4033.0 -1119.0 L 4097.0 -1285.0 L 4116.0 -1325.0 L 4205.0 -1485.0 L 4235.0 -1536.0 L 4305.0 -1646.0 L 4343.0 -1706.0 L 4406.0 -1802.0 L 4436.0 -1848.0 L 4508.0 -1955.0 L 4549.0 -2013.0 L 4617.0 -2105.0 L 4671.0 -2176.0 L 4730.0 -2253.0 L 4794.0 -2336.0 L 4843.0 -2401.0 L 4879.3 -2450.4" class="track" data-sector="4"/>
      <path d="M 4879.3 -2450.4 L 4915.0 -2499.0 L 4954.0 -2551.0 L 5017.0 -2636.0 L 5065.0 -2702.0 L 5137.0 -2802.0 L 5175.0 -2854.0 L 5278.0 -2996.0 L 5285.0 -3006.0 L 5392.0 -3161.0 L 5394.0 -3165.0 L 5497.0 -3319.0 L 5509.0 -3337.0 L 5598.0 -3478.0 L 5617.0 -3509.0 L 5687.0 -3629.0 L 5714.0 -3677.0 L 5778.0 -3796.0 L 5811.0 -3861.0 L 5863.0 -3967.0 L 5887.0 -4019.0 L 5942.0 -4142.0 L 5971.0 -4211.0 L 6015.0 -4320.0 L 6047.0 -4406.0 L 6080.0 -4501.0 L 6115.0 -4605.0 L 6141.0 -4684.0 L 6170.0 -4773.0 L 6202.0 -4869.0 L 6236.0 -4974.0 L 6262.0 -5053.0 L 6302.0 -5175.0 L 6323.0 -5237.0 L 6369.0 -5376.0 L 6385.0 -5422.0 L 6447.0 -5608.0 L 6448.0 -5612.0 L 6506.0 -5785.0 L 6513.0 -5806.0 L 6567.0 -5971.0 L 6579.0 -6009.0 L 6629.0 -6157.0 L 6636.0 -6180.0 L 6689.0 -6336.0 L 6719.0 -6426.0 L 6751.0 -6523.0 L 6786.0 -6630.0 L 6813.0 -6710.0 L 6854.0 -6834.0 L 6874.1 -6891.4" class="track" data-sector="5"/>
      <path d="M 6874.1 -6891.4 L 6876.0 -6897.0 L 6923.0 -7038.0 L 6939.0 -7085.0 L 6992.0 -7242.0 L 7003.0 -7272.0 L 7050.0 -7413.0 L 7066.0 -7460.0 L 7119.0 -7618.0 L 7129.0 -7648.0 L 7188.0 -7824.0 L 7193.0 -7837.0 L 7256.0 -8026.0 L 7257.0 -8030.0 L 7320.0 -8214.0 L 7327.0 -8235.0 L 7383.0 -8402.0 L 7395.0 -8440.0 L 7446.0 -8589.0 L 7453.0 -8611.0 L 7509.0 -8776.0 L 7522.0 -8815.0 L 7572.0 -8963.0 L 7590.0 -9018.0 L 7635.0 -9149.0 L 7659.0 -9221.0 L 7697.0 -9335.0 L 7727.0 -9425.0 L 7760.0 -9521.0 L 7795.0 -9624.0 L 7821.0 -9701.0 L 7861.0 -9822.0 L 7882.0 -9886.0 L 7916.0 -9992.0 L 7942.0 -10072.0 L 7993.0 -10227.0 L 8003.0 -10256.0 L 8061.0 -10428.0 L 8065.0 -10440.0 L 8124.0 -10611.0 L 8125.0 -10615.0 L 8177.0 -10766.0 L 8182.0 -10783.0 L 8223.0 -10908.0 L 8224.0 -10912.0 L 8261.0 -11037.0 L 8264.0 -11051.0 L 8289.0 -11150.0 L 8293.0 -11172.0 L 8308.0 -11259.0 L 8311.0 -11291.0 L 8316.0 -11365.0 L 8315.0 -11402.0 L 8312.0 -11451.0 L 8306.0 -11486.0 L 8295.0 -11539.0 L 8276.0 -11594.0 L 8263.0 -11624.0 L 8218.0 -11699.0 L 8203.0 -11722.0 L 8151.0 -11785.0 L 8142.0 -11797.0 L 8076.0 -11865.0 L 8072.0 -11870.0 L 8004.0 -11939.0 L 7989.0 -11953.0 L 7978.1 -11964.7" class="track" data-sector="6"/>
      <path d="M 7978.1 -11964.7 L 7937.0 -12009.0 L 7918.0 -12030.0 L 7879.0 -12083.0 L 7859.0 -12112.0 L 7834.0 -12160.0 L 7823.0 -12183.0 L 7804.0 -12244.0 L 7796.0 -12279.0 L 7789.0 -12338.0 L 7784.0 -12384.0 L 7784.0 -12434.0 L 7788.0 -12489.0 L 7795.0 -12531.0 L 7808.0 -12595.0 L 7816.0 -12628.0 L 7836.0 -12702.0 L 7845.0 -12728.0 L 7868.0 -12794.0 L 7882.0 -12829.0 L 7912.0 -12907.0 L 7923.0 -12933.0 L 7957.0 -13023.0 L 7964.0 -13040.0 L 7999.0 -13142.0 L 8002.0 -13150.0 L 8032.0 -13265.0 L 8032.0 -13268.0 L 8048.0 -13381.0 L 8048.0 -13394.0 L 8047.0 -13494.0 L 8044.0 -13514.0 L 8028.0 -13590.0 L 8019.0 -13622.0 L 7994.0 -13703.0 L 7975.0 -13745.0 L 7943.0 -13810.0 L 7913.0 -13860.0 L 7879.0 -13912.0 L 7839.0 -13964.0 L 7807.0 -14002.0 L 7765.0 -14044.0 L 7717.0 -14088.0 L 7659.0 -14134.0 L 7620.4 -14163.0" class="track" data-sector="7"/>
      <path d="M 7620.4 -14163.0 L 7615.0 -14167.0 L 7538.0 -14219.0 L 7510.0 -14238.0 L 7414.0 -14301.0 L 7396.0 -14313.0 L 7288.0 -14384.0 L 7281.0 -14390.0 L 7165.0 -14469.0 L 7162.0 -14470.0 L 7053.0 -14546.0 L 7046.0 -14552.0 L 6926.0 -14638.0 L 6922.0 -14640.0 L 6805.0 -14726.0 L 6790.0 -14736.0 L 6684.0 -14817.0 L 6655.0 -14838.0 L 6544.0 -14923.0 L 6505.0 -14952.0 L 6421.0 -15018.0 L 6373.0 -15054.0 L 6296.0 -15114.0 L 6258.0 -15142.0 L 6171.0 -15212.0 L 6121.0 -15250.0 L 6045.0 -15311.0 L 5983.0 -15359.0 L 5919.0 -15409.0 L 5829.0 -15474.0 L 5801.0 -15494.0 L 5707.0 -15554.0 L 5691.0 -15565.0 L 5592.0 -15622.0 L 5586.0 -15626.0 L 5489.0 -15679.0 L 5486.0 -15680.0 L 5401.0 -15721.0 L 5396.0 -15724.0 L 5309.0 -15757.0 L 5306.0 -15757.0 L 5228.0 -15773.0 L 5218.0 -15774.0 L 5148.0 -15778.0 L 5130.0 -15775.0 L 5065.0 -15760.0 L 5055.0 -15757.0 L 4993.0 -15735.0 L 4978.0 -15728.0 L 4927.0 -15699.0 L 4908.0 -15685.0 L 4868.0 -15651.0 L 4846.0 -15630.0 L 4817.0 -15597.0 L 4796.0 -15570.0 L 4778.0 -15541.0 L 4759.0 -15505.0 L 4748.0 -15479.0 L 4736.0 -15448.0 L 4727.0 -15415.0 L 4719.0 -15375.0 L 4718.8 -15373.2" class="track" data-sector="8"/>
      <path d="M 4718.8 -15373.2 L 4716.0 -15345.0 L 4714.0 -15298.0 L 4716.0 -15275.0 L 4723.0 -15221.0 L 4727.0 -15203.0 L 4744.0 -15142.0 L 4748.0 -15131.0 L 4776.0 -15063.0 L 4779.0 -15059.0 L 4814.0 -14998.0 L 4822.0 -14988.0 L 4871.0 -14924.0 L 4875.0 -14920.0 L 4940.0 -14854.0 L 4941.0 -14852.0 L 5016.0 -14789.0 L 5025.0 -14781.0 L 5099.0 -14727.0 L 5116.0 -14714.0 L 5188.0 -14668.0 L 5198.0 -14661.0 L 5284.0 -14611.0 L 5304.0 -14599.0 L 5386.0 -14556.0 L 5417.0 -14539.0 L 5492.0 -14502.0 L 5534.0 -14479.0 L 5599.0 -14445.0 L 5646.0 -14418.0 L 5696.0 -14389.0 L 5754.0 -14351.0 L 5798.0 -14321.0 L 5859.0 -14273.0 L 5890.0 -14248.0 L 5937.0 -14202.0 L 5970.0 -14166.0 L 6015.0 -14106.0 L 6036.0 -14076.0 L 6076.0 -14004.0 L 6087.0 -13981.0 L 6113.0 -13894.0 L 6117.0 -13878.0 L 6129.0 -13794.0 L 6131.0 -13768.0 L 6130.0 -13673.0 L 6129.0 -13656.0 L 6114.0 -13549.0 L 6113.0 -13542.0 L 6085.0 -13427.0 L 6077.0 -13401.0 L 6048.0 -13311.0 L 6040.0 -13286.0 L 6025.0 -13239.0 L 6008.0 -13202.0 L 5976.0 -13134.0 L 5941.0 -13055.0 L 5928.0 -13025.0 L 5881.0 -12915.0 L 5873.0 -12895.0 L 5833.0 -12799.0 L 5820.0 -12768.0 L 5774.0 -12656.0 L 5766.0 -12636.0 L 5716.0 -12509.0 L 5713.0 -12501.0 L 5660.0 -12363.0 L 5658.0 -12359.0 L 5610.0 -12220.0 L 5604.0 -12203.0 L 5564.0 -12073.0 L 5555.0 -12042.0 L 5527.1 -11940.7" class="track" data-sector="9"/>
      <path d="M 5527.1 -11940.7 L 5522.0 -11922.0 L 5517.0 -11904.0 L 5482.0 -11769.0 L 5473.0 -11736.0 L 5443.0 -11611.0 L 5431.0 -11563.0 L 5405.0 -11452.0 L 5390.0 -11389.0 L 5367.0 -11290.0 L 5349.0 -11211.0 L 5331.0 -11126.0 L 5317.0 -11061.0 L 5296.0 -10960.0 L 5279.0 -10879.0 L 5261.0 -10792.0 L 5240.0 -10694.0 L 5225.0 -10622.0 L 5201.0 -10508.0 L 5189.0 -10451.0 L 5161.0 -10321.0 L 5152.0 -10279.0 L 5114.0 -10106.0 L 5112.0 -10101.0 L 5076.0 -9931.0 L 5071.0 -9910.0 L 5037.0 -9755.0 L 5028.0 -9718.0 L 4996.0 -9580.0 L 4982.0 -9527.0 L 4948.0 -9407.0 L 4926.0 -9344.0 L 4889.0 -9251.0 L 4855.0 -9179.0 L 4815.0 -9105.0 L 4766.0 -9028.0 L 4727.0 -8974.0 L 4657.0 -8893.0 L 4621.0 -8855.0 L 4573.1 -8810.8" class="track" data-sector="10"/>
      <path d="M 4573.1 -8810.8 L 4556.0 -8795.0 L 4506.0 -8755.0 L 4418.0 -8694.0 L 4373.0 -8667.0 L 4268.0 -8615.0 L 4246.0 -8606.0 L 4101.0 -8564.0 L 4090.0 -8562.0 L 3916.0 -8544.0 L 3912.0 -8543.0 L 3753.0 -8536.0 L 3743.0 -8536.0 L 3575.0 -8533.0 L 3570.0 -8533.0 L 3410.0 -8537.0 L 3390.0 -8538.0 L 3245.0 -8553.0 L 3211.0 -8558.0 L 3087.0 -8586.0 L 3040.0 -8601.0 L 2931.0 -8646.0 L 2872.0 -8674.0 L 2775.0 -8730.0 L 2720.0 -8764.0 L 2591.0 -8856.0 L 2533.0 -8901.0 L 2457.0 -8971.0 L 2397.0 -9029.0 L 2335.0 -9097.0 L 2270.0 -9174.0 L 2225.0 -9234.0 L 2158.0 -9330.0 L 2127.0 -9381.0 L 2060.0 -9495.0 L 2040.0 -9535.0 L 1988.0 -9643.0 L 1964.0 -9699.0 L 1912.0 -9823.0 L 1897.0 -9865.0 L 1847.0 -10008.0 L 1840.8 -10029.1" class="track" data-sector="11"/>
      <path d="M 1840.8 -10029.1 L 1839.0 -10035.0 L 1789.0 -10197.0 L 1786.0 -10209.0 L 1732.0 -10381.0 L 1730.0 -10385.0 L 1678.0 -10553.0 L 1671.0 -10573.0 L 1622.0 -10725.0 L 1610.0 -10760.0 L 1567.0 -10896.0 L 1550.0 -10947.0 L 1512.0 -11068.0 L 1490.0 -11135.0 L 1457.0 -11241.0 L 1429.0 -11324.0 L 1401.0 -11413.0 L 1369.0 -11510.0 L 1346.0 -11586.0 L 1317.0 -11675.0 L 1288.0 -11767.0 L 1258.0 -11858.0 L 1237.0 -11925.0 L 1200.0 -12035.0 L 1186.0 -12077.0 L 1139.0 -12208.0 L 1131.0 -12232.0 L 1081.0 -12354.0 L 1078.0 -12363.0 L 1021.0 -12480.0 L 1019.0 -12482.0 L 963.0 -12575.0 L 959.0 -12582.0 L 889.0 -12672.0 L 886.0 -12674.0 L 812.0 -12753.0 L 802.0 -12761.0 L 729.0 -12823.0 L 711.0 -12835.0 L 646.0 -12879.0 L 620.0 -12892.0 L 556.0 -12921.0 L 519.0 -12933.0 L 461.0 -12948.0 L 431.0 -12952.0 L 360.0 -12959.0 L 320.0 -12962.0 L 264.4 -12964.7" class="track" data-sector="12"/>
      <path d="M 264.4 -12964.7 L 259.0 -12965.0 L 210.0 -12958.0 L 158.0 -12946.0 L 82.0 -12927.0 L 59.0 -12920.0 L -21.0 -12884.0 L -36.0 -12877.0 L -130.0 -12824.0 L -137.0 -12821.0 L -238.0 -12765.0 L -240.0 -12763.0 L -334.0 -12719.0 L -341.0 -12717.0 L -448.0 -12682.0 L -450.0 -12681.0 L -558.0 -12663.0 L -570.0 -12661.0 L -666.0 -12655.0 L -689.0 -12657.0 L -782.0 -12678.0 L -796.0 -12681.0 L -895.0 -12709.0 L -918.0 -12717.0 L -1004.0 -12756.0 L -1035.0 -12772.0 L -1106.0 -12816.0 L -1143.0 -12843.0 L -1201.0 -12891.0 L -1244.0 -12933.0 L -1290.0 -12981.0 L -1335.0 -13034.0 L -1369.0 -13076.0 L -1407.0 -13127.0 L -1447.0 -13184.0 L -1488.0 -13247.0 L -1513.0 -13286.0 L -1579.0 -13402.0 L -1584.0 -13410.0 L -1638.1 -13512.3" class="track" data-sector="13"/>
      <path d="M -1638.1 -13512.3 L -1649.0 -13533.0 L -1650.0 -13535.0 L -1711.0 -13660.0 L -1717.0 -13674.0 L -1772.0 -13789.0 L -1784.0 -13815.0 L -1833.0 -13922.0 L -1851.0 -13961.0 L -1897.0 -14055.0 L -1910.0 -14082.0 L -1964.0 -14187.0 L -1983.0 -14224.0 L -2030.0 -14309.0 L -2067.0 -14374.0 L -2095.0 -14420.0 L -2135.0 -14486.0 L -2156.0 -14518.0 L -2200.0 -14583.0 L -2215.0 -14604.0 L -2267.0 -14668.0 L -2277.0 -14680.0 L -2327.0 -14730.0 L -2344.0 -14745.0 L -2403.0 -14791.0 L -2415.0 -14799.0 L -2487.0 -14839.0 L -2493.0 -14842.0 L -2574.0 -14873.0 L -2590.0 -14877.0 L -2652.0 -14889.0 L -2675.0 -14893.0 L -2733.0 -14898.0 L -2770.0 -14891.0 L -2831.0 -14875.0 L -2876.0 -14865.0 L -2925.0 -14855.0 L -2977.0 -14839.0 L -3018.0 -14825.0" class="track" data-sector="14"/>
      <path d="M -3018.0 -14825.0 L -3063.0 -14806.0 L -3112.0 -14785.0 L -3163.0 -14760.0 L -3209.0 -14735.0 L -3302.0 -14676.0 L -3345.0 -14650.0 L -3406.0 -14613.0 L -3428.0 -14601.0 L -3502.0 -14552.0 L -3542.0 -14525.0 L -3630.0 -14459.0 L -3657.0 -14440.0 L -3741.0 -14378.0 L -3757.0 -14367.0 L -3852.0 -14285.0 L -3859.0 -14280.0 L -3949.0 -14193.0 L -3960.0 -14181.0 L -4048.0 -14084.0 L -4066.0 -14060.0 L -4133.0 -13969.0 L -4142.0 -13954.0 L -4209.0 -13842.0 L -4223.0 -13814.0 L -4272.0 -13706.0 L -4287.0 -13664.0 L -4318.0 -13565.0 L -4328.0 -13508.0 L -4339.0 -13417.0 L -4341.0 -13341.0 L -4340.0 -13257.0 L -4336.0 -13194.0 L -4326.0 -13098.0 L -4315.0 -13021.0 L -4301.0 -12940.0 L -4282.0 -12850.0 L -4266.0 -12785.0 L -4237.0 -12683.0 L -4221.0 -12632.0 L -4181.0 -12518.0 L -4168.0 -12482.0 L -4116.0 -12354.0 L -4106.0 -12331.0 L -4053.0 -12219.0 L -4035.0 -12183.0 L -3968.0 -12060.0 L -3956.0 -12038.0 L -3874.0 -11904.0 L -3869.0 -11895.0 L -3824.5 -11827.6" class="track" data-sector="15"/>
      <path d="M -3824.5 -11827.6 L -3776.0 -11754.0 L -3755.0 -11724.0 L -3678.0 -11615.0 L -3647.0 -11573.0 L -3575.0 -11479.0 L -3534.0 -11427.0 L -3467.0 -11345.0 L -3406.0 -11273.0 L -3341.0 -11197.0 L -3274.0 -11121.0 L -3225.0 -11068.0 L -3145.0 -10982.0 L -3105.0 -10940.0 L -3011.0 -10845.0 L -2981.0 -10815.0 L -2873.0 -10710.0 L -2854.0 -10692.0 L -2731.0 -10578.0 L -2723.0 -10571.0 L -2589.0 -10455.0 L -2585.0 -10451.0 L -2464.0 -10352.0 L -2456.0 -10346.0 L -2313.0 -10238.0 L -2309.0 -10235.0 L -2177.0 -10143.0 L -2145.0 -10121.0 L -2019.0 -10038.0 L -1970.0 -10007.0 L -1852.0 -9937.0 L -1789.0 -9901.0 L -1692.0 -9846.0 L -1643.0 -9818.0 L -1551.2 -9766.3" class="track" data-sector="16"/>
      <path d="M -1551.2 -9766.3 L -1531.0 -9755.0 L -1468.0 -9719.0 L -1371.0 -9663.0 L -1293.0 -9617.0 L -1211.0 -9569.0 L -1118.0 -9515.0 L -1050.0 -9476.0 L -943.0 -9413.0 L -888.0 -9382.0 L -766.0 -9312.0 L -726.0 -9289.0 L -618.0 -9225.0 L -564.0 -9193.0 L -444.0 -9117.0 L -406.0 -9092.0 L -253.0 -8984.0 L -248.0 -8980.0 L -105.0 -8868.0 L -87.0 -8853.0 L 36.0 -8742.0 L 64.0 -8714.0 L 171.0 -8609.0 L 210.0 -8568.0 L 298.0 -8470.0 L 344.0 -8413.0 L 414.0 -8321.0 L 447.0 -8274.0 L 521.0 -8163.0 L 560.0 -8098.0 L 618.0 -7997.0 L 662.0 -7914.0 L 708.0 -7826.0 L 756.0 -7727.0 L 792.0 -7654.0 L 844.0 -7538.0 L 871.0 -7480.0 L 928.0 -7348.0 L 947.0 -7305.0 L 1009.0 -7156.0 L 1021.0 -7129.0 L 1053.7 -7046.8" class="track" data-sector="17"/>
      <path d="M 1053.7 -7046.8 L 1087.0 -6963.0 L 1092.0 -6952.0 L 1160.0 -6774.0 L 1173.0 -6736.0 L 1223.0 -6594.0 L 1239.0 -6541.0 L 1274.0 -6420.0 L 1291.0 -6348.0 L 1316.0 -6236.0 L 1331.0 -6149.0 L 1341.0 -6070.0 L 1346.0 -5974.0 L 1347.0 -5870.0 L 1342.0 -5763.0 L 1334.0 -5680.0 L 1310.0 -5530.0 L 1295.0 -5456.0 L 1253.0 -5309.0 L 1238.0 -5263.0 L 1181.0 -5105.0 L 1170.0 -5076.0 L 1104.0 -4909.0 L 1100.0 -4897.0 L 1039.0 -4748.0 L 1028.0 -4722.0 L 958.0 -4559.0 L 954.0 -4548.0 L 879.0 -4375.0 L 876.0 -4370.0 L 804.0 -4203.0 L 795.0 -4182.0 L 734.2 -4043.8" class="track" data-sector="18"/>
      <path d="M 734.2 -4043.8 L 729.0 -4032.0 L 713.0 -3996.0 L 655.0 -3860.0 L 646.0 -3838.0 L 583.0 -3688.0 L 555.0 -3620.0 L 513.0 -3517.0 L 479.0 -3433.0 L 445.0 -3344.0 L 408.0 -3244.0 L 383.0 -3171.0 L 346.0 -3056.0 L 330.0 -2997.0 L 297.0 -2859.0 L 287.0 -2815.0 L 253.0 -2661.0 L 248.0 -2634.0 L 214.0 -2469.0 L 212.0 -2458.0 L 180.0 -2295.0 L 179.0 -2291.0 L 161.0 -2197.0 L 158.0 -2181.0 L 133.0 -2042.0 L 127.0 -2010.0 L 109.0 -1901.0 L 102.0 -1861.0 L 88.0 -1774.0 L 77.0 -1708.0 L 70.0 -1662.0 L 59.0 -1593.0 L 55.0 -1561.0 L 51.0 -1535.9" class="track" data-sector="19"/>
      <path d="M 51.0 -1535.9 L 47.0 -1511.0 L 42.0 -1477.0 L 33.0 -1422.0 L 29.0 -1397.0 L 21.0 -1345.0 L 20.0 -1335.0 L 11.0 -1273.0 L 11.0 -1269.0 L 3.0 -1207.0 L 2.0 -1205.0 L -3.0 -1147.0 L -3.0 -1140.0 L -8.0 -1091.0 L -8.0 -1089.0 L -12.0 -1041.0 L -12.0 -1035.0 L -13.0 -997.0 L -13.0 -988.0 L -13.0 -958.0 L -12.0 -947.0 L -11.0 -922.0 L -10.0 -908.0 L -9.0 -888.0 L -8.0 -878.0 L -7.0 -856.0 L -5.0 -843.0 L -3.0 -825.0 L -1.0 -810.0 L 0.0 -796.0 L 2.0 -780.0 L 5.0 -769.0 L 8.0 -751.0 L 11.0 -743.0 L 16.0 -724.0 L 19.0 -719.0 L 24.0 -703.0 L 28.0 -696.0 L 36.0 -677.0 L 40.0 -672.0 L 50.0 -652.0 L 53.0 -649.0 L 67.0 -627.0 L 69.0 -626.0 L 88.0 -606.0 L 88.0 -605.0 L 109.0 -590.0 L 111.0 -588.0 L 133.0 -575.0 L 138.0 -572.0 L 160.0 -564.0 L 168.0 -561.0 L 189.0 -556.0 L 201.0 -554.0 L 221.0 -552.0 L 236.0 -550.0 L 254.0 -550.0 L 273.0 -549.0 L 288.0 -550.0 L 310.0 -549.0 L 322.0 -549.0 L 341.0 -547.0 L 357.0 -546.0 L 382.0 -542.0 L 391.0 -541.0 L 418.0 -533.0 L 423.0 -532.0 L 450.0 -520.0 L 452.0 -520.0 L 477.0 -504.0 L 477.0 -503.0 L 497.0 -485.0 L 499.0 -484.0 L 517.0 -463.0 L 517.0 -462.0 L 530.0 -439.0 L 531.0 -436.0 L 542.0 -413.0 L 544.0 -407.0 L 550.0 -385.0 L 551.0 -376.0 L 553.0 -356.0 L 553.0 -344.0 L 554.0 -325.0 L 553.0 -315.0 L 552.0 -293.0 L 550.0 -280.0 L 547.0 -260.0 L 543.0 -243.0 L 539.0 -226.0 L 533.0 -204.0 L 528.0 -189.0 L 519.0 -163.0 L 514.0 -151.0 L 500.0 -119.0 L 496.0 -109.0 L 481.0 -80.0 L 474.0 -65.0 L 454.0 -29.0 L 448.0 -18.0 L 422.0 24.0 L 417.0 32.0 L 384.0 82.0 L 382.0 86.0 L 343.0 144.0 L 341.0 145.0 L 301.0 206.0 L 295.0 213.0 L 254.0 274.0 L 243.0 289.0 L 239.0 294.9" class="track" data-sector="20"/>
      <path d="M 239.0 294.9 L 204.0 347.0 L 188.0 369.0 L 151.0 424.0 L 128.0 456.0 L 94.0 509.0 L 66.0 548.0 L 37.0 593.0 L 2.0 646.0 L -24.0 687.0 L -54.0 733.0 L -90.0 786.0 L -133.0 851.0 L -154.0 883.0 L -179.0 920.0 L -190.0 936.0 L -249.0 1027.0 L -262.0 1046.0 L -332.0 1153.0 L -338.0 1161.0 L -394.0 1241.0 L -387.0 1235.0 L -394.0 1246.0 L -430.0 1301.0 L -471.0 1362.0 L -516.0 1429.0 L -550.0 1481.0 L -602.0 1560.0 L -629.0 1600.0 L -687.0 1688.0 L -707.0 1718.0 L -777.0 1823.0 L -790.0 1843.0 L -853.0 1939.0 L -874.0 1971.0 L -950.0 2085.0 L -956.0 2094.0 L -1043.0 2224.0 L -1044.0 2226.0 L -1130.0 2357.0 L -1140.0 2372.0 L -1152.9 2391.4" class="track" data-sector="21"/>
    </g>

    <g id="marshal-lights">
      <g class="marshal-light-marker" data-light="1">
        <rect x="-223.0" y="828.6" width="126.3" height="126.3" class="marshal-light-bg"/>
        <text x="-159.9" y="891.7" class="marshal-light-label">1</text>
      </g>
      <g class="marshal-light-marker" data-light="2">
        <rect x="-1681.4" y="3031.3" width="126.3" height="126.3" class="marshal-light-bg"/>
        <text x="-1618.3" y="3094.5" class="marshal-light-label">2</text>
      </g>
      <g class="marshal-light-marker" data-light="3">
        <rect x="326.2" y="3097.6" width="126.3" height="126.3" class="marshal-light-bg"/>
        <text x="389.3" y="3160.8" class="marshal-light-label">3</text>
      </g>
      <g class="marshal-light-marker" data-light="4">
        <rect x="2332.1" y="999.4" width="126.3" height="126.3" class="marshal-light-bg"/>
        <text x="2395.2" y="1062.5" class="marshal-light-label">4</text>
      </g>
      <g class="marshal-light-marker" data-light="5">
        <rect x="3923.2" y="-959.4" width="126.3" height="126.3" class="marshal-light-bg"/>
        <text x="3986.3" y="-896.2" class="marshal-light-label">5</text>
      </g>
      <g class="marshal-light-marker" data-light="6">
        <rect x="5899.5" y="-4254.2" width="126.3" height="126.3" class="marshal-light-bg"/>
        <text x="5962.6" y="-4191.1" class="marshal-light-label">6</text>
      </g>
      <g class="marshal-light-marker" data-light="7">
        <rect x="8010.5" y="-10528.1" width="126.3" height="126.3" class="marshal-light-bg"/>
        <text x="8073.6" y="-10465.0" class="marshal-light-label">7</text>
      </g>
      <g class="marshal-light-marker" data-light="8">
        <rect x="7897.4" y="-13837.5" width="126.3" height="126.3" class="marshal-light-bg"/>
        <text x="7960.5" y="-13774.4" class="marshal-light-label">8</text>
      </g>
      <g class="marshal-light-marker" data-light="9">
        <rect x="6043.7" y="-15324.5" width="126.3" height="126.3" class="marshal-light-bg"/>
        <text x="6106.9" y="-15261.3" class="marshal-light-label">9</text>
      </g>
      <g class="marshal-light-marker" data-light="10">
        <rect x="5106.4" y="-14742.9" width="126.3" height="126.3" class="marshal-light-bg"/>
        <text x="5169.6" y="-14679.8" class="marshal-light-label">10</text>
      </g>
      <g class="marshal-light-marker" data-light="11">
        <rect x="5160.5" y="-10678.5" width="126.3" height="126.3" class="marshal-light-bg"/>
        <text x="5223.6" y="-10615.4" class="marshal-light-label">11</text>
      </g>
      <g class="marshal-light-marker" data-light="12">
        <rect x="3026.5" y="-8648.5" width="126.3" height="126.3" class="marshal-light-bg"/>
        <text x="3089.7" y="-8585.4" class="marshal-light-label">12</text>
      </g>
      <g class="marshal-light-marker" data-light="13">
        <rect x="1231.9" y="-11807.9" width="126.3" height="126.3" class="marshal-light-bg"/>
        <text x="1295.0" y="-11744.7" class="marshal-light-label">13</text>
      </g>
      <g class="marshal-light-marker" data-light="14">
        <rect x="-1449.6" y="-13162.6" width="126.3" height="126.3" class="marshal-light-bg"/>
        <text x="-1386.5" y="-13099.4" class="marshal-light-label">14</text>
      </g>
      <g class="marshal-light-marker" data-light="15">
        <rect x="-2015.3" y="-14227.1" width="126.3" height="126.3" class="marshal-light-bg"/>
        <text x="-1952.1" y="-14163.9" class="marshal-light-label">15</text>
      </g>
      <g class="marshal-light-marker" data-light="16">
        <rect x="-4067.1" y="-14195.7" width="126.3" height="126.3" class="marshal-light-bg"/>
        <text x="-4003.9" y="-14132.6" class="marshal-light-label">16</text>
      </g>
      <g class="marshal-light-marker" data-light="17">
        <rect x="-2976.8" y="-10812.6" width="126.3" height="126.3" class="marshal-light-bg"/>
        <text x="-2913.6" y="-10749.5" class="marshal-light-label">17</text>
      </g>
      <g class="marshal-light-marker" data-light="18">
        <rect x="-701.4" y="-9300.1" width="126.3" height="126.3" class="marshal-light-bg"/>
        <text x="-638.3" y="-9237.0" class="marshal-light-label">18</text>
      </g>
      <g class="marshal-light-marker" data-light="19">
        <rect x="1246.3" y="-5590.6" width="126.3" height="126.3" class="marshal-light-bg"/>
        <text x="1309.5" y="-5527.5" class="marshal-light-label">19</text>
      </g>
      <g class="marshal-light-marker" data-light="20">
        <rect x="200.2" y="-2771.0" width="126.3" height="126.3" class="marshal-light-bg"/>
        <text x="263.3" y="-2707.8" class="marshal-light-label">20</text>
      </g>
      <g class="marshal-light-marker" data-light="21">
        <rect x="479.5" y="-304.4" width="126.3" height="126.3" class="marshal-light-bg"/>
        <text x="542.6" y="-241.2" class="marshal-light-label">21</text>
      </g>
    </g>

    <g id="marshal-sectors">
      <g class="marshal-sector-marker" data-sector="1" data-length="1387.1">
        <polygon points="-1152.9,2239.9 -1284.1,2467.2 -1021.7,2467.2" class="marshal-sector-bg"/>
        <text x="-1152.9" y="2391.4" class="marshal-sector-label">1</text>
      </g>
      <g class="marshal-sector-marker" data-sector="2" data-length="4373.4">
        <polygon points="-1755.3,4293.7 -1886.5,4521.0 -1624.1,4521.0" class="marshal-sector-bg"/>
        <text x="-1755.3" y="4445.2" class="marshal-sector-label">2</text>
      </g>
      <g class="marshal-sector-marker" data-sector="3" data-length="7675.2">
        <polygon points="961.8,2459.7 830.6,2687.0 1093.1,2687.0" class="marshal-sector-bg"/>
        <text x="961.8" y="2611.2" class="marshal-sector-label">3</text>
      </g>
      <g class="marshal-sector-marker" data-sector="4" data-length="11189.2">
        <polygon points="3502.6,75.1 3371.4,302.4 3633.8,302.4" class="marshal-sector-bg"/>
        <text x="3502.6" y="226.6" class="marshal-sector-label">4</text>
      </g>
      <g class="marshal-sector-marker" data-sector="5" data-length="14251.7">
        <polygon points="4879.3,-2601.9 4748.1,-2374.6 5010.5,-2374.6" class="marshal-sector-bg"/>
        <text x="4879.3" y="-2450.4" class="marshal-sector-label">5</text>
      </g>
      <g class="marshal-sector-marker" data-sector="6" data-length="19158.2">
        <polygon points="6874.1,-7042.9 6742.8,-6815.7 7005.3,-6815.7" class="marshal-sector-bg"/>
        <text x="6874.1" y="-6891.4" class="marshal-sector-label">6</text>
      </g>
      <g class="marshal-sector-marker" data-sector="7" data-length="24576.0">
        <polygon points="7978.1,-12116.2 7846.9,-11888.9 8109.3,-11888.9" class="marshal-sector-bg"/>
        <text x="7978.1" y="-11964.7" class="marshal-sector-label">7</text>
      </g>
      <g class="marshal-sector-marker" data-sector="8" data-length="27018.4">
        <polygon points="7620.4,-14314.5 7489.2,-14087.2 7751.6,-14087.2" class="marshal-sector-bg"/>
        <text x="7620.4" y="-14163.0" class="marshal-sector-label">8</text>
      </g>
      <g class="marshal-sector-marker" data-sector="9" data-length="30630.3">
        <polygon points="4718.8,-15524.7 4587.6,-15297.4 4850.0,-15297.4" class="marshal-sector-bg"/>
        <text x="4718.8" y="-15373.2" class="marshal-sector-label">9</text>
      </g>
      <g class="marshal-sector-marker" data-sector="10" data-length="34835.1">
        <polygon points="5527.1,-12092.2 5395.9,-11864.9 5658.4,-11864.9" class="marshal-sector-bg"/>
        <text x="5527.1" y="-11940.7" class="marshal-sector-label">10</text>
      </g>
      <g class="marshal-sector-marker" data-sector="11" data-length="38147.8">
        <polygon points="4573.1,-8962.3 4441.9,-8735.0 4704.3,-8735.0" class="marshal-sector-bg"/>
        <text x="4573.1" y="-8810.8" class="marshal-sector-label">11</text>
      </g>
      <g class="marshal-sector-marker" data-sector="12" data-length="41688.9">
        <polygon points="1840.8,-10180.6 1709.5,-9953.3 1972.0,-9953.3" class="marshal-sector-bg"/>
        <text x="1840.8" y="-10029.1" class="marshal-sector-label">12</text>
      </g>
      <g class="marshal-sector-marker" data-sector="13" data-length="45224.7">
        <polygon points="264.4,-13116.3 133.2,-12889.0 395.6,-12889.0" class="marshal-sector-bg"/>
        <text x="264.4" y="-12964.7" class="marshal-sector-label">13</text>
      </g>
      <g class="marshal-sector-marker" data-sector="14" data-length="47574.6">
        <polygon points="-1638.1,-13663.8 -1769.3,-13436.6 -1506.9,-13436.6" class="marshal-sector-bg"/>
        <text x="-1638.1" y="-13512.3" class="marshal-sector-label">14</text>
      </g>
      <g class="marshal-sector-marker" data-sector="15" data-length="49723.2">
        <polygon points="-3017.9,-14976.6 -3149.1,-14749.3 -2886.7,-14749.3" class="marshal-sector-bg"/>
        <text x="-3017.9" y="-14825.0" class="marshal-sector-label">15</text>
      </g>
      <g class="marshal-sector-marker" data-sector="16" data-length="53438.4">
        <polygon points="-3824.5,-11979.1 -3955.7,-11751.8 -3693.3,-11751.8" class="marshal-sector-bg"/>
        <text x="-3824.5" y="-11827.6" class="marshal-sector-label">16</text>
      </g>
      <g class="marshal-sector-marker" data-sector="17" data-length="56539.0">
        <polygon points="-1551.2,-9917.9 -1682.4,-9690.6 -1419.9,-9690.6" class="marshal-sector-bg"/>
        <text x="-1551.2" y="-9766.3" class="marshal-sector-label">17</text>
      </g>
      <g class="marshal-sector-marker" data-sector="18" data-length="60428.3">
        <polygon points="1053.7,-7198.3 922.5,-6971.0 1184.9,-6971.0" class="marshal-sector-bg"/>
        <text x="1053.7" y="-7046.8" class="marshal-sector-label">18</text>
      </g>
      <g class="marshal-sector-marker" data-sector="19" data-length="63588.7">
        <polygon points="734.2,-4195.3 603.0,-3968.0 865.4,-3968.0" class="marshal-sector-bg"/>
        <text x="734.2" y="-4043.8" class="marshal-sector-label">19</text>
      </g>
      <g class="marshal-sector-marker" data-sector="20" data-length="66199.7">
        <polygon points="51.0,-1687.4 -80.2,-1460.1 182.2,-1460.1" class="marshal-sector-bg"/>
        <text x="51.0" y="-1535.9" class="marshal-sector-label">20</text>
      </g>
      <g class="marshal-sector-marker" data-sector="21" data-length="68478.9">
        <polygon points="239.0,143.4 107.8,370.7 370.3,370.7" class="marshal-sector-bg"/>
        <text x="239.0" y="294.9" class="marshal-sector-label">21</text>
      </g>
    </g>

    <g id="corners">
      <g class="corner-marker" data-corner="1" data-length="3818.6">
        <circle cx="-2268.3" cy="4480.0" r="202.0" class="corner-bg"/>
        <text x="-2268.3" y="4480.0" class="corner-label">1</text>
      </g>
      <g class="corner-marker" data-corner="2" data-length="10612.6">
        <circle cx="3000.0" cy="504.4" r="202.0" class="corner-bg"/>
        <text x="3000.0" y="504.4" class="corner-label">2</text>
      </g>
      <g class="corner-marker" data-corner="3" data-length="11744.0">
        <circle cx="3817.1" cy="-223.8" r="202.0" class="corner-bg"/>
        <text x="3817.1" y="-223.8" class="corner-label">3</text>
      </g>
      <g class="corner-marker" data-corner="4" data-length="12728.6">
        <circle cx="4054.8" cy="-1175.6" r="202.0" class="corner-bg"/>
        <text x="4054.8" y="-1175.6" class="corner-label">4</text>
      </g>
      <g class="corner-marker" data-corner="5" data-length="24059.3">
        <circle cx="8288.4" cy="-11558.2" r="202.0" class="corner-bg"/>
        <text x="8288.4" y="-11558.2" class="corner-label">5</text>
      </g>
      <g class="corner-marker" data-corner="6" data-length="24848.0">
        <circle cx="7822.2" cy="-12185.5" r="202.0" class="corner-bg"/>
        <text x="7822.2" y="-12185.5" class="corner-label">6</text>
      </g>
      <g class="corner-marker" data-corner="7" data-length="26496.2">
        <circle cx="7960.5" cy="-13774.4" r="202.0" class="corner-bg"/>
        <text x="7960.5" y="-13774.4" class="corner-label">7</text>
      </g>
      <g class="corner-marker" data-corner="8" data-length="30418.1">
        <circle cx="4795.5" cy="-15569.2" r="202.0" class="corner-bg"/>
        <text x="4795.5" y="-15569.2" class="corner-label">8</text>
      </g>
      <g class="corner-marker" data-corner="9" data-length="32838.7">
        <circle cx="6124.0" cy="-13828.9" r="202.0" class="corner-bg"/>
        <text x="6124.0" y="-13828.9" class="corner-label">9</text>
      </g>
      <g class="corner-marker" data-corner="10" data-length="37995.5">
        <circle cx="4679.7" cy="-8919.3" r="202.0" class="corner-bg"/>
        <text x="4679.7" y="-8919.3" class="corner-label">10</text>
      </g>
      <g class="corner-marker" data-corner="11" data-length="40470.5">
        <circle cx="2442.8" cy="-8984.8" r="202.0" class="corner-bg"/>
        <text x="2442.8" y="-8984.8" class="corner-label">11</text>
      </g>
      <g class="corner-marker" data-corner="12" data-length="44680.7">
        <circle cx="765.8" cy="-12791.7" r="202.0" class="corner-bg"/>
        <text x="765.8" y="-12791.7" class="corner-label">12</text>
      </g>
      <g class="corner-marker" data-corner="13" data-length="46263.6">
        <circle cx="-711.8" cy="-12662.2" r="202.0" class="corner-bg"/>
        <text x="-711.8" y="-12662.2" class="corner-label">13</text>
      </g>
      <g class="corner-marker" data-corner="14" data-length="49217.3">
        <circle cx="-2527.1" cy="-14855.0" r="202.0" class="corner-bg"/>
        <text x="-2527.1" y="-14855.0" class="corner-label">14</text>
      </g>
      <g class="corner-marker" data-corner="15" data-length="51719.5">
        <circle cx="-4336.5" cy="-13437.9" r="202.0" class="corner-bg"/>
        <text x="-4336.5" y="-13437.9" class="corner-label">15</text>
      </g>
      <g class="corner-marker" data-corner="16" data-length="58927.0">
        <circle cx="370.3" cy="-8378.5" r="202.0" class="corner-bg"/>
        <text x="370.3" y="-8378.5" class="corner-label">16</text>
      </g>
      <g class="corner-marker" data-corner="17" data-length="61668.5">
        <circle cx="1346.1" cy="-5851.4" r="202.0" class="corner-bg"/>
        <text x="1346.1" y="-5851.4" class="corner-label">17</text>
      </g>
      <g class="corner-marker" data-corner="18" data-length="67042.8">
        <circle cx="24.8" cy="-701.6" r="202.0" class="corner-bg"/>
        <text x="24.8" y="-701.6" class="corner-label">18</text>
      </g>
      <g class="corner-marker" data-corner="19" data-length="67711.9">
        <circle cx="549.5" cy="-386.9" r="202.0" class="corner-bg"/>
        <text x="549.5" y="-386.9" class="corner-label">19</text>
      </g>
    </g>

    <g id="start-finish" data-track-x="-387.0" data-track-y="1235.0" data-lap-distance="69626.6">
      <polygon points="-283.9,394.3 -702.7,1025.6 -1081.5,774.4 -662.7,143.0" class="checker-border"/>
      <polygon points="-283.9,394.3 -367.7,520.5 -493.9,436.8 -410.2,310.5" class="checker-black"/>
      <polygon points="-410.2,310.5 -493.9,436.8 -620.2,353.0 -536.5,226.7" class="checker-white"/>
      <polygon points="-536.5,226.7 -620.2,353.0 -746.5,269.3 -662.7,143.0" class="checker-black"/>
      <polygon points="-367.7,520.5 -451.4,646.8 -577.7,563.0 -493.9,436.8" class="checker-white"/>
      <polygon points="-493.9,436.8 -577.7,563.0 -704.0,479.3 -620.2,353.0" class="checker-black"/>
      <polygon points="-620.2,353.0 -704.0,479.3 -830.2,395.5 -746.5,269.3" class="checker-white"/>
      <polygon points="-451.4,646.8 -535.2,773.1 -661.5,689.3 -577.7,563.0" class="checker-black"/>
      <polygon points="-577.7,563.0 -661.5,689.3 -787.7,605.6 -704.0,479.3" class="checker-white"/>
      <polygon points="-704.0,479.3 -787.7,605.6 -914.0,521.8 -830.2,395.5" class="checker-black"/>
      <polygon points="-535.2,773.1 -618.9,899.3 -745.2,815.6 -661.5,689.3" class="checker-white"/>
      <polygon points="-661.5,689.3 -745.2,815.6 -871.5,731.8 -787.7,605.6" class="checker-black"/>
      <polygon points="-787.7,605.6 -871.5,731.8 -997.7,648.1 -914.0,521.8" class="checker-white"/>
      <polygon points="-618.9,899.3 -702.7,1025.6 -829.0,941.9 -745.2,815.6" class="checker-black"/>
      <polygon points="-745.2,815.6 -829.0,941.9 -955.2,858.1 -871.5,731.8" class="checker-white"/>
      <polygon points="-871.5,731.8 -955.2,858.1 -1081.5,774.4 -997.7,648.1" class="checker-black"/>
      <polyline points="-1521.3,1391.8 -1450.4,1741.8 -1100.4,1670.9" class="chevron"/>
      <polyline points="-1633.0,1560.1 -1562.1,1910.2 -1212.1,1839.3" class="chevron"/>
      <polyline points="-1744.6,1728.5 -1673.8,2078.5 -1323.7,2007.7" class="chevron"/>
    </g>

    <g id="car-markers"></g>

  </g>
</svg>
