<?xml version="1.0" encoding="utf-8"?>
<?xml-stylesheet type="text/css" href="../../css/tracks.css"?>
<svg xmlns="http://www.w3.org/2000/svg" viewBox="-481.2 333.6 960.0 660.8">
  <title>Spielberg</title>

  <g id="track-root" transform="translate(0, 660.79) scale(1, -1) scale(0.063774) translate(2004.00, -1718.00) rotate(1, -2004.00, 1718.00)" data-scale="0.063774" data-rotation="1.0">

    <g id="track-outline">
      <path d="M -1927.0 -2032.2 L -2054.0 -2068.0 L -2225.0 -2114.0 L -2228.0 -2114.0 L -2364.0 -2152.0 L -2382.0 -2156.0 L -2475.0 -2181.0 L -2533.0 -2196.0 L -2562.0 -2203.0 L -2639.0 -2220.0 L -2675.0 -2227.0 L -2754.0 -2239.0 L -2801.0 -2244.0 L -2867.0 -2244.0 L -3009.0 -2224.0 L -3015.0 -2224.0 L -3052.0 -2214.0 L -3063.0 -2209.0 L -3123.0 -2178.0 L -3189.0 -2141.0 L -3235.0 -2104.0 L -3265.0 -2074.0 L -3298.0 -2033.0 L -3306.0 -2022.0 L -3346.0 -1953.0 L -3364.0 -1921.0 L -3433.0 -1788.0 L -3438.0 -1780.0 L -3477.0 -1709.0 L -3535.0 -1614.0 L -3563.0 -1572.0 L -3575.0 -1556.0 L -3617.0 -1495.0 L -3624.8 -1484.1" class="track-outline" data-sector="2"/>
      <path d="M -3624.8 -1484.1 L -3635.0 -1470.0 L -3680.0 -1403.0 L -3733.0 -1326.0 L -3740.0 -1315.0 L -3790.0 -1242.0 L -3853.0 -1146.0 L -3919.0 -1047.0 L -3950.0 -999.0 L -3973.0 -966.0 L -4009.0 -911.0 L -4083.0 -800.0 L -4099.0 -774.0 L -4168.0 -670.0 L -4211.0 -603.0 L -4218.0 -594.0 L -4352.0 -392.0 L -4362.0 -375.0 L -4426.0 -278.0 L -4435.0 -265.0 L -4491.0 -180.0 L -4521.0 -136.0 L -4647.0 55.0 L -4717.0 163.0 L -4789.0 275.0 L -4836.0 350.0 L -4853.0 377.0 L -4884.0 428.0 L -4922.0 491.0 L -4956.2 550.4" class="track-outline" data-sector="3"/>
      <path d="M -4956.2 550.4 L -4968.0 571.0 L -5012.0 647.0 L -5027.0 675.0 L -5091.0 792.0 L -5102.0 813.0 L -5253.0 1106.0 L -5262.0 1124.0 L -5313.0 1224.0 L -5344.0 1286.0 L -5393.0 1385.0 L -5429.0 1456.0 L -5466.0 1530.0 L -5486.0 1570.0 L -5550.0 1703.0 L -5556.0 1715.0 L -5605.0 1819.0 L -5646.0 1904.0 L -5702.0 2022.0 L -5718.0 2056.0 L -5769.0 2164.0 L -5805.0 2241.0 L -5832.0 2298.0 L -5895.0 2433.0 L -5931.0 2511.0 L -5980.0 2613.0 L -5988.0 2630.0 L -6099.0 2851.0 L -6179.0 2998.0 L -6189.0 3016.0 L -6258.0 3128.0 L -6314.0 3217.0 L -6359.0 3285.0 L -6389.0 3330.0 L -6435.0 3397.0 L -6514.0 3507.0 L -6541.5 3542.3" class="track-outline" data-sector="4"/>
      <path d="M -6541.5 3542.3 L -6571.0 3580.0 L -6697.0 3730.0 L -6777.0 3818.0 L -6855.0 3900.0 L -6895.0 3941.0 L -6979.0 4029.0 L -7015.0 4066.0 L -7078.0 4130.0 L -7102.0 4155.0 L -7219.0 4271.0 L -7309.0 4359.0 L -7453.0 4499.0 L -7553.0 4597.0 L -7599.2 4641.0" class="track-outline" data-sector="5"/>
      <path d="M -7599.2 4641.0 L -7614.0 4655.0 L -7752.0 4786.0 L -7763.0 4796.0 L -7805.0 4836.0 L -7846.0 4875.0 L -7891.0 4918.0 L -7910.0 4936.0 L -7999.0 5020.0 L -8018.0 5038.0 L -8050.0 5068.0 L -8078.0 5096.0 L -8078.0 5096.0 L -8134.0 5154.0 L -8135.0 5155.0 L -8189.0 5227.0 L -8190.0 5228.0 L -8215.0 5270.0 L -8223.0 5304.0 L -8224.0 5308.0 L -8233.0 5352.0 L -8231.0 5407.0 L -8230.0 5407.0 L -8217.0 5449.0 L -8198.0 5479.0 L -8194.0 5486.0 L -8176.0 5505.0 L -8168.0 5514.0 L -8149.0 5529.0 L -8124.0 5544.0 L -8094.0 5560.0 L -8089.0 5562.0 L -8064.0 5572.0 L -8035.0 5580.0 L -8017.0 5586.0 L -7999.0 5590.0 L -7976.0 5596.0 L -7917.0 5606.0 L -7912.0 5607.0 L -7833.0 5618.0 L -7800.0 5623.0 L -7764.0 5627.0 L -7729.0 5632.0 L -7716.0 5633.0 L -7693.0 5636.0 L -7603.0 5646.0 L -7563.0 5651.0 L -7512.0 5655.0 L -7482.0 5658.0 L -7464.6 5658.9" class="track-outline" data-sector="6"/>
      <path d="M -7464.6 5658.9 L -7427.0 5661.0 L -7410.0 5663.0 L -7306.0 5669.0 L -7285.0 5671.0 L -7179.0 5675.0 L -7137.0 5677.0 L -6994.0 5680.0 L -6991.0 5680.0 L -6889.0 5679.0 L -6858.0 5679.0 L -6790.0 5678.0 L -6782.0 5678.0 L -6592.0 5670.0 L -6589.0 5669.0 L -6462.0 5662.0 L -6299.0 5648.0 L -6265.0 5645.0 L -6157.0 5635.0 L -6049.0 5621.0 L -5850.0 5595.0 L -5828.0 5592.0 L -5675.0 5569.0 L -5622.0 5560.0 L -5522.0 5545.0 L -5466.0 5535.0 L -5449.0 5532.0 L -5240.0 5495.0 L -5222.0 5491.0 L -5066.0 5462.0 L -4960.0 5441.0 L -4905.0 5430.0 L -4801.0 5409.0 L -4783.0 5405.0 L -4652.0 5378.0 L -4587.0 5365.0 L -4393.0 5327.0 L -4225.0 5293.0 L -4080.0 5264.0 L -4045.0 5257.0 L -4002.0 5249.0 L -3844.0 5217.0 L -3728.0 5195.0 L -3636.0 5180.0 L -3567.0 5169.0 L -3501.8 5159.1" class="track-outline" data-sector="7"/>
      <path d="M -3501.8 5159.1 L -3442.0 5150.0 L -3311.0 5131.0 L -3241.0 5121.0 L -3130.0 5106.0 L -2946.0 5080.0 L -2941.0 5079.0 L -2775.0 5056.0 L -2762.0 5055.0 L -2605.0 5035.0 L -2558.0 5030.0 L -2404.0 5013.0 L -2357.0 5009.0 L -2267.0 5000.0 L -2219.0 4997.0 L -2027.0 4985.0 L -1997.0 4984.0 L -1851.0 4978.0 L -1803.0 4977.0 L -1675.0 4973.0 L -1662.0 4973.0 L -1534.0 4968.2" class="track-outline" data-sector="8"/>
      <path d="M -1534.0 4968.2 L -1477.0 4966.0 L -1383.0 4963.0 L -1339.0 4963.0 L -1166.0 4958.0 L -1074.0 4956.0 L -993.0 4953.0 L -926.0 4952.0 L -924.0 4951.0 L -826.0 4950.0 L -780.0 4949.0 L -733.0 4946.0 L -692.0 4944.0 L -617.0 4936.0 L -597.0 4933.0 L -547.0 4921.0 L -516.0 4911.0 L -495.0 4903.0 L -453.0 4885.0 L -423.0 4870.0 L -373.0 4838.0 L -365.0 4831.0 L -311.0 4777.0 L -298.0 4762.0 L -271.0 4710.0 L -266.0 4693.0 L -255.0 4652.0 L -251.0 4632.0 L -246.0 4581.0 L -244.0 4550.0 L -246.0 4500.0 L -248.0 4481.0 L -254.0 4454.0 L -262.0 4423.0 L -268.0 4407.0 L -288.0 4358.0 L -298.0 4336.0 L -355.0 4232.0 L -366.0 4213.0 L -465.0 4080.0 L -466.0 4078.0 L -495.0 4042.0 L -534.0 3998.0 L -546.0 3984.0 L -585.0 3943.0 L -600.0 3927.0 L -663.0 3868.0 L -672.0 3860.0 L -734.0 3809.0 L -769.0 3782.0 L -828.0 3741.0 L -892.0 3700.0 L -968.2 3656.8" class="track-outline" data-sector="9"/>
      <path d="M -968.2 3656.8 L -998.0 3640.0 L -1102.0 3588.0 L -1104.0 3586.0 L -1184.0 3549.0 L -1314.0 3505.0 L -1324.0 3503.0 L -1431.0 3473.0 L -1577.0 3436.0 L -1621.0 3425.0 L -1741.0 3407.0 L -1804.0 3400.0 L -1869.0 3396.0 L -2019.0 3393.0 L -2096.0 3397.0 L -2123.0 3399.0 L -2125.0 3399.0 L -2328.0 3418.0 L -2395.0 3426.0 L -2488.0 3437.0 L -2533.0 3445.0 L -2600.0 3455.0 L -2751.0 3480.0 L -2783.0 3486.0 L -2948.0 3517.0 L -2994.0 3526.0 L -3025.7 3532.0" class="track-outline" data-sector="10"/>
      <path d="M -3025.7 3532.0 L -3073.0 3541.0 L -3136.0 3553.0 L -3176.0 3560.0 L -3293.0 3582.0 L -3362.0 3593.0 L -3491.0 3614.0 L -3556.0 3622.0 L -3709.0 3639.0 L -3754.0 3641.0 L -3833.0 3645.0 L -3886.0 3645.0 L -3951.0 3642.0 L -4078.0 3626.0 L -4122.0 3621.0 L -4216.0 3607.0 L -4320.0 3564.0 L -4399.0 3520.0 L -4498.0 3462.0 L -4539.0 3434.0 L -4576.0 3391.0 L -4577.0 3389.0 L -4656.0 3294.0 L -4668.0 3275.0 L -4683.0 3250.0 L -4710.0 3190.0 L -4750.0 3081.0 L -4761.0 3050.0 L -4777.0 2984.0 L -4783.0 2881.0 L -4783.0 2858.0 L -4785.0 2784.0 L -4784.0 2771.0 L -4777.0 2676.0 L -4774.0 2658.0 L -4739.0 2483.0 L -4733.0 2455.0 L -4647.0 2224.0 L -4645.0 2220.0 L -4616.0 2160.0 L -4558.0 2061.0 L -4454.0 1890.0 L -4451.0 1886.0 L -4392.0 1790.0 L -4359.0 1737.0 L -4345.2 1714.8" class="track-outline" data-sector="11"/>
      <path d="M -4345.2 1714.8 L -4241.0 1547.0 L -4230.0 1530.0 L -4143.0 1399.0 L -4113.0 1357.0 L -4048.0 1270.0 L -4006.0 1218.0 L -3970.0 1178.0 L -3836.0 1047.0 L -3814.0 1027.0 L -3746.0 978.0 L -3741.0 975.0 L -3622.0 907.0 L -3608.0 900.0 L -3519.0 868.0 L -3419.0 850.0 L -3333.0 846.0 L -3326.0 847.0 L -3237.0 857.0 L -3122.0 887.0 L -3052.0 910.0 L -2977.0 939.0 L -2878.0 1001.0 L -2865.0 1008.0 L -2848.0 1020.0 L -2771.0 1077.0 L -2664.0 1168.0 L -2634.0 1195.0 L -2495.0 1320.0 L -2476.0 1336.0 L -2429.0 1380.0 L -2353.0 1449.0 L -2239.0 1554.0 L -2217.0 1573.0 L -2161.0 1621.0 L -2149.0 1632.0 L -2035.0 1724.0 L -1998.0 1751.0 L -1939.1 1791.1" class="track-outline" data-sector="12"/>
      <path d="M -1939.1 1791.1 L -1901.0 1817.0 L -1888.0 1825.0 L -1761.0 1898.0 L -1695.0 1924.0 L -1520.0 1981.0 L -1484.0 1991.0 L -1405.0 2010.0 L -1335.0 2017.0 L -1252.0 2024.0 L -1058.0 2042.0 L -1012.0 2045.0 L -918.0 2046.0 L -910.0 2047.0 L -686.0 2053.0 L -622.0 2054.0 L -566.0 2056.0 L -354.0 2059.0 L -350.0 2059.0 L -186.0 2062.0 L -159.0 2062.0 L 30.0 2064.0 L 171.9 2064.8" class="track-outline" data-sector="13"/>
      <path d="M 171.9 2064.8 L 216.0 2065.0 L 342.0 2066.0 L 374.0 2066.0 L 448.0 2066.0 L 627.0 2068.0 L 660.0 2068.0 L 924.0 2072.0 L 1048.0 2073.0 L 1121.0 2075.0 L 1134.0 2076.0 L 1345.0 2081.0 L 1426.0 2083.0 L 1562.0 2086.0 L 1671.0 2090.0 L 1674.0 2090.0 L 1803.0 2095.0 L 1840.0 2096.0 L 1970.0 2100.0 L 2033.0 2102.0 L 2177.1 2106.3" class="track-outline" data-sector="14"/>
      <path d="M 2177.1 2106.3 L 2199.0 2107.0 L 2203.0 2107.0 L 2335.0 2111.0 L 2365.0 2112.0 L 2503.0 2114.0 L 2532.0 2115.0 L 2660.0 2115.0 L 2688.0 2115.0 L 2798.0 2112.0 L 2910.0 2106.0 L 3031.0 2097.0 L 3057.0 2095.0 L 3196.0 2073.0 L 3278.0 2053.0 L 3301.0 2048.0 L 3376.0 2024.0 L 3412.0 2010.0 L 3572.0 1923.0 L 3620.0 1892.0 L 3679.0 1845.0 L 3730.0 1790.0 L 3774.0 1740.0 L 3796.0 1714.0 L 3844.0 1650.0 L 3913.0 1524.0 L 3930.0 1492.0 L 3964.0 1416.0 L 3973.0 1348.0 L 3975.0 1341.0 L 4011.0 1195.0 L 4014.0 1185.0 L 4049.0 1036.0 L 4060.0 991.0 L 4083.0 885.0 L 4087.0 872.0 L 4097.1 838.5" class="track-outline" data-sector="15"/>
      <path d="M 4097.1 838.5 L 4153.0 653.0 L 4167.0 607.0 L 4183.0 558.0 L 4189.0 535.0 L 4198.0 497.0 L 4222.0 359.0 L 4224.0 312.0 L 4225.0 302.0 L 4215.0 169.0 L 4214.0 166.0 L 4200.0 78.0 L 4196.0 63.0 L 4145.0 -86.0 L 4121.0 -138.0 L 4103.0 -168.0 L 4018.0 -267.0 L 4016.0 -268.0 L 3961.0 -313.0 L 3928.0 -336.0 L 3863.0 -372.0 L 3763.0 -424.0 L 3713.0 -448.0 L 3700.0 -453.0 L 3599.0 -498.0 L 3589.0 -503.0 L 3374.0 -587.0 L 3365.0 -591.0 L 3269.0 -621.0 L 3259.0 -625.0 L 3169.0 -652.0 L 3165.0 -652.0 L 2951.0 -712.0 L 2913.0 -723.0 L 2864.0 -735.0 L 2811.0 -749.0 L 2756.0 -762.0 L 2617.0 -799.0 L 2613.0 -799.0 L 2443.0 -845.0 L 2378.0 -863.0 L 2273.0 -891.0 L 2075.0 -946.0 L 2072.0 -946.0 L 1999.0 -966.0 L 1907.0 -991.0 L 1848.0 -1006.0 L 1778.0 -1026.0 L 1664.0 -1057.0 L 1644.0 -1062.0 L 1481.0 -1105.0 L 1470.0 -1109.0 L 1338.7 -1144.8" class="track-outline" data-sector="16"/>
      <path d="M 1338.7 -1144.8 L 1305.0 -1154.0 L 1287.0 -1158.0 L 1160.0 -1193.0 L 1119.0 -1204.0 L 1102.0 -1207.0 L 1072.0 -1216.0 L 993.0 -1237.0 L 923.0 -1257.0 L 844.0 -1277.0 L 743.0 -1305.0 L 724.0 -1309.0 L 592.0 -1346.0 L 481.0 -1375.0 L 439.0 -1387.0 L 346.0 -1412.0 L 235.0 -1442.0 L 82.0 -1484.0 L 25.0 -1499.0 L -86.0 -1529.0 L -184.0 -1556.0 L -326.0 -1594.0 L -331.0 -1595.0 L -581.0 -1663.0 L -699.0 -1694.0 L -741.0 -1706.0 L -886.0 -1745.0 L -1037.0 -1786.0 L -1129.0 -1811.0 L -1275.0 -1851.0 L -1298.0 -1857.0 L -1432.0 -1895.0 L -1454.0 -1901.0 L -1612.0 -1945.0 L -1648.0 -1954.0 L -1875.0 -2018.0 L -1912.0 -2028.0 L -1927.0 -2032.2" class="track-outline" data-sector="1"/>
    </g>

    <g id="track-sectors">
      <path d="M -1927.0 -2032.2 L -2054.0 -2068.0 L -2225.0 -2114.0 L -2228.0 -2114.0 L -2364.0 -2152.0 L -2382.0 -2156.0 L -2475.0 -2181.0 L -2533.0 -2196.0 L -2562.0 -2203.0 L -2639.0 -2220.0 L -2675.0 -2227.0 L -2754.0 -2239.0 L -2801.0 -2244.0 L -2867.0 -2244.0 L -3009.0 -2224.0 L -3015.0 -2224.0 L -3052.0 -2214.0 L -3063.0 -2209.0 L -3123.0 -2178.0 L -3189.0 -2141.0 L -3235.0 -2104.0 L -3265.0 -2074.0 L -3298.0 -2033.0 L -3306.0 -2022.0 L -3346.0 -1953.0 L -3364.0 -1921.0 L -3433.0 -1788.0 L -3438.0 -1780.0 L -3477.0 -1709.0 L -3535.0 -1614.0 L -3563.0 -1572.0 L -3575.0 -1556.0 L -3617.0 -1495.0 L -3624.8 -1484.1" class="track" data-sector="2"/>
      <path d="M -3624.8 -1484.1 L -3635.0 -1470.0 L -3680.0 -1403.0 L -3733.0 -1326.0 L -3740.0 -1315.0 L -3790.0 -1242.0 L -3853.0 -1146.0 L -3919.0 -1047.0 L -3950.0 -999.0 L -3973.0 -966.0 L -4009.0 -911.0 L -4083.0 -800.0 L -4099.0 -774.0 L -4168.0 -670.0 L -4211.0 -603.0 L -4218.0 -594.0 L -4352.0 -392.0 L -4362.0 -375.0 L -4426.0 -278.0 L -4435.0 -265.0 L -4491.0 -180.0 L -4521.0 -136.0 L -4647.0 55.0 L -4717.0 163.0 L -4789.0 275.0 L -4836.0 350.0 L -4853.0 377.0 L -4884.0 428.0 L -4922.0 491.0 L -4956.2 550.4" class="track" data-sector="3"/>
      <path d="M -4956.2 550.4 L -4968.0 571.0 L -5012.0 647.0 L -5027.0 675.0 L -5091.0 792.0 L -5102.0 813.0 L -5253.0 1106.0 L -5262.0 1124.0 L -5313.0 1224.0 L -5344.0 1286.0 L -5393.0 1385.0 L -5429.0 1456.0 L -5466.0 1530.0 L -5486.0 1570.0 L -5550.0 1703.0 L -5556.0 1715.0 L -5605.0 1819.0 L -5646.0 1904.0 L -5702.0 2022.0 L -5718.0 2056.0 L -5769.0 2164.0 L -5805.0 2241.0 L -5832.0 2298.0 L -5895.0 2433.0 L -5931.0 2511.0 L -5980.0 2613.0 L -5988.0 2630.0 L -6099.0 2851.0 L -6179.0 2998.0 L -6189.0 3016.0 L -6258.0 3128.0 L -6314.0 3217.0 L -6359.0 3285.0 L -6389.0 3330.0 L -6435.0 3397.0 L -6514.0 3507.0 L -6541.5 3542.3" class="track" data-sector="4"/>
      <path d="M -6541.5 3542.3 L -6571.0 3580.0 L -6697.0 3730.0 L -6777.0 3818.0 L -6855.0 3900.0 L -6895.0 3941.0 L -6979.0 4029.0 L -7015.0 4066.0 L -7078.0 4130.0 L -7102.0 4155.0 L -7219.0 4271.0 L -7309.0 4359.0 L -7453.0 4499.0 L -7553.0 4597.0 L -7599.2 4641.0" class="track" data-sector="5"/>
      <path d="M -7599.2 4641.0 L -7614.0 4655.0 L -7752.0 4786.0 L -7763.0 4796.0 L -7805.0 4836.0 L -7846.0 4875.0 L -7891.0 4918.0 L -7910.0 4936.0 L -7999.0 5020.0 L -8018.0 5038.0 L -8050.0 5068.0 L -8078.0 5096.0 L -8078.0 5096.0 L -8134.0 5154.0 L -8135.0 5155.0 L -8189.0 5227.0 L -8190.0 5228.0 L -8215.0 5270.0 L -8223.0 5304.0 L -8224.0 5308.0 L -8233.0 5352.0 L -8231.0 5407.0 L -8230.0 5407.0 L -8217.0 5449.0 L -8198.0 5479.0 L -8194.0 5486.0 L -8176.0 5505.0 L -8168.0 5514.0 L -8149.0 5529.0 L -8124.0 5544.0 L -8094.0 5560.0 L -8089.0 5562.0 L -8064.0 5572.0 L -8035.0 5580.0 L -8017.0 5586.0 L -7999.0 5590.0 L -7976.0 5596.0 L -7917.0 5606.0 L -7912.0 5607.0 L -7833.0 5618.0 L -7800.0 5623.0 L -7764.0 5627.0 L -7729.0 5632.0 L -7716.0 5633.0 L -7693.0 5636.0 L -7603.0 5646.0 L -7563.0 5651.0 L -7512.0 5655.0 L -7482.0 5658.0 L -7464.6 5658.9" class="track" data-sector="6"/>
      <path d="M -7464.6 5658.9 L -7427.0 5661.0 L -7410.0 5663.0 L -7306.0 5669.0 L -7285.0 5671.0 L -7179.0 5675.0 L -7137.0 5677.0 L -6994.0 5680.0 L -6991.0 5680.0 L -6889.0 5679.0 L -6858.0 5679.0 L -6790.0 5678.0 L -6782.0 5678.0 L -6592.0 5670.0 L -6589.0 5669.0 L -6462.0 5662.0 L -6299.0 5648.0 L -6265.0 5645.0 L -6157.0 5635.0 L -6049.0 5621.0 L -5850.0 5595.0 L -5828.0 5592.0 L -5675.0 5569.0 L -5622.0 5560.0 L -5522.0 5545.0 L -5466.0 5535.0 L -5449.0 5532.0 L -5240.0 5495.0 L -5222.0 5491.0 L -5066.0 5462.0 L -4960.0 5441.0 L -4905.0 5430.0 L -4801.0 5409.0 L -4783.0 5405.0 L -4652.0 5378.0 L -4587.0 5365.0 L -4393.0 5327.0 L -4225.0 5293.0 L -4080.0 5264.0 L -4045.0 5257.0 L -4002.0 5249.0 L -3844.0 5217.0 L -3728.0 5195.0 L -3636.0 5180.0 L -3567.0 5169.0 L -3501.8 5159.1" class="track" data-sector="7"/>
      <path d="M -3501.8 5159.1 L -3442.0 5150.0 L -3311.0 5131.0 L -3241.0 5121.0 L -3130.0 5106.0 L -2946.0 5080.0 L -2941.0 5079.0 L -2775.0 5056.0 L -2762.0 5055.0 L -2605.0 5035.0 L -2558.0 5030.0 L -2404.0 5013.0 L -2357.0 5009.0 L -2267.0 5000.0 L -2219.0 4997.0 L -2027.0 4985.0 L -1997.0 4984.0 L -1851.0 4978.0 L -1803.0 4977.0 L -1675.0 4973.0 L -1662.0 4973.0 L -1534.0 4968.2" class="track" data-sector="8"/>
      <path d="M -1534.0 4968.2 L -1477.0 4966.0 L -1383.0 4963.0 L -1339.0 4963.0 L -1166.0 4958.0 L -1074.0 4956.0 L -993.0 4953.0 L -926.0 4952.0 L -924.0 4951.0 L -826.0 4950.0 L -780.0 4949.0 L -733.0 4946.0 L -692.0 4944.0 L -617.0 4936.0 L -597.0 4933.0 L -547.0 4921.0 L -516.0 4911.0 L -495.0 4903.0 L -453.0 4885.0 L -423.0 4870.0 L -373.0 4838.0 L -365.0 4831.0 L -311.0 4777.0 L -298.0 4762.0 L -271.0 4710.0 L -266.0 4693.0 L -255.0 4652.0 L -251.0 4632.0 L -246.0 4581.0 L -244.0 4550.0 L -246.0 4500.0 L -248.0 4481.0 L -254.0 4454.0 L -262.0 4423.0 L -268.0 4407.0 L -288.0 4358.0 L -298.0 4336.0 L -355.0 4232.0 L -366.0 4213.0 L -465.0 4080.0 L -466.0 4078.0 L -495.0 4042.0 L -534.0 3998.0 L -546.0 3984.0 L -585.0 3943.0 L -600.0 3927.0 L -663.0 3868.0 L -672.0 3860.0 L -734.0 3809.0 L -769.0 3782.0 L -828.0 3741.0 L -892.0 3700.0 L -968.2 3656.8" class="track" data-sector="9"/>
      <path d="M -968.2 3656.8 L -998.0 3640.0 L -1102.0 3588.0 L -1104.0 3586.0 L -1184.0 3549.0 L -1314.0 3505.0 L -1324.0 3503.0 L -1431.0 3473.0 L -1577.0 3436.0 L -1621.0 3425.0 L -1741.0 3407.0 L -1804.0 3400.0 L -1869.0 3396.0 L -2019.0 3393.0 L -2096.0 3397.0 L -2123.0 3399.0 L -2125.0 3399.0 L -2328.0 3418.0 L -2395.0 3426.0 L -2488.0 3437.0 L -2533.0 3445.0 L -2600.0 3455.0 L -2751.0 3480.0 L -2783.0 3486.0 L -2948.0 3517.0 L -2994.0 3526.0 L -3025.7 3532.0" class="track" data-sector="10"/>
      <path d="M -3025.7 3532.0 L -3073.0 3541.0 L -3136.0 3553.0 L -3176.0 3560.0 L -3293.0 3582.0 L -3362.0 3593.0 L -3491.0 3614.0 L -3556.0 3622.0 L -3709.0 3639.0 L -3754.0 3641.0 L -3833.0 3645.0 L -3886.0 3645.0 L -3951.0 3642.0 L -4078.0 3626.0 L -4122.0 3621.0 L -4216.0 3607.0 L -4320.0 3564.0 L -4399.0 3520.0 L -4498.0 3462.0 L -4539.0 3434.0 L -4576.0 3391.0 L -4577.0 3389.0 L -4656.0 3294.0 L -4668.0 3275.0 L -4683.0 3250.0 L -4710.0 3190.0 L -4750.0 3081.0 L -4761.0 3050.0 L -4777.0 2984.0 L -4783.0 2881.0 L -4783.0 2858.0 L -4785.0 2784.0 L -4784.0 2771.0 L -4777.0 2676.0 L -4774.0 2658.0 L -4739.0 2483.0 L -4733.0 2455.0 L -4647.0 2224.0 L -4645.0 2220.0 L -4616.0 2160.0 L -4558.0 2061.0 L -4454.0 1890.0 L -4451.0 1886.0 L -4392.0 1790.0 L -4359.0 1737.0 L -4345.2 1714.8" class="track" data-sector="11"/>
      <path d="M -4345.2 1714.8 L -4241.0 1547.0 L -4230.0 1530.0 L -4143.0 1399.0 L -4113.0 1357.0 L -4048.0 1270.0 L -4006.0 1218.0 L -3970.0 1178.0 L -3836.0 1047.0 L -3814.0 1027.0 L -3746.0 978.0 L -3741.0 975.0 L -3622.0 907.0 L -3608.0 900.0 L -3519.0 868.0 L -3419.0 850.0 L -3333.0 846.0 L -3326.0 847.0 L -3237.0 857.0 L -3122.0 887.0 L -3052.0 910.0 L -2977.0 939.0 L -2878.0 1001.0 L -2865.0 1008.0 L -2848.0 1020.0 L -2771.0 1077.0 L -2664.0 1168.0 L -2634.0 1195.0 L -2495.0 1320.0 L -2476.0 1336.0 L -2429.0 1380.0 L -2353.0 1449.0 L -2239.0 1554.0 L -2217.0 1573.0 L -2161.0 1621.0 L -2149.0 1632.0 L -2035.0 1724.0 L -1998.0 1751.0 L -1939.1 1791.1" class="track" data-sector="12"/>
      <path d="M -1939.1 1791.1 L -1901.0 1817.0 L -1888.0 1825.0 L -1761.0 1898.0 L -1695.0 1924.0 L -1520.0 1981.0 L -1484.0 1991.0 L -1405.0 2010.0 L -1335.0 2017.0 L -1252.0 2024.0 L -1058.0 2042.0 L -1012.0 2045.0 L -918.0 2046.0 L -910.0 2047.0 L -686.0 2053.0 L -622.0 2054.0 L -566.0 2056.0 L -354.0 2059.0 L -350.0 2059.0 L -186.0 2062.0 L -159.0 2062.0 L 30.0 2064.0 L 171.9 2064.8" class="track" data-sector="13"/>
      <path d="M 171.9 2064.8 L 216.0 2065.0 L 342.0 2066.0 L 374.0 2066.0 L 448.0 2066.0 L 627.0 2068.0 L 660.0 2068.0 L 924.0 2072.0 L 1048.0 2073.0 L 1121.0 2075.0 L 1134.0 2076.0 L 1345.0 2081.0 L 1426.0 2083.0 L 1562.0 2086.0 L 1671.0 2090.0 L 1674.0 2090.0 L 1803.0 2095.0 L 1840.0 2096.0 L 1970.0 2100.0 L 2033.0 2102.0 L 2177.1 2106.3" class="track" data-sector="14"/>
      <path d="M 2177.1 2106.3 L 2199.0 2107.0 L 2203.0 2107.0 L 2335.0 2111.0 L 2365.0 2112.0 L 2503.0 2114.0 L 2532.0 2115.0 L 2660.0 2115.0 L 2688.0 2115.0 L 2798.0 2112.0 L 2910.0 2106.0 L 3031.0 2097.0 L 3057.0 2095.0 L 3196.0 2073.0 L 3278.0 2053.0 L 3301.0 2048.0 L 3376.0 2024.0 L 3412.0 2010.0 L 3572.0 1923.0 L 3620.0 1892.0 L 3679.0 1845.0 L 3730.0 1790.0 L 3774.0 1740.0 L 3796.0 1714.0 L 3844.0 1650.0 L 3913.0 1524.0 L 3930.0 1492.0 L 3964.0 1416.0 L 3973.0 1348.0 L 3975.0 1341.0 L 4011.0 1195.0 L 4014.0 1185.0 L 4049.0 1036.0 L 4060.0 991.0 L 4083.0 885.0 L 4087.0 872.0 L 4097.1 838.5" class="track" data-sector="15"/>
      <path d="M 4097.1 838.5 L 4153.0 653.0 L 4167.0 607.0 L 4183.0 558.0 L 4189.0 535.0 L 4198.0 497.0 L 4222.0 359.0 L 4224.0 312.0 L 4225.0 302.0 L 4215.0 169.0 L 4214.0 166.0 L 4200.0 78.0 L 4196.0 63.0 L 4145.0 -86.0 L 4121.0 -138.0 L 4103.0 -168.0 L 4018.0 -267.0 L 4016.0 -268.0 L 3961.0 -313.0 L 3928.0 -336.0 L 3863.0 -372.0 L 3763.0 -424.0 L 3713.0 -448.0 L 3700.0 -453.0 L 3599.0 -498.0 L 3589.0 -503.0 L 3374.0 -587.0 L 3365.0 -591.0 L 3269.0 -621.0 L 3259.0 -625.0 L 3169.0 -652.0 L 3165.0 -652.0 L 2951.0 -712.0 L 2913.0 -723.0 L 2864.0 -735.0 L 2811.0 -749.0 L 2756.0 -762.0 L 2617.0 -799.0 L 2613.0 -799.0 L 2443.0 -845.0 L 2378.0 -863.0 L 2273.0 -891.0 L 2075.0 -946.0 L 2072.0 -946.0 L 1999.0 -966.0 L 1907.0 -991.0 L 1848.0 -1006.0 L 1778.0 -1026.0 L 1664.0 -1057.0 L 1644.0 -1062.0 L 1481.0 -1105.0 L 1470.0 -1109.0 L 1338.7 -1144.8" class="track" data-sector="16"/>
      <path d="M 1338.7 -1144.8 L 1305.0 -1154.0 L 1287.0 -1158.0 L 1160.0 -1193.0 L 1119.0 -1204.0 L 1102.0 -1207.0 L 1072.0 -1216.0 L 993.0 -1237.0 L 923.0 -1257.0 L 844.0 -1277.0 L 743.0 -1305.0 L 724.0 -1309.0 L 592.0 -1346.0 L 481.0 -1375.0 L 439.0 -1387.0 L 346.0 -1412.0 L 235.0 -1442.0 L 82.0 -1484.0 L 25.0 -1499.0 L -86.0 -1529.0 L -184.0 -1556.0 L -326.0 -1594.0 L -331.0 -1595.0 L -581.0 -1663.0 L -699.0 -1694.0 L -741.0 -1706.0 L -886.0 -1745.0 L -1037.0 -1786.0 L -1129.0 -1811.0 L -1275.0 -1851.0 L -1298.0 -1857.0 L -1432.0 -1895.0 L -1454.0 -1901.0 L -1612.0 -1945.0 L -1648.0 -1954.0 L -1875.0 -2018.0 L -1912.0 -2028.0 L -1927.0 -2032.2" class="track" data-sector="1"/>
    </g>

    <g id="marshal-lights">
      <g class="marshal-light-marker" data-light="1">
        <rect x="1675.1" y="-1082.5" width="78.4" height="78.4" class="marshal-light-bg"/>
        <text x="1714.3" y="-1043.3" class="marshal-light-label">1</text>
      </g>
      <g class="marshal-light-marker" data-light="2">
        <rect x="-1869.3" y="-2044.5" width="78.4" height="78.4" class="marshal-light-bg"/>
        <text x="-1830.1" y="-2005.3" class="marshal-light-label">2</text>
      </g>
      <g class="marshal-light-marker" data-light="3">
        <rect x="-3646.7" y="-1548.0" width="78.4" height="78.4" class="marshal-light-bg"/>
        <text x="-3607.5" y="-1508.8" class="marshal-light-label">3</text>
      </g>
      <g class="marshal-light-marker" data-light="4">
        <rect x="-5042.4" y="592.5" width="78.4" height="78.4" class="marshal-light-bg"/>
        <text x="-5003.2" y="631.7" class="marshal-light-label">4</text>
      </g>
      <g class="marshal-light-marker" data-light="5">
        <rect x="-6485.4" y="3373.4" width="78.4" height="78.4" class="marshal-light-bg"/>
        <text x="-6446.2" y="3412.6" class="marshal-light-label">5</text>
      </g>
      <g class="marshal-light-marker" data-light="6">
        <rect x="-7561.1" y="4527.3" width="78.4" height="78.4" class="marshal-light-bg"/>
        <text x="-7521.9" y="4566.5" class="marshal-light-label">6</text>
      </g>
      <g class="marshal-light-marker" data-light="7">
        <rect x="-7363.3" y="5628.8" width="78.4" height="78.4" class="marshal-light-bg"/>
        <text x="-7324.1" y="5668.0" class="marshal-light-label">7</text>
      </g>
      <g class="marshal-light-marker" data-light="8">
        <rect x="-4144.8" y="5229.9" width="78.4" height="78.4" class="marshal-light-bg"/>
        <text x="-4105.6" y="5269.1" class="marshal-light-label">8</text>
      </g>
      <g class="marshal-light-marker" data-light="9">
        <rect x="-1479.3" y="4925.6" width="78.4" height="78.4" class="marshal-light-bg"/>
        <text x="-1440.1" y="4964.8" class="marshal-light-label">9</text>
      </g>
      <g class="marshal-light-marker" data-light="10">
        <rect x="-897.6" y="3682.3" width="78.4" height="78.4" class="marshal-light-bg"/>
        <text x="-858.4" y="3721.5" class="marshal-light-label">10</text>
      </g>
      <g class="marshal-light-marker" data-light="11">
        <rect x="-2926.5" y="3466.4" width="78.4" height="78.4" class="marshal-light-bg"/>
        <text x="-2887.3" y="3505.6" class="marshal-light-label">11</text>
      </g>
      <g class="marshal-light-marker" data-light="12">
        <rect x="-4363.2" y="1641.4" width="78.4" height="78.4" class="marshal-light-bg"/>
        <text x="-4324.0" y="1680.6" class="marshal-light-label">12</text>
      </g>
      <g class="marshal-light-marker" data-light="13">
        <rect x="-1992.2" y="1742.4" width="78.4" height="78.4" class="marshal-light-bg"/>
        <text x="-1953.0" y="1781.6" class="marshal-light-label">13</text>
      </g>
      <g class="marshal-light-marker" data-light="14">
        <rect x="226.6" y="2026.2" width="78.4" height="78.4" class="marshal-light-bg"/>
        <text x="265.8" y="2065.4" class="marshal-light-label">14</text>
      </g>
      <g class="marshal-light-marker" data-light="15">
        <rect x="2161.4" y="2067.8" width="78.4" height="78.4" class="marshal-light-bg"/>
        <text x="2200.6" y="2107.0" class="marshal-light-label">15</text>
      </g>
      <g class="marshal-light-marker" data-light="16">
        <rect x="4077.3" y="735.0" width="78.4" height="78.4" class="marshal-light-bg"/>
        <text x="4116.5" y="774.2" class="marshal-light-label">16</text>
      </g>
    </g>

    <g id="marshal-sectors">
      <g class="marshal-sector-marker" data-sector="1" data-length="42689.3">
        <polygon points="1338.7,-1238.9 1257.3,-1097.8 1420.2,-1097.8" class="marshal-sector-bg"/>
        <text x="1338.7" y="-1144.8" class="marshal-sector-label">1</text>
      </g>
      <g class="marshal-sector-marker" data-sector="2" data-length="3139.6">
        <polygon points="-1927.0,-2126.3 -2008.5,-1985.2 -1845.6,-1985.2" class="marshal-sector-bg"/>
        <text x="-1927.0" y="-2032.2" class="marshal-sector-label">2</text>
      </g>
      <g class="marshal-sector-marker" data-sector="3" data-length="5242.7">
        <polygon points="-3624.8,-1578.2 -3706.3,-1437.1 -3543.4,-1437.1" class="marshal-sector-bg"/>
        <text x="-3624.8" y="-1484.1" class="marshal-sector-label">3</text>
      </g>
      <g class="marshal-sector-marker" data-sector="4" data-length="7674.5">
        <polygon points="-4956.2,456.3 -5037.6,597.5 -4874.7,597.5" class="marshal-sector-bg"/>
        <text x="-4956.2" y="550.4" class="marshal-sector-label">4</text>
      </g>
      <g class="marshal-sector-marker" data-sector="5" data-length="11065.6">
        <polygon points="-6541.5,3448.2 -6623.0,3589.3 -6460.1,3589.3" class="marshal-sector-bg"/>
        <text x="-6541.5" y="3542.3" class="marshal-sector-label">5</text>
      </g>
      <g class="marshal-sector-marker" data-sector="6" data-length="12591.8">
        <polygon points="-7599.2,4546.9 -7680.7,4688.0 -7517.8,4688.0" class="marshal-sector-bg"/>
        <text x="-7599.2" y="4641.0" class="marshal-sector-label">6</text>
      </g>
      <g class="marshal-sector-marker" data-sector="7" data-length="14466.8">
        <polygon points="-7464.6,5564.9 -7546.1,5706.0 -7383.2,5706.0" class="marshal-sector-bg"/>
        <text x="-7464.6" y="5658.9" class="marshal-sector-label">7</text>
      </g>
      <g class="marshal-sector-marker" data-sector="8" data-length="18475.1">
        <polygon points="-3501.8,5065.0 -3583.3,5206.1 -3420.3,5206.1" class="marshal-sector-bg"/>
        <text x="-3501.8" y="5159.1" class="marshal-sector-label">8</text>
      </g>
      <g class="marshal-sector-marker" data-sector="9" data-length="20454.1">
        <polygon points="-1534.0,4874.1 -1615.5,5015.2 -1452.5,5015.2" class="marshal-sector-bg"/>
        <text x="-1534.0" y="4968.2" class="marshal-sector-label">9</text>
      </g>
      <g class="marshal-sector-marker" data-sector="10" data-length="23157.6">
        <polygon points="-968.2,3562.8 -1049.7,3703.9 -886.8,3703.9" class="marshal-sector-bg"/>
        <text x="-968.2" y="3656.8" class="marshal-sector-label">10</text>
      </g>
      <g class="marshal-sector-marker" data-sector="11" data-length="25270.8">
        <polygon points="-3025.7,3437.9 -3107.2,3579.1 -2944.2,3579.1" class="marshal-sector-bg"/>
        <text x="-3025.7" y="3532.0" class="marshal-sector-label">11</text>
      </g>
      <g class="marshal-sector-marker" data-sector="12" data-length="28729.0">
        <polygon points="-4345.2,1620.7 -4426.7,1761.9 -4263.8,1761.9" class="marshal-sector-bg"/>
        <text x="-4345.2" y="1714.8" class="marshal-sector-label">12</text>
      </g>
      <g class="marshal-sector-marker" data-sector="13" data-length="31841.7">
        <polygon points="-1939.1,1697.0 -2020.6,1838.1 -1857.6,1838.1" class="marshal-sector-bg"/>
        <text x="-1939.1" y="1791.1" class="marshal-sector-label">13</text>
      </g>
      <g class="marshal-sector-marker" data-sector="14" data-length="34001.9">
        <polygon points="171.9,1970.7 90.4,2111.8 253.4,2111.8" class="marshal-sector-bg"/>
        <text x="171.9" y="2064.8" class="marshal-sector-label">14</text>
      </g>
      <g class="marshal-sector-marker" data-sector="15" data-length="36007.7">
        <polygon points="2177.1,2012.3 2095.7,2153.4 2258.6,2153.4" class="marshal-sector-bg"/>
        <text x="2177.1" y="2106.3" class="marshal-sector-label">15</text>
      </g>
      <g class="marshal-sector-marker" data-sector="16" data-length="38681.0">
        <polygon points="4097.1,744.4 4015.6,885.5 4178.6,885.5" class="marshal-sector-bg"/>
        <text x="4097.1" y="838.5" class="marshal-sector-label">16</text>
      </g>
    </g>

    <g id="corners">
      <g class="corner-marker" data-corner="1" data-length="4306.8">
        <circle cx="-3064.0" cy="-2208.5" r="125.4" class="corner-bg"/>
        <text x="-3064.0" y="-2208.5" class="corner-label">1</text>
      </g>
      <g class="corner-marker" data-corner="2" data-length="10669.8">
        <circle cx="-6314.7" cy="3218.1" r="125.4" class="corner-bg"/>
        <text x="-6314.7" y="3218.1" class="corner-label">2</text>
      </g>
      <g class="corner-marker" data-corner="3" data-length="13671.9">
        <circle cx="-8209.9" cy="5460.2" r="125.4" class="corner-bg"/>
        <text x="-8209.9" y="5460.2" class="corner-label">3</text>
      </g>
      <g class="corner-marker" data-corner="4" data-length="21819.3">
        <circle cx="-266.4" cy="4694.3" r="125.4" class="corner-bg"/>
        <text x="-266.4" y="4694.3" class="corner-label">4</text>
      </g>
      <g class="corner-marker" data-corner="5" data-length="23701.0">
        <circle cx="-1473.0" cy="3462.3" r="125.4" class="corner-bg"/>
        <text x="-1473.0" y="3462.3" class="corner-label">5</text>
      </g>
      <g class="corner-marker" data-corner="6" data-length="26984.8">
        <circle cx="-4632.1" cy="3322.7" r="125.4" class="corner-bg"/>
        <text x="-4632.1" y="3322.7" class="corner-label">6</text>
      </g>
      <g class="corner-marker" data-corner="7" data-length="30188.1">
        <circle cx="-3272.0" cy="853.1" r="125.4" class="corner-bg"/>
        <text x="-3272.0" y="853.1" class="corner-label">7</text>
      </g>
      <g class="corner-marker" data-corner="8" data-length="32200.6">
        <circle cx="-1618.8" cy="1948.8" r="125.4" class="corner-bg"/>
        <text x="-1618.8" y="1948.8" class="corner-label">8</text>
      </g>
      <g class="corner-marker" data-corner="9" data-length="37557.4">
        <circle cx="3669.9" cy="1852.3" r="125.4" class="corner-bg"/>
        <text x="3669.9" y="1852.3" class="corner-label">9</text>
      </g>
      <g class="corner-marker" data-corner="10" data-length="39452.5">
        <circle cx="4201.2" cy="85.4" r="125.4" class="corner-bg"/>
        <text x="4201.2" y="85.4" class="corner-label">10</text>
      </g>
    </g>

    <g id="start-finish" data-track-x="1102.0" data-track-y="-1207.0" data-lap-distance="42934.2">
      <polygon points="1617.6,-1310.9 1163.6,-1434.0 1237.4,-1706.4 1691.4,-1583.3" class="checker-border"/>
      <polygon points="1617.6,-1310.9 1526.8,-1335.5 1551.4,-1426.3 1642.2,-1401.7" class="checker-black"/>
      <polygon points="1642.2,-1401.7 1551.4,-1426.3 1576.0,-1517.1 1666.8,-1492.5" class="checker-white"/>
      <polygon points="1666.8,-1492.5 1576.0,-1517.1 1600.6,-1607.9 1691.4,-1583.3" class="checker-black"/>
      <polygon points="1526.8,-1335.5 1436.0,-1360.1 1460.6,-1450.9 1551.4,-1426.3" class="checker-white"/>
      <polygon points="1551.4,-1426.3 1460.6,-1450.9 1485.2,-1541.7 1576.0,-1517.1" class="checker-black"/>
      <polygon points="1576.0,-1517.1 1485.2,-1541.7 1509.8,-1632.5 1600.6,-1607.9" class="checker-white"/>
      <polygon points="1436.0,-1360.1 1345.2,-1384.8 1369.8,-1475.6 1460.6,-1450.9" class="checker-black"/>
      <polygon points="1460.6,-1450.9 1369.8,-1475.6 1394.4,-1566.4 1485.2,-1541.7" class="checker-white"/>
      <polygon points="1485.2,-1541.7 1394.4,-1566.4 1419.0,-1657.2 1509.8,-1632.5" class="checker-black"/>
      <polygon points="1345.2,-1384.8 1254.4,-1409.4 1279.0,-1500.2 1369.8,-1475.6" class="checker-white"/>
      <polygon points="1369.8,-1475.6 1279.0,-1500.2 1303.6,-1591.0 1394.4,-1566.4" class="checker-black"/>
      <polygon points="1394.4,-1566.4 1303.6,-1591.0 1328.2,-1681.8 1419.0,-1657.2" class="checker-white"/>
      <polygon points="1254.4,-1409.4 1163.6,-1434.0 1188.2,-1524.8 1279.0,-1500.2" class="checker-black"/>
      <polygon points="1279.0,-1500.2 1188.2,-1524.8 1212.8,-1615.6 1303.6,-1591.0" class="checker-white"/>
      <polygon points="1303.6,-1591.0 1212.8,-1615.6 1237.4,-1706.4 1328.2,-1681.8" class="checker-black"/>
      <polyline points="787.5,-1844.7 595.1,-1734.4 705.4,-1542.0" class="chevron"/>
      <polyline points="666.4,-1877.5 474.1,-1767.2 584.4,-1574.8" class="chevron"/>
      <polyline points="545.4,-1910.3 353.0,-1800.0 463.3,-1607.6" class="chevron"/>
    </g>

    <g id="car-markers"></g>

  </g>
</svg>
