<?xml version="1.0" encoding="utf-8"?>
<?xml-stylesheet type="text/css" href="../../css/tracks.css"?>
<svg xmlns="http://www.w3.org/2000/svg" viewBox="-465.9 341.2 960.0 594.0">
  <title>Yas Marina Circuit</title>

  <g id="track-root" transform="translate(0, 594.03) scale(1, -1) scale(0.049091) translate(-1812.00, -3211.50) rotate(280, 1812.00, 3211.50)" data-scale="0.049091" data-rotation="280.0">

    <g id="track-outline">
      <path d="M 3718.3 2444.7 L 3738.0 2448.0 L 3837.0 2464.0 L 3859.0 2469.0 L 3958.0 2491.0 L 3969.0 2494.0 L 4068.0 2525.0 L 4069.0 2526.0 L 4156.0 2567.0 L 4162.0 2571.0 L 4231.0 2621.0 L 4242.0 2631.0 L 4293.0 2688.0 L 4306.0 2707.0 L 4339.0 2765.0 L 4351.0 2794.0 L 4369.0 2850.0 L 4378.0 2888.0 L 4386.0 2937.0 L 4390.0 2985.0 L 4392.0 3027.0 L 4391.0 3085.0 L 4390.0 3121.0 L 4385.0 3191.0 L 4383.0 3219.0 L 4375.0 3302.0 L 4373.0 3322.0 L 4361.0 3415.0 L 4360.0 3426.0 L 4346.0 3537.0 L 4346.0 3538.0 L 4330.0 3653.0 L 4328.0 3663.0 L 4311.0 3773.0 L 4306.0 3795.0 L 4286.0 3896.0 L 4281.0 3917.0 L 4269.0 3967.0 L 4258.0 4007.0 L 4234.0 4096.0 L 4223.0 4132.0 L 4194.0 4226.0 L 4178.0 4274.0 L 4151.0 4359.0 L 4130.0 4420.0 L 4105.0 4493.0 L 4080.1 4560.2" class="track-outline" data-sector="2"/>
      <path d="M 4080.1 4560.2 L 4078.0 4566.0 L 4056.0 4627.0 L 4020.0 4710.0 L 4004.0 4747.0 L 3949.0 4850.0 L 3935.0 4873.0 L 3857.0 4977.0 L 3848.0 4988.0 L 3741.0 5087.0 L 3741.0 5088.0 L 3615.0 5171.0 L 3603.0 5177.0 L 3476.0 5237.0 L 3450.0 5247.0 L 3331.0 5293.0 L 3291.0 5306.0 L 3185.0 5344.0 L 3132.0 5362.0 L 3039.0 5398.0 L 2974.0 5423.0 L 2896.0 5457.0 L 2819.0 5492.0 L 2756.0 5526.0 L 2647.0 5592.0 L 2624.0 5609.0 L 2512.0 5698.0 L 2502.0 5708.0 L 2395.0 5823.0 L 2395.0 5824.0 L 2288.0 5978.0 L 2280.0 5990.0 L 2260.4 6032.0" class="track-outline" data-sector="3"/>
      <path d="M 2260.4 6032.0 L 2219.0 6121.0 L 2209.0 6147.0 L 2171.0 6273.0 L 2162.0 6314.0 L 2147.0 6431.0 L 2144.0 6488.0 L 2146.0 6593.0 L 2151.0 6666.0 L 2162.0 6757.0 L 2173.0 6844.0 L 2185.0 6918.0 L 2201.0 7019.0 L 2212.0 7078.0 L 2232.0 7193.0 L 2240.0 7238.0 L 2262.0 7368.0 L 2268.0 7399.0 L 2294.0 7545.0 L 2297.0 7561.0 L 2325.0 7724.0 L 2350.0 7874.0 L 2353.0 7889.0 L 2379.0 8055.0 L 2379.0 8055.0 L 2401.0 8222.0 L 2402.0 8237.0 L 2416.0 8390.0 L 2417.0 8421.0 L 2422.0 8544.0 L 2422.0 8605.0 L 2421.3 8678.3" class="track-outline" data-sector="4"/>
      <path d="M 2421.3 8678.3 L 2421.0 8715.0 L 2419.0 8792.0 L 2417.0 8887.0 L 2413.0 8980.0 L 2411.0 9059.0 L 2407.0 9166.0 L 2405.0 9231.0 L 2399.0 9360.0 L 2398.0 9403.0 L 2395.0 9500.0 L 2395.0 9526.0 L 2387.0 9682.0 L 2387.0 9700.0 L 2379.0 9872.0 L 2379.0 9873.0 L 2369.0 10048.0 L 2367.0 10063.0 L 2356.0 10222.0 L 2353.0 10252.0 L 2343.0 10397.0 L 2342.7 10400.3" class="track-outline" data-sector="5"/>
      <path d="M 2342.7 10400.3 L 2339.0 10443.0 L 2328.0 10571.0 L 2322.0 10632.0 L 2313.0 10737.0 L 2306.0 10805.0 L 2299.0 10884.0 L 2290.0 10957.0 L 2283.0 11017.0 L 2272.0 11095.0 L 2266.0 11135.0 L 2255.0 11192.0 L 2251.0 11214.0 L 2233.0 11289.0 L 2229.0 11307.0 L 2205.0 11384.0 L 2203.0 11392.0 L 2173.0 11468.0 L 2173.0 11469.0 L 2138.0 11539.0 L 2134.0 11544.0 L 2097.0 11602.0 L 2089.0 11612.0 L 2050.0 11658.0 L 2036.0 11671.0 L 1997.0 11704.0 L 1976.0 11718.0 L 1940.0 11741.0 L 1923.0 11749.0 L 1879.0 11765.0 L 1856.0 11770.0 L 1817.0 11774.0 L 1788.0 11773.0 L 1755.0 11768.0 L 1722.0 11758.0 L 1697.0 11748.0 L 1661.0 11730.0 L 1647.0 11721.0 L 1605.0 11689.0 L 1596.0 11681.0 L 1553.0 11638.0 L 1549.0 11634.0 L 1505.0 11579.0 L 1505.0 11579.0 L 1464.0 11517.0 L 1460.0 11511.0 L 1428.0 11448.0 L 1421.0 11434.0 L 1394.0 11370.0 L 1379.0 11332.0 L 1363.0 11285.0 L 1346.0 11235.0 L 1334.0 11192.0 L 1317.0 11130.0 L 1308.0 11094.0 L 1290.0 11018.0 L 1284.0 10989.0 L 1266.0 10898.0 L 1262.0 10877.0 L 1242.0 10771.0 L 1240.0 10760.0 L 1217.0 10639.0 L 1217.0 10639.0 L 1191.0 10516.0 L 1188.0 10505.0 L 1159.0 10389.0 L 1152.0 10366.0 L 1121.0 10261.0 L 1110.0 10226.0 L 1079.0 10130.0 L 1062.0 10082.0 L 1043.9 10029.5" class="track-outline" data-sector="6"/>
      <path d="M 1043.9 10029.5 L 1033.0 9998.0 L 1011.0 9937.0 L 985.0 9864.0 L 958.0 9790.0 L 936.0 9728.0 L 903.0 9641.0 L 885.0 9590.0 L 848.0 9489.0 L 835.0 9450.0 L 792.0 9334.0 L 783.0 9308.0 L 735.0 9176.0 L 730.0 9163.0 L 677.0 9015.0 L 676.0 9014.0 L 622.0 8863.0 L 616.0 8848.0 L 567.0 8713.0 L 556.0 8684.0 L 512.0 8560.0 L 496.0 8517.0 L 456.0 8406.0 L 435.0 8348.0 L 404.0 8264.0 L 372.0 8178.0 L 347.0 8106.0 L 310.0 8005.0 L 289.0 7947.0 L 247.0 7831.0 L 231.0 7787.0 L 183.0 7655.0 L 172.0 7625.0 L 118.0 7477.0 L 113.0 7462.0 L 53.0 7298.0 L 53.0 7298.0 L -6.0 7132.0 L -11.0 7117.0 L -66.0 6966.0 L -76.0 6936.0 L -127.0 6798.0 L -143.0 6752.0 L -188.0 6629.0 L -210.0 6568.0 L -250.0 6460.0 L -277.0 6383.0 L -312.0 6289.0 L -345.0 6196.0 L -374.0 6118.0 L -413.0 6009.0 L -436.0 5946.0 L -481.0 5820.0 L -499.0 5773.0 L -550.0 5632.0 L -562.0 5600.0 L -618.0 5442.0 L -625.0 5426.0 L -687.0 5251.0 L -688.0 5251.0 L -752.0 5075.0 L -757.0 5059.0 L -816.0 4900.0 L -827.0 4868.0 L -880.0 4724.0 L -897.0 4676.0 L -944.0 4547.0 L -966.0 4483.0 L -1008.0 4370.0 L -1036.0 4290.0 L -1072.0 4193.0 L -1107.0 4096.0 L -1120.4 4060.2" class="track-outline" data-sector="7"/>
      <path d="M -1120.4 4060.2 L -1137.0 4016.0 L -1166.0 3934.0 L -1201.0 3838.0 L -1236.0 3740.0 L -1266.0 3660.0 L -1307.0 3545.0 L -1331.0 3481.0 L -1378.0 3350.0 L -1396.0 3303.0 L -1449.0 3156.0 L -1455.0 3140.0 L -1520.0 2961.0 L -1585.0 2782.0 L -1602.0 2733.0 L -1650.0 2602.0 L -1671.0 2542.0 L -1710.0 2437.0 L -1738.0 2356.0 L -1775.0 2257.0 L -1809.0 2163.0 L -1840.0 2084.0 L -1894.0 1937.0 L -1907.0 1904.0 L -1961.0 1748.0 L -1967.0 1733.0 L -2015.0 1581.0 L -2016.0 1581.0 L -2058.0 1444.0 L -2061.0 1433.0 L -2090.0 1327.0 L -2094.0 1307.0 L -2113.0 1224.0 L -2118.0 1197.0 L -2130.0 1128.0 L -2135.0 1096.0 L -2144.0 1045.0 L -2149.0 1011.0 L -2156.0 972.0 L -2162.0 934.0 L -2167.0 905.0 L -2173.0 866.0 L -2173.1 865.2" class="track-outline" data-sector="8"/>
      <path d="M -2173.1 865.2 L -2176.0 845.0 L -2180.0 803.0 L -2181.0 789.0 L -2179.0 748.0 L -2179.0 740.0 L -2171.0 698.0 L -2170.0 694.0 L -2150.0 655.0 L -2150.0 655.0 L -2119.0 626.0 L -2115.0 624.0 L -2079.0 610.0 L -2071.0 608.0 L -2035.0 604.0 L -2022.0 603.0 L -1990.0 605.0 L -1981.0 605.0 L -1945.0 608.0 L -1931.0 609.0 L -1896.0 613.0 L -1877.0 614.0 L -1844.0 617.0 L -1818.0 619.0 L -1786.0 622.0 L -1752.0 624.0 L -1729.0 626.0 L -1681.0 627.0 L -1665.0 627.0 L -1618.0 616.0 L -1609.0 612.0 L -1571.0 575.0 L -1568.0 570.0 L -1544.0 508.0 L -1544.0 508.0 L -1528.0 439.0 L -1526.0 433.0 L -1512.0 371.0 L -1508.0 358.0 L -1494.0 302.0 L -1489.0 282.0 L -1475.0 229.0 L -1467.0 202.0 L -1454.0 153.0 L -1443.0 114.0 L -1431.0 69.0 L -1419.0 30.0 L -1410.0 -4.0 L -1393.0 -62.0 L -1383.0 -99.0 L -1361.0 -172.0 L -1353.0 -201.0 L -1318.0 -305.0 L -1318.0 -306.0 L -1278.0 -414.0 L -1274.0 -423.0 L -1232.0 -525.0 L -1223.0 -544.0 L -1180.0 -638.0 L -1165.0 -668.0 L -1123.0 -752.0 L -1089.0 -815.0 L -1061.0 -870.0 L -1019.0 -944.0 L -996.5 -985.2" class="track-outline" data-sector="9"/>
      <path d="M -996.5 -985.2 L -995.0 -988.0 L -943.0 -1073.0 L -923.0 -1107.0 L -860.0 -1203.0 L -846.0 -1226.0 L -770.0 -1333.0 L -762.0 -1345.0 L -672.0 -1461.0 L -672.0 -1462.0 L -575.0 -1578.0 L -565.0 -1589.0 L -472.0 -1692.0 L -452.0 -1712.0 L -363.0 -1802.0 L -331.0 -1832.0 L -247.0 -1911.0 L -203.0 -1950.0 L -127.0 -2017.0 L -70.0 -2065.0 L -14.0 -2114.0 L 65.0 -2181.0 L 111.0 -2220.0 L 203.0 -2297.0 L 238.0 -2327.0 L 342.0 -2415.0 L 367.0 -2436.0 L 484.0 -2535.0 L 497.0 -2546.0 L 627.0 -2656.0 L 628.0 -2657.0 L 761.0 -2769.0 L 796.0 -2798.0 L 895.0 -2881.0 L 943.0 -2921.0 L 1030.0 -2995.0 L 1090.0 -3046.0 L 1165.0 -3110.0 L 1238.0 -3172.0 L 1302.0 -3226.0 L 1342.5 -3260.0" class="track-outline" data-sector="10"/>
      <path d="M 1342.5 -3260.0 L 1414.0 -3320.0 L 1440.0 -3342.0 L 1565.0 -3447.0 L 1579.0 -3459.0 L 1718.0 -3575.0 L 1719.0 -3576.0 L 1863.0 -3695.0 L 1875.0 -3705.0 L 2007.0 -3811.0 L 2032.0 -3831.0 L 2154.0 -3923.0 L 2193.0 -3952.0 L 2304.0 -4033.0 L 2358.0 -4071.0 L 2457.0 -4140.0 L 2526.0 -4186.0 L 2613.0 -4243.0 L 2699.0 -4298.0 L 2773.0 -4344.0 L 2874.0 -4405.0 L 2934.0 -4440.0 L 3053.0 -4506.0 L 3100.0 -4531.0 L 3237.0 -4600.0 L 3269.0 -4616.0 L 3425.0 -4688.0 L 3442.0 -4696.0 L 3617.0 -4774.0 L 3617.0 -4774.0 L 3805.0 -4857.0 L 3822.0 -4864.0 L 3984.0 -4935.0 L 4014.0 -4947.0 L 4145.0 -5001.0 L 4225.0 -5032.0 L 4320.0 -5069.0 L 4406.0 -5102.0 L 4461.0 -5124.0 L 4565.0 -5164.0 L 4602.0 -5179.0 L 4704.0 -5219.0 L 4726.0 -5228.0 L 4830.0 -5268.0 L 4841.0 -5273.0 L 4947.0 -5312.0 L 4948.0 -5313.0 L 4976.1 -5320.7" class="track-outline" data-sector="11"/>
      <path d="M 4976.1 -5320.7 L 5046.0 -5340.0 L 5054.0 -5341.0 L 5143.0 -5351.0 L 5160.0 -5350.0 L 5241.0 -5342.0 L 5267.0 -5336.0 L 5337.0 -5318.0 L 5370.0 -5306.0 L 5428.0 -5283.0 L 5466.0 -5264.0 L 5512.0 -5239.0 L 5554.0 -5209.0 L 5588.0 -5184.0 L 5628.0 -5147.0 L 5656.0 -5117.0 L 5723.0 -5024.0 L 5744.0 -4991.0 L 5776.0 -4915.0 L 5781.0 -4899.0 L 5800.0 -4810.0 L 5802.0 -4801.0 L 5805.0 -4702.0 L 5805.0 -4702.0 L 5792.0 -4603.0 L 5790.0 -4594.0 L 5765.0 -4506.0" class="track-outline" data-sector="12"/>
      <path d="M 5765.0 -4506.0 L 5758.0 -4488.0 L 5725.0 -4411.0 L 5712.0 -4386.0 L 5673.0 -4321.0 L 5651.0 -4289.0 L 5610.0 -4234.0 L 5577.0 -4196.0 L 5536.0 -4152.0 L 5491.0 -4109.0 L 5452.0 -4075.0 L 5393.0 -4029.0 L 5357.0 -4005.0 L 5281.0 -3959.0 L 5252.0 -3944.0 L 5179.0 -3909.0 L 5138.0 -3892.0 L 5051.0 -3860.0 L 5016.0 -3850.0 L 4888.0 -3816.0 L 4860.0 -3809.0 L 4712.0 -3774.0 L 4700.0 -3772.0 L 4578.0 -3748.0 L 4565.0 -3745.0 L 4440.0 -3724.0 L 4414.0 -3720.0 L 4298.0 -3705.0 L 4258.0 -3700.0 L 4154.0 -3690.0 L 4101.0 -3685.0 L 4007.0 -3678.0 L 3939.0 -3672.0 L 3857.0 -3666.0 L 3775.0 -3660.0 L 3706.0 -3655.0 L 3610.0 -3647.0 L 3554.0 -3643.0 L 3442.0 -3634.0 L 3399.0 -3631.0 L 3279.6 -3619.7" class="track-outline" data-sector="13"/>
      <path d="M 3279.6 -3619.7 L 3272.0 -3619.0 L 3243.0 -3617.0 L 3101.0 -3599.0 L 3087.0 -3597.0 L 2934.0 -3565.0 L 2934.0 -3565.0 L 2784.0 -3514.0 L 2771.0 -3508.0 L 2637.0 -3444.0 L 2611.0 -3430.0 L 2494.0 -3363.0 L 2455.0 -3340.0 L 2351.0 -3275.0 L 2301.0 -3241.0 L 2217.0 -3181.0 L 2157.0 -3136.0 L 2086.0 -3081.0 L 2017.0 -3024.0 L 1962.0 -2975.0 L 1944.3 -2957.5" class="track-outline" data-sector="14"/>
      <path d="M 1944.3 -2957.5 L 1891.0 -2905.0 L 1855.0 -2862.0 L 1792.0 -2771.0 L 1771.0 -2734.0 L 1718.0 -2618.0 L 1708.0 -2592.0 L 1668.0 -2461.0 L 1665.0 -2448.0 L 1632.0 -2318.0 L 1632.0 -2318.0 L 1603.0 -2201.0 L 1600.0 -2191.0 L 1582.0 -2098.0 L 1581.0 -2097.0 L 1571.0 -2001.0 L 1570.0 -1991.0 L 1570.0 -1909.0 L 1570.0 -1892.0 L 1573.0 -1824.0 L 1574.0 -1801.0 L 1579.0 -1746.0 L 1581.0 -1719.0 L 1586.0 -1681.0 L 1592.0 -1644.0 L 1599.0 -1615.0 L 1608.1 -1584.6" class="track-outline" data-sector="15"/>
      <path d="M 1608.1 -1584.6 L 1611.0 -1575.0 L 1620.0 -1555.0 L 1642.0 -1517.0 L 1652.0 -1505.0 L 1686.0 -1473.0 L 1696.0 -1467.0 L 1748.0 -1443.0 L 1754.0 -1441.0 L 1820.0 -1423.0 L 1831.0 -1420.0 L 1887.0 -1411.0 L 1905.0 -1408.0 L 1958.0 -1406.0 L 1984.0 -1406.0 L 2033.0 -1411.0 L 2068.0 -1415.0 L 2112.0 -1421.0 L 2156.0 -1425.0 L 2195.0 -1428.0 L 2247.0 -1427.0 L 2278.0 -1425.0 L 2334.0 -1411.0 L 2356.0 -1404.0 L 2414.0 -1376.0 L 2428.0 -1369.0 L 2489.0 -1330.0 L 2496.0 -1326.0 L 2558.0 -1277.0 L 2559.0 -1277.0" class="track-outline" data-sector="16"/>
      <path d="M 2559.0 -1277.0 L 2618.0 -1225.0 L 2622.0 -1220.0 L 2670.0 -1167.0 L 2678.0 -1155.0 L 2711.0 -1101.0 L 2719.0 -1081.0 L 2740.0 -1026.0 L 2747.0 -996.0 L 2757.0 -942.0 L 2762.0 -902.0 L 2768.0 -853.0 L 2772.0 -803.0 L 2775.0 -760.0 L 2777.0 -699.0 L 2778.0 -663.0 L 2776.0 -590.0 L 2774.0 -563.0 L 2765.0 -500.0 L 2759.0 -469.0 L 2742.0 -412.0 L 2735.0 -392.0 L 2705.0 -327.0 L 2698.0 -314.0 L 2652.0 -250.0 L 2648.0 -245.0 L 2638.7 -235.5" class="track-outline" data-sector="17"/>
      <path d="M 2638.7 -235.5 L 2596.0 -192.0 L 2590.0 -187.0 L 2536.0 -141.0 L 2524.0 -132.0 L 2470.0 -97.0 L 2451.0 -85.0 L 2399.0 -59.0 L 2371.0 -47.0 L 2320.0 -31.0 L 2282.0 -21.0 L 2234.0 -13.0 L 2184.0 -8.0 L 2141.0 -7.0 L 2079.0 -7.0 L 2043.0 -10.0 L 1970.0 -16.0 L 1942.0 -20.0 L 1855.0 -31.0 L 1835.0 -34.0 L 1725.0 -51.0 L 1716.0 -52.0 L 1625.0 -67.0 L 1605.0 -69.0 L 1506.0 -83.0 L 1472.0 -87.0 L 1382.0 -99.0 L 1336.0 -105.0 L 1254.0 -116.0 L 1195.0 -123.0 L 1123.0 -134.0 L 1051.0 -146.0 L 990.0 -158.0 L 903.0 -174.0 L 853.0 -185.0 L 752.0 -205.0 L 714.0 -213.0 L 599.0 -235.0 L 573.0 -241.0 L 442.0 -266.0 L 429.0 -269.0 L 286.0 -286.0 L 286.0 -287.0 L 145.0 -278.0 L 132.0 -275.0 L 11.9 -241.6" class="track-outline" data-sector="18"/>
      <path d="M 11.9 -241.6 L -1.0 -238.0 L -27.0 -228.0 L -146.0 -179.0 L -183.0 -161.0 L -278.0 -108.0 L -300.0 -93.0 L -393.0 -24.0 L -421.0 2.0 L -490.0 80.0 L -522.0 124.0 L -576.0 205.0 L -612.0 264.0 L -655.0 334.0 L -697.0 405.0 L -726.0 452.0 L -782.0 545.0 L -804.0 581.0 L -882.0 712.0 L -956.0 847.0 L -962.0 859.0 L -1017.0 981.0 L -1026.0 1004.0 L -1063.0 1107.0 L -1072.0 1139.0 L -1095.0 1224.0 L -1103.0 1263.0 L -1114.0 1333.0 L -1118.0 1380.0 L -1120.0 1436.0 L -1119.0 1488.0 L -1117.0 1533.0 L -1110.0 1593.0 L -1106.0 1622.0 L -1098.0 1657.0 L -1094.0 1672.0 L -1070.0 1733.0 L -1064.0 1748.0 L -1031.5 1798.1" class="track-outline" data-sector="19"/>
      <path d="M -1031.5 1798.1 L -1027.0 1805.0 L -1023.0 1811.0 L -968.0 1861.0 L -956.0 1868.0 L -902.0 1898.0 L -883.0 1906.0 L -830.0 1925.0 L -800.0 1933.0 L -754.0 1945.0 L -739.0 1948.0 L -722.0 1952.0 L -681.0 1961.0 L -639.0 1971.0 L -583.0 1982.0 L -551.0 1989.0 L -483.0 2000.0 L -457.0 2005.0 L -374.0 2014.0 L -355.0 2016.0 L -256.0 2022.0 L -246.0 2023.0 L -132.0 2029.0 L -23.0 2033.0 L -13.0 2034.0 L 107.8 2040.9" class="track-outline" data-sector="20"/>
      <path d="M 107.8 2040.9 L 110.0 2041.0 L 110.0 2041.0 L 237.0 2048.0 L 249.0 2048.0 L 369.0 2055.0 L 393.0 2057.0 L 503.0 2071.0 L 521.0 2073.0 L 508.0 2070.0 L 597.0 2083.0 L 622.0 2086.0 L 739.0 2101.0 L 777.0 2105.0 L 882.0 2117.0 L 934.0 2123.0 L 1029.0 2134.0 L 1095.0 2141.0 L 1178.0 2150.0 L 1259.0 2159.0 L 1329.0 2168.0 L 1425.0 2178.0 L 1482.0 2185.0 L 1594.0 2198.0 L 1637.0 2203.0 L 1763.0 2216.0 L 1795.0 2220.0 L 1957.0 2239.0 L 1974.0 2241.0 L 2134.0 2259.0 L 2281.0 2275.0 L 2296.0 2277.0 L 2460.0 2296.0 L 2460.0 2296.0 L 2624.0 2314.0 L 2639.0 2315.0 L 2790.0 2333.0 L 2820.0 2336.0 L 2942.0 2350.0 L 3001.0 2356.0 L 3109.0 2369.0 L 3184.0 2377.0 L 3278.0 2388.0 L 3369.0 2398.0 L 3446.0 2408.0 L 3546.0 2419.0 L 3602.0 2427.0 L 3702.0 2442.0 L 3718.3 2444.7" class="track-outline" data-sector="1"/>
    </g>

    <g id="track-sectors">
      <path d="M 3718.3 2444.7 L 3738.0 2448.0 L 3837.0 2464.0 L 3859.0 2469.0 L 3958.0 2491.0 L 3969.0 2494.0 L 4068.0 2525.0 L 4069.0 2526.0 L 4156.0 2567.0 L 4162.0 2571.0 L 4231.0 2621.0 L 4242.0 2631.0 L 4293.0 2688.0 L 4306.0 2707.0 L 4339.0 2765.0 L 4351.0 2794.0 L 4369.0 2850.0 L 4378.0 2888.0 L 4386.0 2937.0 L 4390.0 2985.0 L 4392.0 3027.0 L 4391.0 3085.0 L 4390.0 3121.0 L 4385.0 3191.0 L 4383.0 3219.0 L 4375.0 3302.0 L 4373.0 3322.0 L 4361.0 3415.0 L 4360.0 3426.0 L 4346.0 3537.0 L 4346.0 3538.0 L 4330.0 3653.0 L 4328.0 3663.0 L 4311.0 3773.0 L 4306.0 3795.0 L 4286.0 3896.0 L 4281.0 3917.0 L 4269.0 3967.0 L 4258.0 4007.0 L 4234.0 4096.0 L 4223.0 4132.0 L 4194.0 4226.0 L 4178.0 4274.0 L 4151.0 4359.0 L 4130.0 4420.0 L 4105.0 4493.0 L 4080.1 4560.2" class="track" data-sector="2"/>
      <path d="M 4080.1 4560.2 L 4078.0 4566.0 L 4056.0 4627.0 L 4020.0 4710.0 L 4004.0 4747.0 L 3949.0 4850.0 L 3935.0 4873.0 L 3857.0 4977.0 L 3848.0 4988.0 L 3741.0 5087.0 L 3741.0 5088.0 L 3615.0 5171.0 L 3603.0 5177.0 L 3476.0 5237.0 L 3450.0 5247.0 L 3331.0 5293.0 L 3291.0 5306.0 L 3185.0 5344.0 L 3132.0 5362.0 L 3039.0 5398.0 L 2974.0 5423.0 L 2896.0 5457.0 L 2819.0 5492.0 L 2756.0 5526.0 L 2647.0 5592.0 L 2624.0 5609.0 L 2512.0 5698.0 L 2502.0 5708.0 L 2395.0 5823.0 L 2395.0 5824.0 L 2288.0 5978.0 L 2280.0 5990.0 L 2260.4 6032.0" class="track" data-sector="3"/>
      <path d="M 2260.4 6032.0 L 2219.0 6121.0 L 2209.0 6147.0 L 2171.0 6273.0 L 2162.0 6314.0 L 2147.0 6431.0 L 2144.0 6488.0 L 2146.0 6593.0 L 2151.0 6666.0 L 2162.0 6757.0 L 2173.0 6844.0 L 2185.0 6918.0 L 2201.0 7019.0 L 2212.0 7078.0 L 2232.0 7193.0 L 2240.0 7238.0 L 2262.0 7368.0 L 2268.0 7399.0 L 2294.0 7545.0 L 2297.0 7561.0 L 2325.0 7724.0 L 2350.0 7874.0 L 2353.0 7889.0 L 2379.0 8055.0 L 2379.0 8055.0 L 2401.0 8222.0 L 2402.0 8237.0 L 2416.0 8390.0 L 2417.0 8421.0 L 2422.0 8544.0 L 2422.0 8605.0 L 2421.3 8678.3" class="track" data-sector="4"/>
      <path d="M 2421.3 8678.3 L 2421.0 8715.0 L 2419.0 8792.0 L 2417.0 8887.0 L 2413.0 8980.0 L 2411.0 9059.0 L 2407.0 9166.0 L 2405.0 9231.0 L 2399.0 9360.0 L 2398.0 9403.0 L 2395.0 9500.0 L 2395.0 9526.0 L 2387.0 9682.0 L 2387.0 9700.0 L 2379.0 9872.0 L 2379.0 9873.0 L 2369.0 10048.0 L 2367.0 10063.0 L 2356.0 10222.0 L 2353.0 10252.0 L 2343.0 10397.0 L 2342.7 10400.3" class="track" data-sector="5"/>
      <path d="M 2342.7 10400.3 L 2339.0 10443.0 L 2328.0 10571.0 L 2322.0 10632.0 L 2313.0 10737.0 L 2306.0 10805.0 L 2299.0 10884.0 L 2290.0 10957.0 L 2283.0 11017.0 L 2272.0 11095.0 L 2266.0 11135.0 L 2255.0 11192.0 L 2251.0 11214.0 L 2233.0 11289.0 L 2229.0 11307.0 L 2205.0 11384.0 L 2203.0 11392.0 L 2173.0 11468.0 L 2173.0 11469.0 L 2138.0 11539.0 L 2134.0 11544.0 L 2097.0 11602.0 L 2089.0 11612.0 L 2050.0 11658.0 L 2036.0 11671.0 L 1997.0 11704.0 L 1976.0 11718.0 L 1940.0 11741.0 L 1923.0 11749.0 L 1879.0 11765.0 L 1856.0 11770.0 L 1817.0 11774.0 L 1788.0 11773.0 L 1755.0 11768.0 L 1722.0 11758.0 L 1697.0 11748.0 L 1661.0 11730.0 L 1647.0 11721.0 L 1605.0 11689.0 L 1596.0 11681.0 L 1553.0 11638.0 L 1549.0 11634.0 L 1505.0 11579.0 L 1505.0 11579.0 L 1464.0 11517.0 L 1460.0 11511.0 L 1428.0 11448.0 L 1421.0 11434.0 L 1394.0 11370.0 L 1379.0 11332.0 L 1363.0 11285.0 L 1346.0 11235.0 L 1334.0 11192.0 L 1317.0 11130.0 L 1308.0 11094.0 L 1290.0 11018.0 L 1284.0 10989.0 L 1266.0 10898.0 L 1262.0 10877.0 L 1242.0 10771.0 L 1240.0 10760.0 L 1217.0 10639.0 L 1217.0 10639.0 L 1191.0 10516.0 L 1188.0 10505.0 L 1159.0 10389.0 L 1152.0 10366.0 L 1121.0 10261.0 L 1110.0 10226.0 L 1079.0 10130.0 L 1062.0 10082.0 L 1043.9 10029.5" class="track" data-sector="6"/>
      <path d="M 1043.9 10029.5 L 1033.0 9998.0 L 1011.0 9937.0 L 985.0 9864.0 L 958.0 9790.0 L 936.0 9728.0 L 903.0 9641.0 L 885.0 9590.0 L 848.0 9489.0 L 835.0 9450.0 L 792.0 9334.0 L 783.0 9308.0 L 735.0 9176.0 L 730.0 9163.0 L 677.0 9015.0 L 676.0 9014.0 L 622.0 8863.0 L 616.0 8848.0 L 567.0 8713.0 L 556.0 8684.0 L 512.0 8560.0 L 496.0 8517.0 L 456.0 8406.0 L 435.0 8348.0 L 404.0 8264.0 L 372.0 8178.0 L 347.0 8106.0 L 310.0 8005.0 L 289.0 7947.0 L 247.0 7831.0 L 231.0 7787.0 L 183.0 7655.0 L 172.0 7625.0 L 118.0 7477.0 L 113.0 7462.0 L 53.0 7298.0 L 53.0 7298.0 L -6.0 7132.0 L -11.0 7117.0 L -66.0 6966.0 L -76.0 6936.0 L -127.0 6798.0 L -143.0 6752.0 L -188.0 6629.0 L -210.0 6568.0 L -250.0 6460.0 L -277.0 6383.0 L -312.0 6289.0 L -345.0 6196.0 L -374.0 6118.0 L -413.0 6009.0 L -436.0 5946.0 L -481.0 5820.0 L -499.0 5773.0 L -550.0 5632.0 L -562.0 5600.0 L -618.0 5442.0 L -625.0 5426.0 L -687.0 5251.0 L -688.0 5251.0 L -752.0 5075.0 L -757.0 5059.0 L -816.0 4900.0 L -827.0 4868.0 L -880.0 4724.0 L -897.0 4676.0 L -944.0 4547.0 L -966.0 4483.0 L -1008.0 4370.0 L -1036.0 4290.0 L -1072.0 4193.0 L -1107.0 4096.0 L -1120.4 4060.2" class="track" data-sector="7"/>
      <path d="M -1120.4 4060.2 L -1137.0 4016.0 L -1166.0 3934.0 L -1201.0 3838.0 L -1236.0 3740.0 L -1266.0 3660.0 L -1307.0 3545.0 L -1331.0 3481.0 L -1378.0 3350.0 L -1396.0 3303.0 L -1449.0 3156.0 L -1455.0 3140.0 L -1520.0 2961.0 L -1585.0 2782.0 L -1602.0 2733.0 L -1650.0 2602.0 L -1671.0 2542.0 L -1710.0 2437.0 L -1738.0 2356.0 L -1775.0 2257.0 L -1809.0 2163.0 L -1840.0 2084.0 L -1894.0 1937.0 L -1907.0 1904.0 L -1961.0 1748.0 L -1967.0 1733.0 L -2015.0 1581.0 L -2016.0 1581.0 L -2058.0 1444.0 L -2061.0 1433.0 L -2090.0 1327.0 L -2094.0 1307.0 L -2113.0 1224.0 L -2118.0 1197.0 L -2130.0 1128.0 L -2135.0 1096.0 L -2144.0 1045.0 L -2149.0 1011.0 L -2156.0 972.0 L -2162.0 934.0 L -2167.0 905.0 L -2173.0 866.0 L -2173.1 865.2" class="track" data-sector="8"/>
      <path d="M -2173.1 865.2 L -2176.0 845.0 L -2180.0 803.0 L -2181.0 789.0 L -2179.0 748.0 L -2179.0 740.0 L -2171.0 698.0 L -2170.0 694.0 L -2150.0 655.0 L -2150.0 655.0 L -2119.0 626.0 L -2115.0 624.0 L -2079.0 610.0 L -2071.0 608.0 L -2035.0 604.0 L -2022.0 603.0 L -1990.0 605.0 L -1981.0 605.0 L -1945.0 608.0 L -1931.0 609.0 L -1896.0 613.0 L -1877.0 614.0 L -1844.0 617.0 L -1818.0 619.0 L -1786.0 622.0 L -1752.0 624.0 L -1729.0 626.0 L -1681.0 627.0 L -1665.0 627.0 L -1618.0 616.0 L -1609.0 612.0 L -1571.0 575.0 L -1568.0 570.0 L -1544.0 508.0 L -1544.0 508.0 L -1528.0 439.0 L -1526.0 433.0 L -1512.0 371.0 L -1508.0 358.0 L -1494.0 302.0 L -1489.0 282.0 L -1475.0 229.0 L -1467.0 202.0 L -1454.0 153.0 L -1443.0 114.0 L -1431.0 69.0 L -1419.0 30.0 L -1410.0 -4.0 L -1393.0 -62.0 L -1383.0 -99.0 L -1361.0 -172.0 L -1353.0 -201.0 L -1318.0 -305.0 L -1318.0 -306.0 L -1278.0 -414.0 L -1274.0 -423.0 L -1232.0 -525.0 L -1223.0 -544.0 L -1180.0 -638.0 L -1165.0 -668.0 L -1123.0 -752.0 L -1089.0 -815.0 L -1061.0 -870.0 L -1019.0 -944.0 L -996.5 -985.2" class="track" data-sector="9"/>
      <path d="M -996.5 -985.2 L -995.0 -988.0 L -943.0 -1073.0 L -923.0 -1107.0 L -860.0 -1203.0 L -846.0 -1226.0 L -770.0 -1333.0 L -762.0 -1345.0 L -672.0 -1461.0 L -672.0 -1462.0 L -575.0 -1578.0 L -565.0 -1589.0 L -472.0 -1692.0 L -452.0 -1712.0 L -363.0 -1802.0 L -331.0 -1832.0 L -247.0 -1911.0 L -203.0 -1950.0 L -127.0 -2017.0 L -70.0 -2065.0 L -14.0 -2114.0 L 65.0 -2181.0 L 111.0 -2220.0 L 203.0 -2297.0 L 238.0 -2327.0 L 342.0 -2415.0 L 367.0 -2436.0 L 484.0 -2535.0 L 497.0 -2546.0 L 627.0 -2656.0 L 628.0 -2657.0 L 761.0 -2769.0 L 796.0 -2798.0 L 895.0 -2881.0 L 943.0 -2921.0 L 1030.0 -2995.0 L 1090.0 -3046.0 L 1165.0 -3110.0 L 1238.0 -3172.0 L 1302.0 -3226.0 L 1342.5 -3260.0" class="track" data-sector="10"/>
      <path d="M 1342.5 -3260.0 L 1414.0 -3320.0 L 1440.0 -3342.0 L 1565.0 -3447.0 L 1579.0 -3459.0 L 1718.0 -3575.0 L 1719.0 -3576.0 L 1863.0 -3695.0 L 1875.0 -3705.0 L 2007.0 -3811.0 L 2032.0 -3831.0 L 2154.0 -3923.0 L 2193.0 -3952.0 L 2304.0 -4033.0 L 2358.0 -4071.0 L 2457.0 -4140.0 L 2526.0 -4186.0 L 2613.0 -4243.0 L 2699.0 -4298.0 L 2773.0 -4344.0 L 2874.0 -4405.0 L 2934.0 -4440.0 L 3053.0 -4506.0 L 3100.0 -4531.0 L 3237.0 -4600.0 L 3269.0 -4616.0 L 3425.0 -4688.0 L 3442.0 -4696.0 L 3617.0 -4774.0 L 3617.0 -4774.0 L 3805.0 -4857.0 L 3822.0 -4864.0 L 3984.0 -4935.0 L 4014.0 -4947.0 L 4145.0 -5001.0 L 4225.0 -5032.0 L 4320.0 -5069.0 L 4406.0 -5102.0 L 4461.0 -5124.0 L 4565.0 -5164.0 L 4602.0 -5179.0 L 4704.0 -5219.0 L 4726.0 -5228.0 L 4830.0 -5268.0 L 4841.0 -5273.0 L 4947.0 -5312.0 L 4948.0 -5313.0 L 4976.1 -5320.7" class="track" data-sector="11"/>
      <path d="M 4976.1 -5320.7 L 5046.0 -5340.0 L 5054.0 -5341.0 L 5143.0 -5351.0 L 5160.0 -5350.0 L 5241.0 -5342.0 L 5267.0 -5336.0 L 5337.0 -5318.0 L 5370.0 -5306.0 L 5428.0 -5283.0 L 5466.0 -5264.0 L 5512.0 -5239.0 L 5554.0 -5209.0 L 5588.0 -5184.0 L 5628.0 -5147.0 L 5656.0 -5117.0 L 5723.0 -5024.0 L 5744.0 -4991.0 L 5776.0 -4915.0 L 5781.0 -4899.0 L 5800.0 -4810.0 L 5802.0 -4801.0 L 5805.0 -4702.0 L 5805.0 -4702.0 L 5792.0 -4603.0 L 5790.0 -4594.0 L 5765.0 -4506.0" class="track" data-sector="12"/>
      <path d="M 5765.0 -4506.0 L 5758.0 -4488.0 L 5725.0 -4411.0 L 5712.0 -4386.0 L 5673.0 -4321.0 L 5651.0 -4289.0 L 5610.0 -4234.0 L 5577.0 -4196.0 L 5536.0 -4152.0 L 5491.0 -4109.0 L 5452.0 -4075.0 L 5393.0 -4029.0 L 5357.0 -4005.0 L 5281.0 -3959.0 L 5252.0 -3944.0 L 5179.0 -3909.0 L 5138.0 -3892.0 L 5051.0 -3860.0 L 5016.0 -3850.0 L 4888.0 -3816.0 L 4860.0 -3809.0 L 4712.0 -3774.0 L 4700.0 -3772.0 L 4578.0 -3748.0 L 4565.0 -3745.0 L 4440.0 -3724.0 L 4414.0 -3720.0 L 4298.0 -3705.0 L 4258.0 -3700.0 L 4154.0 -3690.0 L 4101.0 -3685.0 L 4007.0 -3678.0 L 3939.0 -3672.0 L 3857.0 -3666.0 L 3775.0 -3660.0 L 3706.0 -3655.0 L 3610.0 -3647.0 L 3554.0 -3643.0 L 3442.0 -3634.0 L 3399.0 -3631.0 L 3279.6 -3619.7" class="track" data-sector="13"/>
      <path d="M 3279.6 -3619.7 L 3272.0 -3619.0 L 3243.0 -3617.0 L 3101.0 -3599.0 L 3087.0 -3597.0 L 2934.0 -3565.0 L 2934.0 -3565.0 L 2784.0 -3514.0 L 2771.0 -3508.0 L 2637.0 -3444.0 L 2611.0 -3430.0 L 2494.0 -3363.0 L 2455.0 -3340.0 L 2351.0 -3275.0 L 2301.0 -3241.0 L 2217.0 -3181.0 L 2157.0 -3136.0 L 2086.0 -3081.0 L 2017.0 -3024.0 L 1962.0 -2975.0 L 1944.3 -2957.5" class="track" data-sector="14"/>
      <path d="M 1944.3 -2957.5 L 1891.0 -2905.0 L 1855.0 -2862.0 L 1792.0 -2771.0 L 1771.0 -2734.0 L 1718.0 -2618.0 L 1708.0 -2592.0 L 1668.0 -2461.0 L 1665.0 -2448.0 L 1632.0 -2318.0 L 1632.0 -2318.0 L 1603.0 -2201.0 L 1600.0 -2191.0 L 1582.0 -2098.0 L 1581.0 -2097.0 L 1571.0 -2001.0 L 1570.0 -1991.0 L 1570.0 -1909.0 L 1570.0 -1892.0 L 1573.0 -1824.0 L 1574.0 -1801.0 L 1579.0 -1746.0 L 1581.0 -1719.0 L 1586.0 -1681.0 L 1592.0 -1644.0 L 1599.0 -1615.0 L 1608.1 -1584.6" class="track" data-sector="15"/>
      <path d="M 1608.1 -1584.6 L 1611.0 -1575.0 L 1620.0 -1555.0 L 1642.0 -1517.0 L 1652.0 -1505.0 L 1686.0 -1473.0 L 1696.0 -1467.0 L 1748.0 -1443.0 L 1754.0 -1441.0 L 1820.0 -1423.0 L 1831.0 -1420.0 L 1887.0 -1411.0 L 1905.0 -1408.0 L 1958.0 -1406.0 L 1984.0 -1406.0 L 2033.0 -1411.0 L 2068.0 -1415.0 L 2112.0 -1421.0 L 2156.0 -1425.0 L 2195.0 -1428.0 L 2247.0 -1427.0 L 2278.0 -1425.0 L 2334.0 -1411.0 L 2356.0 -1404.0 L 2414.0 -1376.0 L 2428.0 -1369.0 L 2489.0 -1330.0 L 2496.0 -1326.0 L 2558.0 -1277.0 L 2559.0 -1277.0" class="track" data-sector="16"/>
      <path d="M 2559.0 -1277.0 L 2618.0 -1225.0 L 2622.0 -1220.0 L 2670.0 -1167.0 L 2678.0 -1155.0 L 2711.0 -1101.0 L 2719.0 -1081.0 L 2740.0 -1026.0 L 2747.0 -996.0 L 2757.0 -942.0 L 2762.0 -902.0 L 2768.0 -853.0 L 2772.0 -803.0 L 2775.0 -760.0 L 2777.0 -699.0 L 2778.0 -663.0 L 2776.0 -590.0 L 2774.0 -563.0 L 2765.0 -500.0 L 2759.0 -469.0 L 2742.0 -412.0 L 2735.0 -392.0 L 2705.0 -327.0 L 2698.0 -314.0 L 2652.0 -250.0 L 2648.0 -245.0 L 2638.7 -235.5" class="track" data-sector="17"/>
      <path d="M 2638.7 -235.5 L 2596.0 -192.0 L 2590.0 -187.0 L 2536.0 -141.0 L 2524.0 -132.0 L 2470.0 -97.0 L 2451.0 -85.0 L 2399.0 -59.0 L 2371.0 -47.0 L 2320.0 -31.0 L 2282.0 -21.0 L 2234.0 -13.0 L 2184.0 -8.0 L 2141.0 -7.0 L 2079.0 -7.0 L 2043.0 -10.0 L 1970.0 -16.0 L 1942.0 -20.0 L 1855.0 -31.0 L 1835.0 -34.0 L 1725.0 -51.0 L 1716.0 -52.0 L 1625.0 -67.0 L 1605.0 -69.0 L 1506.0 -83.0 L 1472.0 -87.0 L 1382.0 -99.0 L 1336.0 -105.0 L 1254.0 -116.0 L 1195.0 -123.0 L 1123.0 -134.0 L 1051.0 -146.0 L 990.0 -158.0 L 903.0 -174.0 L 853.0 -185.0 L 752.0 -205.0 L 714.0 -213.0 L 599.0 -235.0 L 573.0 -241.0 L 442.0 -266.0 L 429.0 -269.0 L 286.0 -286.0 L 286.0 -287.0 L 145.0 -278.0 L 132.0 -275.0 L 11.9 -241.6" class="track" data-sector="18"/>
      <path d="M 11.9 -241.6 L -1.0 -238.0 L -27.0 -228.0 L -146.0 -179.0 L -183.0 -161.0 L -278.0 -108.0 L -300.0 -93.0 L -393.0 -24.0 L -421.0 2.0 L -490.0 80.0 L -522.0 124.0 L -576.0 205.0 L -612.0 264.0 L -655.0 334.0 L -697.0 405.0 L -726.0 452.0 L -782.0 545.0 L -804.0 581.0 L -882.0 712.0 L -956.0 847.0 L -962.0 859.0 L -1017.0 981.0 L -1026.0 1004.0 L -1063.0 1107.0 L -1072.0 1139.0 L -1095.0 1224.0 L -1103.0 1263.0 L -1114.0 1333.0 L -1118.0 1380.0 L -1120.0 1436.0 L -1119.0 1488.0 L -1117.0 1533.0 L -1110.0 1593.0 L -1106.0 1622.0 L -1098.0 1657.0 L -1094.0 1672.0 L -1070.0 1733.0 L -1064.0 1748.0 L -1031.5 1798.1" class="track" data-sector="19"/>
      <path d="M -1031.5 1798.1 L -1027.0 1805.0 L -1023.0 1811.0 L -968.0 1861.0 L -956.0 1868.0 L -902.0 1898.0 L -883.0 1906.0 L -830.0 1925.0 L -800.0 1933.0 L -754.0 1945.0 L -739.0 1948.0 L -722.0 1952.0 L -681.0 1961.0 L -639.0 1971.0 L -583.0 1982.0 L -551.0 1989.0 L -483.0 2000.0 L -457.0 2005.0 L -374.0 2014.0 L -355.0 2016.0 L -256.0 2022.0 L -246.0 2023.0 L -132.0 2029.0 L -23.0 2033.0 L -13.0 2034.0 L 107.8 2040.9" class="track" data-sector="20"/>
      <path d="M 107.8 2040.9 L 110.0 2041.0 L 110.0 2041.0 L 237.0 2048.0 L 249.0 2048.0 L 369.0 2055.0 L 393.0 2057.0 L 503.0 2071.0 L 521.0 2073.0 L 508.0 2070.0 L 597.0 2083.0 L 622.0 2086.0 L 739.0 2101.0 L 777.0 2105.0 L 882.0 2117.0 L 934.0 2123.0 L 1029.0 2134.0 L 1095.0 2141.0 L 1178.0 2150.0 L 1259.0 2159.0 L 1329.0 2168.0 L 1425.0 2178.0 L 1482.0 2185.0 L 1594.0 2198.0 L 1637.0 2203.0 L 1763.0 2216.0 L 1795.0 2220.0 L 1957.0 2239.0 L 1974.0 2241.0 L 2134.0 2259.0 L 2281.0 2275.0 L 2296.0 2277.0 L 2460.0 2296.0 L 2460.0 2296.0 L 2624.0 2314.0 L 2639.0 2315.0 L 2790.0 2333.0 L 2820.0 2336.0 L 2942.0 2350.0 L 3001.0 2356.0 L 3109.0 2369.0 L 3184.0 2377.0 L 3278.0 2388.0 L 3369.0 2398.0 L 3446.0 2408.0 L 3546.0 2419.0 L 3602.0 2427.0 L 3702.0 2442.0 L 3718.3 2444.7" class="track" data-sector="1"/>
    </g>

    <g id="marshal-lights">
      <g class="marshal-light-marker" data-light="1">
        <rect x="457.1" y="2019.1" width="101.9" height="101.9" class="marshal-light-bg"/>
        <text x="508.0" y="2070.0" class="marshal-light-label">1</text>
      </g>
      <g class="marshal-light-marker" data-light="2">
        <rect x="3800.0" y="2416.2" width="101.9" height="101.9" class="marshal-light-bg"/>
        <text x="3850.9" y="2467.2" class="marshal-light-label">2</text>
      </g>
      <g class="marshal-light-marker" data-light="3">
        <rect x="4112.0" y="4270.6" width="101.9" height="101.9" class="marshal-light-bg"/>
        <text x="4162.9" y="4321.5" class="marshal-light-label">3</text>
      </g>
      <g class="marshal-light-marker" data-light="4">
        <rect x="2237.3" y="5926.8" width="101.9" height="101.9" class="marshal-light-bg"/>
        <text x="2288.2" y="5977.7" class="marshal-light-label">4</text>
      </g>
      <g class="marshal-light-marker" data-light="5">
        <rect x="2371.1" y="8521.4" width="101.9" height="101.9" class="marshal-light-bg"/>
        <text x="2422.0" y="8572.3" class="marshal-light-label">5</text>
      </g>
      <g class="marshal-light-marker" data-light="6">
        <rect x="2299.4" y="10239.6" width="101.9" height="101.9" class="marshal-light-bg"/>
        <text x="2350.3" y="10290.5" class="marshal-light-label">6</text>
      </g>
      <g class="marshal-light-marker" data-light="7">
        <rect x="931.4" y="9805.8" width="101.9" height="101.9" class="marshal-light-bg"/>
        <text x="982.3" y="9856.7" class="marshal-light-label">7</text>
      </g>
      <g class="marshal-light-marker" data-light="8">
        <rect x="-1162.7" y="4032.2" width="101.9" height="101.9" class="marshal-light-bg"/>
        <text x="-1111.8" y="4083.1" class="marshal-light-label">8</text>
      </g>
      <g class="marshal-light-marker" data-light="9">
        <rect x="-2231.9" y="737.3" width="101.9" height="101.9" class="marshal-light-bg"/>
        <text x="-2181.0" y="788.2" class="marshal-light-label">9</text>
      </g>
      <g class="marshal-light-marker" data-light="10">
        <rect x="-1124.1" y="-896.9" width="101.9" height="101.9" class="marshal-light-bg"/>
        <text x="-1073.2" y="-846.0" class="marshal-light-label">10</text>
      </g>
      <g class="marshal-light-marker" data-light="11">
        <rect x="1519.3" y="-3502.4" width="101.9" height="101.9" class="marshal-light-bg"/>
        <text x="1570.3" y="-3451.5" class="marshal-light-label">11</text>
      </g>
      <g class="marshal-light-marker" data-light="12">
        <rect x="4897.6" y="-5364.1" width="101.9" height="101.9" class="marshal-light-bg"/>
        <text x="4948.6" y="-5313.2" class="marshal-light-label">12</text>
      </g>
      <g class="marshal-light-marker" data-light="13">
        <rect x="5747.0" y="-4699.4" width="101.9" height="101.9" class="marshal-light-bg"/>
        <text x="5798.0" y="-4648.5" class="marshal-light-label">13</text>
      </g>
      <g class="marshal-light-marker" data-light="14">
        <rect x="3813.8" y="-3717.5" width="101.9" height="101.9" class="marshal-light-bg"/>
        <text x="3864.7" y="-3666.6" class="marshal-light-label">14</text>
      </g>
      <g class="marshal-light-marker" data-light="15">
        <rect x="1944.2" y="-3055.5" width="101.9" height="101.9" class="marshal-light-bg"/>
        <text x="1995.2" y="-3004.5" class="marshal-light-label">15</text>
      </g>
      <g class="marshal-light-marker" data-light="16">
        <rect x="1521.8" y="-1880.9" width="101.9" height="101.9" class="marshal-light-bg"/>
        <text x="1572.7" y="-1830.0" class="marshal-light-label">16</text>
      </g>
      <g class="marshal-light-marker" data-light="17">
        <rect x="2308.8" y="-1453.1" width="101.9" height="101.9" class="marshal-light-bg"/>
        <text x="2359.7" y="-1402.2" class="marshal-light-label">17</text>
      </g>
      <g class="marshal-light-marker" data-light="18">
        <rect x="2656.1" y="-382.4" width="101.9" height="101.9" class="marshal-light-bg"/>
        <text x="2707.1" y="-331.4" class="marshal-light-label">18</text>
      </g>
      <g class="marshal-light-marker" data-light="19">
        <rect x="-209.1" y="-224.0" width="101.9" height="101.9" class="marshal-light-bg"/>
        <text x="-158.2" y="-173.1" class="marshal-light-label">19</text>
      </g>
      <g class="marshal-light-marker" data-light="20">
        <rect x="-894.2" y="1869.3" width="101.9" height="101.9" class="marshal-light-bg"/>
        <text x="-843.3" y="1920.2" class="marshal-light-label">20</text>
      </g>
    </g>

    <g id="marshal-sectors">
      <g class="marshal-sector-marker" data-sector="1" data-length="51745.9">
        <polygon points="107.8,1918.7 2.0,2102.0 213.7,2102.0" class="marshal-sector-bg"/>
        <text x="107.8" y="2040.9" class="marshal-sector-label">1</text>
      </g>
      <g class="marshal-sector-marker" data-sector="2" data-length="3232.3">
        <polygon points="3718.3,2322.5 3612.5,2505.8 3824.2,2505.8" class="marshal-sector-bg"/>
        <text x="3718.3" y="2444.7" class="marshal-sector-label">2</text>
      </g>
      <g class="marshal-sector-marker" data-sector="3" data-length="5804.3">
        <polygon points="4080.1,4438.0 3974.3,4621.3 4186.0,4621.3" class="marshal-sector-bg"/>
        <text x="4080.1" y="4560.2" class="marshal-sector-label">3</text>
      </g>
      <g class="marshal-sector-marker" data-sector="4" data-length="8241.8">
        <polygon points="2260.4,5909.8 2154.6,6093.1 2366.3,6093.1" class="marshal-sector-bg"/>
        <text x="2260.4" y="6032.0" class="marshal-sector-label">4</text>
      </g>
      <g class="marshal-sector-marker" data-sector="5" data-length="10928.0">
        <polygon points="2421.3,8556.0 2315.5,8739.4 2527.2,8739.4" class="marshal-sector-bg"/>
        <text x="2421.3" y="8678.3" class="marshal-sector-label">5</text>
      </g>
      <g class="marshal-sector-marker" data-sector="6" data-length="12652.2">
        <polygon points="2342.7,10278.1 2236.9,10461.4 2448.6,10461.4" class="marshal-sector-bg"/>
        <text x="2342.7" y="10400.3" class="marshal-sector-label">6</text>
      </g>
      <g class="marshal-sector-marker" data-sector="7" data-length="16239.1">
        <polygon points="1043.9,9907.3 938.0,10090.6 1149.7,10090.6" class="marshal-sector-bg"/>
        <text x="1043.9" y="10029.5" class="marshal-sector-label">7</text>
      </g>
      <g class="marshal-sector-marker" data-sector="8" data-length="22589.7">
        <polygon points="-1120.4,3938.0 -1226.3,4121.3 -1014.6,4121.3" class="marshal-sector-bg"/>
        <text x="-1120.4" y="4060.2" class="marshal-sector-label">8</text>
      </g>
      <g class="marshal-sector-marker" data-sector="9" data-length="25960.6">
        <polygon points="-2173.1,743.0 -2279.0,926.3 -2067.3,926.3" class="marshal-sector-bg"/>
        <text x="-2173.1" y="865.2" class="marshal-sector-label">9</text>
      </g>
      <g class="marshal-sector-marker" data-sector="10" data-length="28459.2">
        <polygon points="-996.5,-1107.4 -1102.4,-924.1 -890.7,-924.1" class="marshal-sector-bg"/>
        <text x="-996.5" y="-985.2" class="marshal-sector-label">10</text>
      </g>
      <g class="marshal-sector-marker" data-sector="11" data-length="31740.5">
        <polygon points="1342.5,-3382.2 1236.7,-3198.9 1448.4,-3198.9" class="marshal-sector-bg"/>
        <text x="1342.5" y="-3260.0" class="marshal-sector-label">11</text>
      </g>
      <g class="marshal-sector-marker" data-sector="12" data-length="35951.1">
        <polygon points="4976.1,-5443.0 4870.2,-5259.6 5081.9,-5259.6" class="marshal-sector-bg"/>
        <text x="4976.1" y="-5320.7" class="marshal-sector-label">12</text>
      </g>
      <g class="marshal-sector-marker" data-sector="13" data-length="37353.3">
        <polygon points="5764.9,-4628.1 5659.1,-4444.7 5870.8,-4444.7" class="marshal-sector-bg"/>
        <text x="5764.9" y="-4505.8" class="marshal-sector-label">13</text>
      </g>
      <g class="marshal-sector-marker" data-sector="14" data-length="40141.3">
        <polygon points="3279.6,-3741.9 3173.8,-3558.6 3385.5,-3558.6" class="marshal-sector-bg"/>
        <text x="3279.6" y="-3619.7" class="marshal-sector-label">14</text>
      </g>
      <g class="marshal-sector-marker" data-sector="15" data-length="41661.7">
        <polygon points="1944.3,-3079.8 1838.4,-2896.4 2050.1,-2896.4" class="marshal-sector-bg"/>
        <text x="1944.3" y="-2957.5" class="marshal-sector-label">15</text>
      </g>
      <g class="marshal-sector-marker" data-sector="16" data-length="43129.1">
        <polygon points="1608.1,-1706.9 1502.3,-1523.5 1714.0,-1523.5" class="marshal-sector-bg"/>
        <text x="1608.1" y="-1584.6" class="marshal-sector-label">16</text>
      </g>
      <g class="marshal-sector-marker" data-sector="17" data-length="44192.9">
        <polygon points="2559.0,-1399.2 2453.1,-1215.9 2664.8,-1215.9" class="marshal-sector-bg"/>
        <text x="2559.0" y="-1277.0" class="marshal-sector-label">17</text>
      </g>
      <g class="marshal-sector-marker" data-sector="18" data-length="45334.2">
        <polygon points="2638.7,-357.7 2532.8,-174.4 2744.5,-174.4" class="marshal-sector-bg"/>
        <text x="2638.7" y="-235.5" class="marshal-sector-label">18</text>
      </g>
      <g class="marshal-sector-marker" data-sector="19" data-length="48057.1">
        <polygon points="11.9,-363.8 -94.0,-180.5 117.7,-180.5" class="marshal-sector-bg"/>
        <text x="11.9" y="-241.6" class="marshal-sector-label">19</text>
      </g>
      <g class="marshal-sector-marker" data-sector="20" data-length="50555.7">
        <polygon points="-1031.5,1675.8 -1137.3,1859.2 -925.7,1859.2" class="marshal-sector-bg"/>
        <text x="-1031.5" y="1798.1" class="marshal-sector-label">20</text>
      </g>
    </g>

    <g id="corners">
      <g class="corner-marker" data-corner="1" data-length="3876.4">
        <circle cx="4294.9" cy="2690.7" r="163.0" class="corner-bg"/>
        <text x="4294.9" y="2690.7" class="corner-label">1</text>
      </g>
      <g class="corner-marker" data-corner="2" data-length="6293.5">
        <circle cx="3848.4" cy="4987.6" r="163.0" class="corner-bg"/>
        <text x="3848.4" y="4987.6" class="corner-label">2</text>
      </g>
      <g class="corner-marker" data-corner="3" data-length="8376.4">
        <circle cx="2206.6" cy="6155.1" r="163.0" class="corner-bg"/>
        <text x="2206.6" y="6155.1" class="corner-label">3</text>
      </g>
      <g class="corner-marker" data-corner="4" data-length="10300.3">
        <circle cx="2378.7" cy="8052.8" r="163.0" class="corner-bg"/>
        <text x="2378.7" y="8052.8" class="corner-label">4</text>
      </g>
      <g class="corner-marker" data-corner="5" data-length="14209.2">
        <circle cx="1839.4" cy="11771.7" r="163.0" class="corner-bg"/>
        <text x="1839.4" y="11771.7" class="corner-label">5</text>
      </g>
      <g class="corner-marker" data-corner="6" data-length="26176.6">
        <circle cx="-2150.2" cy="655.3" r="163.0" class="corner-bg"/>
        <text x="-2150.2" y="655.3" class="corner-label">6</text>
      </g>
      <g class="corner-marker" data-corner="7" data-length="26771.7">
        <circle cx="-1583.5" cy="587.2" r="163.0" class="corner-bg"/>
        <text x="-1583.5" y="587.2" class="corner-label">7</text>
      </g>
      <g class="corner-marker" data-corner="8" data-length="28781.2">
        <circle cx="-824.0" cy="-1257.0" r="163.0" class="corner-bg"/>
        <text x="-824.0" y="-1257.0" class="corner-label">8</text>
      </g>
      <g class="corner-marker" data-corner="9" data-length="36933.4">
        <circle cx="5774.8" cy="-4917.8" r="163.0" class="corner-bg"/>
        <text x="5774.8" y="-4917.8" class="corner-label">9</text>
      </g>
      <g class="corner-marker" data-corner="10" data-length="40296.2">
        <circle cx="3125.8" cy="-3602.1" r="163.0" class="corner-bg"/>
        <text x="3125.8" y="-3602.1" class="corner-label">10</text>
      </g>
      <g class="corner-marker" data-corner="11" data-length="41889.9">
        <circle cx="1799.6" cy="-2782.0" r="163.0" class="corner-bg"/>
        <text x="1799.6" y="-2782.0" class="corner-label">11</text>
      </g>
      <g class="corner-marker" data-corner="12" data-length="43190.2">
        <circle cx="1634.6" cy="-1529.8" r="163.0" class="corner-bg"/>
        <text x="1634.6" y="-1529.8" class="corner-label">12</text>
      </g>
      <g class="corner-marker" data-corner="13" data-length="44274.5">
        <circle cx="2619.8" cy="-1222.8" r="163.0" class="corner-bg"/>
        <text x="2619.8" y="-1222.8" class="corner-label">13</text>
      </g>
      <g class="corner-marker" data-corner="14" data-length="45489.1">
        <circle cx="2523.8" cy="-131.9" r="163.0" class="corner-bg"/>
        <text x="2523.8" y="-131.9" class="corner-label">14</text>
      </g>
      <g class="corner-marker" data-corner="15" data-length="48154.9">
        <circle cx="-79.4" cy="-206.4" r="163.0" class="corner-bg"/>
        <text x="-79.4" y="-206.4" class="corner-label">15</text>
      </g>
      <g class="corner-marker" data-corner="16" data-length="50461.9">
        <circle cx="-1076.6" cy="1716.3" r="163.0" class="corner-bg"/>
        <text x="-1076.6" y="1716.3" class="corner-label">16</text>
      </g>
    </g>

    <g id="start-finish" data-track-x="508.0" data-track-y="2070.0" data-lap-distance="52173.9">
      <polygon points="-134.8,2301.5 472.0,2373.4 428.9,2737.5 -178.0,2665.6" class="checker-border"/>
      <polygon points="-134.8,2301.5 -13.4,2315.9 -27.8,2437.3 -149.2,2422.9" class="checker-black"/>
      <polygon points="-149.2,2422.9 -27.8,2437.3 -42.2,2558.6 -163.6,2544.3" class="checker-white"/>
      <polygon points="-163.6,2544.3 -42.2,2558.6 -56.6,2680.0 -178.0,2665.6" class="checker-black"/>
      <polygon points="-13.4,2315.9 107.9,2330.3 93.5,2451.6 -27.8,2437.3" class="checker-white"/>
      <polygon points="-27.8,2437.3 93.5,2451.6 79.2,2573.0 -42.2,2558.6" class="checker-black"/>
      <polygon points="-42.2,2558.6 79.2,2573.0 64.8,2694.4 -56.6,2680.0" class="checker-white"/>
      <polygon points="107.9,2330.3 229.3,2344.7 214.9,2466.0 93.5,2451.6" class="checker-black"/>
      <polygon points="93.5,2451.6 214.9,2466.0 200.5,2587.4 79.2,2573.0" class="checker-white"/>
      <polygon points="79.2,2573.0 200.5,2587.4 186.1,2708.8 64.8,2694.4" class="checker-black"/>
      <polygon points="229.3,2344.7 350.7,2359.0 336.3,2480.4 214.9,2466.0" class="checker-white"/>
      <polygon points="214.9,2466.0 336.3,2480.4 321.9,2601.8 200.5,2587.4" class="checker-black"/>
      <polygon points="200.5,2587.4 321.9,2601.8 307.5,2723.2 186.1,2708.8" class="checker-white"/>
      <polygon points="350.7,2359.0 472.0,2373.4 457.7,2494.8 336.3,2480.4" class="checker-black"/>
      <polygon points="336.3,2480.4 457.7,2494.8 443.3,2616.2 321.9,2601.8" class="checker-white"/>
      <polygon points="321.9,2601.8 443.3,2616.2 428.9,2737.5 307.5,2723.2" class="checker-black"/>
      <polyline points="1033.4,2829.7 1259.6,2651.4 1081.3,2425.1" class="chevron"/>
      <polyline points="1195.2,2848.9 1421.4,2670.6 1243.1,2444.3" class="chevron"/>
      <polyline points="1357.0,2868.0 1583.3,2689.7 1405.0,2463.5" class="chevron"/>
    </g>

    <g id="car-markers"></g>

  </g>
</svg>
