<?xml version="1.0" encoding="utf-8"?>
<?xml-stylesheet type="text/css" href="../../css/tracks.css"?>
<svg xmlns="http://www.w3.org/2000/svg" viewBox="-480.0 422.3 960.0 844.6">
  <title>Zandvoort</title>

  <g id="track-root" transform="translate(0, 844.55) scale(1, -1) scale(0.082228) translate(-3844.50, -2549.50)" data-scale="0.082228" data-rotation="0.0">

    <g id="track-outline">
      <path d="M 1259.5 5680.5 L 1271.0 5719.0 L 1292.0 5798.0 L 1313.0 5872.0 L 1336.0 5957.0 L 1351.0 6011.0 L 1374.0 6098.0 L 1385.0 6135.0 L 1413.0 6225.0 L 1421.0 6248.0 L 1451.0 6334.0 L 1456.0 6346.0 L 1495.0 6432.0 L 1497.0 6435.0 L 1541.0 6512.0 L 1542.0 6514.0 L 1564.0 6531.0 L 1578.0 6548.0 L 1616.0 6596.0 L 1638.0 6617.0 L 1669.0 6641.0 L 1699.0 6660.0 L 1729.0 6677.0 L 1766.0 6691.0 L 1792.0 6699.0 L 1836.0 6708.0 L 1856.0 6711.0 L 1906.0 6712.0 L 1921.0 6712.0 L 1977.0 6705.0 L 1985.0 6704.0 L 2042.0 6686.0 L 2045.0 6686.0 L 2095.0 6663.0 L 2102.0 6660.0 L 2147.0 6631.0 L 2149.0 6630.0 L 2197.0 6579.0 L 2199.0 6575.0 L 2239.0 6517.0 L 2244.0 6507.0 L 2272.0 6448.0 L 2278.0 6430.0 L 2295.0 6371.0 L 2299.0 6343.0 L 2305.0 6287.0 L 2305.0 6249.0 L 2302.0 6197.0 L 2295.0 6149.0 L 2289.0 6112.0 L 2272.0 6042.0 L 2264.0 6012.0 L 2238.0 5932.0 L 2231.0 5911.0 L 2199.0 5821.0 L 2195.0 5809.0 L 2156.0 5707.0 L 2155.0 5704.0 L 2113.0 5595.0 L 2101.0 5568.0 L 2065.0 5483.0 L 2048.0 5445.0 L 2013.0 5368.0 L 1990.0 5318.0 L 1987.1 5311.6" class="track-outline" data-sector="2"/>
      <path d="M 1987.1 5311.6 L 1959.0 5250.0 L 1931.0 5187.0 L 1905.0 5128.0 L 1873.0 5052.0 L 1854.0 5003.0 L 1822.0 4913.0 L 1810.0 4873.0 L 1784.0 4767.0 L 1779.0 4738.0 L 1766.0 4614.0 L 1766.0 4597.0 L 1767.0 4452.0 L 1768.0 4448.0 L 1782.0 4296.0 L 1782.0 4287.0 L 1785.1 4259.6" class="track-outline" data-sector="3"/>
      <path d="M 1785.1 4259.6 L 1797.0 4153.0 L 1798.0 4133.0 L 1802.0 4028.0 L 1800.0 3979.0 L 1793.0 3917.0 L 1781.0 3866.0 L 1766.0 3821.0 L 1741.0 3768.0 L 1721.0 3736.0 L 1679.0 3682.0 L 1658.0 3660.0 L 1599.0 3610.0 L 1582.0 3598.0 L 1505.0 3551.0 L 1494.0 3546.0 L 1402.0 3503.0 L 1399.0 3502.0 L 1301.0 3466.0 L 1295.0 3463.0 L 1203.0 3431.0 L 1187.0 3425.0 L 1106.0 3397.0 L 1088.9 3390.6" class="track-outline" data-sector="4"/>
      <path d="M 1088.9 3390.6 L 1082.0 3388.0 L 1017.0 3364.0 L 991.0 3354.0 L 937.0 3329.0 L 883.0 3300.0 L 824.0 3267.0 L 788.0 3238.0 L 773.0 3221.0 L 742.0 3183.0 L 730.0 3165.0 L 706.0 3116.0 L 702.0 3103.0 L 687.0 3045.0 L 686.0 3037.0 L 684.0 2971.0 L 685.0 2969.0 L 696.0 2903.0 L 696.0 2899.0 L 717.0 2841.0 L 721.0 2832.0 L 748.0 2784.0 L 756.0 2770.0 L 789.0 2730.0 L 804.0 2713.0 L 840.0 2683.0 L 864.0 2665.0 L 899.0 2644.0 L 931.0 2627.0 L 964.0 2615.0 L 1005.0 2603.0 L 1033.0 2598.0 L 1083.0 2588.0 L 1107.0 2588.0 L 1170.0 2600.0 L 1189.0 2605.0 L 1269.0 2626.0 L 1281.0 2630.0 L 1370.0 2658.0 L 1373.0 2659.0 L 1464.0 2688.0 L 1469.0 2689.0" class="track-outline" data-sector="5"/>
      <path d="M 1469.0 2689.0 L 1557.0 2717.0 L 1568.0 2720.0 L 1628.0 2741.0 L 1644.0 2747.0 L 1704.0 2772.0 L 1718.0 2777.0 L 1809.0 2813.0 L 1835.0 2822.0 L 1919.0 2853.0 L 1956.0 2866.0 L 2032.0 2892.0 L 2081.0 2907.0 L 2151.0 2929.0 L 2213.0 2947.0 L 2273.0 2963.0 L 2349.0 2981.0 L 2400.0 2992.0 L 2492.0 3008.0 L 2533.0 3014.0 L 2640.0 3026.0 L 2669.0 3029.0 L 2790.0 3036.0 L 2795.0 3037.0 L 2936.0 3040.0 L 2944.0 3039.0 L 3080.0 3034.0 L 3101.0 3032.0 L 3226.0 3021.0 L 3261.0 3016.0 L 3373.0 3000.0 L 3449.0 2987.0 L 3522.0 2974.0 L 3611.0 2956.0 L 3671.0 2945.0 L 3775.0 2923.0 L 3822.0 2915.0 L 3943.0 2893.0 L 3975.0 2888.0 L 3977.5 2887.6" class="track-outline" data-sector="6"/>
      <path d="M 3977.5 2887.6 L 4097.0 2869.0 L 4115.0 2867.0 L 4265.0 2853.0 L 4270.0 2853.0 L 4426.0 2851.0 L 4435.0 2851.0 L 4583.0 2864.0 L 4606.0 2867.0 L 4739.0 2894.0 L 4776.0 2903.0 L 4894.0 2940.0 L 4944.0 2958.0 L 5045.0 3002.0 L 5107.0 3032.0 L 5192.0 3077.0 L 5292.0 3134.0 L 5336.0 3161.0 L 5446.0 3229.0 L 5477.0 3248.0 L 5600.0 3323.0 L 5618.0 3334.0 L 5754.0 3411.0 L 5760.0 3414.0 L 5907.0 3484.0 L 5915.0 3487.0 L 6054.0 3538.0 L 6059.0 3540.0 L 6218.0 3580.0 L 6226.0 3581.0 L 6246.0 3584.0" class="track-outline" data-sector="7"/>
      <path d="M 6246.0 3584.0 L 6364.0 3602.0 L 6387.0 3604.0 L 6525.0 3616.0 L 6564.0 3618.0 L 6688.0 3624.0 L 6743.0 3625.0 L 6854.0 3628.0 L 6925.0 3628.0 L 7020.0 3629.0 L 7105.0 3628.0 L 7186.0 3628.0 L 7292.0 3626.0 L 7319.3 3625.5" class="track-outline" data-sector="8"/>
      <path d="M 7319.3 3625.5 L 7346.0 3625.0 L 7477.0 3621.0 L 7513.0 3620.0 L 7654.0 3611.0 L 7674.0 3610.0 L 7821.0 3594.0 L 7826.0 3594.0 L 7968.0 3567.0 L 7976.0 3564.0 L 8100.0 3523.0 L 8119.0 3514.0 L 8225.0 3462.0 L 8253.0 3444.0 L 8341.0 3383.0 L 8376.0 3352.0 L 8445.0 3286.0 L 8484.0 3239.0 L 8535.0 3173.0 L 8574.0 3110.0 L 8608.0 3048.0 L 8643.0 2967.0 L 8663.0 2914.0 L 8688.0 2816.0 L 8697.0 2772.0 L 8708.0 2655.0 L 8708.8 2629.4" class="track-outline" data-sector="9"/>
      <path d="M 8708.8 2629.4 L 8709.0 2623.0 L 8702.0 2487.0 L 8700.0 2467.0 L 8667.0 2300.0 L 8666.0 2295.0 L 8615.0 2156.0 L 8611.0 2147.0 L 8539.0 2017.0 L 8526.0 1996.0 L 8454.0 1881.0 L 8433.0 1849.0 L 8369.0 1750.0 L 8341.0 1707.0 L 8286.0 1620.0 L 8251.0 1565.0 L 8203.0 1488.0 L 8160.0 1419.0 L 8120.0 1354.0 L 8071.0 1271.0 L 8041.0 1216.0 L 7988.0 1117.0 L 7966.0 1074.0 L 7917.9 972.6" class="track-outline" data-sector="10"/>
      <path d="M 7917.9 972.6 L 7911.0 958.0 L 7897.0 926.0 L 7838.0 793.0 L 7831.0 776.0 L 7770.0 636.0 L 7769.0 633.0 L 7707.0 501.0 L 7703.0 493.0 L 7644.0 383.0 L 7634.0 366.0 L 7583.0 293.0 L 7558.0 264.0 L 7505.0 212.0 L 7467.0 183.0 L 7411.0 149.0 L 7355.0 123.0 L 7299.0 104.0 L 7225.0 85.0 L 7176.0 77.0 L 7088.0 66.0 L 7050.0 64.0 L 6950.0 61.0 L 6923.0 62.0 L 6810.0 66.0 L 6795.0 67.0 L 6670.0 78.0 L 6666.0 79.0 L 6536.0 99.0 L 6528.0 100.0 L 6453.1 116.4" class="track-outline" data-sector="11"/>
      <path d="M 6453.1 116.4 L 6405.0 127.0 L 6385.0 131.0 L 6274.0 163.0 L 6242.0 173.0 L 6143.0 209.0 L 6100.0 226.0 L 6015.0 265.0 L 5961.0 292.0 L 5893.0 332.0 L 5838.0 367.0 L 5801.0 395.0 L 5783.0 410.0 L 5770.0 423.0 L 5718.0 467.0 L 5694.0 489.0 L 5641.0 541.0 L 5629.0 555.0 L 5581.0 613.0 L 5576.0 622.0 L 5537.0 687.0 L 5536.0 690.0 L 5509.0 755.0 L 5507.0 758.0 L 5497.0 814.0 L 5497.0 816.0 L 5499.0 877.0 L 5501.0 890.0 L 5516.0 934.0 L 5526.0 954.0 L 5554.0 998.0 L 5574.0 1024.0 L 5604.0 1060.0 L 5633.0 1090.0 L 5663.0 1118.0 L 5702.0 1150.0 L 5729.0 1171.0 L 5778.0 1205.0 L 5801.0 1220.0 L 5861.0 1256.0 L 5871.0 1262.0 L 5953.0 1302.0 L 5956.0 1304.0 L 6048.0 1342.0 L 6053.0 1344.0 L 6148.0 1375.0 L 6165.0 1379.0 L 6254.0 1403.0 L 6264.0 1405.0 L 6281.0 1407.0 L 6309.0 1412.0 L 6396.0 1428.0 L 6447.0 1435.0 L 6487.5 1440.8" class="track-outline" data-sector="12"/>
      <path d="M 6487.5 1440.8 L 6517.0 1445.0 L 6580.0 1453.0 L 6642.0 1462.0 L 6717.0 1473.0 L 6765.0 1482.0 L 6846.0 1498.0 L 6880.0 1507.0 L 6963.0 1528.0 L 6985.0 1535.0 L 7069.0 1561.0 L 7081.0 1566.0 L 7166.0 1599.0 L 7169.0 1601.0 L 7248.0 1640.0 L 7252.0 1642.0 L 7317.0 1686.0 L 7329.0 1697.0 L 7401.0 1772.0 L 7414.0 1788.0 L 7438.0 1831.0 L 7446.0 1853.0 L 7462.0 1904.0 L 7467.0 1936.0 L 7472.0 1980.0 L 7472.0 2019.0 L 7470.0 2058.0 L 7461.0 2105.0 L 7454.0 2136.0 L 7441.0 2174.0 L 7427.0 2211.0 L 7404.0 2254.0 L 7387.0 2283.0 L 7352.0 2330.0 L 7336.0 2350.0 L 7289.0 2396.0 L 7275.0 2409.0 L 7209.0 2454.0 L 7200.0 2460.0 L 7118.0 2497.0 L 7115.0 2499.0 L 6974.0 2535.0 L 6964.0 2537.0 L 6840.0 2561.0 L 6821.0 2563.0 L 6735.0 2574.0 L 6696.0 2578.0 L 6620.0 2587.0 L 6572.0 2592.0 L 6507.0 2601.0 L 6446.0 2608.0 L 6387.0 2615.0 L 6311.0 2622.0 L 6262.0 2627.0 L 6172.0 2634.0 L 6133.0 2637.0 L 6028.0 2641.0 L 6004.7 2641.8" class="track-outline" data-sector="13"/>
      <path d="M 6004.7 2641.8 L 6000.0 2642.0 L 5880.0 2642.0 L 5863.0 2642.0 L 5726.0 2637.0 L 5722.0 2637.0 L 5578.0 2627.0 L 5569.0 2626.0 L 5430.0 2614.0 L 5407.0 2611.0 L 5280.0 2596.0 L 5243.0 2590.0 L 5128.0 2573.0 L 5077.0 2564.0 L 4975.0 2544.0 L 4910.0 2530.0 L 4821.0 2510.0 L 4740.0 2490.0 L 4664.0 2470.0 L 4568.0 2444.0 L 4506.0 2427.0 L 4396.0 2394.0 L 4348.0 2380.0 L 4223.0 2339.0 L 4190.0 2328.0 L 4050.0 2278.0 L 4031.0 2271.0 L 3877.0 2212.0 L 3872.0 2211.0 L 3710.0 2151.0 L 3701.0 2147.0 L 3556.0 2100.0 L 3552.0 2099.0 L 3403.0 2054.0 L 3393.0 2051.0 L 3235.0 2002.0 L 3209.0 1993.0 L 3068.0 1946.0 L 3029.0 1932.0 L 2915.0 1891.0 L 2880.3 1877.3" class="track-outline" data-sector="14"/>
      <path d="M 2880.3 1877.3 L 2867.0 1872.0 L 2780.0 1837.0 L 2726.0 1814.0 L 2657.0 1784.0 L 2593.0 1755.0 L 2539.0 1731.0 L 2480.0 1703.0 L 2454.0 1690.0 L 2386.0 1656.0 L 2369.0 1648.0 L 2299.0 1612.0 L 2290.0 1608.0 L 2217.0 1573.0 L 2215.0 1573.0 L 2146.0 1549.0 L 2142.0 1547.0 L 2085.0 1538.0 L 2076.0 1538.0 L 2029.0 1548.0 L 2005.0 1553.0 L 1973.0 1564.0 L 1945.0 1581.0 L 1920.0 1604.0 L 1884.0 1639.0 L 1861.0 1664.0 L 1818.0 1705.0 L 1800.0 1721.0 L 1753.0 1752.0 L 1741.0 1760.0 L 1685.0 1784.0 L 1678.0 1787.0 L 1613.0 1801.0 L 1611.0 1802.0 L 1544.0 1806.0 L 1540.0 1805.0 L 1480.0 1798.0 L 1470.0 1795.0 L 1420.0 1781.0 L 1406.0 1775.0 L 1365.0 1756.0 L 1348.0 1746.0 L 1317.0 1724.0 L 1298.0 1709.0 L 1276.0 1687.0 L 1257.0 1663.0 L 1242.0 1640.0 L 1224.0 1609.0 L 1214.0 1587.0 L 1204.0 1555.0 L 1198.0 1524.0 L 1193.0 1482.0 L 1192.0 1454.0 L 1194.0 1399.0 L 1198.0 1374.0 L 1207.3 1313.7" class="track-outline" data-sector="15"/>
      <path d="M 1207.3 1313.7 L 1209.0 1303.0 L 1213.0 1288.0 L 1223.0 1241.0 L 1225.0 1234.0 L 1242.0 1147.0 L 1243.0 1145.0 L 1261.0 1054.0 L 1262.0 1047.0 L 1279.0 954.0 L 1281.0 938.0 L 1296.0 859.0 L 1302.0 823.0 L 1315.0 750.0 L 1323.0 702.0 L 1335.0 635.0 L 1345.0 574.0 L 1356.0 516.0 L 1368.0 442.0 L 1377.0 394.0 L 1392.0 306.0 L 1399.0 267.0 L 1417.0 164.0 L 1422.0 136.0 L 1442.0 19.0 L 1445.0 3.0 L 1468.0 -127.0 L 1469.0 -132.0 L 1493.0 -271.0 L 1494.0 -279.0 L 1518.0 -413.0 L 1521.0 -434.0 L 1543.0 -556.0 L 1548.0 -589.0 L 1549.8 -598.8" class="track-outline" data-sector="16"/>
      <path d="M 1549.8 -598.8 L 1567.0 -694.0 L 1574.0 -739.0 L 1587.0 -821.0 L 1592.0 -855.0 L 1597.0 -898.0 L 1601.0 -951.0 L 1605.0 -1006.0 L 1604.0 -1068.0 L 1601.0 -1107.0 L 1590.0 -1174.0 L 1584.0 -1204.0 L 1559.0 -1276.0 L 1551.0 -1296.0 L 1508.0 -1372.0 L 1502.0 -1383.0 L 1438.0 -1456.0 L 1436.0 -1459.0 L 1356.0 -1524.0 L 1350.0 -1527.0 L 1266.0 -1570.0 L 1263.0 -1572.0 L 1157.0 -1602.0 L 1150.0 -1603.0 L 1038.0 -1613.0 L 996.0 -1613.0 L 911.0 -1611.0 L 856.0 -1607.0 L 782.0 -1602.0 L 716.0 -1597.0 L 656.0 -1593.0 L 578.0 -1588.0 L 529.0 -1585.0 L 438.0 -1579.0 L 400.0 -1576.0 L 296.0 -1564.0 L 280.0 -1562.0 L 150.0 -1538.0 L 146.0 -1538.0 L 12.0 -1502.0 L 4.0 -1499.0 L -16.5 -1492.1" class="track-outline" data-sector="17"/>
      <path d="M -16.5 -1492.1 L -103.0 -1463.0 L -121.0 -1455.0 L -237.0 -1409.0 L -269.0 -1394.0 L -367.0 -1344.0 L -409.0 -1319.0 L -492.0 -1264.0 L -542.0 -1225.0 L -608.0 -1170.0 L -663.0 -1116.0 L -714.0 -1063.0 L -772.0 -992.0 L -809.0 -944.0 L -866.0 -854.0 L -890.0 -814.0 L -942.0 -704.0 L -955.0 -674.0 L -995.0 -547.0 L -1000.0 -530.0 L -1019.0 -385.0 L -1020.0 -381.0 L -1012.0 -219.0 L -1010.0 -209.0 L -983.0 -59.0 L -977.0 -35.0 L -942.8 71.6" class="track-outline" data-sector="18"/>
      <path d="M -942.8 71.6 L -936.0 93.0 L -922.0 126.0 L -870.0 243.0 L -838.0 314.0 L -773.0 469.0 L -744.0 539.0 L -715.0 618.0 L -685.0 694.0 L -657.0 769.0 L -621.0 861.0 L -598.0 922.0 L -567.0 1001.0 L -539.0 1075.0 L -502.0 1169.0 L -479.0 1231.0 L -436.0 1340.0 L -418.0 1388.0 L -370.0 1512.0 L -357.0 1546.0 L -302.0 1686.0 L -295.0 1706.0 L -234.0 1862.0 L -233.0 1867.0 L -171.0 2028.0 L -166.0 2038.0 L -103.0 2204.0 L -92.0 2230.0 L -46.0 2353.0 L -25.0 2407.0 L 17.0 2517.0 L 43.0 2586.0 L 81.0 2682.0 L 113.0 2767.0 L 145.0 2849.0 L 183.0 2949.0 L 210.0 3016.0 L 256.0 3137.0 L 275.0 3184.0 L 312.0 3280.0 L 324.0 3310.0 L 380.0 3457.0 L 389.0 3479.0 L 391.3 3485.0" class="track-outline" data-sector="19"/>
      <path d="M 391.3 3485.0 L 451.0 3640.0 L 454.0 3646.0 L 472.0 3685.0 L 467.0 3678.0 L 474.0 3695.0 L 501.0 3764.0 L 541.0 3860.0 L 575.0 3944.0 L 609.0 4024.0 L 649.0 4123.0 L 676.0 4189.0 L 723.0 4304.0 L 744.0 4355.0 L 797.0 4487.0 L 812.0 4522.0 L 872.0 4669.0 L 881.0 4689.0 L 943.0 4842.0 L 947.0 4851.0 L 1012.0 5010.0 L 1022.0 5034.0 L 1081.0 5179.0 L 1101.0 5229.0 L 1168.0 5399.0 L 1190.0 5461.0 L 1226.0 5568.0 L 1245.0 5632.0 L 1259.5 5680.5" class="track-outline" data-sector="1"/>
    </g>

    <g id="track-sectors">
      <path d="M 1259.5 5680.5 L 1271.0 5719.0 L 1292.0 5798.0 L 1313.0 5872.0 L 1336.0 5957.0 L 1351.0 6011.0 L 1374.0 6098.0 L 1385.0 6135.0 L 1413.0 6225.0 L 1421.0 6248.0 L 1451.0 6334.0 L 1456.0 6346.0 L 1495.0 6432.0 L 1497.0 6435.0 L 1541.0 6512.0 L 1542.0 6514.0 L 1564.0 6531.0 L 1578.0 6548.0 L 1616.0 6596.0 L 1638.0 6617.0 L 1669.0 6641.0 L 1699.0 6660.0 L 1729.0 6677.0 L 1766.0 6691.0 L 1792.0 6699.0 L 1836.0 6708.0 L 1856.0 6711.0 L 1906.0 6712.0 L 1921.0 6712.0 L 1977.0 6705.0 L 1985.0 6704.0 L 2042.0 6686.0 L 2045.0 6686.0 L 2095.0 6663.0 L 2102.0 6660.0 L 2147.0 6631.0 L 2149.0 6630.0 L 2197.0 6579.0 L 2199.0 6575.0 L 2239.0 6517.0 L 2244.0 6507.0 L 2272.0 6448.0 L 2278.0 6430.0 L 2295.0 6371.0 L 2299.0 6343.0 L 2305.0 6287.0 L 2305.0 6249.0 L 2302.0 6197.0 L 2295.0 6149.0 L 2289.0 6112.0 L 2272.0 6042.0 L 2264.0 6012.0 L 2238.0 5932.0 L 2231.0 5911.0 L 2199.0 5821.0 L 2195.0 5809.0 L 2156.0 5707.0 L 2155.0 5704.0 L 2113.0 5595.0 L 2101.0 5568.0 L 2065.0 5483.0 L 2048.0 5445.0 L 2013.0 5368.0 L 1990.0 5318.0 L 1987.1 5311.6" class="track" data-sector="2"/>
      <path d="M 1987.1 5311.6 L 1959.0 5250.0 L 1931.0 5187.0 L 1905.0 5128.0 L 1873.0 5052.0 L 1854.0 5003.0 L 1822.0 4913.0 L 1810.0 4873.0 L 1784.0 4767.0 L 1779.0 4738.0 L 1766.0 4614.0 L 1766.0 4597.0 L 1767.0 4452.0 L 1768.0 4448.0 L 1782.0 4296.0 L 1782.0 4287.0 L 1785.1 4259.6" class="track" data-sector="3"/>
      <path d="M 1785.1 4259.6 L 1797.0 4153.0 L 1798.0 4133.0 L 1802.0 4028.0 L 1800.0 3979.0 L 1793.0 3917.0 L 1781.0 3866.0 L 1766.0 3821.0 L 1741.0 3768.0 L 1721.0 3736.0 L 1679.0 3682.0 L 1658.0 3660.0 L 1599.0 3610.0 L 1582.0 3598.0 L 1505.0 3551.0 L 1494.0 3546.0 L 1402.0 3503.0 L 1399.0 3502.0 L 1301.0 3466.0 L 1295.0 3463.0 L 1203.0 3431.0 L 1187.0 3425.0 L 1106.0 3397.0 L 1088.9 3390.6" class="track" data-sector="4"/>
      <path d="M 1088.9 3390.6 L 1082.0 3388.0 L 1017.0 3364.0 L 991.0 3354.0 L 937.0 3329.0 L 883.0 3300.0 L 824.0 3267.0 L 788.0 3238.0 L 773.0 3221.0 L 742.0 3183.0 L 730.0 3165.0 L 706.0 3116.0 L 702.0 3103.0 L 687.0 3045.0 L 686.0 3037.0 L 684.0 2971.0 L 685.0 2969.0 L 696.0 2903.0 L 696.0 2899.0 L 717.0 2841.0 L 721.0 2832.0 L 748.0 2784.0 L 756.0 2770.0 L 789.0 2730.0 L 804.0 2713.0 L 840.0 2683.0 L 864.0 2665.0 L 899.0 2644.0 L 931.0 2627.0 L 964.0 2615.0 L 1005.0 2603.0 L 1033.0 2598.0 L 1083.0 2588.0 L 1107.0 2588.0 L 1170.0 2600.0 L 1189.0 2605.0 L 1269.0 2626.0 L 1281.0 2630.0 L 1370.0 2658.0 L 1373.0 2659.0 L 1464.0 2688.0 L 1469.0 2689.0" class="track" data-sector="5"/>
      <path d="M 1469.0 2689.0 L 1557.0 2717.0 L 1568.0 2720.0 L 1628.0 2741.0 L 1644.0 2747.0 L 1704.0 2772.0 L 1718.0 2777.0 L 1809.0 2813.0 L 1835.0 2822.0 L 1919.0 2853.0 L 1956.0 2866.0 L 2032.0 2892.0 L 2081.0 2907.0 L 2151.0 2929.0 L 2213.0 2947.0 L 2273.0 2963.0 L 2349.0 2981.0 L 2400.0 2992.0 L 2492.0 3008.0 L 2533.0 3014.0 L 2640.0 3026.0 L 2669.0 3029.0 L 2790.0 3036.0 L 2795.0 3037.0 L 2936.0 3040.0 L 2944.0 3039.0 L 3080.0 3034.0 L 3101.0 3032.0 L 3226.0 3021.0 L 3261.0 3016.0 L 3373.0 3000.0 L 3449.0 2987.0 L 3522.0 2974.0 L 3611.0 2956.0 L 3671.0 2945.0 L 3775.0 2923.0 L 3822.0 2915.0 L 3943.0 2893.0 L 3975.0 2888.0 L 3977.5 2887.6" class="track" data-sector="6"/>
      <path d="M 3977.5 2887.6 L 4097.0 2869.0 L 4115.0 2867.0 L 4265.0 2853.0 L 4270.0 2853.0 L 4426.0 2851.0 L 4435.0 2851.0 L 4583.0 2864.0 L 4606.0 2867.0 L 4739.0 2894.0 L 4776.0 2903.0 L 4894.0 2940.0 L 4944.0 2958.0 L 5045.0 3002.0 L 5107.0 3032.0 L 5192.0 3077.0 L 5292.0 3134.0 L 5336.0 3161.0 L 5446.0 3229.0 L 5477.0 3248.0 L 5600.0 3323.0 L 5618.0 3334.0 L 5754.0 3411.0 L 5760.0 3414.0 L 5907.0 3484.0 L 5915.0 3487.0 L 6054.0 3538.0 L 6059.0 3540.0 L 6218.0 3580.0 L 6226.0 3581.0 L 6246.0 3584.0" class="track" data-sector="7"/>
      <path d="M 6246.0 3584.0 L 6364.0 3602.0 L 6387.0 3604.0 L 6525.0 3616.0 L 6564.0 3618.0 L 6688.0 3624.0 L 6743.0 3625.0 L 6854.0 3628.0 L 6925.0 3628.0 L 7020.0 3629.0 L 7105.0 3628.0 L 7186.0 3628.0 L 7292.0 3626.0 L 7319.3 3625.5" class="track" data-sector="8"/>
      <path d="M 7319.3 3625.5 L 7346.0 3625.0 L 7477.0 3621.0 L 7513.0 3620.0 L 7654.0 3611.0 L 7674.0 3610.0 L 7821.0 3594.0 L 7826.0 3594.0 L 7968.0 3567.0 L 7976.0 3564.0 L 8100.0 3523.0 L 8119.0 3514.0 L 8225.0 3462.0 L 8253.0 3444.0 L 8341.0 3383.0 L 8376.0 3352.0 L 8445.0 3286.0 L 8484.0 3239.0 L 8535.0 3173.0 L 8574.0 3110.0 L 8608.0 3048.0 L 8643.0 2967.0 L 8663.0 2914.0 L 8688.0 2816.0 L 8697.0 2772.0 L 8708.0 2655.0 L 8708.8 2629.4" class="track" data-sector="9"/>
      <path d="M 8708.8 2629.4 L 8709.0 2623.0 L 8702.0 2487.0 L 8700.0 2467.0 L 8667.0 2300.0 L 8666.0 2295.0 L 8615.0 2156.0 L 8611.0 2147.0 L 8539.0 2017.0 L 8526.0 1996.0 L 8454.0 1881.0 L 8433.0 1849.0 L 8369.0 1750.0 L 8341.0 1707.0 L 8286.0 1620.0 L 8251.0 1565.0 L 8203.0 1488.0 L 8160.0 1419.0 L 8120.0 1354.0 L 8071.0 1271.0 L 8041.0 1216.0 L 7988.0 1117.0 L 7966.0 1074.0 L 7917.9 972.6" class="track" data-sector="10"/>
      <path d="M 7917.9 972.6 L 7911.0 958.0 L 7897.0 926.0 L 7838.0 793.0 L 7831.0 776.0 L 7770.0 636.0 L 7769.0 633.0 L 7707.0 501.0 L 7703.0 493.0 L 7644.0 383.0 L 7634.0 366.0 L 7583.0 293.0 L 7558.0 264.0 L 7505.0 212.0 L 7467.0 183.0 L 7411.0 149.0 L 7355.0 123.0 L 7299.0 104.0 L 7225.0 85.0 L 7176.0 77.0 L 7088.0 66.0 L 7050.0 64.0 L 6950.0 61.0 L 6923.0 62.0 L 6810.0 66.0 L 6795.0 67.0 L 6670.0 78.0 L 6666.0 79.0 L 6536.0 99.0 L 6528.0 100.0 L 6453.1 116.4" class="track" data-sector="11"/>
      <path d="M 6453.1 116.4 L 6405.0 127.0 L 6385.0 131.0 L 6274.0 163.0 L 6242.0 173.0 L 6143.0 209.0 L 6100.0 226.0 L 6015.0 265.0 L 5961.0 292.0 L 5893.0 332.0 L 5838.0 367.0 L 5801.0 395.0 L 5783.0 410.0 L 5770.0 423.0 L 5718.0 467.0 L 5694.0 489.0 L 5641.0 541.0 L 5629.0 555.0 L 5581.0 613.0 L 5576.0 622.0 L 5537.0 687.0 L 5536.0 690.0 L 5509.0 755.0 L 5507.0 758.0 L 5497.0 814.0 L 5497.0 816.0 L 5499.0 877.0 L 5501.0 890.0 L 5516.0 934.0 L 5526.0 954.0 L 5554.0 998.0 L 5574.0 1024.0 L 5604.0 1060.0 L 5633.0 1090.0 L 5663.0 1118.0 L 5702.0 1150.0 L 5729.0 1171.0 L 5778.0 1205.0 L 5801.0 1220.0 L 5861.0 1256.0 L 5871.0 1262.0 L 5953.0 1302.0 L 5956.0 1304.0 L 6048.0 1342.0 L 6053.0 1344.0 L 6148.0 1375.0 L 6165.0 1379.0 L 6254.0 1403.0 L 6264.0 1405.0 L 6281.0 1407.0 L 6309.0 1412.0 L 6396.0 1428.0 L 6447.0 1435.0 L 6487.5 1440.8" class="track" data-sector="12"/>
      <path d="M 6487.5 1440.8 L 6517.0 1445.0 L 6580.0 1453.0 L 6642.0 1462.0 L 6717.0 1473.0 L 6765.0 1482.0 L 6846.0 1498.0 L 6880.0 1507.0 L 6963.0 1528.0 L 6985.0 1535.0 L 7069.0 1561.0 L 7081.0 1566.0 L 7166.0 1599.0 L 7169.0 1601.0 L 7248.0 1640.0 L 7252.0 1642.0 L 7317.0 1686.0 L 7329.0 1697.0 L 7401.0 1772.0 L 7414.0 1788.0 L 7438.0 1831.0 L 7446.0 1853.0 L 7462.0 1904.0 L 7467.0 1936.0 L 7472.0 1980.0 L 7472.0 2019.0 L 7470.0 2058.0 L 7461.0 2105.0 L 7454.0 2136.0 L 7441.0 2174.0 L 7427.0 2211.0 L 7404.0 2254.0 L 7387.0 2283.0 L 7352.0 2330.0 L 7336.0 2350.0 L 7289.0 2396.0 L 7275.0 2409.0 L 7209.0 2454.0 L 7200.0 2460.0 L 7118.0 2497.0 L 7115.0 2499.0 L 6974.0 2535.0 L 6964.0 2537.0 L 6840.0 2561.0 L 6821.0 2563.0 L 6735.0 2574.0 L 6696.0 2578.0 L 6620.0 2587.0 L 6572.0 2592.0 L 6507.0 2601.0 L 6446.0 2608.0 L 6387.0 2615.0 L 6311.0 2622.0 L 6262.0 2627.0 L 6172.0 2634.0 L 6133.0 2637.0 L 6028.0 2641.0 L 6004.7 2641.8" class="track" data-sector="13"/>
      <path d="M 6004.7 2641.8 L 6000.0 2642.0 L 5880.0 2642.0 L 5863.0 2642.0 L 5726.0 2637.0 L 5722.0 2637.0 L 5578.0 2627.0 L 5569.0 2626.0 L 5430.0 2614.0 L 5407.0 2611.0 L 5280.0 2596.0 L 5243.0 2590.0 L 5128.0 2573.0 L 5077.0 2564.0 L 4975.0 2544.0 L 4910.0 2530.0 L 4821.0 2510.0 L 4740.0 2490.0 L 4664.0 2470.0 L 4568.0 2444.0 L 4506.0 2427.0 L 4396.0 2394.0 L 4348.0 2380.0 L 4223.0 2339.0 L 4190.0 2328.0 L 4050.0 2278.0 L 4031.0 2271.0 L 3877.0 2212.0 L 3872.0 2211.0 L 3710.0 2151.0 L 3701.0 2147.0 L 3556.0 2100.0 L 3552.0 2099.0 L 3403.0 2054.0 L 3393.0 2051.0 L 3235.0 2002.0 L 3209.0 1993.0 L 3068.0 1946.0 L 3029.0 1932.0 L 2915.0 1891.0 L 2880.3 1877.3" class="track" data-sector="14"/>
      <path d="M 2880.3 1877.3 L 2867.0 1872.0 L 2780.0 1837.0 L 2726.0 1814.0 L 2657.0 1784.0 L 2593.0 1755.0 L 2539.0 1731.0 L 2480.0 1703.0 L 2454.0 1690.0 L 2386.0 1656.0 L 2369.0 1648.0 L 2299.0 1612.0 L 2290.0 1608.0 L 2217.0 1573.0 L 2215.0 1573.0 L 2146.0 1549.0 L 2142.0 1547.0 L 2085.0 1538.0 L 2076.0 1538.0 L 2029.0 1548.0 L 2005.0 1553.0 L 1973.0 1564.0 L 1945.0 1581.0 L 1920.0 1604.0 L 1884.0 1639.0 L 1861.0 1664.0 L 1818.0 1705.0 L 1800.0 1721.0 L 1753.0 1752.0 L 1741.0 1760.0 L 1685.0 1784.0 L 1678.0 1787.0 L 1613.0 1801.0 L 1611.0 1802.0 L 1544.0 1806.0 L 1540.0 1805.0 L 1480.0 1798.0 L 1470.0 1795.0 L 1420.0 1781.0 L 1406.0 1775.0 L 1365.0 1756.0 L 1348.0 1746.0 L 1317.0 1724.0 L 1298.0 1709.0 L 1276.0 1687.0 L 1257.0 1663.0 L 1242.0 1640.0 L 1224.0 1609.0 L 1214.0 1587.0 L 1204.0 1555.0 L 1198.0 1524.0 L 1193.0 1482.0 L 1192.0 1454.0 L 1194.0 1399.0 L 1198.0 1374.0 L 1207.3 1313.7" class="track" data-sector="15"/>
      <path d="M 1207.3 1313.7 L 1209.0 1303.0 L 1213.0 1288.0 L 1223.0 1241.0 L 1225.0 1234.0 L 1242.0 1147.0 L 1243.0 1145.0 L 1261.0 1054.0 L 1262.0 1047.0 L 1279.0 954.0 L 1281.0 938.0 L 1296.0 859.0 L 1302.0 823.0 L 1315.0 750.0 L 1323.0 702.0 L 1335.0 635.0 L 1345.0 574.0 L 1356.0 516.0 L 1368.0 442.0 L 1377.0 394.0 L 1392.0 306.0 L 1399.0 267.0 L 1417.0 164.0 L 1422.0 136.0 L 1442.0 19.0 L 1445.0 3.0 L 1468.0 -127.0 L 1469.0 -132.0 L 1493.0 -271.0 L 1494.0 -279.0 L 1518.0 -413.0 L 1521.0 -434.0 L 1543.0 -556.0 L 1548.0 -589.0 L 1549.8 -598.8" class="track" data-sector="16"/>
      <path d="M 1549.8 -598.8 L 1567.0 -694.0 L 1574.0 -739.0 L 1587.0 -821.0 L 1592.0 -855.0 L 1597.0 -898.0 L 1601.0 -951.0 L 1605.0 -1006.0 L 1604.0 -1068.0 L 1601.0 -1107.0 L 1590.0 -1174.0 L 1584.0 -1204.0 L 1559.0 -1276.0 L 1551.0 -1296.0 L 1508.0 -1372.0 L 1502.0 -1383.0 L 1438.0 -1456.0 L 1436.0 -1459.0 L 1356.0 -1524.0 L 1350.0 -1527.0 L 1266.0 -1570.0 L 1263.0 -1572.0 L 1157.0 -1602.0 L 1150.0 -1603.0 L 1038.0 -1613.0 L 996.0 -1613.0 L 911.0 -1611.0 L 856.0 -1607.0 L 782.0 -1602.0 L 716.0 -1597.0 L 656.0 -1593.0 L 578.0 -1588.0 L 529.0 -1585.0 L 438.0 -1579.0 L 400.0 -1576.0 L 296.0 -1564.0 L 280.0 -1562.0 L 150.0 -1538.0 L 146.0 -1538.0 L 12.0 -1502.0 L 4.0 -1499.0 L -16.5 -1492.1" class="track" data-sector="17"/>
      <path d="M -16.5 -1492.1 L -103.0 -1463.0 L -121.0 -1455.0 L -237.0 -1409.0 L -269.0 -1394.0 L -367.0 -1344.0 L -409.0 -1319.0 L -492.0 -1264.0 L -542.0 -1225.0 L -608.0 -1170.0 L -663.0 -1116.0 L -714.0 -1063.0 L -772.0 -992.0 L -809.0 -944.0 L -866.0 -854.0 L -890.0 -814.0 L -942.0 -704.0 L -955.0 -674.0 L -995.0 -547.0 L -1000.0 -530.0 L -1019.0 -385.0 L -1020.0 -381.0 L -1012.0 -219.0 L -1010.0 -209.0 L -983.0 -59.0 L -977.0 -35.0 L -942.8 71.6" class="track" data-sector="18"/>
      <path d="M -942.8 71.6 L -936.0 93.0 L -922.0 126.0 L -870.0 243.0 L -838.0 314.0 L -773.0 469.0 L -744.0 539.0 L -715.0 618.0 L -685.0 694.0 L -657.0 769.0 L -621.0 861.0 L -598.0 922.0 L -567.0 1001.0 L -539.0 1075.0 L -502.0 1169.0 L -479.0 1231.0 L -436.0 1340.0 L -418.0 1388.0 L -370.0 1512.0 L -357.0 1546.0 L -302.0 1686.0 L -295.0 1706.0 L -234.0 1862.0 L -233.0 1867.0 L -171.0 2028.0 L -166.0 2038.0 L -103.0 2204.0 L -92.0 2230.0 L -46.0 2353.0 L -25.0 2407.0 L 17.0 2517.0 L 43.0 2586.0 L 81.0 2682.0 L 113.0 2767.0 L 145.0 2849.0 L 183.0 2949.0 L 210.0 3016.0 L 256.0 3137.0 L 275.0 3184.0 L 312.0 3280.0 L 324.0 3310.0 L 380.0 3457.0 L 389.0 3479.0 L 391.3 3485.0" class="track" data-sector="19"/>
      <path d="M 391.3 3485.0 L 451.0 3640.0 L 454.0 3646.0 L 472.0 3685.0 L 467.0 3678.0 L 474.0 3695.0 L 501.0 3764.0 L 541.0 3860.0 L 575.0 3944.0 L 609.0 4024.0 L 649.0 4123.0 L 676.0 4189.0 L 723.0 4304.0 L 744.0 4355.0 L 797.0 4487.0 L 812.0 4522.0 L 872.0 4669.0 L 881.0 4689.0 L 943.0 4842.0 L 947.0 4851.0 L 1012.0 5010.0 L 1022.0 5034.0 L 1081.0 5179.0 L 1101.0 5229.0 L 1168.0 5399.0 L 1190.0 5461.0 L 1226.0 5568.0 L 1245.0 5632.0 L 1259.5 5680.5" class="track" data-sector="1"/>
    </g>

    <g id="marshal-lights">
      <g class="marshal-light-marker" data-light="1">
        <rect x="357.3" y="3445.4" width="60.8" height="60.8" class="marshal-light-bg"/>
        <text x="387.7" y="3475.8" class="marshal-light-label">1</text>
      </g>
      <g class="marshal-light-marker" data-light="2">
        <rect x="1252.3" y="5732.7" width="60.8" height="60.8" class="marshal-light-bg"/>
        <text x="1282.7" y="5763.1" class="marshal-light-label">2</text>
      </g>
      <g class="marshal-light-marker" data-light="3">
        <rect x="1988.3" y="5350.2" width="60.8" height="60.8" class="marshal-light-bg"/>
        <text x="2018.7" y="5380.6" class="marshal-light-label">3</text>
      </g>
      <g class="marshal-light-marker" data-light="4">
        <rect x="1751.3" y="4268.6" width="60.8" height="60.8" class="marshal-light-bg"/>
        <text x="1781.7" y="4299.0" class="marshal-light-label">4</text>
      </g>
      <g class="marshal-light-marker" data-light="5">
        <rect x="1018.3" y="3345.3" width="60.8" height="60.8" class="marshal-light-bg"/>
        <text x="1048.7" y="3375.7" class="marshal-light-label">5</text>
      </g>
      <g class="marshal-light-marker" data-light="6">
        <rect x="1425.9" y="2655.1" width="60.8" height="60.8" class="marshal-light-bg"/>
        <text x="1456.3" y="2685.5" class="marshal-light-label">6</text>
      </g>
      <g class="marshal-light-marker" data-light="7">
        <rect x="4002.5" y="2848.6" width="60.8" height="60.8" class="marshal-light-bg"/>
        <text x="4032.9" y="2879.0" class="marshal-light-label">7</text>
      </g>
      <g class="marshal-light-marker" data-light="8">
        <rect x="6189.5" y="3549.8" width="60.8" height="60.8" class="marshal-light-bg"/>
        <text x="6219.9" y="3580.2" class="marshal-light-label">8</text>
      </g>
      <g class="marshal-light-marker" data-light="9">
        <rect x="7312.0" y="3594.7" width="60.8" height="60.8" class="marshal-light-bg"/>
        <text x="7342.4" y="3625.1" class="marshal-light-label">9</text>
      </g>
      <g class="marshal-light-marker" data-light="10">
        <rect x="8678.6" y="2592.4" width="60.8" height="60.8" class="marshal-light-bg"/>
        <text x="8709.0" y="2622.8" class="marshal-light-label">10</text>
      </g>
      <g class="marshal-light-marker" data-light="11">
        <rect x="7894.6" y="957.1" width="60.8" height="60.8" class="marshal-light-bg"/>
        <text x="7925.0" y="987.5" class="marshal-light-label">11</text>
      </g>
      <g class="marshal-light-marker" data-light="12">
        <rect x="6390.5" y="93.1" width="60.8" height="60.8" class="marshal-light-bg"/>
        <text x="6420.9" y="123.5" class="marshal-light-label">12</text>
      </g>
      <g class="marshal-light-marker" data-light="13">
        <rect x="6515.9" y="1418.3" width="60.8" height="60.8" class="marshal-light-bg"/>
        <text x="6546.3" y="1448.7" class="marshal-light-label">13</text>
      </g>
      <g class="marshal-light-marker" data-light="14">
        <rect x="6690.1" y="2545.1" width="60.8" height="60.8" class="marshal-light-bg"/>
        <text x="6720.5" y="2575.5" class="marshal-light-label">14</text>
      </g>
      <g class="marshal-light-marker" data-light="15">
        <rect x="2865.2" y="1852.9" width="60.8" height="60.8" class="marshal-light-bg"/>
        <text x="2895.6" y="1883.3" class="marshal-light-label">15</text>
      </g>
      <g class="marshal-light-marker" data-light="16">
        <rect x="1243.7" y="950.3" width="60.8" height="60.8" class="marshal-light-bg"/>
        <text x="1274.1" y="980.7" class="marshal-light-label">16</text>
      </g>
      <g class="marshal-light-marker" data-light="17">
        <rect x="1533.5" y="-707.1" width="60.8" height="60.8" class="marshal-light-bg"/>
        <text x="1563.9" y="-676.7" class="marshal-light-label">17</text>
      </g>
      <g class="marshal-light-marker" data-light="18">
        <rect x="-18.8" y="-1532.3" width="60.8" height="60.8" class="marshal-light-bg"/>
        <text x="11.6" y="-1501.8" class="marshal-light-label">18</text>
      </g>
      <g class="marshal-light-marker" data-light="19">
        <rect x="-995.4" y="-27.9" width="60.8" height="60.8" class="marshal-light-bg"/>
        <text x="-965.0" y="2.5" class="marshal-light-label">19</text>
      </g>
    </g>

    <g id="marshal-sectors">
      <g class="marshal-sector-marker" data-sector="1" data-length="42006.3">
        <polygon points="391.3,3412.0 328.1,3521.5 454.5,3521.5" class="marshal-sector-bg"/>
        <text x="391.3" y="3485.0" class="marshal-sector-label">1</text>
      </g>
      <g class="marshal-sector-marker" data-sector="2" data-length="2154.4">
        <polygon points="1259.5,5607.5 1196.3,5717.0 1322.7,5717.0" class="marshal-sector-bg"/>
        <text x="1259.5" y="5680.5" class="marshal-sector-label">2</text>
      </g>
      <g class="marshal-sector-marker" data-sector="3" data-length="5150.2">
        <polygon points="1987.1,5238.7 1923.9,5348.1 2050.3,5348.1" class="marshal-sector-bg"/>
        <text x="1987.1" y="5311.6" class="marshal-sector-label">3</text>
      </g>
      <g class="marshal-sector-marker" data-sector="4" data-length="6242.2">
        <polygon points="1785.1,4186.6 1721.9,4296.1 1848.3,4296.1" class="marshal-sector-bg"/>
        <text x="1785.1" y="4259.6" class="marshal-sector-label">4</text>
      </g>
      <g class="marshal-sector-marker" data-sector="5" data-length="7515.7">
        <polygon points="1088.9,3317.6 1025.7,3427.1 1152.1,3427.1" class="marshal-sector-bg"/>
        <text x="1088.9" y="3390.6" class="marshal-sector-label">5</text>
      </g>
      <g class="marshal-sector-marker" data-sector="6" data-length="9152.2">
        <polygon points="1469.0,2616.0 1405.8,2725.5 1532.2,2725.5" class="marshal-sector-bg"/>
        <text x="1469.0" y="2689.0" class="marshal-sector-label">6</text>
      </g>
      <g class="marshal-sector-marker" data-sector="7" data-length="11725.6">
        <polygon points="3977.5,2814.6 3914.3,2924.1 4040.7,2924.1" class="marshal-sector-bg"/>
        <text x="3977.5" y="2887.6" class="marshal-sector-label">7</text>
      </g>
      <g class="marshal-sector-marker" data-sector="8" data-length="14160.4">
        <polygon points="6246.0,3511.1 6182.8,3620.5 6309.2,3620.5" class="marshal-sector-bg"/>
        <text x="6246.0" y="3584.0" class="marshal-sector-label">8</text>
      </g>
      <g class="marshal-sector-marker" data-sector="9" data-length="15236.0">
        <polygon points="7319.3,3552.5 7256.1,3662.0 7382.5,3662.0" class="marshal-sector-bg"/>
        <text x="7319.3" y="3625.5" class="marshal-sector-label">9</text>
      </g>
      <g class="marshal-sector-marker" data-sector="10" data-length="17172.7">
        <polygon points="8708.8,2556.5 8645.6,2665.9 8772.0,2665.9" class="marshal-sector-bg"/>
        <text x="8708.8" y="2629.4" class="marshal-sector-label">10</text>
      </g>
      <g class="marshal-sector-marker" data-sector="11" data-length="19033.5">
        <polygon points="7917.9,899.6 7854.7,1009.1 7981.1,1009.1" class="marshal-sector-bg"/>
        <text x="7917.9" y="972.6" class="marshal-sector-label">11</text>
      </g>
      <g class="marshal-sector-marker" data-sector="12" data-length="20993.2">
        <polygon points="6453.1,43.5 6389.9,152.9 6516.3,152.9" class="marshal-sector-bg"/>
        <text x="6453.1" y="116.4" class="marshal-sector-label">12</text>
      </g>
      <g class="marshal-sector-marker" data-sector="13" data-length="23497.4">
        <polygon points="6487.5,1367.8 6424.3,1477.3 6550.7,1477.3" class="marshal-sector-bg"/>
        <text x="6487.5" y="1440.8" class="marshal-sector-label">13</text>
      </g>
      <g class="marshal-sector-marker" data-sector="14" data-length="26509.6">
        <polygon points="6004.7,2568.9 5941.5,2678.3 6067.9,2678.3" class="marshal-sector-bg"/>
        <text x="6004.7" y="2641.8" class="marshal-sector-label">14</text>
      </g>
      <g class="marshal-sector-marker" data-sector="15" data-length="29746.2">
        <polygon points="2880.3,1804.3 2817.1,1913.7 2943.5,1913.7" class="marshal-sector-bg"/>
        <text x="2880.3" y="1877.3" class="marshal-sector-label">15</text>
      </g>
      <g class="marshal-sector-marker" data-sector="16" data-length="31933.6">
        <polygon points="1207.3,1240.8 1144.1,1350.2 1270.5,1350.2" class="marshal-sector-bg"/>
        <text x="1207.3" y="1313.7" class="marshal-sector-label">16</text>
      </g>
      <g class="marshal-sector-marker" data-sector="17" data-length="33876.9">
        <polygon points="1549.8,-671.7 1486.6,-562.3 1613.0,-562.3" class="marshal-sector-bg"/>
        <text x="1549.8" y="-598.8" class="marshal-sector-label">17</text>
      </g>
      <g class="marshal-sector-marker" data-sector="18" data-length="36288.6">
        <polygon points="-16.5,-1565.1 -79.6,-1455.6 46.7,-1455.6" class="marshal-sector-bg"/>
        <text x="-16.5" y="-1492.1" class="marshal-sector-label">18</text>
      </g>
      <g class="marshal-sector-marker" data-sector="19" data-length="38340.8">
        <polygon points="-942.8,-1.3 -1006.0,108.1 -879.7,108.1" class="marshal-sector-bg"/>
        <text x="-942.8" y="71.6" class="marshal-sector-label">19</text>
      </g>
    </g>

    <g id="corners">
      <g class="corner-marker" data-corner="1" data-length="3612.7">
        <circle cx="2045.2" cy="6685.9" r="97.3" class="corner-bg"/>
        <text x="2045.2" y="6685.9" class="corner-label">1</text>
      </g>
      <g class="corner-marker" data-corner="2" data-length="6674.4">
        <circle cx="1769.6" cy="3831.8" r="97.3" class="corner-bg"/>
        <text x="1769.6" y="3831.8" class="corner-label">2</text>
      </g>
      <g class="corner-marker" data-corner="3" data-length="8320.7">
        <circle cx="733.6" cy="2809.6" r="97.3" class="corner-bg"/>
        <text x="733.6" y="2809.6" class="corner-label">3</text>
      </g>
      <g class="corner-marker" data-corner="4" data-length="10452.1">
        <circle cx="2716.9" cy="3031.8" r="97.3" class="corner-bg"/>
        <text x="2716.9" y="3031.8" class="corner-label">4</text>
      </g>
      <g class="corner-marker" data-corner="5" data-length="12306.3">
        <circle cx="4555.5" cy="2861.6" r="97.3" class="corner-bg"/>
        <text x="4555.5" y="2861.6" class="corner-label">5</text>
      </g>
      <g class="corner-marker" data-corner="6" data-length="13906.4">
        <circle cx="6001.0" cy="3518.6" r="97.3" class="corner-bg"/>
        <text x="6001.0" y="3518.6" class="corner-label">6</text>
      </g>
      <g class="corner-marker" data-corner="7" data-length="16918.6">
        <circle cx="8671.7" cy="2880.0" r="97.3" class="corner-bg"/>
        <text x="8671.7" y="2880.0" class="corner-label">7</text>
      </g>
      <g class="corner-marker" data-corner="8" data-length="20095.8">
        <circle cx="7340.2" cy="118.0" r="97.3" class="corner-bg"/>
        <text x="7340.2" y="118.0" class="corner-label">8</text>
      </g>
      <g class="corner-marker" data-corner="9" data-length="22273.3">
        <circle cx="5498.1" cy="848.9" r="97.3" class="corner-bg"/>
        <text x="5498.1" y="848.9" class="corner-label">9</text>
      </g>
      <g class="corner-marker" data-corner="10" data-length="24856.7">
        <circle cx="7457.5" cy="2120.5" r="97.3" class="corner-bg"/>
        <text x="7457.5" y="2120.5" class="corner-label">10</text>
      </g>
      <g class="corner-marker" data-corner="11" data-length="30683.2">
        <circle cx="2016.6" cy="1550.6" r="97.3" class="corner-bg"/>
        <text x="2016.6" y="1550.6" class="corner-label">11</text>
      </g>
      <g class="corner-marker" data-corner="12" data-length="31557.5">
        <circle cx="1264.4" cy="1672.3" r="97.3" class="corner-bg"/>
        <text x="1264.4" y="1672.3" class="corner-label">12</text>
      </g>
      <g class="corner-marker" data-corner="13" data-length="34606.0">
        <circle cx="1540.9" cy="-1313.8" r="97.3" class="corner-bg"/>
        <text x="1540.9" y="-1313.8" class="corner-label">13</text>
      </g>
      <g class="corner-marker" data-corner="14" data-length="37407.1">
        <circle cx="-881.5" cy="-828.2" r="97.3" class="corner-bg"/>
        <text x="-881.5" y="-828.2" class="corner-label">14</text>
      </g>
    </g>

    <g id="start-finish" data-track-x="467.0" data-track-y="3678.0" data-lap-distance="42230.6">
      <polygon points="160.3,3409.1 298.1,3746.9 95.4,3829.6 -42.4,3491.8" class="checker-border"/>
      <polygon points="160.3,3409.1 187.9,3476.6 120.3,3504.2 92.7,3436.6" class="checker-black"/>
      <polygon points="92.7,3436.6 120.3,3504.2 52.7,3531.8 25.2,3464.2" class="checker-white"/>
      <polygon points="25.2,3464.2 52.7,3531.8 -14.8,3559.3 -42.4,3491.8" class="checker-black"/>
      <polygon points="187.9,3476.6 215.4,3544.2 147.9,3571.8 120.3,3504.2" class="checker-white"/>
      <polygon points="120.3,3504.2 147.9,3571.8 80.3,3599.3 52.7,3531.8" class="checker-black"/>
      <polygon points="52.7,3531.8 80.3,3599.3 12.7,3626.9 -14.8,3559.3" class="checker-white"/>
      <polygon points="215.4,3544.2 243.0,3611.8 175.4,3639.3 147.9,3571.8" class="checker-black"/>
      <polygon points="147.9,3571.8 175.4,3639.3 107.8,3666.9 80.3,3599.3" class="checker-white"/>
      <polygon points="80.3,3599.3 107.8,3666.9 40.3,3694.5 12.7,3626.9" class="checker-black"/>
      <polygon points="243.0,3611.8 270.5,3679.3 203.0,3706.9 175.4,3639.3" class="checker-white"/>
      <polygon points="175.4,3639.3 203.0,3706.9 135.4,3734.5 107.8,3666.9" class="checker-black"/>
      <polygon points="107.8,3666.9 135.4,3734.5 67.8,3762.0 40.3,3694.5" class="checker-white"/>
      <polygon points="270.5,3679.3 298.1,3746.9 230.5,3774.5 203.0,3706.9" class="checker-black"/>
      <polygon points="203.0,3706.9 230.5,3774.5 163.0,3802.0 135.4,3734.5" class="checker-white"/>
      <polygon points="135.4,3734.5 163.0,3802.0 95.4,3829.6 67.8,3762.0" class="checker-black"/>
      <polyline points="221.9,4172.0 380.5,4238.7 447.2,4080.1" class="chevron"/>
      <polyline points="258.7,4262.1 417.2,4328.7 483.9,4170.2" class="chevron"/>
      <polyline points="295.4,4352.2 454.0,4418.8 520.6,4260.3" class="chevron"/>
    </g>

    <g id="car-markers"></g>

  </g>
</svg>
