<svg xmlns="http://www.w3.org/2000/svg" viewBox="0 0 512 512">
  <!-- SVGRepo F1 car, nose right. Width reduced to 50% by removing a middle slice
       (front wheel + nose TRANSLATED left by 229.7); wheels & arches kept as
       true circles. Orange body, black tyres, transparent background. -->
  <defs>
    <clipPath id="fcL"><rect x="-300" y="-100" width="600" height="712"/></clipPath>
    <clipPath id="fcR"><rect x="70.30" y="-100" width="1000" height="712"/></clipPath>
  </defs>
  <g transform="translate(114.85,-7.95)">
    <path clip-path="url(#fcL)" fill="#F26A21" d="M355.975 292.25a24.82 24.82 0 1 0 24.82-24.81 24.84 24.84 0 0 0-24.82 24.81zm-253-24.81a24.81 24.81 0 1 1-24.82 24.81 24.84 24.84 0 0 1 24.81-24.81zm-76.67-71.52h67.25l-13.61 49.28 92-50.28h57.36l1.26 34.68 32 14.76 11.74-14.44h15.62l3.16 16c137.56-13 192.61 29.17 192.61 29.17s-7.52 5-25.93 8.39c-3.88 3.31-3.66 14.44-3.66 14.44h24.2v16h-52v-27.48c-1.84.07-4.45.41-7.06.47a40.81 40.81 0 1 0-77.25 23h-204.24a40.81 40.81 0 1 0-77.61-17.67c0 1.24.06 2.46.17 3.67h-36z"/>
    <g clip-path="url(#fcR)"><path transform="translate(-229.70,0)" fill="#F26A21" d="M355.975 292.25a24.82 24.82 0 1 0 24.82-24.81 24.84 24.84 0 0 0-24.82 24.81zm-253-24.81a24.81 24.81 0 1 1-24.82 24.81 24.84 24.84 0 0 1 24.81-24.81zm-76.67-71.52h67.25l-13.61 49.28 92-50.28h57.36l1.26 34.68 32 14.76 11.74-14.44h15.62l3.16 16c137.56-13 192.61 29.17 192.61 29.17s-7.52 5-25.93 8.39c-3.88 3.31-3.66 14.44-3.66 14.44h24.2v16h-52v-27.48c-1.84.07-4.45.41-7.06.47a40.81 40.81 0 1 0-77.25 23h-204.24a40.81 40.81 0 1 0-77.61-17.67c0 1.24.06 2.46.17 3.67h-36z"/></g>
    <circle cx="103" cy="292.2" r="40.81" fill="#141414"/>
    <circle cx="103" cy="292.2" r="18" fill="#9aa0a8"/>
    <circle cx="151.10" cy="292.2" r="40.81" fill="#141414"/>
    <circle cx="151.10" cy="292.2" r="18" fill="#9aa0a8"/>
  </g>
</svg>
